<?xml version="1.0" encoding="utf-8"?>
<!-- Generator: Adobe Illustrator 16.0.0, SVG Export Plug-In . SVG Version: 6.00 Build 0)  -->
<!DOCTYPE svg PUBLIC "-//W3C//DTD SVG 1.1//EN" "http://www.w3.org/Graphics/SVG/1.1/DTD/svg11.dtd">
<svg version="1.1" id="Capa_1" xmlns="http://www.w3.org/2000/svg" xmlns:xlink="http://www.w3.org/1999/xlink" x="0px" y="0px"
	 width="36px" height="36px" viewBox="5.5 5.5 36 36" enable-background="new 5.5 5.5 36 36" xml:space="preserve">
<g>
	<g id="Layer_1_80_">
		<g>
			<path fill="#36BB52" d="M33.72,34.536H13.28c-0.903,0-1.635,0.732-1.635,1.636c0,0.902,0.732,1.635,1.635,1.635h20.439
				c0.903,0,1.636-0.732,1.636-1.635C35.355,35.268,34.623,34.536,33.72,34.536z"/>
			<path fill="#36BB52" d="M11.237,22.272v4.087c0,0.678,0.549,1.227,1.226,1.227c0.677,0,1.227-0.549,1.227-1.227v-4.087
				c0-0.678-0.55-1.226-1.227-1.226C11.787,21.047,11.237,21.596,11.237,22.272z"/>
			<path fill="#36BB52" d="M15.324,20.638v5.723c0,0.677,0.55,1.227,1.227,1.227c0.677,0,1.226-0.55,1.226-1.227v-5.723
				c0-0.676-0.549-1.227-1.226-1.227C15.874,19.411,15.324,19.961,15.324,20.638z"/>
			<path fill="#36BB52" d="M19.413,19.003v7.357c0,0.678,0.549,1.227,1.227,1.227c0.676,0,1.227-0.549,1.227-1.227v-7.357
				c0-0.677-0.55-1.227-1.227-1.227C19.962,17.776,19.413,18.326,19.413,19.003z"/>
			<path fill="#36BB52" d="M39.85,9.192H7.15c-0.903,0-1.636,0.732-1.636,1.636v20.439c0,0.902,0.732,1.635,1.636,1.635h31.205
				c-0.047-0.042-0.102-0.076-0.146-0.12l-2.262-2.264c-1.306,0.736-2.783,1.131-4.298,1.131c-2.065,0-4.02-0.713-5.592-2.015H8.784
				V12.462h29.432v4.609c1.421,1.604,2.207,3.64,2.207,5.803c0,1.514-0.394,2.99-1.13,4.295l2.192,2.194V10.827
				C41.485,9.925,40.752,9.192,39.85,9.192z"/>
			<path fill="#36BB52" d="M37.943,28.133c-0.163-0.165-0.382-0.23-0.595-0.208l-0.344-0.344c1.148-1.304,1.781-2.954,1.781-4.707
				c0-1.906-0.741-3.698-2.089-5.046c-1.348-1.351-3.14-2.092-5.048-2.092c-1.905,0-3.697,0.742-5.045,2.092
				c-1.352,1.348-2.094,3.14-2.094,5.046c0,1.906,0.744,3.699,2.094,5.047c1.348,1.35,3.14,2.089,5.045,2.089
				c1.755,0,3.404-0.632,4.708-1.781l0.346,0.343c-0.024,0.215,0.042,0.431,0.206,0.596l2.46,2.459
				c0.143,0.144,0.329,0.213,0.517,0.213c0.187,0,0.375-0.069,0.519-0.213c0.284-0.285,0.284-0.749,0-1.033L37.943,28.133z
				 M35.662,26.883c-1.07,1.074-2.497,1.665-4.013,1.665c-1.515,0-2.939-0.59-4.01-1.663c-1.072-1.07-1.663-2.497-1.663-4.011
				c0-1.515,0.589-2.94,1.663-4.012c1.07-1.072,2.498-1.663,4.01-1.663c1.516,0,2.942,0.59,4.013,1.663
				c1.069,1.072,1.661,2.497,1.661,4.012C37.323,24.388,36.731,25.813,35.662,26.883z"/>
		</g>
	</g>
</g>
</svg>
