<?xml version="1.0" encoding="utf-8"?>
<!-- Generator: Adobe Illustrator 16.0.0, SVG Export Plug-In . SVG Version: 6.00 Build 0)  -->
<!DOCTYPE svg PUBLIC "-//W3C//DTD SVG 1.1//EN" "http://www.w3.org/Graphics/SVG/1.1/DTD/svg11.dtd">
<svg version="1.1" id="Capa_1" xmlns="http://www.w3.org/2000/svg" xmlns:xlink="http://www.w3.org/1999/xlink" x="0px" y="0px"
	 width="36px" height="36px" viewBox="882 558 36 36" enable-background="new 882 558 36 36" xml:space="preserve">
<g>
	<path fill="#36BB52" stroke="#36BB52" stroke-miterlimit="10" d="M903.438,567.976c0-1.896-1.542-3.438-3.438-3.438
		s-3.439,1.542-3.439,3.438v2.866h-2.865v10.891h12.608v-10.891h-2.865V567.976z M897.707,567.976c0-1.264,1.028-2.292,2.293-2.292
		c1.263,0,2.293,1.028,2.293,2.292v2.866h-4.586V567.976z M905.158,571.988v8.597h-10.316v-8.597h1.719h6.878H905.158z"/>
	<path fill="#36BB52" d="M899.427,577.638v1.229c0,0.316,0.257,0.572,0.573,0.572s0.572-0.256,0.572-0.572v-1.229
		c0.987-0.256,1.721-1.146,1.721-2.211c0-1.265-1.03-2.293-2.293-2.293c-1.265,0-2.293,1.028-2.293,2.293
		C897.707,576.492,898.441,577.382,899.427,577.638z M900,574.28c0.632,0,1.146,0.515,1.146,1.146c0,0.633-0.514,1.146-1.146,1.146
		s-1.146-0.514-1.146-1.146C898.854,574.795,899.368,574.28,900,574.28z"/>
	<path fill="#36BB52" stroke="#36BB52" stroke-miterlimit="10" d="M900,558.806c-8.533,0-15.475,6.942-15.475,15.475
		c0,8.087,6.236,14.741,14.151,15.415l-2.521,2.521c-0.225,0.225-0.225,0.587,0,0.811c0.111,0.111,0.259,0.168,0.404,0.168
		c0.147,0,0.294-0.057,0.405-0.168l3.439-3.438c0.053-0.054,0.094-0.117,0.124-0.188c0.058-0.14,0.058-0.298,0-0.438
		c-0.03-0.071-0.071-0.134-0.124-0.187l-3.439-3.438c-0.224-0.225-0.586-0.225-0.81,0c-0.225,0.224-0.225,0.585,0,0.81l2.387,2.387
		c-7.22-0.732-12.872-6.846-12.872-14.255c0-7.901,6.428-14.328,14.329-14.328c7.9,0,14.329,6.427,14.329,14.328
		c0,3.803-1.474,7.383-4.148,10.084c-0.224,0.225-0.222,0.588,0.004,0.812c0.225,0.222,0.586,0.22,0.81-0.005
		c2.89-2.917,4.48-6.784,4.48-10.891C915.475,565.748,908.532,558.806,900,558.806z"/>
</g>
</svg>
