<?xml version="1.0" encoding="utf-8"?>
<!-- Generator: Adobe Illustrator 16.0.0, SVG Export Plug-In . SVG Version: 6.00 Build 0)  -->
<!DOCTYPE svg PUBLIC "-//W3C//DTD SVG 1.1//EN" "http://www.w3.org/Graphics/SVG/1.1/DTD/svg11.dtd">
<svg version="1.1" id="Layer_1" xmlns="http://www.w3.org/2000/svg" xmlns:xlink="http://www.w3.org/1999/xlink" x="0px" y="0px"
	 width="36px" height="36px" viewBox="238 238 36 36" enable-background="new 238 238 36 36" xml:space="preserve">
<path fill="#36BB52" d="M270.566,258.336v-15.871c0-0.534-0.433-0.967-0.967-0.967h-4.898v-1.031c0-0.534-0.433-0.967-0.967-0.967
	s-0.967,0.433-0.967,0.967v1.031H258.9v-1.031c0-0.534-0.433-0.967-0.967-0.967s-0.967,0.433-0.967,0.967v1.031H253.1v-1.031
	c0-0.534-0.433-0.967-0.967-0.967s-0.967,0.433-0.967,0.967v1.031h-3.867v-1.031c0-0.534-0.433-0.967-0.967-0.967
	s-0.967,0.433-0.967,0.967v1.031h-4.898c-0.534,0-0.967,0.433-0.967,0.967v25.201c0,0.534,0.433,0.967,0.967,0.967h16.101
	c1.563,2.33,4.222,3.867,7.231,3.867c4.798,0,8.701-3.903,8.701-8.701C272.5,261.732,271.775,259.831,270.566,258.336z
	 M245.365,243.432v0.967c0,0.534,0.433,0.967,0.967,0.967s0.967-0.433,0.967-0.967v-0.967h3.867v0.967
	c0,0.534,0.433,0.967,0.967,0.967s0.967-0.433,0.967-0.967v-0.967h3.867v0.967c0,0.534,0.433,0.967,0.967,0.967
	s0.967-0.433,0.967-0.967v-0.967h3.867v0.967c0,0.534,0.433,0.967,0.967,0.967s0.967-0.433,0.967-0.967v-0.967h3.932v3.867h-27.199
	v-3.867H245.365z M241.434,266.699v-17.467h27.199v7.335c-1.384-0.928-3.047-1.47-4.834-1.47c-3.055,0-5.747,1.583-7.3,3.972
	c-0.13-0.067-0.278-0.104-0.435-0.104h-1.934c-0.534,0-0.967,0.433-0.967,0.967s0.433,0.967,0.967,0.967h1.465
	c-0.219,0.615-0.37,1.264-0.444,1.934h-1.021c-0.534,0-0.967,0.433-0.967,0.967s0.433,0.967,0.967,0.967h1.021
	c0.074,0.67,0.225,1.318,0.444,1.934H241.434z M263.799,270.566c-3.731,0-6.768-3.036-6.768-6.768s3.036-6.768,6.768-6.768
	s6.768,3.036,6.768,6.768S267.53,270.566,263.799,270.566z"/>
<path fill="#36BB52" d="M267.666,262.832h-2.9v-2.9c0-0.534-0.433-0.967-0.967-0.967s-0.967,0.433-0.967,0.967v3.867
	c0,0.534,0.433,0.967,0.967,0.967h3.867c0.534,0,0.967-0.433,0.967-0.967S268.2,262.832,267.666,262.832z"/>
<path fill="#36BB52" d="M248.266,251.23h-1.934c-0.534,0-0.967,0.433-0.967,0.967s0.433,0.967,0.967,0.967h1.934
	c0.534,0,0.967-0.433,0.967-0.967S248.799,251.23,248.266,251.23z"/>
<path fill="#36BB52" d="M248.266,255.098h-1.934c-0.534,0-0.967,0.433-0.967,0.967c0,0.534,0.433,0.967,0.967,0.967h1.934
	c0.534,0,0.967-0.433,0.967-0.967C249.232,255.531,248.799,255.098,248.266,255.098z"/>
<path fill="#36BB52" d="M248.266,258.965h-1.934c-0.534,0-0.967,0.433-0.967,0.967s0.433,0.967,0.967,0.967h1.934
	c0.534,0,0.967-0.433,0.967-0.967S248.799,258.965,248.266,258.965z"/>
<path fill="#36BB52" d="M254.131,253.164h1.934c0.534,0,0.967-0.433,0.967-0.967s-0.433-0.967-0.967-0.967h-1.934
	c-0.534,0-0.967,0.433-0.967,0.967S253.597,253.164,254.131,253.164z"/>
<path fill="#36BB52" d="M254.131,257.031h1.934c0.534,0,0.967-0.433,0.967-0.967c0-0.534-0.433-0.967-0.967-0.967h-1.934
	c-0.534,0-0.967,0.433-0.967,0.967C253.164,256.599,253.597,257.031,254.131,257.031z"/>
<path fill="#36BB52" d="M248.266,262.832h-1.934c-0.534,0-0.967,0.433-0.967,0.967s0.433,0.967,0.967,0.967h1.934
	c0.534,0,0.967-0.433,0.967-0.967S248.799,262.832,248.266,262.832z"/>
<path fill="#36BB52" d="M261.865,253.164h1.934c0.534,0,0.967-0.433,0.967-0.967s-0.433-0.967-0.967-0.967h-1.934
	c-0.534,0-0.967,0.433-0.967,0.967S261.331,253.164,261.865,253.164z"/>
</svg>
