<?xml version="1.0" encoding="utf-8"?>
<!-- Generator: Adobe Illustrator 16.0.0, SVG Export Plug-In . SVG Version: 6.00 Build 0)  -->
<!DOCTYPE svg PUBLIC "-//W3C//DTD SVG 1.1//EN" "http://www.w3.org/Graphics/SVG/1.1/DTD/svg11.dtd">
<svg version="1.1" id="Layer_1" xmlns="http://www.w3.org/2000/svg" xmlns:xlink="http://www.w3.org/1999/xlink" x="0px" y="0px"
	 width="36px" height="36px" viewBox="222 222 36 36" enable-background="new 222 222 36 36" xml:space="preserve">
<path fill="#36BB52" d="M231.25,240c-4.833,0-8.75,3.918-8.75,8.75s3.917,8.75,8.75,8.75s8.75-3.918,8.75-8.75
	C239.994,243.92,236.081,240.006,231.25,240z M228.917,255.963V254h-1.167v1.47c-0.412-0.215-0.802-0.47-1.167-0.758v-0.7
	c0.001-0.781,0.518-1.467,1.269-1.685l1.269-0.362l1.78,1.335c0.207,0.155,0.492,0.155,0.699,0l1.78-1.335l1.269,0.362
	c0.75,0.218,1.267,0.903,1.268,1.685v0.703c-0.365,0.288-0.755,0.542-1.167,0.759V254h-1.167v1.963
	C232.067,256.457,230.433,256.457,228.917,255.963z M233.198,245.51l-0.259-0.52c-0.075-0.15-0.21-0.262-0.372-0.304
	c-0.162-0.043-0.334-0.015-0.474,0.078l-0.868,0.579c-0.479,0.32-1.042,0.49-1.618,0.49h-0.69c-0.005-1.289,1.036-2.337,2.325-2.342
	c1.289-0.005,2.337,1.036,2.341,2.325C233.416,245.777,233.274,245.664,233.198,245.51z M229.607,247
	c0.806,0.001,1.594-0.239,2.265-0.686l0.32-0.214c0.184,0.324,0.467,0.581,0.809,0.729v0.753c0,0.967-0.784,1.75-1.75,1.75
	s-1.75-0.783-1.75-1.75V247H229.607z M231.25,250.5c0.196,0,0.391-0.019,0.583-0.058v0.642c0.002,0.165,0.075,0.322,0.202,0.432
	l-0.785,0.588l-0.785-0.588c0.126-0.109,0.199-0.267,0.201-0.432v-0.642C230.858,250.481,231.054,250.5,231.25,250.5z
	 M237.051,253.625c-0.154-1.148-0.971-2.097-2.083-2.42L233,250.642v-0.739c0.731-0.547,1.164-1.406,1.167-2.319V247
	c0.322,0,0.583-0.262,0.583-0.584v-0.582c0-1.934-1.567-3.5-3.5-3.5c-1.933,0-3.5,1.566-3.5,3.5v0.582
	c0,0.322,0.261,0.584,0.583,0.584v0.583c0.003,0.913,0.436,1.772,1.167,2.319v0.739l-1.968,0.563
	c-1.112,0.322-1.928,1.271-2.083,2.42c-2.589-3.075-2.329-7.638,0.594-10.398c2.923-2.76,7.491-2.76,10.414,0
	C239.379,245.987,239.64,250.55,237.051,253.625z"/>
<path fill="#36BB52" d="M225.417,248.167h1.167v1.166h-1.167V248.167z"/>
<path fill="#36BB52" d="M235.917,248.167h1.167v1.166h-1.167V248.167z"/>
<path fill="#36BB52" d="M248.75,240c-4.832,0-8.75,3.918-8.75,8.75s3.918,8.75,8.75,8.75s8.75-3.918,8.75-8.75
	C257.495,243.92,253.58,240.006,248.75,240z M246.416,255.963V254h-1.166v1.47c-0.411-0.215-0.802-0.47-1.166-0.758v-0.7
	c0.001-0.781,0.519-1.467,1.269-1.685l1.268-0.362l1.779,1.335c0.208,0.155,0.493,0.155,0.701,0l1.779-1.335l1.27,0.362
	c0.749,0.218,1.266,0.903,1.267,1.685v0.703c-0.364,0.288-0.755,0.542-1.166,0.759V254h-1.166v1.963
	C249.567,256.457,247.933,256.457,246.416,255.963z M250.697,245.51l-0.258-0.52c-0.075-0.15-0.211-0.262-0.373-0.304
	c-0.161-0.043-0.334-0.015-0.474,0.078l-0.868,0.579c-0.479,0.32-1.042,0.49-1.618,0.49h-0.69c-0.003-1.289,1.037-2.337,2.325-2.342
	c1.29-0.005,2.338,1.036,2.343,2.325C250.915,245.777,250.774,245.664,250.697,245.51z M247.106,247
	c0.808,0.001,1.595-0.239,2.265-0.686l0.32-0.214c0.184,0.324,0.467,0.581,0.809,0.729v0.753c0,0.967-0.783,1.75-1.75,1.75
	s-1.75-0.783-1.75-1.75V247H247.106z M248.75,250.5c0.195,0,0.392-0.019,0.583-0.058v0.642c0.002,0.165,0.075,0.322,0.202,0.432
	l-0.785,0.588l-0.785-0.588c0.127-0.109,0.2-0.267,0.202-0.432v-0.642C248.358,250.481,248.555,250.5,248.75,250.5z
	 M254.551,253.625c-0.154-1.148-0.971-2.097-2.082-2.42l-1.969-0.563v-0.739c0.732-0.547,1.164-1.406,1.166-2.319V247
	c0.323,0,0.584-0.262,0.584-0.584v-0.582c0-1.934-1.567-3.5-3.5-3.5s-3.5,1.566-3.5,3.5v0.582c0,0.322,0.261,0.584,0.584,0.584
	v0.583c0.002,0.913,0.435,1.772,1.166,2.319v0.739l-1.969,0.563c-1.111,0.322-1.928,1.271-2.082,2.42
	c-2.589-3.075-2.329-7.638,0.594-10.398c2.923-2.76,7.491-2.76,10.414,0C256.88,245.987,257.141,250.55,254.551,253.625z"/>
<path fill="#36BB52" d="M242.916,248.167h1.168v1.166h-1.168V248.167z"/>
<path fill="#36BB52" d="M253.416,248.167h1.168v1.166h-1.168V248.167z"/>
<path fill="#36BB52" d="M237.667,233h0.583v1.75c0,0.235,0.142,0.449,0.36,0.539c0.217,0.09,0.468,0.04,0.635-0.126l2.163-2.163
	h0.926c2.255,0,4.082-1.828,4.082-4.083s-1.827-4.084-4.082-4.084h-4.667c-2.255,0-4.084,1.829-4.084,4.084S235.412,233,237.667,233
	z M237.667,226h4.667c1.61,0,2.916,1.306,2.916,2.917c0,1.61-1.306,2.916-2.916,2.916h-1.168c-0.153,0-0.303,0.062-0.412,0.171
	l-1.337,1.338v-0.925c0-0.322-0.261-0.584-0.583-0.584h-1.166c-1.611,0-2.917-1.306-2.917-2.916
	C234.75,227.306,236.056,226,237.667,226z"/>
<path fill="#36BB52" d="M239.417,228.333h1.167v1.167h-1.167V228.333z"/>
<path fill="#36BB52" d="M241.75,228.333h1.166v1.167h-1.166V228.333z"/>
<path fill="#36BB52" d="M237.083,228.333h1.167v1.167h-1.167V228.333z"/>
<path fill="#36BB52" d="M255.75,230.667h1.167v1.167h-1.167V230.667z"/>
<path fill="#36BB52" d="M255.75,233h1.167v1.167h-1.167V233z"/>
<path fill="#36BB52" d="M255.75,235.333h1.167v1.167h-1.167V235.333z"/>
<path fill="#36BB52" d="M255.75,237.667h1.167v1.166h-1.167V237.667z"/>
<path fill="#36BB52" d="M226.583,229.5h3.5v6.417c0,0.966,0.784,1.75,1.75,1.75h16.334c0.966,0,1.749-0.784,1.749-1.75V229.5h3.5
	V240h1.168v-11.083c0-0.323-0.262-0.584-0.584-0.584h-4.084v-4.083c0-0.966-0.783-1.75-1.749-1.75h-16.334
	c-0.966,0-1.75,0.784-1.75,1.75v4.083H226c-0.322,0-0.583,0.261-0.583,0.584V240h1.167V229.5z M231.25,224.25
	c0-0.322,0.261-0.583,0.583-0.583h16.334c0.321,0,0.583,0.261,0.583,0.583v11.667c0,0.322-0.262,0.583-0.583,0.583h-16.334
	c-0.322,0-0.583-0.261-0.583-0.583V224.25z"/>
<path fill="#36BB52" d="M223.083,230.667h1.167v1.167h-1.167V230.667z"/>
<path fill="#36BB52" d="M223.083,233h1.167v1.167h-1.167V233z"/>
<path fill="#36BB52" d="M223.083,235.333h1.167v1.167h-1.167V235.333z"/>
<path fill="#36BB52" d="M223.083,237.667h1.167v1.166h-1.167V237.667z"/>
</svg>
