               <!--
  Motion Automation SVG - Copy and paste the this code to the main location of svg div in the home page
  -->
<svg id="motion_automation" version="1.1" xmlns="http://www.w3.org/2000/svg" xmlns:xlink="http://www.w3.org/1999/xlink" x="0px" y="0px"
   viewBox="0 0 550 550" style="enable-background:new 0 0 550 500;" xml:space="preserve">
<style type="text/css">
  .st0{fill:#999999;}
  .st1{fill:none;}
  .st2{fill:none;stroke:#008ED3;stroke-width:2.8051;stroke-miterlimit:10;}
  .st3{fill:none;stroke:#008ED3;stroke-width:2.8051;stroke-linecap:square;stroke-linejoin:round;stroke-miterlimit:10;}
  .st4{fill:#008ED3;}
  .st5{fill:none;stroke:#80C242;stroke-width:2.782;stroke-linecap:square;stroke-linejoin:round;stroke-miterlimit:10;}
  .st6{fill:none;stroke:#80C242;stroke-width:2.8051;stroke-miterlimit:10;}
  .st7{fill:none;stroke:#80C242;stroke-width:2.782;stroke-miterlimit:10;}
  .st8{fill:#FFFFFF;stroke:#008ED3;stroke-width:2.8051;stroke-miterlimit:10;}
  .st9{fill:none;stroke:#008ED3;stroke-width:3.7401;stroke-miterlimit:10;}
  .st10{fill:none;stroke:#80C242;stroke-width:1.8701;stroke-miterlimit:10;}
  .st11{fill:none;stroke:#2E3091;stroke-width:0.935;stroke-miterlimit:10;}
  .st12{fill:none;stroke:#2E3091;stroke-width:0.935;stroke-miterlimit:10;stroke-dasharray:4.0959,4.0959;}
  .st13{fill:none;stroke:#2E3091;stroke-width:0.935;stroke-miterlimit:10;stroke-dasharray:4.4248,4.4248;}
  .st14{fill:none;stroke:#2E3091;stroke-width:0.935;stroke-miterlimit:10;stroke-dasharray:3.9115,3.9115;}
  .st15{fill:#2E3091;}
  .st16{fill:none;stroke:#008ED3;stroke-width:1.8701;stroke-miterlimit:10;}
  .st17{fill:none;stroke:#008ED3;stroke-width:2.8051;stroke-linecap:round;stroke-linejoin:round;stroke-miterlimit:10;}
  .st18{fill:none;stroke:#008ED3;stroke-width:1.0594;stroke-miterlimit:10;}
  .st19{fill:none;stroke:#008ED3;stroke-width:2.1188;stroke-miterlimit:10;}
  .st20{fill:none;stroke:#008ED3;stroke-width:2.1188;stroke-linecap:round;stroke-linejoin:bevel;stroke-miterlimit:10;}
  .st21{fill:none;stroke:#008ED3;stroke-width:1.5891;stroke-linecap:round;stroke-linejoin:bevel;stroke-miterlimit:10;}
  .st22{fill:none;stroke:#80C242;stroke-width:2.8141;stroke-linecap:square;stroke-linejoin:round;stroke-miterlimit:10;}
  .st23{fill:#FFFFFF;stroke:#008ED3;stroke-width:1.4025;stroke-linecap:round;stroke-linejoin:round;stroke-miterlimit:10;}
  .st24{fill:none;stroke:#008ED3;stroke-width:1.5895;stroke-linecap:square;stroke-linejoin:round;stroke-miterlimit:10;}
  .st25{fill:none;stroke:#008ED3;stroke-width:1.8451;stroke-linecap:round;stroke-linejoin:round;stroke-miterlimit:10;}
  .st26{fill:#FFFFFF;stroke:#80C242;stroke-width:2.8402;stroke-miterlimit:10;}
  .st27{fill:#FFFFFF;stroke:#80C242;stroke-width:2.8051;stroke-miterlimit:10;}
  .st28{opacity:0.42;}
  .st29{fill:#80C242;}
  .st30{fill:none;stroke:#2E3091;stroke-width:2.2441;stroke-miterlimit:10;}
  .st31{fill:none;stroke:#2E3091;stroke-width:1.8701;stroke-miterlimit:10;}
  .st32{fill:#FFFFFF;stroke:#2E3091;stroke-width:1.8701;stroke-miterlimit:10;}
  .st33{font-family:'MyriadPro-Regular';}
  .st34{font-size:7.172px;}
  .st35{font-size:4.4717px;}
  .st36{fill:#B9EAFF;}
  .st37{fill:none;stroke:#008ED3;stroke-width:0.935;stroke-miterlimit:10;}
  .st38{fill:none;stroke:#999999;stroke-width:0.9555;stroke-miterlimit:10;}
  .st39{fill:none;stroke:#2E3091;stroke-width:1.5528;stroke-linecap:round;stroke-linejoin:round;stroke-miterlimit:10;}
</style>
<g id="Layer_1">
  <polygon class="st1" points="335,385.7 270.2,356.4 267.2,345.3 267.1,330.2 270.4,250.8 263.9,247.6 266.3,226.7 268.2,227.9
    329.3,255.7 335,268.6 	"/>
  <path class="st2" d="M334.9,386c1.9-0.9,0.9-7.4,0.9-7.4v-27l-0.9-77.2c0.9-15.8-5.6-18.6-5.6-18.6l-14.9-7.4l-48.2-21.7"/>
  <path class="st3" d="M430.3,223.4c0,0,11.6,1.8,11.6,14.8v6.5l3.7,6.5c0,0,3.7,2.8,6.5,4.6c2.8,1.9,2.8,2.8,2.8,13
    s0.9,88.2,0.9,88.2"/>
  <ellipse class="st4" cx="275" cy="346.5" rx="3.3" ry="6"/>
  <polygon class="st5" points="382.7,193.3 382.7,233 430.3,222.9 430.3,183.8 	"/>
  <line class="st6" x1="354.5" y1="179.9" x2="369.7" y2="177.3"/>
  <ellipse class="st7" cx="456.6" cy="179.7" rx="22.2" ry="6.4"/>
  <path class="st7" d="M434.3,181.4v24.2c0,0,0,7.4,28.8,5.6c0,0,14.9-0.9,15.8-6.5v-25.1"/>
  <path class="st2" d="M270.8,251.2l-6.5-3.7v-15.8c0,0,0.9-11.2,18.6-7.4l53.9,23.2c0,0,13,4.6,12.1,17.7l0.2,17.6l3.2-0.8l1.2,75.3
    h-2.8v20.5c0,0,2.8,6.5-10.2,6.5l-5.6,1.9l-32.5-13.9l-15.8-7.4l-7.4-3.7c0,0-12.1-3.7-12.1-15.8v-14.9"/>

    <ellipse transform="matrix(0.9797 -0.2004 0.2004 0.9797 -55.4748 65.8465)" class="st8" cx="297.5" cy="306.9" rx="35.5" ry="65"/>
  <ellipse class="st4" cx="271.2" cy="240.5" rx="3.3" ry="6"/>
  <ellipse class="st4" cx="328" cy="267.5" rx="3.3" ry="6"/>
  <ellipse class="st4" cx="329.8" cy="374.4" rx="3.3" ry="6"/>
  <line class="st9" x1="350.8" y1="372.2" x2="455.8" y2="350.8"/>
  <line class="st9" x1="350.8" y1="358.1" x2="461.4" y2="334.9"/>
  <line class="st2" x1="351.6" y1="281.7" x2="465.1" y2="257.8"/>
  <line class="st2" x1="349.1" y1="276.3" x2="461.4" y2="252.1"/>
  <line class="st2" x1="348.9" y1="271.6" x2="457.7" y2="248.7"/>
  <line class="st2" x1="450.9" y1="243.1" x2="349.5" y2="266.2"/>
  <line class="st2" x1="294" y1="227.9" x2="355.4" y2="215.8"/>
  <polyline class="st6" points="430.3,214.5 446.5,221.7 491.2,213.1 491.2,206.5 478.2,200.1 	"/>
  <line class="st10" x1="446.5" y1="215.8" x2="446.5" y2="221.4"/>
  <path class="st6" d="M491.2,213.1l2.9-1l-0.2,20.5c0,0,16.7,23.2,14.9,56.7c0,0-0.8,24.4-12.7,36.3l-35.7,5.6"/>
  <line class="st6" x1="452.9" y1="242.7" x2="494" y2="232.6"/>
  <polyline class="st6" points="430.3,217.7 444.9,224 444.9,230.4 	"/>
  <line class="st6" x1="444.7" y1="223.3" x2="446.5" y2="221.4"/>
  <line class="st6" x1="413.5" y1="175.5" x2="430.4" y2="183.8"/>
  <line class="st10" x1="431.1" y1="201.5" x2="433.5" y2="200"/>
  <g>
    <g>
      <line class="st11" x1="182.1" y1="220.5" x2="184.4" y2="220.5"/>
      <line class="st12" x1="188.5" y1="220.5" x2="194.6" y2="220.5"/>
      <polyline class="st11" points="196.7,220.5 199,220.5 199,222.9 			"/>
      <line class="st13" x1="199" y1="227.3" x2="199" y2="278.2"/>
      <polyline class="st11" points="199,280.4 199,282.7 201.4,282.7 			"/>
      <line class="st14" x1="205.3" y1="282.7" x2="219" y2="282.7"/>
      <line class="st11" x1="220.9" y1="282.7" x2="223.3" y2="282.7"/>
    </g>
  </g>
  <polyline class="st15" points="222.3,279.9 225.8,282.7 222.4,285.5 	"/>

  <path class="st17" d="M337.7,247.5l105.1-21.4l3.7,8.4l0.3,9.5l6.2-1.2l5.6,8.4c0,0,7.4,0,7.4,12.1l0.2,62.3l-4.9,1v13.6
    c0,0-0.2,1.1-5.6,1.6v16.2l-104.1,20.6"/>
  <line class="st9" x1="351.7" y1="363.6" x2="456.2" y2="342.1"/>

    <ellipse transform="matrix(0.9921 -0.1255 0.1255 0.9921 -36.3238 39.1446)" class="st19" cx="292.6" cy="307.9" rx="13.7" ry="28.1"/>
  <path class="st20" d="M293.8,281.7c-5.9,3.2-9.3,14.1-7.7,26.5c1.7,13.5,8.6,23.8,15.7,24"/>

    <ellipse transform="matrix(0.9954 -9.616008e-02 9.616008e-02 0.9954 -28.3386 29.7188)" class="st19" cx="294.2" cy="308.9" rx="18.3" ry="34"/>
  <path class="st19" d="M278.9,245.1c19.2-3.9,40.6,21.4,47.8,56.6c7.2,35.2-2.6,65.7-21.8,69.6"/>
  <line class="st2" x1="346.3" y1="254.9" x2="441.9" y2="234.4"/>
  <polyline class="st6" points="431.1,209.6 446.8,216.7 491.7,207.2 	"/>
  <path class="st21" d="M288.8,275.9c9.7-0.9,19,13.3,20.8,31.9c1.8,18.5-4.6,34.3-14.3,35.2"/>
  <polygon class="st22" points="355.1,180.3 355.1,218.9 381.9,233 381.9,193.5 	"/>
  <g>
    <path class="st23" d="M249.1,331.5l46-7.8l1.8,1.9l8.5-1.4c0,0,4.5-16.5-4.5-34.8l-14.1,2.7v1.9l-40.6,8.4c0,0,3.1,0.2,4.8,1.8
      c0,0,6.5,6.5,5.7,17C256.7,321.1,255.6,330.9,249.1,331.5z"/>
    <path class="st24" d="M286.7,293.4c5.6-1.8,9.8,5.9,11.2,14.7c1.3,8.1,0,12.9-3.2,15.3"/>
    <path class="st24" d="M289.3,291.7c4.5-0.7,10.2,4.9,11.7,14c1.5,9.1,0.4,18.6-4,19.4"/>

      <ellipse transform="matrix(0.9921 -0.1255 0.1255 0.9921 -37.7819 33.5498)" class="st1" cx="247.4" cy="316.7" rx="8.4" ry="14.6"/>
    <path class="st25" d="M243.8,303.1c4.6-0.6,9.1,5.1,10,12.6c1,7.5-2,14.1-6.6,14.7"/>
    <ellipse class="st4" cx="247.1" cy="316.4" rx="2" ry="3"/>

      <ellipse transform="matrix(0.9921 -0.1255 0.1255 0.9921 -37.7746 33.6646)" class="st16" cx="248.3" cy="316.7" rx="8.4" ry="14.6"/>
  </g>
  <path class="st26" d="M369.5,155.5v24.1c0,0-0.9,10.5,27.4,8.6c0,0,16.5-2.9,16.5-9.5v-22.9"/>
  <ellipse class="st27" cx="391.3" cy="156.6" rx="21.9" ry="6.5"/>
  <line class="st2" x1="264.4" y1="248.2" x2="264.4" y2="264.1"/>
</g>
<g id="shapes" class="floatcv">
  <g class="st28">
    <rect x="410.5" y="388" class="st4" width="11" height="11"/>
    <rect x="239.5" y="394" class="st29" width="11" height="11"/>
    <circle class="st29" cx="450.5" cy="116" r="6"/>
    <polygon class="st29" points="243.6,80 238.4,80 235.8,84.5 238.4,89 243.6,89 246.2,84.5 		"/>
    <polygon class="st29" points="230.6,229 225.4,229 222.8,233.5 225.4,238 230.6,238 233.2,233.5 		"/>
    <polygon class="st4" points="184.6,320 179.4,320 176.8,324.5 179.4,329 184.6,329 187.2,324.5 		"/>
    <polygon class="st4" points="312.3,191.3 309,201.5 301.8,193.6 		"/>
    <polygon class="st4" points="115.3,332.3 112,342.5 104.8,334.6 		"/>
    <polygon class="st29" points="211.3,163.3 208,173.5 200.8,165.6 		"/>
  </g>
</g>
<g id="bigwheel">
  <g>
    <g>
      <path class="st16" d="M101.5,202.8c0,0-27.1-6.6-40.9,15.8"/>
      <polygon class="st4" points="64.3,219.6 57.3,225.2 58,216 		"/>
    </g>
    <path class="st30" d="M63.9,194.6c0,0,27.9-16.4,68.4-0.3s37.1,50.3,37.1,50.3s-1.6,18.3-17.7,21.6"/>
    <path class="st30" d="M46.8,207.4c0,0,17-26.9,67.2-14.4c0,0,34.2,5.6,45.6,31.7c12.8,29.4-3.3,38.9-3.3,38.9s-6.1,5-37.8,10
      l-13.3,5.6c0,0-19.3,11.9-43.9-5c-21.1-14.4-24.5-37.1-21.7-50.6C40.4,219.2,41.9,214.5,46.8,207.4z"/>
    <path class="st31" d="M99.8,213.9c12.7,0,23,10.5,23,23.4s-10.8,22.9-23.5,22.9"/>
    <path class="st31" d="M119.4,237.3c0,12.9-10.8,22.9-23.5,22.9s-22.4-10-22.4-22.9s10.3-23.4,23-23.4S119.4,224.4,119.4,237.3z"/>
    <path class="st31" d="M109.2,237.5c0,7.2-5.8,13-13,13s-13-5.8-13-13c0-6.3,4.4-11.5,10.4-12.8c0.2,0,0.3-0.4,0.3-0.4l-0.1-3.8
      h5.9c0,0-0.2,2.6-0.2,4c0,0.3,0.1,0.4,0.2,0.5C105.2,226.4,109.2,231.5,109.2,237.5z"/>
    <path class="st32" d="M99.7,221.2c-5.4,1.9-9.3,7-9.3,13.1c0,7.7,6.2,13.2,13.9,13.2c0,0,6.3-5.6,4.3-13.7
      c-1.8-7.3-9.3-8.9-9.3-8.9L99.7,221.2z"/>
    <path class="st31" d="M84.6,188.8c-0.7,0-1.4-0.1-2.1-0.2"/>
  </g>
</g>
<g id="sinegraph">
  <g>
    <text transform="matrix(0.8906 -0.1893 0 1 286.5204 132.1476)" class="st15 st33 st34">0˚</text>
    <text transform="matrix(0.8906 -0.1893 0 1 302.5032 127.848)" class="st15 st33 st35">90˚</text>
    <text transform="matrix(0.8906 -0.1893 0 1 333.8011 121.1955)" class="st15 st33 st35">270˚</text>
    <g>
      <g>
        <g>
          <g>
            <polygon class="st36" points="249.2,133.7 412.4,99 412.8,101.1 417.7,96.7 411.5,94.6 411.9,96.7 248.7,131.4 						"/>
          </g>
        </g>
      </g>
      <g>
        <g>
          <g>
            <polygon class="st36" points="285.9,146.8 285.9,54.2 288,54.2 284.7,48.5 281.4,54.2 283.5,54.2 283.5,146.8 						"/>
          </g>
        </g>
      </g>
      <line class="st37" x1="287.3" y1="86.9" x2="282" y2="88"/>
      <line class="st37" x1="287.3" y1="67" x2="282" y2="68.1"/>
      <line class="st37" x1="287.3" y1="107.3" x2="282" y2="108.4"/>
      <line class="st37" x1="321.7" y1="121.6" x2="321.7" y2="116.3"/>
      <line class="st37" x1="351.1" y1="115.3" x2="351.1" y2="110"/>
      <line class="st37" x1="366.2" y1="110" x2="366.2" y2="106.8"/>
      <line class="st37" x1="392.8" y1="104.4" x2="392.8" y2="101.2"/>
      <line class="st37" x1="336.8" y1="116.3" x2="336.8" y2="113.1"/>
      <line class="st37" x1="304.6" y1="123.1" x2="304.6" y2="119.9"/>
      <line class="st37" x1="380.5" y1="109.1" x2="380.5" y2="103.8"/>
      <path id="graph_x5F_trace" class="st39" d="M408.2,92.5c-0.8,3.4-2,6.9-2.9,10.3c-1.4,5.6-3.7,10.9-9.7,13.2
        c-10.6,4.1-12.5-6.8-15.4-20.4c-1.1-5.4-3.7-12.6-9.7-13.8c-9.2-1.9-14.2,15.9-16.3,22.1c-3.7,10.9-14.7,33.9-26.4,21.5
        c-4.6-4.9-6.2-12-9-18.1c-2.5-5.4-7.4-14.7-15.2-12.6c-8.4,2.2-11.1,13.4-13.6,20.2c-3.2,8.8-6.7,19.3-14.9,25.5
        c-5.1,3.9-12.3,3.9-14.9-1c-4.7-8.6-4.2-12.7-10.9-21.8"/>
    </g>
  </g>
</g>
</svg>