<svg id="Layer_1" xmlns="http://www.w3.org/2000/svg" xmlns:xlink="http://www.w3.org/1999/xlink" viewBox="0 0 550 500"><style>.st3{opacity:.38}.st4{fill:#9578a6}.st5{fill:#55617f}.st6{fill:#bcc2c6}.st7{fill:#74c086}.st8{fill:#008ed3}.st9{fill:#fff}.st13{fill:#3f454c}.st14{fill:#37575c;stroke:#2a4345;stroke-width:.9148;stroke-miterlimit:10}.st15{fill:#213b3b}.st15,.st16{opacity:.5}.st17{fill:#f3fb77}.st18{fill:#fbdd3e}.st19{fill:#f1adb9}.st20{fill:#d3edfb}.st21{fill:#baec5e}.st22{fill:#868686}.st23{fill:#daffff}.st24{fill:#aaa}.st27,.st31{opacity:6.000000e-02;fill:#fff}.st31{opacity:.4}.st49{fill:#80c242}.st51{fill:#2e3091}.st127{fill:#cbcbcb}.st128{fill:#75abca}.st129{fill:#b8dd95}.st130{fill:#bcb8b5}.st135{fill:#f9a52c}.st136{fill:#b0b0fa}.st137{opacity:.15}.st138{opacity:.26}.st139{opacity:.62}.st140{fill:#d4dad9}.st141{fill:#eee}.st143{fill:#cecffc}.st146{fill:#88bad8}.st148{fill:#a7d9e7}.st157{fill:#c4c4c4}.st158{fill:#c2c2c2}.st160{fill:#343643}.st163,.st164{fill:none;stroke:#fff;stroke-width:1.4815;stroke-miterlimit:10}.st164{stroke:#008ed3;stroke-width:1.1439}.st168{fill:#bababa}</style><switch><g><defs><path id="SVGID_1_" d="M-923 405.5c.3.3.6.4 1 .4s.7-.1 1-.4c.6-.6.6-1.5 0-2-.6-.6-1.5-.6-2 0-.6.5-.6 1.4 0 2z"/></defs><clipPath id="SVGID_2_"><use xlink:href="#SVGID_1_" overflow="visible"/></clipPath><g clip-path="url(#SVGID_2_)"><defs><path id="SVGID_3_" d="M-1135.5 245h1439v511h-1439z"/></defs><clipPath id="SVGID_4_"><use xlink:href="#SVGID_3_" overflow="visible"/></clipPath></g><defs><path id="SVGID_5_" d="M-909.4 423.5l-3.1-3.1h9.9l3.1 3.1h-9.9zm-22.4-7.2c-.4-.7-1.3-.9-1.9-.5l-3.4 2c-.4.3-.7.7-.7 1.2s.3 1 .7 1.2l3.4 2c.2.1.5.2.7.2.5 0 1-.3 1.2-.7.2-.4.2-.9.1-1.3h5.1c-.3 2.1-1.3 4.1-2.8 5.6-1.9 1.9-4.4 2.9-7 2.9-2.7 0-5.2-1-7-2.9-1.9-1.9-2.9-4.4-2.9-7 0-2.7 1-5.1 2.9-7 1.9-1.9 4.4-2.9 7-2.9 2.7 0 5.2 1 7 2.9 1.5 1.5 2.5 3.5 2.8 5.6h-5.1c.1-.5.1-.9-.1-1.3zm15.2 22.5c-1.9 1.9-4 3.5-6.2 4.7h-.1c-1.7 1-3.6 1.7-5.5 2.3-.1 0-.1 0-.2.1-2.5.7-5.2 1.1-7.9 1.1s-5.3-.4-7.9-1.1c-.1 0-.1 0-.2-.1-1.9-.6-3.7-1.3-5.5-2.3h-.1c-2.3-1.3-4.4-2.8-6.2-4.7-5.3-5.3-8.3-12.4-8.3-19.9 0-7.5 2.9-14.6 8.3-19.9 5.3-5.3 12.4-8.2 19.9-8.2 7.5 0 14.6 2.9 19.9 8.2 3.5 3.5 6 7.8 7.3 12.5h-.7c-.4 0-.7.1-1 .4l-3.8 3.8c-.4-2.6-1.2-5.1-2.5-7.4-.4-.7-1.2-.9-1.9-.6-.7.4-.9 1.2-.6 1.9 1.4 2.4 2.1 5.1 2.3 7.8h-6.3c-.3-2.9-1.6-5.5-3.7-7.6-2.4-2.4-5.6-3.7-9.1-3.7s-6.6 1.3-9.1 3.7c-2.4 2.4-3.8 5.6-3.8 9 0 3.4 1.3 6.6 3.8 9 2.4 2.4 5.6 3.7 9.1 3.7s6.6-1.3 9.1-3.7c2.1-2.1 3.4-4.7 3.7-7.6h6.3c-.3 4.4-2.2 8.7-5.5 12-3.6 3.6-8.4 5.6-13.5 5.6s-9.9-2-13.5-5.6c-3.6-3.6-5.6-8.4-5.6-13.4 0-5.1 2-9.9 5.6-13.5 6-6 15.3-7.3 22.7-3.2.7.4 1.6.1 1.9-.6.4-.7.1-1.5-.6-1.9-4.1-2.2-8.9-3.1-13.5-2.5-4.8.6-9.1 2.8-12.6 6.2-4.1 4.1-6.4 9.6-6.4 15.5 0 5.8 2.3 11.3 6.4 15.5 4.1 4.1 9.6 6.4 15.5 6.4s11.4-2.3 15.5-6.4c3.4-3.4 5.5-7.6 6.2-12.3l3.8 3.8c.3.3.6.4 1 .4h.7c-1.2 4.8-3.7 9.1-7.2 12.6zm-3 13.4h-4.1l-2.3-4.1c1.1-.4 2.2-.9 3.3-1.4l3.1 5.5zm-29.7 0h-4.1l3.1-5.5c1.1.5 2.2 1 3.3 1.4l-2.3 4.1zm46.7-34.7h-9.9l3.1-3.1h9.9l-3.1 3.1zm2.6 1.4l5-4.9c.4-.4.5-1 .3-1.5s-.7-.9-1.3-.9h-10.3c-1.3-5.5-4.2-10.5-8.2-14.5-5.9-5.8-13.6-9.1-21.9-9.1s-16.1 3.2-21.9 9.1c-5.9 5.8-9.1 13.6-9.1 21.9 0 8.3 3.2 16 9.1 21.9 1.7 1.7 3.7 3.2 5.7 4.5l-4.3 7.6c-.2.4-.2 1 0 1.4.3.4.7.7 1.2.7h7.3c.5 0 1-.3 1.2-.7l3-5.3c2.5.6 5.1 1 7.7 1s5.2-.3 7.7-1l3 5.3c.3.4.7.7 1.2.7h7.3c.5 0 1-.3 1.2-.7.3-.4.3-1 0-1.4l-4.3-7.6c2-1.3 4-2.8 5.7-4.5 4-4 6.9-9 8.2-14.5h10.3c.6 0 1.1-.3 1.3-.9.2-.5.1-1.1-.3-1.5l-4.8-5.1z"/></defs><clipPath id="SVGID_6_"><use xlink:href="#SVGID_5_" overflow="visible"/></clipPath><g clip-path="url(#SVGID_6_)"><defs><path id="SVGID_7_" d="M-1135.5 245h1439v511h-1439z"/></defs><clipPath id="SVGID_8_"><use xlink:href="#SVGID_7_" overflow="visible"/></clipPath></g><defs><path id="SVGID_9_" d="M-936.4 428.3c5.2 0 9.5-4.3 9.5-9.5 0-5.3-4.2-9.5-9.5-9.5s-9.5 4.3-9.5 9.5 4.3 9.5 9.5 9.5zm-41.5-51h82.9v83h-82.9v-83z"/></defs><clipPath id="SVGID_10_"><use xlink:href="#SVGID_9_" overflow="visible"/></clipPath><g clip-path="url(#SVGID_10_)"><defs><path id="SVGID_11_" d="M-1135.5 245h1439v511h-1439z"/></defs><clipPath id="SVGID_12_"><use xlink:href="#SVGID_11_" overflow="visible"/></clipPath></g><defs><path id="SVGID_13_" d="M-926.9 417.9h13.5v2.7h-13.5z"/></defs><clipPath id="SVGID_14_"><use xlink:href="#SVGID_13_" overflow="visible"/></clipPath><g clip-path="url(#SVGID_14_)"><defs><path id="SVGID_15_" d="M-1135.5 245h1439v511h-1439z"/></defs><clipPath id="SVGID_16_"><use xlink:href="#SVGID_15_" overflow="visible"/></clipPath></g><defs><path id="SVGID_17_" d="M-930.7 592.4c-3.6-7-11-2-6.3 3.7 3.1 3.8 6.3 5.6 6.3 5.6s3.2-1.8 6.3-5.6c4.7-5.7-2.6-10.7-6.3-3.7z"/></defs><clipPath id="SVGID_18_"><use xlink:href="#SVGID_17_" overflow="visible"/></clipPath><g clip-path="url(#SVGID_18_)"><defs><path id="SVGID_19_" d="M-1135.5 245h1439v511h-1439z"/></defs><clipPath id="SVGID_20_"><use xlink:href="#SVGID_19_" overflow="visible"/></clipPath></g><defs><path id="SVGID_21_" d="M-934.5 595.2c-2.1-2.5-1.8-4.9-.5-6.2-2.9-.1-5 3.4-1.9 7.1 3.1 3.8 6.3 5.6 6.3 5.6s.7-.4 1.9-1.3c-1.2-.7-3.5-2.4-5.8-5.2z"/></defs><clipPath id="SVGID_22_"><use xlink:href="#SVGID_21_" overflow="visible"/></clipPath><g clip-path="url(#SVGID_22_)"><defs><path id="SVGID_23_" d="M-1135.5 245h1439v511h-1439z"/></defs><clipPath id="SVGID_24_"><use xlink:href="#SVGID_23_" overflow="visible"/></clipPath></g><defs><path id="SVGID_25_" d="M-897.6 597.5l-7.5 1.4c-.4.1-.7.4-.8.8-.1.6-.3 1.2-.5 1.7-.1.4 0 .8.3 1.1l5.8 4.9-3.5 6.1-7.2-2.6c-.4-.1-.8 0-1.1.3-.4.4-.8.9-1.3 1.3-.3.3-.4.7-.3 1.1l2.6 7.2-6.1 3.5-4.9-5.8c-.3-.3-.7-.4-1.1-.3-.6.2-1.2.3-1.7.5-.4.1-.7.4-.8.8l-1.4 7.5h-7.1l-1.4-7.5c-.1-.4-.4-.7-.8-.8-.6-.1-1.2-.3-1.7-.5-.4-.1-.8 0-1.1.3l-4.9 5.8-6.1-3.5 2.6-7.2c.1-.4 0-.8-.3-1.1-.4-.4-.9-.8-1.3-1.3-.3-.3-.7-.4-1.1-.3l-7.2 2.6-3.5-6.1 5.8-4.9c.3-.3.4-.7.3-1.1-.2-.6-.3-1.2-.5-1.7-.1-.4-.4-.7-.8-.8l-7.5-1.4v-7.1l7.5-1.4c.4-.1.7-.4.8-.8.1-.6.3-1.2.5-1.7.1-.4 0-.8-.3-1.1l-5.8-4.9 3.5-6.1 7.2 2.6c.4.1.8 0 1.1-.3.4-.4.8-.9 1.3-1.3.3-.3.4-.7.3-1.1l-2.6-7.2 6.1-3.5 4.9 5.8c.3.3.7.4 1.1.3.6-.2 1.2-.3 1.7-.5.4-.1.7-.4.8-.8l1.4-7.5h7.1l1.4 7.5c.1.4.4.7.8.8.6.1 1.2.3 1.7.5.4.1.8 0 1.1-.3l4.9-5.8 6.1 3.5-2.6 7.2c-.1.4 0 .8.3 1.1.4.4.9.8 1.3 1.3.3.3.7.4 1.1.3l7.2-2.6 3.5 6.1-5.8 4.9c-.3.3-.4.7-.3 1.1.2.6.3 1.2.5 1.7.1.4.4.7.8.8l7.5 1.4v7.1zm1.3-8.9l-7.7-1.4c0-.2-.1-.4-.2-.6l6-5c.4-.3.5-.9.2-1.3l-4.4-7.6c-.2-.4-.8-.6-1.2-.5l-7.4 2.6-.4-.4 2.6-7.4c.2-.5 0-1-.5-1.2l-7.6-4.4c-.4-.2-1-.2-1.3.2l-5 6c-.2-.1-.4-.1-.6-.2l-1.4-7.7c-.1-.5-.5-.8-1-.8h-8.8c-.5 0-.9.4-1 .8l-1.4 7.7c-.2 0-.4.1-.6.2l-5-6c-.3-.4-.9-.5-1.3-.2l-7.6 4.4c-.4.2-.6.8-.5 1.2l2.6 7.4-.4.4-7.4-2.6c-.5-.2-1 0-1.2.5l-4.4 7.6c-.2.4-.2 1 .2 1.3l6 5c-.1.2-.1.4-.2.6l-7.7 1.4c-.5.1-.8.5-.8 1v8.8c0 .5.4.9.8 1l7.7 1.4c0 .2.1.4.2.6l-6 5c-.4.3-.5.9-.2 1.3l4.4 7.6c.2.4.8.6 1.2.5l7.4-2.6.4.4-2.6 7.4c-.2.5 0 1 .5 1.2l7.6 4.4c.4.2 1 .2 1.3-.2l5-6c.2.1.4.1.6.2l1.4 7.7c.1.5.5.8 1 .8h8.8c.5 0 .9-.4 1-.8l1.4-7.7c.2 0 .4-.1.6-.2l5 6c.3.4.9.5 1.3.2l7.6-4.4c.4-.2.6-.8.5-1.2l-2.6-7.4.4-.4 7.4 2.6c.5.2 1 0 1.2-.5l4.4-7.6c.2-.4.2-1-.2-1.3l-6-5c.1-.2.1-.4.2-.6l7.7-1.4c.5-.1.8-.5.8-1v-8.8c0-.5-.4-.9-.8-1z"/></defs><clipPath id="SVGID_26_"><use xlink:href="#SVGID_25_" overflow="visible"/></clipPath><g clip-path="url(#SVGID_26_)"><defs><path id="SVGID_27_" d="M-1135.5 245h1439v511h-1439z"/></defs><clipPath id="SVGID_28_"><use xlink:href="#SVGID_27_" overflow="visible"/></clipPath></g><g><defs><path id="SVGID_29_" d="M-930 607.9c-7.4 0-13.4-6-13.4-13.4s6-13.4 13.4-13.4 13.4 6 13.4 13.4-6 13.4-13.4 13.4zm0-28.9c-8.5 0-15.5 7-15.5 15.5s7 15.5 15.5 15.5 15.5-7 15.5-15.5-7-15.5-15.5-15.5z"/></defs><clipPath id="SVGID_30_"><use xlink:href="#SVGID_29_" overflow="visible"/></clipPath><g clip-path="url(#SVGID_30_)"><defs><path id="SVGID_31_" d="M-1135.5 245h1439v511h-1439z"/></defs><clipPath id="SVGID_32_"><use xlink:href="#SVGID_31_" overflow="visible"/></clipPath></g></g><g><defs><path id="SVGID_33_" d="M-916.5 578.4c-.4.4-.4 1.1 0 1.5 3.8 3.8 5.9 8.8 5.9 14.2 0 11-8.9 19.9-19.9 19.9s-19.9-8.9-19.9-19.9c0-11 8.9-19.9 19.9-19.9 3.8 0 7.5 1.1 10.8 3.1.5.3 1.1.2 1.4-.3.3-.5.2-1.1-.3-1.4-3.5-2.3-7.6-3.5-11.9-3.5-12.1 0-22 9.9-22 22s9.9 22 22 22 22-9.9 22-22c0-5.9-2.3-11.5-6.5-15.6-.4-.5-1.1-.5-1.5-.1z"/></defs><clipPath id="SVGID_34_"><use xlink:href="#SVGID_33_" overflow="visible"/></clipPath><g clip-path="url(#SVGID_34_)"><defs><path id="SVGID_35_" d="M-1135.5 245h1439v511h-1439z"/></defs><clipPath id="SVGID_36_"><use xlink:href="#SVGID_35_" overflow="visible"/></clipPath></g></g><g opacity=".08"><path class="st13" d="M260.4 54.8H77.7c-2.6 0-4.8 2.4-4.8 5.5v126.9c0 3 2.1 5.4 4.8 5.4h182.7c2.6 0 4.8-2.4 4.8-5.4v-127c0-3-2.2-5.4-4.8-5.4z"/><path class="st14" d="M82.8 65.6h172.5v115.1H82.8z"/><path class="st15" d="M82.9 174.2h172.2v6.5H82.9z"/><path class="st9" d="M253.1 177.4c0 .8-.6 1.5-1.3 1.5-.7 0-1.3-.7-1.3-1.5s.6-1.5 1.3-1.5c.7 0 1.3.7 1.3 1.5zM248.9 177.4c0 .8-.6 1.5-1.3 1.5-.7 0-1.3-.7-1.3-1.5s.6-1.5 1.3-1.5c.7 0 1.3.7 1.3 1.5zM86.7 176.8h8.1v1.4h-8.1z"/><g class="st16"><path class="st17" d="M107.2 175.6c.4 0 .7.3.7.8v2.2c0 .4-.3.8-.7.8h-1.9c-.4 0-.7-.3-.7-.8v-2.2c0-.4.3-.8.7-.8h1.9z"/><path class="st18" d="M101.6 175.6c.4 0 .7.3.7.8v2.2c0 .4-.3.8-.7.8h-1.9c-.4 0-.7-.3-.7-.8v-2.2c0-.4.3-.8.7-.8h1.9z"/><path class="st19" d="M122.1 179.3c-.4 0-.7-.3-.7-.8v-2.2c0-.4.3-.8.7-.8h1.9c.4 0 .7.3.7.8v2.2c0 .4-.3.8-.7.8h-1.9z"/><path class="st20" d="M116.5 179.3c-.4 0-.7-.3-.7-.8v-2.2c0-.4.3-.8.7-.8h1.9c.4 0 .7.3.7.8v2.2c0 .4-.3.8-.7.8h-1.9z"/><path class="st21" d="M110.9 179.3c-.4 0-.7-.3-.7-.8v-2.2c0-.4.3-.8.7-.8h1.9c.4 0 .7.3.7.8v2.2c0 .4-.3.8-.7.8h-1.9z"/></g><path class="st22" d="M90.7 72.3h76v43h-76z"/><path class="st23" d="M172.8 72.3h76v43h-76z"/><path class="st24" d="M90.7 120.4h76v43h-76zM172.8 120.4h76v43h-76z"/><g><path class="st13" d="M457.3 54.8H274.7c-2.6 0-4.8 2.4-4.8 5.5v126.9c0 3 2.1 5.4 4.8 5.4h182.7c2.7 0 4.8-2.4 4.8-5.4v-127c-.1-3-2.2-5.4-4.9-5.4z"/><path class="st14" d="M279.8 65.6h172.5v115.1H279.8z"/><path class="st15" d="M279.9 174.2h172.2v6.5H279.9z"/><path class="st9" d="M450.1 177.4c0 .8-.6 1.5-1.3 1.5-.7 0-1.3-.7-1.3-1.5s.6-1.5 1.3-1.5c.7 0 1.3.7 1.3 1.5zM445.9 177.4c0 .8-.6 1.5-1.3 1.5-.7 0-1.3-.7-1.3-1.5s.6-1.5 1.3-1.5c.7 0 1.3.7 1.3 1.5zM283.6 176.8h8.1v1.4h-8.1z"/><g class="st16"><path class="st17" d="M304.2 175.6c.4 0 .7.3.7.8v2.2c0 .4-.3.8-.7.8h-1.9c-.4 0-.7-.3-.7-.8v-2.2c0-.4.3-.8.7-.8h1.9z"/><path class="st18" d="M298.6 175.6c.4 0 .7.3.7.8v2.2c0 .4-.3.8-.7.8h-1.9c-.4 0-.7-.3-.7-.8v-2.2c0-.4.3-.8.7-.8h1.9z"/><path class="st19" d="M319.1 179.3c-.4 0-.7-.3-.7-.8v-2.2c0-.4.3-.8.7-.8h1.9c.4 0 .7.3.7.8v2.2c0 .4-.3.8-.7.8h-1.9z"/><path class="st20" d="M313.5 179.3c-.4 0-.7-.3-.7-.8v-2.2c0-.4.3-.8.7-.8h1.9c.4 0 .7.3.7.8v2.2c0 .4-.3.8-.7.8h-1.9z"/><path class="st21" d="M307.9 179.3c-.4 0-.7-.3-.7-.8v-2.2c0-.4.3-.8.7-.8h1.9c.4 0 .7.3.7.8v2.2c0 .4-.3.8-.7.8h-1.9z"/></g><path class="st23" d="M287.7 72.3h76v43h-76z"/><path fill="#696969" d="M369.8 72.3h76v43h-76z"/><path class="st23" d="M287.7 120.4h76v43h-76z"/><path fill="#777" d="M369.8 120.4h76v43h-76z"/></g><g><path class="st13" d="M260.4 196.7H77.7c-2.6 0-4.8 2.4-4.8 5.5v126.9c0 3 2.1 5.4 4.8 5.4h182.7c2.6 0 4.8-2.4 4.8-5.4V202.2c0-3-2.2-5.5-4.8-5.5z"/><path class="st14" d="M82.8 207.6h172.5v115.1H82.8z"/><path class="st15" d="M82.9 316.1h172.2v6.5H82.9z"/><path class="st9" d="M253.1 319.4c0 .8-.6 1.5-1.3 1.5-.7 0-1.3-.7-1.3-1.5s.6-1.5 1.3-1.5c.7 0 1.3.7 1.3 1.5zM248.9 319.4c0 .8-.6 1.5-1.3 1.5-.7 0-1.3-.7-1.3-1.5s.6-1.5 1.3-1.5c.7 0 1.3.7 1.3 1.5zM86.7 318.7h8.1v1.4h-8.1z"/><g class="st16"><path class="st17" d="M107.2 317.6c.4 0 .7.3.7.8v2.2c0 .4-.3.8-.7.8h-1.9c-.4 0-.7-.3-.7-.8v-2.2c0-.4.3-.8.7-.8h1.9z"/><path class="st18" d="M101.6 317.6c.4 0 .7.3.7.8v2.2c0 .4-.3.8-.7.8h-1.9c-.4 0-.7-.3-.7-.8v-2.2c0-.4.3-.8.7-.8h1.9z"/><path class="st19" d="M122.1 321.3c-.4 0-.7-.3-.7-.8v-2.2c0-.4.3-.8.7-.8h1.9c.4 0 .7.3.7.8v2.2c0 .4-.3.8-.7.8h-1.9z"/><path class="st20" d="M116.5 321.3c-.4 0-.7-.3-.7-.8v-2.2c0-.4.3-.8.7-.8h1.9c.4 0 .7.3.7.8v2.2c0 .4-.3.8-.7.8h-1.9z"/><path class="st21" d="M110.9 321.3c-.4 0-.7-.3-.7-.8v-2.2c0-.4.3-.8.7-.8h1.9c.4 0 .7.3.7.8v2.2c0 .4-.3.8-.7.8h-1.9z"/></g><path class="st27" d="M206.8 196.7H77.7c-2.6 0-4.8 2.4-4.8 5.5v126.9c0 3 2.1 5.4 4.8 5.4h82.5c7.4-21 37-109.2 46.6-137.8z"/><path fill="#757575" stroke="#757575" stroke-width=".3567" stroke-miterlimit="10" d="M90.7 214.3h76v43h-76z"/><path class="st22" d="M172.8 214.3h76v43h-76zM90.7 262.4h76v43h-76z"/><path fill="#9f9f9f" d="M172.8 262.4h76v43h-76z"/></g><g><path class="st13" d="M457.3 196.7H274.7c-2.6 0-4.8 2.4-4.8 5.5v126.9c0 3 2.1 5.4 4.8 5.4h182.7c2.7 0 4.8-2.4 4.8-5.4V202.2c-.1-3-2.2-5.5-4.9-5.5z"/><path class="st14" d="M279.8 207.6h172.5v115.1H279.8z"/><path class="st15" d="M279.9 316.1h172.2v6.5H279.9z"/><path class="st9" d="M450.1 319.4c0 .8-.6 1.5-1.3 1.5-.7 0-1.3-.7-1.3-1.5s.6-1.5 1.3-1.5c.7 0 1.3.7 1.3 1.5zM445.9 319.4c0 .8-.6 1.5-1.3 1.5-.7 0-1.3-.7-1.3-1.5s.6-1.5 1.3-1.5c.7 0 1.3.7 1.3 1.5zM283.6 318.7h8.1v1.4h-8.1z"/><g class="st16"><path class="st17" d="M304.2 317.6c.4 0 .7.3.7.8v2.2c0 .4-.3.8-.7.8h-1.9c-.4 0-.7-.3-.7-.8v-2.2c0-.4.3-.8.7-.8h1.9z"/><path class="st18" d="M298.6 317.6c.4 0 .7.3.7.8v2.2c0 .4-.3.8-.7.8h-1.9c-.4 0-.7-.3-.7-.8v-2.2c0-.4.3-.8.7-.8h1.9z"/><path class="st19" d="M319.1 321.3c-.4 0-.7-.3-.7-.8v-2.2c0-.4.3-.8.7-.8h1.9c.4 0 .7.3.7.8v2.2c0 .4-.3.8-.7.8h-1.9z"/><path class="st20" d="M313.5 321.3c-.4 0-.7-.3-.7-.8v-2.2c0-.4.3-.8.7-.8h1.9c.4 0 .7.3.7.8v2.2c0 .4-.3.8-.7.8h-1.9z"/><path class="st21" d="M307.9 321.3c-.4 0-.7-.3-.7-.8v-2.2c0-.4.3-.8.7-.8h1.9c.4 0 .7.3.7.8v2.2c0 .4-.3.8-.7.8h-1.9z"/></g><path class="st27" d="M403.8 196.7H274.7c-2.6 0-4.8 2.4-4.8 5.5v126.9c0 3 2.1 5.4 4.8 5.4h82.5c7.4-21 37-109.2 46.6-137.8z"/><path class="st22" d="M287.7 214.3h76v43h-76zM369.8 214.3h76v43h-76z"/><path class="st23" d="M287.7 262.4h76v43h-76zM369.8 262.4h76v43h-76z"/></g><g><path class="st9" d="M478.8 318.7h5.9v1.4h-5.9z"/><g class="st16"><path class="st17" d="M493.7 317.6c.3 0 .5.3.5.8v2.2c0 .4-.2.8-.5.8h-1.4c-.3 0-.5-.3-.5-.8v-2.2c0-.4.2-.8.5-.8h1.4z"/><path class="st18" d="M489.6 317.6c.3 0 .5.3.5.8v2.2c0 .4-.2.8-.5.8h-1.4c-.3 0-.5-.3-.5-.8v-2.2c0-.4.2-.8.5-.8h1.4z"/><path class="st19" d="M504.5 321.3c-.3 0-.5-.3-.5-.8v-2.2c0-.4.2-.8.5-.8h1.4c.3 0 .5.3.5.8v2.2c0 .4-.2.8-.5.8h-1.4z"/><path class="st20" d="M500.4 321.3c-.3 0-.5-.3-.5-.8v-2.2c0-.4.2-.8.5-.8h1.4c.3 0 .5.3.5.8v2.2c0 .4-.2.8-.5.8h-1.4z"/><path class="st21" d="M496.3 321.3c-.3 0-.5-.3-.5-.8v-2.2c0-.4.2-.8.5-.8h1.4c.3 0 .5.3.5.8v2.2c0 .4-.2.8-.5.8h-1.4z"/></g></g><g><path class="st9" d="M53 319.4c0 .8-.4 1.5-1 1.5-.5 0-1-.7-1-1.5s.4-1.5 1-1.5 1 .7 1 1.5zM50 319.4c0 .8-.4 1.5-1 1.5-.5 0-1-.7-1-1.5s.4-1.5 1-1.5c.5 0 1 .7 1 1.5z"/></g><path class="st31" d="M82.5 65.9H255V181H82.5zM279.5 65.9H452V181H279.5zM83.1 207.9h172.5V323H83.1z"/><path class="st27" d="M403.8 54.8H274.7c-2.6 0-4.8 2.4-4.8 5.5v126.9c0 3 2.1 5.4 4.8 5.4h82.5c7.4-21.1 37-109.3 46.6-137.8z"/><g><path opacity=".3" fill="#aaa" d="M369.8 120.4h37.6v34.3h-37.6z"/></g></g><g class="st3"><path class="st4" d="M130 143l-1.8 1.8c-.1.1-.1.4 0 .5.1.1.2.1.3.1.1 0 .2 0 .3-.1l1.8-1.8c.1-.1.1-.4 0-.5-.3-.2-.5-.2-.6 0zM133.4 143c-.1-.1-.4-.1-.5 0-.1.1-.1.4 0 .5l2.2 2.2c.1.1.2.1.3.1.1 0 .2 0 .3-.1.1-.1.1-.4 0-.5l-2.3-2.2zM141.8 141.9c-.1-.1-.4-.1-.5 0l-3.6 3.6c-.1.1-.1.4 0 .5.1.1.2.1.3.1.1 0 .2 0 .3-.1l3.6-3.6c0-.1 0-.4-.1-.5z"/><path class="st5" d="M124.4 152.7c-.2 0-.4-.2-.4-.4v-21.1c0-.2.2-.4.4-.4s.4.2.4.4v21.1c0 .2-.2.4-.4.4z"/><path class="st5" d="M144.8 152h-21.1c-.2 0-.4-.2-.4-.4s.2-.4.4-.4h21.1c.2 0 .4.2.4.4-.1.2-.2.4-.4.4z"/><path class="st6" d="M126.6 141.4h-.7c-.2 0-.4-.2-.4-.4s.2-.4.4-.4h.7c.2 0 .4.2.4.4 0 .3-.2.4-.4.4zM126.6 140h-.7c-.2 0-.4-.2-.4-.4s.2-.4.4-.4h.7c.2 0 .4.2.4.4s-.2.4-.4.4zM126.6 138.5h-.7c-.2 0-.4-.2-.4-.4s.2-.4.4-.4h.7c.2 0 .4.2.4.4s-.2.4-.4.4zM126.6 137.1h-.7c-.2 0-.4-.2-.4-.4s.2-.4.4-.4h.7c.2 0 .4.2.4.4s-.2.4-.4.4zM126.6 135.6h-.7c-.2 0-.4-.2-.4-.4s.2-.4.4-.4h.7c.2 0 .4.2.4.4s-.2.4-.4.4zM126.6 134.1h-.7c-.2 0-.4-.2-.4-.4s.2-.4.4-.4h.7c.2 0 .4.2.4.4 0 .3-.2.4-.4.4zM126.6 132.7h-.7c-.2 0-.4-.2-.4-.4s.2-.4.4-.4h.7c.2 0 .4.2.4.4s-.2.4-.4.4z"/><circle class="st7" cx="127.3" cy="146.5" r="1.8"/><circle class="st7" cx="131.7" cy="142.1" r="1.8"/><circle class="st7" cx="143" cy="141.1" r="1.8"/><circle class="st7" cx="136.4" cy="146.9" r="1.8"/></g><g><path opacity=".1" fill-rule="evenodd" clip-rule="evenodd" d="M36.4 321.2h40.2v116.2H36.4z"/><path d="M105.9 413.5c0 5.8 73.2 10.5 163.6 10.5 90.3 0 163.6-4.7 163.6-10.5S359.9 403 269.5 403c-90.3.1-163.6 4.7-163.6 10.5z" fill="#ededed"/><path class="st51" d="M242.3 379.8h77.8v20.9h-77.8z"/><path class="st51" d="M401.9 386.6H161.3c-8.1 0-14.6-6.5-14.6-14.6V207.1c0-8.1 6.5-14.6 14.6-14.6h240.6c8.1 0 14.6 6.5 14.6 14.6V372c-.1 8.1-6.6 14.6-14.6 14.6z"/><path class="st9" d="M399.1 368H163.2c-4.9 0-9-4-9-9V208.6c0-4.9 4-9 9-9h235.9c4.9 0 9 4 9 9V359c0 5-4 9-9 9z"/><path class="st51" d="M353.5 412.1H208.8v-1.8c0-6.3 5.1-11.4 11.4-11.4h121.9c6.3 0 11.4 5.1 11.4 11.4v1.8z"/><path class="st9" d="M384.7 330.6h-162c-4.3 0-7.8-3.5-7.8-7.8V219c0-4.3 3.5-7.8 7.8-7.8h162c4.3 0 7.8 3.5 7.8 7.8v103.8c0 4.4-3.5 7.8-7.8 7.8z" opacity=".35"/><g opacity=".25"><path class="st135" d="M231.8 298.5h7.7v19.4h-7.7z"/><path class="st136" d="M249.2 281.4h7.7v36.5h-7.7z"/><path class="st135" d="M266.6 285.2h7.7v32.7h-7.7z"/><path class="st136" d="M284.1 266.7h7.7v51.2h-7.7z"/><g class="st137"><path class="st138" d="M249.2 281.4h3.6v36.5h-3.6z"/></g><g class="st137"><path class="st138" d="M231.8 298.5h3.6v19.4h-3.6z"/></g><g class="st139"><path class="st138" d="M284.1 266.7h3.6v51.2h-3.6z"/></g><g class="st137"><path class="st138" d="M266.6 285.2h3.6v32.7h-3.6z"/></g><path class="st140" d="M295.9 323.2h-69.3v-73.7h1.1v72.7h68.2z"/><path class="st140" d="M233.8 289.4l-.7-.8 18.1-16.3 16.7 3.7 18.2-20.3.8.7-18.6 20.7-16.8-3.6z"/><path class="st140" d="M288.3 259.4l-5.1-4.9 6.6-1.7z"/><path class="st136" d="M302.4 297.1h5.3v5.3h-5.3z"/><path class="st135" d="M302.4 306.4h5.3v5.3h-5.3z"/><path class="st141" d="M309.2 308.7H326v3h-16.8zM309.2 299.4H326v3h-16.8z"/><g><path class="st136" d="M333.7 297.1h5.3v5.3h-5.3z"/><path class="st135" d="M333.7 306.4h5.3v5.3h-5.3z"/><path class="st141" d="M340.5 308.7h16.8v3h-16.8zM340.5 299.4h16.8v3h-16.8z"/></g><g><path class="st136" d="M361.8 297.1h5.3v5.3h-5.3z"/><path class="st135" d="M361.8 306.4h5.3v5.3h-5.3z"/><path class="st141" d="M368.6 308.7h11.1v3h-11.1zM368.6 299.4h11.1v3h-11.1z"/></g><g><path class="st141" d="M303.4 246.3h76.2v1.4h-76.2zM226.6 229.3h153v3.2h-153zM303.2 250.6h76.5v1.4h-76.5zM303.2 242h76.5v1.4h-76.5zM303.2 254.9h76.5v1.4h-76.5zM303.2 259.3h76.5v1.4h-76.5zM303.2 263.6h76.5v1.4h-76.5zM303.2 267.9h76.5v1.4h-76.5zM303.2 272.2h76.5v1.4h-76.5zM303.2 276.5h76.5v1.4h-76.5zM312.6 280.8h67.1v1.4h-67.1z"/></g><path d="M384.7 211.3h-162c-4.3 0-7.8 3.5-7.8 7.8v6.8h177.6V219c0-4.3-3.5-7.7-7.8-7.7z" fill="#7b7de1"/><path class="st143" d="M369.6 218.8c0 1.2-1 2.2-2.2 2.2-1.2 0-2.2-1-2.2-2.2s1-2.2 2.2-2.2c1.2 0 2.2 1 2.2 2.2z"/><circle class="st143" cx="376.5" cy="218.8" r="2.2"/><circle class="st143" cx="385.7" cy="218.8" r="2.2"/></g><path d="M372 357H181c-5.1 0-9.2-4.1-9.2-9.2V225.5c0-5.1 4.1-9.2 9.2-9.2h191c5.1 0 9.2 4.1 9.2 9.2v122.3c0 5.1-4.1 9.2-9.2 9.2z" opacity=".55" fill="#008ed3"/><path class="st9" d="M376.3 351.6h-191c-5.1 0-9.2-4.1-9.2-9.2V220.1c0-5.1 4.1-9.2 9.2-9.2h191c5.1 0 9.2 4.1 9.2 9.2v122.3c-.1 5.1-4.2 9.2-9.2 9.2z"/><path class="st8" d="M196 313.7h9.1v22.9H196z"/><path class="st49" d="M216.6 293.6h9.1v43h-9.1z"/><path class="st8" d="M237.1 298h9.1v38.5h-9.1z"/><path class="st49" d="M257.7 276.2h9.1v60.3h-9.1z"/><g class="st137"><path class="st138" d="M216.6 293.6h4.2v43h-4.2z"/></g><g class="st137"><path class="st138" d="M196 313.7h4.2v22.9H196z"/></g><g class="st139"><path class="st138" d="M257.7 276.2h4.2v60.3h-4.2z"/></g><g class="st137"><path class="st138" d="M237.1 298h4.2v38.5h-4.2z"/></g><path class="st140" d="M271.6 342.8H190v-79.1h1.2v77.9h80.4z"/><path class="st140" d="M198.4 302.9l-.9-.9 21.4-19.2 19.8 4.3 21.4-23.8.9.8-21.9 24.4-19.9-4.3z"/><path class="st140" d="M262.7 267.7l-6.1-5.8 7.8-2.1z"/><path class="st49" d="M279.3 312h6.3v6.3h-6.3z"/><path class="st8" d="M279.3 323h6.3v6.3h-6.3z"/><path class="st141" d="M287.3 325.7h19.8v3.6h-19.8zM287.3 314.7h19.8v3.6h-19.8z"/><g><path class="st49" d="M316.1 312h6.3v6.3h-6.3z"/><path class="st8" d="M316.1 323h6.3v6.3h-6.3z"/><path class="st141" d="M324.1 325.7h19.8v3.6h-19.8zM324.1 314.7h19.8v3.6h-19.8z"/></g><g><path class="st49" d="M349.3 312h6.3v6.3h-6.3z"/><path class="st8" d="M349.3 323h6.3v6.3h-6.3z"/><path class="st141" d="M357.3 325.7h13.1v3.6h-13.1zM357.3 314.7h13.1v3.6h-13.1z"/></g><g><path class="st141" d="M280.5 252.2h89.9v1.6h-89.9zM190 232.2h180.3v3.7H190zM280.2 257.3h90.1v1.6h-90.1zM280.2 247.1h90.1v1.6h-90.1zM280.2 262.4h90.1v1.6h-90.1zM280.2 267.5h90.1v1.6h-90.1zM280.2 272.5h90.1v1.6h-90.1zM280.2 277.6h90.1v1.6h-90.1zM280.2 282.7h90.1v1.6h-90.1zM280.2 287.8h90.1v1.6h-90.1zM291.3 292.9h79.1v1.6h-79.1z"/></g><path class="st8" d="M376.3 210.9h-191c-5.1 0-9.2 4.1-9.2 9.2v8h209.3v-8c0-5.1-4.1-9.2-9.1-9.2z"/><path class="st143" d="M358.5 219.8c0 1.5-1.2 2.6-2.6 2.6-1.5 0-2.6-1.2-2.6-2.6 0-1.5 1.2-2.6 2.6-2.6 1.4 0 2.6 1.1 2.6 2.6zM369.3 219.8c0 1.5-1.2 2.6-2.6 2.6-1.5 0-2.6-1.2-2.6-2.6 0-1.5 1.2-2.6 2.6-2.6 1.4 0 2.6 1.1 2.6 2.6zM380.1 219.8c0 1.5-1.2 2.6-2.6 2.6-1.5 0-2.6-1.2-2.6-2.6 0-1.5 1.2-2.6 2.6-2.6 1.4 0 2.6 1.1 2.6 2.6z"/><g><path d="M21 291.6h83.4l-.1 118H20.9l.1-118z" fill-rule="evenodd" clip-rule="evenodd" fill="#fff" stroke="#e2e2e2" stroke-miterlimit="10"/><path class="st146" d="M72.2 353.7c-.4 1.4-1.2 2.6-2.1 3.7l7.3 10.2c3.7-3.2 6.3-7.5 7.3-12.5l-12.5-1.4z"/><path class="st49" d="M64.7 340.8c4.3.9 7.5 4.5 7.9 8.9l12.5 1.4v-.4c0-11.7-9-21.3-20.4-22.3v12.4z"/><path class="st146" d="M55.3 343.9c1.4-1.5 3.2-2.7 5.4-3.1v-12.5c-6.7.6-12.5 4.1-16.2 9.2l10.8 6.4z"/><path d="M66.7 359.7c-1.2.6-2.6.9-4 .9-5.5 0-10-4.5-10-10 0-1.1.2-2.2.6-3.2L42.4 341c-1.4 2.9-2.2 6.1-2.2 9.6 0 12.4 10 22.4 22.4 22.4 4.1 0 8-1.1 11.3-3.1l-7.2-10.2z" fill="#b8b9da"/><g><path class="st49" d="M29.6 299.6H40v3H29.6z"/><path class="st8" d="M29.6 306.5H40v3H29.6z"/><path class="st148" d="M29.6 313.4H40v3H29.6z"/><path class="st51" d="M29.6 320.3H40v3H29.6z"/><path class="st127" d="M47.1 299.7h48.6v3.4H47.1zM47.1 309.9h48.6v3.4H47.1zM47.1 320.2h48.6v3.4H47.1zM47.1 315h48.6v3.4H47.1zM47.1 304.8h48.6v3.4H47.1z"/></g><g><path class="st127" d="M29.6 376.1h2.2v23.5h-2.2zM29.6 399.6h66.1v2.2H29.6z"/><path class="st8" d="M37.6 389.2h5.9v10.4h-5.9z"/><path class="st148" d="M37.6 384h5.9v5.2h-5.9z"/><path class="st8" d="M48.7 384.7h5.9v15h-5.9z"/><path class="st148" d="M48.7 381.7h5.9v3h-5.9z"/><g><path class="st8" d="M59.7 392h5.9v7.6h-5.9z"/><path class="st148" d="M59.7 386.6h5.9v5.5h-5.9z"/></g><g><path class="st8" d="M70.7 395.3h5.9v4.4h-5.9z"/><path class="st148" d="M70.7 390.9h5.9v4.3h-5.9z"/></g></g></g><g><path d="M125.6 246.8V217c0-2.7-2.2-4.9-4.9-4.9s-4.9 2.2-4.9 4.9v29.8c-3 2.7-3.3 7.4-.6 10.4 2.7 3 7.4 3.3 10.4.6 3-2.7 3.3-7.4.6-10.4-.2-.3-.4-.5-.6-.6z" fill="#c3dff9"/><path d="M122.3 248.5v-31.6c0-.9-.7-1.6-1.6-1.6-.9 0-1.6.7-1.6 1.6v31.6c-2.1.9-3 3.3-2.1 5.4.9 2.1 3.3 3 5.4 2.1 2.1-.9 3-3.3 2.1-5.4-.5-.9-1.2-1.7-2.2-2.1z" fill="#a8d5d8"/><path class="st51" d="M120.7 256.4c2.3 0 4.1-1.8 4.1-4.1 0-1.6-1-3.1-2.5-3.8v-20.9H119v20.9c-2.1.9-3 3.3-2.1 5.4.7 1.5 2.1 2.5 3.8 2.5z"/><path class="st157" d="M129.7 241.6h2.5v1.6h-2.5v-1.6zM129.7 236.6h4.9v1.6h-4.9v-1.6zM129.7 231.7h2.5v1.6h-2.5v-1.6zM129.7 226.8h4.9v1.6h-4.9v-1.6zM129.7 221.9h2.5v1.6h-2.5v-1.6zM129.7 216.9h4.9v1.6h-4.9v-1.6z"/></g><g><path class="st158" d="M442 357.4h8.7v-.4h67.1v.5h8.2c5.2 0 9.3 4.2 9.3 9.3v4.2l.3-2.7c0-12.8-6.9-17.2-11.8-17.2h-6v2.9h-67.1v-2.9h-6.1c-4.7 0-11.3 3.9-11.7 13.8.7-4.2 4.5-7.5 9.1-7.5z"/><path d="M535.2 371v-4.2c0-5.2-4.2-9.3-9.3-9.3h-8.2v5.3h-67.1v-5.3H442c-4.5 0-8.3 3.2-9.2 7.5-.1.6-.2 1.2-.2 1.8v38.7c0 2.3.8 4.3 2.2 6-.2-.3-.5-.5-.7-1h15.6l-1.3 4.5-3.9 13.5h79.3l-3.9-13.5-1.3-4.5h15.2c1-1.5 1.5-3.1 1.5-5V371zm-19.4 30.7h-63.4l-1.8 6.7v-27.1h67.1v27.1l-1.9-6.7z" fill="#e8e8e8"/><path class="st158" d="M519.8 414.8h6.4c3.4 0 6.3-1.5 7.9-4.4h-15.6l1.3 4.4zM449.8 410.4h-15.6c.2.5.4.6.7.9 1.7 2.1 4.3 3.5 7.3 3.5h6.4l1.2-4.4z"/><path class="st160" d="M517.7 354v-26.7h-67.1V354zM450.6 357V362.8h67.1V357zM517.7 381.3h-67.1v27.1l1.8-6.7H515.8l1.9 6.7zM478 428.4H444.3v2.5h79.2v-2.5h-33.2z"/><g><defs><path id="SVGID_41_" d="M436 401.7h89.5v40.4H436z"/></defs><clipPath id="SVGID_38_"><use xlink:href="#SVGID_41_" overflow="visible"/></clipPath><g clip-path="url(#SVGID_38_)"><path class="st9" d="M456.8 397.9c.4-1.7 2.8-3.2 5.6-3.2h40.5c2.8 0 5.7 1.5 6.1 3.2 2.3 11.1 4.7 22.3 7 33.4.4 1.7-2.9 3-6.6 3h-54.1c-2.4-1.2-3.6-1.8-5.9-3 2.6-11.1 5-22.3 7.4-33.4z"/><path d="M455.4 434.1c.6-1.3.8-2 1.4-3.3-2.9.2-4.4.3-7.3.5 2.3 1.1 3.5 1.7 5.9 2.8z" opacity=".7" fill="#afabab"/><path class="st163" d="M507.6 425.7h-35"/><path class="st164" d="M506.8 421h-48M506.1 416.6h-46.6M505.4 412.2h-45.1"/><path class="st163" d="M504.7 407.8h-43.6M472.7 401.2h-10.5"/></g></g><g><defs><path id="SVGID_43_" d="M443.8 297.6h76.3V354h-76.3z"/></defs><clipPath id="SVGID_40_"><use xlink:href="#SVGID_43_" overflow="visible"/></clipPath><path d="M507.5 318.2l-.1-.1h-46.8v.1c-2.8.4-5.2 2.9-5.2 5.7v63c0 3.2 2.1 6 5.3 6h46.8c3.2 0 5.4-2.8 5.4-6v-63c-.1-2.8-2.6-5.3-5.4-5.7z" clip-path="url(#SVGID_40_)" fill="#f4f4f4"/></g><path class="st9" d="M522.1 370c0 .9-.7 1.6-1.6 1.6-.9 0-1.6-.7-1.6-1.6 0-.9.7-1.6 1.6-1.6.8-.1 1.6.7 1.6 1.6z"/><path class="st160" d="M527.5 370c0 .9-.7 1.6-1.6 1.6-.9 0-1.6-.7-1.6-1.6 0-.9.7-1.6 1.6-1.6.8-.1 1.6.7 1.6 1.6z"/></g><g><path class="st127" d="M170 370.5c0-.6-.2-1.1-.6-1.5-.4-.4-.9-.6-1.5-.6H91.3c-.6 0-1.1.2-1.5.6-.4.4-.6.9-.6 1.5v98.3c0 1.1.9 2.1 2.1 2.1h76.6c1.2 0 2.1-.9 2.1-2.1v-98.3z"/><path class="st9" d="M167.8 372.5c0-.5-.2-1-.6-1.4-.4-.4-.9-.6-1.4-.6H93.5c-.5 0-1 .2-1.4.6-.4.4-.6.9-.6 1.4v94.4c0 1.1.9 2 2 2h72.3c1.1 0 2-.9 2-2v-94.4z"/><path class="st127" d="M108 375h43.3v10.3H108z"/><path class="st128" d="M95.3 425.2h20.9v10.3H95.3z"/><path class="st129" d="M119.2 425.2h20.9v10.3h-20.9z"/><path class="st128" d="M143 425.2h20.9v10.3H143z"/><path class="st129" d="M96 391.3h25.1V420H96z"/><path class="st130" d="M126.3 392.7h37v1.3h-37zM100.2 440.8h60.6v1.3h-60.6zM100.2 445.6h60.6v1.3h-60.6zM100.2 450.5h60.6v1.3h-60.6zM100.2 455.3h60.6v1.3h-60.6zM100.2 460.2h60.6v1.3h-60.6zM126.3 397.7h37v1.3h-37zM126.3 402.7h37v1.3h-37zM126.3 407.7h37v1.3h-37zM126.3 412.7h37v1.3h-37zM126.3 417.8h37v1.3h-37z"/></g></g><g class="st138"><path fill="#a0a0a0" d="M519.4 248.9l-1.7-.7v.5H493v-22h.5l-.7-1.7-.7 1.7h.5v22.4h25.1v.5z"/><path class="st9" d="M515.1 230.3c0 .8-.6 1.5-1.5 1.5-.8 0-1.5-.6-1.5-1.5 0-.8.6-1.5 1.5-1.5.8 0 1.5.7 1.5 1.5z"/><path class="st49" d="M513.6 231.7c.8 0 1.5-.7 1.5-1.5s-.7-1.5-1.5-1.5-1.5.7-1.5 1.5c0 .9.7 1.5 1.5 1.5zm1.1-1.6v.1c0 .1 0 .3-.1.4l-.3.3-.3.3c-.1 0-.3.1-.4.1h-.1l.1-.1.6-.6.5-.5zm-.4-.7c.1.1.2.1.2.2l-.1.1-.5.5-.6.6-.2.2c-.1-.1-.2-.1-.2-.2l.3-.3.5-.5.6-.6zm-1.8.9c0-.1 0-.3.1-.4l.4-.4.2-.2c.1 0 .3-.1.4-.1h.2l-.6.6-.5.5-.1.1c-.1 0-.1-.1-.1-.1z"/><path class="st9" d="M502.7 235.7c0 .8-.6 1.5-1.5 1.5-.8 0-1.5-.6-1.5-1.5 0-.8.6-1.5 1.5-1.5.8 0 1.5.7 1.5 1.5z"/><path class="st49" d="M501.2 237.2c.8 0 1.5-.7 1.5-1.5s-.7-1.5-1.5-1.5-1.5.7-1.5 1.5c.1.8.7 1.5 1.5 1.5zm1.1-1.7v.1c0 .1 0 .3-.1.4l-.3.3-.3.3c-.1 0-.3.1-.4.1h-.1l.1-.1.6-.6.5-.5zm-.4-.7c.1.1.2.1.2.2l-.1.1-.5.5-.6.6-.2.2c-.1-.1-.2-.1-.2-.2l.3-.3.5-.5.6-.6zm-1.7.9c0-.1 0-.3.1-.4l.4-.4.2-.2c.1 0 .3-.1.4-.1h.2l-.6.6-.5.5-.1.1c-.1 0-.1-.1-.1-.1z"/><path class="st9" d="M513.3 242.6c0 .8-.6 1.5-1.5 1.5-.8 0-1.5-.6-1.5-1.5 0-.8.6-1.5 1.5-1.5.9.1 1.5.7 1.5 1.5z"/><path class="st49" d="M511.9 244.1c.8 0 1.5-.7 1.5-1.5s-.7-1.5-1.5-1.5-1.5.7-1.5 1.5.6 1.5 1.5 1.5zm1-1.6v.1c0 .1 0 .3-.1.4l-.3.3-.3.3c-.1 0-.3.1-.4.1h-.1l.1-.1.6-.6.5-.5zm-.4-.8c.1.1.2.1.2.2l-.1.1-.5.5-.6.6-.2.2c-.1-.1-.2-.1-.2-.2l.3-.3.5-.5.6-.6zm-1.7.9c0-.1 0-.3.1-.4l.4-.4.2-.2c.1 0 .3-.1.4-.1h.2l-.6.6-.5.5-.1.1c-.1 0-.1 0-.1-.1z"/><path class="st9" d="M502.5 243.3c.7 0 1.3-.6 1.3-1.3 0-.7-.6-1.3-1.3-1.3-.7 0-1.3.6-1.3 1.3 0 .8.6 1.3 1.3 1.3z"/><path class="st49" d="M496 244c-.8 0-1.5.7-1.5 1.5s.7 1.5 1.5 1.5 1.5-.7 1.5-1.5-.6-1.5-1.5-1.5zM506 231.7c-.5 0-.8.4-.8.8 0 .5.4.8.8.8.5 0 .8-.4.8-.8s-.4-.8-.8-.8zM508.9 236.7c-.5 0-.9.4-.9.9s.4.9.9.9.9-.4.9-.9-.4-.9-.9-.9zM498.1 240c-.4 0-.7.3-.7.7s.3.7.7.7c.4 0 .7-.3.7-.7s-.3-.7-.7-.7z"/><path class="st9" d="M502.5 231.2c.5 0 1-.4 1-1 0-.5-.4-1-1-1-.5 0-1 .4-1 1 .1.6.5 1 1 1zM513.2 236.5c.7 0 1.3-.6 1.3-1.3 0-.7-.6-1.3-1.3-1.3-.7 0-1.3.6-1.3 1.3 0 .7.5 1.3 1.3 1.3z"/></g><g class="st3"><path class="st8" d="M312.5 149.5c.7.1 1.4.3 2.1.3 2.7 0 4.9-.9 6.9-2.8l-6.8-6.8-2.2 9.3z"/><path class="st9" d="M321.5 147l-.3.3c.1-.1.3-.2.3-.3z"/><path d="M311.7 149.4l2.5-10V129c-5.5.2-9.9 4.8-9.9 10.4-.1 4.7 3 8.7 7.4 10z" fill="#c0ffff"/><path class="st9" d="M320.6 147.1l-.5.5-.4.4-.5.5-.4.4c.4-.2.7-.4 1.1-.6l.1-.1.4-.4.5-.5.4-.4.1-.1-.3-.3-.1.1-.4.5zM319.7 146.2l-.5.5-.4.4-.5.5-.4.4-.5.5-.4.4-.5.5-.3.3c.2 0 .4-.1.7-.1l.4-.4.4-.4.5-.5.4-.4.5-.5.4-.4.5-.5.4-.4.1-.1-.3-.3-.1.1-.4.4zM318.8 145.3l-.5.5-.4.4-.5.5-.4.4-.5.5-.4.4-.5.5-.4.4-.5.5-.4.4h.5l.1-.1.5-.5.4-.4.5-.5.4-.4.5-.5.4-.4.5-.5.4-.4.5-.5.4-.4.1-.1-.3-.3-.1.1-.3.4zM317.9 144.3l-.5.5-.4.4-.5.5-.4.4-.5.5-.4.4-.5.5-.4.4-.5.5-.4.4-.5.5-.2.2c.2 0 .3.1.5.1l.5-.5.4-.4.5-.5.4-.4.5-.5.4-.4.5-.5.4-.4.5-.5.4-.4.5-.5.4-.4.1-.1-.3-.3-.1.1-.4.4zM317 143.4l-.5.5-.4.4-.5.5-.4.5-.5.4-.4.5-.5.5-.5.4-.2.3-.2.7.2-.3.5-.5.4-.4.5-.5.4-.4.5-.5.4-.4.5-.5.5-.4.4-.5.5-.4.1-.1-.3-.3-.1.1zM317.4 149.4c.3-.1.5-.2.8-.3l.4-.4.5-.5.4-.4.5-.5.4-.4.5-.5.1-.1-.3-.3-.1.1-.5.5-.4.4-.5.5-.4.4-.5.5-.4.4-.5.6zM316.1 142.5l-.5.5-.4.4-.5.5-.4.4-.5.5-.2.2-.1.7.1-.2.4-.4.5-.5.4-.4.5-.5.4-.4.5-.5.5-.4v-.1l-.2-.3-.1.1zM315.2 141.6l-.5.5-.4.4h-.1l-.1.7.4-.4.4-.4.5-.5.4-.5h.1l-.2-.3-.1.1zM315.2 149.8c.2 0 .4 0 .6-.1l.1-.1.5-.5.4-.4.5-.5.4-.4.5-.5.4-.4.5-.5.4-.4.5-.5.1-.1-.3-.3-.1.1-.5.5-.4.4-.5.5-.4.4-.5.5-.4.5-.5.5-.4.4-.5.5-.4.4zM314.7 140.8l.2-.3.1-.1-.2-.2zM314.4 142l.1-.1.4-.5.5-.4.1-.1-.3-.3v.1l-.5.5-.2.1zM314 144.2l.5-.5.4-.4.5-.5.4-.4.5-.5.1-.1-.3-.3v.1l-.5.5-.4.4-.5.5-.4.4-.4.3-.1.7zM313.3 146.2l-.1.7.4-.5.4-.4.5-.5.4-.4.5-.5.4-.4.5-.5.5-.4.4-.5.1-.1-.3-.2-.5.5-.4.4-.5.5-.4.4-.5.5-.4.5-.5.4zM313.4 149.7h.5l.1-.1.5-.5.4-.4.5-.5.4-.4.5-.5.4-.4.5-.5.4-.4.5-.5.4-.4.5-.5.1-.1-.3-.3-.1.1-.5.5-.4.4-.5.5-.4.4-.5.5-.4.4-.5.5-.4.4-.5.5-.4.4-.5.5-.3.4zM312.6 149.3l.1-.1.4-.4.5-.5.4-.5.5-.5.4-.4.5-.5.4-.4.5-.5.5-.4.4-.5.5-.4.5-.5v-.1l-.3-.2-.5.5-.4.4-.5.5-.4.5-.5.4-.4.5-.5.5-.4.4-.5.5-.5.4-.4.5-.1.1z"/><path class="st8" d="M315 139.2l7.2 7.2c1.8-1.9 2.7-4.4 2.7-7.1 0-2.8-1.1-5.4-3-7.4-1.9-1.9-4.3-2.9-6.9-3v10.3z"/></g><g class="st3"><path class="st49" d="M137.8 90.5l.2-.2v-.5l-.1.1-.5.5-.2.2h.6zM136.9 86.4l-.4.4-.4.4-.5.5-.4.4-.5.5c0 .1.1.3.1.4l.2-.2.5-.5.4-.4.5-.5.4-.4.3-.3c-.1 0-.2-.2-.2-.3zM137.3 87.4c0-.1-.1-.2-.2-.4l-.2.2-.5.5-.4.4-.5.5-.4.4-.3.3c0 .1.1.3.1.4l.5-.5.4-.4.5-.5.4-.4.6-.5zM137.6 88c0-.1-.1-.3-.1-.4l-.4.4-.5.5-.4.4-.5.5-.4.4-.3.2c0 .2 0 .3.1.5l.4-.4.4-.4.5-.5.4-.4.5-.5.3-.3zM136.9 90.5l.4-.4.4-.4.2-.2c0-.1-.1-.3-.1-.4l-.4.4-.4.4-.5.5-.2.2h.6zM136.4 85.6c-.1-.1-.1-.2-.2-.3l-.1.1-.5.5-.4.4-.5.5-.4.4-.2.2c.1.1.1.2.2.3l.3-.3.4-.4.5-.5.4-.4.5-.5zM136.8 86.2c-.1-.1-.1-.2-.2-.3l-.1.1-.4.4-.5.5-.4.4-.5.5-.3.3c.1.1.1.2.2.4l.4-.5.5-.5.4-.4.5-.5.4-.4zM136 90.5l.4-.4.4-.4.5-.5.4-.4.1-.1c0-.1-.1-.3-.1-.4l-.3.3-.4.4-.5.5-.4.4-.5.5-.2.2h.6zM133.8 86.9c.1.1.1.2.2.3l.1-.1.5-.5.4-.4.5-.5.4-.4.2-.2c-.1-.1-.1-.2-.2-.3l-.2.2-.4.4-.5.5-.4.4-.6.6zM134.1 86.2l.5-.5.4-.4.5-.5.2-.2-.2-.2-2.1 2.1c.1.1.1.2.2.2l.1-.1.4-.4z"/><path d="M120.7 91.1c0-1.9.7-3.7 2.1-5.1 1.2-1.2 2.8-1.9 4.5-2.1h.6c1.7 0 3.3.6 4.6 1.7l2.1-2.1c-1.8-1.6-4.2-2.5-6.7-2.5H126.2c-.1 0-.3 0-.4.1-1.9.4-3.7 1.3-5.1 2.7-1.4 1.4-2.3 3.2-2.7 5.1 0 .1-.1.3-.1.4v1.6c0 2.5.9 4.9 2.6 6.7l2.1-2.1c-1.3-1-1.9-2.7-1.9-4.4z" fill="#ffffad"/><path class="st49" d="M138 91.7h-2.9c-.1 1.7-.9 3.3-2.1 4.5-1.4 1.4-3.2 2.1-5.1 2.1-1.7 0-3.3-.6-4.6-1.7l-2.1 2.1c1.9 1.6 4.2 2.6 6.7 2.6 2.7 0 5.2-1.1 7.1-3 1.8-1.8 2.9-4.1 3-6.6z"/></g><g class="st3"><path class="st168" d="M190.3 146.9h3.5v10h-3.5zM195.1 149.1h4v7.9h-4zM200.4 145.9h4V157h-4zM205.7 142.9h4V157h-4zM211 137.9h4V157h-4z"/><path class="st49" d="M213.6 134.8l.3.4 1.3-2.1-2.3.6.2.2.1.2-16.1 12.1-7.5-5.5v1l7.5 5.5 16.5-12.4z"/></g><path class="st9" d="M87.5 68h339v95h-339zM484.5 211h55v50h-55z"/><path opacity=".33" fill="#fff" d="M105.5 81h339v95h-339z"/></g></switch></svg>