<svg id="Layer_1" data-name="Layer 1" xmlns="http://www.w3.org/2000/svg" viewBox="0 0 550 500"><defs><style>.cls-1{fill:#008ed3;}.cls-2{fill:#80c242;}.cls-3{fill:#fff;}.cls-4{fill:#2e3091;}.cls-5{fill:#dceecb;}.cls-6{fill:#4489d6;}.cls-7{fill:#eaeff5;}</style></defs><title>Artboard 8</title><path class="cls-1" d="M138.47,173.56s1.49,8.91-10.39,14.85L133.27,207,140,201s-5.27-2.94.74-5.94a5.87,5.87,0,0,0,2.23-3s5-2.66,7.42-6.69c2.23-3.71-.69-11.75-3.71-14.1-.29-.23-3.39,3.1-3.71,3"/><path class="cls-2" d="M526,216.67a55.93,55.93,0,0,0-23.43,5.08l6.31,8.12-1.7,12.37-.08-.09-12.4-1.4-6.91-8.88a47.26,47.26,0,0,0-14.64,34C473.16,293,496.82,315,526,315a55.81,55.81,0,0,0,24-5.35V222A55.81,55.81,0,0,0,526,216.67Z"/><path class="cls-3" d="M526,230.7a39.86,39.86,0,0,0-17.8,4.14l-1,7.4-.08-.09-8.07-.91a33.82,33.82,0,0,0-10.8,24.6c0,19.41,16.91,35.14,37.77,35.14a39.34,39.34,0,0,0,24-8V238.7A39.34,39.34,0,0,0,526,230.7Z"/><path class="cls-4" d="M526,299.69c-20.11,0-36.47-15.19-36.47-33.85a32.41,32.41,0,0,1,10-23.25l7.1.8a1.32,1.32,0,0,0,.92.1,1.3,1.3,0,0,0,1-1.07l.92-6.72A38.87,38.87,0,0,1,526,232a37.9,37.9,0,0,1,24,8.37v-3.28a40.74,40.74,0,0,0-24-7.68,41.39,41.39,0,0,0-18.38,4.28,1.31,1.31,0,0,0-.71,1l-.83,6.07-6.9-.78a1.29,1.29,0,0,0-1,.35A35,35,0,0,0,487,265.84c0,20.09,17.52,36.44,39.06,36.44a40.74,40.74,0,0,0,24-7.68v-3.28A38,38,0,0,1,526,299.69Z"/><path class="cls-1" d="M489.92,325h-9a1.29,1.29,0,0,0-1.29,1.29v18.78a1.29,1.29,0,0,0,1.29,1.29h9a1.3,1.3,0,0,0,1.3-1.29V326.3A1.3,1.3,0,0,0,489.92,325Zm-1.29,18.77h-6.38V327.6h6.38Z"/><path class="cls-2" d="M526,241.5c-14.45,0-26.16,10.9-26.16,24.34s11.71,24.34,26.16,24.34c10.74,0,20-6,24-14.64v-19.4C546,247.52,536.75,241.5,526,241.5Z"/><path class="cls-3" d="M526,253.79c-7.15,0-13,5.4-13,12s5.8,12,13,12,12.94-5.39,12.94-12S533.16,253.79,526,253.79Z"/><path class="cls-4" d="M526,252.5c-7.85,0-14.24,6-14.24,13.34s6.39,13.34,14.24,13.34,14.24-6,14.24-13.34S533.86,252.5,526,252.5Zm0,24.09c-6.43,0-11.65-4.82-11.65-10.75s5.22-10.75,11.65-10.75,11.65,4.82,11.65,10.75S532.43,276.59,526,276.59Z"/><path class="cls-2" d="M526,260.78a5.07,5.07,0,1,0,5.43,5.06A5.27,5.27,0,0,0,526,260.78Z"/><path class="cls-5" d="M451,249.35l-9.94.24-9.93-.24s-6.65-2.27-8.08,1.35a7,7,0,0,0,3.28,9.32l1.69-4.21a1.77,1.77,0,0,1,1.64-1.11h22.8a1.77,1.77,0,0,1,1.64,1.11L455.8,260a7,7,0,0,0,3.29-9.32C457.66,247.08,451,249.35,451,249.35Z"/><path class="cls-1" d="M450.78,248.06l-9.71.24-9.71-.24c-2.94-.95-8.05-1.52-9.51,2.17-2.42,6.13,1.53,9.85,3.95,11a1.29,1.29,0,0,0,1,0,1.34,1.34,0,0,0,.72-.72l1.7-4.22a.46.46,0,0,1,.43-.29h22.8a.46.46,0,0,1,.44.29l1.69,4.22a1.35,1.35,0,0,0,.73.72,1.27,1.27,0,0,0,.47.09,1.33,1.33,0,0,0,.55-.12c2.42-1.12,6.36-4.84,3.94-11C458.84,246.54,453.72,247.11,450.78,248.06Zm5.64,10-1.11-2.76a3,3,0,0,0-2.84-1.92h-22.8a3,3,0,0,0-2.84,1.92l-1.11,2.76c-1.26-1-2.91-3.23-1.46-6.91.79-2,5-1.08,6.46-.6a1.78,1.78,0,0,0,.39.07l9.93.24h.06l9.94-.24a1.59,1.59,0,0,0,.38-.07c1.43-.49,5.67-1.41,6.46.6C459.34,254.87,457.7,257.05,456.42,258.09Z"/><path class="cls-1" d="M539.21,138h-7.65a7.9,7.9,0,0,0-7.9,7.9V150a1.3,1.3,0,1,0,2.59,0v-4.1a5.31,5.31,0,0,1,5.31-5.31h7.65a1.3,1.3,0,0,0,0-2.59Z"/><rect class="cls-6" x="535.87" y="136.28" width="14.13" height="6.12"/><path class="cls-1" d="M537.16,141.1v-3.53H550V135H535.87a1.3,1.3,0,0,0-1.3,1.3v6.11a1.3,1.3,0,0,0,1.3,1.3H550V141.1Z"/><path class="cls-1" d="M427.85,219.15H408.14a4.54,4.54,0,0,0-4.53,4.53v3.44a1.3,1.3,0,0,0,1.3,1.29h22.94a1.3,1.3,0,0,0,1.3-1.29v-6.68A1.3,1.3,0,0,0,427.85,219.15Zm-1.29,6.67H406.2v-2.14a1.94,1.94,0,0,1,1.94-1.94h18.42Z"/><path class="cls-1" d="M430.25,225.82H399.1a1.3,1.3,0,0,0-1.29,1.3v8a1.29,1.29,0,0,0,1.29,1.29h31.15a1.3,1.3,0,0,0,1.3-1.29v-8A1.3,1.3,0,0,0,430.25,225.82Zm-1.29,8H400.4v-5.44H429Z"/><polygon class="cls-7" points="430.25 235.15 399.1 235.15 399.1 229.87 378.45 229.87 378.45 306.9 420.88 306.9 422.43 296.41 387.91 296.41 387.91 240.36 437.76 240.36 437.76 229.87 430.25 229.87 430.25 235.15"/><path class="cls-1" d="M437.76,228.58h-7.51a1.29,1.29,0,0,0-1.29,1.29v4H400.4v-4a1.3,1.3,0,0,0-1.3-1.29H378.45a1.29,1.29,0,0,0-1.29,1.29v77a1.3,1.3,0,0,0,1.29,1.3h42.43a1.3,1.3,0,0,0,1.28-1.11l1.55-10.49a1.32,1.32,0,0,0-.3-1,1.29,1.29,0,0,0-1-.45H389.2V241.66h48.56a1.3,1.3,0,0,0,1.3-1.3V229.87A1.3,1.3,0,0,0,437.76,228.58Zm-1.29,10.49H387.91a1.3,1.3,0,0,0-1.3,1.29v56.05a1.3,1.3,0,0,0,1.3,1.3h33l-1.17,7.9h-40V231.17h18.06v4a1.29,1.29,0,0,0,1.29,1.29h31.15a1.3,1.3,0,0,0,1.3-1.29v-4h4.92Z"/><path class="cls-4" d="M216.66,242.12a6.79,6.79,0,1,0,6.85,6.78A6.82,6.82,0,0,0,216.66,242.12Zm0,11a4.2,4.2,0,1,1,4.26-4.2A4.23,4.23,0,0,1,216.66,253.1Z"/><path class="cls-4" d="M189.12,245l22.47,6.15a36.3,36.3,0,0,1,2.83-7.3l-20.85-11Z"/><path class="cls-4" d="M215,242.73l-20.85-11a1.29,1.29,0,0,0-1.07-.07,1.34,1.34,0,0,0-.76.77l-4.45,12.17a1.3,1.3,0,0,0,.07,1,1.32,1.32,0,0,0,.81.65l22.47,6.15a1.27,1.27,0,0,0,.34,0,1.29,1.29,0,0,0,1.26-1,35.52,35.52,0,0,1,2.72-7A1.3,1.3,0,0,0,215,242.73Z"/><path class="cls-4" d="M166.94,276.13c.13.57.25,1.18.35,1.85.46,3.08-1.7,5.09-4.78,5.62-3.92,10.39-5.61,27-5.72,32.13-.14,6.68-8.35,28.37-12,38.25s8.34,7.64,8.34,7.64,9.74-23.78,17-42.69a159.64,159.64,0,0,0,9-35.74S173.57,270.25,166.94,276.13Z"/><path class="cls-4" d="M171.74,273.44a6.23,6.23,0,0,0-5.66,1.72,1.28,1.28,0,0,0-.4,1.25c.13.6.24,1.17.33,1.76.48,3.18-2.73,4-3.72,4.15a1.31,1.31,0,0,0-1,.82c-4.08,10.84-5.7,27.9-5.8,32.57-.12,5.88-7.1,24.85-10.86,35.05l-1,2.77c-1.15,3.14-1,5.6.46,7.31,1.59,1.89,4.34,2.31,6.46,2.31a16.68,16.68,0,0,0,2.88-.25,1.31,1.31,0,0,0,1-.79c.1-.23,9.82-24,17-42.72a162.57,162.57,0,0,0,9.12-36.06,1.43,1.43,0,0,0-.1-.65C180,281.85,176.71,274.55,171.74,273.44Zm-2.81,45c-6.46,16.9-15,37.95-16.68,42-1.74.2-4.93.23-6.21-1.29-.8-1-.8-2.54,0-4.74.3-.84.65-1.77,1-2.77,4.08-11.06,10.89-29.57,11-35.89.1-4.45,1.6-20.5,5.39-31,3.57-.9,5.6-3.61,5.1-6.94-.06-.38-.13-.76-.2-1.14a3.43,3.43,0,0,1,2.81-.67c3,.66,5.69,5.32,6.67,7.43A161.63,161.63,0,0,1,168.93,318.47Z"/><path class="cls-5" d="M165.13,238.9l.3,25.48C165.76,255.72,166.13,241.61,165.13,238.9Z"/><path class="cls-3" d="M183.49,199.9s-7.3,2.08-10.22,6c-2.51,3.41-16.73,27.16-20.68,33.76a5.77,5.77,0,0,0-.77,3.67l3.72,29.32,9.59-1.46s.15-2.84.3-6.85l-.3-25.48c1,2.71.63,16.82.3,25.48h0s10.34,6.85,23.27.18c0,0,5.5-34.35,12.31-45.68l-6.26-14.6S187,202.4,183.49,199.9Z"/><path class="cls-4" d="M195.94,203.77a1.27,1.27,0,0,0-.88-.75c-.08,0-7.52-1.85-10.82-4.18a1.29,1.29,0,0,0-1.11-.19c-.31.09-7.76,2.26-10.91,6.53C169.7,208.61,155.71,232,151.48,239a7.06,7.06,0,0,0-.94,4.49l3.71,29.33a1.33,1.33,0,0,0,.51.87,1.28,1.28,0,0,0,.78.26l.19,0,9.6-1.46a1.3,1.3,0,0,0,1.1-1.21c0-.65.12-2.4.22-4.79a25.32,25.32,0,0,0,22.65-.8,1.29,1.29,0,0,0,.68-.95c.06-.34,5.53-34.22,12.14-45.21a1.33,1.33,0,0,0,.08-1.18Zm-8.41,59.93a22.56,22.56,0,0,1-20.77,0c.33-8.86.64-22.35-.41-25.22a1.3,1.3,0,0,0-2.43.9c.8,2.18.62,14.49.23,24.87a.87.87,0,0,0,0,.23c-.08,2-.16,3.91-.25,5.66l-7.24,1.1-3.54-28a4.42,4.42,0,0,1,.59-2.84c8.68-14.53,18.66-31,20.61-33.66,2.18-3,7.28-4.83,9-5.39,3.23,2,8.67,3.57,10.52,4.05l5.75,13.42C193.3,229.93,188.34,258.83,187.53,263.7Z"/><path class="cls-4" d="M166.2,270.51a1.29,1.29,0,0,0-1.26-.56l-9.6,1.46a1.29,1.29,0,0,0-1,.83c-.24.61-2.21,6.08-.42,9.64a5,5,0,0,0,3.22,2.63,13.38,13.38,0,0,0,3.69.53,8.83,8.83,0,0,0,5.88-2,5.71,5.71,0,0,0,1.87-5.31A18.63,18.63,0,0,0,166.2,270.51ZM165,281.15c-1.52,1.33-4.32,1.68-7.15.87a2.43,2.43,0,0,1-1.61-1.31c-.94-1.86-.26-5.11.28-6.85l7.92-1.21a19.68,19.68,0,0,1,1.58,5.52A3.13,3.13,0,0,1,165,281.15Z"/><polygon class="cls-4" points="161.22 271.83 165.13 271.23 161.22 271.83 161.22 271.83"/><path class="cls-4" d="M164.94,270l-3.91.6a1.3,1.3,0,0,0-1.1,1.28,1.21,1.21,0,0,0,0,.19,1.3,1.3,0,0,0,1.28,1.1h.2l3.91-.6a1.28,1.28,0,0,0,1.1-1.27,1.36,1.36,0,0,0,0-.2A1.3,1.3,0,0,0,164.94,270Z"/><path class="cls-4" d="M165.43,264.38l-.3,6.85a17.7,17.7,0,0,1,2.16,6.75,4.61,4.61,0,0,1-.51,3c7.85,8.46,20.32,13.32,20.32,13.32s-6,9.73-6.81,15.57-12.1,28.23-12.1,28.23l7.51,3.76s28.79-46.87,28.65-50.76-15.65-26.56-15.65-26.56C175.77,271.23,165.43,264.38,165.43,264.38Z"/><path class="cls-4" d="M189.77,263.83a1.29,1.29,0,0,0-1.66-.42c-12.06,6.22-21.57.15-22-.11a1.3,1.3,0,0,0-2,1l-.3,6.85a1.31,1.31,0,0,0,.22.77,17.17,17.17,0,0,1,1.95,6.22,3.29,3.29,0,0,1-.36,2.18,1.3,1.3,0,0,0,.18,1.53c6.48,7,15.86,11.51,19.4,13.06-1.68,2.9-5.54,10-6.22,14.77-.64,4.45-8.11,20.15-12,27.83a1.31,1.31,0,0,0-.07,1,1.27,1.27,0,0,0,.65.75l7.51,3.76a1.33,1.33,0,0,0,.58.13,1.29,1.29,0,0,0,1.1-.61c.08-.12,7.29-11.87,14.39-23.94,14.55-24.74,14.48-26.71,14.45-27.55C205.5,287,192.4,267.67,189.77,263.83Zm-14.55,76.36-5.29-2.65c2.35-4.73,10.89-22.2,11.64-27.46.79-5.51,6.58-15,6.64-15.08a1.31,1.31,0,0,0,.12-1.09,1.28,1.28,0,0,0-.76-.8c-.11,0-11.67-4.6-19.25-12.37a6.09,6.09,0,0,0,.25-3,20.68,20.68,0,0,0-2.13-6.87l.2-4.41a25.19,25.19,0,0,0,21.63-.28c6.27,9.24,14.65,22.52,14.78,24.92C202.77,294.28,186.1,322.43,175.22,340.19Z"/><path class="cls-4" d="M182.93,212.88a1.29,1.29,0,0,0-1.68.71c-.08.18-7.58,18.4-16.8,24a1.3,1.3,0,0,0-.43,1.78,1.29,1.29,0,0,0,1.1.62,1.27,1.27,0,0,0,.68-.19c9.95-6.1,17.53-24.5,17.84-25.28A1.29,1.29,0,0,0,182.93,212.88Z"/><path class="cls-4" d="M125.29,299.14H80.24a1.3,1.3,0,0,0-1.09,2L90,317.9,31.7,360.8a1.29,1.29,0,0,0-.28,1.81,1.32,1.32,0,0,0,1.82.27l59.24-43.62a1.29,1.29,0,0,0,.32-1.74L82.61,301.73h41.32l-1.39,29.35a1.29,1.29,0,0,0,2.58.12l1.46-30.7a1.3,1.3,0,0,0-.35-1A1.32,1.32,0,0,0,125.29,299.14Z"/><path class="cls-1" d="M147.07,318.13a1.29,1.29,0,0,0-1.52.07L88.39,364.3a1.29,1.29,0,0,0-.19,1.82,1.27,1.27,0,0,0,1,.48,1.31,1.31,0,0,0,.81-.28l54-43.59L142.9,327a1.29,1.29,0,1,0,2.5.67l2.21-8.13A1.28,1.28,0,0,0,147.07,318.13Z"/><path class="cls-1" d="M79.27,338.18l-27.11,19.4a1.3,1.3,0,0,0,.75,2.35,1.31,1.31,0,0,0,.75-.24l27.12-19.4a1.3,1.3,0,1,0-1.51-2.11Z"/><path class="cls-1" d="M146.36,317.92h-8.14a1.3,1.3,0,0,0,0,2.59h8.14a1.3,1.3,0,0,0,0-2.59Z"/><path class="cls-4" d="M327.49,174.41l-48.76,2.29a1.3,1.3,0,0,0-1.13.77,1.32,1.32,0,0,0,.2,1.36l7.4,8.76a1.29,1.29,0,1,0,2-1.67l-5.7-6.76L326,177.07l-7.13,43.39-9.62-9.39a1.3,1.3,0,0,0-1.67-.12L207.34,284.09a1.3,1.3,0,0,0,.76,2.35,1.36,1.36,0,0,0,.77-.25l99.37-72.5,10.62,10.36a1.32,1.32,0,0,0,1.31.3,1.3,1.3,0,0,0,.88-1l7.78-47.42a1.26,1.26,0,0,0-.31-1.07A1.29,1.29,0,0,0,327.49,174.41Z"/><path class="cls-4" d="M201.77,353.67a1.3,1.3,0,0,0,1.3-1.29V331.56h33.61a1.29,1.29,0,0,0,1.29-1.29V299.65h37.72a1.3,1.3,0,0,0,1.29-1.3V273.12h33.33a1.3,1.3,0,0,0,1.3-1.29V240H346.4a1.29,1.29,0,0,0,1.29-1.29V208.7h38.76a1.29,1.29,0,0,0,1.29-1.29v-35h40a1.29,1.29,0,0,0,1.29-1.3V148.63h29.79a1.29,1.29,0,0,0,1.29-1.3v-14.6a1.3,1.3,0,1,0-2.59,0V146H427.75a1.3,1.3,0,0,0-1.3,1.29v22.49h-40a1.29,1.29,0,0,0-1.3,1.29v35H346.4a1.3,1.3,0,0,0-1.3,1.3v30H310.31a1.3,1.3,0,0,0-1.29,1.3v31.78H275.69a1.3,1.3,0,0,0-1.3,1.3v25.23H236.68a1.3,1.3,0,0,0-1.3,1.29V329H201.77a1.3,1.3,0,0,0-1.29,1.3v20.81H167.35a1.3,1.3,0,0,0-1.29,1.3v14.69h2.59v-13.4Z"/><path class="cls-1" d="M510.14,138.11H469.47a1.3,1.3,0,1,0,0,2.59h40.67a1.3,1.3,0,1,0,0-2.59Z"/><path class="cls-4" d="M163.16,364.33c-1.58-1.36-8.27-3.52-9.6-3.94a1.28,1.28,0,0,0-1.62.84,1.3,1.3,0,0,0,.84,1.63c3.09,1,7.83,2.69,8.69,3.43a4.24,4.24,0,0,1,.69.78h2.94A7.67,7.67,0,0,0,163.16,364.33Z"/><path class="cls-4" d="M145.18,359.63a1.29,1.29,0,0,0-1.69-2c-.25.21-5.35,4.68-5.79,9.4h2.6C140.71,364.12,143.82,360.8,145.18,359.63Z"/><path class="cls-4" d="M187,346.92c-1-.26-1.69-.46-2-1-1.52-2.57-7.59-4.8-8.79-5.22a1.29,1.29,0,1,0-.86,2.44c2.62.92,6.65,2.8,7.42,4.09a5.24,5.24,0,0,0,3.63,2.25c1.27.32,1.28.41,1.3.65l.08.85c-9.19-.88-18.87-2.16-20.39-2.93-.67-.87-1.39-2.29,2.05-9.32a1.3,1.3,0,0,0-2.33-1.14c-3.64,7.46-3.42,10-1.66,12.18.44.57,1,1.34,12.65,2.76,5.5.67,10.93,1.17,11,1.18h.12a1.25,1.25,0,0,0,.91-.38,1.27,1.27,0,0,0,.38-1l-.21-2.39C190,347.69,188.17,347.23,187,346.92Z"/><path class="cls-1" d="M214.92,334.6h-8.76a1.3,1.3,0,1,0,0,2.59h8.76a1.3,1.3,0,0,0,0-2.59Z"/><path class="cls-1" d="M214.92,352.54h-6.26a1.3,1.3,0,0,0-1.3,1.3v6.25a1.3,1.3,0,0,0,1.3,1.3h6.26a1.3,1.3,0,0,0,1.29-1.3v-6.25A1.3,1.3,0,0,0,214.92,352.54Zm-1.3,6.26H210v-3.67h3.67Z"/><path class="cls-1" d="M130,351.6h-6.26a1.3,1.3,0,0,0-1.3,1.3v6.26a1.3,1.3,0,0,0,1.3,1.29H130a1.29,1.29,0,0,0,1.29-1.29V352.9A1.3,1.3,0,0,0,130,351.6Zm-1.3,6.26h-3.67v-3.67h3.67Z"/><path class="cls-1" d="M333.88,155.25h-6.26a1.29,1.29,0,0,0-1.29,1.29v6.26a1.3,1.3,0,0,0,1.29,1.3h6.26a1.3,1.3,0,0,0,1.3-1.3v-6.26A1.3,1.3,0,0,0,333.88,155.25Zm-1.29,6.26h-3.67v-3.67h3.67Z"/><path class="cls-1" d="M330.75,253.36h-6.26a1.29,1.29,0,0,0-1.29,1.29v6.26a1.3,1.3,0,0,0,1.29,1.3h6.26a1.3,1.3,0,0,0,1.3-1.3v-6.26A1.3,1.3,0,0,0,330.75,253.36Zm-1.29,6.26h-3.67V256h3.67Z"/><path class="cls-1" d="M376,212.89h-6.26a1.3,1.3,0,0,0-1.29,1.3v6.25a1.3,1.3,0,0,0,1.29,1.3H376a1.3,1.3,0,0,0,1.29-1.3v-6.25A1.3,1.3,0,0,0,376,212.89Zm-1.3,6.26H371v-3.67h3.66Z"/><path class="cls-1" d="M249.4,320.56a3.94,3.94,0,1,0,3.94,3.93A3.93,3.93,0,0,0,249.4,320.56Zm0,5.28a1.35,1.35,0,1,1,1.35-1.35A1.34,1.34,0,0,1,249.4,325.84Z"/><path class="cls-1" d="M138.22,244.71a3.94,3.94,0,1,0,3.94,3.94A3.94,3.94,0,0,0,138.22,244.71Zm0,5.29a1.35,1.35,0,1,1,1.35-1.35A1.35,1.35,0,0,1,138.22,250Z"/><rect class="cls-7" x="263.31" y="310.45" width="41.72" height="56.62"/><path class="cls-1" d="M305,309.15H263.31a1.3,1.3,0,0,0-1.3,1.3v56.62h2.59V311.74h39.13v55.33h2.59V310.45A1.3,1.3,0,0,0,305,309.15Z"/><rect class="cls-5" x="269.78" y="318.22" width="28.79" height="7.67"/><path class="cls-1" d="M298.56,316.92H269.78a1.3,1.3,0,0,0-1.3,1.3v7.67a1.3,1.3,0,0,0,1.3,1.29h28.78a1.3,1.3,0,0,0,1.3-1.29v-7.67A1.3,1.3,0,0,0,298.56,316.92Zm-1.29,7.67h-26.2v-5.08h26.2Z"/><path class="cls-1" d="M270.33,333.39a1.7,1.7,0,1,0,1.69,1.7A1.7,1.7,0,0,0,270.33,333.39Z"/><path class="cls-1" d="M279.56,333.39a1.7,1.7,0,1,0,1.69,1.7A1.69,1.69,0,0,0,279.56,333.39Z"/><path class="cls-1" d="M288.78,333.39a1.7,1.7,0,1,0,1.69,1.7A1.7,1.7,0,0,0,288.78,333.39Z"/><path class="cls-1" d="M298,333.39a1.7,1.7,0,1,0,1.69,1.7A1.69,1.69,0,0,0,298,333.39Z"/><circle class="cls-1" cx="270.33" cy="344.71" r="1.69"/><circle class="cls-1" cx="279.56" cy="344.71" r="1.69"/><circle class="cls-1" cx="288.78" cy="344.71" r="1.69"/><circle class="cls-1" cx="298.01" cy="344.71" r="1.69"/><path class="cls-1" d="M270.33,352.65a1.69,1.69,0,1,0,1.69,1.69A1.69,1.69,0,0,0,270.33,352.65Z"/><path class="cls-1" d="M279.56,352.65a1.69,1.69,0,1,0,1.69,1.69A1.68,1.68,0,0,0,279.56,352.65Z"/><path class="cls-1" d="M288.78,352.65a1.69,1.69,0,1,0,1.69,1.69A1.69,1.69,0,0,0,288.78,352.65Z"/><path class="cls-1" d="M298,352.65a1.69,1.69,0,1,0,1.69,1.69A1.68,1.68,0,0,0,298,352.65Z"/><circle class="cls-1" cx="270.33" cy="363.96" r="1.69"/><circle class="cls-1" cx="279.56" cy="363.96" r="1.69"/><circle class="cls-1" cx="288.78" cy="363.96" r="1.69"/><circle class="cls-1" cx="298.01" cy="363.96" r="1.69"/><polygon class="cls-5" points="340.91 292.23 326.44 292.23 320.67 298 298.01 298 298.01 310.45 305.03 310.45 305.03 332.14 352.03 332.14 352.03 298.35 343.13 298.35 340.91 292.23"/><path class="cls-1" d="M352,297.06h-8l-1.92-5.27a1.28,1.28,0,0,0-1.21-.85H326.44a1.25,1.25,0,0,0-.91.38l-5.39,5.39H298a1.3,1.3,0,0,0-1.3,1.29v12.45a1.3,1.3,0,0,0,1.3,1.29h5.72v20.4a1.3,1.3,0,0,0,1.3,1.3h47a1.3,1.3,0,0,0,1.3-1.3V298.35A1.3,1.3,0,0,0,352,297.06Zm-1.29,33.79H306.32v-20.4a1.3,1.3,0,0,0-1.29-1.3H299.3V299.3h21.37a1.3,1.3,0,0,0,.92-.38l5.39-5.39h13l1.91,5.26a1.3,1.3,0,0,0,1.22.86h7.61Z"/><path class="cls-1" d="M342.16,323.2H313.09a1.3,1.3,0,0,0,0,2.59h29.07a1.3,1.3,0,0,0,0-2.59Z"/><path class="cls-1" d="M340.91,274.6h-9a1.26,1.26,0,0,0-.92.38l-1.78,1.77H308.3a1.3,1.3,0,0,0-1.3,1.3V298a1.3,1.3,0,1,0,2.59,0V279.34h20.12a1.29,1.29,0,0,0,.92-.38l1.77-1.77h7.21v15a1.3,1.3,0,1,0,2.59,0V275.89A1.29,1.29,0,0,0,340.91,274.6Z"/><path class="cls-1" d="M334.65,281.48H313.09a1.3,1.3,0,0,0,0,2.59h21.56a1.3,1.3,0,0,0,0-2.59Z"/><path class="cls-1" d="M321.72,287.6h-8.63a1.3,1.3,0,0,0,0,2.59h8.63a1.3,1.3,0,0,0,0-2.59Z"/><path class="cls-1" d="M289.73,276.75H260.39a1.3,1.3,0,1,0,0,2.59h29.34a1.3,1.3,0,1,0,0-2.59Z"/><path class="cls-4" d="M363.25,237.55a1.3,1.3,0,0,0-1.41.28L356.66,243a1.29,1.29,0,0,0,1.83,1.83l3-3v86.52a1.3,1.3,0,0,0,2.59,0V238.75A1.28,1.28,0,0,0,363.25,237.55Z"/><path class="cls-4" d="M363.67,237.83a1.3,1.3,0,0,0-2.21.92v89.64a1.3,1.3,0,0,0,2.59,0V241.87l3,3a1.29,1.29,0,1,0,1.83-1.83Z"/><path class="cls-1" d="M410.69,318.27l-7.7,1.36a1.28,1.28,0,0,0-1.05,1.49,1.3,1.3,0,0,0,1.5,1.06l3.47-.62L392.1,335.65l-5.1-6a1.3,1.3,0,0,0-1.82-.15L371.61,341a1.29,1.29,0,0,0,.83,2.28,1.31,1.31,0,0,0,.84-.3l12.59-10.65,5.14,6a1.33,1.33,0,0,0,.92.45,1.3,1.3,0,0,0,1-.35l18.91-18a1.28,1.28,0,0,0,.27-1.52A1.29,1.29,0,0,0,410.69,318.27Z"/><path class="cls-1" d="M411.14,318.27a1.29,1.29,0,0,0-1.5,1l-1.37,7.51a1.3,1.3,0,0,0,1.05,1.51l.23,0a1.29,1.29,0,0,0,1.27-1.06l1.37-7.51A1.3,1.3,0,0,0,411.14,318.27Z"/><path class="cls-4" d="M431,183.77l-7.7,1.36a1.29,1.29,0,1,0,.45,2.55l3.47-.61-14.81,14.08-5.09-6a1.3,1.3,0,0,0-1.82-.14l-13.58,11.47a1.3,1.3,0,0,0,.84,2.29,1.29,1.29,0,0,0,.84-.31l12.59-10.64,5.14,6a1.28,1.28,0,0,0,1.88.1l18.91-18a1.3,1.3,0,0,0-1.12-2.22Z"/><path class="cls-4" d="M365.61,331l-7.71,1.36a1.29,1.29,0,1,0,.45,2.55l3.48-.61L347,348.42l-5.09-6a1.3,1.3,0,0,0-1.82-.15l-13.57,11.48a1.3,1.3,0,1,0,1.67,2l12.59-10.65,5.14,6a1.27,1.27,0,0,0,.92.45,1.3,1.3,0,0,0,1-.35l18.91-18a1.31,1.31,0,0,0,.27-1.53A1.29,1.29,0,0,0,365.61,331Z"/><path class="cls-4" d="M431.43,183.78a1.29,1.29,0,0,0-1.51,1l-1.36,7.51a1.29,1.29,0,0,0,1,1.5,1,1,0,0,0,.24,0,1.29,1.29,0,0,0,1.27-1.06l1.36-7.51A1.29,1.29,0,0,0,431.43,183.78Z"/><path class="cls-4" d="M366.81,331a1.29,1.29,0,0,0-1.5,1l-1.37,7.51a1.29,1.29,0,0,0,1.05,1.5.86.86,0,0,0,.23,0,1.29,1.29,0,0,0,1.27-1.06l1.37-7.51A1.31,1.31,0,0,0,366.81,331Z"/><path class="cls-4" d="M375.39,312.49a4.36,4.36,0,1,0,4.36,4.36A4.36,4.36,0,0,0,375.39,312.49Zm0,6.12a1.77,1.77,0,1,1,1.77-1.76A1.76,1.76,0,0,1,375.39,318.61Z"/><path class="cls-1" d="M220.88,304.32a7.47,7.47,0,1,0,7.47,7.47A7.48,7.48,0,0,0,220.88,304.32Zm0,12.34a4.88,4.88,0,1,1,4.88-4.87A4.88,4.88,0,0,1,220.88,316.66Z"/><path class="cls-1" d="M107.56,314.39a7.47,7.47,0,1,0,7.47,7.46A7.48,7.48,0,0,0,107.56,314.39Zm0,12.34a4.88,4.88,0,1,1,4.88-4.88A4.88,4.88,0,0,1,107.56,326.73Z"/><path class="cls-1" d="M403.91,341.92H392.78a1.29,1.29,0,0,0-1.29,1.29v11.13a1.29,1.29,0,0,0,1.29,1.29h11.13a1.29,1.29,0,0,0,1.29-1.29V343.21A1.29,1.29,0,0,0,403.91,341.92ZM402.61,353h-8.53v-8.53h8.53Z"/><path class="cls-1" d="M531.44,343h-7.93a1.3,1.3,0,0,0-1.3,1.29v7.94a1.3,1.3,0,0,0,1.3,1.29h7.93a1.3,1.3,0,0,0,1.3-1.29v-7.94A1.3,1.3,0,0,0,531.44,343Zm-1.29,7.93H524.8v-5.34h5.35Z"/><path class="cls-1" d="M427.52,261.92a1.31,1.31,0,0,0-1.47,1.1l-13.14,88.92a1.29,1.29,0,0,0,1.09,1.47l.19,0a1.29,1.29,0,0,0,1.28-1.11l13.14-88.92A1.3,1.3,0,0,0,427.52,261.92Z"/><path class="cls-5" d="M441.07,198.09s-15.24,12-17,26.14,8.5,24.07,8.5,24.07h17s10.26-9.88,8.5-24.07S441.07,198.09,441.07,198.09Z"/><path class="cls-1" d="M459.36,224.07c-1.81-14.54-16.85-26.5-17.49-27a1.29,1.29,0,0,0-1.6,0c-.64.5-15.68,12.46-17.48,27s8.45,24.74,8.89,25.16a1.26,1.26,0,0,0,.89.37h17a1.26,1.26,0,0,0,.9-.37c.44-.42,10.7-10.5,8.89-25.16ZM449,247h-15.9c-1.73-1.86-9.24-10.7-7.76-22.62,1.44-11.64,12.6-21.95,15.71-24.62,3.11,2.67,14.27,13,15.72,24.62h0C458.26,236.28,450.75,245.14,449,247Z"/><path class="cls-4" d="M477.82,189.8a1.3,1.3,0,0,0-1.83,0l-18.08,18.08a1.3,1.3,0,0,0,.92,2.21h8.3v33a1.3,1.3,0,1,0,2.59,0V208.8a1.3,1.3,0,0,0-1.29-1.3H462l15-14.95,14.88,14.88h-7.65a1.3,1.3,0,1,0,0,2.59h10.78a1.28,1.28,0,0,0,1.19-.8,1.3,1.3,0,0,0-.28-1.41Z"/><path class="cls-1" d="M460.92,186.78a3.94,3.94,0,1,0,3.93,3.94A3.94,3.94,0,0,0,460.92,186.78Zm0,5.28a1.35,1.35,0,1,1,1.34-1.34A1.34,1.34,0,0,1,460.92,192.06Z"/><path class="cls-4" d="M452.36,161.61a9.85,9.85,0,1,0,9.85,9.85A9.85,9.85,0,0,0,452.36,161.61Zm0,17.1a7.26,7.26,0,1,1,7.26-7.25A7.26,7.26,0,0,1,452.36,178.71Z"/><path class="cls-4" d="M290.57,189,228.41,234.1a1.29,1.29,0,0,0,.76,2.34,1.34,1.34,0,0,0,.76-.24l62.16-45.06a1.3,1.3,0,1,0-1.52-2.1Z"/><path class="cls-1" d="M260.75,220.75,239.68,235.9a1.3,1.3,0,0,0,.75,2.35,1.32,1.32,0,0,0,.76-.24l21.07-15.16a1.3,1.3,0,0,0,.29-1.81A1.28,1.28,0,0,0,260.75,220.75Z"/><path class="cls-4" d="M258,259.85l-47,33.27a1.3,1.3,0,0,0,1.5,2.12l47-33.27a1.3,1.3,0,1,0-1.5-2.12Z"/><path class="cls-1" d="M142.46,262.19a1.31,1.31,0,0,0-1.54-.05l-34.09,23.32a1.3,1.3,0,1,0,1.46,2.14l30.59-20.93L137,271.35a1.3,1.3,0,0,0,2.41,1l3.42-8.63A1.3,1.3,0,0,0,142.46,262.19Z"/><path class="cls-1" d="M141.65,261.91h0l-9.58.23a1.3,1.3,0,0,0-1.26,1.33,1.28,1.28,0,0,0,1.29,1.26h0l9.58-.23a1.3,1.3,0,0,0,0-2.59Z"/><path class="cls-1" d="M314.45,150.23a1.29,1.29,0,0,0-1.55,0l-99.22,69.2a1.3,1.3,0,0,0-.32,1.81,1.28,1.28,0,0,0,1.06.55,1.32,1.32,0,0,0,.74-.23l95.69-66.74L309,159.39a1.29,1.29,0,1,0,2.4,1l3.43-8.62A1.29,1.29,0,0,0,314.45,150.23Z"/><path class="cls-1" d="M313.61,150l-9.58.23a1.3,1.3,0,0,0,0,2.59h0l9.57-.23a1.3,1.3,0,1,0-.06-2.59Z"/><path class="cls-4" d="M372,154.65l-24,3.43a1.27,1.27,0,0,0-1,.81,1.31,1.31,0,0,0,.2,1.29l4.67,5.73-23.46,19.17a1.29,1.29,0,1,0,1.63,2l24.47-20a1.3,1.3,0,0,0,.18-1.82l-4-5,19.78-2.83-4.68,18.77-4.68-4.67a1.29,1.29,0,0,0-1.74-.09l-37.11,30.59a1.3,1.3,0,0,0-.17,1.83,1.29,1.29,0,0,0,1.82.17l36.2-29.84,5.46,5.46a1.3,1.3,0,0,0,2.17-.6l5.71-22.86a1.31,1.31,0,0,0-1.44-1.6Z"/><path class="cls-4" d="M202.21,172.16a1.29,1.29,0,1,0-2.4,1c1.79,4.52,2,17.27.92,19a6.19,6.19,0,0,1-3.6.84,1.32,1.32,0,0,0-1,.35,1.29,1.29,0,0,0-.41.94s0,1.08-.13,2.24c-.09.78-1.28,4.77-2.1,7.37a1.28,1.28,0,0,0,.84,1.62,1.32,1.32,0,0,0,.39.06,1.31,1.31,0,0,0,1.24-.9c.34-1.09,2.06-6.55,2.2-7.86.05-.45.09-.88.11-1.25a7.48,7.48,0,0,0,4.19-1.5c1.11-1,1.59-4.33,1.43-10C203.81,180.12,203.3,174.91,202.21,172.16Z"/><path class="cls-4" d="M195.93,154.84a1.3,1.3,0,0,0-1.33-.08,1.27,1.27,0,0,0-.7,1.13c0,1.65-.49,4.22-1.28,4.74-.49.13-2.27-1.12-3.67-2.77a1.29,1.29,0,0,0-2.27,1,9.67,9.67,0,0,1-1,5.13c-.5,1-3.3,4.46-5.34,7-1.4,1.74-2.61,3.25-3.1,4-2.83,4.1,2.81,18,2.87,18.11,1.11,2.41,1.24,3.07,1.12,4.1a1.3,1.3,0,0,0,2,1.2,4.78,4.78,0,0,0,2-3.86c1.24-.94,3.75-3.1,4.26-5.44a1.28,1.28,0,0,0-.19-1c-.81-1.2-1.85-3.43-1.52-4.42,0-.13.12-.28.46-.4a5.86,5.86,0,0,1,2-.45,1.31,1.31,0,0,0,1.21.51,1.29,1.29,0,0,0,1.11-1.44l-.35-2.87c2.53-.26,7.63-1.34,9.92-5.77a1.09,1.09,0,0,0,.1-.25,21.11,21.11,0,0,0,0-8.61C201.23,158.55,196.14,155,195.93,154.84ZM190,182.21Zm9.76-10c-2.37,4.32-8.93,4.32-9,4.31a1.25,1.25,0,0,0-1,.43,1.32,1.32,0,0,0-.33,1l.28,2.28a9.61,9.61,0,0,0-2.41.59,3.16,3.16,0,0,0-2.06,2c-.7,2.11.74,4.89,1.49,6.14a11.75,11.75,0,0,1-3.69,3.86,1.24,1.24,0,0,0-.21.18l-.46-1c-1.6-3.48-4.47-13.54-3.09-15.54.44-.63,1.68-2.17,3-3.81a74.73,74.73,0,0,0,5.63-7.44,12.3,12.3,0,0,0,1.16-3.53c1.47,1.19,3.35,2.15,4.89,1.14,1.3-.85,1.92-2.69,2.21-4.27a12.53,12.53,0,0,1,3.51,6.3A19.7,19.7,0,0,1,199.79,172.18Z"/><path class="cls-4" d="M183.75,192.84a1.3,1.3,0,0,0-1.16,1.42,12.51,12.51,0,0,1-.3,5.15,1.29,1.29,0,0,0,.71,1.68,1.19,1.19,0,0,0,.49.1,1.3,1.3,0,0,0,1.2-.8,14.2,14.2,0,0,0,.48-6.39A1.29,1.29,0,0,0,183.75,192.84Z"/><path class="cls-1" d="M179.32,163.57c-14.21,10.85-9,19.93-8.78,20.31a1.31,1.31,0,0,0,1.12.63,1.34,1.34,0,0,0,.66-.18,1.31,1.31,0,0,0,.45-1.78c-.05-.07-4.27-7.46,8.12-16.92a1.3,1.3,0,0,0-1.57-2.06Z"/><path class="cls-3" d="M441.07,218.32a6.78,6.78,0,1,0,6.78,6.78A6.79,6.79,0,0,0,441.07,218.32Z"/><path class="cls-1" d="M441.07,217a8.07,8.07,0,1,0,8.08,8.07A8.08,8.08,0,0,0,441.07,217Zm0,13.55a5.48,5.48,0,1,1,5.49-5.48A5.49,5.49,0,0,1,441.07,230.58Z"/><path class="cls-1" d="M435,220.54H424.5a1.3,1.3,0,0,0,0,2.6H435a1.3,1.3,0,0,0,0-2.6Z"/><path class="cls-1" d="M457.65,220.54H447a1.3,1.3,0,1,0,0,2.6h10.63a1.3,1.3,0,0,0,0-2.6Z"/><path class="cls-1" d="M435.42,227.8H423.87a1.3,1.3,0,0,0,0,2.59h11.55a1.3,1.3,0,0,0,0-2.59Z"/><path class="cls-1" d="M458.27,227.8H446.55a1.3,1.3,0,1,0,0,2.59h11.72a1.3,1.3,0,1,0,0-2.59Z"/><path class="cls-1" d="M401.26,247.79a20,20,0,0,0-4.4,4.4l-3.5-3.14a1.29,1.29,0,1,0-1.73,1.92l4.59,4.12a1.28,1.28,0,0,0,.87.33h.18a1.27,1.27,0,0,0,.91-.59,19.21,19.21,0,0,1,4.54-4.89,1.3,1.3,0,0,0-1.46-2.14Z"/><path class="cls-1" d="M416.07,247.57h-8a1.3,1.3,0,1,0,0,2.59h8a1.3,1.3,0,0,0,0-2.59Z"/><path class="cls-1" d="M416.07,251.84h-8a1.3,1.3,0,1,0,0,2.59h8a1.3,1.3,0,0,0,0-2.59Z"/><path class="cls-1" d="M401.26,262.14a20,20,0,0,0-4.4,4.39l-3.5-3.14a1.3,1.3,0,1,0-1.73,1.93l4.59,4.12a1.33,1.33,0,0,0,.87.33h.18a1.33,1.33,0,0,0,.91-.6,19.43,19.43,0,0,1,4.54-4.89,1.29,1.29,0,1,0-1.46-2.13Z"/><path class="cls-1" d="M416.07,261.91h-8a1.3,1.3,0,1,0,0,2.59h8a1.3,1.3,0,0,0,0-2.59Z"/><path class="cls-1" d="M416.07,266.19h-8a1.3,1.3,0,1,0,0,2.59h8a1.3,1.3,0,0,0,0-2.59Z"/><path class="cls-1" d="M401.26,276.48a20.21,20.21,0,0,0-4.4,4.39l-3.5-3.14a1.3,1.3,0,1,0-1.73,1.93l4.59,4.12a1.33,1.33,0,0,0,.87.33h.18a1.27,1.27,0,0,0,.91-.6,19.46,19.46,0,0,1,4.54-4.88,1.3,1.3,0,0,0-1.46-2.14Z"/><path class="cls-1" d="M416.07,276.25h-8a1.3,1.3,0,1,0,0,2.59h8a1.3,1.3,0,0,0,0-2.59Z"/><path class="cls-1" d="M416.07,280.53h-8a1.3,1.3,0,1,0,0,2.59h8a1.3,1.3,0,0,0,0-2.59Z"/><path class="cls-6" d="M502.84,160.68v34.56a7.86,7.86,0,0,0,7.86,7.85H550V160.68Z"/><path class="cls-1" d="M510.7,201.8a6.57,6.57,0,0,1-6.56-6.56V162H550v-2.59H502.84a1.29,1.29,0,0,0-1.29,1.29v34.56a9.16,9.16,0,0,0,9.15,9.15H550V201.8Z"/><path class="cls-5" d="M498.88,150v8.45a5.17,5.17,0,0,0,3.26,4.81l13.38,5.35a9.31,9.31,0,0,0,3.41.65H550V150Z"/><path class="cls-1" d="M518.93,168a7.8,7.8,0,0,1-2.93-.57l-13.38-5.34a3.86,3.86,0,0,1-2.45-3.61v-7.15H550v-2.59H498.88a1.3,1.3,0,0,0-1.3,1.29v8.45a6.45,6.45,0,0,0,4.08,6L515,169.85a10.43,10.43,0,0,0,3.89.75H550V168Z"/><path class="cls-1" d="M524.69,168a1.29,1.29,0,0,0-1.29,1.29v7.34a.49.49,0,0,1-.48.48h-6.1a.48.48,0,0,1-.48-.48v-8.18a1.3,1.3,0,1,0-2.59,0v8.18a3.08,3.08,0,0,0,3.07,3.07h6.1a3.08,3.08,0,0,0,3.07-3.07V169.3A1.3,1.3,0,0,0,524.69,168Z"/><path class="cls-1" d="M524.69,182.64h-9.64a1.3,1.3,0,1,0,0,2.59h9.64a1.3,1.3,0,1,0,0-2.59Z"/><path class="cls-1" d="M502.84,191.51a1.3,1.3,0,0,0,0,2.59H550v-2.59Z"/><path class="cls-1" d="M485.39,151.46h-7.93a1.29,1.29,0,0,0-1.29,1.29v7.93a1.3,1.3,0,0,0,1.29,1.3h7.93a1.3,1.3,0,0,0,1.3-1.3v-7.93A1.3,1.3,0,0,0,485.39,151.46Zm-1.29,7.93h-5.34v-5.34h5.34Z"/><path class="cls-1" d="M435.59,257.85a1.31,1.31,0,0,0-1.46,1.12l-13,98a1.3,1.3,0,0,0,1.11,1.46h.17a1.29,1.29,0,0,0,1.28-1.13l13-98A1.31,1.31,0,0,0,435.59,257.85Z"/><path class="cls-1" d="M437.82,305.61a1.29,1.29,0,0,0-1.35,1.24l-2.35,54.86a1.3,1.3,0,0,0,1.24,1.35h.06a1.3,1.3,0,0,0,1.29-1.24L439.06,307A1.3,1.3,0,0,0,437.82,305.61Z"/><path class="cls-5" d="M459.76,306.18a25.68,25.68,0,0,0,51.36,0v-21H459.76Z"/><path class="cls-1" d="M511.12,283.85H459.76a1.3,1.3,0,0,0-1.3,1.29v21a27,27,0,1,0,53.95,0v-21A1.29,1.29,0,0,0,511.12,283.85Zm-1.3,22.33a24.39,24.39,0,1,1-48.77,0V286.44h48.77Z"/><path class="cls-6" d="M511.91,277.88H459a3.63,3.63,0,0,0,0,7.26h53a3.63,3.63,0,0,0,0-7.26Z"/><path class="cls-1" d="M511.91,276.59H459a4.93,4.93,0,1,0,0,9.85h53a4.93,4.93,0,1,0,0-9.85Zm0,7.26H459a2.34,2.34,0,1,1,0-4.67h53a2.34,2.34,0,1,1,0,4.67Z"/><path class="cls-1" d="M453.19,304.44c-4.48-1.33-8.88-3.06-10.79-6.66-1.37-2.57-1.38-5.91,0-10.2,1.1-3.47,2.84-5.76,5.2-6.8,3.58-1.59,7.53.17,7.62.21a1.3,1.3,0,0,0,1.1-2.35c-.2-.09-5.05-2.31-9.75-.24-3.07,1.35-5.31,4.18-6.64,8.4-1.57,5-1.5,9,.21,12.2,2.36,4.45,7.57,6.5,12.34,7.92,4.5,1.34,6.85,3.83,6.63,7s-3,6.42-6,6.88-5-.8-5.32-2.29.72-2.61,2.72-3.26a1.3,1.3,0,0,0-.8-2.47c-3.82,1.25-5,4.08-4.44,6.33s2.94,4.38,6.61,4.38a10.4,10.4,0,0,0,1.63-.13c4.16-.64,7.93-4.88,8.23-9.26C461.81,312,461.27,306.85,453.19,304.44Z"/><path class="cls-1" d="M524.33,278.4c-4.7-2.07-9.54.15-9.75.24a1.3,1.3,0,0,0,1.1,2.35s4-1.81,7.62-.21c2.36,1,4.11,3.33,5.2,6.8,1.37,4.36,1.35,7.74-.07,10.35-2,3.66-6.54,5.34-10.73,6.5-6,1.66-9.1,5.57-8.43,10.49.62,4.59,4.46,8.47,8.36,8.47,5,0,7.76-2.59,8.15-5,.3-1.9-.74-4.36-4.55-5.61a1.3,1.3,0,0,0-.8,2.47c1.89.61,3,1.66,2.79,2.73-.22,1.36-2.25,2.81-5.59,2.81-2.59,0-5.35-3-5.79-6.23-.29-2.1.18-5.87,6.56-7.64,4.44-1.23,9.84-3.23,12.31-7.77,1.77-3.25,1.85-7.3.26-12.36C529.64,282.58,527.41,279.75,524.33,278.4Z"/><path class="cls-3" d="M472.63,297a6.84,6.84,0,1,0,6.84,6.84A6.84,6.84,0,0,0,472.63,297Z"/><circle class="cls-3" cx="478.74" cy="315.01" r="3.13" transform="translate(118.08 760.38) rotate(-84.35)"/><path class="cls-1" d="M496.48,288.19H466a1.3,1.3,0,1,0,0,2.59h30.45a1.3,1.3,0,1,0,0-2.59Z"/><path class="cls-6" d="M492.58,344.61H478.29a1.56,1.56,0,0,0-1.56,1.56v3.11h17.41v-3.11A1.56,1.56,0,0,0,492.58,344.61Z"/><path class="cls-1" d="M492.58,343.31H478.29a2.86,2.86,0,0,0-2.86,2.86v3.11a1.3,1.3,0,0,0,1.3,1.3h17.41a1.3,1.3,0,0,0,1.3-1.3v-3.11A2.86,2.86,0,0,0,492.58,343.31Zm.27,4.68H478v-1.82a.27.27,0,0,1,.27-.27h14.29a.27.27,0,0,1,.27.27Z"/><rect class="cls-5" x="465.79" y="349.28" width="39.28" height="17.79"/><path class="cls-1" d="M505.08,348H465.79a1.29,1.29,0,0,0-1.29,1.29v17.79h2.59V350.58h36.69v16.49h2.59V349.28A1.29,1.29,0,0,0,505.08,348Z"/><path class="cls-1" d="M461.68,329.75a1.3,1.3,0,1,0-2.57.33l2.75,21.56a1.29,1.29,0,0,0,1.28,1.13h.16a1.3,1.3,0,0,0,1.13-1.45Z"/><path class="cls-1" d="M455.26,330.85a1.29,1.29,0,0,0-1.22,1.36l1,18.23a1.3,1.3,0,0,0,1.3,1.22h.07a1.29,1.29,0,0,0,1.22-1.36l-1-18.23A1.29,1.29,0,0,0,455.26,330.85Z"/><path class="cls-4" d="M496.46,211.77a1.29,1.29,0,0,0-2.31.68L493.09,224l-11.63-1.85a1.29,1.29,0,0,0-1.23,2.07l13.45,17.3a1.3,1.3,0,0,0,.88.5l12,1.35a1.31,1.31,0,0,0,.59.14,1.24,1.24,0,0,0,.33,0,1.3,1.3,0,0,0,1-1.07l1.7-12.37a1.28,1.28,0,0,0-.26-1Zm9.63,29-10.7-1.21-11.1-14.28,9.33,1.49a1.3,1.3,0,0,0,1.92-1l.89-9.77,11.1,14.28Z"/><path class="cls-4" d="M499.46,230.19a1.29,1.29,0,0,0-2,1.59l27.09,34.85a1.3,1.3,0,0,0,1,.5,1.27,1.27,0,0,0,.8-.27,1.31,1.31,0,0,0,.23-1.82Z"/><path class="cls-6" d="M450,247.5a4.31,4.31,0,0,0-.49,0h-16.9a4.09,4.09,0,0,0-.48,0,3,3,0,0,0-3.23,2.88l-.05.82h24.43l-.05-.82A3,3,0,0,0,450,247.5Z"/><path class="cls-1" d="M450,246.2c-.23,0-.42,0-.56,0H432.69c-.13,0-.32,0-.55,0a4.27,4.27,0,0,0-4.53,4.1l-.05.82a1.3,1.3,0,0,0,1.3,1.38h24.43a1.3,1.3,0,0,0,1.29-1.38l-.05-.82A4.26,4.26,0,0,0,450,246.2Zm-19.71,3.71a1.73,1.73,0,0,1,1.84-1.11H450a1.73,1.73,0,0,1,1.84,1.11Z"/><path class="cls-1" d="M87.07,333.21a1.14,1.14,0,0,0-.26,0,1.27,1.27,0,0,0,.26,2.51h0a1.07,1.07,0,0,0,.25,0,1.22,1.22,0,0,0,.8-.54,1.23,1.23,0,0,0,.19-.95A1.26,1.26,0,0,0,87.07,333.21Z"/><path class="cls-1" d="M220.17,334.63a1.15,1.15,0,0,0-.26,0,1.24,1.24,0,0,0-.8.54,1.26,1.26,0,0,0,1,2h0a1.06,1.06,0,0,0,.25,0,1.27,1.27,0,0,0-.25-2.51Z"/><path class="cls-1" d="M256.84,276.78a1.15,1.15,0,0,0-.26,0,1.24,1.24,0,0,0-.8.54,1.23,1.23,0,0,0-.18.95,1.26,1.26,0,0,0,1.24,1h0a1.07,1.07,0,0,0,.25,0,1.27,1.27,0,0,0-.25-2.51Z"/><path class="cls-1" d="M263.9,256.36l-.25,0a1.27,1.27,0,0,0,.25,2.51l.25,0a1.27,1.27,0,0,0-.25-2.51Z"/><path class="cls-1" d="M173.18,186.71a1.07,1.07,0,0,0-.25,0,1.25,1.25,0,0,0-.8.54,1.27,1.27,0,0,0,1.05,2,1.15,1.15,0,0,0,.26,0,1.27,1.27,0,0,0-.26-2.51Z"/><path class="cls-1" d="M265.5,217.85a1.07,1.07,0,0,0-.25,0,1.27,1.27,0,0,0,.25,2.51,1.07,1.07,0,0,0,.25,0,1.3,1.3,0,0,0,.81-.54,1.28,1.28,0,0,0-1.06-2Z"/><path class="cls-1" d="M347.7,323.23l-.25,0a1.27,1.27,0,0,0,.25,2.51l.25,0a1.25,1.25,0,0,0,.81-.55,1.23,1.23,0,0,0,.18-.95A1.26,1.26,0,0,0,347.7,323.23Z"/><path class="cls-1" d="M413.36,356.74a1.15,1.15,0,0,0-.26,0,1.24,1.24,0,0,0-.8.54,1.23,1.23,0,0,0-.18.95,1.27,1.27,0,0,0,1.24,1,1.07,1.07,0,0,0,.25,0,1.27,1.27,0,0,0-.25-2.51Z"/><path class="cls-1" d="M437.76,300.87a1.07,1.07,0,0,0-.25,0,1.27,1.27,0,0,0,.25,2.51,1,1,0,0,0,.25,0,1.27,1.27,0,0,0-.25-2.51Z"/><path class="cls-1" d="M502.34,288.22l-.26,0a1.27,1.27,0,0,0,.25,2.51l.26,0a1.27,1.27,0,0,0-.25-2.51Z"/><path class="cls-1" d="M516.25,138.14l-.26,0a1.27,1.27,0,0,0,.25,2.51l.26,0a1.25,1.25,0,0,0,.8-.55,1.26,1.26,0,0,0-1-2Z"/><path class="cls-1" d="M156.58,192.83a1.3,1.3,0,0,0-1.3,1.3v2.28a1.3,1.3,0,1,0,2.59,0v-2.28A1.3,1.3,0,0,0,156.58,192.83Z"/><path class="cls-1" d="M156.58,205.83a1.3,1.3,0,0,0-1.3,1.29v2.29a1.3,1.3,0,0,0,2.59,0v-2.29A1.29,1.29,0,0,0,156.58,205.83Z"/><path class="cls-1" d="M164.21,200.47h-2.28a1.3,1.3,0,1,0,0,2.59h2.28a1.3,1.3,0,1,0,0-2.59Z"/><path class="cls-1" d="M151.23,200.47h-2.29a1.3,1.3,0,0,0,0,2.59h2.29a1.3,1.3,0,0,0,0-2.59Z"/><path class="cls-1" d="M292.6,245.19a1.3,1.3,0,0,0-1.3,1.3v2.29a1.3,1.3,0,0,0,2.59,0v-2.29A1.3,1.3,0,0,0,292.6,245.19Z"/><path class="cls-1" d="M292.6,258.19a1.3,1.3,0,0,0-1.3,1.29v2.29a1.3,1.3,0,1,0,2.59,0v-2.29A1.29,1.29,0,0,0,292.6,258.19Z"/><path class="cls-1" d="M300.23,252.83H298a1.3,1.3,0,1,0,0,2.59h2.28a1.3,1.3,0,1,0,0-2.59Z"/><path class="cls-1" d="M287.25,252.83H285a1.3,1.3,0,0,0,0,2.59h2.29a1.3,1.3,0,0,0,0-2.59Z"/><path class="cls-1" d="M292.6,245.85a1.3,1.3,0,0,0-1.3,1.29v2.29a1.3,1.3,0,0,0,2.59,0v-2.29A1.29,1.29,0,0,0,292.6,245.85Z"/><path class="cls-1" d="M292.6,258.84a1.3,1.3,0,0,0-1.3,1.3v2.28a1.3,1.3,0,1,0,2.59,0v-2.28A1.3,1.3,0,0,0,292.6,258.84Z"/><path class="cls-1" d="M300.23,253.49H298a1.3,1.3,0,1,0,0,2.59h2.28a1.3,1.3,0,1,0,0-2.59Z"/><path class="cls-1" d="M287.25,253.49H285a1.3,1.3,0,0,0,0,2.59h2.29a1.3,1.3,0,0,0,0-2.59Z"/><path class="cls-1" d="M537.32,321.09a1.3,1.3,0,0,0-1.3,1.29v2.29a1.3,1.3,0,1,0,2.59,0v-2.29A1.29,1.29,0,0,0,537.32,321.09Z"/><path class="cls-1" d="M537.32,334.08a1.3,1.3,0,0,0-1.3,1.3v2.28a1.3,1.3,0,1,0,2.59,0v-2.28A1.3,1.3,0,0,0,537.32,334.08Z"/><path class="cls-1" d="M545,328.73h-2.28a1.3,1.3,0,1,0,0,2.59H545a1.3,1.3,0,1,0,0-2.59Z"/><path class="cls-1" d="M532,328.73h-2.29a1.3,1.3,0,0,0,0,2.59H532a1.3,1.3,0,0,0,0-2.59Z"/><path class="cls-1" d="M233.21,340.35a1.29,1.29,0,0,0-1.29,1.29v2.6a1.3,1.3,0,1,0,2.59,0v-2.6A1.3,1.3,0,0,0,233.21,340.35Z"/><path class="cls-1" d="M233.21,355.13a1.29,1.29,0,0,0-1.29,1.29V359a1.3,1.3,0,1,0,2.59,0v-2.6A1.3,1.3,0,0,0,233.21,355.13Z"/><path class="cls-1" d="M241.9,349h-2.6a1.3,1.3,0,1,0,0,2.59h2.6a1.3,1.3,0,0,0,0-2.59Z"/><path class="cls-1" d="M227.13,349h-2.6a1.3,1.3,0,1,0,0,2.59h2.6a1.3,1.3,0,0,0,0-2.59Z"/><path class="cls-1" d="M346.75,251.48a1.3,1.3,0,0,0-1.29,1.3v2a1.3,1.3,0,1,0,2.59,0v-2A1.3,1.3,0,0,0,346.75,251.48Z"/><path class="cls-1" d="M346.75,262.89a1.29,1.29,0,0,0-1.29,1.29v2a1.3,1.3,0,1,0,2.59,0v-2A1.3,1.3,0,0,0,346.75,262.89Z"/><path class="cls-1" d="M353.46,258.19h-2a1.3,1.3,0,0,0,0,2.59h2a1.3,1.3,0,0,0,0-2.59Z"/><path class="cls-1" d="M342.06,258.19h-2a1.3,1.3,0,0,0,0,2.59h2a1.3,1.3,0,0,0,0-2.59Z"/><path class="cls-1" d="M214,194.84a1.29,1.29,0,0,0-1.29,1.29v1.71a1.3,1.3,0,1,0,2.59,0v-1.71A1.3,1.3,0,0,0,214,194.84Z"/><path class="cls-1" d="M214,204.54a1.29,1.29,0,0,0-1.29,1.29v1.71a1.3,1.3,0,0,0,2.59,0v-1.71A1.3,1.3,0,0,0,214,204.54Z"/><path class="cls-1" d="M219.67,200.54H218a1.3,1.3,0,0,0,0,2.59h1.71a1.3,1.3,0,0,0,0-2.59Z"/><path class="cls-1" d="M210,200.54h-1.7a1.3,1.3,0,1,0,0,2.59H210a1.3,1.3,0,0,0,0-2.59Z"/><path class="cls-1" d="M244.76,183.06l-.86.59a1.29,1.29,0,0,0-.34,1.8,1.27,1.27,0,0,0,1.07.56,1.32,1.32,0,0,0,.73-.22l.86-.59a1.3,1.3,0,0,0-1.46-2.14Z"/><path class="cls-1" d="M249.91,179.54l-.86.59a1.3,1.3,0,0,0-.34,1.8,1.28,1.28,0,0,0,1.07.56,1.3,1.3,0,0,0,.73-.22l.86-.59a1.3,1.3,0,0,0-1.46-2.14Z"/><path class="cls-1" d="M239.6,186.58l-.86.59a1.29,1.29,0,0,0,.74,2.36,1.27,1.27,0,0,0,.72-.22l.86-.59a1.3,1.3,0,0,0-1.46-2.14Z"/><path class="cls-1" d="M255.06,176l-.86.58a1.3,1.3,0,1,0,1.46,2.14l.86-.58a1.3,1.3,0,0,0,.34-1.8A1.28,1.28,0,0,0,255.06,176Z"/><path class="cls-1" d="M229.3,193.62l-.86.58a1.3,1.3,0,1,0,1.46,2.14l.86-.59a1.29,1.29,0,1,0-1.46-2.13Z"/><path class="cls-1" d="M234.45,190.1l-.86.58a1.3,1.3,0,0,0,.73,2.37,1.24,1.24,0,0,0,.73-.23l.86-.58a1.3,1.3,0,0,0-1.46-2.14Z"/><path class="cls-1" d="M275.67,162l-.86.59a1.3,1.3,0,0,0,.73,2.37,1.31,1.31,0,0,0,.73-.23l.86-.59a1.3,1.3,0,0,0-1.46-2.14Z"/><path class="cls-1" d="M280.82,158.44,280,159a1.3,1.3,0,0,0,.74,2.37,1.28,1.28,0,0,0,.72-.23l.86-.58a1.3,1.3,0,0,0-1.46-2.14Z"/><path class="cls-1" d="M260.21,172.51l-.86.58a1.3,1.3,0,0,0,.74,2.37,1.21,1.21,0,0,0,.72-.23l.86-.58a1.3,1.3,0,1,0-1.46-2.14Z"/><path class="cls-1" d="M286,154.92l-.86.58a1.3,1.3,0,0,0,.73,2.37,1.26,1.26,0,0,0,.73-.23l.86-.58a1.3,1.3,0,0,0-1.46-2.14Z"/><path class="cls-1" d="M265.37,169l-.86.59a1.29,1.29,0,0,0,.73,2.36,1.32,1.32,0,0,0,.73-.22l.86-.59a1.3,1.3,0,1,0-1.46-2.14Z"/><path class="cls-1" d="M270.52,165.47l-.86.59a1.3,1.3,0,0,0-.34,1.8,1.28,1.28,0,0,0,1.07.56,1.3,1.3,0,0,0,.73-.22l.86-.59a1.3,1.3,0,1,0-1.46-2.14Z"/><path class="cls-1" d="M16.63,354.76l-.85.6a1.3,1.3,0,0,0-.31,1.8,1.29,1.29,0,0,0,1.81.31l.85-.6a1.3,1.3,0,0,0,.3-1.81A1.28,1.28,0,0,0,16.63,354.76Z"/><path class="cls-1" d="M11.54,358.37l-.84.6a1.3,1.3,0,0,0-.31,1.81,1.28,1.28,0,0,0,1.06.55,1.31,1.31,0,0,0,.75-.24l.84-.61a1.29,1.29,0,1,0-1.5-2.11Z"/><path class="cls-1" d="M3.18,365.91a1.28,1.28,0,0,0-1.8-.3l-.85.6a1.28,1.28,0,0,0-.53.86H3.35A1.28,1.28,0,0,0,3.18,365.91Z"/><path class="cls-1" d="M6.46,362l-.85.6a1.29,1.29,0,1,0,1.5,2.11l.85-.6A1.29,1.29,0,0,0,6.46,362Z"/><path class="cls-1" d="M67.46,318.59l-.84.6a1.29,1.29,0,0,0,.75,2.35,1.24,1.24,0,0,0,.75-.24l.85-.6a1.3,1.3,0,0,0-1.51-2.11Z"/><path class="cls-1" d="M77.63,311.36l-.85.6a1.3,1.3,0,0,0,1.51,2.11l.84-.6a1.29,1.29,0,1,0-1.5-2.11Z"/><path class="cls-1" d="M72.55,315l-.85.61a1.3,1.3,0,0,0,.75,2.35,1.31,1.31,0,0,0,.75-.24l.85-.61a1.29,1.29,0,0,0-1.5-2.11Z"/><path class="cls-1" d="M57.3,325.82l-.85.61a1.3,1.3,0,0,0-.31,1.8,1.29,1.29,0,0,0,1.81.31l.85-.61a1.29,1.29,0,0,0-1.5-2.11Z"/><path class="cls-1" d="M52.21,329.44l-.84.6a1.29,1.29,0,0,0,.75,2.35,1.24,1.24,0,0,0,.75-.24l.84-.6a1.29,1.29,0,1,0-1.5-2.11Z"/><path class="cls-1" d="M21.71,351.14l-.85.6a1.29,1.29,0,1,0,1.5,2.11l.85-.6a1.29,1.29,0,1,0-1.5-2.11Z"/><path class="cls-1" d="M42.05,336.67l-.85.61a1.29,1.29,0,0,0,.75,2.35,1.31,1.31,0,0,0,.75-.24l.85-.61a1.29,1.29,0,0,0-1.5-2.11Z"/><path class="cls-1" d="M62.38,322.21l-.85.6a1.29,1.29,0,1,0,1.5,2.11l.85-.6a1.29,1.29,0,1,0-1.5-2.11Z"/><path class="cls-1" d="M47.13,333.06l-.85.6a1.29,1.29,0,1,0,1.5,2.11l.85-.6a1.3,1.3,0,0,0,.3-1.81A1.28,1.28,0,0,0,47.13,333.06Z"/><path class="cls-1" d="M37,340.29l-.85.6A1.3,1.3,0,0,0,37.62,343l.84-.6a1.29,1.29,0,1,0-1.5-2.11Z"/><path class="cls-1" d="M26.79,347.52l-.84.61a1.29,1.29,0,0,0,.75,2.35,1.31,1.31,0,0,0,.75-.24l.85-.61a1.3,1.3,0,0,0-1.51-2.11Z"/><path class="cls-1" d="M31.88,343.91l-.85.6a1.3,1.3,0,0,0,.75,2.35,1.31,1.31,0,0,0,.75-.24l.85-.6a1.3,1.3,0,0,0,.3-1.81A1.28,1.28,0,0,0,31.88,343.91Z"/><path class="cls-1" d="M118.82,286.92h-1.06a1.3,1.3,0,0,0-1.27,1.32,1.28,1.28,0,0,0,1.29,1.27h1a1.31,1.31,0,0,0,1.29-1.3A1.3,1.3,0,0,0,118.82,286.92Z"/><path class="cls-1" d="M125.06,286.91h-1a1.3,1.3,0,0,0,0,2.59h1a1.3,1.3,0,1,0,0-2.59Z"/><path class="cls-1" d="M131.31,286.92h-1a1.3,1.3,0,1,0,0,2.59h1a1.3,1.3,0,0,0,1.29-1.3A1.28,1.28,0,0,0,131.31,286.92Z"/><path class="cls-1" d="M136.86,292.82a1.3,1.3,0,0,0-1.3,1.3v1a1.3,1.3,0,0,0,2.59,0v-1A1.3,1.3,0,0,0,136.86,292.82Z"/><path class="cls-1" d="M137.16,287a1.24,1.24,0,0,0-.33,0h-.31a1.66,1.66,0,1,0,1.63,2v-.7A1.3,1.3,0,0,0,137.16,287Z"/><path class="cls-1" d="M136.86,305.3a1.3,1.3,0,0,0-1.3,1.3v1a1.3,1.3,0,0,0,2.59,0v-1A1.3,1.3,0,0,0,136.86,305.3Z"/><path class="cls-1" d="M136.86,299.06a1.3,1.3,0,0,0-1.3,1.3v1a1.3,1.3,0,0,0,2.59,0v-1A1.3,1.3,0,0,0,136.86,299.06Z"/><path class="cls-1" d="M244.45,244l-.85.61a1.29,1.29,0,0,0,.76,2.34,1.25,1.25,0,0,0,.76-.24l.84-.61a1.29,1.29,0,0,0-1.51-2.1Z"/><path class="cls-1" d="M234.34,251.29l-.85.61a1.3,1.3,0,0,0,.76,2.35A1.26,1.26,0,0,0,235,254l.84-.61a1.29,1.29,0,0,0-1.51-2.1Z"/><path class="cls-1" d="M259.61,233l-.84.61a1.3,1.3,0,0,0,.76,2.35,1.28,1.28,0,0,0,.76-.25l.84-.61a1.3,1.3,0,1,0-1.52-2.1Z"/><path class="cls-1" d="M249.5,240.32l-.84.61a1.3,1.3,0,0,0,.76,2.35,1.28,1.28,0,0,0,.76-.25l.84-.61a1.29,1.29,0,0,0,.29-1.8A1.31,1.31,0,0,0,249.5,240.32Z"/><path class="cls-1" d="M254.56,236.67l-.85.61a1.29,1.29,0,0,0,.76,2.34,1.32,1.32,0,0,0,.76-.24l.84-.61a1.3,1.3,0,0,0,.29-1.81A1.28,1.28,0,0,0,254.56,236.67Z"/><path class="cls-1" d="M229.28,255l-.84.61a1.29,1.29,0,0,0,.76,2.34,1.34,1.34,0,0,0,.76-.24l.84-.61a1.3,1.3,0,0,0-1.52-2.1Z"/><path class="cls-1" d="M209.06,269.58l-.84.6a1.3,1.3,0,0,0,.76,2.35,1.28,1.28,0,0,0,.76-.25l.84-.61a1.28,1.28,0,0,0,.29-1.8A1.3,1.3,0,0,0,209.06,269.58Z"/><path class="cls-1" d="M214.12,265.92l-.85.61a1.29,1.29,0,0,0,.76,2.34,1.32,1.32,0,0,0,.76-.24l.84-.61a1.29,1.29,0,0,0-1.51-2.1Z"/><path class="cls-1" d="M219.17,262.26l-.84.61a1.3,1.3,0,0,0,.76,2.35,1.28,1.28,0,0,0,.76-.25l.84-.61a1.3,1.3,0,0,0-1.52-2.1Z"/><path class="cls-1" d="M224.23,258.61l-.85.61a1.28,1.28,0,0,0-.29,1.8,1.31,1.31,0,0,0,1,.54,1.26,1.26,0,0,0,.76-.25l.84-.6a1.29,1.29,0,0,0-1.51-2.1Z"/><path class="cls-1" d="M239.39,247.64l-.84.61a1.29,1.29,0,0,0,.76,2.34,1.34,1.34,0,0,0,.76-.24l.84-.61a1.3,1.3,0,0,0-1.52-2.1Z"/><path class="cls-1" d="M300.05,203.76l-.84.61a1.3,1.3,0,0,0,.76,2.35,1.28,1.28,0,0,0,.76-.25l.84-.61a1.3,1.3,0,1,0-1.52-2.1Z"/><path class="cls-1" d="M295,207.42l-.84.61a1.3,1.3,0,0,0-.29,1.81,1.27,1.27,0,0,0,1.05.53,1.31,1.31,0,0,0,.75-.24l.85-.61a1.3,1.3,0,1,0-1.52-2.1Z"/><path class="cls-1" d="M310.16,196.45l-.84.61a1.29,1.29,0,0,0,.76,2.34,1.34,1.34,0,0,0,.76-.24l.84-.61a1.3,1.3,0,1,0-1.52-2.1Z"/><path class="cls-1" d="M264.67,229.36l-.85.61a1.29,1.29,0,0,0-.29,1.8,1.31,1.31,0,0,0,1.05.54,1.26,1.26,0,0,0,.76-.25l.85-.61a1.29,1.29,0,1,0-1.52-2.09Z"/><path class="cls-1" d="M305.11,200.11l-.84.6a1.3,1.3,0,0,0-.29,1.81,1.28,1.28,0,0,0,1,.54,1.25,1.25,0,0,0,.75-.25l.85-.61a1.29,1.29,0,1,0-1.52-2.09Z"/><path class="cls-1" d="M289.94,211.07l-.84.61a1.3,1.3,0,0,0,.76,2.35,1.28,1.28,0,0,0,.76-.25l.84-.61a1.3,1.3,0,1,0-1.52-2.1Z"/><path class="cls-1" d="M274.78,222l-.85.61a1.3,1.3,0,0,0,.76,2.35,1.26,1.26,0,0,0,.76-.25l.85-.61a1.3,1.3,0,1,0-1.52-2.1Z"/><path class="cls-1" d="M269.72,225.7l-.84.61a1.29,1.29,0,0,0,.76,2.34,1.34,1.34,0,0,0,.76-.24l.84-.61a1.3,1.3,0,1,0-1.52-2.1Z"/><path class="cls-1" d="M279.83,218.39,279,219a1.29,1.29,0,1,0,1.52,2.09l.84-.6a1.3,1.3,0,1,0-1.52-2.1Z"/><path class="cls-1" d="M284.89,214.73l-.84.61a1.29,1.29,0,0,0,1.51,2.1l.85-.61a1.3,1.3,0,1,0-1.52-2.1Z"/><path class="cls-1" d="M356.22,196.79h-1a1.3,1.3,0,1,0,0,2.59h1a1.3,1.3,0,0,0,0-2.59Z"/><path class="cls-1" d="M362.46,196.79h-1a1.3,1.3,0,1,0,0,2.59h1a1.3,1.3,0,0,0,0-2.59Z"/><path class="cls-1" d="M350,196.79h-1a1.3,1.3,0,1,0,0,2.59h1a1.3,1.3,0,0,0,0-2.59Z"/><path class="cls-1" d="M343.74,196.79h-1a1.3,1.3,0,1,0,0,2.59h1a1.3,1.3,0,1,0,0-2.59Z"/><path class="cls-1" d="M339.93,199.22a1.3,1.3,0,0,0-1.29,1.3v1a1.3,1.3,0,0,0,2.59,0v-1A1.3,1.3,0,0,0,339.93,199.22Z"/><path class="cls-1" d="M378,187.33a1.3,1.3,0,0,0-1.3,1.29v1a1.3,1.3,0,1,0,2.59,0v-1A1.29,1.29,0,0,0,378,187.33Z"/><path class="cls-1" d="M368.7,196.79h-1a1.3,1.3,0,1,0,0,2.59h1a1.3,1.3,0,0,0,0-2.59Z"/><path class="cls-1" d="M378,193.57a1.3,1.3,0,0,0-1.3,1.29v1a1.3,1.3,0,1,0,2.59,0v-1A1.29,1.29,0,0,0,378,193.57Z"/><path class="cls-1" d="M374.93,196.79h-1a1.3,1.3,0,0,0,0,2.59h1a1.3,1.3,0,1,0,0-2.59Z"/><path class="cls-1" d="M322.76,232h-1a1.3,1.3,0,1,0,0,2.59h1a1.3,1.3,0,0,0,0-2.59Z"/><path class="cls-1" d="M335.23,232h-1a1.3,1.3,0,0,0,0,2.59h1a1.3,1.3,0,1,0,0-2.59Z"/><path class="cls-1" d="M329,232h-1a1.3,1.3,0,0,0,0,2.59h1a1.3,1.3,0,1,0,0-2.59Z"/><path class="cls-1" d="M378,181.09a1.3,1.3,0,0,0-1.3,1.29v1a1.3,1.3,0,1,0,2.59,0v-1A1.29,1.29,0,0,0,378,181.09Z"/><path class="cls-1" d="M339.93,230.42a1.29,1.29,0,0,0-1.29,1.29v1a1.3,1.3,0,1,0,2.59,0v-1A1.3,1.3,0,0,0,339.93,230.42Z"/><path class="cls-1" d="M339.93,211.7a1.3,1.3,0,0,0-1.29,1.3v1a1.3,1.3,0,0,0,2.59,0v-1A1.3,1.3,0,0,0,339.93,211.7Z"/><path class="cls-1" d="M339.93,224.18a1.29,1.29,0,0,0-1.29,1.29v1a1.3,1.3,0,1,0,2.59,0v-1A1.3,1.3,0,0,0,339.93,224.18Z"/><path class="cls-1" d="M339.93,205.46a1.3,1.3,0,0,0-1.29,1.3v1a1.3,1.3,0,0,0,2.59,0v-1A1.3,1.3,0,0,0,339.93,205.46Z"/><path class="cls-1" d="M339.93,217.94a1.3,1.3,0,0,0-1.29,1.3v1a1.3,1.3,0,0,0,2.59,0v-1A1.3,1.3,0,0,0,339.93,217.94Z"/><path class="cls-1" d="M428.48,138h-1a1.3,1.3,0,0,0,0,2.59h1a1.3,1.3,0,1,0,0-2.59Z"/><path class="cls-1" d="M419.13,147.4a1.3,1.3,0,0,0-1.3,1.3v1a1.3,1.3,0,0,0,2.59,0v-1A1.3,1.3,0,0,0,419.13,147.4Z"/><path class="cls-1" d="M378,174.85a1.3,1.3,0,0,0-1.3,1.3v1a1.3,1.3,0,0,0,2.59,0v-1A1.3,1.3,0,0,0,378,174.85Z"/><path class="cls-1" d="M419.13,153.64a1.3,1.3,0,0,0-1.3,1.3v1a1.3,1.3,0,0,0,2.59,0v-1A1.3,1.3,0,0,0,419.13,153.64Z"/><path class="cls-1" d="M422.24,138h-1a1.3,1.3,0,0,0,0,2.59h1a1.3,1.3,0,1,0,0-2.59Z"/><path class="cls-1" d="M441,138h-1a1.3,1.3,0,1,0,0,2.59h1a1.3,1.3,0,0,0,0-2.59Z"/><path class="cls-1" d="M447.2,138h-1a1.3,1.3,0,1,0,0,2.59h1a1.3,1.3,0,0,0,0-2.59Z"/><path class="cls-1" d="M418.63,159.39h-1a1.3,1.3,0,0,0,0,2.59h1a1.3,1.3,0,1,0,0-2.59Z"/><path class="cls-1" d="M434.72,138h-1a1.3,1.3,0,1,0,0,2.59h1a1.3,1.3,0,0,0,0-2.59Z"/><path class="cls-1" d="M419.13,141.16a1.3,1.3,0,0,0-1.3,1.3v1a1.3,1.3,0,0,0,2.59,0v-1A1.3,1.3,0,0,0,419.13,141.16Z"/><path class="cls-1" d="M381.2,159.39h-1a1.3,1.3,0,1,0,0,2.59h1a1.3,1.3,0,0,0,0-2.59Z"/><path class="cls-1" d="M378,162.37a1.3,1.3,0,0,0-1.3,1.3v1a1.3,1.3,0,0,0,2.59,0v-1A1.3,1.3,0,0,0,378,162.37Z"/><path class="cls-1" d="M387.44,159.39h-1a1.3,1.3,0,1,0,0,2.59h1a1.3,1.3,0,0,0,0-2.59Z"/><path class="cls-1" d="M378,168.61a1.3,1.3,0,0,0-1.3,1.3v1a1.3,1.3,0,0,0,2.59,0v-1A1.3,1.3,0,0,0,378,168.61Z"/><path class="cls-1" d="M406.15,159.39h-1a1.3,1.3,0,0,0,0,2.59h1a1.3,1.3,0,1,0,0-2.59Z"/><path class="cls-1" d="M412.39,159.39h-1a1.3,1.3,0,0,0,0,2.59h1a1.3,1.3,0,1,0,0-2.59Z"/><path class="cls-1" d="M399.92,159.39h-1a1.3,1.3,0,1,0,0,2.59h1a1.3,1.3,0,0,0,0-2.59Z"/><path class="cls-1" d="M393.68,159.39h-1a1.3,1.3,0,1,0,0,2.59h1a1.3,1.3,0,0,0,0-2.59Z"/><path class="cls-1" d="M339.64,360.33h-1a1.3,1.3,0,1,0,0,2.59h1a1.3,1.3,0,0,0,0-2.59Z"/><path class="cls-1" d="M352.12,360.33h-1a1.3,1.3,0,1,0,0,2.59h1a1.3,1.3,0,0,0,0-2.59Z"/><path class="cls-1" d="M345.88,360.33h-1a1.3,1.3,0,1,0,0,2.59h1a1.3,1.3,0,0,0,0-2.59Z"/><path class="cls-1" d="M333.4,360.33h-1a1.3,1.3,0,1,0,0,2.59h1a1.3,1.3,0,0,0,0-2.59Z"/><path class="cls-1" d="M314.68,360.33h-1a1.3,1.3,0,0,0,0,2.59h1a1.3,1.3,0,1,0,0-2.59Z"/><path class="cls-1" d="M320.92,360.33h-1a1.3,1.3,0,0,0,0,2.59h1a1.3,1.3,0,1,0,0-2.59Z"/><path class="cls-1" d="M327.16,360.33h-1a1.3,1.3,0,0,0,0,2.59h1a1.3,1.3,0,1,0,0-2.59Z"/><path class="cls-1" d="M395.79,360.33h-1a1.3,1.3,0,1,0,0,2.59h1a1.3,1.3,0,0,0,0-2.59Z"/><path class="cls-1" d="M389.55,360.33h-1a1.3,1.3,0,1,0,0,2.59h1a1.3,1.3,0,0,0,0-2.59Z"/><path class="cls-1" d="M402,360.33h-1a1.3,1.3,0,1,0,0,2.59h1a1.3,1.3,0,0,0,0-2.59Z"/><path class="cls-1" d="M383.31,360.33h-1a1.3,1.3,0,0,0,0,2.59h1a1.3,1.3,0,1,0,0-2.59Z"/><path class="cls-1" d="M370.83,360.33h-1a1.3,1.3,0,0,0,0,2.59h1a1.3,1.3,0,1,0,0-2.59Z"/><path class="cls-1" d="M364.59,360.33h-1a1.3,1.3,0,0,0,0,2.59h1a1.3,1.3,0,1,0,0-2.59Z"/><path class="cls-1" d="M358.35,360.33h-1a1.3,1.3,0,0,0,0,2.59h1a1.3,1.3,0,1,0,0-2.59Z"/><path class="cls-1" d="M377.07,360.33h-1a1.3,1.3,0,0,0,0,2.59h1a1.3,1.3,0,1,0,0-2.59Z"/><path class="cls-1" d="M244.75,287.66H243.7a1.3,1.3,0,1,0,0,2.59h1a1.3,1.3,0,0,0,0-2.59Z"/><path class="cls-1" d="M238.5,287.66h-1a1.3,1.3,0,0,0,0,2.59h1a1.3,1.3,0,1,0,0-2.59Z"/><path class="cls-1" d="M232.28,287.63c-.6,0-.81,0-.88,0a1.3,1.3,0,0,0-.54,2.53,5.24,5.24,0,0,0,1.38.08h0a1.3,1.3,0,0,0,0-2.59Zm-.7,0Zm0,0Z"/><path class="cls-1" d="M263.49,287.62h-1.05a1.3,1.3,0,0,0,0,2.59h1a1.3,1.3,0,0,0,0-2.59Z"/><path class="cls-1" d="M257.24,287.64h-1l0,1.3,0,1.29h1a1.3,1.3,0,1,0,0-2.59Z"/><path class="cls-1" d="M251,287.65H250a1.3,1.3,0,0,0,0,2.6H251a1.3,1.3,0,0,0,0-2.59Z"/><path class="cls-1" d="M489.32,126.1h-1a1.3,1.3,0,1,0,0,2.59h1a1.3,1.3,0,1,0,0-2.59Z"/><path class="cls-1" d="M495.58,126.1h-1a1.3,1.3,0,1,0,0,2.59h1a1.3,1.3,0,0,0,0-2.59Z"/><path class="cls-1" d="M508.09,126.1h-1a1.3,1.3,0,1,0,0,2.59h1a1.3,1.3,0,0,0,0-2.59Z"/><path class="cls-1" d="M501.83,126.1h-1a1.3,1.3,0,0,0,0,2.59h1a1.3,1.3,0,1,0,0-2.59Z"/><path class="cls-1" d="M470.53,126.1h-1.06a1.3,1.3,0,1,0,0,2.59h1.06a1.3,1.3,0,0,0,0-2.59Z"/><path class="cls-1" d="M483.06,126.1h-1a1.3,1.3,0,0,0,0,2.59h1a1.3,1.3,0,1,0,0-2.59Z"/><path class="cls-1" d="M476.8,126.1h-1a1.3,1.3,0,1,0,0,2.59h1a1.3,1.3,0,1,0,0-2.59Z"/><path class="cls-1" d="M526.86,126.1h-1a1.3,1.3,0,1,0,0,2.59h1a1.3,1.3,0,0,0,0-2.59Z"/><path class="cls-1" d="M545.63,126.1h-1a1.3,1.3,0,0,0,0,2.59h1a1.3,1.3,0,1,0,0-2.59Z"/><path class="cls-1" d="M549.57,127.39a1.29,1.29,0,0,0,.43,1v-1.92A1.31,1.31,0,0,0,549.57,127.39Z"/><path class="cls-1" d="M514.35,126.1h-1a1.3,1.3,0,1,0,0,2.59h1a1.3,1.3,0,0,0,0-2.59Z"/><path class="cls-1" d="M539.37,126.1h-1a1.3,1.3,0,0,0,0,2.59h1a1.3,1.3,0,1,0,0-2.59Z"/><path class="cls-1" d="M520.6,126.1h-1a1.3,1.3,0,0,0,0,2.59h1a1.3,1.3,0,1,0,0-2.59Z"/><path class="cls-1" d="M533.11,126.1h-1a1.3,1.3,0,0,0,0,2.59h1a1.3,1.3,0,1,0,0-2.59Z"/><path class="cls-1" d="M515.09,325.1a1.3,1.3,0,0,0-1.68.73,19.27,19.27,0,0,1-16.09,12.23,1.3,1.3,0,0,0,.12,2.59h.14a21.9,21.9,0,0,0,18.25-13.87A1.29,1.29,0,0,0,515.09,325.1Z"/><path class="cls-4" d="M454.59,267.18h-1a1.3,1.3,0,0,0,0,2.59h1a1.3,1.3,0,1,0,0-2.59Z"/><path class="cls-4" d="M442.11,267.18h-1a1.3,1.3,0,0,0,0,2.59h1a1.3,1.3,0,1,0,0-2.59Z"/><path class="cls-4" d="M460.83,267.18h-1a1.3,1.3,0,1,0,0,2.59h1a1.3,1.3,0,0,0,0-2.59Z"/><path class="cls-4" d="M448.35,267.18h-1a1.3,1.3,0,0,0,0,2.59h1a1.3,1.3,0,1,0,0-2.59Z"/><path class="cls-4" d="M479.55,267.18h-1a1.3,1.3,0,1,0,0,2.59h1a1.3,1.3,0,0,0,0-2.59Z"/><path class="cls-4" d="M473.31,267.18h-1a1.3,1.3,0,1,0,0,2.59h1a1.3,1.3,0,0,0,0-2.59Z"/><path class="cls-4" d="M467.07,267.18h-1a1.3,1.3,0,1,0,0,2.59h1a1.3,1.3,0,0,0,0-2.59Z"/><path class="cls-4" d="M489.92,186.72a1.3,1.3,0,0,0-1.29,1.3v1a1.3,1.3,0,0,0,2.59,0v-1A1.3,1.3,0,0,0,489.92,186.72Z"/><path class="cls-4" d="M489.92,180.49a1.29,1.29,0,0,0-1.29,1.29v1a1.3,1.3,0,0,0,2.59,0v-1A1.29,1.29,0,0,0,489.92,180.49Z"/><path class="cls-4" d="M489.92,174.25a1.29,1.29,0,0,0-1.29,1.29v1a1.3,1.3,0,1,0,2.59,0v-1A1.3,1.3,0,0,0,489.92,174.25Z"/><path class="cls-4" d="M489.92,168a1.29,1.29,0,0,0-1.29,1.29v1a1.3,1.3,0,1,0,2.59,0v-1A1.3,1.3,0,0,0,489.92,168Z"/></svg>