<?xml version="1.0" encoding="utf-8"?>
<!-- Generator: Adobe Illustrator 16.0.0, SVG Export Plug-In . SVG Version: 6.00 Build 0)  -->
<!DOCTYPE svg PUBLIC "-//W3C//DTD SVG 1.1//EN" "http://www.w3.org/Graphics/SVG/1.1/DTD/svg11.dtd">
<svg version="1.1"
	 id="svg3969" xmlns:dc="http://purl.org/dc/elements/1.1/" xmlns:cc="http://creativecommons.org/ns#" xmlns:rdf="http://www.w3.org/1999/02/22-rdf-syntax-ns#" xmlns:svg="http://www.w3.org/2000/svg" xmlns:sodipodi="http://sodipodi.sourceforge.net/DTD/sodipodi-0.dtd" xmlns:inkscape="http://www.inkscape.org/namespaces/inkscape" sodipodi:version="0.32" inkscape:version="0.46" sodipodi:docname="IIT_Bombay_Logo.svg" inkscape:output_extension="org.inkscape.output.svg.inkscape"
	 xmlns="http://www.w3.org/2000/svg" xmlns:xlink="http://www.w3.org/1999/xlink" x="0px" y="0px" width="300px" height="294px"
	 viewBox="0 0 300 294" enable-background="new 0 0 300 294" xml:space="preserve">
<defs>
	
	
		<inkscape:perspective  id="perspective4256" inkscape:vp_y="0 : 1000 : 0" sodipodi:type="inkscape:persp3d" inkscape:vp_x="0 : 1056.25 : 1" inkscape:vp_z="2160 : 1056.25 : 1" inkscape:persp3d-origin="1080 : 704.16667 : 1">
		</inkscape:perspective>
</defs>
<sodipodi:namedview  id="base" guidetolerance="10.0" gridtolerance="10.0" objecttolerance="10.0" borderopacity="1.0" bordercolor="#666666" pagecolor="#ffffff" showgrid="false" inkscape:zoom="0.21869822" inkscape:cx="1080" inkscape:cy="1056.25" inkscape:window-height="669" inkscape:window-width="640" inkscape:pageshadow="2" inkscape:pageopacity="0.0" inkscape:window-x="23" inkscape:window-y="51" inkscape:current-layer="svg3969">
	</sodipodi:namedview>
<g id="_x23_ffffffff">
</g>
<g id="_x23_1f1a17ff">
	<path id="path3973" d="M135.196,4.788c1.578-0.047,3.147-0.251,4.719-0.404c1.052,0.021,2.088-0.193,3.141-0.184
		c4.455-0.088,8.913-0.08,13.368,0.012c3.779,0.264,7.567,0.528,11.326,1.059c1.587,6.942,3.32,13.852,4.967,20.783
		c6.504,1.189,12.871,3.024,19.139,5.111c2.679-2.628,5.301-5.313,8.028-7.893c2.382-2.363,4.772-4.72,7.151-7.087
		c0.146-0.16,0.333-0.311,0.557-0.184c9.973,4.292,19.611,9.465,28.318,15.98c-0.287,1.478-0.822,2.893-1.198,4.348
		c-1.278,4.396-2.562,8.79-3.83,13.186c-0.22,0.943-0.63,1.842-0.778,2.799c1.277,1.154,2.674,2.177,3.933,3.361
		c3.569,3.134,6.938,6.505,10.094,10.056c0.164,0.24,0.461,0.048,0.675-0.007c4.008-1.561,8.034-3.071,12.045-4.632
		c2.354-0.875,4.674-1.845,7.049-2.663c2.026,2.622,4.07,5.236,5.972,7.953c4.354,6.222,8.294,12.741,11.731,19.514
		c-2.465,2.682-5.08,5.217-7.615,7.832c-2.074,2.208-4.223,4.345-6.35,6.505c-0.252,0.261-0.531,0.504-0.73,0.811
		c0.05,0.658,0.441,1.229,0.65,1.844c1.155,3.045,2.521,6.014,3.457,9.139c0.598,2.003,1.23,3.999,1.705,6.035
		c6.844,0.889,13.688,1.802,20.52,2.789c0.24,0.012,0.504,0.101,0.548,0.38c1.55,6.983,2.391,14.104,2.836,21.234
		c0.133,1.509,0.188,3.021,0.196,4.539c0.224,2.027,0.129,4.076,0.172,6.113c-6.779,2.203-13.516,4.557-20.309,6.715
		c-0.572,6.066-1.345,12.13-2.654,18.09c5.224,3.696,10.545,7.266,15.533,11.281c0.58,0.469,1.193,0.908,1.715,1.445
		c0.063,0.555-0.139,1.088-0.276,1.615c-2.783,10.27-7.218,20.014-12.289,29.338c-6.091-1.394-12.203-2.688-18.304-4.041
		c-0.787-0.131-1.561-0.431-2.364-0.381c-0.892,1.272-1.647,2.641-2.526,3.922c-2.855,4.354-6,8.508-9.16,12.644
		c-2.703-2.067-5.351-4.203-8.035-6.292c-2.575-2.063-5.219-4.038-7.73-6.18c-4.133-3.438-8.256-6.891-12.379-10.338
		c0.923-1.277,2.006-2.428,2.98-3.664c1.03-1.082,1.879-2.314,2.762-3.517c6.67-9.231,11.549-19.739,14.367-30.771
		c0.168-0.6,0.328-1.203,0.371-1.824c0.012,0.09,0.024,0.182,0.043,0.277c0.877-4.064,1.639-8.16,1.996-12.305
		c0.448-4.259,0.385-8.552,0.305-12.828c-0.094-0.923-0.168-1.849-0.168-2.778c-0.377-3.686-0.803-7.376-1.605-11
		c-2.947-14.547-9.628-28.297-19.123-39.694c-8.383-10.101-18.967-18.372-30.809-24.042c-14.152-6.8-30.105-9.788-45.752-8.606
		c-11.373,0.823-22.599,3.833-32.854,8.833c-11.58,5.621-21.929,13.742-30.184,23.61c-9.316,11.137-15.941,24.519-19.04,38.71
		c-0.856,3.806-1.429,7.67-1.762,11.554c-0.375,3.84-0.344,7.709-0.266,11.567c0.453,8.708,2.344,17.318,5.285,25.523
		c4.162,11.582,10.375,22.443,18.375,31.804c0.261,0.207,0.149,0.537-0.12,0.676c-9.158,7.405-18.268,14.872-27.438,22.265
		c-1.999-2.433-3.912-4.927-5.901-7.361c-2.332-2.994-4.533-6.094-6.509-9.332c-0.16-0.219-0.3-0.604-0.637-0.459
		c-7.122,1.283-14.252,2.527-21.37,3.836c-5.558-9.945-9.759-20.613-12.783-31.59c6.116-3.782,12.274-7.502,18.401-11.266
		c0.167-0.425-0.122-0.896-0.177-1.33c-1.299-5.951-2.314-11.988-2.566-18.076c-6.295-1.836-12.587-3.688-18.88-5.529
		c-0.643-0.197-1.283-0.398-1.941-0.532c-0.061-2.435-0.045-4.868-0.031-7.302c0.014-1.622,0.005-3.247,0.188-4.859
		c-0.03-1.222,0.163-2.427,0.247-3.642c0.531-5.755,1.503-11.474,2.876-17.09c5.418-0.703,10.837-1.401,16.262-2.043
		c1.851-0.281,3.721-0.424,5.563-0.764c0.052-0.738,0.335-1.423,0.526-2.13c1.467-5.184,3.292-10.268,5.433-15.214
		c0.088-0.2,0.069-0.441-0.113-0.578c-1.535-1.586-3.094-3.153-4.643-4.726c-2.344-2.401-4.654-4.833-7.026-7.208
		c-1.069-1.123-2.229-2.172-3.205-3.376c3.351-7.038,7.474-13.703,12.179-19.915c2.238-2.986,4.677-5.811,7.115-8.632
		c4.749,2.184,9.448,4.476,14.186,6.681c1.623,0.823,3.307,1.517,4.913,2.373c4.422-4.413,8.979-8.694,13.788-12.684
		c0.174-0.154,0.37-0.295,0.5-0.495c-1.069-3.271-2.168-6.533-3.247-9.8c-1.128-3.509-2.365-6.983-3.434-10.509
		c9.433-6.262,19.214-12.116,29.731-16.375c0.257-0.068,0.599-0.151,0.778,0.115c4.266,4.769,8.503,9.564,12.774,14.33
		c0.403,0.465,0.79,0.95,1.248,1.363c0.212,0.021,0.415-0.048,0.613-0.122c6.149-2.144,12.54-3.5,18.946-4.613
		c0.979-3.792,2.078-7.554,3.099-11.335C133.401,11.292,134.229,8.019,135.196,4.788 M141.835,9.647
		c-0.816,0.127-1.644,0.106-2.465,0.149c-1.955,6.925-3.811,13.882-5.772,20.804c-1.147,0.33-2.356,0.405-3.529,0.616
		c-3.679,0.664-7.361,1.335-10.974,2.297c-3.521,0.879-6.974,2.014-10.373,3.281c-0.233,0.064-0.542,0.215-0.693-0.063
		c-4.549-5.123-9.122-10.224-13.665-15.352c-0.168-0.203-0.446-0.351-0.686-0.172c-7.658,3.415-14.941,7.618-21.964,12.188
		c0.17,0.873,0.531,1.689,0.783,2.54c1.931,5.781,3.814,11.58,5.762,17.356c-1.453,1.3-3.024,2.467-4.479,3.769
		c-2.552,2.132-5,4.382-7.429,6.653c-2.561,2.394-4.984,4.936-7.462,7.418c-6.305-2.967-12.595-5.969-18.902-8.932
		c-5.349,6.349-10.099,13.217-13.976,20.564c-0.107,0.215-0.211,0.523,0.031,0.691c0.912,0.942,1.846,1.864,2.749,2.816
		c2.472,2.618,5.059,5.125,7.529,7.745c1.452,1.549,3.021,2.993,4.433,4.576c-0.149,0.688-0.564,1.289-0.813,1.945
		c-3.188,6.984-5.604,14.302-7.399,21.764c-2.757,0.42-5.533,0.707-8.299,1.071c-4.446,0.597-8.903,1.095-13.347,1.693
		c-1.259,5.851-1.965,11.807-2.287,17.774c-0.052,1.738-0.001,3.479-0.147,5.212c0.009,0.341-0.067,0.748,0.196,1.021
		c6.884,1.953,13.734,4.024,20.609,6.004c0.101,6.725,0.939,13.43,2.382,20c0.359,2.021,1.005,3.984,1.323,6.013
		c-6.073,3.7-12.158,7.384-18.202,11.136c0.099,0.715,0.356,1.395,0.556,2.086c2.307,7.246,5.186,14.314,8.693,21.064
		c1.253-0.141,2.486-0.428,3.729-0.639c4.059-0.682,8.101-1.463,12.158-2.162c1.893-0.293,3.761-0.756,5.667-0.954
		c3.139,5.491,6.759,10.706,10.87,15.514c4.221-3.453,8.465-6.875,12.691-10.323c2.236-1.836,4.526-3.608,6.719-5.5
		c-5.771-7.396-10.478-15.608-14.111-24.252c-3.728-8.904-6.314-18.324-7.304-27.936c-0.448-3.906-0.434-7.846-0.359-11.774
		c-0.003-0.929,0.033-1.856,0.148-2.776c0-1.733,0.314-3.438,0.43-5.162c0.42-3.251,0.953-6.491,1.674-9.689
		c3.177-14.129,9.622-27.5,18.667-38.806c6.399-8.056,14.117-15.05,22.714-20.7c11.595-7.594,24.852-12.67,38.576-14.647
		c2.113-0.335,4.24-0.582,6.375-0.707c1.335-0.234,2.7-0.075,4.04-0.276c2.545-0.031,5.097-0.101,7.64,0.043
		c13.553,0.55,26.986,4.056,39.098,10.181c12.041,6.073,22.789,14.705,31.314,25.151c8.877,10.811,15.35,23.583,18.805,37.139
		c0.311,1.349,0.75,2.682,0.856,4.071c0.017-0.097,0.032-0.192,0.054-0.286c0.711,3.786,1.389,7.588,1.674,11.432
		c0.197,1.088,0.068,2.203,0.25,3.295c0.127,2.658,0.092,5.322,0.074,7.984c-0.367,13.326-3.68,26.547-9.42,38.574
		c-3.082,6.406-6.814,12.521-11.281,18.057c1.514,1.295,3.063,2.549,4.582,3.842c2.441,2.007,4.817,4.096,7.324,6.021
		c2.559,2.024,5.143,4.017,7.682,6.063c1.855-2.438,3.627-4.937,5.324-7.484c1.723-2.503,3.236-5.137,4.815-7.727
		c5.239,1.229,10.515,2.311,15.765,3.494c1.568,0.271,3.098,0.774,4.68,0.95c3.326-6.508,6.363-13.19,8.571-20.17
		c0.233-0.786,0.563-1.55,0.69-2.362c0.057-0.431-0.48-0.568-0.727-0.822c-5.369-4.133-11.029-7.866-16.519-11.836
		c2.071-7.848,2.924-15.939,3.687-23.997c-0.05-0.368,0.371-0.439,0.629-0.536c6.396-2.105,12.77-4.294,19.18-6.357
		c0.051-4.2-0.287-8.383-0.648-12.56c-0.354-3.684-0.951-7.34-1.531-10.993c-3.478-0.582-6.983-0.979-10.475-1.482
		c-3.48-0.395-6.941-0.948-10.424-1.346c-0.775-3.469-1.721-6.899-2.809-10.283c-0.453-1.455-1.078-2.845-1.621-4.266
		c-1.064-2.637-2.09-5.29-3.168-7.922c-0.094-0.264-0.277-0.621-0.004-0.84c1.53-1.596,3.125-3.13,4.621-4.759
		c2.367-2.434,4.784-4.821,7.114-7.293c0.802-0.877,1.718-1.66,2.47-2.58c-0.561-1.413-1.468-2.668-2.177-4.012
		c-3.231-5.574-6.771-10.984-10.726-16.073c-2.702,0.931-5.342,2.035-8.016,3.035c-3.781,1.446-7.55,2.92-11.336,4.347
		c-3.545-4.116-7.254-8.102-11.299-11.734c-2.412-2.207-4.98-4.231-7.549-6.251c1.008-3.29,1.917-6.609,2.91-9.903
		c0.93-3.427,2.054-6.804,2.916-10.249c-6.508-4.574-13.543-8.357-20.773-11.656c-0.232-0.118-0.541-0.132-0.705,0.099
		c-4.973,4.811-9.826,9.747-14.803,14.556c-0.208,0.222-0.523,0.08-0.766,0.021c-7.906-2.837-16.033-5.125-24.342-6.41
		c-1.222-5.012-2.414-10.031-3.627-15.045c-0.396-1.861-0.973-3.684-1.298-5.563c-3.243-0.253-6.481-0.597-9.741-0.587
		c-1.729-0.182-3.472-0.113-5.208-0.123c-1.042,0.022-2.09-0.05-3.125,0.095C144.156,9.615,142.991,9.531,141.835,9.647z"/>
	<path id="path3975" d="M139.587,224.146c1.67-0.183,3.354-0.129,5.031-0.162c3.995-0.045,7.991-0.021,11.983,0.061
		c1.246,0.184,2.506,0.08,3.756,0.191c0.852,0.145,1.721,0.054,2.574,0.182c25.952,1.742,51.588,8.252,75.262,19.037
		c-1.311,2.958-2.75,5.861-4.023,8.835c3.26,1.364,6.402,2.983,9.508,4.668c1.787,0.88,3.44,1.999,5.148,3.021
		c0.504,0.318,1.042,0.594,1.512,0.969c-0.078,0.592-0.454,1.083-0.715,1.604c-5.005,9.335-9.982,18.683-14.998,28.013
		c-2.855-1.282-5.678-2.65-8.568-3.853c-7.256-3.096-14.699-5.771-22.307-7.86c-1.814-0.47-3.631-0.93-5.443-1.404
		c1.139-4.547,2.285-9.094,3.385-13.649c-7.637-2.004-15.407-3.481-23.229-4.571c-4.662-0.643-9.344-1.166-14.039-1.441
		c-0.865-0.164-1.752-0.047-2.615-0.209c-1.191-0.117-2.397-0.031-3.586-0.197c-1.525-0.07-3.053-0.039-4.576-0.086
		c-2.369-0.18-4.747-0.063-7.119-0.095c-0.931-0.038-1.851,0.138-2.78,0.112c-1.505,0.039-3.016-0.035-4.514,0.135
		c-14.425,0.597-28.79,2.695-42.847,6.019c1.088,4.62,2.276,9.22,3.413,13.829c-3.226,0.903-6.493,1.655-9.691,2.664
		c-8.014,2.461-15.844,5.51-23.451,9.027c-1.068,0.46-2.085,1.037-3.183,1.43c-5.306-9.838-10.514-19.727-15.838-29.553
		c1.83-1.096,3.625-2.252,5.47-3.318c3.535-1.879,7.043-3.844,10.77-5.318c-0.293-1.063-0.896-2.011-1.333-3.018
		c-0.925-1.969-1.861-3.934-2.787-5.9c14.009-6.42,28.728-11.274,43.78-14.561c7.828-1.677,15.747-2.961,23.715-3.73
		c2.621-0.319,5.258-0.438,7.887-0.674C136.623,224.285,138.099,224.125,139.587,224.146 M140.101,229.259
		c-1.266,0.173-2.548,0.063-3.817,0.194c-23.908,1.408-47.577,7.009-69.609,16.418c2.859,6.098,5.76,12.176,8.641,18.263
		c16.715-5.547,34.035-9.304,51.564-10.989c1.635-0.209,3.287-0.239,4.918-0.473c0.868-0.045,1.741-0.045,2.604-0.178
		c1.561,0.004,3.104-0.237,4.667-0.199c1.047,0.047,2.073-0.203,3.12-0.164c4.922-0.057,9.846-0.064,14.77,0.023
		c0.916,0.117,1.838,0.154,2.764,0.152c19.852,0.961,39.616,4.584,58.445,11.006c1.482,0.476,2.908,1.131,4.402,1.561
		c0.555-0.895,0.908-1.9,1.373-2.844c1.899-4.094,3.799-8.189,5.688-12.286c0.532-1.236,1.22-2.409,1.636-3.692
		c-22.617-9.695-46.972-15.322-71.522-16.66c-1.425,0.025-2.839-0.188-4.263-0.176c-0.959-0.021-1.92-0.023-2.879-0.043
		c-2.25-0.199-4.514-0.082-6.771-0.102C143.927,229.266,142.009,229.148,140.101,229.259 M63.615,257.924
		c3.668,7.342,7.399,14.654,11.031,22.016c0.632-0.228,1.257-0.473,1.875-0.731c-3.349-7.517-6.83-14.974-10.37-22.403
		C65.3,257.165,64.457,257.543,63.615,257.924 M230.207,260.741c-2.832,6.222-5.756,12.401-8.623,18.606
		c0.626,0.243,1.256,0.481,1.883,0.731c3.641-7.359,7.363-14.681,11.027-22.027c-0.816-0.396-1.659-0.739-2.485-1.108
		C231.346,258.179,230.83,259.486,230.207,260.741 M58.856,260.313c3.726,7.18,7.54,14.312,11.269,21.489
		c0.701-0.276,1.399-0.558,2.087-0.864c-3.622-7.301-7.335-14.556-10.939-21.862C60.462,259.475,59.654,259.884,58.856,260.313
		 M236.859,259.199c-3.631,7.299-7.313,14.57-10.957,21.861c0.598,0.246,1.176,0.541,1.791,0.748
		c0.199,0.108,0.425,0.036,0.496-0.187c3.731-7.033,7.379-14.113,11.143-21.129C238.516,260.045,237.691,259.613,236.859,259.199
		 M54.585,262.707c0.033,0.572,0.493,1.049,0.717,1.57c3.484,6.483,6.953,12.979,10.422,19.471c0.654-0.262,1.293-0.557,1.929-0.859
		c-0.512-0.854-0.931-1.762-1.418-2.63c-3.252-6.224-6.542-12.431-9.804-18.649C55.818,261.969,55.082,262.203,54.585,262.707
		 M241.623,261.755c-3.738,7.071-7.422,14.171-11.182,21.229c0.651,0.274,1.262,0.755,1.988,0.787
		c0.639-1.101,1.194-2.246,1.813-3.356c3.108-5.877,6.315-11.706,9.382-17.606C242.98,262.412,242.32,262.041,241.623,261.755
		 M75.545,270.613c1.094,2.563,2.301,5.078,3.418,7.631c0.658-0.178,1.295-0.426,1.943-0.645c-0.654-1.894-1.542-3.697-2.247-5.572
		c-0.153-0.315-0.224-0.713-0.54-0.906C77.274,270.896,76.42,270.674,75.545,270.613 M219.801,271.273
		c-0.822,2.174-1.795,4.289-2.611,6.467c0.66,0.186,1.302,0.438,1.951,0.656c1.189-2.588,2.397-5.166,3.58-7.754
		C221.736,270.797,220.777,271.085,219.801,271.273 M81.439,271.885c0.637,1.606,1.316,3.198,1.977,4.797
		c0.681-0.182,1.344-0.414,2.011-0.641c-0.328-1.006-0.774-1.969-1.127-2.965c-0.128-0.239-0.153-0.607-0.465-0.666
		C83.052,272.17,82.241,272.038,81.439,271.885 M214.129,272.6c-0.588,1.146-1,2.383-1.439,3.596
		c0.672,0.195,1.336,0.424,2.004,0.634c0.658-1.601,1.351-3.188,1.968-4.804C215.807,272.16,214.945,272.321,214.129,272.6
		 M87.165,273.107c0.21,0.727,0.521,1.416,0.817,2.11c1.25-0.399,2.539-0.681,3.766-1.149
		C90.232,273.693,88.684,273.469,87.165,273.107 M206.217,274.234c1.336,0.289,2.613,0.799,3.957,1.057
		c0.293-0.664,0.559-1.344,0.758-2.041C209.363,273.592,207.777,273.861,206.217,274.234z"/>
</g>
<g id="_x23_211d1aff">
	<path id="path3978" d="M146.566,38.231c0.578-0.078,1.168-0.21,1.749-0.052c0.007,0.974,0.033,1.948,0.083,2.92
		c0.172,1.033,0.066,2.086,0.234,3.12c0.083,0.835,0.059,1.675,0.096,2.514c-0.573,0.061-1.144,0.155-1.719,0.186
		c-1.356-1.884-2.512-3.903-3.868-5.787c-0.094,1.991,0.266,3.967,0.219,5.962c-0.576,0.003-1.153,0.028-1.728,0.019
		c0.03-1.955-0.241-3.892-0.25-5.844c-0.088-0.934-0.189-1.868-0.17-2.809c0.626-0.026,1.255-0.05,1.885-0.075
		c1.243,1.844,2.358,3.774,3.684,5.559C146.897,42.035,146.564,40.139,146.566,38.231z"/>
	<path id="path3980" d="M153.91,38.219c0.59,0.007,1.178,0.016,1.771,0.024c-0.012,2.897-0.048,5.797-0.184,8.691
		c-0.598-0.01-1.191-0.021-1.788-0.021c0.046-1.823-0.042-3.653,0.163-5.467C153.896,40.372,153.898,39.295,153.91,38.219z"/>
	<path id="path3982" d="M157.146,47.076c0.098-2.897,0.449-5.777,0.612-8.67c0.653,0.059,1.337,0.049,1.964,0.25
		c0.551,1.144,1.063,2.309,1.618,3.455c0.438,0.901,0.783,1.854,1.339,2.696c0.063-1.981,0.311-3.95,0.428-5.923
		c0.537,0.024,1.074,0.054,1.615,0.073c-0.004,2.903-0.437,5.785-0.576,8.681c-0.633-0.009-1.271-0.031-1.885-0.191
		c-0.914-2.042-1.918-4.042-2.83-6.083c-0.063-0.005-0.19-0.016-0.254-0.021c-0.05,1.983-0.217,3.962-0.427,5.934
		C158.215,47.207,157.684,47.111,157.146,47.076z"/>
</g>
<g id="_x23_221d1bff">
	<path id="path3985" d="M134.622,39.264c0.689-0.147,1.394-0.18,2.097-0.215c0.941,1.824,1.788,3.696,2.696,5.538
		c0.417,0.891,0.894,1.755,1.255,2.672c-0.642,0.16-1.304,0.192-1.963,0.2c-0.208-0.545-0.458-1.071-0.66-1.618
		c-1.068,0-2.115,0.241-3.182,0.253c-0.124,0.625-0.285,1.24-0.417,1.861c-0.637,0.099-1.274,0.191-1.917,0.236
		C133.238,45.217,133.918,42.238,134.622,39.264 M135.88,41.099c-0.262,1.146-0.465,2.302-0.734,3.444
		c0.722-0.049,1.451-0.071,2.165-0.208C136.833,43.257,136.375,42.17,135.88,41.099z"/>
	<path id="path3987" d="M119.319,42.387c1.082-0.325,2.188-0.569,3.274-0.875c0.772-0.234,1.607-0.25,2.401-0.118
		c1.344,0.438,2.066,1.785,2.472,3.047c0.156,0.785,0.113,1.592,0.113,2.389c0.071,1.333-0.948,2.554-2.196,2.927
		c-1.288,0.368-2.596,0.674-3.889,1.028C120.743,47.993,120.059,45.182,119.319,42.387 M121.413,43.453
		c0.571,1.779,0.894,3.627,1.453,5.41c0.83-0.316,1.87-0.264,2.509-0.955c0.639-0.66,0.42-1.656,0.391-2.483
		c-0.21-0.939-0.569-2.075-1.543-2.469C123.257,42.783,122.318,43.163,121.413,43.453z"/>
	<path id="path3989" d="M185.936,44.268c0.689,0.05,1.324,0.336,1.976,0.547c1.604,0.522,3.198,1.074,4.799,1.616
		c-0.127,0.486-0.282,0.963-0.448,1.438c-0.857-0.183-1.671-0.519-2.492-0.813c-0.699,2.25-1.512,4.463-2.215,6.712
		c-0.609-0.082-1.185-0.306-1.761-0.502c0.677-2.287,1.563-4.505,2.214-6.8c-0.804-0.255-1.599-0.531-2.4-0.788
		C185.723,45.208,185.855,44.743,185.936,44.268z"/>
	<path id="path3991" d="M106.962,46.713c0.561-0.245,1.137-0.458,1.739-0.582c0.933,2.708,2.035,5.356,2.936,8.075
		c-0.543,0.236-1.099,0.436-1.641,0.672C108.953,52.17,107.939,49.446,106.962,46.713z"/>
	<path id="path3993" d="M242.754,90.891c0.875-0.163,1.838-0.147,2.625,0.323c1.012,0.526,1.686,1.533,2.018,2.603
		c0.324,1.207,0.062,2.646-0.938,3.467c-0.058,0.003-0.17,0.012-0.229,0.017c-0.399-0.366-0.602-0.908-0.906-1.353
		c0.271-0.474,0.688-0.955,0.576-1.542c-0.147-0.679-0.541-1.366-1.205-1.643c-0.621-0.332-1.371-0.189-1.982,0.089
		c-1.059,0.441-2.076,1.212-2.467,2.328c-0.273,0.923,0.339,1.882,1.152,2.297c0.47,0.25,1.021,0.088,1.511-0.028
		c0.243,0.526,0.856,0.99,0.784,1.597c-0.808,0.29-1.719,0.403-2.541,0.107c-1.278-0.427-2.188-1.611-2.555-2.875
		c-0.318-1.014-0.041-2.13,0.559-2.982C240.035,92.116,241.324,91.248,242.754,90.891z"/>
	<path id="path3995" d="M45.359,109.385c0.436-0.139,0.903,0.208,1.323,0.34c-0.16,0.518-0.354,1.021-0.503,1.542
		c2.233,0.925,4.509,1.75,6.728,2.71c-0.181,0.476-0.37,0.95-0.563,1.423c-1.252-0.283-2.396-0.896-3.594-1.342
		c-1.096-0.399-2.146-0.925-3.271-1.238c-0.391,1.048-0.807,2.092-1.095,3.175c0.003,0.688-0.259,1.325-0.424,1.982
		c0.3,0.08,0.604,0.148,0.905,0.226c-0.071-0.953,0.238-1.978,0.997-2.594c0.927-0.785,2.406-0.668,3.304,0.113
		c0.751,0.585,1.167,1.469,1.495,2.338c-0.481,0.321-0.974,0.639-1.531,0.811c-0.384-0.847-0.826-1.889-1.797-2.17
		c-0.774-0.168-1.016,0.752-1.177,1.316c-0.189,0.384,0.146,0.771,0.521,0.84c1.389,0.46,2.762,0.974,4.165,1.389
		c-0.12,0.5-0.278,0.992-0.481,1.465c-0.561,0.085-1.101-0.305-1.651-0.43c-0.165,0.989-0.439,2.035-1.203,2.739
		c-0.728,0.772-1.976,0.893-2.894,0.413c-0.712-0.342-1.193-1.126-1.153-1.918c-0.035-0.816,0.311-1.571,0.536-2.335
		c0.318-0.016,0.636-0.038,0.953-0.073c-0.43-0.274-0.918-0.438-1.418-0.528c-0.446,1.512-0.925,3.018-1.359,4.533
		c-0.021,0.653-0.076,1.304-0.279,1.929c2.34,0.622,4.713,1.107,7.042,1.776c-0.043,0.547-0.205,1.075-0.411,1.582
		c-2.354-0.653-4.743-1.17-7.113-1.757c-0.023,0.677,0.086,1.372-0.151,2.024c1.503,0.349,3.012,0.688,4.497,1.113
		c0.278,0.021,0.228,0.356,0.189,0.543c-0.63,0.781-1.566,1.217-2.405,1.729c-0.267,0.189-0.603,0.181-0.913,0.207
		c-0.009-0.524,0.026-1.045,0.056-1.566c-0.604-0.088-1.191-0.262-1.774-0.438c-0.179,0.616-0.361,1.231-0.502,1.858
		c-0.064,0.3,0.212,0.559,0.164,0.864c-0.03,0.417-0.137,0.821-0.208,1.233c2.397,0.392,4.779,0.878,7.165,1.338
		c-0.061,0.524-0.177,1.038-0.257,1.561c-2.417-0.318-4.797-0.886-7.2-1.297c-0.052,0.417-0.323,0.849-0.122,1.262
		c0.226,0.545,0.038,1.137,0.016,1.705c2.394,0.306,4.776,0.724,7.181,0.934c-0.011,0.569-0.115,1.132-0.208,1.694
		c-2.418-0.338-4.835-0.753-7.272-0.923c-0.005,0.866,0.075,1.73,0.033,2.597c1.531,0.059,3.052,0.243,4.575,0.383
		c0.906-0.014,1.793,0.164,2.694,0.203c-0.016,0.524-0.033,1.051-0.059,1.578c-0.493,0.004-0.984-0.033-1.476-0.05
		c0.615,1.39,1.278,2.894,0.974,4.451c-0.272,0.922-0.995,1.998-2.09,1.857c-0.463,0.031-0.764-0.352-1.076-0.625
		c-0.448,0.734-1.148,1.503-2.078,1.484c-0.566,0.031-0.999-0.481-1.064-1.008c-0.149-0.9,0.122-1.805,0.076-2.709
		c-0.229,0-0.458,0-0.688,0c0.023,1.201,0.033,2.41-0.121,3.604c0.146,0.767,0.371,1.522,0.292,2.317
		c2.432,0.027,4.856-0.194,7.288-0.172c0.012,0.539,0.018,1.08,0.016,1.621c-2.451-0.022-4.896,0.199-7.347,0.157
		c0.203,0.736,0.295,1.495,0.247,2.261c2.472-0.002,4.944-0.065,7.417-0.063c0.005,0.529,0.009,1.059,0.012,1.592
		c-0.955,0.029-1.908,0.007-2.863,0.04c1.122,1.156,2.16,2.392,3.306,3.524c-0.295,0.457-0.613,0.895-0.924,1.34
		c-0.882-0.889-1.545-1.96-2.361-2.906c-0.096,0.854-0.34,1.852-1.164,2.287c-0.901,0.24-1.842,0.232-2.769,0.244
		c0.005,0.398,0.012,0.795,0.026,1.195c-0.46,0.053-0.918,0.119-1.377,0.188c-0.257-1.271-0.234-2.576-0.373-3.862
		c-0.089-0.263-0.285-0.488-0.308-0.768c-0.066-1.273,0.087-2.571-0.231-3.82c-0.297-1.484,0.136-3.037-0.314-4.492
		c-0.106-2.483,0.399-4.992,0.04-7.455c0.118-1.099,0.247-2.201,0.288-3.302c-0.365-0.793,0.052-1.614-0.002-2.427
		c-0.05-0.384-0.082-0.768-0.111-1.151c0.101-0.036,0.203-0.073,0.306-0.106c0.048-0.427,0.251-0.873,0.063-1.292
		c-0.252-0.564,0.008-1.168,0.12-1.732c-0.948,0.317-2.177,0.451-2.908-0.382c-0.96-1.08-1.12-2.732-0.642-4.064
		c0.505-1.276,1.446-2.307,2.34-3.325c0.872-0.99,1.953-1.762,2.875-2.698c0.338-0.636,0.359-1.374,0.404-2.075
		c0.228-1.073,0.688-2.09,0.875-3.17c-0.029-0.835,0.438-1.561,0.632-2.351c0.109-0.338,0.026-0.705,0.127-1.043
		c0.569-1.766,1.188-3.516,1.811-5.26c0.108-0.42,0.229-0.837,0.414-1.228C44.899,110.418,45.022,109.83,45.359,109.385
		 M45.434,120.25c-0.374,0.748-0.592,1.701-0.174,2.474c0.214,0.5,0.938,0.517,1.293,0.168c0.618-0.5,0.683-1.406,0.538-2.132
		C46.566,120.516,46.002,120.356,45.434,120.25 M36.29,133.174c-0.205,0.866,0.392,2.033,1.385,1.98
		c0.427-0.01,0.936,0.009,1.266-0.311c0.221-0.715-0.141-1.446,0.056-2.158c0.248-1.036,0.486-2.074,0.76-3.102
		c0.153-0.537,0.037-1.096,0.054-1.643C38.234,129.342,36.625,131.002,36.29,133.174 M39.627,147.971
		c0.66-0.004,1.319,0.004,1.979,0.021c0.042,1.289-0.106,2.581,0.012,3.868c0.219-0.131,0.446-0.309,0.491-0.571
		c0.189-0.924,0.116-1.874,0.163-2.81c0.366-0.119,0.726-0.262,1.085-0.396c0,0.561-0.052,1.121-0.022,1.684
		c0.149,0.416,0.405,1.021,0.931,0.99c0.365-0.115,0.594-0.471,0.753-0.796c0.231-1.37-0.535-2.637-1.088-3.833
		c-1.399-0.262-2.847-0.281-4.266-0.434C39.646,146.451,39.649,147.21,39.627,147.971 M40.162,161.105
		c0.029,0.94,0.064,1.885,0.179,2.822c0.806-0.15,1.626-0.138,2.439-0.216c0.721-0.68,0.686-1.925-0.083-2.56
		C41.859,161.025,41.005,161.15,40.162,161.105z"/>
	<path id="path3997" d="M256.663,133.068c1.224-0.314,2.567-0.29,3.712,0.292c2.25,1.243,2.768,4.741,0.957,6.569
		c-1.047,1.054-2.604,1.384-4.042,1.299c-1.53,0.12-3.022-0.875-3.585-2.285c-0.439-0.878-0.387-1.893-0.303-2.842
		C253.689,134.507,255.107,133.335,256.663,133.068 M257.366,134.781c-0.782,0.172-1.64,0.436-2.112,1.128
		c-0.455,0.556-0.393,1.328-0.281,1.99c0.297,0.972,1.336,1.542,2.312,1.545c1.007,0.035,2.099-0.191,2.883-0.856
		c0.994-0.852,0.896-2.569-0.119-3.361C259.273,134.668,258.271,134.656,257.366,134.781z"/>
	<path id="path3999" d="M255.604,143.573c0.873-0.675,1.988-0.95,3.074-0.995c1.346-0.052,2.799,0.377,3.666,1.462
		c0.771,0.84,1.008,2.031,0.941,3.142c0.025,1.525-1.059,3.037-2.596,3.311c-0.071-0.583-0.16-1.163-0.187-1.75
		c0.649-0.343,1.293-0.94,1.233-1.743c0.179-1.182-0.786-2.268-1.916-2.462c-0.944-0.141-1.944-0.099-2.828,0.29
		c-0.805,0.396-1.344,1.259-1.215,2.17c-0.127,1.113,0.89,2.035,1.951,2.087c-0.008-0.669-0.031-1.335-0.045-2.001
		c0.476-0.005,0.951-0.016,1.43-0.031c0.074,1.219,0.238,2.43,0.197,3.657c-1.553-0.035-3.084,0.287-4.635,0.217
		c-0.02-0.386-0.035-0.768-0.055-1.149c0.348-0.086,0.693-0.188,1.045-0.271c-0.877-0.598-1.547-1.574-1.463-2.674
		C254.07,145.596,254.604,144.314,255.604,143.573z"/>
	<path id="path4001" d="M257.73,154.866c1.813-0.841,3.513-1.923,5.355-2.696c-0.007,0.59,0.021,1.184-0.04,1.773
		c-0.054,0.442-0.526,0.531-0.858,0.701c-0.998,0.422-1.984,0.873-2.963,1.332c1.25,0.557,2.448,1.223,3.7,1.782
		c-0.002,0.685-0.008,1.367-0.024,2.052c-1.832-0.897-3.537-2.027-5.34-2.977c-1.084-0.184-2.263,0.116-3.291-0.284
		c-0.011-0.557,0.022-1.108,0.022-1.664C255.438,154.844,256.592,154.975,257.73,154.866z"/>
	<path id="path4003" d="M253.59,164.057c1.65-0.031,3.275,0.295,4.914,0.435c1.242,0.225,2.512,0.256,3.756,0.477
		c-0.223,1.607-0.287,3.24-0.617,4.832c-0.242,1.086-1.317,1.953-2.453,1.746c-0.686-0.051-1.254-0.508-1.563-1.103
		c-0.457,0.476-1.006,1.013-1.717,0.959c-1.234,0.107-2.486-0.813-2.7-2.041C253.041,167.578,253.582,165.835,253.59,164.057
		 M254.955,165.951c-0.102,0.906-0.285,1.818-0.211,2.734c-0.001,0.348,0.283,0.6,0.553,0.776c0.506,0.08,1.264,0.218,1.469-0.405
		c0.344-0.914,0.303-1.924,0.476-2.879C256.491,165.99,255.719,165.982,254.955,165.951 M258.652,166.334
		c-0.008,0.855-0.244,1.693-0.211,2.553c-0.004,0.372,0.279,0.721,0.635,0.828c0.462,0.244,1.089-0.168,1.139-0.675
		c0.174-0.825,0.248-1.671,0.323-2.509C259.916,166.4,259.285,166.335,258.652,166.334z"/>
	<path id="path4005" d="M253.587,173.355c1.136-0.437,2.422-0.314,3.571,0.02c1.346,0.384,2.632,1.371,2.977,2.783
		c0.605,2.102-0.6,4.719-2.801,5.277c-1.824,0.278-3.898-0.1-5.205-1.49C250.307,178,251.165,174.384,253.587,173.355
		 M254.234,175.029c-1.185,0.34-1.83,1.803-1.344,2.918c0.32,0.867,1.213,1.309,2.039,1.57c0.899,0.262,1.957,0.356,2.784-0.168
		c0.611-0.386,0.95-1.099,1.017-1.8c0.01-0.905-0.563-1.768-1.392-2.129C256.379,175.006,255.264,174.662,254.234,175.029z"/>
	<path id="path4007" d="M163.566,174.807c1.18-0.065,2.354,0.129,3.442,0.594c-0.141,0.361-0.276,0.728-0.428,1.086
		c-0.981-0.282-1.978-0.604-3.011-0.59C163.57,175.531,163.566,175.166,163.566,174.807z"/>
	<path id="path4009" d="M243.377,198.184c1.969,1.931,3.785,4.008,5.744,5.945c0.217,0.26,0.641,0.536,0.471,0.932
		c-0.219,0.554-0.533,1.06-0.779,1.601c-3.031-0.308-6.043-0.789-9.071-1.104c0.209-0.608,0.503-1.185,0.803-1.752
		c0.627,0.031,1.245,0.146,1.862,0.258c0.479-0.957,0.961-1.91,1.425-2.873c-0.437-0.414-0.896-0.81-1.259-1.285
		C242.71,199.279,243.07,198.734,243.377,198.184 M244.902,202.453c-0.318,0.607-0.594,1.236-0.918,1.842
		c1.154,0.137,2.291,0.424,3.459,0.479c-0.76-0.797-1.535-1.578-2.344-2.322C245.053,202.451,244.953,202.453,244.902,202.453z"/>
	<path id="path4011" d="M134.162,236.098c1.836-0.395,3.726-0.207,5.582-0.416c4.925-0.125,9.853-0.111,14.779-0.074
		c0.354,0.002,0.715-0.004,1.066,0.072c0.9,0.204,1.832,0.08,2.744,0.199c1.121,0.154,2.26,0.021,3.387,0.146
		c1.104,0.147,2.225,0.102,3.328,0.274c0.211,0.487,0.43,0.974,0.654,1.459c-0.633,0.007-1.264-0.02-1.893-0.05
		c-0.013,1.214-0.213,2.413-0.209,3.628c-0.185,1.127-0.084,2.277-0.283,3.403c-0.047,0.486-0.037,0.98-0.063,1.476
		c-0.604-0.366-1.251-0.724-1.686-1.291c0.107-0.717,0.166-1.438,0.158-2.161c-0.863,0.008-1.721-0.1-2.574-0.193
		c-0.026,0.43-0.061,0.865-0.186,1.281c-0.313-0.015-0.648-0.019-0.822-0.314c-0.598-0.766-1.338-1.449-1.729-2.35
		c0.365-0.121,0.743-0.179,1.127-0.199c-0.074-1.187,0.193-2.354,0.165-3.533c-0.466-0.164-0.983-0.035-1.458-0.158
		c-0.591-0.17-1.203-0.134-1.809-0.123c-0.002,2.83-0.033,5.66-0.064,8.491c-0.607-0.286-1.148-0.688-1.715-1.04
		c-0.014-0.799,0.006-1.596,0.016-2.393c-0.854-0.002-1.707,0.006-2.56-0.01c-0.019,0.432-0.075,0.861-0.226,1.274
		c-0.238-0.039-0.516-0.022-0.684-0.224c-0.552-0.553-1.068-1.141-1.569-1.733c-0.177-0.183-0.217-0.437-0.278-0.664
		c0.332-0.078,0.665-0.158,1.001-0.229c-0.022-1.201,0.003-2.4-0.017-3.601c-1.328,0.058-2.668-0.125-3.986,0.095
		c0.01,1.381,0.08,2.762,0.022,4.143c0.018,0.557-0.514,0.883-0.854,1.246c0.816,0.93,1.759,1.738,2.583,2.662
		c-0.207,0.188-0.406,0.385-0.599,0.59c-1.375-1.295-2.677-2.668-4.014-4.002c-0.448-0.397-0.905-1.104-0.471-1.664
		c0.393-0.563,1.115-0.273,1.634-0.092c-0.031-0.949-0.035-1.898-0.043-2.847c-1.397,0.019-2.793,0.058-4.191,0.043
		c-0.012,1.119,0.031,2.242,0.153,3.357c0.086,1.098-0.003,2.205,0.154,3.299c0.063,0.646,0.057,1.295,0.059,1.944
		c-0.599-0.291-1.175-0.623-1.745-0.965c-0.011-0.429-0.018-0.858-0.021-1.283c-1.868,0.679-4.372-0.727-4.365-2.813
		c-0.116-0.967-0.125-1.939-0.161-2.91c-0.401-0.061-0.804-0.088-1.203-0.121c-0.302-0.449-0.578-0.912-0.84-1.383
		C131.698,236.311,132.931,236.197,134.162,236.098 M150.083,237.146c0.016,1.149-0.005,2.301,0.005,3.453
		c0.828,0.221,1.753,0.043,2.621,0.088c-0.016-1.18,0.018-2.357,0.02-3.535C151.846,237.145,150.965,237.139,150.083,237.146
		 M134.236,237.585c0.007,1.534,0.111,3.067,0.276,4.595c0.257,0.107,0.564,0.279,0.838,0.108c0.552-0.253,1.073-0.597,1.484-1.045
		c0.073-1.241-0.2-2.483-0.12-3.731C135.887,237.527,135.063,237.572,134.236,237.585 M159.271,241.182
		c0.871,0,1.74,0.049,2.611,0.049c-0.054-1.225,0.254-2.428,0.192-3.653c-0.871-0.013-1.742-0.029-2.614-0.074
		C159.29,238.721,159.293,239.951,159.271,241.182z"/>
	<path id="path4013" d="M113.043,239.009c3.604-0.819,7.281-1.288,10.936-1.823c0.488,0.342,0.755,0.918,1.144,1.369
		c-0.602,0.135-1.213,0.226-1.832,0.238c0.042,1.477,0.393,2.917,0.552,4.383c0.163,1.387,0.396,2.766,0.564,4.152
		c-0.622-0.25-1.252-0.496-1.816-0.859c-0.194-0.717-0.257-1.475-0.309-2.214c-0.875,0.002-1.726,0.236-2.599,0.272
		c0.005,0.466,0.037,0.938-0.077,1.396c-0.311-0.032-0.641-0.056-0.871-0.289c-0.677-0.582-1.462-1.063-2.03-1.756
		c0.09-0.405,0.634-0.388,0.953-0.513c-0.135-1.211-0.335-2.415-0.585-3.606c-0.934,0.202-1.858,0.461-2.806,0.591
		c0.217,1.981,0.653,3.936,0.962,5.903c0.146,0.833,0.356,1.659,0.38,2.513c-0.606-0.234-1.2-0.496-1.797-0.748
		c-0.164-1.028-0.358-2.052-0.559-3.072c-0.707,0.095-1.405,0.246-2.106,0.373c0.045,0.481,0.071,0.972,0.026,1.459
		c-0.304-0.043-0.66,0.063-0.906-0.161c-0.63-0.468-1.236-0.964-1.853-1.446c-0.005-0.244-0.005-0.488,0-0.729
		c1.443-0.609,3.04-0.691,4.554-1.056c-0.103-0.878-0.311-1.739-0.415-2.614c-1.222,0.047-2.399,0.412-3.599,0.608
		c-0.951,0.197-1.932,0.22-2.866,0.5c0.545,2.797,1.26,5.563,1.703,8.378c-0.613-0.234-1.222-0.476-1.827-0.729
		c-0.552-2.397-1.024-4.813-1.535-7.217c-0.786,0.096-1.543,0.346-2.321,0.488c0.484,2.807,1.295,5.551,1.838,8.35
		c-0.644-0.185-1.268-0.426-1.893-0.657c-0.323-1.448-0.684-2.886-0.976-4.339c-0.97,0.103-1.897,0.416-2.84,0.65
		c0.969,0.45,2.09,1.026,2.374,2.153c0.177,1.079-0.736,1.928-1.585,2.422c0.693,0.761,1.465,1.443,2.155,2.207
		c-0.271,0.104-0.533,0.231-0.813,0.313c-0.772-0.588-1.432-1.318-2.203-1.912c-0.688-0.055-1.478-0.139-1.927-0.731
		c-0.232-0.255-0.156-0.628-0.101-0.929c0.128-0.366,0.247-0.932,0.75-0.871c0.587-0.08,0.832,0.857,1.439,0.568
		c0.316-0.219,0.654-0.518,0.588-0.941c0.047-0.6-0.458-1.016-0.908-1.311c-0.863-0.57-1.899-0.73-2.847-1.099
		c0.108-0.341,0.238-0.723,0.637-0.795c1.613-0.468,3.259-0.828,4.885-1.247c-0.073-0.476-0.191-0.941-0.298-1.408
		c-2.016,0.416-4.007,0.95-5.999,1.473c-0.46-0.398-0.875-0.848-1.224-1.344c2.747-0.613,5.451-1.41,8.215-1.949
		c2.135-0.654,4.347-1.045,6.55-1.396C109.637,239.691,111.319,239.24,113.043,239.009 M118.813,239.498
		c0.165,1.217,0.372,2.43,0.578,3.643c0.866-0.146,1.731-0.313,2.607-0.412c-0.092-1.229-0.239-2.463-0.54-3.658
		C120.58,239.236,119.701,239.402,118.813,239.498z"/>
</g>
<g id="_x23_211c1aff">
	<path id="path4016" d="M128.33,40.189c0.588-0.049,1.168-0.172,1.753-0.254c0.313,1.707,0.542,3.427,0.87,5.134
		c0.141,1.167,0.503,2.313,0.422,3.502c-0.58,0.054-1.156,0.114-1.736,0.132C129.325,45.849,128.651,43.043,128.33,40.189z"/>
	<path id="path4018" d="M181.51,48.434c0.523-1.785,0.926-3.608,1.545-5.361c0.532,0.184,1.074,0.356,1.635,0.443
		c-0.043,0.705-0.308,1.366-0.483,2.043c-0.573,2.103-1.181,4.194-1.754,6.295c-0.585-0.038-1.147-0.194-1.697-0.376
		C180.826,50.425,181.268,49.451,181.51,48.434z"/>
	<path id="path4020" d="M112.774,186.33c1.509,0.01,3.017,0.008,4.526-0.002c0.038,0.462,0.097,0.926,0.137,1.393
		c-1.563,0.031-3.125,0.039-4.688,0.004C112.757,187.257,112.764,186.793,112.774,186.33z"/>
</g>
<g id="_x23_231e1cff">
	<path id="path4023" d="M167.118,43.762c-1.196-1.358-0.146-3.818,1.623-3.993c0.829-0.024,1.702-0.094,2.487,0.234
		c0.836,0.281,1.563,0.918,1.887,1.747c0.137,0.444,0.175,0.912,0.23,1.372c-0.59,0.012-1.168-0.094-1.738-0.219
		c-0.152-0.476-0.201-1.092-0.715-1.328c-0.611-0.319-1.401-0.556-2.045-0.198c-0.492,0.253-0.722,1.042-0.201,1.391
		c1.207,0.792,2.752,1.054,3.801,2.095c0.547,0.503,0.445,1.306,0.391,1.974c-0.145,0.96-0.947,1.691-1.85,1.957
		c-1.514,0.231-3.217,0.031-4.379-1.047c-0.66-0.627-0.851-1.561-0.729-2.438c0.566,0.05,1.127,0.181,1.689,0.262
		c-0.021,0.587,0.203,1.194,0.761,1.467c0.685,0.302,1.519,0.543,2.237,0.212c0.535-0.229,0.783-1.094,0.248-1.45
		C169.666,44.979,168.148,44.766,167.118,43.762z"/>
	<path id="path4025" d="M91.033,53.3c2.46-1.297,4.944-2.552,7.413-3.83c0.224,0.417,0.45,0.833,0.677,1.25
		c-0.444,0.281-0.904,0.535-1.373,0.772c0.285,0.618,0.607,1.22,0.875,1.849c-0.965,0.598-2.031,1.012-2.993,1.613
		c-0.285,0.151-0.34,0.493-0.481,0.755c0.358,0.318,0.863,0.575,1.337,0.347c0.734-0.642,1.28-1.625,2.302-1.838
		c0.732-0.151,1.335,0.403,1.703,0.969c0.342,0.543,0.603,1.229,0.366,1.865c-0.201,0.739-0.828,1.231-1.384,1.707
		c0.804-0.022,1.606-0.047,2.41-0.03c-0.163,0.478-0.295,0.978-0.552,1.417c-1.047,0.059-2.054-0.302-3.087-0.401
		c-0.668-0.082-1.221,0.458-1.891,0.412c-0.518,0.057-1.097-0.141-1.283-0.67c-0.057-0.45,0.24-0.867,0.587-1.12
		c0.821-0.139,1.655,0.096,2.476-0.003c0.793-0.573,1.552-1.622,1.049-2.615c-1.172-0.251-1.448,1.339-2.516,1.401
		c-1.04,0.094-2.212,0.05-3.063-0.63c-0.542-0.611-0.314-1.616,0.165-2.201c0.835-0.622,1.83-0.992,2.739-1.493
		c-0.076-0.198-0.132-0.41-0.292-0.556c-1.333,0.7-2.675,1.382-4.009,2.08c-0.606,0.399-1.158,0.878-1.776,1.264
		c1.191,2.111,2.587,4.104,3.838,6.181c-0.439,0.335-0.915,0.615-1.411,0.854c-0.261-0.434-0.531-0.863-0.82-1.279
		c-0.854,0.911-1.955,1.927-3.309,1.719c-1.626-0.163-2.651-2.052-2.111-3.54c0.467-0.943,1.359-1.573,2.248-2.083
		c0.346,0.32,0.7,0.632,1.04,0.96c-0.578,0.23-1.12,0.548-1.559,0.995c0.828,0.08,1.663,0.047,2.495,0.031
		c-0.598-0.948-1.183-1.903-1.781-2.849c-1.401,0.897-2.811,1.785-4.214,2.677c-0.458,0.417-0.861,0.892-1.37,1.255
		c-0.272,0.17-0.007,0.451,0.095,0.639c1.208,1.682,2.405,3.373,3.601,5.063c0.208,0.219,0.063,0.514,0.038,0.772
		c0.806-0.071,1.623,0.257,2.085,0.936c0.55,0.618,0.585,1.639,0.056,2.279c-1.441,1.979-3.997,2.8-6.365,2.722
		c-0.097-0.526-0.095-1.063-0.12-1.594c0.845,0.069,1.705,0.149,2.548,0.011c0.859-0.273,1.589-0.849,2.179-1.516
		c0.248-0.221,0.168-0.577,0.21-0.87c-0.316-0.142-0.615-0.481-0.988-0.338c-0.474,0.241-0.771,0.698-1.147,1.054
		c-0.452,0.057-0.874-0.17-1.299-0.274c0.304-0.838,0.95-1.469,1.559-2.088c-0.677-0.918-1.281-1.891-2.012-2.768
		c-0.694,0.566-1.422,1.089-2.107,1.665c0.394,0.503,0.986,0.962,0.967,1.663c-1.022,0.426-2.068-0.126-3.092-0.253
		c-0.412-0.076-1.151-0.247-0.95-0.817c0.241-0.313,0.569-0.539,0.872-0.789c-0.406-0.527-0.795-1.069-1.198-1.597
		c-0.623,0.472-1.257,0.929-1.868,1.418c-0.324-0.368-0.601-0.772-0.875-1.179c1.521-1.25,3.231-2.283,4.608-3.698
		c0.918-0.712,1.927-1.308,2.826-2.047c0.939-1.2,2.467-1.679,3.625-2.63C88.069,55.163,89.743,54.493,91.033,53.3 M88.002,60.627
		c0.345,0.423,0.635,1.052,1.258,1.08c0.808,0.075,1.427-0.556,1.945-1.088C90.137,60.569,89.068,60.599,88.002,60.627
		 M79.71,63.448c0.42,0.505,0.819,1.028,1.212,1.556c0.762-0.519,1.493-1.082,2.219-1.649c-0.394-0.489-0.708-1.035-1.106-1.519
		c-0.052,0-0.158,0-0.21,0C81.107,62.354,80.412,62.906,79.71,63.448z"/>
	<path id="path4027" d="M201.744,52.363c0.174-0.484,0.479-0.908,0.771-1.326c1.978,1.22,3.985,2.392,5.99,3.569
		c-0.217,0.486-0.49,0.941-0.798,1.373c-0.72-0.479-1.468-0.91-2.226-1.323c-1.17,2.05-2.412,4.059-3.582,6.111
		c-0.521-0.289-1.039-0.582-1.551-0.882c0.545-1.161,1.277-2.22,1.9-3.34c0.57-0.936,1.083-1.908,1.695-2.817
		C203.229,53.248,202.416,52.912,201.744,52.363z"/>
	<path id="path4029" d="M69.038,71.064c0.997-0.848,1.894-1.801,2.859-2.681c0.339,0.34,0.67,0.688,1.007,1.031
		c-0.382,0.404-0.781,0.79-1.17,1.188c1.722,1.7,3.299,3.536,5.009,5.248c-0.393,0.401-0.8,0.79-1.215,1.168
		c-0.882-1.017-1.818-1.984-2.771-2.936c-0.566,0.651-1.186,1.251-1.739,1.911c0.297,0.514,1.215,0.872,0.887,1.575
		c-0.852,0.446-1.863,0.495-2.798,0.344c-0.488-0.063-0.713-0.538-0.999-0.875c0.302-0.479,0.662-0.92,1.075-1.307
		c0.899-0.877,1.745-1.807,2.63-2.698c-0.38-0.408-0.764-0.814-1.151-1.215c-1.174,1.146-2.28,2.356-3.41,3.543
		c-0.703,0.647-1.124,1.522-1.787,2.207c1.72,1.632,3.559,3.139,5.288,4.764c0.031,0.557-0.663,0.87-0.953,1.3
		c-1.838-1.582-3.642-3.203-5.431-4.842c-0.635,0.632-1.113,1.399-1.68,2.09c1.876,1.559,3.842,3.012,5.682,4.613
		c-0.34,0.399-0.663,0.814-1.009,1.212c-0.688-0.462-1.292-1.033-1.962-1.518c0.089,1.356-0.522,2.634-1.279,3.719
		c-0.866,1.09-2.347,1.431-3.679,1.384c-0.33,0.486-0.759,0.904-1.337,1.075c0.066,0.531,0.029,1.066-0.043,1.594
		c1.196-0.047,2.365-0.337,3.557-0.41c-0.101,0.625-0.229,1.246-0.278,1.878c-2.227-0.035-4.441,0.2-6.663,0.272
		c-0.029-0.531-0.116-1.056-0.22-1.577c0.675-0.123,1.356-0.224,2.045-0.243c0.071-0.103,0.212-0.306,0.283-0.406
		c-0.552-0.653-1.321-1.05-2.03-1.5c-0.647,1.008-1.376,1.967-1.974,3.005c-0.082,0.672-0.448,1.249-0.674,1.875
		c2.075,1.207,4.17,2.375,6.253,3.566c-0.241,0.476-0.501,0.943-0.792,1.395c-1.134-0.509-2.147-1.243-3.268-1.778
		c-0.394,0.673-0.597,1.613-1.467,1.823c0.076,0.556,0.094,1.12,0.061,1.681c1.17-0.226,2.328-0.514,3.484-0.806
		c-0.005,0.594-0.021,1.188-0.075,1.779c-2.177,0.415-4.363,0.79-6.557,1.094c-0.162-0.516-0.304-1.036-0.38-1.569
		c0.759-0.154,1.519-0.314,2.243-0.594c-0.391-0.897-1.453-1.085-2.213-1.559c-0.632,1.261-1.316,2.493-1.939,3.759
		c-0.479-0.113-0.922-0.333-1.363-0.547c0.894-1.891,1.941-3.707,2.894-5.568c0.46-1.489,1.413-2.745,2.137-4.111
		c0.233-0.361,0.101-0.833,0.347-1.182c1.271-1.924,2.556-3.839,3.84-5.754c0.377-0.535,0.268-1.248,0.609-1.8
		c0.422-0.703,1.063-1.316,1.865-1.554c1.548-0.444,3.344,0.668,3.585,2.276c0.042,0.781-0.412,1.462-0.873,2.051
		c0.582,0.203,1.251-0.056,1.569-0.59c0.689-1.071,1.239-2.333,1.064-3.636c-0.71-0.722-1.548-1.319-2.352-1.936
		c-0.052,0.012-0.156,0.035-0.207,0.047c-0.376,0.479-0.705,0.998-1.08,1.479c-0.375-0.231-0.797-0.425-1.083-0.766
		c0.016-0.34,0.181-0.653,0.374-0.923c0.883-1.134,1.832-2.222,2.651-3.406c0.943-1.148,2.066-2.156,2.835-3.434
		c0.957-0.955,1.835-1.983,2.792-2.938C68.455,71.971,68.609,71.412,69.038,71.064 M58.353,85.748
		c-0.491,0.257-0.622,1.009-0.255,1.415c0.46,0.332,0.971-0.036,1.434-0.168c0.177,0.144,0.357,0.29,0.54,0.434
		c-0.446,1.035-1.683,1.628-2.736,1.118c-0.2,0.321-0.411,0.637-0.573,0.981c0.519,0.575,1.247,0.901,1.868,1.351
		c0.415-0.748,0.734-1.55,1.188-2.276c0.205-0.097,0.422-0.163,0.635-0.238c0.215-0.552,0.563-1.164,0.278-1.757
		C60.45,85.628,59.188,85.313,58.353,85.748 M52.234,97.457c-0.389,0.641-0.721,1.316-1.026,2c0.682,0.349,1.363,0.705,2.054,1.042
		c0.288-0.715,0.535-1.444,0.844-2.149c-0.554-0.321-1.083-0.691-1.66-0.969C52.394,97.399,52.288,97.438,52.234,97.457z"/>
	<path id="path4031" d="M233.01,76.846c0.342-0.377,0.721-0.714,1.106-1.043c1.581,1.758,3.097,3.578,4.596,5.406
		c-0.394,0.319-0.782,0.641-1.174,0.96c-0.575-0.634-1.114-1.297-1.657-1.957c-1.85,1.491-3.609,3.092-5.455,4.59
		c-0.388-0.465-0.787-0.918-1.197-1.359c1.813-1.561,3.646-3.096,5.455-4.66C234.1,78.16,233.561,77.495,233.01,76.846z"/>
	<path id="path4033" d="M245.775,109.497c2.643-1.054,5.293-2.092,7.947-3.124c0.252,0.582,0.477,1.176,0.725,1.759
		c-1.4,1.804-2.885,3.543-4.27,5.359c1.891-0.601,3.668-1.545,5.58-2.069c0.174,0.521,0.381,1.035,0.493,1.575
		c-2.687,0.995-5.312,2.16-8.019,3.088c-0.188-0.559-0.524-1.082-0.588-1.672c1.346-1.868,2.904-3.58,4.277-5.431
		c-1.902,0.611-3.748,1.406-5.596,2.172C246.156,110.604,245.715,110.075,245.775,109.497z"/>
	<path id="path4035" d="M40.3,172.166c0.467-0.072,0.939-0.121,1.41-0.156c0.058,0.506,0.168,1.006,0.269,1.508
		c2.405-0.397,4.797-0.877,7.202-1.283c0.083,0.533,0.198,1.063,0.262,1.602c-0.622,0.127-1.245,0.234-1.863,0.364
		c0.883,1.057,1.338,2.489,1.101,3.858c-0.374,1.314-1.537,2.164-2.7,2.754c-0.222-0.707-0.174-1.713-0.988-2.033
		c-0.811-0.446-2,0.369-1.608,1.294c0.164,1.184,0.695,2.247,1.018,3.385c2.349-0.642,4.684-1.33,7.017-2.026
		c0.16,0.518,0.318,1.038,0.462,1.563c-2.337,0.735-4.705,1.375-7.05,2.089c0.264,0.748,0.679,1.43,0.917,2.189
		c2.309-0.676,4.624-1.332,6.929-2.023c0.234,0.5,0.392,1.035,0.458,1.587c-1.328,0.397-2.667,0.753-3.986,1.179
		c0.181,0.857,0.497,1.678,0.771,2.508c0.132,0.406,0.353,0.84,0.776,1.006c0.595,0.023,1.151-0.383,1.486-0.85
		c0.422-0.744,0.686-1.563,1.082-2.32c0.293,0.201,0.594,0.396,0.895,0.591c-0.289,1.241-0.875,2.409-1.67,3.405
		c-0.396,0.5-0.953,0.976-1.628,0.947c-0.84,0.111-1.663-0.441-1.962-1.216c-0.462-1.169-0.739-2.403-1.215-3.563
		c-0.436,0.004-0.852,0.142-1.262,0.27c0.627,1.813,1.249,3.632,1.882,5.443c0.205,0.682,0.689,1.22,0.986,1.857
		c1.097-0.271,2.094-1.052,3.259-0.927c0.795,0.123,1.073,0.966,1.232,1.644c0.549-1.133,1.113-2.262,1.733-3.356
		c0.05-0.022,0.151-0.067,0.201-0.091c0.378,0.32,0.747,0.666,1.043,1.068c-0.045,0.438-0.332,0.799-0.535,1.176
		c-1.061,1.828-2.115,3.658-3.151,5.498c-0.446-0.41-0.889-0.826-1.299-1.271c0.321-0.604,0.842-1.216,0.726-1.942
		c-0.126-0.298-0.313-0.562-0.489-0.824c-0.743,0.01-1.425,0.336-2.106,0.599c0.484,1.177,1.005,2.339,1.495,3.517
		c0.292,0.782,0.927,1.373,1.194,2.172c2.24-0.92,4.445-1.918,6.672-2.859c0.243,0.479,0.483,0.962,0.689,1.46
		c-2.196,1.053-4.479,1.918-6.693,2.935c0.333,0.899,0.958,1.641,1.368,2.502c2.198-1.054,4.313-2.279,6.531-3.285
		c0.253,0.467,0.479,0.949,0.658,1.451c-0.988,0.52-1.986,1.022-2.976,1.541c0.313,0.637,0.668,1.252,1.012,1.875
		c0.543-0.25,1.058-0.609,1.67-0.664c0.328,0.836,0.281,1.774,0.125,2.643c-0.168,0.521-0.389,1.318-1.073,1.285
		c-0.647,0.1-0.809-0.664-1.22-0.988c-0.639,0.277-1.229,0.654-1.838,0.992c0.014,0.226,0.038,0.451,0.071,0.68
		c0.37-0.063,0.726-0.186,1.09-0.268c0.346,0.363,0.509,0.857,0.719,1.309c-0.59,0.508-1.609,0.829-2.191,0.141
		c-0.654-0.733-1.309-1.73-0.993-2.758c0.564-0.826,1.615-1.088,2.41-1.637c-0.383-0.631-0.732-1.279-1.092-1.92
		c-0.726,0.326-1.425,0.713-2.122,1.1c0.202,0.469,0.429,0.924,0.653,1.385c-0.418,0.23-0.844,0.447-1.29,0.619
		c-0.668-1.18-1.236-2.414-1.887-3.604c-0.83-1.268-1.293-2.727-1.977-4.07c-0.231-0.402-0.552-0.746-0.734-1.173
		c-0.77-1.731-1.495-3.479-2.24-5.219c-0.276-0.679-0.719-1.278-0.941-1.979c-0.418-1.177-0.792-2.369-1.231-3.537
		c-0.122-0.367-0.434-0.607-0.649-0.914c-0.547-1.351-0.668-2.86-1.401-4.139c-0.205-0.457-0.321-0.945-0.469-1.417
		c-0.957,0.655-1.79,1.571-2.127,2.7c-0.09,0.543-0.116,1.156,0.2,1.639c0.266,0.373,0.71,0.766,1.2,0.564
		c0.615-0.266,0.988-0.854,1.357-1.381c0.124,0.553,0.325,1.1,0.325,1.67c-0.319,1.117-1.635,1.869-2.75,1.426
		c-1.194-0.507-1.836-1.887-1.817-3.134c-0.071-1.065,0.501-2.029,1.08-2.875c0.59-0.828,1.323-1.548,2.113-2.183
		c-0.651-1.394-0.835-2.92-1.201-4.396C41.201,176.625,40.443,174.451,40.3,172.166 M42.245,175.217
		c0.278,0.762,0.464,1.551,0.603,2.35c0.469-0.366,0.941-0.879,1.592-0.807c1.003-0.064,1.795,0.658,2.461,1.313
		c0.618-0.789,0.622-1.996-0.038-2.765c-0.37-0.43-0.894-0.967-1.514-0.729C44.323,174.832,43.26,174.912,42.245,175.217z"/>
	<path id="path4037" d="M134.594,184.26c1.059-0.074,2.122-0.061,3.182,0.012c-0.088,0.457-0.186,0.914-0.232,1.379
		c-0.899-0.055-1.799-0.082-2.694-0.008C134.783,185.176,134.677,184.719,134.594,184.26z"/>
	<path id="path4039" d="M246.697,191.266c1.23,0.354,2.346,1.012,3.518,1.521c1.473,0.688,2.975,1.313,4.422,2.057
		c-0.639,1.342-1.201,2.721-1.871,4.049c-0.418,0.83-1.256,1.576-2.24,1.472c-0.989-0.073-1.836-0.804-2.024-1.781
		c-1.084,0.894-2.804,0.392-3.478-0.767c-0.491-0.758-0.422-1.748-0.092-2.553C245.482,193.915,246.163,192.621,246.697,191.266
		 M247.412,193.422c-0.365,0.85-0.818,1.663-1.094,2.547c-0.271,0.988,1.264,1.842,1.895,0.979c0.57-0.771,0.887-1.7,1.244-2.582
		C248.771,194.057,248.085,193.752,247.412,193.422 M250.799,195.051c-0.332,0.824-0.775,1.604-1.021,2.461
		c-0.164,0.771,0.998,1.512,1.512,0.769c0.525-0.769,0.922-1.646,1.154-2.548C251.906,195.477,251.361,195.238,250.799,195.051z"/>
	<path id="path4041" d="M160.775,246.389c0.966-0.387,2.067-0.145,2.877,0.479c1.119,0.849,2.025,1.945,2.842,3.081
		c0.256,0.239,0.02,0.64-0.301,0.637c-0.865-0.937-1.713-1.979-2.93-2.466c-0.522-0.243-1.107-0.163-1.662-0.184
		C161.174,247.523,161.043,246.9,160.775,246.389z"/>
</g>
<g id="_x23_fcfbfbff">
</g>
<g id="_x23_221d1aff">
	<path id="path4045" d="M174.693,42.507c0.05-0.529,0.189-1.045,0.381-1.542c2.27,0.566,4.551,1.09,6.82,1.667
		c-0.121,0.511-0.261,1.018-0.406,1.521c-0.84-0.222-1.674-0.472-2.533-0.588c-0.504,2.304-1.104,4.585-1.648,6.878
		c-0.594-0.12-1.178-0.268-1.76-0.424c0.525-2.302,1.085-4.597,1.656-6.891C176.371,42.899,175.543,42.649,174.693,42.507z"/>
	<path id="path4047" d="M256.797,125.443c1.041-0.215,2.057-0.618,3.131-0.624c0.078,0.558,0.23,1.101,0.297,1.662
		c-2.24,0.569-4.486,1.113-6.738,1.639c0.136,1.436,0.693,2.799,0.836,4.234c-0.479,0.127-0.961,0.234-1.436,0.356
		c-0.555-1.96-0.943-3.963-1.451-5.936C253.193,126.224,255.018,125.915,256.797,125.443z"/>
</g>
<g id="_x23_fefdfeff">
</g>
<g id="_x23_221e1bff">
	<path id="path4051" d="M115.495,43.641c0.524-0.194,1.056-0.372,1.583-0.561c0.99,2.729,1.826,5.512,2.778,8.253
		c-0.601,0.154-1.167,0.469-1.792,0.495c-1.771-1.503-3.443-3.122-5.219-4.618c0.592,1.952,1.344,3.853,1.889,5.818
		c-0.533,0.184-1.069,0.357-1.606,0.528c-0.849-2.781-1.904-5.5-2.681-8.302c0.632-0.118,1.224-0.467,1.875-0.446
		c1.684,1.486,3.342,3.005,5.019,4.5C116.772,47.404,116.103,45.533,115.495,43.641z"/>
	<path id="path4053" d="M242.002,101.622c2.557-1.295,5.129-2.561,7.697-3.832c0.303,0.535,0.568,1.088,0.813,1.653
		c-0.982,0.451-1.939,0.951-2.904,1.439c0.496,1,0.974,2.011,1.496,2.997c0.953-0.495,1.926-0.955,2.879-1.455
		c0.324,0.533,0.617,1.094,0.795,1.696c-2.59,1.219-5.123,2.554-7.696,3.802c-0.295-0.529-0.56-1.075-0.795-1.63
		c1.127-0.613,2.3-1.135,3.432-1.738c-0.489-1-0.967-2.007-1.479-2.995c-1.178,0.556-2.305,1.228-3.526,1.67
		C242.463,102.698,242.205,102.17,242.002,101.622z"/>
	<path id="path4055" d="M254.24,115.616c0.889-0.067,1.838,0.04,2.574,0.59c1.438,1.016,2.088,2.943,1.719,4.643
		c-0.215,0.859-0.729,1.649-1.469,2.142c-1.285,0.882-2.902,1.405-4.461,1.104c-2.596-0.648-3.931-4.092-2.48-6.33
		C251.051,116.441,252.668,115.753,254.24,115.616 M253.389,117.628c-0.771,0.285-1.549,0.71-1.986,1.432
		c-0.813,1.25,0.181,3.259,1.714,3.233c1.161,0.109,2.35-0.302,3.229-1.063c1.027-0.872,0.898-2.708-0.219-3.446
		C255.338,117.212,254.259,117.316,253.389,117.628z"/>
	<path id="path4057" d="M168.078,176.881c0.02-0.414,0.1-0.822,0.23-1.213c0.774,0.122,1.543,0.281,2.313,0.438
		c-0.059,0.356-0.123,0.715-0.193,1.072C169.631,177.189,168.865,176.963,168.078,176.881z"/>
	<path id="path4059" d="M126.085,182.551c1.021-0.021,2.011-0.291,3.014-0.451c0.154,0.4,0.279,0.813,0.394,1.229
		c-1.054,0.226-2.13,0.332-3.179,0.584C126.198,183.463,126.116,183.009,126.085,182.551z"/>
	<path id="path4061" d="M171.078,185.045c1.244,0.172,2.482,0.395,3.729,0.568c-0.021,0.477-0.07,0.957-0.219,1.418
		c-1.285-0.187-2.557-0.463-3.848-0.588C170.857,185.979,170.922,185.5,171.078,185.045z"/>
	<path id="path4063" d="M178.676,232.842c0.746-0.457,1.658-0.152,2.211,0.459c1.334,1.411,2.086,3.248,2.768,5.037
		c0.091,0.236,0.22,0.563,0.527,0.561c1.695,0.119,3.353,0.525,5.03,0.771c1.165,0.262,2.373,0.346,3.503,0.756
		c1.846,0.34,3.664,0.817,5.51,1.174c1.142,0.289,2.346,0.383,3.416,0.91c0.826,0.367,1.814,0.313,2.574,0.813
		c0.193,0.498,0.305,1.021,0.426,1.545c-0.634-0.128-1.252-0.311-1.885-0.432c-0.65,2.769-1.363,5.523-2.037,8.289
		c-0.476-0.459-0.965-0.912-1.346-1.449c0.057-0.879,0.395-1.713,0.566-2.571c-0.937-0.004-1.818-0.356-2.742-0.447
		c-0.105,0.373-0.23,0.744-0.375,1.107c-0.186-0.011-0.367-0.019-0.547-0.021c-0.534-0.969-1.267-1.862-1.529-2.952
		c0.361-0.072,0.816,0.096,1.104-0.197c0.221-1.131,0.563-2.242,0.66-3.394c-0.953-0.151-1.879-0.434-2.828-0.598
		c-0.539,2.809-1.125,5.608-1.645,8.422c-0.48-0.444-0.947-0.901-1.408-1.364c0.033-0.58,0.121-1.15,0.281-1.706
		c-1.082,0.318-2.396,0.474-3.328-0.294c-1.232-1.051-1.729-2.75-1.775-4.318c0.803-0.021,1.631-0.026,2.403-0.281
		c0.54-0.438,0.099-1.219-0.3-1.598c-1.172-0.321-2.393-0.4-3.59-0.604c-0.439,2.802-0.904,5.604-1.332,8.409
		c-0.553-0.391-1.07-0.825-1.531-1.315c0.063-0.528,0.172-1.051,0.268-1.571c-0.98,0.252-2.121,0.498-3.039-0.065
		c-0.787-0.456-1.27-1.263-1.647-2.062c-0.088,0.479-0.188,0.957-0.256,1.442c-0.964,0.397-2.044,0.772-3.08,0.429
		c-1.399-0.351-2.656-1.74-2.413-3.24c0.156-0.711,0.771-1.162,1.406-1.426c-0.52-0.41-1.045-0.875-1.235-1.533
		c-0.25-1.476,1.554-2.771,2.886-2.14c0.914,0.325,1.791,1.433,1.245,2.405c-0.393,0.574-1.141,0.729-1.793,0.736
		c0.029,0.146,0.062,0.295,0.093,0.449c0.426,0.021,0.853,0.021,1.275,0.084c0.521,0.381,0.432,1.16,0.648,1.719
		c-0.836-0.123-1.68-0.303-2.522-0.162c-0.392,0.152-0.903,0.492-0.782,0.982c0.295,0.498,0.903,0.65,1.444,0.687
		c1,0.018,1.931-0.431,2.772-0.931c-0.035-0.604-0.153-1.196-0.293-1.783c0.875-0.144,1.76-0.243,2.627-0.442
		c0.109-0.625-0.039-1.358-0.677-1.635c-0.669-0.14-1.344-0.226-2.022-0.267c-0.227-0.557-0.45-1.115-0.646-1.682
		c0.673,0.005,1.345,0.088,2.003,0.23c1.797,0.44,3.688,0.408,5.461,0.94c-0.611-1.303-1.231-2.668-2.314-3.651
		c-0.467-0.431-1.107-0.506-1.715-0.472C179.031,234,178.854,233.418,178.676,232.842 M173.361,238.391
		c-0.633,0.336-0.385,1.394,0.313,1.437c0.505,0.134,1.142-0.242,1.052-0.812C174.775,238.361,173.84,237.963,173.361,238.391
		 M179.396,239.584c0.645,0.686,1.201,1.578,1.076,2.561c0.002,0.383-0.39,0.612-0.711,0.726c-0.554,0.101-1.162-0.022-1.658,0.303
		c-0.49,0.408-0.045,1.103,0.459,1.248c1.186,0.274,2.418-0.038,3.465-0.618c0.217-1.205,0.424-2.414,0.565-3.63
		C181.521,240.012,180.475,239.721,179.396,239.584 M188.975,241.291c0.603,0.794,0.938,1.813,0.659,2.801
		c-0.558,0.516-1.354,0.328-2.036,0.43c-0.236,0.129-0.397,0.353-0.578,0.547c0.178,0.41,0.451,0.808,0.908,0.94
		c0.891,0.157,1.826,0.069,2.664-0.282c0.316-0.14,0.771-0.274,0.797-0.687c0.178-1.052,0.391-2.097,0.6-3.144
		C190.99,241.66,190.02,241.257,188.975,241.291 M198.232,243.205c-0.221,1.179-0.572,2.336-0.654,3.538
		c0.838,0.261,1.705,0.423,2.574,0.563c-0.021,0.342-0.062,0.688-0.072,1.041c0.299-1.453,0.682-2.89,1.052-4.326
		C200.146,243.802,199.257,243.257,198.232,243.205z"/>
</g>
<g id="_x23_231f1eff">
	<path id="path4066" d="M93.337,48.226c0.153-1.114,1.319-1.751,2.366-1.696c0.153,0.28,0.3,0.563,0.45,0.848
		c-0.53,0.163-1.035,0.396-1.474,0.734c0.003,0.371-0.08,0.792,0.162,1.113c0.361,0.59,1.097,0.691,1.703,0.88
		c-0.439,0.212-0.878,0.601-1.401,0.455C94.132,50.264,93.314,49.3,93.337,48.226z"/>
	<path id="path4068" d="M154.854,179.068c1.701-0.865,3.613-1.33,5.525-1.308c-0.004,0.412-0.002,0.826-0.01,1.242
		c-1.615-0.096-3.188,0.364-4.633,1.047C155.309,179.982,155.132,179.389,154.854,179.068z"/>
	<path id="path4070" d="M141.033,181.729c1.063,0.177,2.063,0.625,2.986,1.172c-0.298,0.342-0.594,0.686-0.901,1.019
		c-0.821-0.455-1.707-0.769-2.58-1.101C140.705,182.455,140.863,182.088,141.033,181.729z"/>
</g>
<g id="_x23_231e1bff">
	<path id="path4073" d="M194.366,47.346c0.554,0.211,1.094,0.461,1.644,0.689c-0.656,1.988-1.789,3.785-2.461,5.769
		c-0.389,1.538,2.211,2.606,2.942,1.155c0.913-1.811,1.663-3.702,2.577-5.514c0.545,0.253,1.09,0.511,1.629,0.783
		c-0.659,1.649-1.463,3.236-2.176,4.863c-0.358,0.826-0.883,1.673-1.754,2.028c-1.054,0.484-2.244,0.088-3.22-0.394
		c-1.055-0.518-1.962-1.559-1.948-2.78c0.162-1.283,0.889-2.389,1.375-3.561C193.443,49.373,193.887,48.351,194.366,47.346z"/>
	<path id="path4075" d="M209.717,55.434c1.801,1.135,3.629,2.24,5.357,3.481c-0.286,0.401-0.559,0.811-0.83,1.222
		c-1.326-0.75-2.531-1.696-3.887-2.391c-0.32,0.476-0.619,0.965-0.933,1.446c1.161,0.79,2.365,1.514,3.541,2.286
		c-0.262,0.415-0.5,0.846-0.807,1.228c-0.263,0.049-0.443-0.198-0.653-0.3c-0.845-0.554-1.691-1.104-2.544-1.647
		c-0.146-0.073-0.34-0.266-0.472-0.068c-0.426,0.538-0.735,1.153-1.11,1.724c1.362,0.817,2.681,1.712,4.039,2.536
		c-0.271,0.436-0.539,0.872-0.806,1.309c-1.143-0.623-2.187-1.406-3.301-2.075c-0.766-0.486-1.555-0.939-2.268-1.5
		C206.632,60.287,208.123,57.826,209.717,55.434z"/>
	<path id="path4077" d="M221.432,75.353c2.014-2.083,3.984-4.207,5.996-6.293c1.475,1.413,2.973,2.804,4.447,4.217
		c-0.314,0.394-0.646,0.773-0.979,1.149c-1.156-0.854-2.056-1.995-3.156-2.906c-0.594,0.257-0.926,0.884-1.358,1.338
		c0.884,0.901,1.813,1.754,2.731,2.62c-0.356,0.387-0.729,0.759-1.117,1.113c-0.862-0.906-1.797-1.74-2.703-2.599
		c-0.896,0.818-1.658,1.768-2.525,2.613C222.324,76.184,221.871,75.776,221.432,75.353z"/>
	<path id="path4079" d="M237.484,208.618c0.181-0.563,0.578-1.022,0.873-1.528c0.773,0.49,1.543,0.984,2.313,1.48
		c0.793,0.574,1.83,0.199,2.729,0.424c1.289,0.053,2.57,0.162,3.854,0.258c-0.356,0.582-0.729,1.156-1.065,1.75
		c-1.387-0.009-2.744-0.33-4.121-0.395c0.697,1.148,1.443,2.271,2.166,3.406c-0.365,0.579-0.723,1.166-1.139,1.711
		c-0.861-1.574-1.765-3.125-2.621-4.703C239.893,209.793,238.365,209.557,237.484,208.618z"/>
</g>
<g id="_x23_232021ff">
	<path id="path4082" d="M79.002,58.41c0.371-0.359,0.771-0.7,1.226-0.95c0.41,0.147,0.516,0.662,0.774,0.978
		c-0.441,0.293-0.88,0.585-1.316,0.884C79.458,59.016,79.232,58.71,79.002,58.41z"/>
</g>
<g id="_x23_fcfcfbff">
</g>
<g id="_x23_231d1bff">
	<path id="path4086" d="M219.01,63.927c2.258-0.84,4.891,0.842,5.405,3.122c0.321,1.007-0.044,2.078-0.526,2.969
		c-0.777,1.25-1.922,2.399-3.402,2.729c-2.282,0.396-4.594-1.438-4.932-3.688c-0.145-1.202,0.393-2.374,1.127-3.293
		C217.318,65.003,218.061,64.278,219.01,63.927 M219.871,65.528c-1.182,0.498-2.154,1.582-2.498,2.823
		c-0.348,1.122,0.475,2.321,1.54,2.658c0.792,0.179,1.646-0.04,2.249-0.585c0.85-0.743,1.598-1.754,1.633-2.924
		C222.689,66.125,221.205,65.063,219.871,65.528z"/>
</g>
<g id="_x23_fdfefdff">
</g>
<g id="_x23_211c19ff">
	<path id="path4090" d="M150.493,71.958c0.118-0.186,0.368-0.021,0.452,0.122c2.646,3.276,4.934,6.851,6.718,10.667
		c1.944-1.918,4.04-3.795,6.604-4.84c2.561-1.103,5.43-1.188,8.149-0.75c-1.097,3.268-1.942,6.667-2.021,10.127
		c2.627-1.936,5.799-3.349,9.117-3.257c0.98-0.019,2.062,0.019,2.871,0.649c-0.289,1.189-0.826,2.318-1.123,3.514
		c-0.457,1.696-0.771,3.429-1.01,5.168c1.88-0.96,3.955-1.458,6.027-1.802c1.76-0.156,3.629-0.089,5.248,0.688
		c0.422,0.257,1.134,0.595,0.953,1.194c-0.812,1.151-1.898,2.094-2.621,3.311c-0.955,1.596-1.607,3.351-2.154,5.12
		c1.722-0.84,3.586-1.446,5.518-1.484c2.129-0.078,4.398,0.017,6.27,1.154c0.9,0.425,1.669,1.16,1.904,2.156
		c-2.83,1.03-4.967,3.332-6.635,5.759c-1.986,2.893-3.572,6.029-5.391,9.026c-2.393,3.78-6.189,6.625-10.492,7.853
		c1.582,0.939,3.088,2.052,4.23,3.516c1.233,1.533,2.008,3.378,3.262,4.897c0.857,0.952,1.758,1.905,2.875,2.552
		c1.665,0.804,3.57,0.627,5.344,0.976c-0.184,1.677-1.268,3.064-2.25,4.372c-2.26,2.604-5.02,4.828-8.193,6.217
		c-3.387,1.33-7.117,1.641-10.705,1.13c-2.26-0.328-4.53-0.772-6.621-1.716c-0.986-0.484-2.049-1.086-2.416-2.195
		c-0.623,1.328-1.662,2.432-2.912,3.189c-1.967,1.172-4.202,1.797-6.442,2.182c-1.639,3.906-2.733,8.125-2.579,12.389
		c-0.076,2.375,0.213,4.742,0.787,7.045c1.715-0.644,3.473-1.201,5.292-1.449c2.331-0.432,4.722-0.383,7.083-0.28
		c3.623,0.504,6.98,2.051,10.501,2.964c3.021,0.842,6.212,0.777,9.294,0.345c0.245,0.191,0.389,0.479,0.555,0.738
		c3.99,6.7,7.979,13.401,11.969,20.104c0.212,0.369,0.48,0.715,0.633,1.119c-0.053,0.514-0.4,0.938-0.588,1.408
		c-0.725,1.628-1.445,3.344-1.383,5.159c-0.006,0.983,0.342,1.985,1.029,2.703c0.66,0.7,1.383,1.342,2.047,2.042
		c-13.729,0.195-27.457-0.075-41.187,0.014c-0.479,0.045-1.051-0.137-1.428,0.241c-2.188,1.96-5.194,2.935-8.116,2.778
		c-2.729,0.119-5.357-1.082-7.462-2.748c-0.203-0.155-0.422-0.327-0.694-0.289c-11.634,0.023-23.267,0.065-34.901,0.087
		c-2.082,0.12-4.167,0.075-6.25,0.069c0.625-1.127,1.781-2.104,1.681-3.502c0.088-1.18-0.474-2.265-1.019-3.267
		c-0.865-1.574-1.908-3.038-2.908-4.524c6.085-7.623,12.149-15.264,18.207-22.904c1.104,0.029,2.21,0.022,3.307,0.178
		c5.165,0.141,10.363-0.286,15.382-1.563c2.342-0.642,4.786-0.562,7.189-0.487c1.033,0.089,2.045,0.344,3.08,0.438
		c-0.276-1.896-0.606-3.8-0.587-5.724c-0.139-3.971,0.436-7.979,1.802-11.714c0.205-0.609,0.493-1.202,0.552-1.849
		c-0.91-0.061-1.766-0.396-2.626-0.666c-2.071-0.688-4.096-1.643-5.734-3.105c-0.776-0.642-1.378-1.465-2.191-2.063
		c-3.691,1.389-7.479,2.838-11.479,2.838c-1.658-0.016-3.357,0.11-4.96-0.404c-2.361-0.734-4.647-1.75-6.72-3.105
		c-1.359-0.866-2.52-2.005-3.615-3.179c-0.899-0.988-1.719-2.075-2.25-3.309c-0.188-0.481-0.249-1.196,0.349-1.399
		c1.279-0.609,2.567-1.32,3.438-2.478c0.958-1.125,1.465-2.538,2.336-3.724c1.208-1.847,2.728-3.463,4.368-4.932
		c-2.488-0.573-4.828-1.832-6.592-3.691c-1.833-1.728-2.889-4.068-3.953-6.304c-1.389-3.125-2.561-6.429-4.804-9.073
		c-0.741-0.83-1.597-1.561-2.557-2.125c-0.444-0.326-1.056-0.51-1.356-0.976c0.62-1.776,2.08-3.222,3.816-3.915
		c2.58-0.918,5.471-0.71,8.005,0.257c-0.538-1.516-1.116-3.028-1.915-4.429c-0.821-1.394-2.038-2.484-3.071-3.708
		c-0.246-0.3,0.028-0.649,0.311-0.788c1.936-1.156,4.328-1.243,6.503-0.885c2.528,0.556,4.962,1.813,6.662,3.797
		c0.035-1.813-0.382-3.597-0.742-5.363c-0.441-1.634-1.09-3.203-1.651-4.795c-0.085-0.243,0.194-0.396,0.361-0.505
		c0.967-0.314,1.997-0.253,3-0.281c3.132-0.073,6.142,1.274,8.564,3.189c0.613,0.458,1.099,1.056,1.558,1.662
		c0.469-2.606,0.785-5.24,1.048-7.874c0.146-1.392-0.472-2.694-0.575-4.061c1.469-0.068,2.946-0.016,4.394,0.257
		c2.539,0.609,5.031,1.611,7.066,3.28c1.018,0.854,1.886,1.876,2.625,2.979C145.766,78.498,147.927,75.066,150.493,71.958
		 M147.859,80.781c-1.509,2.46-2.668,5.122-3.632,7.837c-1.122,3.042-1.853,6.219-2.262,9.432c-0.309,2.219-0.253,4.463-0.202,6.696
		c0.34,4.12,1.314,8.257,3.377,11.872c1.092,1.857,2.768,3.41,4.809,4.153c0.425,0.175,0.919,0.213,1.354,0.033
		c2.156-0.793,3.838-2.604,4.758-4.681c1.369-3.099,2.242-6.404,2.697-9.758c0.239-2.3,0.446-4.622,0.26-6.934
		c-0.274-5.417-1.769-10.717-3.931-15.672c-1.062-2.406-2.496-4.663-4.403-6.488C149.552,78.272,148.654,79.507,147.859,80.781
		 M131.663,92.851c-0.576,3.974-1.149,8.016-0.585,12.026c0.698,3.673,2.238,7.205,4.545,10.152
		c1.535,1.785,3.368,3.438,5.622,4.236c1.083,0.309,2.162,0.689,3.289,0.807c-3.793-4.104-5.558-9.753-5.742-15.262
		c-0.264-6.078,1.031-12.126,3.106-17.814c0.077-0.215,0.064-0.452-0.014-0.66c-0.543-1.472-1.214-2.934-2.308-4.082
		c-1.611-1.707-3.613-3.203-5.974-3.622C133.37,83.418,132.42,88.128,131.663,92.851 M163.727,81.741
		c-1.734,1.214-3.475,2.554-4.588,4.391c0.029,0.514,0.338,0.988,0.469,1.49c1.498,4.708,2.465,9.628,2.324,14.587
		c0.125,4.517-0.746,9.052-2.531,13.205c-0.814,1.813-1.729,3.627-3.145,5.052c0.503,0.281,1.02,0.538,1.553,0.759
		c2.006-1.039,4-2.24,5.41-4.047c2.799-3.342,3.866-7.757,4.223-12.011c0.09-2.489,0.065-4.984-0.025-7.474
		c-0.208-1.264-0.075-2.554-0.292-3.816c-0.076-2.314-0.09-4.63-0.038-6.945c0.014-2.351,0.503-4.661,1.122-6.918
		C166.557,80.012,165.082,80.891,163.727,81.741 M120.238,85.908c0.003,1.512,0.46,2.984,0.616,4.486
		c0.191,2.224,0.019,4.463,0.202,6.689c0.056,1.951,0.226,3.896,0.458,5.833c0.406,2.599,0.844,5.236,1.967,7.639
		c1.344,2.891,3.193,5.583,5.568,7.722c1.969,1.859,4.586,2.897,7.222,3.359c1.142,0.387,2.373,0.332,3.563,0.266
		c-0.188-0.13-0.327-0.467-0.596-0.346c-1.427-0.892-2.925-1.708-4.17-2.857c-0.839-0.837-1.728-1.628-2.49-2.538
		c-1.891-2.422-3.325-5.222-3.991-8.229c-1.269-5.064-0.715-10.345,0.063-15.441c0.028-0.384,0.213-0.823-0.047-1.163
		c-1.288-2.118-3.078-4.012-5.375-5.028C122.325,85.854,121.205,85.538,120.238,85.908 M171.322,90.561
		c-0.334,0.38-0.982,0.643-0.941,1.228c0.006,1.408,0.01,2.821,0.16,4.222c0.063,0.851-0.014,1.71,0.152,2.552
		c0.097,1.154,0.029,2.314,0.043,3.472c0.039,0.872-0.184,1.726-0.168,2.597c-0.188,2.46-0.646,4.905-1.408,7.252
		c-0.922,2.734-2.37,5.295-4.247,7.488c-0.845,0.991-1.951,1.701-2.917,2.563c2.055,0.162,3.975-0.849,5.658-1.917
		c2.666-1.672,4.477-4.384,5.781-7.188c1.582-3.27,2.328-6.856,2.856-10.426c0.667-4.186,0.908-8.427,1.625-12.605
		c0.167-0.861,0.203-1.747,0.117-2.618C175.493,87.514,173.16,88.802,171.322,90.561 M109.2,92.415
		c0.274,1.073,1.068,1.908,1.522,2.903c1.097,1.929,1.649,4.088,2.231,6.211c1.186,4.042,2.269,8.143,4.016,11.988
		c0.939,1.908,2.231,3.635,3.762,5.107c1.7,1.731,3.719,3.219,6.048,3.969c1.78,0.578,3.648,1.135,5.537,0.976
		c-0.778-0.587-1.682-0.974-2.478-1.536c-4.208-2.715-7.297-6.926-9.189-11.518c-1.253-3.08-1.856-6.385-2.144-9.686
		c-0.085-1.181,0.061-2.387-0.238-3.545c-0.917-1.353-2.108-2.531-3.464-3.441C113.174,92.726,111.167,92.213,109.2,92.415
		 M181.368,95.932c-0.524,0.313-1.124,0.556-1.511,1.045c-0.599,4.208-1.228,8.422-2.262,12.548
		c-0.373,1.609-1.009,3.148-1.771,4.609c-0.869,1.78-1.906,3.479-3.102,5.059c-1.123,1.516-2.63,2.684-4.144,3.785
		c1.272-0.082,2.512-0.451,3.708-0.876c2.615-1.045,4.559-3.217,6.24-5.397c1.189-1.624,2.396-3.259,3.229-5.103
		c1.627-3.703,2.398-7.696,3.62-11.537c0.411-1.293,1.022-2.509,1.67-3.698c0.354-0.66,0.819-1.283,0.972-2.033
		C185.682,93.988,183.389,94.835,181.368,95.932 M102.774,101.984c-0.351,0.052-0.594,0.304-0.84,0.531
		c0.962,1.397,2.38,2.422,3.228,3.912c2.088,3.517,3.217,7.51,5.29,11.038c1.266,2.134,3.134,3.95,5.417,4.96
		c2.226,1.024,4.726,1.212,7.144,1.064c-2.922-1.664-5.389-4.063-7.255-6.847c-0.95-1.41-1.557-3.011-2.142-4.596
		c-0.891-2.299-1.495-4.691-2.188-7.052c-0.259-0.854-1.068-1.363-1.74-1.875C107.698,101.728,105.101,101.394,102.774,101.984
		 M190.009,104.38c-1.481,0.747-2.712,1.897-3.768,3.16c-0.472,0.526-0.64,1.224-0.864,1.873c-0.768,2.222-1.695,4.415-3.068,6.337
		c-1.283,1.768-2.608,3.514-4.172,5.043c-1.177,1.215-2.498,2.316-4.008,3.092c-0.346,0.113-0.654,0.304-0.93,0.537
		c0.973,0.149,1.963,0.153,2.943,0.066c0.848-0.094,1.726-0.181,2.488-0.595c1.846-0.582,3.54-1.582,5.114-2.691
		c2.381-2.04,4.017-4.777,5.514-7.495c0.804-1.606,1.599-3.219,2.488-4.779c0.636-1.191,1.315-2.363,2.183-3.403
		c0.484-0.686,1.187-1.285,1.34-2.149C193.465,103.128,191.615,103.55,190.009,104.38 M148.165,123.868
		c-1.175,0.149-2.358,0.326-3.462,0.779c-2.643,0.941-4.658,3.066-6.128,5.391c-1.075,1.505-1.63,3.441-1.208,5.271
		c0.674,3.335,4.092,5.708,7.425,5.538c1.847-0.048,3.649-0.626,5.295-1.439c0.286-0.148,0.665-0.302,0.942-0.043
		c2.881,2.188,7.223,2.25,10.111,0.042c1.195-0.818,2.043-2.103,2.332-3.521c0.407-1.785-0.156-3.626-0.949-5.224
		c-2.053-3.832-6.082-6.571-10.431-6.943C150.783,123.609,149.476,123.837,148.165,123.868 M123.988,126.365
		c-1.319,0.116-2.628,0.387-3.882,0.816c-2.415,1.005-4.045,3.184-5.434,5.307c-1.234,1.792-2.276,3.745-3.837,5.287
		c3.231,1.012,6.667,0.786,9.997,0.559c1.868-0.255,3.753-0.474,5.554-1.059c2.519-0.752,4.853-2.063,6.908-3.689
		c0.908-0.876,1.427-2.056,2.003-3.158c0.814-1.531,1.524-3.188,2.891-4.327c-2.314-0.003-4.625-0.082-6.938-0.059
		C128.826,126.066,126.387,125.969,123.988,126.365 M163.631,126.418c0.713,1.681,1.762,3.198,2.398,4.913
		c0.744,1.747,1.011,3.647,1.074,5.533c0.105,0.857,0.332,1.854,1.158,2.304c1.739,0.951,3.614,1.626,5.506,2.21
		c3.146,1.014,6.504,1.226,9.785,0.991c2.139-0.196,4.307-0.783,6.024-2.12c-1.377-0.774-2.769-1.587-3.88-2.724
		c-2.1-2.401-3.604-5.26-5.76-7.618c-0.924-1.059-2.135-1.914-3.522-2.217c-1.688-0.575-3.501-0.215-5.233-0.517
		C168.648,127.092,166.145,126.7,163.631,126.418 M132.924,138.068c-0.026,1.411-0.009,2.826-0.004,4.239
		c0.479-0.361,1.158-0.528,1.474-1.054c0.045-1.262-0.106-2.524-0.109-3.787C133.821,137.643,133.359,137.83,132.924,138.068
		 M129.686,139.167c-0.182,0.179-0.054,0.478-0.092,0.707c0.012,1.405-0.003,2.809,0.01,4.212c0.478-0.184,0.96-0.366,1.406-0.622
		c0.259-0.095,0.162-0.42,0.193-0.625c-0.005-1.385-0.005-2.769-0.009-4.153C130.684,138.823,130.17,138.957,129.686,139.167
		 M126.279,139.969c0.004,1.7-0.003,3.399,0.012,5.099c0.523-0.103,1.039-0.236,1.566-0.325c0.021-1.675-0.001-3.351,0.012-5.026
		C127.333,139.771,126.806,139.861,126.279,139.969 M122.821,140.646c0.028,1.576,0.005,3.154,0.017,4.731
		c0.573-0.005,1.148-0.02,1.724-0.04c0.019-1.677,0.003-3.354-0.002-5.03C123.978,140.404,123.394,140.502,122.821,140.646
		 M111.984,140.703c0.682,0.818,1.484,1.518,2.344,2.146c0.026-0.613,0.016-1.228,0.026-1.84
		C113.559,140.957,112.764,140.868,111.984,140.703 M116.076,141.038c-0.003,0.934,0.002,1.868-0.007,2.802
		c0.549,0.266,1.111,0.503,1.689,0.703c0.007-1.137,0.029-2.276,0.005-3.413C117.248,140.92,116.63,141.09,116.076,141.038
		 M119.493,140.993c0.01,1.376-0.042,2.755,0.022,4.132c0.538,0.031,1.078,0.069,1.618,0.106c0.001-1.462-0.011-2.925,0.007-4.385
		C120.587,140.844,120.037,140.887,119.493,140.993 M138.328,141.818c0,0.616-0.05,1.236,0.014,1.852
		c0.438,0.523,0.95,0.978,1.462,1.426c0.052-0.832,0.019-1.665,0.042-2.497C139.323,142.37,138.802,142.135,138.328,141.818
		 M161.271,142.356c-0.092,1.309-0.037,2.632-0.019,3.944c0.581-0.465,1.281-0.876,1.628-1.561
		c-0.078-0.992-0.091-1.984-0.081-2.976C162.288,141.958,161.768,142.127,161.271,142.356 M167.092,141.938
		c-0.031,1.009,0.008,2.019-0.016,3.029c0.605,0.445,1.258,0.828,1.945,1.141c-0.039-1.086,0.095-2.205-0.07-3.269
		C168.359,142.482,167.729,142.201,167.092,141.938 M150.123,142.967c-0.38,0.238-0.71,0.582-0.677,1.066
		c-0.03,1.628-0.033,3.26-0.033,4.891c0.66,0.389,1.513,0.186,2.253,0.277c0.012-0.965,0.02-1.93,0.023-2.896
		c-0.024-0.924,0.156-1.842,0.08-2.764C151.369,143.153,150.672,142.438,150.123,142.967 M141.743,142.882
		c-0.011,1.222-0.028,2.444-0.016,3.668c0.583,0.328,1.177,0.643,1.772,0.95c0.01-1.45,0.002-2.899-0.021-4.349
		C142.889,143.143,142.307,143.045,141.743,142.882 M157.543,142.965c0.012,1.753-0.006,3.509,0.014,5.264
		c0.601-0.15,1.188-0.354,1.764-0.588c0.013-1.636,0.021-3.271-0.008-4.907C158.729,142.859,158.139,142.938,157.543,142.965
		 M153.674,143.436c-0.164,1.856-0.049,3.726-0.102,5.589c0.697-0.008,1.371-0.18,2.062-0.256c0.017-1.84-0.003-3.681,0.011-5.52
		C154.984,143.271,154.322,143.311,153.674,143.436 M145.389,143.422c0.007,1.609,0.018,3.221,0.021,4.83
		c0.693,0.199,1.389,0.398,2.109,0.48c0.04-1.708,0.128-3.412,0.097-5.122C146.873,143.54,146.135,143.427,145.389,143.422
		 M170.759,143.647c0,1-0.022,2.002,0.011,3.002c0.537,0.418,1.267,0.42,1.912,0.522c0-0.981,0.012-1.96-0.01-2.941
		C172.021,144.082,171.396,143.84,170.759,143.647 M184.254,144.537c-0.004,0.488,0.003,0.976,0.02,1.465
		c1.108-0.615,2.127-1.387,3.052-2.255C186.309,144.038,185.293,144.349,184.254,144.537 M174.393,144.764
		c0.008,0.933,0.008,1.867,0.015,2.8c0.625,0.045,1.245,0.113,1.868,0.211c-0.037-0.965,0.125-1.956-0.125-2.901
		C175.563,144.865,174.977,144.819,174.393,144.764 M181.178,145.049c0.02,0.705,0.02,1.41,0.025,2.116
		c0.447-0.087,0.887-0.21,1.33-0.325c-0.002-0.679,0-1.356-0.008-2.033C182.074,144.887,181.627,144.976,181.178,145.049
		 M178,145.143c0.007,0.88-0.009,1.76,0.012,2.643c0.497-0.131,1.104-0.037,1.537-0.297c0.031-0.778-0.009-1.556,0.004-2.332
		C179.033,145.154,178.518,145.149,178,145.143 M147.026,159.51c-0.5,3.952-0.251,7.988,0.674,11.861
		c0.732,0.381,1.415,0.848,2.134,1.252c0.293-0.105,0.564-0.264,0.84-0.406c-0.714-2.851-1.134-5.781-1.09-8.724
		c0.038-4,0.868-7.976,2.295-11.71c-0.87-0.002-1.747,0.02-2.601-0.165C148.182,154.134,147.432,156.799,147.026,159.51
		 M151.301,174.283c0.004,1.729-0.209,3.451-0.197,5.182c-0.125,1.154-0.158,2.313-0.188,3.475
		c-0.197,1.555-0.066,3.131-0.268,4.685c-0.056,1.04-0.023,2.084-0.088,3.123c-0.122,0.985-0.161,1.985-0.128,2.979
		c0.162,0.379,0.613,0.308,0.875,0.074c2.832-1.994,6.199-3.107,9.606-3.6c3.577-0.426,7.203-0.283,10.776,0.111
		c4.014,0.479,7.974,1.301,11.959,1.953c3.892,0.723,7.846,1.284,11.813,0.981c-3.151-5.255-6.267-10.533-9.407-15.793
		c-0.574-0.901-1.029-1.883-1.688-2.722c-1.726,0.197-3.468,0.162-5.2,0.105c-3.514-0.352-6.799-1.713-10.148-2.729
		c-1.769-0.563-3.611-0.978-5.476-0.916C159.293,171.107,154.939,172.021,151.301,174.283 M137.597,171.922
		c-2.043,0.111-3.986,0.816-5.993,1.15c-4.344,0.843-8.785,1.033-13.2,0.888c-0.571-0.04-1.142-0.159-1.715-0.092
		c-0.445,0.386-0.789,0.868-1.149,1.329c-4.764,6.025-9.571,12.015-14.323,18.047c2.2,0.072,4.41,0.093,6.598-0.172
		c3.614-0.381,7.188-1.062,10.776-1.625c4.588-0.781,9.207-1.57,13.875-1.525c1.753,0.023,3.519-0.061,5.257,0.209
		c3.656,0.422,7.247,1.659,10.271,3.779c-0.024-0.943,0.181-1.87,0.173-2.811c0.03-0.873-0.001-1.748,0.117-2.611
		c0.125-1.271,0-2.551,0.186-3.813c0.083-1.042,0.019-2.092,0.172-3.127c0.08-1.053,0.029-2.108,0.099-3.164
		c0.153-1.266,0.128-2.543,0.163-3.815c-1.647-1.152-3.509-2.047-5.519-2.314C141.486,171.814,139.529,171.857,137.597,171.922
		 M129.694,191.882c-5.845,0.354-11.573,1.663-17.361,2.484c-3.99,0.632-8.061,1.108-12.096,0.649
		c0.243,0.243,0.358,0.756,0.793,0.666c2.257,0.043,4.526,0.118,6.778-0.082c5.193-0.375,10.33-1.271,15.478-2.027
		c1.897-0.275,3.792-0.607,5.708-0.709c1.321-0.205,2.664-0.098,3.992-0.238c1.224,0.115,2.46,0.045,3.68,0.223
		c3.262,0.295,6.535,1.17,9.304,2.967c0.354,0.256,0.569-0.297,0.816-0.477c-0.945-0.561-1.87-1.156-2.88-1.594
		c-3.462-1.598-7.328-1.984-11.094-2.021C131.766,191.665,130.738,191.898,129.694,191.882 M152.156,195.457
		c0.361,0.427,0.693,0.878,1.054,1.311c2.542-1.896,5.571-3.078,8.677-3.651c4.104-0.705,8.313-0.461,12.42,0.098
		c4.043,0.568,8.039,1.405,12.077,2.002c3.007,0.507,6.063,0.623,9.109,0.459c0.278-0.009,0.378-0.344,0.563-0.509
		c-1.06-0.021-2.115,0.07-3.176,0.045c-2.396,0.012-4.783-0.281-7.145-0.691c-3.815-0.566-7.592-1.359-11.403-1.941
		c-3.912-0.6-7.888-0.911-11.84-0.613C158.826,192.219,155.201,193.373,152.156,195.457 M118.583,195.732
		c-3.846,0.558-7.7,1.088-11.578,1.353c-1.802,0.003-3.606,0.063-5.408,0.005c0.022,0.075,0.069,0.227,0.094,0.303
		c0.566,0.076,1.134,0.258,1.712,0.185c6.672,0.434,13.228-1.088,19.798-1.974c4.214-0.586,8.49-1.021,12.743-0.619
		c3.177,0.271,6.309,1.097,9.181,2.492c0.054-0.143,0.111-0.283,0.168-0.42c-2.868-1.892-6.318-2.644-9.696-2.914
		c-2.083-0.039-4.175-0.1-6.253,0.072C125.734,194.547,122.167,195.203,118.583,195.732 M154.002,197.916
		c0.137,0.213,0.281,0.421,0.434,0.627c2.385-1.42,4.994-2.48,7.715-3.049c4.606-1.016,9.389-0.73,14.019-0.023
		c6.272,0.801,12.552,2.594,18.916,1.739c-0.008-0.034-0.021-0.103-0.028-0.136c-1.172,0.234-2.377,0.227-3.562,0.098
		c-6.72-0.375-13.254-2.189-19.94-2.855c-2.138-0.284-4.3-0.207-6.449-0.176C161.172,194.422,157.207,195.557,154.002,197.916
		 M145.193,202.373c-0.233,0.857-0.599,1.915,0.035,2.689c0.679,0.976,1.95,1.129,3.042,1.225c1.596,0.025,3.333,0.126,4.757-0.723
		c0.384-0.338,0.967-0.685,0.927-1.256c0.088-1.166-0.41-2.252-0.892-3.277c-0.926-1.896-2.209-3.594-3.66-5.116
		C147.634,197.783,146.012,199.904,145.193,202.373 M156.391,199.078c-0.447,0.26-0.976,0.436-1.309,0.854
		c0.072,0.349,0.434,0.389,0.706,0.238c3.005-1.33,6.208-2.248,9.483-2.574c1.836-0.289,3.705-0.184,5.561-0.209
		c2.561-0.031,5.1,0.305,7.641,0.559c3.568,0.341,7.068,1.185,10.631,1.574c1.703,0.211,3.459,0.279,5.144-0.11
		c0.375-0.029,0.431-0.461,0.521-0.745c-4.922,0.585-9.834-0.366-14.678-1.145c-4.262-0.713-8.57-1.422-12.906-1.237
		C163.447,196.46,159.705,197.309,156.391,199.078 M123.832,196.943c-3.588,0.519-7.168,1.084-10.753,1.621
		c-1.217,0.094-2.429,0.242-3.646,0.319c-2.297,0.259-4.611,0.068-6.911,0.104c0.997,0.361,2.088,0.441,3.137,0.488
		c1.583,0.146,3.167,0.265,4.758,0.229c3.596,0.081,7.17-0.417,10.693-1.103c2.031-0.432,4.069-0.861,6.143-1.033
		c1.607-0.252,3.245-0.141,4.866-0.151c3.232,0.136,6.401,0.881,9.505,1.756c0.714,0.195,1.408,0.49,2.149,0.578
		c0.156-0.373,0.339-0.731,0.499-1.103c-2.545-1.264-5.351-1.918-8.162-2.239c-1.965-0.124-3.934-0.086-5.899-0.066
		C128.069,196.359,125.951,196.686,123.832,196.943 M122.236,199.813c-4.054,0.857-8.186,1.443-12.339,1.303
		c-2.201,0.068-4.375-0.262-6.561-0.451c0.007,0.105,0.021,0.316,0.028,0.424c3.644,0.583,7.359,0.862,11.045,0.532
		c4.37-0.157,8.647-1.287,13.021-1.409c2.087-0.021,4.184-0.091,6.262,0.15c2.038,0.16,4.05,0.563,6.059,0.938
		c1.067,0.201,2.097,0.593,3.179,0.714c0.029-0.31,0.063-0.615,0.095-0.919c-3.2-1.045-6.497-1.837-9.849-2.178
		C129.507,198.541,125.828,199.08,122.236,199.813 M167.463,198.818c-3.959,0.232-7.893,1.142-11.5,2.811
		c0.01,0.234,0.023,0.469,0.044,0.706c1.505-0.396,2.987-0.886,4.519-1.179c3.892-0.883,7.894-1.188,11.875-1.057
		c1.267,0.151,2.55,0.057,3.814,0.236c3.898,0.214,7.75,0.864,11.633,1.25c1.793,0.073,3.592,0.083,5.387,0.003
		c0.416-0.047,0.863-0.08,1.244-0.266c0.013-0.119,0.031-0.357,0.043-0.478c-0.668,0.033-1.313,0.225-1.979,0.23
		c-4.069,0.162-8.034-0.959-12.048-1.447c-1.939-0.247-3.885-0.452-5.828-0.643C172.273,198.729,169.863,198.768,167.463,198.818
		 M120.528,202.375c-5.596,0.951-11.337,1.087-16.953,0.219c-0.071,0.368-0.151,0.736-0.224,1.109
		c8.431-0.018,16.863-0.027,25.295-0.051c2.141-0.036,4.286,0.067,6.422-0.101c1.972,0.001,3.944-0.012,5.917-0.01
		c0.583-0.024,1.106,0.278,1.607,0.541c-0.007-0.229-0.012-0.455-0.019-0.678c-1.861-0.341-3.673-0.91-5.548-1.177
		c-3.854-0.668-7.793-0.811-11.688-0.461C123.726,201.882,122.13,202.17,120.528,202.375 M157.9,203.295
		c-0.412-0.014-0.784,0.198-1.159,0.337c2.844,0.063,5.69-0.013,8.536,0.015c9.926-0.012,19.852,0.125,29.774,0.017
		c-0.114-0.296-0.225-0.588-0.341-0.877c-0.546,0.135-1.1,0.224-1.658,0.229c-2.027,0.045-4.06,0.059-6.08-0.057
		c-5.697-0.786-11.42-1.507-17.183-1.404C165.768,201.51,161.759,202.17,157.9,203.295z"/>
</g>
<g id="_x23_231f1cff">
	<path id="path4093" d="M232.889,87.644c2.348-1.679,4.676-3.385,7.055-5.019c1.209,1.734,2.482,3.427,3.65,5.193
		c-0.398,0.321-0.816,0.62-1.223,0.927c-0.875-1.245-1.742-2.493-2.646-3.713c-0.554,0.248-1.004,0.662-1.498,1.005
		c0.598,0.739,1.098,1.55,1.674,2.305c0.246,0.367,0.574,0.703,0.699,1.139c-0.375,0.333-0.797,0.603-1.199,0.897
		c-0.771-1.132-1.553-2.255-2.365-3.356c-0.686,0.144-1.211,0.769-1.776,1.168c0.097,0.311,0.302,0.573,0.487,0.838
		c0.736,1.03,1.471,2.059,2.195,3.099c-0.455,0.215-0.832,0.842-1.353,0.768C235.357,91.146,234.105,89.404,232.889,87.644z"/>
	<path id="path4095" d="M33.691,142.418c1.497-0.92,2.941-1.925,4.458-2.814c0.029,0.384,0.061,0.768,0.111,1.151
		c-1.332,1.045-2.479,2.3-3.72,3.448C34.248,143.611,33.944,143.028,33.691,142.418z"/>
	<path id="path4097" d="M129.2,176.273c0.76-0.127,1.528-0.226,2.283-0.385c0.106,0.395,0.217,0.788,0.353,1.176
		c-0.835,0.151-1.675,0.302-2.528,0.271C129.274,176.979,129.238,176.627,129.2,176.273z"/>
	<path id="path4099" d="M166.398,184.189c1.067-0.012,2.093,0.3,3.14,0.465c-0.144,0.455-0.286,0.908-0.419,1.367
		c-0.984-0.146-1.951-0.398-2.939-0.521C166.24,185.061,166.324,184.625,166.398,184.189z"/>
	<path id="path4101" d="M129.931,184.865c0.969-0.285,1.978-0.439,2.986-0.497c0.096,0.466,0.164,0.938,0.21,1.413
		c-1.005,0.02-1.971,0.324-2.962,0.429C130.066,185.768,129.844,185.326,129.931,184.865z"/>
</g>
<g id="_x23_fbfbfaff">
</g>
<g id="_x23_fefefeff">
</g>
<g id="_x23_23211fff">
	<path id="path4106" d="M49.226,93.436c0.443-0.074,0.743,0.384,1.101,0.577c-0.298,0.434-0.588,0.875-0.87,1.321
		c-0.347-0.207-0.688-0.42-1.026-0.636C48.668,94.26,48.913,93.825,49.226,93.436z"/>
</g>
<g id="_x23_fcfbfaff">
</g>
<g id="_x23_221e1cff">
	<path id="path4110" d="M39.012,113.281c0.809-1.297,2.313-1.938,3.741-2.292c0.59-0.118,1.221-0.365,1.811-0.111
		c-0.184,0.391-0.306,0.807-0.414,1.228c-1.229,0.266-2.618,0.42-3.528,1.389c-0.563,0.608-0.821,1.762-0.064,2.318
		c0.71,0.208,1.438-0.019,2.104-0.266c-0.228,0.516-0.37,1.085-0.694,1.55c-0.951,0.785-2.568,0.535-3.158-0.583
		C38.2,115.507,38.526,114.268,39.012,113.281z"/>
	<path id="path4112" d="M139.34,178.121c1.948-0.081,3.851,0.498,5.58,1.355c-0.269,0.34-0.479,0.752-0.84,1
		c-0.703-0.259-1.367-0.627-2.096-0.808c-0.873-0.272-1.788-0.319-2.686-0.453C139.314,178.852,139.328,178.486,139.34,178.121z"/>
	<path id="path4114" d="M130.597,181.869c0.991-0.16,1.965-0.469,2.981-0.461c0.076,0.404,0.167,0.811,0.226,1.223
		c-0.942,0.061-1.854,0.326-2.788,0.449C130.87,182.678,130.731,182.271,130.597,181.869z"/>
	<path id="path4116" d="M250.043,181.729c1.313,0.261,2.547,0.808,3.822,1.203c1.472,0.514,2.965,0.959,4.42,1.521
		c-0.294,0.797-0.578,1.599-0.785,2.424c-2.182,0.004-4.324-0.542-6.507-0.418c0.95,0.813,2.099,1.348,3.142,2.034
		c0.744,0.472,1.499,0.929,2.271,1.356c-0.193,0.879-0.54,1.715-0.816,2.569c-2.717-0.944-5.449-1.853-8.177-2.771
		c0.14-0.559,0.333-1.104,0.569-1.627c2.242,0.758,4.481,1.521,6.725,2.279c-2.055-1.33-4.2-2.512-6.247-3.854
		c0.175-0.576,0.374-1.146,0.601-1.701c2.355,0.259,4.707,0.643,7.076,0.74c-2.213-0.703-4.4-1.486-6.611-2.2
		C249.691,182.766,249.865,182.244,250.043,181.729z"/>
	<path id="path4118" d="M175.111,183.783c0.055-0.385,0.137-0.762,0.193-1.141c1.092,0.178,2.188,0.272,3.286,0.401
		c0.302,0.271,0.063,0.84,0.149,1.228c-0.967,0.057-1.913-0.146-2.868-0.244C175.616,183.963,175.297,183.99,175.111,183.783z"/>
	<path id="path4120" d="M124.451,185.668c1.249-0.049,2.467-0.365,3.714-0.438c0.085,0.435,0.207,0.858,0.293,1.295
		c-1.268,0.268-2.554,0.475-3.847,0.543C124.557,186.6,124.498,186.134,124.451,185.668z"/>
	<path id="path4122" d="M181.799,187.861c0.098-0.465,0.213-0.924,0.301-1.389c1.188,0.264,2.4,0.422,3.623,0.396
		c0,0.468-0.01,0.937-0.01,1.405C184.396,188.271,183.072,188.219,181.799,187.861z"/>
	<path id="path4124" d="M122.038,247.73c0.788-0.375,1.715-0.465,2.543-0.162c1.443,0.512,2.571,1.588,3.708,2.57
		c0.321,0.192,0.122,0.838-0.281,0.608c-0.99-0.717-1.986-1.541-3.229-1.746c-0.605-0.112-1.211,0.074-1.813,0.024
		C122.603,248.637,122.318,248.182,122.038,247.73z"/>
</g>
<g id="_x23_fdfdfcff">
</g>
<g id="_x23_9b9896ff">
	<path id="path4128" d="M139.238,121.557c0.269-0.122,0.408,0.215,0.596,0.346c-1.189,0.066-2.42,0.122-3.563-0.266
		C137.257,121.736,138.272,121.861,139.238,121.557z"/>
</g>
<g id="_x23_827f7dff">
	<path id="path4131" d="M173.199,124.422c0.275-0.232,0.584-0.424,0.93-0.537c-0.059,0.108-0.17,0.325-0.227,0.434
		c1.591,0.124,3.174-0.113,4.729-0.427c-0.764,0.415-1.643,0.501-2.488,0.595C175.162,124.575,174.172,124.571,173.199,124.422z"/>
</g>
<g id="_x23_fdfefeff">
</g>
<g id="_x23_fcfcfcff">
</g>
<g id="_x23_fdfdfdff">
</g>
<g id="_x23_fefefcff">
</g>
<g id="_x23_fefefdff">
</g>
<g id="_x23_fcfbf8ff">
</g>
<g id="_x23_fdfcfcff">
</g>
<g id="_x23_fefffeff">
</g>
<g id="_x23_fbfaf9ff">
</g>
<g id="_x23_fcfafbff">
</g>
<g id="_x23_fcfdfbff">
</g>
<g id="_x23_23211eff">
	<path id="path4145" d="M33.587,158.262c1.432-1.05,2.853-2.117,4.335-3.094c-0.012,0.352,0.116,0.807-0.24,1.041
		c-1.149,1.081-2.219,2.25-3.446,3.244C34.035,159.045,33.816,158.65,33.587,158.262z"/>
</g>
<g id="_x23_22201eff">
	<path id="path4148" d="M34.924,160.693c0.957-1.202,1.891-2.439,2.988-3.521c0.029,0.835-0.417,1.563-0.753,2.297
		c-0.414,0.812-0.761,1.654-1.196,2.457C35.637,161.498,35.288,161.088,34.924,160.693z"/>
</g>
<g id="_x23_fefdfcff">
</g>
<g id="_x23_fefdfdff">
</g>
<g id="_x23_211d1dff">
	<path id="path4153" d="M159.256,174.504c0.885-0.044,1.77-0.006,2.657,0.033c-0.017,0.4-0.029,0.803-0.042,1.207
		c-0.768-0.045-1.534-0.039-2.301-0.059C159.256,175.412,159.354,174.884,159.256,174.504z"/>
</g>
<g id="_x23_211e1eff">
	<path id="path4156" d="M137.906,174.721c0.893-0.042,1.788-0.018,2.667,0.168c-0.055,0.361-0.12,0.723-0.189,1.084
		c-0.771-0.06-1.545-0.057-2.318-0.08C137.79,175.604,137.976,175.092,137.906,174.721z"/>
</g>
<g id="_x23_23201fff">
	<path id="path4159" d="M154.201,175.988c1.107-0.545,2.259-1.137,3.518-1.193c0.086,0.352,0.178,0.703,0.248,1.061
		c-1.035,0.267-2.051,0.617-2.986,1.136C154.719,176.656,154.462,176.318,154.201,175.988z"/>
	<path id="path4161" d="M124.705,179.588c1.116,0.03,2.21-0.236,3.324-0.246c0.02,0.404,0.047,0.813,0.063,1.221
		c-1.126,0.041-2.238,0.265-3.368,0.244C124.712,180.398,124.707,179.993,124.705,179.588z"/>
</g>
<g id="_x23_231e1dff">
	<path id="path4164" d="M132.988,175.602c1.057-0.246,2.118-0.481,3.194-0.627c0.09,0.377,0.179,0.754,0.249,1.14
		c-1.049,0.208-2.101,0.394-3.13,0.684C133.184,176.398,133.069,176.004,132.988,175.602z"/>
	<path id="path4166" d="M165.955,181.07c1.008,0.072,1.986,0.35,2.971,0.574c-0.138,0.414-0.289,0.825-0.447,1.235
		c-0.92-0.247-1.854-0.422-2.789-0.59C165.779,181.884,165.884,181.48,165.955,181.07z"/>
</g>
<g id="_x23_23201eff">
	<path id="path4169" d="M142.113,175.148c1.243,0.096,2.374,0.692,3.453,1.27c-0.26,0.307-0.423,0.736-0.795,0.924
		c-0.962-0.404-1.905-0.867-2.927-1.104C141.918,175.869,142.012,175.509,142.113,175.148z"/>
</g>
<g id="_x23_221d1dff">
	<path id="path4172" d="M172.365,176.381c0.98-0.008,1.928,0.313,2.912,0.27c0.008,0.406-0.002,0.813,0,1.224
		c-1.012-0.036-2.016-0.194-3.006-0.394C172.303,177.111,172.335,176.746,172.365,176.381z"/>
	<path id="path4174" d="M124.406,176.634c1.018-0.018,2.037-0.063,3.056-0.077c0.021,0.356,0.047,0.715,0.08,1.074
		c-1.042,0.137-2.088,0.209-3.139,0.186C124.399,177.418,124.403,177.025,124.406,176.634z"/>
</g>
<g id="_x23_221e1dff">
	<path id="path4177" d="M120.238,176.57c0.694,0.01,1.387,0.029,2.082,0.051c-0.001,0.396-0.005,0.794-0.01,1.193
		c-0.713,0.002-1.424-0.041-2.128-0.146C120.205,177.301,120.226,176.936,120.238,176.57z"/>
	<path id="path4179" d="M161.525,184.063c1.022-0.28,2.093-0.157,3.14-0.168c-0.022,0.467-0.069,0.935-0.132,1.398
		c-0.928-0.025-1.854,0.016-2.776,0.035C161.721,184.896,161.631,184.477,161.525,184.063z"/>
</g>
<g id="_x23_231e1eff">
	<path id="path4182" d="M177.102,178.121c0.066-0.418,0.207-0.818,0.377-1.203c0.697,0.189,1.422,0.205,2.141,0.18
		c0.011,0.398,0.021,0.801,0.027,1.203C178.791,178.322,177.947,178.195,177.102,178.121z"/>
</g>
<g id="_x23_201d1aff">
	<path id="path4185" d="M162.29,177.768c1.052-0.039,2.085,0.176,3.106,0.402c-0.103,0.354-0.197,0.712-0.269,1.074
		c-0.969-0.076-1.935-0.207-2.89-0.383C162.259,178.494,162.271,178.132,162.29,177.768z"/>
</g>
<g id="_x23_211e1dff">
	<path id="path4188" d="M134.393,178.365c1.007-0.141,2.014-0.283,3.029-0.367c0.007,0.398,0.021,0.805,0.037,1.207
		c-0.939,0.036-1.865,0.213-2.787,0.375C134.571,179.176,134.472,178.771,134.393,178.365z"/>
</g>
<g id="_x23_211f1cff">
	<path id="path4191" d="M167.064,178.445c0.99,0.048,1.955,0.303,2.929,0.477c0.063,0.4-0.128,0.793-0.175,1.193
		c-1.049-0.102-2.066-0.379-3.09-0.602C166.844,179.156,166.953,178.801,167.064,178.445z"/>
</g>
<g id="_x23_231f1dff">
	<path id="path4194" d="M129.717,179.068c1.014-0.027,1.981-0.402,2.997-0.428c0.096,0.377,0.189,0.754,0.25,1.139
		c-0.993,0.212-1.995,0.393-3.001,0.518C129.847,179.893,129.753,179.484,129.717,179.068z"/>
	<path id="path4196" d="M139.693,184.68c1.286,0.076,2.517,0.596,3.555,1.346c-0.324,0.336-0.62,0.699-0.948,1.031
		c-0.931-0.42-1.859-0.856-2.865-1.088C139.51,185.535,139.603,185.107,139.693,184.68z"/>
</g>
<g id="_x23_231d1fff">
	<path id="path4199" d="M171.781,179.165c1.111,0.101,2.221,0.233,3.324,0.399c-0.025,0.354-0.045,0.709-0.063,1.065
		c-1.17,0.062-2.324-0.127-3.481-0.244C171.618,179.979,171.691,179.568,171.781,179.165z"/>
</g>
<g id="_x23_211d1cff">
	<path id="path4202" d="M117.641,180.902c0.049-0.435-0.08-0.982,0.268-1.31c1.586,0.193,3.189,0.121,4.785,0.109
		c0.001,0.413,0.005,0.825,0.008,1.243C121.014,180.967,119.326,180.943,117.641,180.902z"/>
</g>
<g id="_x23_211e1cff">
	<path id="path4205" d="M177.18,179.824c1.471,0.109,2.932,0.386,4.412,0.297c0.088,0.436,0.105,0.879,0.109,1.324
		c-1.471,0-2.914-0.326-4.381-0.394C176.719,180.932,177.182,180.217,177.18,179.824z"/>
	<path id="path4207" d="M176.24,187.174c0.078-0.465,0.182-0.924,0.277-1.384c1.205,0.181,2.412,0.409,3.639,0.378
		c-0.006,0.467-0.01,0.936-0.006,1.406C178.837,187.576,177.533,187.379,176.24,187.174z"/>
</g>
<g id="_x23_221d1cff">
	<path id="path4210" d="M160.43,180.945c1.24-0.197,2.527-0.258,3.768-0.025c-0.067,0.408-0.133,0.82-0.203,1.229
		c-1.098-0.062-2.196-0.06-3.292,0.017C160.615,181.755,160.516,181.354,160.43,180.945z"/>
</g>
<g id="_x23_231d1dff">
	<path id="path4213" d="M135.363,181.145c1.231-0.02,2.478-0.102,3.696,0.146c-0.054,0.417-0.13,0.829-0.234,1.236
		c-1.071-0.086-2.143-0.055-3.213-0.063C135.288,182.119,135.354,181.58,135.363,181.145z"/>
</g>
<g id="_x23_231d1cff">
	<path id="path4216" d="M155.525,182.384c0.932-0.468,1.912-0.823,2.901-1.14c0.199,0.395,0.38,0.803,0.556,1.213
		c-0.922,0.229-1.765,0.709-2.67,0.951C155.984,183.118,155.762,182.743,155.525,182.384z"/>
</g>
<g id="_x23_221f1dff">
	<path id="path4219" d="M170.382,181.932c1.017,0.063,1.989,0.422,3.011,0.45c-0.033,0.405-0.072,0.813-0.094,1.222
		c-1.115,0.021-2.188-0.305-3.277-0.473C170.135,182.729,170.256,182.328,170.382,181.932z"/>
	<path id="path4221" d="M180.875,183.006c0.52,0.115,1.035,0.289,1.57,0.322c0.551-0.057,1.082-0.227,1.623-0.344
		c0.199,0.398,0.394,0.804,0.597,1.205c-1.386,0.434-2.903,0.58-4.276,0.016C180.541,183.801,180.71,183.402,180.875,183.006z"/>
</g>
<g id="_x23_211e1bff">
	<path id="path4224" d="M115.177,182.988c1.222,0.041,2.446,0.07,3.67,0.063c0.01,0.445,0.012,0.896,0.003,1.346
		c-1.247,0.06-2.481-0.137-3.724-0.151C115.143,183.824,115.165,183.404,115.177,182.988z"/>
	<path id="path4226" d="M119.009,186.174c1.283,0.043,2.54-0.258,3.821-0.242c0.057,0.457,0.144,0.91,0.196,1.371
		c-1.325,0.055-2.637,0.295-3.967,0.256C119.035,187.096,119.014,186.634,119.009,186.174z"/>
</g>
<g id="_x23_221f1eff">
	<path id="path4229" d="M120.738,183.051c1.167,0.041,2.313-0.223,3.479-0.23c-0.017,0.412,0.061,0.818,0.158,1.221
		c-1.153,0.177-2.316,0.21-3.467,0.388C120.752,183.982,120.743,183.512,120.738,183.051z"/>
</g>
<g id="_x23_22201dff">
	<path id="path4232" d="M156.031,185.652c1.066-0.73,2.313-1.301,3.629-1.293c0.092,0.455,0.156,0.912,0.182,1.379
		c-0.996,0.025-1.879,0.506-2.746,0.936C156.668,186.432,156.395,185.979,156.031,185.652z"/>
	<path id="path4234" d="M198.238,252.285c0.677-0.035,1.394-0.014,1.972,0.396c1.05,0.702,1.741,1.797,2.358,2.875
		c0.295,0.545,0.688,1.082,0.688,1.731c-0.176,0.019-0.35,0.038-0.521,0.062c-0.631-1.216-1.44-2.438-2.695-3.074
		c-0.417-0.234-0.906-0.227-1.354-0.356C198.443,253.402,198.355,252.834,198.238,252.285z"/>
</g>
<g id="_x23_d0d0ceff">
	<path id="path4237" d="M101.597,197.09c1.802,0.061,3.606-0.002,5.408-0.005c-1.208,0.099-2.417,0.229-3.603,0.491
		c-0.578,0.072-1.146-0.107-1.712-0.184C101.667,197.316,101.62,197.165,101.597,197.09z"/>
</g>
<g id="_x23_cbcac8ff">
	<path id="path4240" d="M109.432,198.885c1.217-0.078,2.429-0.227,3.646-0.32c-2.441,0.566-4.986,0.314-7.42,0.914
		c-1.049-0.047-2.141-0.127-3.137-0.489C104.821,198.953,107.135,199.143,109.432,198.885z"/>
</g>
<g id="_x23_fdfdfbff">
</g>
<g id="_x23_fbfafaff">
</g>
<g id="_x23_cec9c6ff">
	<path id="path4245" d="M156.741,203.632c0.375-0.139,0.747-0.351,1.159-0.337c1.701,0.178,3.414,0.098,5.121,0.113
		c2.256,0.004,4.514,0.007,6.77-0.004c1.622-0.016,3.24,0.117,4.861,0.113c1.852,0.002,3.703-0.007,5.555,0.063
		c4.947,0.115,9.896,0.006,14.846,0.08c-9.924,0.108-19.85-0.027-29.775-0.017C162.432,203.619,159.585,203.695,156.741,203.632z"/>
</g>
<g id="_x23_fcfcfaff">
</g>
<g id="_x23_fcfdfcff">
</g>
<g id="_x23_fdfcfbff">
</g>
<g id="_x23_fcfbf9ff">
</g>
</svg>
