<?xml version="1.0" encoding="utf-8"?>
<!-- Generator: Adobe Illustrator 16.0.0, SVG Export Plug-In . SVG Version: 6.00 Build 0)  -->
<!DOCTYPE svg PUBLIC "-//W3C//DTD SVG 1.1//EN" "http://www.w3.org/Graphics/SVG/1.1/DTD/svg11.dtd">
<svg version="1.1" id="Layer_1" xmlns="http://www.w3.org/2000/svg" xmlns:xlink="http://www.w3.org/1999/xlink" x="0px" y="0px"
	 width="750px" height="500px" viewBox="0 0 750 500" enable-background="new 0 0 750 500" xml:space="preserve">
<g>
	<defs>
		<rect id="SVGID_1_" width="750" height="500"/>
	</defs>
	<clipPath id="SVGID_2_">
		<use xlink:href="#SVGID_1_"  overflow="visible"/>
	</clipPath>
	<g clip-path="url(#SVGID_2_)">
		
			<linearGradient id="SVGID_3_" gradientUnits="userSpaceOnUse" x1="1902.6172" y1="1598.1777" x2="2192.1064" y2="1763.2679" gradientTransform="matrix(0.7443 0.6679 -0.6679 0.7443 -105.5406 -2385.6299)">
			<stop  offset="0" style="stop-color:#2A449C;stop-opacity:0"/>
			<stop  offset="0.0853" style="stop-color:#304799;stop-opacity:0.0853"/>
			<stop  offset="0.2313" style="stop-color:#3C4D8E;stop-opacity:0.2313"/>
			<stop  offset="0.4205" style="stop-color:#48507B;stop-opacity:0.4205"/>
			<stop  offset="0.6454" style="stop-color:#454659;stop-opacity:0.6454"/>
			<stop  offset="0.8976" style="stop-color:#1D1D1F;stop-opacity:0.8976"/>
			<stop  offset="1" style="stop-color:#000000"/>
		</linearGradient>
		<path fill="url(#SVGID_3_)" d="M374.304,23.43l-266.928,87.23c-28.007,9.152-35.604,45.192-13.674,64.871l209.007,187.551
			c21.93,19.68,56.939,8.238,63.018-20.593l57.92-274.782C429.724,38.876,402.312,14.277,374.304,23.43z"/>
		
			<linearGradient id="SVGID_4_" gradientUnits="userSpaceOnUse" x1="1542.2617" y1="1656.6035" x2="1831.7509" y2="1821.6937" gradientTransform="matrix(0.7443 0.6679 -0.6679 0.7443 -105.5406 -2385.6299)">
			<stop  offset="0" style="stop-color:#2A449C;stop-opacity:0"/>
			<stop  offset="0.0853" style="stop-color:#304799;stop-opacity:0.0853"/>
			<stop  offset="0.2313" style="stop-color:#3C4D8E;stop-opacity:0.2313"/>
			<stop  offset="0.4205" style="stop-color:#48507B;stop-opacity:0.4205"/>
			<stop  offset="0.6454" style="stop-color:#454659;stop-opacity:0.6454"/>
			<stop  offset="0.8976" style="stop-color:#1D1D1F;stop-opacity:0.8976"/>
			<stop  offset="1" style="stop-color:#000000"/>
		</linearGradient>
		<path fill="url(#SVGID_4_)" d="M67.068-173.765l-266.928,87.23c-28.007,9.152-35.604,45.191-13.674,64.87L-4.526,165.888
			c21.93,19.679,56.939,8.238,63.017-20.594l57.921-274.781C122.488-158.319,95.076-182.917,67.068-173.765z"/>
		
			<linearGradient id="SVGID_5_" gradientUnits="userSpaceOnUse" x1="5563.5186" y1="2758.7422" x2="5851.4927" y2="2922.9683" gradientTransform="matrix(-0.743 -0.6693 -0.6693 0.743 6559.8413 1921.4175)">
			<stop  offset="0" style="stop-color:#2A449C;stop-opacity:0"/>
			<stop  offset="0.0853" style="stop-color:#304799;stop-opacity:0.0853"/>
			<stop  offset="0.2313" style="stop-color:#3C4D8E;stop-opacity:0.2313"/>
			<stop  offset="0.4205" style="stop-color:#48507B;stop-opacity:0.4205"/>
			<stop  offset="0.6454" style="stop-color:#454659;stop-opacity:0.6454"/>
			<stop  offset="0.8976" style="stop-color:#1D1D1F;stop-opacity:0.8976"/>
			<stop  offset="1" style="stop-color:#000000"/>
		</linearGradient>
		<path fill="url(#SVGID_5_)" d="M529.948,112.486l-50.428,236.925c-5.291,24.859-35.509,34.668-54.393,17.656L245.16,204.935
			c-18.883-17.013-12.27-48.087,11.905-55.934L487.46,74.21C511.635,66.362,535.239,87.627,529.948,112.486z"/>
		
			<linearGradient id="SVGID_6_" gradientUnits="userSpaceOnUse" x1="4785.6045" y1="2961.0928" x2="5075.1182" y2="3126.197" gradientTransform="matrix(-0.1791 0.9838 -0.9838 -0.1791 3931.1067 -3873.5703)">
			<stop  offset="0" style="stop-color:#2A449C;stop-opacity:0"/>
			<stop  offset="0.0853" style="stop-color:#304799;stop-opacity:0.0853"/>
			<stop  offset="0.2313" style="stop-color:#3C4D8E;stop-opacity:0.2313"/>
			<stop  offset="0.4205" style="stop-color:#48507B;stop-opacity:0.4205"/>
			<stop  offset="0.6454" style="stop-color:#454659;stop-opacity:0.6454"/>
			<stop  offset="0.8976" style="stop-color:#1D1D1F;stop-opacity:0.8976"/>
			<stop  offset="1" style="stop-color:#000000"/>
		</linearGradient>
		<path fill="url(#SVGID_6_)" d="M273.198,389.081L59.09,207.374C36.624,188.309,1.944,200.712-3.334,229.7l-50.309,276.276
			c-5.279,28.989,22.803,52.821,50.547,42.897l264.417-94.569C289.065,444.382,295.664,408.146,273.198,389.081z"/>
		
			<linearGradient id="SVGID_7_" gradientUnits="userSpaceOnUse" x1="2659.4502" y1="4105.7979" x2="2947.4241" y2="4270.0239" gradientTransform="matrix(0.1811 -0.9835 -0.9835 -0.1811 3752.3074 4059.5986)">
			<stop  offset="0" style="stop-color:#2A449C;stop-opacity:0"/>
			<stop  offset="0.0853" style="stop-color:#304799;stop-opacity:0.0853"/>
			<stop  offset="0.2313" style="stop-color:#3C4D8E;stop-opacity:0.2313"/>
			<stop  offset="0.4205" style="stop-color:#48507B;stop-opacity:0.4205"/>
			<stop  offset="0.6454" style="stop-color:#454659;stop-opacity:0.6454"/>
			<stop  offset="0.8976" style="stop-color:#1D1D1F;stop-opacity:0.8976"/>
			<stop  offset="1" style="stop-color:#000000"/>
		</linearGradient>
		<path fill="url(#SVGID_7_)" d="M284.835,587.349L56.593,668.475c-23.949,8.512-48.131-12.093-43.529-37.089l43.864-238.227
			c4.602-24.996,34.538-35.636,53.884-19.152L295.19,531.107C314.536,547.591,308.783,578.836,284.835,587.349z"/>
		
			<linearGradient id="SVGID_8_" gradientUnits="userSpaceOnUse" x1="599.5098" y1="-767.5972" x2="701.2282" y2="-709.5891" gradientTransform="matrix(0.9508 -0.3097 0.3097 0.9508 66.7749 1101.7335)">
			<stop  offset="0" style="stop-color:#2A449C;stop-opacity:0"/>
			<stop  offset="0.0853" style="stop-color:#304799;stop-opacity:0.0853"/>
			<stop  offset="0.2313" style="stop-color:#3C4D8E;stop-opacity:0.2313"/>
			<stop  offset="0.4205" style="stop-color:#48507B;stop-opacity:0.4205"/>
			<stop  offset="0.6454" style="stop-color:#454659;stop-opacity:0.6454"/>
			<stop  offset="0.8976" style="stop-color:#1D1D1F;stop-opacity:0.8976"/>
			<stop  offset="1" style="stop-color:#000000"/>
		</linearGradient>
		<path fill="url(#SVGID_8_)" d="M411.978,124.575l-26.07,123.081c-2.735,12.914,9.535,23.946,22.087,19.858l119.626-38.963
			c12.552-4.088,15.972-20.231,6.155-29.057l-93.557-84.118C430.402,106.551,414.713,111.661,411.978,124.575z"/>
		
			<linearGradient id="SVGID_9_" gradientUnits="userSpaceOnUse" x1="6313.6543" y1="1102.6113" x2="6474.0903" y2="1194.105" gradientTransform="matrix(-0.9508 0.3097 -0.3097 -0.9508 7129.481 -818.6741)">
			<stop  offset="0" style="stop-color:#2A449C;stop-opacity:0"/>
			<stop  offset="0.0853" style="stop-color:#304799;stop-opacity:0.0853"/>
			<stop  offset="0.2313" style="stop-color:#3C4D8E;stop-opacity:0.2313"/>
			<stop  offset="0.4205" style="stop-color:#48507B;stop-opacity:0.4205"/>
			<stop  offset="0.6454" style="stop-color:#454659;stop-opacity:0.6454"/>
			<stop  offset="0.8976" style="stop-color:#1D1D1F;stop-opacity:0.8976"/>
			<stop  offset="1" style="stop-color:#000000"/>
		</linearGradient>
		<path fill="url(#SVGID_9_)" d="M786.856,187.185l39.92-188.471c4.189-19.774-14.601-36.669-33.82-30.409L609.775,27.968
			c-19.221,6.261-24.456,30.979-9.425,44.494L743.61,201.27C758.642,214.785,782.667,206.96,786.856,187.185z"/>
		
			<linearGradient id="SVGID_10_" gradientUnits="userSpaceOnUse" x1="5578.791" y1="-1697.0562" x2="5707.8125" y2="-1623.4775" gradientTransform="matrix(-0.7436 -0.6686 0.6686 -0.7436 5844.8647 2765.1494)">
			<stop  offset="0" style="stop-color:#2A449C;stop-opacity:0"/>
			<stop  offset="0.0853" style="stop-color:#304799;stop-opacity:0.0853"/>
			<stop  offset="0.2313" style="stop-color:#3C4D8E;stop-opacity:0.2313"/>
			<stop  offset="0.4205" style="stop-color:#48507B;stop-opacity:0.4205"/>
			<stop  offset="0.6454" style="stop-color:#454659;stop-opacity:0.6454"/>
			<stop  offset="0.8976" style="stop-color:#1D1D1F;stop-opacity:0.8976"/>
			<stop  offset="1" style="stop-color:#000000"/>
		</linearGradient>
		<path fill="url(#SVGID_10_)" d="M499.327,281.274l103.188-33.608c10.827-3.526,13.776-17.451,5.31-25.064l-80.7-72.559
			c-8.468-7.613-22.001-3.205-24.36,7.935l-22.488,106.167C477.916,275.284,488.5,284.801,499.327,281.274z"/>
		
			<linearGradient id="SVGID_11_" gradientUnits="userSpaceOnUse" x1="5884.958" y1="1231.583" x2="5986.6772" y2="1289.5916" gradientTransform="matrix(-0.9508 0.3097 -0.3097 -0.9508 6456.9829 -198.7551)">
			<stop  offset="0" style="stop-color:#2A449C;stop-opacity:0"/>
			<stop  offset="0.0853" style="stop-color:#304799;stop-opacity:0.0853"/>
			<stop  offset="0.2313" style="stop-color:#3C4D8E;stop-opacity:0.2313"/>
			<stop  offset="0.4205" style="stop-color:#48507B;stop-opacity:0.4205"/>
			<stop  offset="0.6454" style="stop-color:#454659;stop-opacity:0.6454"/>
			<stop  offset="0.8976" style="stop-color:#1D1D1F;stop-opacity:0.8976"/>
			<stop  offset="1" style="stop-color:#000000"/>
		</linearGradient>
		<path fill="url(#SVGID_11_)" d="M467.229,514.486l26.07-123.08c2.735-12.914-9.535-23.947-22.087-19.858L351.587,410.51
			c-12.552,4.089-15.971,20.231-6.155,29.058l93.555,84.117C448.804,532.511,464.494,527.401,467.229,514.486z"/>
		
			<linearGradient id="SVGID_12_" gradientUnits="userSpaceOnUse" x1="1204.9023" y1="1880.7598" x2="1333.924" y2="1954.3384" gradientTransform="matrix(0.7436 0.6686 -0.6686 0.7436 678.8929 -1862.1699)">
			<stop  offset="0" style="stop-color:#2A449C;stop-opacity:0"/>
			<stop  offset="0.0853" style="stop-color:#304799;stop-opacity:0.0853"/>
			<stop  offset="0.2313" style="stop-color:#3C4D8E;stop-opacity:0.2313"/>
			<stop  offset="0.4205" style="stop-color:#48507B;stop-opacity:0.4205"/>
			<stop  offset="0.6454" style="stop-color:#454659;stop-opacity:0.6454"/>
			<stop  offset="0.8976" style="stop-color:#1D1D1F;stop-opacity:0.8976"/>
			<stop  offset="1" style="stop-color:#000000"/>
		</linearGradient>
		<path fill="url(#SVGID_12_)" d="M379.88,357.787l-103.188,33.609c-10.827,3.526-13.776,17.45-5.309,25.063l80.7,72.56
			c8.468,7.612,22.001,3.205,24.36-7.935l22.488-106.168C401.291,363.777,390.707,354.261,379.88,357.787z"/>
		
			<linearGradient id="SVGID_13_" gradientUnits="userSpaceOnUse" x1="1215.374" y1="2301.6709" x2="1412.9406" y2="2414.3394" gradientTransform="matrix(0.7436 0.6686 -0.6686 0.7436 1204.8949 -2572.2314)">
			<stop  offset="0" style="stop-color:#2A449C;stop-opacity:0"/>
			<stop  offset="0.0853" style="stop-color:#304799;stop-opacity:0.0853"/>
			<stop  offset="0.2313" style="stop-color:#3C4D8E;stop-opacity:0.2313"/>
			<stop  offset="0.4205" style="stop-color:#48507B;stop-opacity:0.4205"/>
			<stop  offset="0.6454" style="stop-color:#454659;stop-opacity:0.6454"/>
			<stop  offset="0.8976" style="stop-color:#1D1D1F;stop-opacity:0.8976"/>
			<stop  offset="1" style="stop-color:#000000"/>
		</linearGradient>
		<path fill="url(#SVGID_13_)" d="M665.449-23.874L507.44,27.59c-16.579,5.399-21.095,26.723-8.129,38.38l123.573,111.107
			c12.966,11.658,33.69,4.908,37.304-12.149L694.623,2.356C698.236-14.702,682.028-29.274,665.449-23.874z"/>
		
			<linearGradient id="SVGID_14_" gradientUnits="userSpaceOnUse" x1="6231.2275" y1="725.9736" x2="6565.0996" y2="916.3745" gradientTransform="matrix(-0.9508 0.3097 -0.3097 -0.9508 7129.481 -818.6741)">
			<stop  offset="0" style="stop-color:#2A449C;stop-opacity:0"/>
			<stop  offset="0.0853" style="stop-color:#304799;stop-opacity:0.0853"/>
			<stop  offset="0.2313" style="stop-color:#3C4D8E;stop-opacity:0.2313"/>
			<stop  offset="0.4205" style="stop-color:#48507B;stop-opacity:0.4205"/>
			<stop  offset="0.6454" style="stop-color:#454659;stop-opacity:0.6454"/>
			<stop  offset="0.8976" style="stop-color:#1D1D1F;stop-opacity:0.8976"/>
			<stop  offset="1" style="stop-color:#000000"/>
		</linearGradient>
		<path fill="url(#SVGID_14_)" d="M863.66,540.46l58.19-274.725c6.105-28.825-21.283-53.451-49.3-44.326l-267.014,86.968
			c-28.017,9.126-35.648,45.157-13.737,64.858l208.823,187.756C822.533,580.692,857.555,569.286,863.66,540.46z"/>
		
			<linearGradient id="SVGID_15_" gradientUnits="userSpaceOnUse" x1="1369.9707" y1="2496.457" x2="1657.9558" y2="2660.6895" gradientTransform="matrix(0.7436 0.6686 -0.6686 0.7436 1204.8949 -2572.2314)">
			<stop  offset="0" style="stop-color:#2A449C;stop-opacity:0"/>
			<stop  offset="0.0853" style="stop-color:#304799;stop-opacity:0.0853"/>
			<stop  offset="0.2313" style="stop-color:#3C4D8E;stop-opacity:0.2313"/>
			<stop  offset="0.4205" style="stop-color:#48507B;stop-opacity:0.4205"/>
			<stop  offset="0.6454" style="stop-color:#454659;stop-opacity:0.6454"/>
			<stop  offset="0.8976" style="stop-color:#1D1D1F;stop-opacity:0.8976"/>
			<stop  offset="1" style="stop-color:#000000"/>
		</linearGradient>
		<path fill="url(#SVGID_15_)" d="M693.973,235.426L463.65,310.443c-24.167,7.871-30.75,38.951-11.851,55.944l180.128,161.957
			c18.9,16.993,49.108,7.154,54.375-17.71l50.194-236.974C741.765,248.796,718.14,227.555,693.973,235.426z"/>
	</g>
	<path clip-path="url(#SVGID_2_)" fill="none" stroke="#FFFFFF" stroke-width="2" stroke-miterlimit="10" d="M393.997,79.587
		l-13.359,62.769c-1.402,6.586-9.407,9.185-14.411,4.678l-47.679-42.954c-5.003-4.507-3.25-12.739,3.154-14.818l61.039-19.814
		C389.146,67.367,395.398,73.001,393.997,79.587z"/>
	<path clip-path="url(#SVGID_2_)" fill="none" stroke="#FFFFFF" stroke-width="2" stroke-miterlimit="10" d="M191.437-29.561
		l-13.36,62.768c-1.401,6.587-9.407,9.186-14.41,4.679L115.988-5.069c-5.003-4.507-3.251-12.739,3.154-14.818l61.039-19.814
		C186.585-41.78,192.839-36.146,191.437-29.561z"/>
	<path clip-path="url(#SVGID_2_)" fill="none" stroke="#FFFFFF" stroke-width="2" stroke-miterlimit="10" d="M456.966-16.159
		L428.94,115.512c-2.94,13.815-19.734,19.267-30.229,9.813L298.693,35.219c-10.495-9.455-6.819-26.725,6.616-31.086l128.043-41.564
		C446.788-41.793,459.906-29.976,456.966-16.159z"/>
	<path clip-path="url(#SVGID_2_)" fill="none" stroke="#FFFFFF" stroke-width="2" stroke-miterlimit="10" d="M174.931-62.012
		L146.906,69.66c-2.94,13.815-19.734,19.267-30.229,9.813L16.659-10.634C6.165-20.088,9.84-37.357,23.275-41.719l128.043-41.565
		C164.753-87.646,177.872-75.827,174.931-62.012z"/>
	<path clip-path="url(#SVGID_2_)" fill="none" stroke="#FFFFFF" stroke-width="2" stroke-miterlimit="10" d="M715.049,93.235
		l-16.787,78.872c-1.762,8.275-11.821,11.541-18.107,5.878l-59.911-53.975c-6.286-5.663-4.084-16.008,3.963-18.62l76.699-24.897
		C708.953,77.881,716.811,84.96,715.049,93.235z"/>
	<path clip-path="url(#SVGID_2_)" fill="none" stroke="#FFFFFF" stroke-width="2" stroke-miterlimit="10" d="M671.489,148.304
		l-8.6,40.403c-0.902,4.239-6.056,5.912-9.275,3.011l-30.69-27.648c-3.22-2.901-2.092-8.2,2.03-9.538l39.29-12.755
		C668.366,140.438,672.392,144.064,671.489,148.304z"/>
	<path clip-path="url(#SVGID_2_)" fill="none" stroke="#FFFFFF" stroke-width="2" stroke-miterlimit="10" d="M564.255,401.853
		l-19.365,90.983c-2.031,9.546-13.636,13.313-20.888,6.78l-69.111-62.263c-7.251-6.532-4.712-18.466,4.572-21.479l88.477-28.721
		C557.223,384.14,566.287,392.306,564.255,401.853z"/>
	<path clip-path="url(#SVGID_2_)" fill="none" stroke="#FFFFFF" stroke-width="2" stroke-miterlimit="10" d="M543.446,361.621
		l-14.08,66.154c-1.478,6.941-9.915,9.681-15.188,4.931l-50.251-45.271c-5.272-4.75-3.426-13.427,3.324-15.618l64.331-20.883
		C538.333,348.742,544.924,354.68,543.446,361.621z"/>
	<path clip-path="url(#SVGID_2_)" fill="none" stroke="#FFFFFF" stroke-width="2" stroke-miterlimit="10" d="M598.113,251.984
		l-9.654,45.358c-1.013,4.759-6.798,6.637-10.413,3.38l-34.454-31.04c-3.615-3.257-2.35-9.206,2.279-10.708l44.108-14.318
		C594.607,243.153,599.126,247.225,598.113,251.984z"/>
	<path clip-path="url(#SVGID_2_)" fill="none" stroke="#FFFFFF" stroke-width="2" stroke-miterlimit="10" d="M230.485,415.372
		l-13.36,62.769c-1.402,6.586-9.407,9.185-14.41,4.678l-47.679-42.954c-5.003-4.507-3.25-12.739,3.154-14.818l61.039-19.814
		C225.633,403.152,231.887,408.786,230.485,415.372z"/>
	<path clip-path="url(#SVGID_2_)" fill="none" stroke="#FFFFFF" stroke-width="2" stroke-miterlimit="10" d="M197.304,394.651
		l-6.938,32.601c-0.728,3.421-4.886,4.771-7.484,2.43l-24.763-22.31c-2.599-2.341-1.688-6.616,1.638-7.696l31.702-10.291
		C194.784,388.305,198.032,391.231,197.304,394.651z"/>
</g>
</svg>
