<?xml version="1.0" encoding="utf-8"?>
<!-- Generator: Adobe Illustrator 16.0.0, SVG Export Plug-In . SVG Version: 6.00 Build 0)  -->
<!DOCTYPE svg PUBLIC "-//W3C//DTD SVG 1.1//EN" "http://www.w3.org/Graphics/SVG/1.1/DTD/svg11.dtd">
<svg version="1.1" id="Layer_1" xmlns="http://www.w3.org/2000/svg" xmlns:xlink="http://www.w3.org/1999/xlink" x="0px" y="0px"
	 width="101.979px" height="46.75px" viewBox="0 0 101.979 46.75" enable-background="new 0 0 101.979 46.75" xml:space="preserve">
<image display="none" overflow="visible" enable-background="new    " width="1600" height="900" xlink:href="D4423A8A.jpg"  transform="matrix(0.9995 0 0 0.9985 -671.1357 -307.418)">
</image>
<g>
	<path fill-rule="evenodd" clip-rule="evenodd" fill="#0086CD" d="M67.832,45.961h1.59V43.01c0-0.146,0.022-0.293,0.063-0.398
		c0.105-0.293,0.367-0.596,0.807-0.596c0.576,0,0.805,0.449,0.805,1.109v2.836h1.593v-3.035c0-1.508-0.786-2.197-1.833-2.197
		c-0.849,0-1.371,0.49-1.58,0.816h-0.031l-0.074-0.703H67.79c0.02,0.451,0.042,0.994,0.042,1.633V45.961L67.832,45.961
		L67.832,45.961z M64.238,41.857c0.724,0,1.017,0.775,1.017,1.539c0,0.922-0.397,1.539-1.017,1.539
		c-0.681,0-1.045-0.658-1.045-1.539C63.193,42.643,63.475,41.857,64.238,41.857L64.238,41.857L64.238,41.857z M64.282,40.729
		c-1.646,0-2.733,1.057-2.733,2.711c0,1.652,1.151,2.637,2.647,2.637c1.372,0,2.701-0.857,2.701-2.732
		C66.897,41.805,65.852,40.729,64.282,40.729L64.282,40.729L64.282,40.729z M59.819,38.613c-0.514,0-0.848,0.344-0.837,0.805
		c-0.011,0.441,0.323,0.795,0.826,0.795c0.524,0,0.858-0.354,0.858-0.795C60.656,38.957,60.333,38.613,59.819,38.613L59.819,38.613
		L59.819,38.613z M60.616,45.961v-5.119h-1.592v5.119H60.616L60.616,45.961L60.616,45.961z M55.453,39.879v0.963h-0.681v1.174h0.681
		v2.092c0,0.723,0.146,1.215,0.44,1.52c0.25,0.262,0.679,0.449,1.191,0.449c0.451,0,0.828-0.063,1.037-0.146l-0.01-1.205
		c-0.157,0.033-0.252,0.045-0.471,0.045c-0.482,0-0.629-0.285-0.629-0.902v-1.852h1.142v-1.174h-1.142v-1.393L55.453,39.879
		L55.453,39.879L55.453,39.879z M51.641,41.857c0.723,0,1.015,0.775,1.015,1.539c0,0.922-0.398,1.539-1.015,1.539
		c-0.681,0-1.049-0.658-1.049-1.539C50.592,42.643,50.875,41.857,51.641,41.857L51.641,41.857L51.641,41.857z M51.683,40.729
		c-1.645,0-2.732,1.057-2.732,2.711c0,1.652,1.149,2.637,2.648,2.637c1.371,0,2.7-0.857,2.7-2.732
		C54.299,41.805,53.252,40.729,51.683,40.729L51.683,40.729L51.683,40.729z M46.53,45.961h1.559l-0.386-7.055h-2.085l-0.753,2.344
		c-0.23,0.787-0.471,1.717-0.67,2.535h-0.031c-0.157-0.828-0.377-1.719-0.596-2.523l-0.692-2.355h-2.125l-0.45,7.055h1.476
		l0.127-2.678c0.053-0.881,0.084-1.971,0.125-2.922h0.021c0.167,0.922,0.409,1.926,0.639,2.764l0.754,2.721h1.246l0.859-2.752
		c0.271-0.828,0.564-1.832,0.785-2.732h0.03c0,1.025,0.031,2.051,0.063,2.898L46.53,45.961L46.53,45.961L46.53,45.961z"/>
	<path fill-rule="evenodd" clip-rule="evenodd" fill="#312783" d="M6.336,31.625l-1.188-2.607l-1.165,2.607H6.336L6.336,31.625
		L6.336,31.625z M16.664,32.434c-0.003-0.498-0.26-0.758-0.774-0.781h-1.636l-0.979-1.549v3.072h2.615
		C16.41,33.176,16.667,32.928,16.664,32.434L16.664,32.434L16.664,32.434z M16.808,29.043c-0.006-0.482-0.299-0.727-0.881-0.732
		h-2.645v1.459h2.65C16.524,29.77,16.813,29.529,16.808,29.043L16.808,29.043L16.808,29.043z M19.025,33.063
		c-0.062,1.16-0.744,1.852-2.06,2.072h-5.96v-8.742h5.252c0.95,0.018,1.643,0.242,2.079,0.668c0.434,0.432,0.646,1.043,0.634,1.844
		c-0.013,0.801-0.442,1.367-1.297,1.707c0.83,0.371,1.278,1.012,1.352,1.916V33.063L19.025,33.063L19.025,33.063z M25.457,29.787
		c1.541,0.258,2.318,1.061,2.331,2.41v0.244c-0.013,1.604-0.784,2.496-2.313,2.684h-5.556l0.866-1.889h4.148
		c0.449-0.076,0.673-0.359,0.673-0.85c0-0.426-0.239-0.68-0.718-0.762h-2.643c-1.538-0.258-2.315-1.055-2.327-2.398v-0.244
		c0.012-1.539,0.782-2.404,2.31-2.6h5.567l-0.884,1.883h-4.177c-0.43,0.064-0.645,0.33-0.639,0.805c0,0.426,0.242,0.664,0.72,0.717
		H25.457L25.457,29.787L25.457,29.787z M35.28,30.74c0-0.699-0.155-1.291-0.463-1.779c-0.311-0.486-0.818-0.732-1.523-0.732
		c-0.752,0-1.303,0.248-1.649,0.742c-0.346,0.492-0.521,1.084-0.521,1.77c0,0.574,0.173,1.137,0.516,1.693
		c0.348,0.553,0.896,0.828,1.655,0.828c0.705,0,1.213-0.246,1.523-0.744C35.125,32.023,35.28,31.432,35.28,30.74L35.28,30.74
		L35.28,30.74z M37.574,30.74c0,1.311-0.385,2.363-1.152,3.17c-0.765,0.803-1.847,1.207-3.241,1.207
		c-1.383,0-2.462-0.418-3.235-1.254c-0.771-0.84-1.158-1.879-1.158-3.123c0-1.305,0.412-2.361,1.239-3.164
		c0.824-0.809,1.875-1.211,3.154-1.211c1.336,0,2.401,0.402,3.199,1.211C37.175,28.379,37.574,29.436,37.574,30.74L37.574,30.74
		L37.574,30.74z M38.637,35.125v-8.742h2.178v6.844h5.699l-0.874,1.898H38.637L38.637,35.125L38.637,35.125z M49.858,26.375v4.357
		c0,0.574,0.149,1.135,0.441,1.689c0.297,0.555,0.729,0.832,1.3,0.832c0.526,0,0.929-0.248,1.213-0.744
		c0.283-0.496,0.424-1.088,0.424-1.777v-4.357h2.312v4.357c0,1.309-0.348,2.363-1.045,3.168c-0.699,0.805-1.682,1.209-2.955,1.209
		c-1.259,0-2.242-0.42-2.943-1.256c-0.702-0.838-1.055-1.877-1.055-3.121l-0.009-4.357H49.858L49.858,26.375L49.858,26.375z
		 M59.069,28.266h-2.626v-1.883h7.887l-0.886,1.883h-2.188v6.859h-2.187V28.266L59.069,28.266L59.069,28.266z M70.21,29.586h-3.791
		c0.084-0.221,0.192-0.426,0.326-0.615c0.346-0.494,0.896-0.742,1.649-0.742c0.704,0,1.212,0.246,1.522,0.732
		C70.038,29.152,70.135,29.359,70.21,29.586L70.21,29.586L70.21,29.586z M66.235,31.016h1.49l0,0h4.942
		c0.004-0.09,0.005-0.182,0.005-0.275c0-1.305-0.399-2.361-1.193-3.164c-0.797-0.809-1.863-1.211-3.199-1.211
		c-1.279,0-2.33,0.402-3.154,1.211c-0.828,0.803-1.241,1.859-1.241,3.164c0,1.244,0.391,2.283,1.161,3.123
		c0.773,0.836,1.852,1.254,3.234,1.254c1.395,0,2.477-0.404,3.24-1.207c0.451-0.475,0.771-1.033,0.958-1.678h-2.405
		c-0.047,0.098-0.1,0.193-0.156,0.285c-0.311,0.498-0.818,0.744-1.522,0.744c-0.759,0-1.309-0.275-1.655-0.828
		C66.45,31.967,66.282,31.494,66.235,31.016L66.235,31.016L66.235,31.016z M10.231,35.135H7.913l-0.711-1.572H4.848l-1.065-1.465
		l-1.374,3.037H0l3.887-8.742h2.449L10.231,35.135L10.231,35.135L10.231,35.135z"/>
	<path fill-rule="evenodd" clip-rule="evenodd" fill="#87BD25" d="M68.392,16.86c0.41,0,0.742,0.331,0.742,0.74
		s-0.332,0.74-0.742,0.74c-0.408,0-0.739-0.331-0.739-0.74S67.983,16.86,68.392,16.86L68.392,16.86L68.392,16.86z M66.409,15.771
		c0.468,0,0.848,0.381,0.848,0.848c0,0.468-0.38,0.847-0.848,0.847s-0.848-0.379-0.848-0.847
		C65.562,16.152,65.941,15.771,66.409,15.771L66.409,15.771L66.409,15.771z M64.241,14.819c0.536,0,0.971,0.434,0.971,0.97
		c0,0.534-0.435,0.969-0.971,0.969c-0.535,0-0.969-0.435-0.969-0.969C63.272,15.253,63.706,14.819,64.241,14.819L64.241,14.819
		L64.241,14.819z M61.872,14.072c0.598,0,1.084,0.485,1.084,1.084s-0.486,1.084-1.084,1.084c-0.599,0-1.084-0.485-1.084-1.084
		S61.273,14.072,61.872,14.072L61.872,14.072L61.872,14.072z M68.943,12.3c0.763,0,1.383,0.619,1.383,1.383s-0.62,1.382-1.383,1.382
		c-0.764,0-1.382-0.618-1.382-1.382S68.18,12.3,68.943,12.3L68.943,12.3L68.943,12.3z M66.021,10.961
		c0.837,0,1.516,0.679,1.516,1.517c0,0.836-0.679,1.516-1.516,1.516c-0.838,0-1.517-0.68-1.517-1.516
		C64.504,11.64,65.183,10.961,66.021,10.961L66.021,10.961L66.021,10.961z M62.962,10.266c0.764,0,1.383,0.618,1.383,1.382
		s-0.619,1.382-1.383,1.382c-0.762,0-1.381-0.618-1.381-1.382S62.2,10.266,62.962,10.266L62.962,10.266L62.962,10.266z M71.277,8.27
		c0.8,0,1.449,0.649,1.449,1.449c0,0.802-0.649,1.451-1.449,1.451s-1.45-0.649-1.45-1.451C69.827,8.919,70.478,8.27,71.277,8.27
		L71.277,8.27L71.277,8.27z M68.268,7.188c0.714,0,1.292,0.578,1.292,1.292c0,0.712-0.578,1.291-1.292,1.291
		c-0.712,0-1.291-0.579-1.291-1.291C66.977,7.767,67.556,7.188,68.268,7.188L68.268,7.188L68.268,7.188z M65.308,6.443
		c0.633,0,1.146,0.515,1.146,1.148s-0.514,1.147-1.146,1.147c-0.635,0-1.148-0.514-1.148-1.147S64.673,6.443,65.308,6.443
		L65.308,6.443L65.308,6.443z M62.42,6.026c0.55,0,0.997,0.445,0.997,0.996S62.97,8.02,62.42,8.02s-0.997-0.446-0.997-0.997
		S61.87,6.026,62.42,6.026L62.42,6.026L62.42,6.026z M60.405,17.368v-4.981c0.498-0.167,0.857-0.637,0.857-1.191
		s-0.359-1.025-0.857-1.192V0.674h2.716c0.499,0,0.92,0.322,1.052,0.801l0.94,3.44c2.175,0.338,4.274,0.906,6.272,1.678l2.531-2.507
		c0.354-0.349,0.88-0.417,1.312-0.17l2.354,1.359l-2.665,4.611c-0.188-0.077-0.393-0.12-0.607-0.12
		c-0.881,0-1.595,0.713-1.595,1.594c0,0.515,0.245,0.972,0.622,1.263l-0.916,1.589c-0.225-0.211-0.528-0.341-0.861-0.341
		c-0.694,0-1.259,0.563-1.259,1.258c0,0.568,0.378,1.048,0.896,1.204l-1.008,1.742h-0.004c-0.351,0-0.634,0.284-0.634,0.635
		c0,0.118,0.031,0.228,0.086,0.322l-0.403,0.699C66.638,18.229,63.622,17.368,60.405,17.368L60.405,17.368L60.405,17.368z"/>
	<path fill-rule="evenodd" clip-rule="evenodd" fill="#0086CD" d="M74.535,22.291c0.152,0,0.274,0.123,0.274,0.275
		c0,0.151-0.122,0.275-0.274,0.275s-0.275-0.124-0.275-0.275C74.26,22.414,74.383,22.291,74.535,22.291L74.535,22.291L74.535,22.291
		z M73.23,20.81c0.211,0,0.381,0.17,0.381,0.381c0,0.21-0.17,0.382-0.381,0.382S72.85,21.4,72.85,21.19
		C72.85,20.979,73.02,20.81,73.23,20.81L73.23,20.81L73.23,20.81z M71.806,19.373c0.291,0,0.529,0.237,0.529,0.529
		c0,0.293-0.238,0.529-0.529,0.529c-0.292,0-0.528-0.236-0.528-0.529C71.277,19.61,71.514,19.373,71.806,19.373L71.806,19.373
		L71.806,19.373z M79.204,21.485c0.408,0,0.74,0.333,0.74,0.742c0,0.408-0.332,0.74-0.74,0.74c-0.41,0-0.742-0.332-0.742-0.74
		C78.461,21.818,78.793,21.485,79.204,21.485L79.204,21.485L79.204,21.485z M77.682,19.481c0.469,0,0.848,0.379,0.848,0.848
		c0,0.467-0.379,0.846-0.848,0.846c-0.467,0-0.846-0.379-0.846-0.846C76.836,19.86,77.215,19.481,77.682,19.481L77.682,19.481
		L77.682,19.481z M75.915,17.495c0.547,0,0.992,0.444,0.992,0.992c0,0.549-0.445,0.994-0.992,0.994
		c-0.549,0-0.994-0.445-0.994-0.994C74.921,17.939,75.366,17.495,75.915,17.495L75.915,17.495L75.915,17.495z M73.88,15.624
		c0.62,0,1.125,0.502,1.125,1.124c0,0.62-0.504,1.124-1.125,1.124c-0.621,0-1.124-0.504-1.124-1.124
		C72.756,16.126,73.259,15.624,73.88,15.624L73.88,15.624L73.88,15.624z M82.29,17.034c0.803,0,1.451,0.648,1.451,1.449
		c0,0.803-0.648,1.451-1.451,1.451c-0.799,0-1.449-0.648-1.449-1.451C80.84,17.683,81.491,17.034,82.29,17.034L82.29,17.034
		L82.29,17.034z M80.012,14.308c0.881,0,1.596,0.713,1.596,1.594c0,0.88-0.715,1.594-1.596,1.594c-0.879,0-1.594-0.714-1.594-1.594
		C78.418,15.021,79.133,14.308,80.012,14.308L80.012,14.308L80.012,14.308z M77.303,11.7c0.963,0,1.744,0.783,1.744,1.747
		s-0.781,1.747-1.744,1.747c-0.965,0-1.748-0.783-1.748-1.747S76.338,11.7,77.303,11.7L77.303,11.7L77.303,11.7z M69.234,19.731
		l0.403-0.699c0.111,0.188,0.314,0.314,0.548,0.314c0.353,0,0.636-0.285,0.636-0.637c0-0.35-0.283-0.633-0.632-0.635l1.008-1.742
		c0.114,0.034,0.237,0.054,0.363,0.054c0.695,0,1.258-0.563,1.258-1.258c0-0.362-0.153-0.688-0.396-0.917l0.916-1.589
		c0.27,0.209,0.606,0.331,0.973,0.331c0.879,0,1.594-0.713,1.594-1.594c0-0.664-0.408-1.234-0.987-1.474l2.665-4.611l2.352,1.358
		c0.432,0.25,0.635,0.737,0.508,1.22l-0.906,3.453c1.686,1.362,3.225,2.9,4.586,4.588l3.455-0.907
		c0.48-0.127,0.971,0.077,1.219,0.509l1.359,2.354l-4.793,2.767c-0.203-0.451-0.654-0.766-1.18-0.766
		c-0.715,0-1.291,0.578-1.291,1.291c0,0.284,0.092,0.546,0.246,0.759l-7.439,4.295C74.146,23.516,71.914,21.282,69.234,19.731
		L69.234,19.731L69.234,19.731z"/>
	<path fill-rule="evenodd" clip-rule="evenodd" fill="#312783" d="M83.194,29.717c0.139,0,0.254,0.113,0.254,0.254
		s-0.115,0.254-0.254,0.254c-0.143,0-0.256-0.113-0.256-0.254S83.051,29.717,83.194,29.717L83.194,29.717L83.194,29.717z
		 M82.43,27.748c0.193,0,0.352,0.158,0.352,0.354s-0.158,0.354-0.352,0.354c-0.197,0-0.354-0.158-0.354-0.354
		S82.233,27.748,82.43,27.748L82.43,27.748L82.43,27.748z M81.563,25.637c0.258,0,0.465,0.209,0.465,0.467
		c0,0.256-0.207,0.465-0.465,0.465s-0.467-0.209-0.467-0.465C81.096,25.846,81.305,25.637,81.563,25.637L81.563,25.637
		L81.563,25.637z M80.493,23.564c0.328,0,0.594,0.266,0.594,0.592c0,0.328-0.266,0.594-0.594,0.594
		c-0.326,0-0.592-0.266-0.592-0.594C79.901,23.83,80.167,23.564,80.493,23.564L80.493,23.564L80.493,23.564z M88.467,31.055
		c0.387,0,0.703,0.314,0.703,0.703c0,0.387-0.316,0.701-0.703,0.701s-0.701-0.314-0.701-0.701
		C87.766,31.369,88.081,31.055,88.467,31.055L88.467,31.055L88.467,31.055z M87.821,28.295c0.475,0,0.859,0.385,0.859,0.857
		c0,0.475-0.385,0.859-0.859,0.859c-0.473,0-0.857-0.385-0.857-0.859C86.963,28.68,87.348,28.295,87.821,28.295L87.821,28.295
		L87.821,28.295z M86.911,25.512c0.551,0,1,0.447,1,0.998s-0.449,0.996-1,0.996c-0.549,0-0.996-0.445-0.996-0.996
		S86.362,25.512,86.911,25.512L86.911,25.512L86.911,25.512z M85.7,22.678c0.635,0,1.148,0.515,1.148,1.146
		c0,0.635-0.514,1.148-1.148,1.148c-0.633,0-1.146-0.514-1.146-1.148C84.553,23.192,85.067,22.678,85.7,22.678L85.7,22.678
		L85.7,22.678z M75.698,26.195l7.439-4.295c0.234,0.322,0.613,0.532,1.045,0.532c0.713,0,1.291-0.577,1.291-1.291
		c0-0.188-0.041-0.364-0.111-0.525l4.793-2.767l1.357,2.351c0.248,0.432,0.18,0.957-0.17,1.312l-2.508,2.531
		c0.773,1.998,1.342,4.098,1.68,6.273l3.439,0.941c0.48,0.129,0.803,0.551,0.803,1.049v2.717H78.061
		C78.061,31.807,77.2,28.793,75.698,26.195L75.698,26.195L75.698,26.195z"/>
</g>
</svg>
