<?xml version="1.0" encoding="utf-8"?>
<!-- Generator: Adobe Illustrator 16.0.0, SVG Export Plug-In . SVG Version: 6.00 Build 0)  -->
<!DOCTYPE svg PUBLIC "-//W3C//DTD SVG 1.1//EN" "http://www.w3.org/Graphics/SVG/1.1/DTD/svg11.dtd">
<svg version="1.1" id="Layer_1" xmlns="http://www.w3.org/2000/svg" xmlns:xlink="http://www.w3.org/1999/xlink" x="0px" y="0px"
	 width="102.24px" height="46.75px" viewBox="23.359 0 102.24 46.75" enable-background="new 23.359 0 102.24 46.75"
	 xml:space="preserve">
<image display="none" overflow="visible" enable-background="new    " width="1600" height="900" xlink:href="5220BFE3.jpg"  transform="matrix(0.9995 0 0 0.9985 -671.1353 -307.418)">
</image>
<g>
	<path fill-rule="evenodd" clip-rule="evenodd" fill="#FFFFFF" d="M91.191,45.961h1.59V43.01c0-0.146,0.022-0.293,0.063-0.398
		c0.105-0.293,0.367-0.596,0.807-0.596c0.576,0,0.805,0.449,0.805,1.109v2.836h1.593v-3.035c0-1.508-0.786-2.197-1.833-2.197
		c-0.849,0-1.371,0.49-1.58,0.816h-0.031l-0.074-0.703h-1.381c0.02,0.451,0.042,0.994,0.042,1.633V45.961L91.191,45.961
		L91.191,45.961z M87.597,41.857c0.724,0,1.017,0.775,1.017,1.539c0,0.922-0.397,1.539-1.017,1.539
		c-0.681,0-1.045-0.658-1.045-1.539C86.552,42.643,86.833,41.857,87.597,41.857L87.597,41.857L87.597,41.857z M87.641,40.729
		c-1.646,0-2.733,1.057-2.733,2.711c0,1.652,1.151,2.637,2.647,2.637c1.372,0,2.701-0.857,2.701-2.732
		C90.256,41.805,89.21,40.729,87.641,40.729L87.641,40.729L87.641,40.729z M83.178,38.613c-0.514,0-0.848,0.344-0.837,0.805
		c-0.011,0.441,0.323,0.795,0.826,0.795c0.524,0,0.858-0.354,0.858-0.795C84.015,38.957,83.692,38.613,83.178,38.613L83.178,38.613
		L83.178,38.613z M83.975,45.961v-5.119h-1.592v5.119H83.975L83.975,45.961L83.975,45.961z M78.812,39.879v0.963h-0.681v1.174h0.681
		v2.092c0,0.723,0.146,1.215,0.44,1.52c0.25,0.262,0.679,0.449,1.191,0.449c0.451,0,0.828-0.063,1.037-0.146l-0.01-1.205
		C81.314,44.758,81.219,44.77,81,44.77c-0.482,0-0.629-0.285-0.629-0.902v-1.852h1.142v-1.174h-1.142v-1.393L78.812,39.879
		L78.812,39.879L78.812,39.879z M75,41.857c0.723,0,1.015,0.775,1.015,1.539c0,0.922-0.398,1.539-1.015,1.539
		c-0.681,0-1.049-0.658-1.049-1.539C73.951,42.643,74.234,41.857,75,41.857L75,41.857L75,41.857z M75.042,40.729
		c-1.645,0-2.732,1.057-2.732,2.711c0,1.652,1.149,2.637,2.648,2.637c1.371,0,2.7-0.857,2.7-2.732
		C77.658,41.805,76.611,40.729,75.042,40.729L75.042,40.729L75.042,40.729z M69.889,45.961h1.559l-0.386-7.055h-2.085l-0.753,2.344
		c-0.23,0.787-0.471,1.717-0.67,2.535h-0.031c-0.157-0.828-0.377-1.719-0.596-2.523l-0.692-2.355H64.11l-0.45,7.055h1.476
		l0.127-2.678c0.053-0.881,0.084-1.971,0.125-2.922h0.021c0.167,0.922,0.409,1.926,0.639,2.764l0.754,2.721h1.246l0.859-2.752
		c0.271-0.828,0.564-1.832,0.785-2.732h0.03c0,1.025,0.031,2.051,0.063,2.898L69.889,45.961L69.889,45.961L69.889,45.961z"/>
	<path fill-rule="evenodd" clip-rule="evenodd" fill="#FFFFFF" d="M29.695,31.625l-1.188-2.607l-1.165,2.607H29.695L29.695,31.625
		L29.695,31.625z M40.023,32.434c-0.003-0.498-0.26-0.758-0.774-0.781h-1.636l-0.979-1.549v3.072h2.615
		C39.769,33.176,40.026,32.928,40.023,32.434L40.023,32.434L40.023,32.434z M40.167,29.043c-0.006-0.482-0.299-0.727-0.881-0.732
		h-2.645v1.459h2.65C39.883,29.77,40.172,29.529,40.167,29.043L40.167,29.043L40.167,29.043z M42.384,33.063
		c-0.062,1.16-0.744,1.852-2.06,2.072h-5.96v-8.742h5.252c0.95,0.018,1.643,0.242,2.079,0.668c0.434,0.432,0.646,1.043,0.634,1.844
		c-0.013,0.801-0.442,1.367-1.297,1.707c0.83,0.371,1.278,1.012,1.352,1.916V33.063L42.384,33.063L42.384,33.063z M48.816,29.787
		c1.541,0.258,2.318,1.061,2.331,2.41v0.244c-0.013,1.604-0.784,2.496-2.313,2.684h-5.556l0.866-1.889h4.148
		c0.449-0.076,0.673-0.359,0.673-0.85c0-0.426-0.239-0.68-0.718-0.762h-2.643c-1.538-0.258-2.315-1.055-2.327-2.398v-0.244
		c0.012-1.539,0.782-2.404,2.31-2.6h5.567l-0.884,1.883h-4.177c-0.43,0.064-0.645,0.33-0.639,0.805c0,0.426,0.242,0.664,0.72,0.717
		H48.816L48.816,29.787L48.816,29.787z M58.639,30.74c0-0.699-0.155-1.291-0.463-1.779c-0.311-0.486-0.818-0.732-1.523-0.732
		c-0.752,0-1.303,0.248-1.649,0.742c-0.346,0.492-0.521,1.084-0.521,1.77c0,0.574,0.173,1.137,0.516,1.693
		c0.348,0.553,0.896,0.828,1.655,0.828c0.705,0,1.213-0.246,1.523-0.744C58.484,32.023,58.639,31.432,58.639,30.74L58.639,30.74
		L58.639,30.74z M60.933,30.74c0,1.311-0.385,2.363-1.152,3.17c-0.765,0.803-1.847,1.207-3.241,1.207
		c-1.383,0-2.462-0.418-3.235-1.254c-0.771-0.84-1.158-1.879-1.158-3.123c0-1.305,0.412-2.361,1.239-3.164
		c0.824-0.809,1.875-1.211,3.154-1.211c1.336,0,2.401,0.402,3.199,1.211C60.534,28.379,60.933,29.436,60.933,30.74L60.933,30.74
		L60.933,30.74z M61.996,35.125v-8.742h2.178v6.844h5.699l-0.874,1.898H61.996L61.996,35.125L61.996,35.125z M73.217,26.375v4.357
		c0,0.574,0.149,1.135,0.441,1.689c0.297,0.555,0.729,0.832,1.3,0.832c0.526,0,0.929-0.248,1.213-0.744
		c0.283-0.496,0.424-1.088,0.424-1.777v-4.357h2.312v4.357c0,1.309-0.348,2.363-1.045,3.168c-0.699,0.805-1.682,1.209-2.955,1.209
		c-1.259,0-2.242-0.42-2.943-1.256c-0.702-0.838-1.055-1.877-1.055-3.121L70.9,26.375H73.217L73.217,26.375L73.217,26.375z
		 M82.428,28.266h-2.626v-1.883h7.887l-0.886,1.883h-2.188v6.859h-2.187V28.266L82.428,28.266L82.428,28.266z M93.569,29.586h-3.791
		c0.084-0.221,0.192-0.426,0.326-0.615c0.346-0.494,0.896-0.742,1.649-0.742c0.704,0,1.212,0.246,1.522,0.732
		C93.397,29.152,93.494,29.359,93.569,29.586L93.569,29.586L93.569,29.586z M89.594,31.016h1.49l0,0h4.942
		c0.004-0.09,0.005-0.182,0.005-0.275c0-1.305-0.399-2.361-1.193-3.164c-0.797-0.809-1.863-1.211-3.199-1.211
		c-1.279,0-2.33,0.402-3.154,1.211c-0.828,0.803-1.241,1.859-1.241,3.164c0,1.244,0.391,2.283,1.161,3.123
		c0.773,0.836,1.852,1.254,3.234,1.254c1.395,0,2.477-0.404,3.24-1.207c0.451-0.475,0.771-1.033,0.958-1.678h-2.405
		c-0.047,0.098-0.1,0.193-0.156,0.285c-0.311,0.498-0.818,0.744-1.522,0.744c-0.759,0-1.309-0.275-1.655-0.828
		C89.809,31.967,89.641,31.494,89.594,31.016L89.594,31.016L89.594,31.016z M33.59,35.135h-2.318l-0.711-1.572h-2.354l-1.065-1.465
		l-1.374,3.037h-2.408l3.887-8.742h2.449L33.59,35.135L33.59,35.135L33.59,35.135z"/>
	<path fill-rule="evenodd" clip-rule="evenodd" fill="#FFFFFF" d="M91.75,16.859c0.41,0,0.742,0.332,0.742,0.741
		s-0.332,0.74-0.742,0.74c-0.408,0-0.739-0.331-0.739-0.74S91.342,16.859,91.75,16.859L91.75,16.859L91.75,16.859z M89.768,15.771
		c0.468,0,0.848,0.381,0.848,0.848s-0.38,0.847-0.848,0.847s-0.848-0.38-0.848-0.847S89.3,15.771,89.768,15.771L89.768,15.771
		L89.768,15.771z M87.6,14.819c0.536,0,0.971,0.434,0.971,0.97c0,0.534-0.435,0.969-0.971,0.969c-0.535,0-0.969-0.435-0.969-0.969
		C86.631,15.253,87.065,14.819,87.6,14.819L87.6,14.819L87.6,14.819z M85.231,14.072c0.598,0,1.084,0.484,1.084,1.084
		c0,0.598-0.486,1.084-1.084,1.084c-0.599,0-1.084-0.486-1.084-1.084C84.147,14.557,84.632,14.072,85.231,14.072L85.231,14.072
		L85.231,14.072z M92.302,12.3c0.763,0,1.383,0.618,1.383,1.382s-0.62,1.383-1.383,1.383c-0.764,0-1.382-0.619-1.382-1.383
		S91.539,12.3,92.302,12.3L92.302,12.3L92.302,12.3z M89.379,10.961c0.837,0,1.516,0.678,1.516,1.516
		c0,0.836-0.679,1.516-1.516,1.516c-0.838,0-1.517-0.68-1.517-1.516C87.863,11.639,88.542,10.961,89.379,10.961L89.379,10.961
		L89.379,10.961z M86.321,10.266c0.764,0,1.383,0.617,1.383,1.381s-0.619,1.383-1.383,1.383c-0.762,0-1.381-0.619-1.381-1.383
		S85.559,10.266,86.321,10.266L86.321,10.266L86.321,10.266z M94.636,8.27c0.8,0,1.449,0.648,1.449,1.449
		c0,0.802-0.649,1.451-1.449,1.451s-1.45-0.649-1.45-1.451C93.186,8.918,93.836,8.27,94.636,8.27L94.636,8.27L94.636,8.27z
		 M91.626,7.188c0.714,0,1.292,0.577,1.292,1.292c0,0.711-0.578,1.291-1.292,1.291c-0.712,0-1.291-0.58-1.291-1.291
		C90.335,7.766,90.915,7.188,91.626,7.188L91.626,7.188L91.626,7.188z M88.667,6.443c0.633,0,1.146,0.515,1.146,1.148
		s-0.514,1.146-1.146,1.146c-0.635,0-1.148-0.513-1.148-1.146S88.032,6.443,88.667,6.443L88.667,6.443L88.667,6.443z M85.779,6.025
		c0.55,0,0.997,0.446,0.997,0.996c0,0.551-0.447,0.998-0.997,0.998s-0.997-0.447-0.997-0.998
		C84.782,6.472,85.229,6.025,85.779,6.025L85.779,6.025L85.779,6.025z M83.764,17.367v-4.98c0.498-0.168,0.857-0.637,0.857-1.191
		s-0.359-1.025-0.857-1.193V0.674h2.716c0.499,0,0.92,0.322,1.052,0.801l0.94,3.44c2.175,0.338,4.274,0.905,6.272,1.678l2.531-2.507
		c0.354-0.35,0.88-0.418,1.312-0.17l2.354,1.359l-2.664,4.611c-0.188-0.078-0.393-0.121-0.607-0.121
		c-0.881,0-1.595,0.714-1.595,1.594c0,0.516,0.245,0.973,0.622,1.264l-0.916,1.589c-0.225-0.211-0.528-0.341-0.861-0.341
		c-0.694,0-1.259,0.563-1.259,1.258c0,0.568,0.378,1.048,0.896,1.203l-1.008,1.743h-0.004c-0.351,0-0.634,0.284-0.634,0.635
		c0,0.118,0.031,0.228,0.086,0.321l-0.403,0.699C89.997,18.229,86.981,17.367,83.764,17.367L83.764,17.367L83.764,17.367z"/>
	<path fill-rule="evenodd" clip-rule="evenodd" fill="#FFFFFF" d="M97.894,22.291c0.152,0,0.274,0.123,0.274,0.275
		c0,0.15-0.122,0.275-0.274,0.275s-0.275-0.125-0.275-0.275C97.619,22.414,97.742,22.291,97.894,22.291L97.894,22.291L97.894,22.291
		z M96.589,20.809c0.211,0,0.381,0.17,0.381,0.381s-0.17,0.383-0.381,0.383s-0.381-0.172-0.381-0.383S96.378,20.809,96.589,20.809
		L96.589,20.809L96.589,20.809z M95.165,19.373c0.291,0,0.529,0.236,0.529,0.529s-0.238,0.529-0.529,0.529
		c-0.292,0-0.528-0.236-0.528-0.529S94.873,19.373,95.165,19.373L95.165,19.373L95.165,19.373z M102.562,21.484
		c0.408,0,0.74,0.334,0.74,0.742s-0.332,0.74-0.74,0.74c-0.41,0-0.742-0.332-0.742-0.74S102.152,21.484,102.562,21.484
		L102.562,21.484L102.562,21.484z M101.041,19.48c0.469,0,0.848,0.379,0.848,0.848c0,0.467-0.379,0.846-0.848,0.846
		c-0.467,0-0.846-0.379-0.846-0.846C100.195,19.859,100.574,19.48,101.041,19.48L101.041,19.48L101.041,19.48z M99.273,17.494
		c0.547,0,0.992,0.445,0.992,0.993s-0.445,0.993-0.992,0.993c-0.549,0-0.993-0.445-0.993-0.993S98.724,17.494,99.273,17.494
		L99.273,17.494L99.273,17.494z M97.239,15.623c0.62,0,1.124,0.503,1.124,1.125c0,0.619-0.504,1.123-1.124,1.123
		c-0.621,0-1.124-0.504-1.124-1.123C96.115,16.126,96.618,15.623,97.239,15.623L97.239,15.623L97.239,15.623z M105.648,17.033
		c0.803,0,1.451,0.649,1.451,1.449c0,0.803-0.648,1.451-1.451,1.451c-0.799,0-1.449-0.648-1.449-1.451
		C104.199,17.683,104.849,17.033,105.648,17.033L105.648,17.033L105.648,17.033z M103.371,14.307c0.881,0,1.596,0.714,1.596,1.595
		c0,0.88-0.715,1.594-1.596,1.594c-0.879,0-1.594-0.714-1.594-1.594C101.777,15.021,102.492,14.307,103.371,14.307L103.371,14.307
		L103.371,14.307z M100.662,11.7c0.963,0,1.744,0.782,1.744,1.747c0,0.964-0.781,1.746-1.744,1.746
		c-0.965,0-1.748-0.782-1.748-1.746C98.914,12.482,99.697,11.7,100.662,11.7L100.662,11.7L100.662,11.7z M92.593,19.73l0.403-0.699
		c0.111,0.188,0.314,0.314,0.548,0.314c0.353,0,0.636-0.285,0.636-0.636c0-0.35-0.283-0.633-0.632-0.635l1.008-1.743
		c0.114,0.035,0.237,0.055,0.363,0.055c0.695,0,1.258-0.564,1.258-1.258c0-0.362-0.153-0.688-0.396-0.917l0.916-1.589
		c0.27,0.209,0.606,0.33,0.973,0.33c0.879,0,1.594-0.713,1.594-1.594c0-0.664-0.408-1.234-0.986-1.473l2.664-4.611l2.352,1.358
		c0.432,0.249,0.635,0.737,0.508,1.22l-0.906,3.453c1.686,1.362,3.225,2.9,4.586,4.588l3.455-0.907
		c0.48-0.127,0.971,0.077,1.219,0.509l1.359,2.354l-4.793,2.766c-0.203-0.451-0.654-0.766-1.18-0.766
		c-0.715,0-1.291,0.578-1.291,1.291c0,0.285,0.092,0.547,0.246,0.76l-7.439,4.295C97.505,23.516,95.273,21.281,92.593,19.73
		L92.593,19.73L92.593,19.73z"/>
	<path fill-rule="evenodd" clip-rule="evenodd" fill="#FFFFFF" d="M106.552,29.717c0.139,0,0.254,0.113,0.254,0.254
		s-0.115,0.254-0.254,0.254c-0.143,0-0.256-0.113-0.256-0.254S106.41,29.717,106.552,29.717L106.552,29.717L106.552,29.717z
		 M105.789,27.748c0.193,0,0.352,0.158,0.352,0.354s-0.158,0.354-0.352,0.354c-0.197,0-0.354-0.158-0.354-0.354
		S105.591,27.748,105.789,27.748L105.789,27.748L105.789,27.748z M104.921,25.637c0.258,0,0.465,0.209,0.465,0.467
		c0,0.256-0.207,0.465-0.465,0.465s-0.467-0.209-0.467-0.465C104.455,25.846,104.664,25.637,104.921,25.637L104.921,25.637
		L104.921,25.637z M103.851,23.564c0.328,0,0.594,0.266,0.594,0.592c0,0.328-0.266,0.594-0.594,0.594
		c-0.326,0-0.592-0.266-0.592-0.594C103.259,23.83,103.525,23.564,103.851,23.564L103.851,23.564L103.851,23.564z M111.826,31.055
		c0.387,0,0.703,0.314,0.703,0.703c0,0.387-0.316,0.701-0.703,0.701s-0.701-0.314-0.701-0.701
		C111.125,31.369,111.439,31.055,111.826,31.055L111.826,31.055L111.826,31.055z M111.179,28.295c0.475,0,0.859,0.385,0.859,0.857
		c0,0.475-0.385,0.859-0.859,0.859c-0.473,0-0.857-0.385-0.857-0.859C110.322,28.68,110.707,28.295,111.179,28.295L111.179,28.295
		L111.179,28.295z M110.269,25.512c0.551,0,1,0.447,1,0.998s-0.449,0.996-1,0.996c-0.549,0-0.996-0.445-0.996-0.996
		S109.72,25.512,110.269,25.512L110.269,25.512L110.269,25.512z M109.058,22.678c0.635,0,1.148,0.514,1.148,1.146
		c0,0.635-0.514,1.148-1.148,1.148c-0.633,0-1.146-0.514-1.146-1.148C107.912,23.191,108.425,22.678,109.058,22.678L109.058,22.678
		L109.058,22.678z M99.056,26.195l7.439-4.295c0.234,0.322,0.613,0.531,1.045,0.531c0.713,0,1.291-0.576,1.291-1.291
		c0-0.188-0.041-0.363-0.111-0.525l4.793-2.766l1.357,2.35c0.248,0.432,0.18,0.957-0.17,1.313l-2.508,2.531
		c0.773,1.998,1.342,4.098,1.68,6.273l3.439,0.941c0.48,0.129,0.803,0.551,0.803,1.049v2.717h-16.695
		C101.419,31.807,100.558,28.793,99.056,26.195L99.056,26.195L99.056,26.195z"/>
</g>
</svg>
