<?xml version="1.0" encoding="utf-8"?>
<!-- Generator: Adobe Illustrator 16.0.0, SVG Export Plug-In . SVG Version: 6.00 Build 0)  -->
<!DOCTYPE svg PUBLIC "-//W3C//DTD SVG 1.1//EN" "http://www.w3.org/Graphics/SVG/1.1/DTD/svg11.dtd">
<svg version="1.1" id="Layer_1" xmlns="http://www.w3.org/2000/svg" xmlns:xlink="http://www.w3.org/1999/xlink" x="0px" y="0px"
	 width="2000px" height="2000px" viewBox="0 0 2000 2000" enable-background="new 0 0 2000 2000" xml:space="preserve">
<g>
	<defs>
		<circle id="SVGID_1_" cx="1000" cy="1000" r="984.589"/>
	</defs>
	<clipPath id="SVGID_2_">
		<use xlink:href="#SVGID_1_"  overflow="visible"/>
	</clipPath>
	<g clip-path="url(#SVGID_2_)">
		<g>
			<path fill="#F0D325" d="M5427.352,7280.986c0,0,2257.613-11131.703-1007.27-11745.934
				c-2217.095-417.148-2387.84,1464.214-3948.567,3206.61C-692.849,41.525-4736.538,2644.321-3896.511,7280.986H5427.352z"/>
			<g>
				<rect x="992.116" y="2063.424" fill="#BF8A00" width="773.922" height="76.468"/>
				<linearGradient id="SVGID_3_" gradientUnits="userSpaceOnUse" x1="1379.0771" y1="2018.0254" x2="1379.0771" y2="2195.8894">
					<stop  offset="0.129" style="stop-color:#000000"/>
					<stop  offset="1" style="stop-color:#FFFFFF"/>
				</linearGradient>
				<rect x="992.116" y="2063.424" opacity="0.41" fill="url(#SVGID_3_)" width="773.922" height="76.468"/>
				<path fill="#BF8A00" d="M956.049,2632.322h-80.95L1037,1647.482h80.958L956.049,2632.322z M1802.094,2632.322h80.961
					l-161.91-984.84h-80.95L1802.094,2632.322z M1419.556,1647.482h-80.96v984.84h80.96V1647.482z"/>
				<g opacity="0.3">
					<linearGradient id="SVGID_4_" gradientUnits="userSpaceOnUse" x1="1061.8105" y1="1580.3623" x2="1061.8105" y2="2162.2595">
						<stop  offset="0.129" style="stop-color:#000000"/>
						<stop  offset="1" style="stop-color:#FFFFFF"/>
					</linearGradient>
					<polygon fill="url(#SVGID_4_)" points="1005.662,1838.131 1086.613,1838.131 1117.958,1647.482 1037,1647.482 					"/>
					<linearGradient id="SVGID_5_" gradientUnits="userSpaceOnUse" x1="1696.3467" y1="1580.3623" x2="1696.3467" y2="2162.2595">
						<stop  offset="0.129" style="stop-color:#000000"/>
						<stop  offset="1" style="stop-color:#FFFFFF"/>
					</linearGradient>
					<polygon fill="url(#SVGID_5_)" points="1721.145,1647.482 1640.194,1647.482 1671.54,1838.131 1752.499,1838.131 					"/>
					<linearGradient id="SVGID_6_" gradientUnits="userSpaceOnUse" x1="1379.0762" y1="1580.3623" x2="1379.0762" y2="2162.2595">
						<stop  offset="0.129" style="stop-color:#000000"/>
						<stop  offset="1" style="stop-color:#FFFFFF"/>
					</linearGradient>
					<rect x="1338.596" y="1647.482" fill="url(#SVGID_6_)" width="80.96" height="190.648"/>
				</g>
				<rect x="915.089" y="365.411" fill="#608FFF" width="927.985" height="1330.761"/>
				<g>
					<g>
						<path fill="#FFFFFF" d="M1175.707,1406.047c-79.842,0-144.805-64.959-144.805-144.813
							c0-79.854,64.963-144.814,144.805-144.814c79.844,0,144.822,64.96,144.822,144.814
							C1320.529,1341.088,1255.551,1406.047,1175.707,1406.047z M1175.707,1170.619c-49.961,0-90.603,40.645-90.603,90.615
							c0,49.95,40.642,90.603,90.603,90.603c49.96,0,90.613-40.652,90.613-90.603
							C1266.32,1211.264,1225.667,1170.619,1175.707,1170.619z"/>
					</g>
					<path fill="#DB1905" d="M1260.742,1230.235l50.864-18.538c-20.305-55.491-73.459-95.277-135.899-95.277v54.199
						C1214.763,1170.619,1248.031,1195.514,1260.742,1230.235z"/>
					<path fill="#203E87" d="M1320.529,1261.234c0-17.653-3.336-34.49-9.152-50.143l-50.768,18.768
						c3.623,9.788,5.711,20.325,5.711,31.375c0,49.95-40.653,90.603-90.613,90.603c-6.422,0-12.672-0.693-18.712-1.963
						l-11.21,53.019c9.663,2.038,19.673,3.154,29.922,3.154C1255.551,1406.047,1320.529,1341.088,1320.529,1261.234z"/>
					<path fill="#FFC800" d="M1156.909,1349.856c-40.969-8.692-71.805-45.115-71.805-88.622c0-27.913,12.702-52.905,32.604-69.539
						l-34.692-41.594c-31.815,26.586-52.114,66.518-52.114,111.133c0,69.544,49.289,127.755,114.758,141.621L1156.909,1349.856z"/>
				</g>
				<g>
					
						<line fill="none" stroke="#FFFFFF" stroke-width="0.75" stroke-miterlimit="10" x1="1022.364" y1="843.331" x2="1735.788" y2="843.331"/>
					
						<line fill="none" stroke="#FFFFFF" stroke-width="0.75" stroke-miterlimit="10" x1="1022.364" y1="914.252" x2="1735.788" y2="914.252"/>
					
						<line fill="none" stroke="#FFFFFF" stroke-width="0.75" stroke-miterlimit="10" x1="1022.364" y1="985.184" x2="1735.788" y2="985.184"/>
					
						<line fill="none" stroke="#FFFFFF" stroke-width="0.75" stroke-miterlimit="10" x1="1022.364" y1="1056.113" x2="1735.788" y2="1056.113"/>
				</g>
				<rect x="878.359" y="311.5" fill="#203E87" width="1001.435" height="69.709"/>
				<rect x="878.359" y="1680.443" fill="#203E87" width="1001.435" height="69.7"/>
				<path fill="#3465D9" d="M1694.307,1537.391h-630.461c-22.923,0-41.481-18.567-41.481-41.481l0,0
					c0-22.914,18.559-41.479,41.481-41.479h630.461c22.905,0,41.481,18.565,41.481,41.479l0,0
					C1735.788,1518.823,1717.212,1537.391,1694.307,1537.391z"/>
				<g>
					<path fill="#FFFFFF" d="M1144.217,1242.858c0-8.133,6.414-14.73,15.068-14.73c8.576,0,14.979,6.327,14.979,14.73
						c0,8.133-6.403,14.71-14.979,14.71C1150.631,1257.568,1144.217,1250.991,1144.217,1242.858z M1190.543,1237.14l5.723,3.297
						l-39.144,43.364l-5.722-3.365L1190.543,1237.14z M1163.88,1242.858c0-2.693-1.903-4.77-4.672-4.77
						c-2.693,0-4.596,2.076-4.596,4.77c0,2.682,1.902,4.749,4.596,4.749C1161.977,1247.607,1163.88,1245.377,1163.88,1242.858z
						 M1175.131,1276.28c0-8.145,6.404-14.72,15.066-14.72c8.575,0,14.99,6.575,14.99,14.72c0,8.136-6.415,14.712-14.99,14.712
						C1181.535,1290.992,1175.131,1284.416,1175.131,1276.28z M1194.784,1276.28c0-2.684-1.896-4.768-4.673-4.768
						c-2.683,0-4.598,2.084-4.598,4.768c0,2.685,1.915,4.76,4.598,4.76C1192.889,1281.04,1194.784,1278.802,1194.784,1276.28z"/>
				</g>
			</g>
			
				<line fill="none" stroke="#000000" stroke-width="0.6764" stroke-miterlimit="10" x1="-201.833" y1="2632.322" x2="2213.783" y2="2632.322"/>
			<g opacity="0.3">
				<linearGradient id="SVGID_7_" gradientUnits="userSpaceOnUse" x1="1622.1924" y1="910.9551" x2="1896.7285" y2="910.9551">
					<stop  offset="0.129" style="stop-color:#000000"/>
					<stop  offset="1" style="stop-color:#FFFFFF"/>
				</linearGradient>
				<path fill="url(#SVGID_7_)" d="M1700.107,1003.384l-71.691-86.305c-9.51-11.44-7.951-28.423,3.511-37.932l0,0
					c11.431-9.51,28.419-7.932,37.921,3.511l53.413,64.275c3.938,4.751,11.239,4.751,15.181,0l110.622-133.12
					c9.5-11.442,26.489-13.02,37.932-3.501l0,0c11.453,9.5,13.021,26.48,3.521,37.933l-128.921,155.139
					C1745.616,1022.636,1716.097,1022.636,1700.107,1003.384z"/>
			</g>
			<g>
				<path fill="#203E87" d="M411.151,835.332L221.79,1174.168c-15.682,30.058-2.076,67.086,29.326,79.844l205.438,83.461
					l12.625-63.645l-143.679-97.584l127.939-203.802L411.151,835.332z"/>
				<linearGradient id="SVGID_8_" gradientUnits="userSpaceOnUse" x1="540.6357" y1="1333.7188" x2="260.2504" y2="1203.3987">
					<stop  offset="0.129" style="stop-color:#000000"/>
					<stop  offset="1" style="stop-color:#FFFFFF"/>
				</linearGradient>
				<polygon opacity="0.3" fill="url(#SVGID_8_)" points="469.178,1273.828 372.094,1207.899 376.978,1305.135 456.554,1337.473 
									"/>
				<g>
					<path fill="#FF9C91" d="M644.347,562.29l47.796,92.691l-12.057,3.644l13.076,43.229c3.404,11.269-2.961,23.153-14.23,26.557
						l-17.788,5.395c-8.269,2.5-13.942,10.085-13.99,18.72l-0.347,63.363L533.042,832.37l0.356-88.767
						c0,0-55.268-103.497-25.596-140.006C537.455,567.088,600.126,522.994,644.347,562.29z"/>
					<linearGradient id="SVGID_9_" gradientUnits="userSpaceOnUse" x1="588.1826" y1="793.2109" x2="606.6114" y2="710.2814">
						<stop  offset="0.194" style="stop-color:#FF9C91"/>
						<stop  offset="1" style="stop-color:#F27C6F"/>
					</linearGradient>
					<path fill="url(#SVGID_9_)" d="M646.808,823.803l0.347-71.278c0.048-8.635,5.721-16.22,13.99-18.72l7.086-2.154h-0.01
						c-44.46,10.846-63.277-42.46-63.277-42.46s-41.951,31.22-71.94,53.662c0.165,0.328,0.395,0.75,0.395,0.75l-0.356,88.767
						L646.808,823.803z"/>
					<path d="M649.125,507.062c-33.076,9.999-94.613,28.624-146.976,44.46c-52.354,15.836-31.337,78.67-11.846,119.89
						c19.48,41.24,43.826,71.979,43.826,71.979c50.998,0.885,62.95-32.729,70.814-54.2c-8.923-0.27-17.875-8.144-21.403-19.788
						c-4.153-13.74,0.837-27.432,11.164-30.546c6.903-2.097,14.403,1.153,19.883,7.595c3.846-33.413,0.039-61.882,0.039-61.882
						s22.172-5.597,63.133-16C718.739,558.185,703.48,490.609,649.125,507.062z"/>
				</g>
				<g>
					<path d="M361.469,2524.306l-11.528,48.248l69.854,36.723c0,0,56.893,6.469,58.335,23.046H274.847
						c-8.769,0-14.164-9.578-9.634-17.076l27.547-45.577l7.51-45.363H361.469z"/>
					<path d="M871.224,2524.306l6.568,48.248l69.863,36.723c0,0,56.883,6.469,58.315,23.046H802.688
						c-8.759,0-14.163-9.578-9.634-17.076l27.547-45.577l-10.587-45.363H871.224z"/>
					<path fill="#182F66" d="M782.131,1273.828l101.921,1278.86h-75.623c0,0-139.804-410.238-82.517-554.628l-107.709-485.871
						l-67.363,420.612c-8.693,54.19-21.836,107.565-39.307,159.581l-154.612,460.306H292.76c0,0,22.913-451.496,114.593-570.676
						l36.663-575.256l26.364-132.929H782.131z"/>
				</g>
				<linearGradient id="SVGID_10_" gradientUnits="userSpaceOnUse" x1="618.52" y1="1453.9951" x2="618.52" y2="1677.573">
					<stop  offset="0.129" style="stop-color:#000000"/>
					<stop  offset="1" style="stop-color:#FFFFFF"/>
				</linearGradient>
				<polygon opacity="0.3" fill="url(#SVGID_10_)" points="782.131,1273.828 470.38,1273.828 444.016,1406.757 429.035,1641.751 
					600.588,1622.187 618.203,1512.179 641.558,1617.522 808.005,1598.542 				"/>
				<path fill="#203E87" d="M581.012,1517.62l22.769-110.362v110.362h218.504l-29.615-243.792V823.803H430.449
					c-13.164,0-23.355,11.529-21.741,24.597l52.249,425.428l-59.229,243.792H581.012z"/>
				<path fill="#203E87" d="M1230.841,590.3l-194.976,233.176h-294.53v119.795l297.974-26.614
					c36.133-1.174,69.459-19.816,89.352-49.98l160.429-243.099L1230.841,590.3z"/>
				<path fill="#FF9C91" d="M1235.925,601.357l18.436-29.124l29.882-81.307c5.559-15.085,18.598-26.182,34.404-29.24l67.834-13.067
					c6.864-1.317,12.875,4.703,11.586,11.558l-2.153,11.222c-0.962,5.076-4.211,9.422-8.8,11.778l-19.988,10.269
					c-4.653,2.395-8.059,6.645-9.384,11.702l-8.29,31.548l-50.834,59.229l-16.289,29.124L1235.925,601.357z"/>
				<polyline fill="none" stroke="#182F66" stroke-width="0.5" stroke-miterlimit="10" points="585.127,872.687 613.915,1289.415 
					603.78,1407.258 				"/>
				
					<line fill="none" stroke="#608FFF" stroke-width="0.5" stroke-miterlimit="10" x1="533.032" y1="1284.204" x2="690.989" y2="1284.204"/>
				
					<line fill="none" stroke="#182F66" stroke-width="0.5" stroke-miterlimit="10" x1="411.679" y1="872.687" x2="430.362" y2="1024.786"/>
				
					<line fill="none" stroke="#182F66" stroke-width="0.5" stroke-miterlimit="10" x1="792.592" y1="844.217" x2="792.669" y2="938.686"/>
			</g>
			<g>
				<path fill="#FFFFFF" d="M1697.693,1001.488l-68.941-82.994c-9.152-11.012-7.645-27.337,3.366-36.472l0,0
					c10.999-9.154,27.326-7.634,36.479,3.366l51.355,61.824c3.799,4.569,10.808,4.569,14.606,0l106.361-128.034
					c9.152-11,25.479-12.5,36.479-3.365l0,0c11.009,9.154,12.521,25.479,3.387,36.488l-123.979,149.187
					C1741.443,1019.988,1713.057,1019.988,1697.693,1001.488z"/>
			</g>
			<g>
				
					<line fill="none" stroke="#FFFFFF" stroke-width="0.9057" stroke-linecap="round" stroke-linejoin="round" stroke-miterlimit="10" x1="596.877" y1="2331.6" x2="596.877" y2="2439.528"/>
				
					<line fill="none" stroke="#FFFFFF" stroke-width="0.9057" stroke-linecap="round" stroke-linejoin="round" stroke-miterlimit="10" x1="641.145" y1="2385.558" x2="552.589" y2="2385.558"/>
			</g>
			<g>
				
					<line fill="none" stroke="#FFFFFF" stroke-width="0.9057" stroke-linecap="round" stroke-linejoin="round" stroke-miterlimit="10" x1="1927.639" y1="1885.38" x2="1927.639" y2="1993.309"/>
				
					<line fill="none" stroke="#FFFFFF" stroke-width="0.9057" stroke-linecap="round" stroke-linejoin="round" stroke-miterlimit="10" x1="1971.916" y1="1939.34" x2="1883.362" y2="1939.34"/>
			</g>
			<g>
				<linearGradient id="SVGID_11_" gradientUnits="userSpaceOnUse" x1="1470.1758" y1="1253.9209" x2="1470.1758" y2="1404.5769">
					<stop  offset="0" style="stop-color:#FF4A36"/>
					<stop  offset="1" style="stop-color:#F27C6F"/>
				</linearGradient>
				<rect x="1443.797" y="1256.974" fill="url(#SVGID_11_)" width="52.759" height="130.006"/>
				<linearGradient id="SVGID_12_" gradientUnits="userSpaceOnUse" x1="1553.9082" y1="1207.2676" x2="1553.9082" y2="1383.9287">
					<stop  offset="0" style="stop-color:#FF4A36"/>
					<stop  offset="1" style="stop-color:#F27C6F"/>
				</linearGradient>
				<rect x="1527.524" y="1213.379" fill="url(#SVGID_12_)" width="52.767" height="173.601"/>
				<linearGradient id="SVGID_13_" gradientUnits="userSpaceOnUse" x1="1637.6465" y1="1153.7383" x2="1637.6465" y2="1355.9567">
					<stop  offset="0" style="stop-color:#FF4A36"/>
					<stop  offset="1" style="stop-color:#F27C6F"/>
				</linearGradient>
				<rect x="1611.272" y="1163.017" fill="url(#SVGID_13_)" width="52.747" height="223.963"/>
				<polyline fill="none" stroke="#203E87" stroke-width="0.4893" stroke-miterlimit="10" points="1696.153,1109.363 
					1696.153,1386.979 1411.682,1386.979 				"/>
			</g>
		</g>
	</g>
</g>
</svg>
