<?xml version="1.0" encoding="utf-8"?>
<!-- Generator: Adobe Illustrator 16.0.0, SVG Export Plug-In . SVG Version: 6.00 Build 0)  -->
<!DOCTYPE svg PUBLIC "-//W3C//DTD SVG 1.1//EN" "http://www.w3.org/Graphics/SVG/1.1/DTD/svg11.dtd">
<svg version="1.1" id="Layer_1" xmlns="http://www.w3.org/2000/svg" xmlns:xlink="http://www.w3.org/1999/xlink" x="0px" y="0px"
	 width="2000px" height="2000px" viewBox="0 0 2000 2000" enable-background="new 0 0 2000 2000" xml:space="preserve">
<g>
	<g>
		<defs>
			<circle id="SVGID_1_" cx="1006" cy="1002.12" r="987.121"/>
		</defs>
		<clipPath id="SVGID_2_">
			<use xlink:href="#SVGID_1_"  overflow="visible"/>
		</clipPath>
		<g clip-path="url(#SVGID_2_)">
			<path fill="#F0D325" d="M11.187,2988.873c0,0-369.466-679.378-551.308-1275.641c-171.406-562.052-15.583-912.6,202.567-1123.182
				c218.173-210.622,523.063-629.338,632.422-930.16c149.316-410.734,699.015-725.842,1179.754-280.625
				c480.748,445.235,273.979,1289.744,695.688,1627.577c421.705,337.829,1037.234,1055.146,896.999,1982.03H11.187z"/>
			<g>
				
					<line fill="none" stroke="#FFFFFF" stroke-linecap="round" stroke-linejoin="round" stroke-miterlimit="10" x1="710.915" y1="675.32" x2="710.915" y2="783.69"/>
				
					<line fill="none" stroke="#FFFFFF" stroke-linecap="round" stroke-linejoin="round" stroke-miterlimit="10" x1="765.082" y1="729.508" x2="656.72" y2="729.508"/>
			</g>
			<g>
				
					<line stroke="#000000" stroke-linecap="round" stroke-linejoin="round" stroke-miterlimit="10" x1="6167.042" y1="676.669" x2="6167.042" y2="785.04"/>
				
					<line stroke="#000000" stroke-linecap="round" stroke-linejoin="round" stroke-miterlimit="10" x1="6221.209" y1="730.859" x2="6112.848" y2="730.859"/>
			</g>
			<g>
				
					<line fill="none" stroke="#FFFFFF" stroke-linecap="round" stroke-linejoin="round" stroke-miterlimit="10" x1="717.442" y1="1987.886" x2="717.442" y2="2096.253"/>
				
					<line fill="none" stroke="#FFFFFF" stroke-linecap="round" stroke-linejoin="round" stroke-miterlimit="10" x1="771.627" y1="2042.067" x2="663.261" y2="2042.067"/>
			</g>
			<g>
				
					<line fill="none" stroke="#FFFFFF" stroke-linecap="round" stroke-linejoin="round" stroke-miterlimit="10" x1="958.761" y1="75.161" x2="958.761" y2="183.523"/>
				
					<line fill="none" stroke="#FFFFFF" stroke-linecap="round" stroke-linejoin="round" stroke-miterlimit="10" x1="1012.932" y1="129.333" x2="904.58" y2="129.333"/>
			</g>
			<g>
				<linearGradient id="SVGID_3_" gradientUnits="userSpaceOnUse" x1="440.3101" y1="814.4375" x2="440.31" y2="2418.832">
					<stop  offset="0.129" style="stop-color:#000000"/>
					<stop  offset="1" style="stop-color:#FFFFFF"/>
				</linearGradient>
				<path opacity="0.3" fill="url(#SVGID_3_)" d="M898.313,1497.112c0,252.948-205.044,458.019-457.999,458.019
					c-252.959,0-458.009-205.07-458.009-458.019c0-252.946,205.049-458.009,458.009-458.009
					C693.27,1039.104,898.313,1244.166,898.313,1497.112z"/>
				<path fill="#3465D9" d="M861.34,1473.417c0,252.94-205.063,457.999-458.004,457.999c-252.955,0-458.019-205.059-458.019-457.999
					c0-252.954,205.064-458.014,458.019-458.014C656.277,1015.403,861.34,1220.463,861.34,1473.417z"/>
				<path fill="#FFFFFF" d="M770.625,1473.417c0,202.843-164.441,367.287-367.289,367.287
					c-202.851,0-367.292-164.444-367.292-367.287c0-202.856,164.441-367.288,367.292-367.288
					C606.184,1106.129,770.625,1270.561,770.625,1473.417z"/>
				<g>
					<g>
						<path fill="#ABABAB" d="M424.409,1159.299c0,11.721-9.505,21.221-21.227,21.221c-11.717,0-21.227-9.5-21.227-21.221
							c0-11.728,9.51-21.224,21.227-21.224C414.904,1138.075,424.409,1147.571,424.409,1159.299z"/>
						<path fill="#ABABAB" d="M424.409,1787.526c0,11.728-9.505,21.228-21.227,21.228c-11.717,0-21.227-9.5-21.227-21.228
							c0-11.722,9.51-21.223,21.227-21.223C414.904,1766.304,424.409,1775.805,424.409,1787.526z"/>
					</g>
					<g>
						<path fill="#ABABAB" d="M264.108,1191.586c5.852,10.142,2.376,23.126-7.77,28.977c-10.165,5.862-23.136,2.393-29.006-7.754
							c-5.856-10.156-2.381-23.136,7.774-28.996C245.262,1177.951,258.238,1181.432,264.108,1191.586z"/>
						<path fill="#ABABAB" d="M578.213,1735.64c5.861,10.156,2.386,23.136-7.76,28.997c-10.161,5.865-23.146,2.382-28.992-7.774
							c-5.871-10.15-2.396-23.125,7.769-28.987C559.377,1722.015,572.356,1725.484,578.213,1735.64z"/>
					</g>
					<g>
						<path fill="#ABABAB" d="M141.417,1299.692c10.146,5.86,13.621,18.831,7.765,28.986c-5.87,10.155-18.84,13.631-28.987,7.78
							c-10.165-5.866-13.635-18.847-7.779-29.002C118.281,1297.303,131.256,1293.826,141.417,1299.692z"/>
						<path fill="#ABABAB" d="M685.476,1613.807c10.15,5.867,13.63,18.837,7.769,28.992c-5.856,10.156-18.845,13.631-29.001,7.765
							c-10.146-5.861-13.626-18.836-7.76-28.987C662.35,1611.421,675.315,1607.951,685.476,1613.807z"/>
					</g>
					<g>
						<circle fill="#ABABAB" cx="89.217" cy="1475.887" r="21.225"/>
						<path fill="#ABABAB" d="M717.442,1454.662c11.731,0,21.231,9.501,21.231,21.224s-9.5,21.227-21.231,21.227
							c-11.713,0-21.228-9.504-21.228-21.227S705.729,1454.662,717.442,1454.662z"/>
					</g>
					<g>
						<path fill="#ABABAB" d="M121.496,1614.968c10.156-5.851,23.146-2.381,29.002,7.767c5.851,10.155,2.375,23.145-7.775,29
							c-10.156,5.866-23.131,2.376-28.997-7.778C107.871,1633.814,111.345,1620.83,121.496,1614.968z"/>
						<path fill="#ABABAB" d="M665.555,1300.85c10.165-5.856,23.14-2.382,29.001,7.778c5.866,10.151,2.38,23.127-7.761,28.992
							c-10.17,5.861-23.136,2.376-28.996-7.769C651.929,1319.699,655.409,1306.711,665.555,1300.85z"/>
					</g>
					<g>
						<path fill="#ABABAB" d="M229.607,1737.664c5.861-10.155,18.846-13.631,28.997-7.773c10.151,5.86,13.631,18.84,7.77,28.996
							c-5.861,10.155-18.841,13.631-28.992,7.77C227.226,1760.79,223.741,1747.819,229.607,1737.664z"/>
						<path fill="#ABABAB" d="M543.731,1193.59c5.861-10.145,18.842-13.623,28.988-7.769c10.155,5.876,13.635,18.846,7.77,28.992
							c-5.861,10.151-18.836,13.635-28.997,7.774C541.35,1216.732,537.86,1203.742,543.731,1193.59z"/>
					</g>
				</g>
				<polyline fill="none" stroke="#182F66" stroke-width="0.75" stroke-miterlimit="10" points="224.493,1266.401 403.336,1473.417 
					591.825,1366.906 				"/>
				<path fill="#FF4A36" d="M448.354,1473.417c0,24.852-20.166,45.013-45.018,45.013c-24.856,0-45.023-20.161-45.023-45.013
					c0-24.872,20.167-45.027,45.023-45.027C428.188,1428.39,448.354,1448.545,448.354,1473.417z"/>
				<path fill="#FF4A36" d="M609.89,1366.829c0,9.139-7.384,16.519-16.523,16.519c-9.12,0-16.513-7.38-16.513-16.519
					c0-9.119,7.393-16.513,16.513-16.513C602.506,1350.316,609.89,1357.71,609.89,1366.829z"/>
				<path fill="#FF4A36" d="M241.011,1266.401c0,9.128-7.403,16.521-16.518,16.521c-9.134,0-16.513-7.394-16.513-16.521
					c0-9.124,7.379-16.519,16.513-16.519C233.607,1249.883,241.011,1257.277,241.011,1266.401z"/>
			</g>
			<g>
				<path fill="#FF9C91" d="M1743.024,625.379l48.514-76.083c13.134-20.61,14.204-46.682,2.762-68.293l-33.393-63.16h-17.883
					l-26.297,91.236l-25.777-5.389c-8.261-1.73-16.358,3.774-17.544,12.135c-2.777,19.691-2.497,54.226,26.736,76.652
					L1743.024,625.379z"/>
				<path d="M994.433,2202.397l-11.577,48.439l70.129,36.873c0,0,57.116,6.507,58.563,23.136H907.453
					c-8.796,0-14.219-9.612-9.664-17.141l27.647-45.76l7.543-45.548H994.433z"/>
				<path d="M1506.198,2202.397l6.599,48.439l70.125,36.873c0,0,57.121,6.507,58.566,23.136H1437.39
					c-8.792,0-14.21-9.612-9.665-17.141l27.652-45.76l-10.627-45.548H1506.198z"/>
				<path fill="#182F66" d="M1416.754,946.97l102.332,1283.923h-75.928c0,0-140.355-411.868-82.836-556.817l-108.139-487.814
					l-67.639,422.292c-8.715,54.403-21.916,108.001-39.451,160.22l-155.235,462.12h-64.423c0,0,23.02-453.275,115.056-572.936
					l36.811-577.533l26.467-133.454H1416.754z"/>
				
					<line fill="none" stroke="#203E87" stroke-width="0.5" stroke-miterlimit="10" x1="1285.402" y1="992.388" x2="1252.184" y2="1186.261"/>
				<linearGradient id="SVGID_4_" gradientUnits="userSpaceOnUse" x1="1250.0361" y1="845.7134" x2="1250.0361" y2="1212.1569">
					<stop  offset="0.129" style="stop-color:#000000"/>
					<stop  offset="1" style="stop-color:#FFFFFF"/>
				</linearGradient>
				<polygon opacity="0.3" fill="url(#SVGID_4_)" points="1416.754,946.97 1103.769,946.97 1078.43,1074.73 1421.643,1008.26 				
					"/>
				<g>
					<path fill="#FF9C91" d="M1353.984,245.753l19.001,102.959h-12.663v45.022c0,12.001-9.717,21.714-21.703,21.714h-22.533
						c-5.745,0-10.411,4.659-10.411,10.416v71.267h-111.022V387.737c0,0-23.006-115.528,16.108-141.984
						C1249.875,219.282,1322.93,195.129,1353.984,245.753z"/>
					<linearGradient id="SVGID_5_" gradientUnits="userSpaceOnUse" x1="1191.3076" y1="423.3657" x2="1332.7139" y2="423.3657">
						<stop  offset="0.194" style="stop-color:#FF9C91"/>
						<stop  offset="1" style="stop-color:#F27C6F"/>
					</linearGradient>
					<path fill="url(#SVGID_5_)" d="M1332.714,415.449c-72.868-5.375-81.601-65.85-81.601-65.85l-59.806,16.781
						c1.677,12.797,3.345,21.356,3.345,21.356v109.395h111.022v-71.267c0-5.756,4.666-10.416,10.411-10.416H1332.714z"/>
					<path d="M1374.639,194.073c-34.68,0-99.233,0-154.156,0c-54.918,0-52.995,66.477-46.258,111.764
						c6.748,45.293,21.21,81.9,21.21,81.9c23.693-4.804,41.86-19.784,55.679-38.138c-8.508-2.85-14.821-13.025-14.821-25.229
						c0-14.436,8.772-26.118,19.603-26.118c7.24,0,13.505,5.296,16.894,13.085c13.399-30.997,18.031-59.463,18.031-59.463
						s51.071,7.707,93.459,9.64C1426.679,263.437,1431.648,194.073,1374.639,194.073z"/>
				</g>
				<path fill="#FFFFFF" d="M1106.342,489.082h259.172c31.938,0,57.685,26.14,57.213,58.076l-5.973,399.812h-312.985
					l-46.543-402.758C1053.824,514.84,1076.786,489.082,1106.342,489.082z"/>
				<path fill="#203E87" d="M1318.154,480.628h50.787c31.194,0,59.95,16.879,75.137,44.131l139.851,250.766l105.837-192.127
					l62.123,32.211l-112.343,236.008c-21.442,45.033-83.26,50.721-112.55,10.342l-96.081-132.452v204.785l37.548,227.405h-61.714
					l-78.228-210.155L1318.154,480.628z"/>
				<path fill="none" stroke="#182F66" stroke-width="0.5" stroke-miterlimit="10" d="M1318.728,480.628
					c0,0,41.995,11.519,56.084,51.149c11.823,33.263-23.496,111.789-23.496,111.789s41.647,61.348-25.629,179.252"/>
				<polygon fill="#FF4A36" points="1228.079,530.5 1252.752,508.063 1275.762,528.196 1265.983,552.927 1239.806,552.927 				"/>
				<polygon fill="#FF4A36" points="1250.958,803.736 1289.764,888.857 1297.553,801.351 1265.983,552.927 1239.806,552.927 				"/>
				<g>
					<linearGradient id="SVGID_6_" gradientUnits="userSpaceOnUse" x1="956.3794" y1="1391.457" x2="956.3794" y2="1651.4458">
						<stop  offset="0.129" style="stop-color:#000000"/>
						<stop  offset="1" style="stop-color:#FFFFFF"/>
					</linearGradient>
					<rect x="754.473" y="1284.587" opacity="0.3" fill="url(#SVGID_6_)" width="403.813" height="272.662"/>
					<path fill="none" stroke="#000000" stroke-width="0.5969" stroke-miterlimit="10" d="M1070.24,1275.361l-19.78-45.177
						c-7.308-16.692-23.107-27.363-40.488-27.363H877.637c-17.391,0-33.185,10.671-40.488,27.363l-19.78,45.177"/>
					<rect x="741.893" y="1271.404" fill="#BF8A00" width="403.828" height="272.663"/>
					<linearGradient id="SVGID_7_" gradientUnits="userSpaceOnUse" x1="943.8066" y1="1281.1426" x2="943.8066" y2="1541.1323">
						<stop  offset="0.129" style="stop-color:#000000"/>
						<stop  offset="1" style="stop-color:#FFFFFF"/>
					</linearGradient>
					<rect x="741.893" y="1271.404" opacity="0.3" fill="url(#SVGID_7_)" width="403.828" height="272.663"/>
					<path fill="#BF8A00" d="M1130.273,1336.218l-163.04,112.318c-14.112,9.723-32.747,9.723-46.864,0l-163.039-112.318
						c-9.659-6.66-15.438-17.642-15.438-29.368v-35.445h403.828v35.445C1145.721,1318.576,1139.94,1329.558,1130.273,1336.218z"/>
					<path fill="#FFFFFF" d="M963.644,1387.887c0,10.961-8.874,19.839-19.844,19.839c-10.956,0-19.844-8.878-19.844-19.839
						c0-10.959,8.888-19.848,19.844-19.848C954.77,1368.039,963.644,1376.928,963.644,1387.887z"/>
					
						<line fill="none" stroke="#FFFFFF" stroke-width="0.25" stroke-miterlimit="10" x1="760.03" y1="1292.371" x2="1127.56" y2="1292.371"/>
				</g>
				
					<line fill="none" stroke="#182F66" stroke-width="0.5" stroke-miterlimit="10" x1="1430.915" y1="729.508" x2="1430.915" y2="581.108"/>
				<g>
					<polygon fill="#203E87" points="1747.47,457.285 1731.577,454.62 1738.22,414.918 1754.111,417.573 					"/>
					<path fill="#203E87" d="M1785.469,520.701c-5.673,33.893-34.988,57.236-65.487,52.136
						c-30.506-5.104-50.634-36.708-44.965-70.601c5.658-33.898,34.987-57.237,65.482-52.132
						C1770.999,455.198,1791.129,486.807,1785.469,520.701z"/>
					<path fill="#FFFFFF" d="M1770.186,518.151c-4.102,24.51-25.314,41.388-47.37,37.706c-22.062-3.682-36.618-26.548-32.521-51.072
						c4.092-24.515,25.309-41.398,47.365-37.711C1759.73,470.767,1774.282,493.627,1770.186,518.151z"/>
					
						<polyline fill="none" stroke="#182F66" stroke-width="0.25" stroke-linecap="round" stroke-linejoin="round" stroke-miterlimit="10" points="
						1735.693,478.844 1730.248,511.466 1751.951,504.873 					"/>
				</g>
				
					<path fill="none" stroke="#203E87" stroke-width="0.25" stroke-linecap="round" stroke-linejoin="round" stroke-miterlimit="10" d="
					M1751.951,430.447c0,0,75.206,73.61,104.492,200.489c29.275,126.881-37.249,168.057-80.252,151.819
					c-45.943-17.353,23.854-149.65-5.133-201.647"/>
				<linearGradient id="SVGID_8_" gradientUnits="userSpaceOnUse" x1="1421.5625" y1="939.3774" x2="1421.5624" y2="3005.8887">
					<stop  offset="0.129" style="stop-color:#000000"/>
					<stop  offset="1" style="stop-color:#FFFFFF"/>
				</linearGradient>
				<path opacity="0.3" fill="url(#SVGID_8_)" d="M1360.322,1674.075c-57.52,144.949,82.836,556.817,82.836,556.817h75.928
					l-31.556-395.913l-163.491-324.58L1360.322,1674.075z"/>
				<polyline fill="none" stroke="#182F66" stroke-width="0.5" stroke-miterlimit="10" points="1204.799,552.927 1252.752,508.063 
					1301.919,548.362 				"/>
				<path fill="#FF9C91" d="M917.965,1150.028v68.688c0,8.122,6.589,14.72,14.725,14.72h35.542c8.136,0,14.729-6.598,14.729-14.72
					v-15.095c0-7.631-2.94-14.972-8.213-20.486l-10.184-10.68v-22.428H917.965z"/>
				<path fill="#203E87" d="M1182.786,480.628l47.558,470.915l-87.433,210.155h-115.052l61.361-231.623l-39.88-268.45
					l-79.77,204.019v296.055h-58.292l-23.588-223.712c-5.915-56.027,2.372-112.623,24.076-164.605l109.248-261.679
					c7.871-18.821,26.278-31.074,46.683-31.074H1182.786z"/>
				<path fill="none" stroke="#182F66" stroke-width="0.5" stroke-miterlimit="10" d="M1182.786,480.628
					c0,0-40.285,16.503-49.49,57.535c-7.728,34.461,36.818,108.145,36.818,108.145s-33.946,65.911,47.071,174.853"/>
				
					<line fill="none" stroke="#182F66" stroke-width="0.5" stroke-miterlimit="10" x1="1049.341" y1="661.625" x2="1078.43" y2="565.016"/>
			</g>
			
				<line fill="none" stroke="#000000" stroke-width="0.6764" stroke-miterlimit="10" x1="184.392" y1="2310.846" x2="2609.6" y2="2310.846"/>
			<g>
				
					<line fill="none" stroke="#FFFFFF" stroke-linecap="round" stroke-linejoin="round" stroke-miterlimit="10" x1="5152.959" y1="2390.646" x2="5152.959" y2="2499.016"/>
				
					<line fill="none" stroke="#FFFFFF" stroke-linecap="round" stroke-linejoin="round" stroke-miterlimit="10" x1="5207.13" y1="2444.839" x2="5098.769" y2="2444.839"/>
			</g>
			<g>
				
					<line fill="none" stroke="#FFFFFF" stroke-linecap="round" stroke-linejoin="round" stroke-miterlimit="10" x1="7322.504" y1="236.156" x2="7322.504" y2="344.513"/>
				
					<line fill="none" stroke="#FFFFFF" stroke-linecap="round" stroke-linejoin="round" stroke-miterlimit="10" x1="7376.684" y1="290.328" x2="7268.328" y2="290.328"/>
			</g>
		</g>
	</g>
</g>
</svg>
