<?xml version="1.0" encoding="utf-8"?>
<!-- Generator: Adobe Illustrator 16.0.0, SVG Export Plug-In . SVG Version: 6.00 Build 0)  -->
<!DOCTYPE svg PUBLIC "-//W3C//DTD SVG 1.1//EN" "http://www.w3.org/Graphics/SVG/1.1/DTD/svg11.dtd">
<svg version="1.1" id="Layer_1" xmlns="http://www.w3.org/2000/svg" xmlns:xlink="http://www.w3.org/1999/xlink" x="0px" y="0px"
	 width="2000px" height="2000px" viewBox="0 0 2000 2000" enable-background="new 0 0 2000 2000" xml:space="preserve">
<g>
	<defs>
		<path id="SVGID_1_" d="M1993.5,1000c0-548.695-444.815-993.5-993.5-993.5C451.314,6.5,6.5,451.305,6.5,1000
			c0,548.696,444.814,993.5,993.5,993.5C1548.685,1993.5,1993.5,1548.696,1993.5,1000z"/>
	</defs>
	<clipPath id="SVGID_2_">
		<use xlink:href="#SVGID_1_"  overflow="visible"/>
	</clipPath>
	<g clip-path="url(#SVGID_2_)">
		<path fill="#F0D325" d="M-1024.14,3333.415c0,0-67.458-2991.779,400.985-3754.527
			c487.727-794.16,1198.05-723.601,1629.311-231.338c431.236,492.263,722.849,824.857,1254.007,1036.951
			c531.192,212.074,766.964,1002.915,708.024,1639.013c-58.94,636.11-117.886,1309.838-117.886,1309.838L-1024.14,3333.415z"/>
		<g>
			
				<line fill="none" stroke="#FFFFFF" stroke-width="0.9057" stroke-linecap="round" stroke-linejoin="round" stroke-miterlimit="10" x1="1820.103" y1="1291.821" x2="1820.103" y2="1403.114"/>
			
				<line fill="none" stroke="#FFFFFF" stroke-width="0.9057" stroke-linecap="round" stroke-linejoin="round" stroke-miterlimit="10" x1="1865.752" y1="1347.464" x2="1774.454" y2="1347.464"/>
		</g>
		<g>
			
				<line fill="none" stroke="#FFFFFF" stroke-width="0.9057" stroke-linecap="round" stroke-linejoin="round" stroke-miterlimit="10" x1="732.367" y1="723.833" x2="732.367" y2="835.122"/>
			
				<line fill="none" stroke="#FFFFFF" stroke-width="0.9057" stroke-linecap="round" stroke-linejoin="round" stroke-miterlimit="10" x1="778.01" y1="779.475" x2="686.717" y2="779.475"/>
		</g>
		
			<line fill="none" stroke="#000000" stroke-width="0.6764" stroke-miterlimit="10" x1="-230.311" y1="2366.412" x2="2260.455" y2="2366.412"/>
		<g>
			<g>
				<path fill="#3465D9" d="M940.643,642.277v25.909h-20.632v-25.624c-33.273-2.348-58.003-19.429-68.6-47.706l40.623-23.557
					c6.189,14.131,14.747,22.388,27.977,24.731v-40.627c-1.174-0.587-2.625-0.894-3.828-1.479
					c-25.609-10.309-56.229-24.731-56.229-64.199c0-38.285,28.836-58.01,60.057-60.958v-25.624h20.632v26.21
					c25.322,3.236,46.522,16.789,58.004,42.708l-39.76,23.262c-3.799-10.318-9.702-16.202-18.245-19.152v39.764
					c25.608,10.896,60.376,20.623,60.376,63.612C1001.019,616.358,975.682,638.158,940.643,642.277z M920.011,506.224v-30.926
					c-8.522,2.067-12.938,7.649-12.938,14.729C907.073,495.624,909.707,500.329,920.011,506.224z M953.876,580.134
					c0-7.363-4.405-11.769-13.233-16.198v31.508C950.645,592.796,953.876,586.325,953.876,580.134z"/>
			</g>
		</g>
		<g>
			<g>
				<path fill="#3465D9" d="M470.675,1285.477v63.553h-50.577v-62.851c-81.638-5.752-142.287-47.667-168.279-117.012l99.632-57.791
					c15.174,34.676,36.169,54.913,68.647,60.672v-99.665c-2.877-1.436-6.471-2.178-9.416-3.619
					c-62.812-25.288-137.935-60.667-137.935-157.479c0-93.908,70.768-142.282,147.351-149.52v-62.842h50.577v64.282
					c62.108,7.947,114.103,41.176,142.288,104.76l-97.536,57.053c-9.344-25.289-23.806-39.735-44.752-46.968v97.521
					c62.826,26.729,148.109,50.577,148.109,156.044C618.784,1221.893,556.612,1275.356,470.675,1285.477z M420.098,951.741v-75.842
					c-20.942,5.06-31.765,18.769-31.765,36.111C388.333,925.754,394.809,937.31,420.098,951.741z M503.138,1133.055
					c0-18.06-10.812-28.883-32.463-39.729v77.282C495.202,1164.112,503.138,1148.229,503.138,1133.055z"/>
			</g>
		</g>
		<g>
			<path d="M1857.719,2236.437l20.055,47.046l-64.655,49.419c0,0-56.699,16.431-55.303,33.511l206.641-35.166
				c8.908-1.508,12.734-12.181,6.842-19.021l-35.884-41.563l-15.477-44.819L1857.719,2236.437z"/>
			<path d="M1293.369,2255.031l-6.773,49.748l-72.022,37.872c0,0-58.655,6.681-60.135,23.761h209.597
				c9.031,0,14.601-9.878,9.943-17.604l-28.408-47.003l10.906-46.773H1293.369z"/>
			<path fill="#182F66" d="M1315.494,965.66l-35.354,1318.653h77.982c0,0,86.445-363.815,58.639-571.889l67.774-500.995
				l93.567,465.572c6.394,31.891,17.037,62.788,31.591,91.879l242.049,479.389h90.589c0,0-130.374-435.863-240.391-552.392
				l-37.81-593.155l-27.175-137.062H1315.494z"/>
			<linearGradient id="SVGID_3_" gradientUnits="userSpaceOnUse" x1="1310.4824" y1="1031.2725" x2="1662.9766" y2="1031.2725">
				<stop  offset="0.129" style="stop-color:#000000"/>
				<stop  offset="1" style="stop-color:#FFFFFF"/>
			</linearGradient>
			<polygon opacity="0.3" fill="url(#SVGID_3_)" points="1315.494,965.66 1636.956,965.66 1662.977,1096.886 1310.482,1028.606 			
				"/>
			<path fill="#FF9C91" d="M1379.961,245.493l-19.507,105.753h13.011v46.235c0,12.308,9.979,22.291,22.287,22.291h23.144
				c5.894,0,10.687,4.788,10.687,10.696v73.193h114.025v-112.35c0,0,23.633-118.648-16.548-145.818
				C1486.883,218.318,1411.866,193.504,1379.961,245.493z"/>
			<linearGradient id="SVGID_4_" gradientUnits="userSpaceOnUse" x1="1495.0859" y1="482.0337" x2="1472.0137" y2="384.3162">
				<stop  offset="0.194" style="stop-color:#FF9C91"/>
				<stop  offset="1" style="stop-color:#F27C6F"/>
			</linearGradient>
			<path fill="url(#SVGID_4_)" d="M1401.814,419.772c74.832-5.51,83.817-67.624,83.817-67.624l61.424,17.227
				c-1.732,13.146-3.448,21.937-3.448,21.937v112.35h-114.025v-73.193c0-5.908-4.793-10.696-10.687-10.696H1401.814z"/>
			<path d="M1358.757,192.407c35.611,0,101.921,0,158.319,0c56.417,0,54.429,68.279,47.511,114.786
				c-6.937,46.518-21.776,84.118-21.776,84.118c-24.333-4.924-43.004-20.312-57.179-39.163c8.732-2.93,15.222-13.384,15.222-25.924
				c0-14.805-9.018-26.817-20.137-26.817c-7.441,0-13.869,5.442-17.353,13.443c-13.772-31.843-18.511-61.071-18.511-61.071
				s-52.46,7.923-95.989,9.902C1305.316,263.655,1300.204,192.407,1358.757,192.407z"/>
			<path fill="#FFFFFF" d="M1634.312,495.391h-266.187c-32.794,0-59.248,26.85-58.752,59.654l6.121,410.615h321.462l47.807-413.647
				C1688.241,521.858,1664.675,495.391,1634.312,495.391z"/>
			<path fill="#203E87" d="M1547.056,486.708l-40.108,483.662l89.794,215.833h118.161l-63.014-237.896l53.506-435.417
				c1.703-13.918-9.144-26.182-23.178-26.182H1547.056z"/>
			<g opacity="0.3">
				<linearGradient id="SVGID_5_" gradientUnits="userSpaceOnUse" x1="1473.5771" y1="1024.0713" x2="1659.7324" y2="1024.0713">
					<stop  offset="0.129" style="stop-color:#000000"/>
					<stop  offset="1" style="stop-color:#FFFFFF"/>
				</linearGradient>
				<rect x="1473.577" y="905.991" fill="url(#SVGID_5_)" width="186.155" height="236.16"/>
				<linearGradient id="SVGID_6_" gradientUnits="userSpaceOnUse" x1="1504.5117" y1="1024.0732" x2="1504.5117" y2="1024.0732">
					<stop  offset="0.129" style="stop-color:#000000"/>
					<stop  offset="1" style="stop-color:#FFFFFF"/>
				</linearGradient>
				<line fill="url(#SVGID_6_)" x1="1504.512" y1="942.981" x2="1504.512" y2="1105.166"/>
				<linearGradient id="SVGID_7_" gradientUnits="userSpaceOnUse" x1="1532.8369" y1="1024.0732" x2="1532.8369" y2="1024.0732">
					<stop  offset="0.129" style="stop-color:#000000"/>
					<stop  offset="1" style="stop-color:#FFFFFF"/>
				</linearGradient>
				<line fill="url(#SVGID_7_)" x1="1532.837" y1="942.981" x2="1532.837" y2="1105.166"/>
				<linearGradient id="SVGID_8_" gradientUnits="userSpaceOnUse" x1="1561.1816" y1="1024.0732" x2="1561.1816" y2="1024.0732">
					<stop  offset="0.129" style="stop-color:#000000"/>
					<stop  offset="1" style="stop-color:#FFFFFF"/>
				</linearGradient>
				<line fill="url(#SVGID_8_)" x1="1561.182" y1="942.981" x2="1561.182" y2="1105.166"/>
			</g>
			<path fill="#203E87" d="M1429.582,486.708h-75.929c-30.333,0-54.876,24.663-54.715,54.992l2.013,410.945l-38.566,233.559h63.385
				l80.353-215.833L1429.582,486.708z"/>
			<path fill="none" stroke="#182F66" stroke-width="0.5" stroke-miterlimit="10" d="M1543.607,486.708
				c0,0,53.57,16.954,63.016,59.096c7.937,35.398-37.806,111.075-37.806,111.075s34.865,67.702-48.355,179.577"/>
			<path fill="none" stroke="#182F66" stroke-width="0.5" stroke-miterlimit="10" d="M1426.657,486.708
				c0,0-53.6,11.841-68.076,52.537c-12.151,34.171,24.129,114.82,24.129,114.82s-42.771,62.991,26.322,184.094"/>
			<polygon fill="#FF4A36" points="1509.285,537.93 1483.948,514.893 1460.309,535.567 1470.346,560.968 1497.225,560.968 			"/>
			<polygon fill="#FF4A36" points="1485.777,818.555 1445.93,905.991 1437.932,816.105 1470.346,560.968 1497.225,560.968 			"/>
			<path fill="#FF9C91" d="M852.591,687.804c0,0,21.044,28.505,80.082,25.109l32.574,25.113l34.607-31.221l-21.723-19.001H852.591z"
				/>
			<path fill="#203E87" d="M1310.482,503.662l-135.67,310.344l-173.716-115.024l-54.298,45.294l211.109,153.541
				c27.516,19.565,66.003,9.814,80.892-20.49l111.1-226.191L1310.482,503.662z"/>
			<g>
				<rect x="1481.213" y="912.744" fill="#FFFFFF" width="338.89" height="236.16"/>
				
					<line fill="none" stroke="#ABABAB" stroke-width="0.5804" stroke-miterlimit="10" x1="1537.529" y1="949.733" x2="1537.529" y2="1111.924"/>
				
					<line fill="none" stroke="#ABABAB" stroke-width="0.5804" stroke-miterlimit="10" x1="1589.109" y1="949.733" x2="1589.109" y2="1111.924"/>
				
					<line fill="none" stroke="#ABABAB" stroke-width="0.5804" stroke-miterlimit="10" x1="1640.69" y1="949.733" x2="1640.69" y2="1111.924"/>
			</g>
			<path fill="#FF9C91" d="M1653.081,1060.454l-36.612,75.726h13.739l-7.121,23.921h39.298c20.424,0,37.188-16.102,38.032-36.501
				l2.571-63.146H1653.081z"/>
			<path fill="#203E87" d="M1702.449,498.104l93.113,291.369c9.701,30.354,8.221,63.181-4.154,92.559l-82.617,196.071h-73.286
				l87.544-241.594l-74.023-219.894c-9.129-27.094-7.349-56.67,4.93-82.483l18.122-38.08
				C1678.451,482.643,1697.933,483.957,1702.449,498.104z"/>
			
				<line fill="none" stroke="#182F66" stroke-width="0.5" stroke-miterlimit="10" x1="1296.028" y1="604.909" x2="1299.971" y2="752.78"/>
			
				<line fill="none" stroke="#182F66" stroke-width="0.5" stroke-miterlimit="10" x1="1694.039" y1="560.968" x2="1679.055" y2="705.812"/>
			<polyline fill="none" stroke="#182F66" stroke-width="0.5" stroke-miterlimit="10" points="1441.594,548.922 1483.948,514.893 
				1525.73,553.667 			"/>
			<linearGradient id="SVGID_9_" gradientUnits="userSpaceOnUse" x1="1280.1396" y1="1874.7344" x2="1450.2139" y2="1874.7344">
				<stop  offset="0.129" style="stop-color:#000000"/>
				<stop  offset="1" style="stop-color:#FFFFFF"/>
			</linearGradient>
			<path opacity="0.3" fill="url(#SVGID_9_)" d="M1416.761,1712.414l33.453-247.259l-157.548,351.668l-12.526,467.489h77.982
				C1358.122,2284.313,1444.567,1920.497,1416.761,1712.414z"/>
		</g>
		<g>
			<linearGradient id="SVGID_10_" gradientUnits="userSpaceOnUse" x1="815.9141" y1="1343.582" x2="815.914" y2="2354.1853">
				<stop  offset="0.129" style="stop-color:#000000"/>
				<stop  offset="1" style="stop-color:#FFFFFF"/>
			</linearGradient>
			<path opacity="0.4" fill="url(#SVGID_10_)" d="M1234.235,1549.287c0,231.037-187.307,418.317-418.324,418.317
				c-231.037,0-418.318-187.28-418.318-418.317c0-231.032,187.281-418.323,418.318-418.323
				C1046.929,1130.964,1234.235,1318.255,1234.235,1549.287z"/>
			<path fill="#FFFFFF" d="M1207.263,1514.675c0,231.037-187.286,418.322-418.313,418.322
				c-231.032,0-418.318-187.285-418.318-418.322c0-231.033,187.286-418.323,418.318-418.323
				C1019.977,1096.352,1207.263,1283.642,1207.263,1514.675z"/>
			<path fill="#32B34A" stroke="#32B34A" stroke-width="0.5" stroke-miterlimit="2.6131" d="M814.767,1028.151l-25.818,485.814
				l478.704,86.349c5.025-28.038,7.792-56.867,7.792-86.349C1275.445,1253.935,1071.447,1041.573,814.767,1028.151z"/>
			<path fill="#203E87" d="M788.047,1513.243L573.47,1873.266c62.938,37.901,136.658,59.731,215.469,59.731
				c205.918,0,376.981-148.831,411.749-344.771L788.047,1513.243z"/>
			<path fill="#FFC800" d="M370.631,1514.675c0,152.212,81.309,285.403,202.839,358.591l0,0l214.577-360.022H370.666
				C370.666,1513.729,370.631,1514.198,370.631,1514.675z"/>
		</g>
	</g>
</g>
</svg>
