<?xml version="1.0" encoding="utf-8"?>
<!-- Generator: Adobe Illustrator 16.0.0, SVG Export Plug-In . SVG Version: 6.00 Build 0)  -->
<!DOCTYPE svg PUBLIC "-//W3C//DTD SVG 1.1//EN" "http://www.w3.org/Graphics/SVG/1.1/DTD/svg11.dtd">
<svg version="1.1" id="Layer_1" xmlns="http://www.w3.org/2000/svg" xmlns:xlink="http://www.w3.org/1999/xlink" x="0px" y="0px"
	 width="960px" height="560px" viewBox="0 0 960 560" enable-background="new 0 0 960 560" xml:space="preserve">
<g>
	<path fill="#E2AAA6" d="M152.572,70.72L152.572,70.72c-1.273,1.805-3.768,2.236-5.573,0.963l-17.082-12.05
		c-1.805-1.273-2.236-3.768-0.962-5.573l0,0c1.273-1.804,3.768-2.235,5.572-0.962l17.082,12.049
		C153.415,66.421,153.845,68.916,152.572,70.72z"/>
	<path fill="#4D9596" d="M66.437,120.713L66.437,120.713c1.913,1.104,2.568,3.55,1.464,5.462l-10.452,18.104
		c-1.104,1.913-3.55,2.568-5.462,1.463l0,0c-1.913-1.104-2.568-3.55-1.463-5.462l10.452-18.103
		C62.079,120.264,64.524,119.609,66.437,120.713z"/>
	<path fill="#F8C487" d="M127.839,196.372L127.839,196.372c1.436-1.678,3.96-1.875,5.638-0.439l15.886,13.587
		c1.678,1.436,1.875,3.96,0.439,5.638l0,0c-1.436,1.678-3.959,1.875-5.638,0.439l-15.886-13.587
		C126.601,200.574,126.404,198.05,127.839,196.372z"/>
	<path fill="#F8C487" d="M270.567,464.063L270.567,464.063c-1.678-1.436-1.875-3.96-0.439-5.638l13.586-15.886
		c1.436-1.679,3.961-1.876,5.639-0.44l0,0c1.678,1.436,1.875,3.96,0.439,5.639l-13.586,15.886
		C274.77,465.301,272.245,465.498,270.567,464.063z"/>
	<path fill="#8FD1CC" d="M462.346,381.654L462.346,381.654c2.209,0,4,1.79,4,3.999v20.903c0,2.209-1.791,3.999-4,3.999l0,0
		c-2.207,0-3.998-1.79-3.998-3.999v-20.903C458.348,383.444,460.139,381.654,462.346,381.654z"/>
	<path fill="#F8C487" d="M356.653,92.285L356.653,92.285c-0.58-2.131,0.678-4.329,2.809-4.909l20.168-5.492
		c2.131-0.581,4.33,0.677,4.91,2.808l0,0c0.58,2.131-0.678,4.329-2.809,4.909l-20.17,5.492
		C359.43,95.672,357.233,94.416,356.653,92.285z"/>
	<polygon fill="#4D9596" points="418.442,137.309 421.999,137.865 425.557,138.421 423.297,141.224 421.036,144.027 
		419.739,140.668 	"/>
	<polygon fill="#F8C487" points="429.282,473.196 432.84,473.753 436.397,474.309 434.137,477.111 431.877,479.914 430.581,476.556 
			"/>
	<polygon fill="#E2AAA6" points="109.243,145.271 112.8,145.828 116.358,146.384 114.098,149.187 111.837,151.99 110.54,148.63 	"/>
	<polygon fill="#F8C487" points="50.925,441.31 54.482,441.865 58.04,442.421 55.78,445.225 53.52,448.027 52.222,444.668 	"/>
	<polygon fill="none" stroke="#4D9596" stroke-miterlimit="10" points="46.781,202.151 58.04,203.911 69.299,205.671 
		62.146,214.542 54.992,223.413 50.886,212.782 	"/>
	<g>
		<path fill="#8FD1CC" d="M362.616,507.46l-17.887-16.777l23.473-7.103L362.616,507.46z M346.676,491.138l15.359,14.408
			l4.797-20.507L346.676,491.138z"/>
	</g>
	<g>
		<path fill="#E2AAA6" d="M457.866,99.026l-17.887-16.777l23.473-7.103L457.866,99.026z M441.926,82.704l15.359,14.408l4.797-20.507
			L441.926,82.704z"/>
	</g>
	<polygon fill="#F0F4FB" points="111.837,90.196 120.782,91.594 129.727,92.992 124.043,100.04 118.361,107.087 115.099,98.642 	"/>
	<polygon fill="#E2AAA6" points="48.862,483.955 57.807,485.353 66.752,486.751 61.069,493.798 55.386,500.846 52.124,492.4 	"/>
	<polygon fill="#8FD1CC" points="249.684,180.862 250.584,175.109 251.483,169.355 256.016,173.01 260.549,176.666 255.118,178.764 
			"/>
	<polygon fill="#E2AAA6" points="363.303,439.703 364.202,433.949 365.102,428.196 369.635,431.852 374.168,435.507 
		368.735,437.605 	"/>
	<polygon fill="#8FD1CC" points="40.571,296.331 36.248,292.43 31.925,288.527 37.466,286.734 43.007,284.941 41.789,290.637 	"/>
	<polyline fill="none" stroke="#F8C487" stroke-linecap="round" stroke-linejoin="round" stroke-miterlimit="10" points="
		34.289,81.817 36.892,94.136 23.372,96.993 26.077,109.789 	"/>
	<g>
		<path fill="#4D9596" d="M427.614,399.763c-0.021,0.017-0.043,0.034-0.066,0.048l-15.232,9.692c-0.32,0.205-0.748,0.11-0.953-0.212
			l-9.871-15.511l-14.08,8.96c-0.322,0.205-0.748,0.11-0.953-0.212c-0.205-0.319-0.107-0.755,0.211-0.952l14.664-9.331
			c0.322-0.204,0.748-0.11,0.953,0.213l9.871,15.51l14.648-9.321c0.322-0.204,0.75-0.11,0.953,0.213
			C427.948,399.156,427.879,399.545,427.614,399.763z"/>
	</g>
	<path fill="#8FD1CC" d="M893.703,381.654L893.703,381.654c2.209,0,4,1.79,4,3.999v20.903c0,2.209-1.791,3.999-4,3.999l0,0
		c-2.207,0-3.998-1.79-3.998-3.999v-20.903C889.705,383.444,891.496,381.654,893.703,381.654z"/>
	<path fill="#F8C487" d="M788.01,92.285L788.01,92.285c-0.58-2.131,0.678-4.329,2.809-4.909l20.168-5.492
		c2.131-0.581,4.33,0.677,4.91,2.808l0,0c0.58,2.131-0.678,4.329-2.809,4.909l-20.17,5.492
		C790.787,95.672,788.59,94.416,788.01,92.285z"/>
	<path fill="#E2AAA6" d="M883.564,244.435L883.564,244.435c-2.008,0.919-4.381,0.036-5.301-1.973l-8.695-19.009
		c-0.918-2.008-0.035-4.381,1.973-5.3l0,0c2.008-0.919,4.381-0.035,5.301,1.973l8.695,19.009
		C886.455,241.144,885.572,243.516,883.564,244.435z"/>
	<polygon fill="#4D9596" points="849.799,137.309 853.355,137.865 856.914,138.421 854.654,141.224 852.393,144.027 
		851.096,140.668 	"/>
	<polygon fill="#F8C487" points="885.105,295.578 888.664,296.134 892.221,296.689 889.961,299.493 887.699,302.296 
		886.402,298.937 	"/>
	<polygon fill="#F8C487" points="860.639,473.196 864.197,473.753 867.754,474.309 865.494,477.111 863.234,479.914 
		861.938,476.556 	"/>
	<g>
		<path fill="#8FD1CC" d="M793.973,507.46l-17.887-16.777l23.473-7.103L793.973,507.46z M778.033,491.138l15.359,14.408
			l4.797-20.507L778.033,491.138z"/>
	</g>
	<g>
		<path fill="#E2AAA6" d="M889.223,99.026l-17.887-16.777l23.473-7.103L889.223,99.026z M873.283,82.704l15.359,14.408l4.797-20.507
			L873.283,82.704z"/>
	</g>
	<polygon fill="#E2AAA6" points="794.66,439.703 795.559,433.949 796.459,428.196 800.992,431.852 805.525,435.507 800.092,437.605 
			"/>
	<g>
		<path fill="#4D9596" d="M858.971,399.763c-0.021,0.017-0.043,0.034-0.066,0.048l-15.232,9.692c-0.32,0.205-0.748,0.11-0.953-0.212
			l-9.871-15.511l-14.08,8.96c-0.322,0.205-0.748,0.11-0.953-0.212c-0.205-0.319-0.107-0.755,0.211-0.952l14.664-9.331
			c0.322-0.204,0.748-0.11,0.953,0.213l9.871,15.51l14.648-9.321c0.322-0.204,0.75-0.11,0.953,0.213
			C859.305,399.156,859.236,399.545,858.971,399.763z"/>
	</g>
	<polyline fill="none" stroke="#F8C487" stroke-linecap="round" stroke-linejoin="round" stroke-miterlimit="10" points="
		263.151,55.453 275.741,55.48 275.709,69.299 288.788,69.329 	"/>
	<path fill="#F8C487" d="M605.691,471.001L605.691,471.001c-1.678-1.436-1.875-3.96-0.439-5.638l13.586-15.886
		c1.436-1.679,3.961-1.876,5.639-0.44l0,0c1.678,1.436,1.875,3.96,0.439,5.639l-13.586,15.886
		C609.895,472.239,607.369,472.437,605.691,471.001z"/>
	<polygon fill="#8FD1CC" points="584.809,187.801 585.709,182.047 586.607,176.293 591.141,179.949 595.674,183.604 
		590.242,185.703 	"/>
	<polyline fill="none" stroke="#F8C487" stroke-linecap="round" stroke-linejoin="round" stroke-miterlimit="10" points="
		598.275,62.391 610.865,62.419 610.834,76.238 623.912,76.267 	"/>
</g>
</svg>
