<?xml version="1.0" encoding="utf-8"?>
<!-- Generator: Adobe Illustrator 16.0.0, SVG Export Plug-In . SVG Version: 6.00 Build 0)  -->
<!DOCTYPE svg PUBLIC "-//W3C//DTD SVG 1.1//EN" "http://www.w3.org/Graphics/SVG/1.1/DTD/svg11.dtd">
<svg version="1.1" id="Layer_1" xmlns="http://www.w3.org/2000/svg" xmlns:xlink="http://www.w3.org/1999/xlink" x="0px" y="0px"
	 width="960px" height="560.16px" viewBox="0 0 960 560.16" enable-background="new 0 0 960 560.16" xml:space="preserve">
<g opacity="0.05" enable-background="new    ">
	<g>
		<g>
			<defs>
				<rect id="SVGID_1_" x="-71.126" y="-45.746" width="513.686" height="513.817"/>
			</defs>
			<clipPath id="SVGID_2_">
				<use xlink:href="#SVGID_1_"  overflow="visible"/>
			</clipPath>
			
				<radialGradient id="SVGID_3_" cx="-819.2017" cy="376.0703" r="390.3612" gradientTransform="matrix(1 0 0 1 1008 -50.8398)" gradientUnits="userSpaceOnUse">
				<stop  offset="0" style="stop-color:#2E3191"/>
				<stop  offset="0.1172" style="stop-color:#2E3191;stop-opacity:0.8828"/>
				<stop  offset="1" style="stop-color:#008ED3;stop-opacity:0.6"/>
			</radialGradient>
			<path clip-path="url(#SVGID_2_)" fill="url(#SVGID_3_)" d="M-114.081,133.204L34.015,47.746l27.178,15.693L35.846,78.066
				l-11.106-6.414l-0.258,0.446l10.85,6.264l-135.795,78.36l0.258,0.444L35.846,78.658l27.179,15.692l-25.348,14.628l-12.938-7.471
				l-0.256,0.443l12.68,7.322l-123.754,71.411l0.258,0.444l124.01-71.559l27.178,15.692L39.507,139.89l-14.766-8.526l-0.258,0.444
				l14.512,8.377l-111.712,64.462l0.257,0.445l111.969-64.609l27.171,15.692l-25.343,14.626l-16.598-9.582l-0.256,0.443l16.34,9.436
				l-99.666,57.512l0.256,0.446l99.924-57.661l27.166,15.691l-25.334,14.627l-18.43-10.64l-0.256,0.445l18.17,10.491l-87.623,50.563
				l0.257,0.444l87.882-50.71l27.158,15.692l-25.328,14.626l-20.26-11.697l-0.256,0.444l20.002,11.55l-75.581,43.612l0.257,0.445
				l75.838-43.761l27.153,15.691l-25.323,14.627l-22.09-12.754l-0.258,0.445l21.834,12.605l-63.537,36.663l0.256,0.445
				l63.795-36.811l27.146,15.691l-25.313,14.626l-23.922-13.812l-0.256,0.446l23.664,13.661l-51.495,29.714l0.257,0.446
				l51.752-29.862l27.14,15.69l-25.31,14.628l-25.752-14.869l-0.256,0.446l25.494,14.72l-39.452,22.764l0.257,0.446l13.848-7.99
				l27.178,15.696L26.46,371.219l-1.721-0.994l-0.256,0.445l1.462,0.846l-1.546,0.891l0.258,0.445l1.803-1.041l27.178,15.692
				l-15.365,8.865l0.258,0.445l15.621-9.015l27.123,15.691l-25.291,14.627l-31.244-18.039l-0.258,0.445l30.988,17.892l-3.322,1.917
				l0.256,0.445l3.58-2.067L83.1,434.403l-17.084,9.891l0.257,0.444l17.34-10.039l27.134,15.692l-25.311,14.627l-60.694-35.086
				l-0.258,0.446l60.44,34.936l-4.76,2.756h1.026l4.247-2.459l4.244,2.459h1.025l-4.758-2.756l25.311-14.628l27.179,15.694
				l-2.932,1.689h1.028l2.417-1.394l2.415,1.394h1.028l-2.93-1.689l25.348-14.627l28.265,16.316h1.027l-28.777-16.612l25.348-14.629
				l54.11,31.241h1.029l-54.624-31.537l25.348-14.626l79.96,46.163h1.026l-80.474-46.46l25.349-14.626l105.807,61.087h1.029
				l-106.321-61.385l25.347-14.627l131.657,76.012h1.027l-132.17-76.309l25.348-14.625l157.504,90.934h1.027l-158.017-91.232
				l25.348-14.625l161.238,93.089l0.258-0.444L320.5,361.916l25.349-14.65l135.376,78.183l0.258-0.445l-135.12-78.033l25.349-14.627
				l109.514,63.251l0.258-0.446l-109.258-63.101l25.348-14.627l83.652,48.318l0.258-0.445l-83.395-48.169l25.348-14.626
				l57.789,33.363l0.258-0.445L423.949,302.2l2.934-1.692l-0.257-0.445l-3.191,1.841l-27.177-15.689l16.752-9.667l-0.258-0.447
				l-17.009,9.816l-27.179-15.692l25.348-14.626l87.313,50.409l0.258-0.446l-87.055-50.26l4.708-2.718l-0.255-0.446l-4.969,2.867
				l-27.178-15.692l18.529-10.691l-0.258-0.445l-18.787,10.84l-27.178-15.69l25.348-14.629l116.836,67.457l0.258-0.444
				l-116.578-67.309l6.484-3.741l-0.258-0.447l-6.743,3.892l-27.179-15.69l20.306-11.717l-0.256-0.445l-20.563,11.865l-27.18-15.691
				l25.349-14.627l146.359,84.5l0.258-0.445L335.38,161.5l8.26-4.767l-0.257-0.445l-8.518,4.915l-27.18-15.691l22.082-12.743
				l-0.258-0.444l-22.338,12.892l-27.178-15.692l25.347-14.626l175.884,101.547l0.258-0.446L305.855,114.599l10.039-5.792
				l-0.257-0.445l-10.296,5.942l-27.18-15.693l23.859-13.767l-0.258-0.445l-24.115,13.915l-27.18-15.691l25.349-14.627
				l205.407,118.592l0.258-0.446L276.332,67.698l11.814-6.817l-0.258-0.444l-12.068,6.966l-27.182-15.693l25.349-14.627
				l207.238,119.65l0.257-0.446L274.044,36.522l-0.027-0.048l-0.029,0.016L246.81,20.798l13.591-7.842l-0.258-0.445l-13.848,7.991
				L219.115,4.81l27.41-15.817l-0.258-0.443L218.602,4.513L191.424-11.18l41.228-23.79l-0.257-0.445l-41.486,23.94l-27.18-15.691
				l55.047-31.766l-0.256-0.443l-55.303,31.912L24.739-107.477l-0.256,0.445l138.219,79.865L137.354-12.54L24.739-77.621
				l-0.256,0.445l112.355,64.934L111.49,2.385l-86.751-50.15l-0.256,0.444l86.493,50.002l-25.31,14.626L24.739-17.911l-0.256,0.445
				l60.672,35.069L59.877,32.23L24.739,11.943l-0.256,0.445l34.879,20.139L34.015,47.154l-9.275-5.355l-0.258,0.444l9.02,5.207
				l-147.84,85.309L-114.081,133.204z M36.358,78.362l25.35-14.626l27.097,15.691L63.538,94.055L36.358,78.362z M146.506,142.613
				l27.179,15.691l-25.348,14.626l-27.179-15.692L146.506,142.613z M146.506,142.02l-27.178-15.692l25.348-14.626l27.18,15.691
				L146.506,142.02z M179.691,251.337l27.18,15.69l-25.349,14.629l-27.179-15.693L179.691,251.337z M179.691,250.743l-27.179-15.691
				l25.348-14.627l27.179,15.692L179.691,250.743z M208.701,297.94l-25.348,14.626l-27.179-15.69l25.348-14.627L208.701,297.94z
				 M182.035,281.952l25.351-14.626l27.178,15.69l-25.349,14.627L182.035,281.952z M207.898,267.027l25.348-14.624l27.179,15.69
				l-25.348,14.628L207.898,267.027z M207.386,266.731l-27.18-15.691l25.347-14.626l27.18,15.691L207.386,266.731z M178.374,220.128
				l25.35-14.626l27.179,15.692l-25.35,14.626L178.374,220.128z M177.861,219.832l-27.18-15.692l25.35-14.626l27.178,15.691
				L177.861,219.832z M176.029,188.92l-27.178-15.691l25.348-14.628l27.179,15.692L176.029,188.92z M148.337,173.524l27.179,15.692
				l-25.348,14.627l-27.179-15.693L148.337,173.524z M150.168,204.438l27.178,15.69l-25.348,14.628l-27.178-15.693L150.168,204.438z
				 M151.998,235.348l27.181,15.692l-25.349,14.627l-27.18-15.691L151.998,235.348z M181.008,281.952l-25.348,14.626l-27.179-15.691
				l25.347-14.627L181.008,281.952z M182.838,312.864l-25.348,14.625l-27.178-15.691l25.348-14.626L182.838,312.864z
				 M184.67,343.776l-25.349,14.637l-27.179-15.703l25.347-14.626L184.67,343.776z M158.006,327.786l25.348-14.625l27.178,15.69
				l-25.348,14.627L158.006,327.786z M183.868,312.864l25.348-14.626l27.177,15.689l-25.348,14.629L183.868,312.864z
				 M209.729,297.94l25.349-14.628l27.178,15.693l-25.348,14.627L209.729,297.94z M235.592,283.018l25.347-14.628l27.18,15.692
				l-25.349,14.626L235.592,283.018z M260.938,267.798l-27.178-15.693l25.348-14.626l27.179,15.692L260.938,267.798z
				 M233.246,251.809l-27.179-15.691l25.349-14.628l27.18,15.693L233.246,251.809z M204.237,205.204l25.349-14.627l27.179,15.693
				l-25.349,14.626L204.237,205.204z M203.723,204.907l-27.178-15.69l25.347-14.627l27.18,15.692L203.723,204.907z M174.713,158.305
				l25.348-14.627l27.18,15.691l-25.348,14.628L174.713,158.305z M174.199,158.008l-27.179-15.691l25.349-14.626l27.179,15.691
				L174.199,158.008z M145.19,111.403l25.349-14.626l27.178,15.691l-25.348,14.628L145.19,111.403z M143.359,80.492l25.348-14.627
				l27.18,15.691l-25.349,14.627L143.359,80.492z M170.023,96.481l-25.348,14.626l-27.18-15.692l25.349-14.626L170.023,96.481z
				 M144.161,111.403l-25.349,14.627l-27.16-15.692l25.33-14.625L144.161,111.403z M118.813,126.625l27.179,15.691l-25.349,14.626
				l-27.167-15.69L118.813,126.625z M120.645,157.537l27.178,15.69l-25.348,14.627l-27.173-15.691L120.645,157.537z
				 M122.475,188.448l27.18,15.69l-25.348,14.627l-27.181-15.69L122.475,188.448z M124.307,219.359l27.177,15.693l-25.349,14.625
				l-27.178-15.689L124.307,219.359z M153.315,265.963l-25.348,14.627l-27.179-15.692l25.347-14.625L153.315,265.963z
				 M155.146,296.877l-25.348,14.625l-27.18-15.691l25.349-14.628L155.146,296.877z M156.977,327.786l-25.348,14.628l-27.178-15.692
				l25.348-14.626L156.977,327.786z M158.808,358.712l-25.349,14.636l-27.179-15.705l25.349-14.636L158.808,358.712z
				 M160.637,389.634l-25.347,14.625l-27.179-15.692l25.348-14.625L160.637,389.634z M133.973,373.645l25.349-14.634l27.178,15.7
				l-25.347,14.625L133.973,373.645z M159.836,358.712l25.348-14.639l27.179,15.707l-25.347,14.634L159.836,358.712z
				 M185.697,343.776l25.348-14.627l27.181,15.692l-25.35,14.641L185.697,343.776z M211.561,328.853l25.347-14.627l27.179,15.692
				l-25.347,14.626L211.561,328.853z M237.422,313.931l25.35-14.627l27.178,15.69l-25.349,14.627L237.422,313.931z M263.284,299.006
				l25.348-14.627l27.181,15.692l-25.35,14.626L263.284,299.006z M289.146,284.082l25.347-14.626l27.18,15.691l-25.348,14.627
				L289.146,284.082z M288.631,283.785l-27.178-15.691l25.349-14.627l27.179,15.691L288.631,283.785z M286.802,252.873
				l-27.178-15.69l25.347-14.628l27.178,15.692L286.802,252.873z M259.109,236.885l-27.181-15.69l25.348-14.628l27.181,15.694
				L259.109,236.885z M230.099,190.282l25.348-14.627l27.179,15.69l-25.348,14.627L230.099,190.282z M229.585,189.984
				l-27.179-15.691l25.348-14.626l27.179,15.692L229.585,189.984z M200.576,143.382l25.348-14.626l27.178,15.691l-25.348,14.626
				L200.576,143.382z M200.061,143.085l-27.179-15.691l25.35-14.627l27.178,15.692L200.061,143.085z M171.051,96.481l25.35-14.627
				l27.179,15.692l-25.348,14.626L171.051,96.481z M169.221,65.569l25.349-14.628l27.178,15.692L196.4,81.262L169.221,65.569z
				 M168.707,65.271l-27.18-15.691l25.35-14.627l27.178,15.693L168.707,65.271z M168.193,65.568l-25.349,14.627l-27.179-15.691
				l25.348-14.627L168.193,65.568z M142.33,80.492l-25.348,14.626l-27.155-15.69l25.324-14.627L142.33,80.492z M116.469,95.415
				L91.14,110.043L64.052,94.351l25.264-14.626L116.469,95.415z M91.14,110.637l27.161,15.692l-25.336,14.625l-27.088-15.691
				L91.14,110.637z M92.966,141.548l27.165,15.69l-25.34,14.628l-27.088-15.691L92.966,141.548z M94.791,172.46l27.17,15.691
				l-25.348,14.626l-27.085-15.69L94.791,172.46z M96.613,203.371l27.178,15.691L98.443,233.69l-27.093-15.691L96.613,203.371z
				 M125.622,249.976l-25.347,14.626L73.177,248.91l25.267-14.626L125.622,249.976z M127.453,280.887l-25.348,14.626L75.001,279.82
				l25.272-14.626L127.453,280.887z M129.283,311.799l-25.347,14.627l-27.11-15.692l25.279-14.627L129.283,311.799z M131.114,342.71
				l-25.349,14.637L78.65,341.645l25.285-14.626L131.114,342.71z M105.251,357.643l-25.289,14.641l-27.125-15.709l25.3-14.631
				L105.251,357.643z M105.766,357.939l27.179,15.705l-25.347,14.625l-27.122-15.69L105.766,357.939z M134.775,404.557
				l-25.348,14.626l-27.129-15.691l25.299-14.627L134.775,404.557z M135.29,404.854l27.179,15.69l-25.348,14.627l-27.18-15.692
				L135.29,404.854z M135.805,404.557l25.348-14.626l27.178,15.692l-25.348,14.625L135.805,404.557z M161.667,389.634l25.349-14.627
				l27.178,15.691l-25.349,14.628L161.667,389.634z M187.53,374.71l25.346-14.632l27.18,15.697L214.708,390.4L187.53,374.71z
				 M213.391,359.78l25.349-14.644l27.178,15.712l-25.348,14.63L213.391,359.78z M239.252,344.841l25.349-14.627l27.179,15.691
				l-25.348,14.646L239.252,344.841z M265.115,329.917l25.348-14.626l27.18,15.69l-25.349,14.628L265.115,329.917z M290.979,314.994
				l25.347-14.626l27.179,15.69l-25.35,14.627L290.979,314.994z M316.84,300.07l25.35-14.626l27.176,15.691l-25.347,14.628
				L316.84,300.07z M342.188,284.851l-27.178-15.691l25.347-14.627l27.179,15.691L342.188,284.851z M314.493,268.861l-27.177-15.69
				l25.348-14.628l27.178,15.692L314.493,268.861z M312.662,237.95l-27.177-15.689l25.348-14.629l27.179,15.691L312.662,237.95z
				 M284.971,221.963l-27.178-15.692l25.348-14.628l27.179,15.692L284.971,221.963z M255.961,175.359l25.348-14.628l27.181,15.692
				l-25.35,14.626L255.961,175.359z M255.446,175.062l-27.178-15.692l25.348-14.626l27.18,15.693L255.446,175.062z M226.437,128.459
				l25.35-14.627l27.179,15.691l-25.349,14.627L226.437,128.459z M225.924,128.161l-27.18-15.692l25.349-14.625l27.179,15.69
				L225.924,128.161z M196.914,81.557l25.348-14.627l27.179,15.692L224.093,97.25L196.914,81.557z M195.083,50.646l25.349-14.627
				l27.18,15.691l-25.35,14.627L195.083,50.646z M194.569,50.35l-27.18-15.692l25.349-14.627l27.179,15.692L194.569,50.35z
				 M166.877,34.361l-27.18-15.692l25.35-14.627l27.178,15.692L166.877,34.361z M166.363,34.657l-25.35,14.627l-27.179-15.692
				l25.349-14.625L166.363,34.657z M140.5,49.58l-25.349,14.628L88.003,48.516l25.318-14.627L140.5,49.58z M114.639,64.504
				L89.317,79.131L62.222,63.439l25.271-14.627L114.639,64.504z M38.19,109.273l25.348-14.625l27.09,15.691l-25.263,14.626
				L38.19,109.273z M40.021,140.187l25.345-14.627l27.088,15.691L67.19,155.879L40.021,140.187z M41.853,171.098l25.338-14.626
				l27.087,15.691l-25.263,14.628L41.853,171.098z M43.683,202.01l25.332-14.626l27.088,15.692l-25.264,14.625L43.683,202.01z
				 M45.513,232.922l25.326-14.627l27.09,15.693l-25.265,14.625L45.513,232.922z M47.345,263.834l25.319-14.627l27.096,15.691
				l-25.271,14.628L47.345,263.834z M49.175,294.745l25.313-14.626l27.104,15.691l-25.277,14.626L49.175,294.745z M76.313,311.03
				l27.108,15.691L78.138,341.35l-27.133-15.692L76.313,311.03z M25.144,340.581l25.348-14.627l27.133,15.691l-25.301,14.631
				L25.144,340.581z M26.976,371.515l25.348-14.644l27.126,15.709l-25.298,14.627L26.976,371.515z M54.667,387.503l25.295-14.626
				l27.121,15.69l-25.297,14.627L54.667,387.503z M56.497,418.415l25.289-14.625l27.126,15.69L83.61,434.106L56.497,418.415z
				 M84.125,434.403l25.303-14.626l27.18,15.691l-25.35,14.626L84.125,434.403z M138.952,466.084l-27.179-15.692l25.349-14.626
				l27.177,15.692L138.952,466.084z M164.813,451.161l-27.178-15.692l25.348-14.626l27.179,15.691L164.813,451.161z
				 M190.676,436.236l-27.179-15.691l25.349-14.626l27.178,15.691L190.676,436.236z M216.538,421.313l-27.178-15.689l25.348-14.629
				l27.178,15.693L216.538,421.313z M242.4,406.39l-27.179-15.692l25.348-14.624l27.179,15.69L242.4,406.39z M268.262,391.467
				l-27.178-15.692l25.348-14.627l27.179,15.691L268.262,391.467z M294.125,376.542l-27.179-15.694l25.348-14.645l27.178,15.713
				L294.125,376.542z M319.986,361.62l-27.178-15.715l25.348-14.626l27.178,15.69L319.986,361.62z M345.849,346.674l-27.178-15.691
				l25.348-14.626l27.178,15.689L345.849,346.674z M371.71,331.75l-27.179-15.691l25.35-14.626l27.179,15.69L371.71,331.75z
				 M395.741,286.511L422.92,302.2l-25.348,14.626l-27.178-15.69L395.741,286.511z M395.229,286.213l-25.348,14.625l-27.179-15.69
				l25.348-14.628L395.229,286.213z M366.218,239.607l27.179,15.692l-25.349,14.629l-27.178-15.693L366.218,239.607z
				 M365.704,239.313l-25.348,14.626l-27.179-15.692l25.35-14.628L365.704,239.313z M363.873,208.399l-25.346,14.628l-27.18-15.692
				l25.348-14.626L363.873,208.399z M336.182,192.411l-25.349,14.627l-27.179-15.692l25.348-14.627L336.182,192.411z M334.351,161.5
				l-25.349,14.626l-27.179-15.69l25.347-14.627L334.351,161.5z M306.658,145.511l-25.35,14.627l-27.178-15.691l25.349-14.626
				L306.658,145.511z M304.827,114.599l-25.348,14.626l-27.179-15.69l25.348-14.626L304.827,114.599z M277.133,98.611
				l-25.348,14.627l-27.179-15.693l25.348-14.626L277.133,98.611z M275.303,67.699l-25.347,14.626l-27.18-15.691l25.348-14.626
				L275.303,67.699z M273.473,36.788l-25.348,14.628l-27.18-15.693l25.35-14.627L273.473,36.788z M245.779,20.799l-25.348,14.626
				l-27.179-15.69l25.349-14.628L245.779,20.799z M218.086,4.811l-25.348,14.627l-27.18-15.692l25.35-14.628L218.086,4.811z
				 M163.217-26.869l27.178,15.691L165.047,3.448l-27.181-15.691L163.217-26.869z M137.353-11.946l27.179,15.692l-25.348,14.627
				L112.005,2.68L137.353-11.946z M111.49,2.977l27.18,15.692l-25.35,14.626L86.179,17.604L111.49,2.977z M85.667,17.899
				l27.141,15.692L87.491,48.219L60.39,32.527L85.667,17.899z M59.877,32.824l27.103,15.691L61.708,63.143l-27.18-15.693
				L59.877,32.824z"/>
		</g>
	</g>
</g>
<g opacity="0.05" enable-background="new    ">
	<g>
		<g>
			<defs>
				<rect id="SVGID_4_" x="647.611" y="-107.498" width="513.814" height="513.886"/>
			</defs>
			<clipPath id="SVGID_5_">
				<use xlink:href="#SVGID_4_"  overflow="visible"/>
			</clipPath>
			
				<radialGradient id="SVGID_6_" cx="-100.4302" cy="314.3701" r="390.4057" gradientTransform="matrix(1 0 0 1 1008 -50.8398)" gradientUnits="userSpaceOnUse">
				<stop  offset="0" style="stop-color:#2E3191"/>
				<stop  offset="0.1172" style="stop-color:#2E3191;stop-opacity:0.8828"/>
				<stop  offset="1" style="stop-color:#008ED3;stop-opacity:0.6"/>
			</radialGradient>
			<path clip-path="url(#SVGID_5_)" fill="url(#SVGID_6_)" d="M604.656,71.453l148.096-85.458l27.18,15.692l-25.348,14.627
				l-11.107-6.413l-0.256,0.446l10.85,6.264l-135.797,78.36l0.258,0.445l136.053-78.509l27.179,15.692l-25.349,14.628l-12.937-7.471
				l-0.257,0.444l12.681,7.321l-123.755,71.422l0.258,0.444l124.01-71.57l27.18,15.693l-25.349,14.626l-14.767-8.525l-0.258,0.444
				l14.512,8.377l-111.711,64.494l0.258,0.446L758.246,78.73l27.18,15.693l-25.351,14.625l-16.598-9.583l-0.257,0.444l16.342,9.436
				l-99.668,57.543l0.256,0.446l99.925-57.694l27.179,15.703l-25.348,14.649l-18.429-10.658l-0.257,0.447l18.172,10.508
				l-87.625,50.562l0.258,0.445l87.881-50.71l27.179,15.692l-25.348,14.626l-20.26-11.697l-0.257,0.444l20.002,11.55l-75.58,43.631
				l0.256,0.445l75.839-43.779l27.179,15.691l-25.349,14.631l-22.091-12.758l-0.256,0.446l21.832,12.609l-63.537,36.678l0.257,0.446
				l63.795-36.825l27.179,15.705l-25.348,14.626l-23.921-13.811l-0.257,0.445l23.664,13.661l-51.494,29.714l0.256,0.445
				l51.752-29.862l27.179,15.69l-25.348,14.628l-25.752-14.869l-0.257,0.446l25.494,14.719l-39.451,22.803l0.256,0.445l13.848-7.995
				l27.18,15.696l-25.35,14.629l-1.72-0.994l-0.257,0.443l1.463,0.848l-1.547,0.889l0.258,0.445l1.803-1.041l27.178,15.693
				l-15.364,8.865l0.257,0.445l15.622-9.016l27.179,15.693l-25.346,14.625l-31.246-18.039l-0.256,0.445l30.986,17.893l-3.321,1.916
				l0.257,0.445l3.58-2.066L801.9,372.72l-17.141,9.891l0.258,0.443l17.397-10.037l27.179,15.691l-25.348,14.627l-60.768-35.086
				l-0.258,0.445l60.512,34.938l-4.777,2.754h1.029l4.262-2.459l4.26,2.459h1.028l-4.773-2.754l25.348-14.629l27.179,15.693
				l-2.932,1.689h1.029l2.416-1.393l2.416,1.393h1.027l-2.93-1.689l25.348-14.625l28.264,16.314h1.029l-28.777-16.611l25.348-14.629
				l54.109,31.24h1.029l-54.625-31.537l25.348-14.625l79.979,46.162h1.027L935.9,359.927l25.349-14.627l105.824,61.088h1.028
				l-106.338-61.385l25.364-14.627l131.657,76.012h1.027l-132.17-76.309l25.348-14.625l157.486,90.934h1.023l-157.994-91.232
				l25.348-14.625l161.176,93.09l0.258-0.445l-160.921-92.943l25.349-14.627l135.314,78.16l0.258-0.445l-135.059-78.012
				l25.349-14.661l109.452,63.262l0.258-0.445l-109.195-63.113l25.348-14.631l83.59,48.334l0.258-0.445l-83.334-48.186
				l25.348-14.625l57.729,33.381l0.258-0.447l-57.473-33.231l2.935-1.693l-0.257-0.445l-3.191,1.842l-27.178-15.69l16.754-9.667
				l-0.26-0.447l-17.008,9.816l-27.18-15.692l25.348-14.645l87.252,50.428l0.258-0.446l-86.992-50.278l4.707-2.718l-0.256-0.445
				l-4.967,2.867l-27.18-15.692l18.529-10.691l-0.256-0.445l-18.789,10.84l-27.177-15.691l25.348-14.628l116.774,67.476l0.258-0.444
				L1083.77,146.68l6.486-3.741l-0.258-0.447l-6.744,3.891l-27.178-15.703l20.305-11.726l-0.256-0.445l-20.563,11.872l-27.18-15.708
				l25.349-14.628l146.298,84.532l0.258-0.445l-146.041-84.384l8.26-4.767l-0.257-0.445l-8.519,4.916l-27.179-15.692l22.081-12.743
				l-0.256-0.444l-22.338,12.891l-27.18-15.692l25.348-14.626l175.822,101.579l0.258-0.446L1024.722,52.848l10.039-5.792
				l-0.257-0.446l-10.295,5.942l-27.182-15.693l23.859-13.767l-0.258-0.445l-24.114,13.915l-27.196-15.691l25.365-14.627
				l205.346,118.603l0.258-0.446L995.199,5.947l11.814-6.817l-0.26-0.445l-12.068,6.966l-27.197-15.693l25.365-14.626L1200.03,94.98
				l0.257-0.446L992.91-25.229l-0.027-0.048l-0.029,0.016l-27.195-15.692l13.607-7.842l-0.257-0.445l-13.864,7.991l-27.181-15.692
				l27.411-15.817l-0.258-0.444l-27.666,15.964l-27.179-15.692L951.5-96.722l-0.257-0.445l-41.486,23.94l-27.18-15.692
				l55.048-31.765l-0.257-0.444l-55.304,31.913l-138.587-80.014l-0.257,0.445l138.33,79.865l-25.348,14.626l-112.726-65.081
				l-0.257,0.445l112.467,64.934L830.34-59.367l-86.862-50.15l-0.257,0.444l86.605,50.002l-25.348,14.626l-61.001-35.218
				l-0.257,0.445l60.744,35.07l-25.35,14.627l-35.138-20.287l-0.257,0.445l34.881,20.139l-25.35,14.626l-9.275-5.354l-0.256,0.444
				l9.018,5.207l-147.84,85.309L604.656,71.453z M755.098,16.611l25.348-14.626l27.18,15.692l-25.348,14.626L755.098,16.611z
				 M865.355,80.862l27.178,15.691l-25.348,14.626l-27.178-15.692L865.355,80.862z M865.355,80.268l-27.179-15.692l25.348-14.626
				l27.18,15.691L865.355,80.268z M898.539,189.618l27.182,15.705l-25.35,14.633l-27.18-15.701L898.539,189.618z M898.539,189.024
				l-27.178-15.691l25.348-14.627l27.178,15.692L898.539,189.024z M927.549,236.24l-25.348,14.626l-27.178-15.69l25.348-14.627
				L927.549,236.24z M900.885,220.251l25.35-14.629l27.178,15.693l-25.349,14.627L900.885,220.251z M926.748,205.323l25.348-14.638
				l27.195,15.708l-25.365,14.628L926.748,205.323z M926.234,205.026l-27.18-15.705l25.347-14.626l27.18,15.691L926.234,205.026z
				 M897.223,158.409l25.35-14.626l27.18,15.693l-25.351,14.626L897.223,158.409z M896.711,158.113l-27.181-15.692l25.349-14.647
				l27.18,15.712L896.711,158.113z M894.878,127.179l-27.179-15.702l25.348-14.627l27.18,15.692L894.878,127.179z M867.186,111.773
				l27.18,15.704l-25.349,14.648l-27.179-15.714L867.186,111.773z M869.017,142.718l27.179,15.691l-25.349,14.627l-27.178-15.693
				L869.017,142.718z M870.848,173.628l27.18,15.693l-25.349,14.637l-27.181-15.702L870.848,173.628z M899.856,220.251
				l-25.347,14.626l-27.18-15.691l25.348-14.633L899.856,220.251z M901.688,251.164l-25.349,14.625l-27.178-15.69l25.348-14.627
				L901.688,251.164z M903.519,282.114l-25.349,14.627l-27.178-15.691l25.346-14.666L903.519,282.114z M876.854,266.085
				l25.348-14.625l27.18,15.691l-25.35,14.666L876.854,266.085z M902.717,251.164l25.348-14.626l27.177,15.689l-25.348,14.629
				L902.717,251.164z M928.578,236.24l25.348-14.628l27.195,15.693l-25.365,14.627L928.578,236.24z M954.441,221.317l25.363-14.628
				l27.18,15.692l-25.349,14.627L954.441,221.317z M979.805,206.096l-27.195-15.71l25.363-14.626l27.181,15.692L979.805,206.096z
				 M952.096,190.089l-27.18-15.691l25.349-14.628l27.194,15.693L952.096,190.089z M923.086,143.485l25.349-14.646l27.188,15.712
				l-25.357,14.626L923.086,143.485z M922.571,143.188l-27.178-15.711l25.347-14.639l27.18,15.706L922.571,143.188z M893.563,96.553
				l25.348-14.626l27.179,15.691l-25.348,14.627L893.563,96.553z M893.049,96.257l-27.18-15.692l25.348-14.626l27.18,15.691
				L893.049,96.257z M864.039,49.652l25.348-14.626l27.18,15.692l-25.35,14.627L864.039,49.652z M862.207,18.741l25.35-14.627
				l27.18,15.692l-25.35,14.626L862.207,18.741z M888.873,34.73l-25.349,14.626l-27.179-15.692l25.348-14.626L888.873,34.73z
				 M863.01,49.652l-25.349,14.626l-27.179-15.692l25.349-14.625L863.01,49.652z M837.662,64.874l27.179,15.691l-25.349,14.626
				L812.313,79.5L837.662,64.874z M839.493,95.786l27.179,15.69l-25.349,14.638l-27.179-15.703L839.493,95.786z M841.323,126.708
				l27.179,15.712l-25.348,14.627l-27.18-15.691L841.323,126.708z M843.154,157.641l27.178,15.693l-25.348,14.625l-27.178-15.69
				L843.154,157.641z M872.164,204.255l-25.348,14.634l-27.179-15.704l25.347-14.632L872.164,204.255z M873.994,235.176
				l-25.348,14.625l-27.178-15.691l25.348-14.627L873.994,235.176z M875.824,266.085l-25.347,14.668l-27.179-15.732l25.348-14.625
				L875.824,266.085z M877.656,297.038l-25.349,14.625l-27.179-15.691l25.349-14.625L877.656,297.038z M879.485,327.95
				l-25.347,14.625l-27.179-15.693l25.348-14.625L879.485,327.95z M852.822,311.962l25.348-14.627l27.178,15.691l-25.347,14.625
				L852.822,311.962z M878.686,297.038l25.346-14.627l27.18,15.691l-25.347,14.629L878.686,297.038z M904.546,282.114l25.348-14.666
				l27.181,15.732l-25.35,14.625L904.546,282.114z M930.409,267.151l25.347-14.627l27.197,15.693l-25.365,14.664L930.409,267.151z
				 M956.271,252.23l25.365-14.627l27.178,15.691l-25.348,14.627L956.271,252.23z M982.15,237.305l25.348-14.627l27.18,15.692
				l-25.349,14.626L982.15,237.305z M1008.012,222.381l25.348-14.626l27.18,15.691l-25.348,14.627L1008.012,222.381z
				 M1007.498,222.084l-27.18-15.692l25.35-14.645l27.179,15.709L1007.498,222.084z M1005.668,191.154l-27.178-15.691l25.346-14.627
				l27.178,15.692L1005.668,191.154z M977.975,175.166l-27.197-15.69l25.357-14.628l27.188,15.694L977.975,175.166z
				 M948.947,128.542l25.352-14.639l27.192,15.707l-25.354,14.644L948.947,128.542z M948.434,128.244l-27.178-15.702l25.348-14.626
				l27.18,15.692L948.434,128.244z M919.425,81.63l25.348-14.626l27.178,15.691l-25.347,14.626L919.425,81.63z M918.909,81.333
				L891.73,65.642l25.35-14.627l27.178,15.692L918.909,81.333z M889.9,34.73l25.349-14.627l27.179,15.692L917.08,50.421L889.9,34.73
				z M888.07,3.818l25.348-14.627l27.178,15.692L915.249,19.51L888.07,3.818z M887.557,3.521l-27.181-15.692l25.349-14.626
				l27.18,15.693L887.557,3.521z M887.042,3.817l-25.349,14.626L834.516,2.752l25.348-14.627L887.042,3.817z M861.18,18.741
				l-25.348,14.626l-27.18-15.69L834,3.049L861.18,18.741z M835.318,33.664l-25.35,14.628L782.79,32.599l25.348-14.626
				L835.318,33.664z M809.969,48.885l27.181,15.692l-25.351,14.625l-27.178-15.691L809.969,48.885z M811.801,79.796l27.178,15.691
				l-25.348,14.627l-27.178-15.691L811.801,79.796z M813.631,110.708l27.18,15.703l-25.35,14.647l-27.178-15.712L813.631,110.708z
				 M815.461,141.652l27.178,15.692l-25.348,14.627l-27.179-15.691L815.461,141.652z M844.471,188.256l-25.347,14.632
				l-27.179-15.698l25.346-14.626L844.471,188.256z M846.303,219.186l-25.35,14.627l-27.18-15.693l25.35-14.636L846.303,219.186z
				 M848.133,250.098l-25.348,14.627l-27.178-15.693l25.346-14.627L848.133,250.098z M849.963,281.05l-25.348,14.627l-27.18-15.696
				l25.35-14.664L849.963,281.05z M824.1,295.972l-25.346,14.627l-27.179-15.691l25.347-14.626L824.1,295.972z M824.615,296.269
				l27.178,15.693l-25.348,14.623l-27.178-15.689L824.615,296.269z M853.623,342.872l-25.348,14.627l-27.178-15.691l25.348-14.627
				L853.623,342.872z M854.139,343.171l27.178,15.689l-25.348,14.629l-27.178-15.693L854.139,343.171z M854.653,342.872
				l25.348-14.625l27.179,15.691l-25.348,14.625L854.653,342.872z M880.516,327.95l25.349-14.627l27.178,15.691l-25.349,14.627
				L880.516,327.95z M906.379,313.026l25.346-14.627l27.18,15.691l-25.348,14.627L906.379,313.026z M932.24,298.103l25.348-14.627
				l27.195,15.691l-25.365,14.627L932.24,298.103z M958.102,283.179l25.365-14.666l27.179,15.732l-25.348,14.625L958.102,283.179z
				 M983.981,268.216l25.348-14.625l27.179,15.69l-25.348,14.667L983.981,268.216z M1009.844,253.294l25.348-14.626l27.178,15.691
				l-25.349,14.626L1009.844,253.294z M1035.705,238.371l25.35-14.627l27.177,15.691l-25.347,14.628L1035.705,238.371z
				 M1061.053,223.15l-27.177-15.691l25.347-14.646l27.179,15.71L1061.053,223.15z M1033.359,207.161l-27.178-15.709l25.348-14.627
				l27.178,15.692L1033.359,207.161z M1031.528,176.231l-27.177-15.689l25.348-14.628l27.178,15.691L1031.528,176.231z
				 M1003.836,160.244l-27.183-15.692l25.354-14.644l27.179,15.708L1003.836,160.244z M974.814,113.607l25.359-14.627l27.182,15.693
				l-25.35,14.64L974.814,113.607z M974.299,113.31l-27.182-15.692l25.348-14.626l27.197,15.693L974.299,113.31z M945.285,66.707
				l25.35-14.627l27.195,15.692l-25.365,14.627L945.285,66.707z M944.772,66.41l-27.179-15.692l25.348-14.625l27.18,15.691
				L944.772,66.41z M915.762,19.806l25.35-14.627l27.178,15.692l-25.348,14.627L915.762,19.806z M913.932-11.105l25.348-14.627
				L966.46-10.04L941.111,4.586L913.932-11.105z M913.418-11.402l-27.18-15.692l25.349-14.627l27.179,15.692L913.418-11.402z
				 M885.725-27.39l-27.179-15.692l25.349-14.627l27.18,15.692L885.725-27.39z M885.212-27.094l-25.349,14.627l-27.18-15.692
				l25.35-14.626L885.212-27.094z M859.35-12.171L834,2.457l-27.179-15.693l25.349-14.626L859.35-12.171z M833.486,2.752
				l-25.348,14.627l-27.18-15.692l25.35-14.626L833.486,2.752z M756.928,47.522l25.349-14.626l27.179,15.691l-25.348,14.626
				L756.928,47.522z M758.758,78.435l25.35-14.627L811.286,79.5l-25.349,14.627L758.758,78.435z M760.59,109.347l25.348-14.627
				l27.18,15.692L787.77,125.05L760.59,109.347z M762.422,140.291l25.348-14.647l27.179,15.713L789.6,155.982L762.422,140.291z
				 M764.252,171.203l25.346-14.626l27.18,15.693l-25.348,14.625L764.252,171.203z M766.082,202.119l25.348-14.63l27.179,15.698
				l-25.348,14.639L766.082,202.119z M767.913,233.044l25.347-14.626l27.18,15.691l-25.348,14.626L767.913,233.044z M795.092,249.33
				l27.18,15.691l-25.35,14.665l-27.178-15.729L795.092,249.33z M743.882,278.913l25.347-14.658l27.179,15.726l-25.347,14.629
				L743.882,278.913z M745.713,309.831l25.348-14.627l27.178,15.691l-25.348,14.627L745.713,309.831z M773.405,325.819
				l25.348-14.627l27.179,15.691l-25.348,14.627L773.405,325.819z M775.236,356.731l25.348-14.625l27.178,15.689l-25.348,14.627
				L775.236,356.731z M802.93,372.72l25.348-14.627l27.179,15.691l-25.349,14.627L802.93,372.72z M857.801,404.399l-27.18-15.691
				l25.35-14.627l27.177,15.693L857.801,404.399z M883.662,389.478l-27.179-15.693l25.349-14.625l27.178,15.691L883.662,389.478z
				 M909.523,374.552l-27.178-15.691l25.349-14.625l27.179,15.691L909.523,374.552z M935.387,359.63l-27.178-15.691l25.348-14.629
				l27.178,15.693L935.387,359.63z M961.249,344.706l-27.179-15.693l25.348-14.623l27.195,15.689L961.249,344.706z M987.127,329.782
				l-27.195-15.691l25.366-14.625l27.179,15.689L987.127,329.782z M1012.991,314.858l-27.179-15.691l25.348-14.625l27.178,15.689
				L1012.991,314.858z M1038.852,299.937l-27.178-15.691l25.35-14.665l27.178,15.727L1038.852,299.937z M1064.715,285.013
				l-27.178-15.73l25.348-14.625l27.178,15.691L1064.715,285.013z M1090.576,270.053l-27.178-15.694l25.349-14.626l27.179,15.691
				L1090.576,270.053z M1114.607,224.81l27.18,15.689l-25.348,14.626l-27.178-15.691L1114.607,224.81z M1114.095,224.512
				l-25.348,14.625l-27.179-15.69l25.348-14.628L1114.095,224.512z M1085.084,177.888l27.178,15.692l-25.348,14.647l-27.178-15.712
				L1085.084,177.888z M1084.57,177.593l-25.348,14.626l-27.179-15.692l25.349-14.628L1084.57,177.593z M1082.739,146.68
				l-25.347,14.628l-27.179-15.693l25.348-14.637L1082.739,146.68z M1055.047,130.679l-25.348,14.64l-27.178-15.709l25.348-14.64
				L1055.047,130.679z M1053.217,99.748l-25.35,14.626l-27.178-15.69l25.347-14.627L1053.217,99.748z M1025.524,83.76
				l-25.351,14.626l-27.194-15.691l25.366-14.626L1025.524,83.76z M1023.693,52.848l-25.348,14.626l-27.197-15.691l25.366-14.626
				L1023.693,52.848z M995.999,36.86l-25.365,14.626l-27.179-15.693l25.348-14.626L995.999,36.86z M994.169,5.948l-25.364,14.625
				l-27.18-15.691l25.348-14.625L994.169,5.948z M992.339-24.964l-25.366,14.628l-27.179-15.693l25.349-14.626L992.339-24.964z
				 M964.629-40.953l-25.35,14.626l-27.178-15.691l25.35-14.627L964.629-40.953z M936.935-56.941l-25.348,14.626l-27.179-15.692
				l25.349-14.627L936.935-56.941z M882.064-88.621l27.18,15.691l-25.35,14.626l-27.18-15.691L882.064-88.621z M856.201-73.698
				l27.18,15.692l-25.348,14.627l-27.18-15.692L856.201-73.698z M830.34-58.775l27.179,15.692L832.17-28.457l-27.18-15.691
				L830.34-58.775z M804.477-43.852l27.18,15.693l-25.349,14.627l-27.18-15.692L804.477-43.852z M778.615-28.927l27.179,15.691
				L780.446,1.391l-27.181-15.692L778.615-28.927z"/>
		</g>
	</g>
</g>
<g opacity="0.05" enable-background="new    ">
	<g>
		<g>
			<defs>
				<rect id="SVGID_7_" x="382.169" y="-82.345" width="513.742" height="513.823"/>
			</defs>
			<clipPath id="SVGID_8_">
				<use xlink:href="#SVGID_7_"  overflow="visible"/>
			</clipPath>
			
				<radialGradient id="SVGID_9_" cx="-365.8774" cy="339.4766" r="390.3922" gradientTransform="matrix(1 0 0 1 1008 -50.8398)" gradientUnits="userSpaceOnUse">
				<stop  offset="0" style="stop-color:#2E3191"/>
				<stop  offset="0.1172" style="stop-color:#2E3191;stop-opacity:0.8828"/>
				<stop  offset="1" style="stop-color:#008ED3;stop-opacity:0.6"/>
			</radialGradient>
			<path clip-path="url(#SVGID_8_)" fill="url(#SVGID_9_)" d="M339.214,96.606l148.072-85.458l27.144,15.692l-25.317,14.627
				l-11.078-6.413l-0.257,0.446l10.823,6.264l-135.769,78.359l0.258,0.445l136.023-78.51l27.148,15.692L490.937,72.38l-12.901-7.471
				l-0.257,0.444l12.646,7.321l-123.72,71.411l0.258,0.444l123.975-71.559l27.155,15.693l-25.331,14.626l-14.725-8.525l-0.258,0.444
				l14.472,8.377L380.578,168.07l0.258,0.446l111.926-64.633l27.161,15.693l-25.338,14.625l-16.55-9.582l-0.257,0.443l16.295,9.437
				l-99.621,57.55l0.256,0.446l99.877-57.7l27.167,15.691l-25.342,14.649l-18.375-10.658l-0.257,0.446l18.119,10.508l-87.571,50.58
				l0.257,0.445l87.828-50.729l27.173,15.71l-25.348,14.626l-20.2-11.696l-0.257,0.444l19.944,11.549l-75.522,43.613l0.257,0.445
				l75.779-43.761l27.179,15.691l-25.349,14.628l-22.031-12.755l-0.257,0.445l21.774,12.605l-63.478,36.644l0.257,0.445
				l63.735-36.791l27.179,15.691l-25.348,14.607l-23.861-13.793l-0.257,0.445l23.605,13.643l-51.436,29.722l0.257,0.445
				l51.692-29.869l27.179,15.689l-25.348,14.636l-25.692-14.876l-0.257,0.445l25.435,14.729l-39.393,22.764l0.257,0.445l13.848-7.99
				l27.119,15.691l-25.289,14.627l-1.72-0.994l-0.257,0.445l1.463,0.846l-1.546,0.891l0.258,0.445l1.803-1.041l27.118,15.693
				l-15.342,8.865l0.256,0.445l15.601-9.016l27.179,15.691l-25.347,14.627l-31.186-18.039l-0.257,0.445l30.928,17.893l-3.321,1.916
				l0.256,0.445l3.58-2.066l27.179,15.693l-17.142,9.891l0.258,0.443l17.398-10.039l27.179,15.693l-25.348,14.627l-60.708-35.086
				l-0.258,0.445l60.452,34.936l-4.776,2.756h1.029l4.262-2.459l4.26,2.459h1.027l-4.773-2.756l25.348-14.627l27.18,15.693
				l-2.932,1.689h1.029l2.416-1.393l2.415,1.393h1.028l-2.93-1.689l25.348-14.627l28.252,16.316h1.028l-28.766-16.611l25.335-14.629
				l54.111,31.24h1.029l-54.625-31.537l25.348-14.625l79.977,46.162h1.027l-80.491-46.459l25.349-14.627l105.824,61.088h1.029
				l-106.339-61.385l25.364-14.627l131.657,76.012h1.027l-132.17-76.309l25.349-14.625l157.503,90.934h1.028L747.99,340.246
				l25.348-14.625l161.238,93.088l0.258-0.443l-160.982-92.943l25.349-14.627l135.376,78.16l0.258-0.445l-135.119-78.012
				l25.348-14.627L934.576,359l0.258-0.445l-109.258-63.078l25.348-14.629l83.652,48.297l0.258-0.445l-83.395-48.147l25.348-14.632
				l57.789,33.371l0.258-0.445l-57.533-33.224l2.934-1.691l-0.257-0.445l-3.191,1.84l-27.177-15.67l16.753-9.668l-0.259-0.447
				l-17.009,9.816l-27.179-15.691l25.348-14.626l87.313,50.39l0.258-0.445l-87.055-50.242l4.709-2.718l-0.256-0.446l-4.968,2.867
				l-27.179-15.691l18.529-10.691l-0.257-0.446l-18.788,10.841l-27.178-15.691l25.348-14.633l116.836,67.46l0.259-0.443
				l-116.579-67.313l6.485-3.754l-0.258-0.448l-6.744,3.904l-27.179-15.715l20.306-11.727l-0.256-0.444l-20.563,11.872
				l-27.18-15.699l25.349-14.627l146.359,84.539l0.259-0.445l-146.104-84.391l8.261-4.766l-0.258-0.445l-8.518,4.915l-27.18-15.692
				l22.082-12.742l-0.258-0.444l-22.338,12.892l-27.178-15.693L758.692,78.3l175.884,101.585l0.258-0.445L759.207,78.001
				l10.039-5.792l-0.257-0.446l-10.296,5.943l-27.18-15.693l23.859-13.768l-0.258-0.445L731,61.716l-27.197-15.691l25.367-14.627
				l205.406,118.591l0.258-0.445L729.684,31.101l11.814-6.817l-0.258-0.444l-12.068,6.965L701.975,15.11L727.34,0.484
				l207.237,119.649l0.258-0.445L727.396-0.075l-0.028-0.049l-0.028,0.016L700.143-15.8l13.609-7.842l-0.258-0.445l-13.865,7.99
				l-27.18-15.691l27.411-15.817l-0.258-0.444l-27.666,15.965l-27.179-15.693l41.229-23.789l-0.258-0.445l-41.486,23.939
				l-27.168-15.691l55.036-31.765l-0.256-0.444l-55.292,31.912l-138.527-80.014l-0.257,0.445l138.271,79.865L590.7-49.138
				L478.035-114.22l-0.257,0.445l112.408,64.934l-25.348,14.627l-86.803-50.15l-0.257,0.445l86.545,50.002l-25.348,14.625
				l-60.94-35.217l-0.257,0.445l60.685,35.069l-25.35,14.627l-35.078-20.287l-0.257,0.444L512.6-4.071l-25.313,14.627l-9.252-5.354
				l-0.257,0.444l8.998,5.207L338.956,96.161L339.214,96.606z M489.623,41.765l25.32-14.627l27.18,15.692l-25.349,14.626
				L489.623,41.765z M599.853,106.015l27.179,15.691l-25.348,14.627l-27.179-15.692L599.853,106.015z M599.853,105.421
				l-27.179-15.691l25.348-14.627l27.181,15.691L599.853,105.421z M633.037,214.777l27.168,15.69l-25.34,14.628l-27.176-15.693
				L633.037,214.777z M633.037,214.185l-27.178-15.691l25.348-14.627l27.166,15.691L633.037,214.185z M662.035,261.362
				l-25.346,14.626l-27.168-15.691l25.344-14.607L662.035,261.362z M635.376,245.393l25.344-14.626l27.179,15.691l-25.35,14.607
				L635.376,245.393z M661.233,230.468l25.348-14.623l27.195,15.689l-25.364,14.628L661.233,230.468z M660.72,230.173
				l-27.167-15.691l25.334-14.627l27.181,15.691L660.72,230.173z M631.721,183.568l25.338-14.64l27.178,15.707l-25.35,14.626
				L631.721,183.568z M631.208,183.272l-27.18-15.709l25.349-14.648l27.167,15.715L631.208,183.272z M629.376,152.321
				l-27.179-15.691l25.348-14.627l27.167,15.692L629.376,152.321z M601.684,136.927l27.18,15.691l-25.35,14.648l-27.178-15.715
				L601.684,136.927z M603.514,167.86l27.179,15.709l-25.349,14.627l-27.178-15.693L603.514,167.86z M605.345,198.788l27.181,15.693
				l-25.35,14.627l-27.18-15.691L605.345,198.788z M634.352,245.393L609.008,260l-27.18-15.674l25.347-14.625L634.352,245.393z
				 M636.177,276.285l-25.341,14.633l-27.178-15.699l25.348-14.625L636.177,276.285z M638.004,307.205l-25.336,14.627
				l-27.179-15.693l25.347-14.625L638.004,307.205z M611.352,291.215l25.338-14.633l27.176,15.699l-25.348,14.627L611.352,291.215z
				 M637.203,276.285l25.348-14.625l27.176,15.689l-25.348,14.636L637.203,276.285z M663.063,261.362l25.35-14.609l27.194,15.676
				l-25.365,14.627L663.063,261.362z M688.926,246.458l25.364-14.626l27.18,15.691l-25.349,14.607L688.926,246.458z M714.29,231.239
				l-27.194-15.693l25.363-14.627l27.18,15.693L714.29,231.239z M686.581,215.249l-27.18-15.691l25.349-14.627l27.194,15.693
				L686.581,215.249z M657.572,168.63l25.348-14.648l27.188,15.719l-25.357,14.637L657.572,168.63z M657.057,168.331l-27.165-15.713
				l25.334-14.627l27.181,15.694L657.057,168.331z M628.061,121.706l25.334-14.626l27.181,15.69l-25.348,14.628L628.061,121.706z
				 M627.546,121.41l-27.179-15.692l25.348-14.625l27.168,15.691L627.546,121.41z M598.537,74.806l25.348-14.627l27.167,15.692
				l-25.337,14.628L598.537,74.806z M596.705,43.894l25.349-14.627l27.167,15.692l-25.336,14.626L596.705,43.894z M623.37,59.884
				l-25.349,14.625l-27.179-15.691l25.349-14.627L623.37,59.884z M597.508,74.806l-25.35,14.627L544.98,73.739l25.348-14.625
				L597.508,74.806z M572.16,90.026l27.179,15.691l-25.349,14.627l-27.18-15.691L572.16,90.026z M573.991,120.939l27.179,15.69
				l-25.349,14.627l-27.179-15.691L573.991,120.939z M575.821,151.851L603,167.563l-25.348,14.645l-27.18-15.709L575.821,151.851z
				 M577.652,182.8l27.178,15.693l-25.348,14.626l-27.178-15.69L577.652,182.8z M606.662,229.403l-25.348,14.626l-27.179-15.691
				l25.347-14.625L606.662,229.403z M608.492,260.299l-25.348,14.625l-27.178-15.691l25.348-14.609L608.492,260.299z
				 M610.322,291.215l-25.347,14.629l-27.179-15.693l25.348-14.633L610.322,291.215z M612.154,322.129l-25.349,14.625
				l-27.179-15.691l25.349-14.627L612.154,322.129z M613.983,353.041l-25.347,14.625l-27.179-15.693l25.348-14.625L613.983,353.041z
				 M587.319,337.051l25.349-14.625l27.165,15.691l-25.335,14.625L587.319,337.051z M613.183,322.129l25.335-14.627l27.179,15.691
				L640.35,337.82L613.183,322.129z M639.031,307.205l25.348-14.627l27.181,15.693l-25.349,14.625L639.031,307.205z
				 M664.895,292.281l25.347-14.634l27.196,15.701l-25.364,14.625L664.895,292.281z M690.757,277.352l25.366-14.627l27.178,15.691
				l-25.349,14.635L690.757,277.352z M716.637,262.428l25.348-14.609l27.18,15.674l-25.35,14.626L716.637,262.428z M742.498,247.522
				l25.347-14.625l27.18,15.691l-25.348,14.607L742.498,247.522z M741.982,247.227l-27.178-15.693l25.349-14.627l27.179,15.691
				L741.982,247.227z M740.153,216.314l-27.178-15.69l25.347-14.629l27.178,15.693L740.153,216.314z M712.459,200.325
				l-27.195-15.689l25.357-14.639l27.188,15.704L712.459,200.325z M683.434,153.685l25.351-14.627l27.192,15.695l-25.355,14.648
				L683.434,153.685z M682.92,153.386l-27.179-15.69l25.348-14.627l27.181,15.692L682.92,153.386z M653.91,106.784l25.348-14.627
				l27.178,15.691l-25.347,14.627L653.91,106.784z M653.395,106.486l-27.166-15.69l25.338-14.627l27.178,15.691L653.395,106.486z
				 M624.397,59.884l25.338-14.627l27.179,15.691l-25.348,14.626L624.397,59.884z M622.567,28.972l25.337-14.628l27.177,15.692
				l-25.346,14.627L622.567,28.972z M622.054,28.674l-27.18-15.692l25.349-14.627l27.166,15.693L622.054,28.674z M621.539,28.971
				l-25.348,14.626l-27.179-15.691l25.348-14.627L621.539,28.971z M595.678,43.894L570.33,58.521l-27.181-15.69l25.349-14.628
				L595.678,43.894z M569.815,58.817l-25.349,14.627l-27.179-15.692l25.348-14.626L569.815,58.817z M544.467,74.038l27.18,15.692
				l-25.35,14.626l-27.178-15.691L544.467,74.038z M546.299,104.95l27.178,15.69l-25.348,14.628l-27.179-15.691L546.299,104.95z
				 M548.129,135.862l27.179,15.691L549.959,166.2l-27.178-15.712L548.129,135.862z M549.959,166.794l27.178,15.709l-25.348,14.629
				l-27.179-15.692L549.959,166.794z M578.969,213.417l-25.348,14.625l-27.179-15.691l25.347-14.626L578.969,213.417z
				 M580.8,244.327l-25.349,14.607l-27.18-15.674l25.349-14.625L580.8,244.327z M582.63,275.221l-25.347,14.635l-27.179-15.701
				l25.347-14.627L582.63,275.221z M584.461,306.139l-25.349,14.629l-27.179-15.693l25.349-14.627L584.461,306.139z
				 M558.598,321.063l-25.346,14.627l-27.18-15.691l25.347-14.625L558.598,321.063z M559.112,321.359l27.179,15.691l-25.348,14.625
				l-27.178-15.689L559.112,321.359z M588.121,367.963l-25.348,14.627l-27.178-15.691l25.348-14.627L588.121,367.963z
				 M588.637,368.262l27.178,15.689l-25.348,14.627l-27.178-15.691L588.637,368.262z M589.15,367.963l25.348-14.627l27.167,15.693
				l-25.335,14.625L589.15,367.963z M615.014,353.041l25.336-14.627l27.178,15.691l-25.348,14.627L615.014,353.041z
				 M640.864,338.117l25.347-14.627l27.18,15.691l-25.348,14.625L640.864,338.117z M666.726,323.193l25.348-14.627l27.195,15.691
				l-25.364,14.627L666.726,323.193z M692.586,308.27l25.366-14.627l27.179,15.691l-25.348,14.627L692.586,308.27z M718.467,293.346
				l25.348-14.631l27.18,15.696l-25.349,14.629L718.467,293.346z M744.33,278.416l25.347-14.626l27.179,15.695l-25.35,14.631
				L744.33,278.416z M770.191,263.493l25.35-14.607l27.176,15.672l-25.347,14.631L770.191,263.493z M795.539,248.292l-27.178-15.691
				l25.347-14.628l27.179,15.692L795.539,248.292z M767.845,232.302l-27.177-15.689l25.348-14.628l27.178,15.691L767.845,232.302z
				 M766.014,201.391l-27.177-15.689l25.348-14.636l27.179,15.698L766.014,201.391z M738.322,185.403L711.14,169.7l25.353-14.65
				l27.179,15.719L738.322,185.403z M709.301,138.761l25.359-14.627l27.181,15.691l-25.349,14.631L709.301,138.761z
				 M708.784,138.464l-27.181-15.693l25.348-14.625l27.196,15.692L708.784,138.464z M679.771,91.86l25.35-14.627l27.196,15.691
				l-25.365,14.628L679.771,91.86z M679.258,91.563l-27.18-15.693l25.35-14.625l27.178,15.691L679.258,91.563z M650.248,44.959
				l25.349-14.627l27.179,15.692l-25.348,14.627L650.248,44.959z M648.417,14.048l25.349-14.627l27.18,15.692l-25.349,14.626
				L648.417,14.048z M647.904,13.751L620.736-1.94l25.336-14.627l27.18,15.691L647.904,13.751z M620.223-2.237l-27.179-15.691
				l25.349-14.627l27.167,15.691L620.223-2.237z M619.709-1.94L594.36,12.687L567.182-3.006l25.349-14.626L619.709-1.94z
				 M593.848,12.981l-25.35,14.629l-27.18-15.693l25.35-14.627L593.848,12.981z M567.984,27.905l-25.348,14.627l-27.18-15.691
				l25.35-14.626L567.984,27.905z M491.448,72.676l25.325-14.626l27.18,15.691l-25.349,14.627L491.448,72.676z M493.272,103.589
				l25.332-14.628l27.179,15.692l-25.348,14.627L493.272,103.589z M495.098,134.5l25.338-14.627l27.18,15.692l-25.349,14.627
				L495.098,134.5z M496.923,165.433l25.344-14.646l27.18,15.713l-25.35,14.643L496.923,165.433z M498.749,196.362l25.347-14.626
				l27.18,15.692l-25.348,14.625L498.749,196.362z M500.58,227.274l25.348-14.626l27.178,15.69l-25.348,14.628L500.58,227.274z
				 M502.41,258.167l25.348-14.607l27.18,15.674l-25.348,14.625L502.41,258.167z M529.59,274.452l27.18,15.699l-25.35,14.629
				l-27.179-15.693L529.59,274.452z M478.439,304.01l25.288-14.627l27.179,15.691l-25.347,14.627L478.439,304.01z M480.271,334.922
				l25.288-14.627l27.178,15.691l-25.348,14.627L480.271,334.922z M507.902,350.91l25.348-14.627l27.18,15.691l-25.348,14.627
				L507.902,350.91z M509.733,381.822l25.349-14.625l27.177,15.689l-25.348,14.627L509.733,381.822z M537.428,397.811l25.347-14.627
				l27.179,15.691l-25.349,14.627L537.428,397.811z M592.299,429.49l-27.18-15.691l25.35-14.627l27.177,15.693L592.299,429.49z
				 M618.159,414.568l-27.179-15.693l25.35-14.627l27.166,15.693L618.159,414.568z M644.01,399.643l-27.166-15.691l25.336-14.625
				l27.178,15.691L644.01,399.643z M669.872,384.719l-27.177-15.689l25.348-14.629l27.177,15.693L669.872,384.719z M695.734,369.797
				l-27.178-15.693l25.348-14.623L721.1,355.17L695.734,369.797z M721.613,354.873l-27.195-15.691l25.365-14.625l27.179,15.689
				L721.613,354.873z M747.477,339.949l-27.178-15.691l25.347-14.625l27.178,15.689L747.477,339.949z M773.338,325.027
				l-27.178-15.693l25.348-14.625l27.178,15.689L773.338,325.027z M799.2,310.104l-27.178-15.691l25.348-14.63l27.178,15.692
				L799.2,310.104z M825.062,295.18l-27.179-15.695l25.35-14.63l27.179,15.698L825.062,295.18z M849.093,249.952l27.179,15.67
				l-25.348,14.633l-27.178-15.697L849.093,249.952z M848.58,249.653l-25.348,14.607l-27.178-15.672l25.348-14.629L848.58,249.653z
				 M819.569,203.048l27.179,15.693l-25.349,14.628l-27.178-15.694L819.569,203.048z M819.056,202.753l-25.348,14.627
				l-27.179-15.692l25.35-14.628L819.056,202.753z M817.225,171.836l-25.346,14.632l-27.18-15.701l25.348-14.646L817.225,171.836z
				 M789.533,155.821l-25.349,14.648l-27.179-15.718l25.348-14.631L789.533,155.821z M787.702,124.901l-25.349,14.627
				l-27.179-15.691l25.347-14.627L787.702,124.901z M760.01,108.913l-25.35,14.627l-27.195-15.691l25.366-14.627L760.01,108.913z
				 M758.179,78.001l-25.348,14.626l-27.196-15.69L731,62.31L758.179,78.001z M730.484,62.014L705.119,76.64l-27.18-15.693
				l25.35-14.625L730.484,62.014z M728.654,31.102l-25.363,14.626l-27.18-15.691l25.348-14.626L728.654,31.102z M726.824,0.189
				l-25.365,14.628L674.28-0.876l25.349-14.626L726.824,0.189z M699.113-15.8L673.766-1.173l-27.178-15.691l25.349-14.627
				L699.113-15.8z M671.42-31.788l-25.348,14.627l-27.167-15.691l25.337-14.628L671.42-31.788z M616.563-63.468l27.166,15.691
				l-25.336,14.627l-27.18-15.691L616.563-63.468z M590.699-48.544l27.179,15.691L592.53-18.226l-27.179-15.692L590.699-48.544z
				 M564.838-33.622l27.179,15.693l-25.35,14.625l-27.179-15.69L564.838-33.622z M538.975-18.698l27.18,15.692l-25.349,14.627
				l-27.18-15.692L538.975-18.698z M513.113-3.774l27.178,15.691l-25.348,14.627l-27.145-15.692L513.113-3.774z"/>
		</g>
	</g>
</g>
<g opacity="0.05" enable-background="new    ">
	<g>
		<g>
			<defs>
				<rect id="SVGID_10_" x="170.886" y="-25.247" width="513.841" height="513.724"/>
			</defs>
			<clipPath id="SVGID_11_">
				<use xlink:href="#SVGID_10_"  overflow="visible"/>
			</clipPath>
			
				<radialGradient id="SVGID_12_" cx="-577.1099" cy="396.5" r="390.432" gradientTransform="matrix(1 0 0 1 1008 -50.8398)" gradientUnits="userSpaceOnUse">
				<stop  offset="0" style="stop-color:#2E3191"/>
				<stop  offset="0.1172" style="stop-color:#2E3191;stop-opacity:0.8828"/>
				<stop  offset="1" style="stop-color:#008ED3;stop-opacity:0.6"/>
			</radialGradient>
			<path clip-path="url(#SVGID_11_)" fill="url(#SVGID_12_)" d="M127.931,153.705l148.096-85.457l27.18,15.691l-25.348,14.628
				l-11.107-6.414l-0.257,0.446l10.85,6.264l-135.796,78.36l0.258,0.444l136.053-78.509l27.179,15.691l-25.349,14.629l-12.937-7.471
				l-0.257,0.443l12.68,7.322l-123.754,71.412l0.258,0.445l124.01-71.561l27.18,15.693l-25.349,14.625l-14.767-8.525l-0.258,0.444
				l14.512,8.377L169.295,225.17l0.258,0.447l111.968-64.635l27.179,15.693l-25.35,14.627l-16.598-9.584l-0.257,0.443l16.341,9.438
				l-99.667,57.551l0.256,0.445l99.925-57.699l27.179,15.691l-25.348,14.648l-18.429-10.658l-0.257,0.447l18.171,10.508
				l-87.624,50.58l0.257,0.445l87.882-50.729l27.179,15.71l-25.348,14.627l-20.26-11.697l-0.257,0.444l20.002,11.55l-75.581,43.556
				l0.257,0.444l75.839-43.704l27.179,15.691l-25.349,14.615l-22.091-12.742l-0.257,0.445l21.833,12.592l-63.537,36.563l0.257,0.445
				l63.795-36.712l27.179,15.638l-25.348,14.581l-23.921-13.768l-0.257,0.443l23.664,13.62l-51.495,29.714l0.257,0.446
				l51.752-29.862l27.179,15.69l-25.348,14.628l-25.752-14.869l-0.257,0.446l25.494,14.72l-39.452,22.764l0.257,0.446l13.848-7.99
				l27.179,15.691l-25.349,14.627l-1.72-0.994l-0.257,0.445l1.463,0.846l-1.547,0.891l0.258,0.445l1.803-1.041l27.178,15.692
				l-15.364,8.865l0.257,0.445l15.622-9.015l27.179,15.691l-25.347,14.627l-31.245-18.039l-0.257,0.445l30.987,17.892l-3.321,1.917
				l0.256,0.445l3.58-2.067l27.179,15.693l-17.142,9.891l0.258,0.444l17.398-10.039l27.179,15.692l-25.348,14.627l-60.768-35.086
				l-0.258,0.446l60.511,34.936l-4.776,2.756h1.029l4.262-2.46l4.26,2.46h1.027l-4.773-2.756l25.348-14.628l27.18,15.694
				l-2.932,1.689h1.029l2.416-1.394l2.415,1.394h1.028l-2.93-1.689l25.348-14.627l28.252,16.316h1.028l-28.766-16.612l25.335-14.629
				l54.151,31.241h1.029l-54.665-31.537l25.348-14.626l80.016,46.163h1.027l-80.531-46.46l25.388-14.626l105.824,61.087h1.029
				l-106.339-61.385l25.364-14.627l131.657,76.012h1.027l-132.17-76.309l25.349-14.625l157.503,90.934h1.028l-158.018-91.232
				l25.348-14.625l161.238,93.089l0.258-0.444l-160.982-92.942l25.349-14.628l135.376,78.16l0.258-0.445l-135.119-78.011
				l25.348-14.627l109.514,63.228l0.258-0.445l-109.258-63.078l25.348-14.628l83.652,48.297l0.258-0.445l-83.395-48.146
				l25.348-14.626l57.789,33.363l0.258-0.445l-57.533-33.216l2.934-1.692l-0.257-0.445l-3.191,1.841l-27.177-15.666l16.753-9.634
				l-0.259-0.445l-17.009,9.783l-27.179-15.64l25.348-14.591l87.313,50.296l0.258-0.446l-87.055-50.147l4.709-2.719l-0.256-0.445
				l-4.968,2.867l-27.179-15.692l18.529-10.691l-0.257-0.446l-18.788,10.841l-27.178-15.69l25.348-14.633l116.836,67.407
				l0.259-0.444l-116.579-67.259l6.485-3.754l-0.258-0.447l-6.744,3.904l-27.179-15.716l20.306-11.726l-0.256-0.445l-20.563,11.872
				l-27.18-15.698l25.349-14.629l146.359,84.541l0.259-0.445L577.548,182l8.261-4.767l-0.258-0.445l-8.518,4.915l-27.18-15.691
				l22.082-12.743l-0.258-0.444l-22.338,12.892l-27.178-15.692l25.347-14.626l175.884,101.587l0.258-0.445L548.023,135.1
				l10.039-5.793l-0.257-0.445l-10.296,5.942l-27.18-15.693l23.859-13.767l-0.258-0.445l-24.115,13.915l-27.197-15.691
				l25.367-14.627l205.406,118.593l0.258-0.445L518.5,88.199l11.814-6.816l-0.258-0.445l-12.068,6.966l-27.197-15.693l25.365-14.626
				l207.237,119.649l0.258-0.446L516.213,57.023l-0.028-0.049l-0.028,0.017l-27.197-15.692l13.609-7.842l-0.258-0.445l-13.865,7.99
				L461.226,25.31l27.451-15.816l-0.258-0.445l-27.706,15.965L433.535,9.321l41.249-23.79l-0.259-0.445l-41.505,23.94L405.851-6.667
				l55.036-31.764l-0.256-0.445L405.339-6.962L266.752-86.976l-0.257,0.444l138.33,79.865L379.477,7.96L266.752-57.121l-0.257,0.444
				L378.962,8.257l-25.348,14.627l-86.862-50.149l-0.257,0.444L353.1,23.181l-25.348,14.626l-61-35.218l-0.257,0.445l60.744,35.07
				l-25.35,14.627l-35.138-20.287l-0.257,0.444l34.881,20.139l-25.35,14.626l-9.275-5.354l-0.257,0.443l9.019,5.207l-147.84,85.31
				L127.931,153.705z M278.372,98.863l25.349-14.627l27.18,15.692l-25.349,14.627L278.372,98.863z M388.629,163.114l27.179,15.691
				l-25.348,14.629l-27.179-15.695L388.629,163.114z M388.629,162.52l-27.179-15.692l25.348-14.626l27.181,15.691L388.629,162.52z
				 M421.814,271.877l27.168,15.667l-25.34,14.579l-27.176-15.64L421.814,271.877z M421.814,271.285l-27.178-15.691l25.348-14.626
				l27.166,15.691L421.814,271.285z M450.812,318.369l-25.346,14.626l-27.168-15.69l25.344-14.591L450.812,318.369z
				 M424.153,302.418l25.344-14.575l27.205,15.638l-25.376,14.592L424.153,302.418z M450.01,287.545l25.37-14.6l27.213,15.664
				l-25.375,14.577L450.01,287.545z M449.497,287.25l-27.167-15.667l25.334-14.627l27.201,15.691L449.497,287.25z M420.498,240.668
				l25.338-14.64l27.192,15.708l-25.364,14.625L420.498,240.668z M419.985,240.374l-27.18-15.71l25.349-14.647l27.167,15.715
				L419.985,240.374z M418.153,209.422l-27.179-15.691l25.348-14.629l27.167,15.693L418.153,209.422z M390.46,194.027l27.18,15.692
				l-25.35,14.648l-27.178-15.715L390.46,194.027z M392.291,224.961l27.179,15.709l-25.349,14.627l-27.178-15.693L392.291,224.961z
				 M394.122,255.889l27.181,15.693l-25.35,14.607l-27.18-15.672L394.122,255.889z M423.128,302.418l-25.344,14.589l-27.18-15.649
				l25.347-14.577L423.128,302.418z M424.954,333.293l-25.341,14.625l-27.178-15.691l25.348-14.626L424.954,333.293z
				 M426.781,364.205l-25.336,14.626l-27.179-15.692l25.347-14.626L426.781,364.205z M400.128,348.215l25.338-14.625l27.176,15.69
				l-25.348,14.627L400.128,348.215z M425.98,333.293l25.348-14.626l27.208,15.689l-25.38,14.629L425.98,333.293z M451.839,318.369
				l25.378-14.594l27.206,15.659l-25.371,14.627L451.839,318.369z M477.732,303.481l25.374-14.578l27.18,15.639l-25.349,14.595
				L477.732,303.481z M503.106,288.313l-27.21-15.667l25.379-14.626l27.18,15.692L503.106,288.313z M475.38,272.35l-27.202-15.691
				l25.364-14.628l27.218,15.693L475.38,272.35z M446.349,225.73l25.357-14.647l27.218,15.718l-25.381,14.638L446.349,225.73z
				 M445.833,225.432l-27.165-15.713l25.334-14.627l27.188,15.693L445.833,225.432z M416.837,178.805l25.334-14.627l27.182,15.691
				l-25.349,14.629L416.837,178.805z M416.323,178.508l-27.179-15.691l25.348-14.626l27.168,15.691L416.323,178.508z
				 M387.314,131.905l25.348-14.627l27.167,15.691l-25.337,14.628L387.314,131.905z M385.482,100.993l25.349-14.627l27.167,15.691
				l-25.336,14.627L385.482,100.993z M412.147,116.982l-25.349,14.626l-27.179-15.692l25.349-14.626L412.147,116.982z
				 M386.285,131.905l-25.35,14.626l-27.178-15.692l25.348-14.625L386.285,131.905z M360.937,147.125l27.179,15.691l-25.349,14.626
				l-27.18-15.69L360.937,147.125z M362.768,178.038l27.179,15.692l-25.349,14.627l-27.179-15.691L362.768,178.038z
				 M364.598,208.951l27.179,15.712l-25.348,14.645l-27.18-15.709L364.598,208.951z M366.429,239.901l27.178,15.693l-25.348,14.625
				l-27.178-15.689L366.429,239.901z M395.439,286.484l-25.348,14.577l-27.179-15.639l25.347-14.609L395.439,286.484z
				 M397.269,317.306l-25.348,14.625l-27.178-15.691l25.348-14.586L397.269,317.306z M399.099,348.215l-25.347,14.628
				l-27.179-15.692l25.348-14.626L399.099,348.215z M400.931,379.128l-25.349,14.626l-27.179-15.691l25.349-14.627L400.931,379.128z
				 M402.76,410.04l-25.347,14.625l-27.179-15.692l25.348-14.625L402.76,410.04z M376.096,394.051l25.349-14.625l27.165,15.691
				l-25.335,14.625L376.096,394.051z M401.959,379.128l25.335-14.626l27.179,15.691l-25.347,14.627L401.959,379.128z
				 M427.808,364.205l25.348-14.627l27.22,15.692l-25.388,14.626L427.808,364.205z M453.671,349.281l25.381-14.627l27.202,15.692
				l-25.364,14.626L453.671,349.281z M479.57,334.358l25.37-14.626l27.178,15.69l-25.349,14.627L479.57,334.358z M505.453,319.435
				l25.348-14.597l27.18,15.662l-25.35,14.626L505.453,319.435z M531.314,304.542l25.347-14.576l27.18,15.637l-25.348,14.6
				L531.314,304.542z M530.799,304.246l-27.178-15.638l25.349-14.6l27.179,15.661L530.799,304.246z M528.97,273.415l-27.178-15.69
				l25.347-14.628l27.178,15.692L528.97,273.415z M501.275,257.426l-27.217-15.689l25.379-14.64l27.188,15.704L501.275,257.426z
				 M472.222,210.786l25.379-14.628l27.192,15.695l-25.355,14.648L472.222,210.786z M471.706,210.487l-27.188-15.691l25.351-14.629
				l27.217,15.695L471.706,210.487z M442.687,163.882l25.348-14.626l27.217,15.691l-25.383,14.626L442.687,163.882z
				 M442.171,163.584l-27.166-15.69l25.338-14.627l27.178,15.692L442.171,163.584z M413.174,116.982l25.338-14.627l27.179,15.692
				l-25.348,14.625L413.174,116.982z M411.344,86.07l25.337-14.627l27.177,15.691l-25.346,14.628L411.344,86.07z M410.831,85.773
				l-27.18-15.693L409,55.454l27.166,15.692L410.831,85.773z M410.316,86.07l-25.348,14.626L357.79,85.004l25.348-14.627
				L410.316,86.07z M384.455,100.993l-25.348,14.626l-27.181-15.69l25.349-14.627L384.455,100.993z M358.592,115.916l-25.349,14.628
				l-27.179-15.693l25.348-14.625L358.592,115.916z M333.244,131.137l27.18,15.691l-25.35,14.626l-27.178-15.69L333.244,131.137z
				 M335.076,162.048l27.178,15.69l-25.348,14.63l-27.179-15.692L335.076,162.048z M336.906,192.962l27.179,15.691l-25.349,14.647
				l-27.178-15.713L336.906,192.962z M338.736,223.895l27.178,15.709l-25.348,14.628l-27.179-15.692L338.736,223.895z
				 M367.746,270.517l-25.348,14.611l-27.179-15.676l25.347-14.627L367.746,270.517z M369.577,301.357l-25.349,14.584l-27.18-15.646
				l25.349-14.576L369.577,301.357z M371.407,332.228l-25.347,14.627l-27.179-15.692l25.347-14.627L371.407,332.228z
				 M373.238,363.139l-25.349,14.629l-27.179-15.694l25.349-14.626L373.238,363.139z M347.375,378.063l-25.346,14.627l-27.18-15.691
				l25.347-14.626L347.375,378.063z M347.889,378.358l27.179,15.692l-25.348,14.625l-27.178-15.69L347.889,378.358z
				 M376.898,424.963l-25.348,14.626l-27.178-15.691l25.348-14.627L376.898,424.963z M377.414,425.261l27.178,15.69l-25.348,14.627
				l-27.178-15.692L377.414,425.261z M377.927,424.963l25.348-14.627l27.167,15.692l-25.335,14.626L377.927,424.963z
				 M403.791,410.04l25.336-14.627l27.178,15.691l-25.348,14.628L403.791,410.04z M429.641,395.116l25.347-14.626l27.219,15.691
				l-25.387,14.625L429.641,395.116z M455.502,380.193l25.387-14.628l27.195,15.692l-25.364,14.627L455.502,380.193z
				 M481.402,365.27l25.366-14.627l27.179,15.691L508.6,380.961L481.402,365.27z M507.283,350.346l25.348-14.626l27.18,15.69
				l-25.349,14.628L507.283,350.346z M533.146,335.423l25.347-14.626l27.179,15.69l-25.35,14.627L533.146,335.423z M559.008,320.499
				l25.35-14.601l27.176,15.666l-25.347,14.628L559.008,320.499z M584.355,305.308l-27.178-15.638l25.347-14.597l27.179,15.658
				L584.355,305.308z M556.661,289.373l-27.177-15.661l25.348-14.628l27.178,15.691L556.661,289.373z M554.83,258.491
				l-27.177-15.689l25.348-14.635l27.179,15.697L554.83,258.491z M527.139,242.504L499.956,226.8l25.353-14.649l27.179,15.718
				L527.139,242.504z M498.117,195.862l25.359-14.63l27.181,15.694l-25.349,14.63L498.117,195.862z M497.601,195.564l-27.215-15.694
				l25.382-14.626l27.196,15.692L497.601,195.564z M468.547,148.959l25.389-14.627l27.196,15.691l-25.365,14.627L468.547,148.959z
				 M468.035,148.662l-27.18-15.692l25.35-14.625l27.217,15.69L468.035,148.662z M439.025,102.057l25.349-14.627l27.218,15.692
				l-25.387,14.628L439.025,102.057z M437.194,71.146l25.349-14.627l27.219,15.693l-25.388,14.625L437.194,71.146z M436.681,70.849
				l-27.168-15.691l25.336-14.627l27.18,15.691L436.681,70.849z M409,54.862l-27.179-15.692l25.349-14.627l27.167,15.691L409,54.862
				z M408.486,55.158l-25.349,14.627l-27.179-15.691l25.349-14.627L408.486,55.158z M382.625,70.081l-25.35,14.628l-27.18-15.693
				l25.35-14.626L382.625,70.081z M356.761,85.004l-25.348,14.627l-27.18-15.692l25.35-14.625L356.761,85.004z M280.203,129.774
				l25.348-14.625l27.18,15.691l-25.349,14.626L280.203,129.774z M282.033,160.687l25.349-14.628l27.179,15.692l-25.348,14.628
				L282.033,160.687z M283.865,191.6l25.348-14.629l27.18,15.694l-25.349,14.628L283.865,191.6z M285.696,222.534l25.348-14.647
				l27.18,15.713l-25.35,14.644L285.696,222.534z M287.526,253.463l25.347-14.627l27.18,15.693l-25.348,14.625L287.526,253.463z
				 M289.357,284.362l25.348-14.614l27.178,15.675l-25.348,14.577L289.357,284.362z M291.187,315.174l25.348-14.581l27.18,15.646
				l-25.348,14.626L291.187,315.174z M318.367,331.459l27.18,15.691l-25.35,14.628l-27.179-15.692L318.367,331.459z
				 M267.157,361.009l25.347-14.626l27.179,15.691l-25.347,14.627L267.157,361.009z M268.988,391.921l25.348-14.627l27.178,15.692
				l-25.348,14.627L268.988,391.921z M296.679,407.909l25.348-14.626l27.18,15.69l-25.348,14.627L296.679,407.909z M298.51,438.821
				l25.349-14.625l27.177,15.69l-25.348,14.626L298.51,438.821z M326.205,454.81l25.347-14.626l27.179,15.691l-25.349,14.626
				L326.205,454.81z M381.076,486.49l-27.18-15.692l25.35-14.626l27.177,15.692L381.076,486.49z M406.936,471.567l-27.179-15.692
				l25.35-14.627l27.166,15.692L406.936,471.567z M432.787,456.643l-27.166-15.691l25.336-14.626l27.178,15.691L432.787,456.643z
				 M458.649,441.719l-27.177-15.69L456.82,411.4l27.216,15.693L458.649,441.719z M484.551,426.796l-27.217-15.692l25.387-14.624
				l27.195,15.69L484.551,426.796z M510.43,411.873l-27.195-15.692l25.365-14.625l27.179,15.689L510.43,411.873z M536.293,396.948
				l-27.178-15.691l25.347-14.625l27.178,15.69L536.293,396.948z M562.154,382.026l-27.178-15.692l25.348-14.626l27.178,15.69
				L562.154,382.026z M588.017,367.103l-27.178-15.691l25.348-14.626l27.178,15.689L588.017,367.103z M613.878,352.179
				l-27.179-15.691l25.35-14.626l27.179,15.69L613.878,352.179z M637.909,306.962l27.179,15.666l-25.348,14.627l-27.178-15.69
				L637.909,306.962z M637.396,306.666l-25.348,14.601l-27.178-15.664l25.348-14.577L637.396,306.666z M608.386,260.149
				l27.179,15.692l-25.349,14.594l-27.178-15.66L608.386,260.149z M607.872,259.854l-25.348,14.626l-27.179-15.692l25.35-14.628
				L607.872,259.854z M606.041,228.936l-25.346,14.633l-27.18-15.701l25.348-14.646L606.041,228.936z M578.35,212.922
				l-25.349,14.648l-27.179-15.719l25.348-14.631L578.35,212.922z M576.519,182l-25.349,14.629l-27.179-15.693l25.347-14.627
				L576.519,182z M548.826,166.012l-25.35,14.626l-27.195-15.691l25.366-14.626L548.826,166.012z M546.995,135.1l-25.348,14.625
				l-27.196-15.69l25.365-14.626L546.995,135.1z M519.301,119.112l-25.365,14.627l-27.219-15.693l25.389-14.626L519.301,119.112z
				 M517.471,88.2l-25.363,14.626l-27.219-15.691l25.387-14.625L517.471,88.2z M515.641,57.289l-25.365,14.627l-27.218-15.693
				l25.388-14.625L515.641,57.289z M487.93,41.299l-25.387,14.626l-27.178-15.691l25.349-14.627L487.93,41.299z M460.197,25.311
				l-25.348,14.626l-27.167-15.691l25.337-14.627L460.197,25.311z M405.339-6.369l27.166,15.69l-25.336,14.627L379.99,8.257
				L405.339-6.369z M379.476,8.554l27.179,15.691l-25.348,14.627l-27.179-15.691L379.476,8.554z M353.615,23.477l27.179,15.692
				l-25.35,14.626l-27.179-15.69L353.615,23.477z M327.751,38.4l27.18,15.693L329.583,68.72l-27.18-15.692L327.751,38.4z
				 M301.89,53.325l27.178,15.69L303.72,83.642l-27.18-15.691L301.89,53.325z"/>
		</g>
	</g>
</g>
</svg>
