<?xml version="1.0" encoding="utf-8"?>
<!-- Generator: Adobe Illustrator 16.0.0, SVG Export Plug-In . SVG Version: 6.00 Build 0)  -->
<!DOCTYPE svg PUBLIC "-//W3C//DTD SVG 1.1//EN" "http://www.w3.org/Graphics/SVG/1.1/DTD/svg11.dtd">
<svg version="1.1" id="Layer_1" xmlns="http://www.w3.org/2000/svg" xmlns:xlink="http://www.w3.org/1999/xlink" x="0px" y="0px"
	 width="102.24px" height="46.75px" viewBox="0 0 102.24 46.75" enable-background="new 0 0 102.24 46.75" xml:space="preserve">
<image display="none" overflow="visible" enable-background="new    " width="1600" height="900" xlink:href="5220BFE3.jpg"  transform="matrix(0.9995 0 0 0.9985 -671.1353 -307.418)">
</image>
<path fill-rule="evenodd" clip-rule="evenodd" fill="#008ED3" d="M5.977,44.65h1.497L7.103,37.88H5.104l-0.724,2.249
	c-0.221,0.754-0.452,1.648-0.643,2.432h-0.03c-0.15-0.794-0.361-1.647-0.572-2.421l-0.663-2.26h-2.04L0,44.65h1.417l0.121-2.572
	c0.051-0.845,0.08-1.888,0.12-2.803h0.021c0.161,0.884,0.392,1.85,0.612,2.652l0.724,2.611h1.195l0.824-2.642
	c0.26-0.794,0.542-1.758,0.753-2.622h0.03c0,0.985,0.031,1.971,0.061,2.782L5.977,44.65z M10.921,39.628
	c-1.578,0-2.622,1.014-2.622,2.602c0,1.586,1.104,2.531,2.541,2.531c1.316,0,2.592-0.824,2.592-2.621
	C13.432,40.662,12.428,39.628,10.921,39.628 M10.88,40.713c0.693,0,0.975,0.743,0.975,1.476c0,0.884-0.382,1.478-0.975,1.478
	c-0.653,0-1.004-0.633-1.004-1.478C9.876,41.465,10.147,40.713,10.88,40.713 M14.539,38.813v0.925h-0.653v1.125h0.653v2.009
	c0,0.692,0.141,1.166,0.422,1.457c0.242,0.251,0.653,0.432,1.145,0.432c0.432,0,0.794-0.061,0.995-0.141l-0.009-1.155
	c-0.152,0.03-0.242,0.04-0.453,0.04c-0.462,0-0.603-0.271-0.603-0.864v-1.777h1.095v-1.125h-1.095v-1.336L14.539,38.813z
	 M19.493,39.738h-1.527v4.912h1.527V39.738z M18.729,37.599c-0.492,0-0.814,0.331-0.804,0.772c-0.011,0.423,0.312,0.765,0.793,0.765
	c0.503,0,0.824-0.342,0.824-0.765C19.533,37.93,19.222,37.599,18.729,37.599 M23.011,39.628c-1.578,0-2.623,1.014-2.623,2.602
	c0,1.586,1.105,2.531,2.541,2.531c1.316,0,2.592-0.824,2.592-2.621C25.521,40.662,24.518,39.628,23.011,39.628 M22.97,40.713
	c0.693,0,0.975,0.743,0.975,1.476c0,0.884-0.381,1.478-0.975,1.478c-0.653,0-1.004-0.633-1.004-1.478
	C21.966,41.465,22.236,40.713,22.97,40.713 M26.417,44.65h1.527v-2.833c0-0.141,0.02-0.282,0.061-0.382
	c0.1-0.281,0.352-0.572,0.773-0.572c0.552,0,0.773,0.432,0.773,1.064v2.723h1.528v-2.914c0-1.445-0.754-2.108-1.757-2.108
	c-0.815,0-1.316,0.472-1.518,0.783h-0.03l-0.07-0.673h-1.325c0.02,0.432,0.04,0.954,0.04,1.567V44.65z M34.335,44.65h1.516v-2.421
	c0.141,0.02,0.322,0.029,0.522,0.029c0.904,0,1.678-0.221,2.2-0.713c0.402-0.382,0.623-0.943,0.623-1.607
	c0-0.663-0.291-1.226-0.724-1.567c-0.451-0.361-1.125-0.542-2.069-0.542c-0.934,0-1.597,0.062-2.068,0.141V44.65z M35.851,39.046
	c0.111-0.031,0.322-0.062,0.633-0.062c0.764,0,1.196,0.372,1.196,0.994c0,0.694-0.502,1.106-1.316,1.106
	c-0.221,0-0.382-0.011-0.513-0.041V39.046z M39.63,39.738l1.793,4.912h1.534l1.839-4.912h-1.617l-0.636,2.279
	c-0.11,0.424-0.191,0.794-0.271,1.196h-0.031c-0.071-0.393-0.161-0.785-0.283-1.196l-0.666-2.279H39.63z M45.662,38.813v0.925
	h-0.654v1.125h0.654v2.009c0,0.692,0.141,1.166,0.422,1.457c0.24,0.251,0.652,0.432,1.145,0.432c0.432,0,0.793-0.061,0.994-0.141
	l-0.01-1.155c-0.15,0.03-0.242,0.04-0.452,0.04c-0.462,0-0.603-0.271-0.603-0.864v-1.777h1.095v-1.125h-1.095v-1.336L45.662,38.813z
	 M49.792,44.761c0.542,0,0.903-0.392,0.903-0.924c0-0.554-0.361-0.935-0.894-0.935s-0.903,0.391-0.903,0.935
	c0,0.532,0.371,0.924,0.884,0.924H49.792z M53.65,44.65h4.229v-1.285h-2.691V37.88H53.65V44.65z M58.846,38.813v0.925h-0.652v1.125
	h0.652v2.009c0,0.692,0.141,1.166,0.422,1.457c0.242,0.251,0.652,0.432,1.146,0.432c0.433,0,0.793-0.061,0.995-0.141l-0.011-1.155
	c-0.151,0.03-0.241,0.04-0.452,0.04c-0.462,0-0.604-0.271-0.604-0.864v-1.777h1.096v-1.125h-1.096v-1.336L58.846,38.813z
	 M65.457,37.509v2.671h-0.02c-0.221-0.342-0.693-0.552-1.297-0.552c-1.174,0-2.209,0.954-2.199,2.611c0,1.527,0.934,2.521,2.1,2.521
	c0.633,0,1.226-0.281,1.537-0.833h0.02l0.07,0.723h1.356c-0.021-0.332-0.04-0.914-0.04-1.468v-5.674H65.457z M65.457,42.461
	c0,0.13-0.01,0.24-0.04,0.351c-0.091,0.433-0.442,0.734-0.884,0.734c-0.633,0-1.045-0.522-1.045-1.357
	c0-0.772,0.361-1.396,1.055-1.396c0.473,0,0.805,0.342,0.895,0.754c0.01,0.08,0.02,0.19,0.02,0.271V42.461z M68.854,44.761
	c0.542,0,0.904-0.392,0.904-0.924c0-0.554-0.362-0.935-0.896-0.935c-0.531,0-0.902,0.391-0.902,0.935
	c0,0.532,0.371,0.924,0.884,0.924H68.854z"/>
<path fill-rule="evenodd" clip-rule="evenodd" fill="#2E3191" d="M9.818,34.261H7.594l-0.683-1.51H4.653l-1.024-1.404l-1.318,2.914
	H0l3.729-8.389H6.08L9.818,34.261z M63.58,30.308h1.43l0,0h4.743c0.005-0.085,0.006-0.173,0.006-0.263
	c0-1.252-0.384-2.268-1.146-3.039c-0.766-0.772-1.788-1.16-3.069-1.16c-1.227,0-2.236,0.388-3.027,1.16
	c-0.795,0.771-1.189,1.787-1.189,3.039c0,1.192,0.373,2.189,1.112,2.995c0.742,0.803,1.776,1.205,3.104,1.205
	c1.338,0,2.375-0.389,3.109-1.16c0.433-0.453,0.739-0.991,0.918-1.61h-2.307c-0.045,0.096-0.096,0.188-0.15,0.276
	c-0.299,0.476-0.785,0.713-1.462,0.713c-0.728,0-1.255-0.267-1.588-0.797C63.787,31.22,63.625,30.768,63.58,30.308 M67.393,28.936
	h-3.636c0.079-0.211,0.184-0.408,0.313-0.59c0.332-0.474,0.86-0.711,1.582-0.711c0.677,0,1.163,0.236,1.462,0.701
	C67.229,28.52,67.323,28.72,67.393,28.936 M56.703,27.669h-2.519v-1.806h7.567l-0.849,1.806h-2.102v6.583h-2.099V27.669z
	 M47.865,25.854v4.183c0,0.551,0.144,1.09,0.424,1.622c0.285,0.531,0.7,0.797,1.247,0.797c0.505,0,0.892-0.237,1.164-0.713
	c0.272-0.477,0.407-1.044,0.407-1.706v-4.183h2.219v4.183c0,1.255-0.336,2.267-1.004,3.041c-0.67,0.772-1.613,1.158-2.834,1.158
	c-1.211,0-2.153-0.401-2.827-1.204c-0.673-0.805-1.013-1.803-1.013-2.995l-0.008-4.183H47.865z M37.075,34.252v-8.389h2.089v6.566
	h5.49l-0.844,1.822H37.075z M36.056,30.045c0,1.255-0.369,2.267-1.106,3.04c-0.734,0.771-1.771,1.16-3.11,1.16
	c-1.327,0-2.362-0.402-3.105-1.205c-0.739-0.806-1.112-1.803-1.112-2.995c0-1.252,0.396-2.268,1.189-3.039
	c0.792-0.772,1.8-1.16,3.027-1.16c1.281,0,2.305,0.388,3.069,1.16C35.672,27.777,36.056,28.793,36.056,30.045 M33.854,30.045
	c0-0.67-0.148-1.242-0.445-1.709c-0.298-0.465-0.785-0.701-1.461-0.701c-0.723,0-1.25,0.237-1.583,0.711
	c-0.333,0.473-0.501,1.039-0.501,1.699c0,0.551,0.167,1.09,0.496,1.622c0.333,0.53,0.86,0.797,1.589,0.797
	c0.676,0,1.163-0.237,1.461-0.713C33.706,31.274,33.854,30.708,33.854,30.045 M24.428,29.13c1.479,0.247,2.225,1.015,2.236,2.311
	v0.235c-0.011,1.539-0.751,2.396-2.219,2.576h-5.332l0.831-1.813h3.982c0.43-0.071,0.645-0.345,0.645-0.814
	c0-0.41-0.229-0.653-0.688-0.731h-2.537c-1.475-0.246-2.221-1.01-2.232-2.301v-0.234c0.012-1.477,0.751-2.308,2.216-2.494h5.342
	l-0.848,1.806h-4.006c-0.414,0.063-0.62,0.317-0.614,0.772c0,0.408,0.232,0.639,0.69,0.688H24.428z M18.255,32.271
	c-0.057,1.112-0.714,1.777-1.976,1.989h-5.717v-8.389h5.039c0.912,0.017,1.577,0.231,1.995,0.642c0.416,0.414,0.62,1,0.608,1.769
	c-0.012,0.769-0.425,1.312-1.244,1.638c0.796,0.356,1.226,0.972,1.295,1.838V32.271z M16.128,28.417
	c-0.005-0.464-0.287-0.698-0.845-0.704h-2.537v1.4h2.542C15.856,29.113,16.134,28.881,16.128,28.417 M15.991,31.667
	c-0.003-0.476-0.25-0.725-0.743-0.747h-1.571l-0.94-1.488v2.949h2.511C15.747,32.381,15.994,32.144,15.991,31.667 M6.08,30.893
	l-1.141-2.501l-1.118,2.501H6.08z"/>
<path fill-rule="evenodd" clip-rule="evenodd" fill="#80C242" d="M57.986,17.21v-4.779c0.478-0.161,0.822-0.612,0.822-1.144
	c0-0.531-0.345-0.984-0.822-1.144V1.191h2.605c0.479,0,0.883,0.308,1.008,0.77l0.902,3.3c2.088,0.324,4.104,0.869,6.02,1.61
	l2.43-2.406c0.34-0.336,0.845-0.401,1.258-0.163l2.258,1.304l-2.555,4.425c-0.18-0.075-0.377-0.116-0.584-0.116
	c-0.844,0-1.529,0.685-1.529,1.53c0,0.493,0.234,0.933,0.598,1.212l-0.881,1.524c-0.215-0.203-0.506-0.327-0.826-0.327
	c-0.666,0-1.206,0.54-1.206,1.207c0,0.545,0.362,1.005,0.857,1.155l-0.966,1.672h-0.004c-0.336,0-0.609,0.273-0.609,0.609
	c0,0.112,0.031,0.218,0.084,0.308l-0.388,0.671C63.966,18.036,61.072,17.21,57.986,17.21 M59.919,6.326
	c0.528,0,0.956,0.429,0.956,0.957S60.447,8.24,59.919,8.24s-0.956-0.428-0.956-0.957S59.391,6.326,59.919,6.326 M62.689,6.728
	c0.607,0,1.102,0.493,1.102,1.101c0,0.608-0.494,1.101-1.102,1.101s-1.102-0.492-1.102-1.101
	C61.588,7.221,62.082,6.728,62.689,6.728 M65.531,7.442c0.684,0,1.238,0.555,1.238,1.24c0,0.684-0.555,1.238-1.238,1.238
	c-0.686,0-1.239-0.554-1.239-1.238C64.292,7.997,64.846,7.442,65.531,7.442 M68.418,8.48c0.77,0,1.393,0.623,1.393,1.391
	c0,0.768-0.623,1.392-1.393,1.392c-0.768,0-1.391-0.624-1.391-1.392C67.027,9.103,67.65,8.48,68.418,8.48 M60.439,10.394
	c0.733,0,1.327,0.594,1.327,1.327c0,0.732-0.594,1.326-1.327,1.326c-0.731,0-1.326-0.594-1.326-1.326
	C59.113,10.988,59.708,10.394,60.439,10.394 M63.373,11.062c0.803,0,1.455,0.651,1.455,1.455c0,0.802-0.652,1.454-1.455,1.454
	s-1.454-0.652-1.454-1.454C61.919,11.713,62.57,11.062,63.373,11.062 M66.18,12.347c0.732,0,1.326,0.594,1.326,1.327
	c0,0.732-0.594,1.326-1.326,1.326s-1.327-0.594-1.327-1.326C64.853,12.941,65.447,12.347,66.18,12.347 M59.393,14.048
	c0.575,0,1.041,0.465,1.041,1.04s-0.466,1.04-1.041,1.04c-0.574,0-1.04-0.466-1.04-1.04S58.818,14.048,59.393,14.048 M61.666,14.764
	c0.515,0,0.932,0.417,0.932,0.931c0,0.514-0.417,0.931-0.932,0.931c-0.513,0-0.93-0.417-0.93-0.931
	C60.736,15.181,61.153,14.764,61.666,14.764 M63.747,15.679c0.448,0,0.812,0.363,0.812,0.813c0,0.449-0.363,0.813-0.812,0.813
	c-0.449,0-0.813-0.364-0.813-0.813C62.935,16.042,63.298,15.679,63.747,15.679 M65.65,16.723c0.393,0,0.711,0.319,0.711,0.711
	c0,0.393-0.318,0.71-0.711,0.71s-0.711-0.318-0.711-0.71C64.939,17.042,65.258,16.723,65.65,16.723"/>
<path fill-rule="evenodd" clip-rule="evenodd" fill="#008ED3" d="M66.458,19.478l0.388-0.671c0.105,0.181,0.302,0.301,0.525,0.301
	c0.337,0,0.609-0.272,0.609-0.609c0-0.335-0.27-0.607-0.605-0.609l0.966-1.672c0.111,0.034,0.229,0.051,0.349,0.051
	c0.667,0,1.207-0.54,1.207-1.207c0-0.347-0.146-0.66-0.381-0.88l0.881-1.524c0.258,0.199,0.582,0.318,0.932,0.318
	c0.846,0,1.53-0.685,1.53-1.53c0-0.638-0.392-1.185-0.946-1.415l2.555-4.424l2.258,1.304c0.414,0.239,0.609,0.707,0.487,1.17
	l-0.87,3.314c1.619,1.307,3.095,2.783,4.402,4.402l3.313-0.871c0.462-0.121,0.933,0.076,1.171,0.489l1.304,2.257l-4.599,2.655
	c-0.194-0.432-0.628-0.734-1.133-0.734c-0.684,0-1.239,0.555-1.239,1.24c0,0.272,0.087,0.523,0.237,0.728l-7.139,4.124
	C71.173,23.109,69.029,20.965,66.458,19.478 M74.2,11.771c0.925,0,1.675,0.751,1.675,1.676c0,0.926-0.75,1.676-1.675,1.676
	s-1.677-0.75-1.677-1.676C72.523,12.522,73.275,11.771,74.2,11.771 M76.8,14.273c0.845,0,1.53,0.685,1.53,1.53
	s-0.686,1.53-1.53,1.53c-0.844,0-1.528-0.685-1.528-1.53S75.956,14.273,76.8,14.273 M78.986,16.889c0.769,0,1.392,0.623,1.392,1.392
	s-0.623,1.392-1.392,1.392c-0.768,0-1.392-0.623-1.392-1.392S78.219,16.889,78.986,16.889 M70.916,15.536
	c0.596,0,1.078,0.483,1.078,1.078c0,0.597-0.482,1.079-1.078,1.079s-1.079-0.482-1.079-1.079
	C69.837,16.019,70.32,15.536,70.916,15.536 M72.867,17.332c0.525,0,0.952,0.426,0.952,0.953c0,0.526-0.427,0.953-0.952,0.953
	c-0.526,0-0.953-0.427-0.953-0.953C71.914,17.758,72.341,17.332,72.867,17.332 M74.564,19.237c0.449,0,0.814,0.364,0.814,0.813
	c0,0.448-0.365,0.812-0.814,0.812c-0.447,0-0.812-0.364-0.812-0.812C73.753,19.602,74.117,19.237,74.564,19.237 M76.023,21.161
	c0.393,0,0.711,0.319,0.711,0.711c0,0.393-0.318,0.71-0.711,0.71s-0.711-0.318-0.711-0.71C75.313,21.48,75.631,21.161,76.023,21.161
	 M68.926,19.134c0.279,0,0.507,0.228,0.507,0.508c0,0.28-0.228,0.508-0.507,0.508c-0.281,0-0.508-0.228-0.508-0.508
	C68.418,19.361,68.645,19.134,68.926,19.134 M70.293,20.512c0.201,0,0.365,0.165,0.365,0.367c0,0.202-0.164,0.366-0.365,0.366
	c-0.202,0-0.365-0.164-0.365-0.366C69.928,20.676,70.091,20.512,70.293,20.512 M71.545,21.934c0.146,0,0.264,0.118,0.264,0.264
	c0,0.146-0.118,0.264-0.264,0.264c-0.146,0-0.264-0.119-0.264-0.264C71.281,22.052,71.398,21.934,71.545,21.934"/>
<path fill-rule="evenodd" clip-rule="evenodd" fill="#2E3191" d="M72.66,25.683l7.139-4.124c0.225,0.31,0.589,0.511,1.002,0.511
	c0.685,0,1.239-0.555,1.239-1.239c0-0.18-0.038-0.351-0.106-0.504l4.599-2.656l1.303,2.257c0.239,0.415,0.174,0.919-0.163,1.258
	l-2.404,2.43c0.74,1.919,1.285,3.934,1.609,6.021l3.301,0.902c0.461,0.125,0.771,0.531,0.771,1.009v2.605H74.928
	C74.928,31.067,74.103,28.175,72.66,25.683 M82.259,22.305c0.608,0,1.101,0.493,1.101,1.101c0,0.609-0.492,1.104-1.101,1.104
	s-1.101-0.494-1.101-1.104C81.158,22.798,81.65,22.305,82.259,22.305 M83.42,25.027c0.529,0,0.958,0.428,0.958,0.957
	c0,0.527-0.429,0.957-0.958,0.957c-0.527,0-0.956-0.43-0.956-0.957C82.464,25.455,82.893,25.027,83.42,25.027 M84.293,27.697
	c0.455,0,0.824,0.369,0.824,0.824s-0.369,0.824-0.824,0.824c-0.454,0-0.822-0.369-0.822-0.824S83.839,27.697,84.293,27.697
	 M84.914,30.345c0.372,0,0.674,0.303,0.674,0.675c0,0.373-0.302,0.675-0.674,0.675c-0.373,0-0.675-0.302-0.675-0.675
	C84.239,30.647,84.541,30.345,84.914,30.345 M77.262,23.156c0.314,0,0.568,0.255,0.568,0.57c0,0.315-0.254,0.57-0.568,0.57
	s-0.568-0.255-0.568-0.57C76.693,23.411,76.947,23.156,77.262,23.156 M78.289,25.146c0.246,0,0.447,0.2,0.447,0.448
	c0,0.246-0.201,0.446-0.447,0.446c-0.248,0-0.447-0.2-0.447-0.446C77.842,25.347,78.041,25.146,78.289,25.146 M79.12,27.172
	c0.187,0,0.339,0.152,0.339,0.34s-0.152,0.34-0.339,0.34c-0.188,0-0.34-0.152-0.34-0.34S78.933,27.172,79.12,27.172 M79.852,29.062
	c0.136,0,0.244,0.108,0.244,0.243c0,0.136-0.108,0.244-0.244,0.244c-0.134,0-0.242-0.108-0.242-0.244
	C79.609,29.17,79.718,29.062,79.852,29.062"/>
</svg>
