<?xml version="1.0" encoding="UTF-8"?>
<svg width="85px" height="85px" viewBox="0 0 85 85" version="1.1" xmlns="http://www.w3.org/2000/svg" xmlns:xlink="http://www.w3.org/1999/xlink">
    <!-- Generator: Sketch 52.4 (67378) - http://www.bohemiancoding.com/sketch -->
    <title>25+ years</title>
    <desc>Created with Sketch.</desc>
    <g id="25+-years" stroke="none" stroke-width="1" fill="none" fill-rule="evenodd">
        <g id="25years-copy" transform="translate(0.000000, 1.000000)">
            <g id="25-watts-lamp-indicator-(1)" fill="#2E3091" fill-rule="nonzero" stroke="#FFFFFF" stroke-width="3">
                <path d="M42.5,0 C19.0273404,0 0,18.7426096 0,41.8560606 C0,64.9695116 19.0273404,83.7121212 42.5,83.7121212 C65.9726596,83.7121212 85,64.9695116 85,41.8560606 C85,18.7426096 65.9726596,0 42.5,0 Z M42.5,74.6969697 C24.0362735,74.6969697 9.01515152,59.9647154 9.01515152,41.8560606 C9.01515152,23.7474058 24.0362735,9.01515152 42.5,9.01515152 C60.9637265,9.01515152 75.9848485,23.7474058 75.9848485,41.8560606 C75.9848485,59.9647154 60.9637265,74.6969697 42.5,74.6969697 Z" id="Shape"></path>
            </g>
            <circle id="Oval" stroke="#80C242" stroke-width="3" cx="41.8560606" cy="41.8560606" r="25.1136364"></circle>
            <g id="Group-5" transform="translate(1.287879, 69.545455)" fill-rule="nonzero">
                <polygon id="Path" fill="#80C242" points="0 0 2.57575758 0 2.57575758 2.57575758 0 2.57575758"></polygon>
                <polygon id="Path" fill="#008ED3" points="0 5.15151515 2.57575758 5.15151515 2.57575758 7.72727273 0 7.72727273"></polygon>
                <polygon id="Path" fill="#2E3091" points="0 10.3030303 2.57575758 10.3030303 2.57575758 12.8787879 0 12.8787879"></polygon>
                <polygon id="Path" fill="#008ED3" points="5.15151515 5.15151515 7.72727273 5.15151515 7.72727273 7.72727273 5.15151515 7.72727273"></polygon>
                <polygon id="Path" fill="#2E3091" points="5.15151515 10.3030303 7.72727273 10.3030303 7.72727273 12.8787879 5.15151515 12.8787879"></polygon>
                <polygon id="Path" fill="#2E3091" points="10.3030303 10.3030303 12.8787879 10.3030303 12.8787879 12.8787879 10.3030303 12.8787879"></polygon>
            </g>
            <g id="Group-5-Copy-2" transform="translate(74.696970, 75.984848) scale(-1, 1) translate(-74.696970, -75.984848) translate(68.257576, 69.545455)" fill-rule="nonzero">
                <polygon id="Path" fill="#80C242" points="0 0 2.57575758 0 2.57575758 2.57575758 0 2.57575758"></polygon>
                <polygon id="Path" fill="#008ED3" points="0 5.15151515 2.57575758 5.15151515 2.57575758 7.72727273 0 7.72727273"></polygon>
                <polygon id="Path" fill="#2E3091" points="0 10.3030303 2.57575758 10.3030303 2.57575758 12.8787879 0 12.8787879"></polygon>
                <polygon id="Path" fill="#008ED3" points="5.15151515 5.15151515 7.72727273 5.15151515 7.72727273 7.72727273 5.15151515 7.72727273"></polygon>
                <polygon id="Path" fill="#2E3091" points="5.15151515 10.3030303 7.72727273 10.3030303 7.72727273 12.8787879 5.15151515 12.8787879"></polygon>
                <polygon id="Path" fill="#2E3091" points="10.3030303 10.3030303 12.8787879 10.3030303 12.8787879 12.8787879 10.3030303 12.8787879"></polygon>
            </g>
            <g id="Group-5-Copy" transform="translate(7.727273, 6.439394) scale(1, -1) translate(-7.727273, -6.439394) translate(1.287879, 0.000000)" fill-rule="nonzero">
                <polygon id="Path" fill="#80C242" points="0 0 2.57575758 0 2.57575758 2.57575758 0 2.57575758"></polygon>
                <polygon id="Path" fill="#008ED3" points="0 5.15151515 2.57575758 5.15151515 2.57575758 7.72727273 0 7.72727273"></polygon>
                <polygon id="Path" fill="#2E3091" points="0 10.3030303 2.57575758 10.3030303 2.57575758 12.8787879 0 12.8787879"></polygon>
                <polygon id="Path" fill="#008ED3" points="5.15151515 5.15151515 7.72727273 5.15151515 7.72727273 7.72727273 5.15151515 7.72727273"></polygon>
                <polygon id="Path" fill="#2E3091" points="5.15151515 10.3030303 7.72727273 10.3030303 7.72727273 12.8787879 5.15151515 12.8787879"></polygon>
                <polygon id="Path" fill="#2E3091" points="10.3030303 10.3030303 12.8787879 10.3030303 12.8787879 12.8787879 10.3030303 12.8787879"></polygon>
            </g>
            <g id="Group-4" transform="translate(73.409091, 6.439394) scale(-1, -1) translate(-73.409091, -6.439394) translate(66.969697, 0.000000)" fill-rule="nonzero">
                <polygon id="Path-Copy" fill="#80C242" points="0 0 2.57575758 0 2.57575758 2.57575758 0 2.57575758"></polygon>
                <polygon id="Path-Copy-2" fill="#008ED3" points="0 5.15151515 2.57575758 5.15151515 2.57575758 7.72727273 0 7.72727273"></polygon>
                <polygon id="Path-Copy-3" fill="#2E3091" points="0 10.3030303 2.57575758 10.3030303 2.57575758 12.8787879 0 12.8787879"></polygon>
                <polygon id="Path-Copy-4" fill="#008ED3" points="5.15151515 5.15151515 7.72727273 5.15151515 7.72727273 7.72727273 5.15151515 7.72727273"></polygon>
                <polygon id="Path-Copy-5" fill="#2E3091" points="5.15151515 10.3030303 7.72727273 10.3030303 7.72727273 12.8787879 5.15151515 12.8787879"></polygon>
                <polygon id="Path-Copy-6" fill="#2E3091" points="10.3030303 10.3030303 12.8787879 10.3030303 12.8787879 12.8787879 10.3030303 12.8787879"></polygon>
            </g>
            <text id="25+" font-family="Helvetica" font-size="14" font-weight="normal" fill="#008ED3">
                <tspan x="27.0454545" y="47.3560606">25+</tspan>
            </text>
        </g>
    </g>
</svg>