<?xml version="1.0" encoding="utf-8"?>
<!-- Generator: Adobe Illustrator 16.0.0, SVG Export Plug-In . SVG Version: 6.00 Build 0)  -->
<!DOCTYPE svg PUBLIC "-//W3C//DTD SVG 1.1//EN" "http://www.w3.org/Graphics/SVG/1.1/DTD/svg11.dtd">
<svg version="1.1" id="Layer_1" xmlns="http://www.w3.org/2000/svg" xmlns:xlink="http://www.w3.org/1999/xlink" x="0px" y="0px"
	 width="28.5px" height="28px" viewBox="0 0 28.5 28" enable-background="new 0 0 28.5 28" xml:space="preserve">
<title>Email</title>
<desc>Created with Sketch.</desc>
<g id="Email">
	<g id="email">
		<g id="Group" transform="translate(14.749178, 5.801809)">
			<path id="Path" fill="#DAF6C0" d="M7.932-2.01V8.272l-1.33,1.026l-6.657,5.112h-0.888L-8.93,8.272V-2.01
				c0.002-0.489,0.397-0.886,0.888-0.888H7.046C7.535-2.896,7.932-2.499,7.932-2.01z"/>
			<path id="Path_1_" fill="#F5F5F5" d="M6.602-2.01V9.299l-6.657,5.112h-0.888L-8.93,8.272V-2.01
				c0.002-0.489,0.397-0.886,0.888-0.888H5.714C6.205-2.896,6.6-2.499,6.602-2.01z"/>
			<path id="Path_2_" fill="#D84315" d="M12.198,20.704c-0.166,0.229-0.432,0.365-0.715,0.363h-1.332
				c0.49-0.002,0.887-0.397,0.889-0.887v-0.379L12.198,20.704z"/>
		</g>
		<g id="Group_1_">
			<path id="Shape" fill="#2E3091" stroke="#2E3091" stroke-width="0.5" d="M27.541,10.775c-0.007-0.025-0.016-0.051-0.025-0.076
				c-0.014-0.024-0.027-0.047-0.044-0.068c-0.019-0.025-0.038-0.047-0.061-0.068c-0.007-0.006-0.009-0.015-0.017-0.021l-4.269-3.313
				V3.792c0-0.735-0.597-1.331-1.332-1.331h-4.81l-1.926-1.495c-0.476-0.371-1.144-0.371-1.617,0l-1.928,1.495H6.705
				c-0.735,0-1.332,0.596-1.332,1.331v3.437l-4.266,3.314c-0.008,0.006-0.012,0.014-0.02,0.021
				c-0.021,0.021-0.042,0.043-0.059,0.067c-0.018,0.021-0.032,0.044-0.045,0.068c-0.01,0.024-0.02,0.051-0.024,0.077
				c-0.009,0.029-0.017,0.059-0.019,0.089c0,0.009-0.006,0.018-0.006,0.026v15.09c0.002,0.281,0.092,0.556,0.26,0.783
				c0.004,0.004,0.005,0.01,0.008,0.014c0.003,0.001,0.01,0.005,0.014,0.011c0.25,0.328,0.639,0.521,1.051,0.522h23.965
				c0.414-0.002,0.804-0.194,1.053-0.524c0.004-0.004,0.009-0.006,0.013-0.009c0.002-0.006,0.004-0.01,0.006-0.014
				c0.169-0.227,0.259-0.502,0.261-0.783v-15.09c0-0.009-0.006-0.018-0.006-0.025C27.557,10.836,27.55,10.807,27.541,10.775z
				 M13.984,1.666c0.154-0.123,0.375-0.123,0.528,0l1.024,0.795h-2.574L13.984,1.666z M5.818,12.225
				c0.246,0,0.443-0.199,0.443-0.444V3.792c0-0.245,0.199-0.442,0.444-0.442h15.088c0.245,0,0.442,0.198,0.442,0.442v7.988
				c0,0.245,0.199,0.444,0.443,0.444c0.245,0,0.443-0.199,0.443-0.444V8.352l3.123,2.426l-7.4,5.748
				c-0.127,0.096-0.193,0.255-0.173,0.412s0.126,0.293,0.272,0.354c0.149,0.061,0.317,0.034,0.442-0.064l7.285-5.656v14.166
				l-11.614-9.023c-0.477-0.37-1.145-0.37-1.619,0L1.822,25.736V11.568l7.272,5.646c0.193,0.151,0.474,0.115,0.623-0.078
				c0.15-0.193,0.114-0.473-0.079-0.621l-7.388-5.738l3.122-2.426v3.429C5.376,12.025,5.574,12.225,5.818,12.225z M26.121,26.426
				H2.381l11.604-9.014c0.154-0.124,0.375-0.124,0.528,0L26.121,26.426z"/>
			<path id="Path_3_" fill="#008ED3" d="M14.251,14.887c0.245,0,0.442-0.199,0.442-0.443S14.496,14,14.251,14
				c-2.45,0-4.438-1.986-4.438-4.438c0-2.453,1.987-4.438,4.438-4.438s4.437,1.987,4.437,4.438v1.774
				c0,0.49-0.396,0.888-0.887,0.888c-0.49,0-0.887-0.397-0.887-0.888V9.563c0-0.246-0.2-0.444-0.445-0.444
				c-0.244,0-0.443,0.198-0.443,0.444c0,0.979-0.795,1.774-1.773,1.774c-0.98,0-1.775-0.794-1.775-1.774
				c0-0.981,0.795-1.775,1.775-1.775c0.245,0,0.443-0.199,0.443-0.444S14.497,6.9,14.252,6.9c-1.191-0.004-2.24,0.787-2.566,1.933
				s0.148,2.37,1.162,2.995c1.014,0.626,2.319,0.502,3.198-0.303c0.099,0.938,0.912,1.636,1.854,1.586
				c0.94-0.051,1.68-0.832,1.677-1.773V9.563c0-2.94-2.386-5.326-5.325-5.326c-2.941,0-5.325,2.386-5.325,5.326
				C8.926,12.503,11.311,14.887,14.251,14.887z"/>
		</g>
	</g>
</g>
</svg>
