<?xml version="1.0" encoding="UTF-8"?>
<svg width="85px" height="85px" viewBox="0 0 85 85" version="1.1" xmlns="http://www.w3.org/2000/svg" xmlns:xlink="http://www.w3.org/1999/xlink">
    <!-- Generator: Sketch 52.4 (67378) - http://www.bohemiancoding.com/sketch -->
    <title>Goals</title>
    <desc>Created with Sketch.</desc>
    <g id="Goals" stroke="none" stroke-width="1" fill="none" fill-rule="evenodd">
        <g id="development-copy" fill-rule="nonzero">
            <g id="Group" transform="translate(4.250000, 49.583333)" fill="#FFFFFF">
                <polygon id="Path" points="0 22.6666667 11.3333333 22.6666667 11.3333333 34 0 34"></polygon>
                <polygon id="Path" points="21.25 18.4166667 32.5833333 18.4166667 32.5833333 34 21.25 34"></polygon>
                <polygon id="Path" points="42.5 12.75 53.8333333 12.75 53.8333333 34 42.5 34"></polygon>
                <polygon id="Path" points="63.75 0 75.0833333 0 75.0833333 34 63.75 34"></polygon>
            </g>
            <polygon id="Path" fill="#80C242" points="66.5833333 23.5294167 72.7118333 26.9166667 71.5416667 19.74125 76.5 14.6596667 69.6475833 13.61275 66.5833333 7.08333333 63.5190833 13.61275 56.6666667 14.6596667 61.625 19.74125 60.4548333 26.9166667"></polygon>
            <path d="M14.1261034,37.260274 L11.4903349,37.260274 C11.0238797,37.2602728 10.6024134,36.9819776 10.4192046,36.5530041 L9.70625889,34.8792027 C9.48452728,34.8177932 9.27078328,34.750713 9.0626632,34.6790685 L7.51847135,35.5739671 C7.1633011,35.7803258 6.72555962,35.7837835 6.36717398,35.583061 C5.52715379,35.1128703 4.74176344,34.5511352 4.0253515,33.9081185 C3.70955565,33.6253364 3.57236295,33.1932884 3.66716699,32.7801219 L4.0543444,31.089274 C3.92415194,30.9232562 3.79812794,30.7526895 3.67627239,30.577574 L1.88255535,30.4138384 C1.46890334,30.3761401 1.10666358,30.1209225 0.931949355,29.7440849 C0.527989979,28.8808411 0.223570285,27.9744336 0.0245648987,27.0423541 C-0.0619060259,26.6273872 0.0834871968,26.1981665 0.404348533,25.9211808 L1.78078912,24.7363274 L1.78078912,24.1677822 L0.404348533,22.9829288 C0.0836762399,22.7063075 -0.0617206972,22.2775127 0.0245648987,21.8628966 C0.223480947,20.9304254 0.527902368,20.0236299 0.931949355,19.1600247 C1.10666358,18.7831871 1.46890334,18.5279695 1.88255535,18.4902712 L3.67630732,18.3265356 C3.79797269,18.151424 3.92419075,17.979724 4.05437933,17.8137062 L3.66720192,16.1239877 C3.57238942,15.7108276 3.70956837,15.2787808 4.0253515,14.9959911 C4.7422767,14.3535287 5.5273827,13.791486 6.36663837,13.3199075 C6.72592378,13.1203218 7.16355883,13.1237778 7.51964737,13.329013 L9.0626632,14.2250411 C9.27074835,14.1533966 9.48452728,14.0863164 9.70625889,14.0249068 L10.4192046,12.3511055 C10.6024134,11.922132 11.0238797,11.6438368 11.4903349,11.6438356 L14.1261034,11.6438356 C14.5925587,11.6438368 15.0140249,11.922132 15.1972337,12.3511055 L15.9101795,14.0249068 C16.1319111,14.0863164 16.3456551,14.1533966 16.5537752,14.2250411 L18.0973615,13.329013 C18.4531382,13.1226489 18.8913674,13.1191881 19.2503589,13.3199075 C20.0897845,13.7912075 20.8749121,14.3532714 21.5916225,14.9959911 C21.9068847,15.279108 22.0437911,15.7109424 21.9492364,16.1239877 L21.562059,17.8148356 C21.6922437,17.9808534 21.8182677,18.1514201 21.940131,18.3265356 L23.733883,18.4902712 C24.147535,18.5279695 24.5097748,18.7831871 24.684489,19.1600247 C25.0884484,20.0232685 25.3928681,20.929676 25.5918735,21.8617555 C25.6783444,22.2767224 25.5329512,22.7059431 25.2120898,22.9829288 L23.8356492,24.1677822 L23.8356492,24.7363274 L25.2120898,25.9211808 C25.5329512,26.1981665 25.6783444,26.6273872 25.5918735,27.0423541 C25.3928681,27.9744336 25.0884484,28.8808411 24.684489,29.7440849 C24.5097748,30.1209225 24.147535,30.3761401 23.733883,30.4138384 L21.940131,30.577574 C21.8184657,30.7526856 21.6922476,30.9243856 21.562059,31.0904034 L21.9492364,32.7801219 C22.0543941,33.2380074 21.8741272,33.7142371 21.4921268,33.9877158 L19.3589833,35.514863 C18.9864068,35.7805278 18.4929923,35.8040836 18.0968026,35.5751199 L16.5537752,34.6790685 C16.34569,34.750713 16.1319111,34.8177932 15.9101795,34.8792027 L15.1972337,36.5530041 C15.0140249,36.9819776 14.5925587,37.2602728 14.1261034,37.260274 Z M12.2523398,34.9315068 L13.3641694,34.9315068 L14.0099503,33.4362288 C14.1582288,33.0927915 14.4643698,32.8403458 14.8331747,32.7573932 C15.3198103,32.6512059 15.7964104,32.5043522 16.2578191,32.3184205 C16.5978682,32.180232 16.9836167,32.2054288 17.3022461,32.3866418 L18.6923222,33.1826144 L19.5950422,32.5447068 L19.2482134,31.0494521 C19.1629511,30.6835171 19.261841,30.2994647 19.5137768,30.0180993 C19.8365083,29.6561029 20.1275154,29.2677175 20.3836627,28.8571274 C20.578775,28.5457565 20.9106637,28.3428275 21.2800353,28.3090521 L22.9644976,28.1578219 C23.0895103,27.8439895 23.1972348,27.53091 23.2876712,27.2185836 L22.0318222,26.1520082 C21.7719341,25.9305393 21.6224462,25.6085006 21.6222275,25.2696267 L21.6222275,23.6344829 C21.6224462,23.295609 21.7719341,22.9735702 22.0318222,22.7521014 L23.2876712,21.685526 C23.1972191,21.3728347 23.0894946,21.0597553 22.9644976,20.7462877 L21.2800353,20.5950342 C20.9106601,20.5612694 20.578767,20.3583377 20.3836627,20.0469589 C20.1269515,19.6361195 19.8355746,19.2473892 19.5126324,18.8849041 C19.2617845,18.6034186 19.1633922,18.2200564 19.2482134,17.8546575 L19.6099904,16.295711 C19.3317439,16.0785224 19.0448534,15.8761176 18.7493188,15.6884966 L17.3022108,16.5174445 C16.9837513,16.6992099 16.597738,16.724424 16.2577837,16.5856658 C15.7963141,16.399916 15.3197283,16.2530861 14.8331393,16.1467514 C14.4639314,16.0646024 14.1574636,15.8118873 14.0099149,15.4679158 L13.364134,13.9726027 L12.2523044,13.9726027 L11.6065235,15.4678808 C11.458245,15.8113181 11.152104,16.0637638 10.7832991,16.1467164 C10.2966652,16.2528848 9.82006524,16.399719 9.35865462,16.5856308 C9.01851438,16.7232682 8.63302108,16.698088 8.3142276,16.5174096 L6.86711956,15.6884733 C6.572167,15.8761021 6.28527648,16.0785068 6.00644799,16.2956877 L6.36822501,17.8546575 C6.45348723,18.2205925 6.35459739,18.6046449 6.10266152,18.8860103 C5.77993001,19.2480067 5.48892295,19.6363921 5.23277563,20.0469822 C5.0376714,20.358361 4.70577827,20.5612927 4.33640301,20.5950575 L2.65194074,20.7462644 C2.52692805,21.0600968 2.41920351,21.3727998 2.32876712,21.6843733 L3.58461613,22.752113 C3.84450427,22.9735819 3.99399218,23.2956206 3.99421085,23.6344945 L3.99421085,25.2696384 C3.99399218,25.6085122 3.84450427,25.930551 3.58461613,26.1520199 L2.32876712,27.2185952 C2.41921924,27.5312865 2.52694378,27.844366 2.65194074,28.1578336 L4.33640301,28.3090637 C4.70577466,28.3428392 5.03766336,28.5457682 5.23277563,28.857139 C5.48948416,29.2679802 5.78086124,29.6567108 6.10380594,30.0191938 C6.35464254,30.3006714 6.45303405,30.6840177 6.36822501,31.0494055 L6.00644799,32.6083521 C6.28526861,32.8255484 6.5719625,33.0275728 6.86652966,33.2144253 L8.31479391,32.3866185 C8.63286022,32.2042584 9.01898855,32.1790228 9.35864282,32.3183973 C9.82011063,32.5041668 10.2966965,32.6510162 10.7832873,32.7573699 C11.1524933,32.8395224 11.4589597,33.0922363 11.6065117,33.4362055 L12.2523398,34.9315068 Z M12.8082192,30.2739726 C9.59286276,30.2739726 6.98630137,27.6674112 6.98630137,24.4520548 C6.98630137,21.2366984 9.59286276,18.630137 12.8082192,18.630137 C16.0235756,18.630137 18.630137,21.2366984 18.630137,24.4520548 C18.6263642,27.6658472 16.0220116,30.2701998 12.8082192,30.2739726 Z M12.8082192,20.9589041 C10.8790053,20.9589041 9.31506849,22.5228409 9.31506849,24.4520548 C9.31506849,26.3812686 10.8790053,27.9452055 12.8082192,27.9452055 C14.737433,27.9452055 16.3013699,26.3812686 16.3013699,24.4520548 C16.299265,22.5237135 14.7365605,20.961009 12.8082192,20.9589041 Z" id="Shape" fill="#008ED3"></path>
            <path d="M15.5833333,85 L4.25,85 C3.87424669,85.0000977 3.51385519,84.8508736 3.24815746,84.5851759 C2.98245974,84.3194781 2.8332356,83.9590866 2.83333333,83.5833333 L2.83333333,72.25 C2.8332356,71.8742467 2.98245974,71.5138552 3.24815746,71.2481575 C3.51385519,70.9824597 3.87424669,70.8332356 4.25,70.8333333 L15.5833333,70.8333333 C15.9590866,70.8332356 16.3194781,70.9824597 16.5851759,71.2481575 C16.8508736,71.5138552 17.0000977,71.8742467 17,72.25 L17,83.5833333 C17.0000977,83.9590866 16.8508736,84.3194781 16.5851759,84.5851759 C16.3194781,84.8508736 15.9590866,85.0000977 15.5833333,85 Z M5.66666667,82.1666667 L14.1666667,82.1666667 L14.1666667,73.6666667 L5.66666667,73.6666667 L5.66666667,82.1666667 Z" id="Shape" fill="#2E3091"></path>
            <path d="M36.8333333,85 L25.5,85 C25.1242467,85.0000977 24.7638552,84.8508736 24.4981575,84.5851759 C24.2324597,84.3194781 24.0832356,83.9590866 24.0833333,83.5833333 L24.0833333,68 C24.0832356,67.6242467 24.2324597,67.2638552 24.4981575,66.9981575 C24.7638552,66.7324597 25.1242467,66.5832356 25.5,66.5833333 L36.8333333,66.5833333 C37.2090866,66.5832356 37.5694781,66.7324597 37.8351759,66.9981575 C38.1008736,67.2638552 38.2500977,67.6242467 38.25,68 L38.25,83.5833333 C38.2500977,83.9590866 38.1008736,84.3194781 37.8351759,84.5851759 C37.5694781,84.8508736 37.2090866,85.0000977 36.8333333,85 Z M26.9166667,82.1666667 L35.4166667,82.1666667 L35.4166667,69.4166667 L26.9166667,69.4166667 L26.9166667,82.1666667 Z" id="Shape" fill="#2E3091"></path>
            <path d="M58.0833333,85 L46.75,85 C46.3742467,85.0000977 46.0138552,84.8508736 45.7481575,84.5851759 C45.4824597,84.3194781 45.3332356,83.9590866 45.3333333,83.5833333 L45.3333333,62.3333333 C45.3332356,61.95758 45.4824597,61.5971885 45.7481575,61.3314908 C46.0138552,61.0657931 46.3742467,60.9165689 46.75,60.9166667 L58.0833333,60.9166667 C58.4590866,60.9165689 58.8194781,61.0657931 59.0851759,61.3314908 C59.3508736,61.5971885 59.5000977,61.95758 59.5,62.3333333 L59.5,83.5833333 C59.5000977,83.9590866 59.3508736,84.3194781 59.0851759,84.5851759 C58.8194781,84.8508736 58.4590866,85.0000977 58.0833333,85 Z M48.1666667,82.1666667 L56.6666667,82.1666667 L56.6666667,63.75 L48.1666667,63.75 L48.1666667,82.1666667 Z" id="Shape" fill="#2E3091"></path>
            <path d="M79.3333333,85 L68,85 C67.6242467,85.0000977 67.2638552,84.8508736 66.9981575,84.5851759 C66.7324597,84.3194781 66.5832356,83.9590866 66.5833333,83.5833333 L66.5833333,49.5833333 C66.5832356,49.20758 66.7324597,48.8471885 66.9981575,48.5814908 C67.2638552,48.3157931 67.6242467,48.1665689 68,48.1666667 L79.3333333,48.1666667 C79.7090866,48.1665689 80.0694781,48.3157931 80.3351759,48.5814908 C80.6008736,48.8471885 80.7500977,49.20758 80.75,49.5833333 L80.75,83.5833333 C80.7500977,83.9590866 80.6008736,84.3194781 80.3351759,84.5851759 C80.0694781,84.8508736 79.7090866,85.0000977 79.3333333,85 Z M69.4166667,82.1666667 L77.9166667,82.1666667 L77.9166667,51 L69.4166667,51 L69.4166667,82.1666667 Z" id="Shape" fill="#2E3091"></path>
            <path d="M49.4117892,31.9082067 C49.2304342,31.57344 48.922082,31.3256606 48.5561225,31.2206275 L38.6394558,28.3872942 L37.8605725,31.1127058 L44.8029617,33.0962517 L2.05582417,61.149085 L3.6108425,63.5175817 L45.6564608,35.9250942 L43.3259167,43.5002375 L46.0333508,44.3330958 L49.5203767,32.9997625 C49.6326346,32.6361321 49.5934856,32.2425946 49.4117892,31.9082067 Z" id="Path" fill="#008ED3"></path>
            <path d="M66.6061558,36.8333333 C65.5349426,36.8028701 64.4663343,36.711413 63.4055233,36.5594067 L63.8925025,33.7675817 C64.7810524,33.922607 65.6813613,34.0003704 66.5833333,34 L66.6047817,34 C67.5093861,34.0001801 68.412284,33.9214933 69.30322,33.7648333 L69.7957383,36.5538958 C68.7427109,36.7397525 67.6754591,36.8332539 66.6061558,36.8333333 Z M57.3922975,34.3790717 C55.5328306,33.3067445 53.8747754,31.918125 52.4927558,30.2757108 L54.65925,28.4495 C55.829582,29.8407053 57.233918,31.0168008 58.80895,31.9247675 L57.3922975,34.3790717 Z M75.8027308,34.36108 L74.3819133,31.9095808 C75.954993,30.9985469 77.3571556,29.8201745 78.5253942,28.4274142 L80.694665,30.25082 C79.3156193,31.8951298 77.660128,33.2860929 75.8027308,34.36108 Z M49.2845017,24.7487842 C48.5464969,22.7321072 48.168374,20.6014962 48.1673608,18.4540242 L51.0006942,18.448485 C51.0012752,20.2655095 51.3208626,22.0683228 51.9449025,23.7748258 L49.2845017,24.7487842 Z M83.8952975,24.7155775 L81.2321342,23.7471583 C81.8529476,22.0386442 82.1692516,20.2344739 82.1666667,18.4166667 L84.3739892,18.3640942 L84.9993058,18.3751583 C85.0061196,20.5370328 84.6324173,22.6832385 83.8952975,24.7155775 Z M51.9241483,13.1166192 L49.2595967,12.153725 C49.9895936,10.1336297 51.0684586,8.25732512 52.4470967,6.610195 L54.6219067,8.42806167 C53.4550424,9.82088303 52.5419139,11.4078508 51.9241483,13.1166192 Z M81.2107,13.03084 C80.5833706,11.326123 79.6615895,9.74479579 78.4873425,8.35888583 L80.6497,6.52996917 C82.0383091,8.16752843 83.1282553,10.0364337 83.8697833,12.0513708 L81.2107,13.03084 Z M58.7570858,4.93757917 L57.3307292,2.48885667 C59.1866847,1.40704264 61.2186699,0.66056036 63.3335708,0.283616667 L63.8330025,3.07275 C62.0446684,3.39153255 60.3264523,4.02278395 58.7570858,4.93757917 Z M74.3307292,4.89193417 C72.7560022,3.98662446 71.0339706,3.36609131 69.2437342,3.05883833 L69.7238,0.267013333 C71.8413709,0.629706312 73.8782262,1.3636096 75.7404825,2.43489583 L74.3307292,4.89193417 Z" id="Shape" fill="#2E3091"></path>
        </g>
    </g>
</svg>