<?xml version="1.0" encoding="UTF-8"?>
<svg width="85px" height="85px" viewBox="0 0 85 85" version="1.1" xmlns="http://www.w3.org/2000/svg" xmlns:xlink="http://www.w3.org/1999/xlink">
    <!-- Generator: Sketch 52.4 (67378) - http://www.bohemiancoding.com/sketch -->
    <title>Mission</title>
    <desc>Created with Sketch.</desc>
    <g id="Mission" stroke="none" stroke-width="1" fill="none" fill-rule="evenodd">
        <g id="Group-Copy" transform="translate(0.000000, 3.000000)">
            <g id="target" fill-rule="nonzero">
                <path d="M51.8428752,20.3931444 C52.1664717,20.7159427 52.5904776,20.8772591 53.0144834,20.8772591 C53.4384893,20.8772591 53.8626608,20.7159427 54.1860916,20.3931444 C54.8331189,19.7477133 54.8331189,18.7011397 54.1860916,18.0555433 L54.1637232,18.0332301 C53.5166959,17.3877989 52.4675341,17.3877989 51.8203411,18.0332301 C51.1733138,18.6786612 51.1733138,19.7252348 51.8203411,20.3708312 L51.8428752,20.3931444 Z" id="XMLID_4218_" fill="#80C242"></path>
                <path d="M78.5738012,36.0317506 L84.3489961,30.2708026 C84.8228752,29.7980925 84.9645419,29.0870439 84.7080507,28.4695457 C84.4515595,27.8518821 83.8474464,27.4492521 83.1772222,27.4492521 L71.205809,27.4492521 C69.6410136,21.0594013 66.3568324,15.2369679 61.6619493,10.5535014 C54.8399123,3.7479632 45.7691033,0 36.1208577,0 C26.4726121,0 17.4018031,3.7479632 10.5796004,10.5535014 C3.75723197,17.3590396 0,26.4073064 0,36.0317506 C0,45.6561949 3.75723197,54.7046269 10.5796004,61.5099999 C12.6083333,63.5337281 14.8370565,65.2847389 17.2195419,66.7494792 L12.2277388,75.5466807 C11.9374464,76.0583977 11.941423,76.6854824 12.2383431,77.1932325 C12.5350975,77.7013133 13.0800585,78.0136986 13.6695906,78.0136986 L22.202729,78.0136986 C22.7997173,78.0136986 23.3506433,77.6933797 23.6447466,77.1750514 L27.1743177,70.9546159 C30.0631579,71.6856637 33.062846,72.0635013 36.1208577,72.0635013 C39.1788694,72.0635013 42.1785575,71.6856637 45.0673977,70.9546159 L48.5969688,77.1750514 C48.8910721,77.6933797 49.4419981,78.0136986 50.0389864,78.0136986 L58.5721248,78.0136986 C59.1616569,78.0136986 59.7066179,77.7013133 60.003538,77.1933978 C60.3004581,76.6854824 60.3044347,76.0583977 60.0141423,75.546846 L55.0223392,66.7496445 C57.4048246,65.2847389 59.6335478,63.5338934 61.6622807,61.5101651 C66.3553411,56.8286821 69.6411793,51.0037694 71.205809,44.6144145 L83.1773879,44.6144145 C83.8474464,44.6144145 84.4517251,44.2116192 84.7082164,43.5941209 C84.9647076,42.9766226 84.8228752,42.2655741 84.3491618,41.7928639 L78.5738012,36.0317506 Z M75.5441228,34.378918 L63.9806433,34.378918 L67.6136062,30.7549173 L79.1772515,30.7549173 L75.5441228,34.378918 Z M21.2365789,74.7080334 L16.5113743,74.7080334 L20.1178265,68.3523962 C21.3555458,68.9636137 22.6262378,69.5042553 23.9262573,69.9680401 L21.2365789,74.7080334 Z M55.7303411,74.7080334 L51.0051365,74.7080334 L48.3154581,69.9680401 C49.6154776,69.5042553 50.8861696,68.9636137 52.1238889,68.3523962 L55.7303411,74.7080334 Z M59.3188986,59.172564 C57.1301072,61.3559559 54.6854873,63.1909306 52.0539669,64.6536875 C52.0214912,64.6693894 51.9886842,64.6842649 51.9567057,64.7022807 C51.9366569,64.7136853 51.9184308,64.7267427 51.8990448,64.7388083 C49.8804191,65.8465367 47.7532651,66.735926 45.5460819,67.3927616 C45.4592593,67.4099511 45.3734308,67.4354047 45.2887622,67.4671391 C42.3470663,68.3163645 39.2681774,68.7578361 36.1208577,68.7578361 C32.973538,68.7578361 29.8946491,68.3163645 26.9529532,67.4673044 C26.8681189,67.43557 26.7822904,67.4101164 26.6953021,67.3929269 C24.4882846,66.7360912 22.3611306,65.846702 20.3426706,64.7389736 C20.3232846,64.7269079 20.3050585,64.7138506 20.2850097,64.702446 C20.2530312,64.6844301 20.2203899,64.6695546 20.1879142,64.6538527 C17.5563938,63.1910959 15.1117739,61.3561211 12.9229825,59.172564 C6.72643275,52.9914659 3.31384016,44.7732517 3.31384016,36.0317506 C3.31384016,27.2902496 6.72643275,19.0720353 12.9228168,12.8909373 C19.1192008,6.70983922 27.3577388,3.3056652 36.1208577,3.3056652 C44.8839766,3.3056652 53.1225146,6.70983922 59.3188986,12.8909373 C63.3904483,16.9524428 66.2943665,21.9557324 67.7854288,27.4492521 L66.9274756,27.4492521 C66.4880604,27.4492521 66.06654,27.6234606 65.7558674,27.9333668 L61.3582359,32.3201498 C60.9145127,29.3151348 59.940575,26.3932573 58.4698928,23.7359984 C58.0276608,22.9368538 57.0195906,22.646947 56.2184698,23.0879227 C55.4173489,23.5290637 55.1265595,24.5346471 55.5687914,25.3337916 C57.1417057,28.175672 58.0203704,31.2654773 58.2452144,34.3790833 L50.9395224,34.3790833 C50.570692,31.0311056 49.0875828,27.9295652 46.6654971,25.5134546 C43.8488986,22.7036391 40.1040936,21.1562573 36.1208577,21.1562573 C32.1376218,21.1562573 28.3928168,22.7036391 25.576384,25.513124 C22.7597856,28.3229394 21.208577,32.0583411 21.208577,36.0317506 C21.208577,40.0051602 22.7597856,43.7407272 25.5762183,46.550212 C28.3928168,49.3598621 32.1376218,50.907244 36.1208577,50.907244 C40.1040936,50.907244 43.8488986,49.3598621 46.6653314,46.5503773 C49.0874172,44.1342666 50.5705263,41.0327262 50.9393567,37.6845832 L58.237924,37.6845832 C57.8427485,42.8513379 55.6571053,47.8653709 51.8205068,51.6926701 C47.6270078,55.8759894 42.051306,58.1797075 36.1208577,58.1797075 C30.1904094,58.1797075 24.6147076,55.8759894 20.4212086,51.6926701 C16.2275439,47.509516 13.9181287,41.9477344 13.9181287,36.0317506 C13.9181287,30.1157669 16.2275439,24.5539852 20.4212086,20.3708312 C27.3772904,13.4319094 38.2433723,11.8944445 46.8454386,16.6319586 C47.6463938,17.0729343 48.6544639,16.7830275 49.0968616,15.9838829 C49.5390936,15.1847384 49.2483041,14.1793203 48.4471832,13.738014 C43.7009357,11.1240592 38.1123099,10.0822788 32.7112476,10.8052278 C27.1299123,11.5519776 22.0696784,14.051391 18.0779922,18.0333953 C13.2585088,22.8409895 10.6042885,29.2328237 10.6042885,36.0317506 C10.6042885,42.8306775 13.2585088,49.222677 18.0778265,54.0301059 C22.8973099,58.8377001 29.305117,61.4853726 36.1208577,61.4853726 C42.9365984,61.4853726 49.3444055,58.8377001 54.1637232,54.0302712 C58.0798538,50.1239667 60.5642398,45.1917489 61.3640351,39.749467 L65.7557018,44.1302998 C66.0663743,44.4402059 66.4878947,44.6144145 66.9273099,44.6144145 L67.7849318,44.6144145 C66.2938694,50.1076036 63.3887914,55.1127113 59.3188986,59.172564 Z M41.5323587,32.9151695 C41.074883,32.1244544 40.0615107,31.8537204 39.2690058,32.3102328 L35.2923977,34.6003976 C34.7797466,34.8955935 34.4639376,35.4411936 34.4639376,36.0317506 C34.4639376,36.6223077 34.7797466,37.1679078 35.2923977,37.4631037 L39.2690058,39.7532685 C39.5299708,39.903511 39.8147953,39.9749134 40.0959747,39.9749134 C40.6686062,39.9749134 41.2254971,39.6785605 41.5323587,39.1483318 C41.8012768,38.6838858 41.8166862,38.1439054 41.6243177,37.6845832 L47.6011598,37.6845832 C47.2500585,40.1477997 46.1172222,42.4222626 44.322115,44.2127761 C42.131501,46.3981514 39.2189669,47.6015788 36.1208577,47.6015788 C33.0227485,47.6015788 30.1102144,46.3981514 27.9194347,44.2127761 C25.7288207,42.0275662 24.5224172,39.122217 24.5224172,36.0317506 C24.5224172,32.9412842 25.7288207,30.0359351 27.9196004,27.8505598 C30.1102144,25.6653499 33.0227485,24.4619225 36.1208577,24.4619225 C39.2189669,24.4619225 42.131501,25.6653499 44.3222807,27.8507251 C46.1172222,29.6412387 47.2502242,31.9157016 47.6013255,34.378918 L41.6244834,34.378918 C41.8166862,33.9194306 41.8012768,33.3796155 41.5323587,32.9151695 Z M67.6136062,41.308584 L63.9806433,37.6845832 L75.5441228,37.6845832 L79.1772515,41.308584 L67.6136062,41.308584 Z" id="XMLID_4221_" fill="#2E3091"></path>
            </g>
            <ellipse id="Oval" stroke="#008ED3" stroke-width="3.24" cx="36.2037037" cy="35.8441318" rx="12.6385185" ry="12.6895113"></ellipse>
            <rect id="Rectangle" fill="#2E3091" x="47.2222222" y="34.7898926" width="15.7407407" height="3.16271751"></rect>
        </g>
    </g>
</svg>