<?xml version="1.0" encoding="utf-8"?>
<!-- Generator: Adobe Illustrator 16.0.0, SVG Export Plug-In . SVG Version: 6.00 Build 0)  -->
<!DOCTYPE svg PUBLIC "-//W3C//DTD SVG 1.1//EN" "http://www.w3.org/Graphics/SVG/1.1/DTD/svg11.dtd">
<svg version="1.1" id="Layer_1" xmlns="http://www.w3.org/2000/svg" xmlns:xlink="http://www.w3.org/1999/xlink" x="0px" y="0px"
	 width="28.8px" height="28.8px" viewBox="28.1 28.1 28.8 28.8" enable-background="new 28.1 28.1 28.8 28.8" xml:space="preserve">
<title>office</title>
<desc>Created with Sketch.</desc>
<g id="office">
	<g id="noun_Office_1919466" transform="translate(0.000000, 8.000000)">
		<g id="Group">
			<path id="Shape" fill="#2E3091" d="M56.442,44.285c0.009-0.036,0.016-0.074,0.016-0.114c0-0.117-0.043-0.224-0.112-0.308
				l-1.808-7.851h0.761c0.27,0,0.486-0.218,0.486-0.487V33.09c0-0.27-0.217-0.488-0.486-0.488h-0.853v-6.963
				c0-0.27-0.218-0.488-0.487-0.488h-2.634c-0.27,0-0.487,0.219-0.487,0.488v1.587h-1.659v-1.587c0-0.27-0.218-0.488-0.487-0.488
				h-2.634c-0.27,0-0.487,0.219-0.487,0.488v6.964h-6.553l-0.127-1.639h3.431c0.27,0,0.488-0.218,0.488-0.488v-6.802
				c0-0.27-0.218-0.488-0.488-0.488H31.042c-0.27,0-0.488,0.218-0.488,0.488v6.802c0,0.27,0.218,0.488,0.488,0.488h3.431
				l-0.127,1.639h-4.508c-0.27,0-0.487,0.218-0.487,0.488v2.435c0,0.27,0.218,0.488,0.487,0.488H30.4l-1.858,8.291
				c0,0.001,0,0.002,0,0.004l-0.429,1.913c-0.059,0.264,0.106,0.524,0.369,0.583c0.036,0.008,0.072,0.012,0.107,0.012
				c0.223,0,0.424-0.154,0.475-0.381l0.345-1.542h3.256l0.355,1.544c0.052,0.227,0.252,0.379,0.475,0.379
				c0.036,0,0.073-0.004,0.11-0.013c0.262-0.061,0.426-0.322,0.365-0.585l-0.42-1.825c-0.001-0.067-0.017-0.133-0.044-0.191
				l-1.236-5.369h20.415l-1.174,5.238c0,0.001,0,0.002,0,0.002l-0.481,2.147c-0.059,0.264,0.106,0.525,0.369,0.584
				c0.036,0.008,0.072,0.012,0.107,0.012c0.224,0,0.424-0.155,0.476-0.381l0.397-1.776h3.149l0.409,1.778
				c0.052,0.227,0.253,0.379,0.475,0.379c0.036,0,0.073-0.004,0.11-0.013c0.262-0.061,0.426-0.322,0.365-0.585L56.442,44.285z
				 M51.813,26.126h1.659v6.476h-1.659v-4.888V26.126z M50.838,28.202v4.4h-1.659v-4.4H50.838z M46.545,26.126h1.659v1.587v4.888
				h-1.659V26.126z M41.833,24.16v3.932H31.53V24.16H41.833z M31.53,29.069h10.304v0.917h-3.471H35h-3.47V29.069z M35.451,30.963
				h2.46l0.127,1.639h-2.715L35.451,30.963z M30.326,33.578h4.472h3.768h0.006h7.485h2.635h2.633h2.634h0.853v1.459H30.326V33.578z
				 M29.628,43.917l1.387-6.191l0.165,0.716c0,0.002,0,0.003,0.001,0.005l1.259,5.471H29.628z M32.046,37.857l-0.424-1.844h21.695
				l-0.413,1.844H32.046z M52.598,43.684l1.105-4.937c0.127-0.088,0.211-0.235,0.211-0.401c0-0.089-0.025-0.171-0.067-0.242
				l0.085-0.378l1.371,5.958H52.598z"/>
			<path id="Shape_1_" fill="#008ED3" d="M47.712,41.102h-3.309c-0.142,0-0.276,0.061-0.369,0.169
				c-0.093,0.106-0.134,0.249-0.113,0.39l0.607,4.193c0.035,0.24,0.24,0.418,0.482,0.418h2.026c0.239,0,0.443-0.174,0.48-0.41
				l0.676-4.193c0.022-0.142-0.018-0.285-0.11-0.395C47.991,41.164,47.854,41.102,47.712,41.102z M46.622,45.296h-1.189
				l-0.466-3.219h2.173L46.622,45.296z"/>
			<rect id="Rectangle" x="31.319" y="28.807" fill="#80C242" width="10.666" height="1.376"/>
		</g>
	</g>
</g>
</svg>
