<?xml version="1.0" encoding="UTF-8"?>
<svg width="85px" height="85px" viewBox="0 0 85 85" version="1.1" xmlns="http://www.w3.org/2000/svg" xmlns:xlink="http://www.w3.org/1999/xlink">
    <!-- Generator: Sketch 52.4 (67378) - http://www.bohemiancoding.com/sketch -->
    <title>Passion</title>
    <desc>Created with Sketch.</desc>
    <g id="Passion" stroke="none" stroke-width="1" fill="none" fill-rule="evenodd">
        <g id="like-copy" transform="translate(0.000000, 1.000000)" fill-rule="nonzero">
            <g id="Group-3" transform="translate(32.785714, 36.428571)">
                <path d="M9.49615926,4.15851999 C5.06896628,-4.35553024 -3.87251557,1.75097838 1.86029924,8.67695869 C5.65495832,13.2614906 9.49615926,15.4545463 9.49615926,15.4545463 C9.49615926,15.4545463 13.3372241,13.2614906 17.1320193,8.67695869 C22.8648341,1.75083745 13.9233522,-4.35553024 9.49615926,4.15851999 Z" id="Path" fill="#80C242"></path>
                <path d="M4.81148905,7.54731378 C2.25971555,4.46446548 2.61640044,1.5453706 4.18712039,0.00422829933 C0.694303009,-0.121193852 -1.92973286,4.09792277 1.86043533,8.67681776 C5.6550944,13.2613497 9.49629535,15.4544054 9.49629535,15.4544054 C9.49629535,15.4544054 10.3974656,14.9390471 11.7560254,13.8891651 C10.482248,13.0441862 7.63462069,10.9580917 4.81148905,7.54731378 Z" id="Path" fill="#7AB344"></path>
            </g>
            <path d="M83.9760114,35.9497577 L74.6513754,34.2544028 C74.5924396,34.0248028 74.5310136,33.7950367 74.4669313,33.5654367 L81.6944498,27.4351317 C82.1541489,27.0449942 82.2693641,26.3820925 81.9678786,25.8598064 L76.6448988,16.6402766 C76.3434133,16.1181565 75.7115553,15.8860662 75.1441117,16.0896017 L66.2117722,19.2870689 C66.0474161,19.1192268 65.8812338,18.9530448 65.7133913,18.7888551 L68.9110307,9.85636691 C69.1142347,9.28875838 68.8823099,8.65706769 68.3601888,8.35558273 L59.140641,3.03261334 C58.6183538,2.73096237 57.9552849,2.84634345 57.5653126,3.30604161 L51.4349957,10.533546 C51.2053952,10.4692978 50.9756287,10.4078719 50.7460282,10.3491022 L49.050504,1.02431841 C48.9425934,0.43114342 48.4261168,0 47.8231457,0 L37.1773522,0 C36.5743811,0 36.0579044,0.43114342 35.9499939,1.02431841 L34.2546357,10.3489362 C34.0250352,10.4078719 33.7952687,10.4692978 33.5656681,10.5333799 L27.4353512,3.3058756 C27.045379,2.84617743 26.382476,2.73079635 25.8600228,3.03244733 L16.6404751,8.35541671 C16.1183539,8.65706769 15.8864292,9.28859236 16.0896331,9.85620089 L19.2872726,18.788689 C19.1194301,18.9528788 18.9532478,19.1190608 18.7888917,19.2869029 L9.85622012,16.0894357 C9.2887765,15.8863982 8.65691856,16.1181565 8.35543301,16.6401106 L3.03245324,25.8596404 C2.73080168,26.3817605 2.84618299,27.0448282 3.30588205,27.4349657 L10.5334005,33.5652706 C10.4691522,33.7948707 10.4077262,34.0244708 10.3489564,34.2542368 L1.02432041,35.9497577 C0.431144261,36.0576681 1.13686838e-13,36.5741437 1.13686838e-13,37.1771136 L1.13686838e-13,47.8228864 C1.13686838e-13,48.4258563 0.431144261,48.9423319 1.02432041,49.0502423 L10.3489564,50.7455972 C10.4078922,50.9751972 10.4693182,51.2049633 10.5334005,51.4345633 L3.30588205,57.5648683 C2.84618299,57.9550058 2.73096769,58.6179075 3.03245324,59.1401936 L8.35543301,68.3597234 C8.65691856,68.8818435 9.28844447,69.1137678 9.85622012,68.9103983 L18.7885597,65.7129311 C18.9527498,65.8806072 19.1190981,66.0469552 19.2869405,66.211311 L16.0893011,75.1436331 C15.8860972,75.7114076 16.1180219,76.3429323 16.6401431,76.6445833 L25.8596908,81.9675527 C26.382144,82.2692037 27.045047,82.1538226 27.4350192,81.6941244 L33.5653361,74.4666201 C33.7949366,74.5308682 34.0247031,74.5924601 34.2543037,74.6510638 L35.9496618,83.9756816 C36.0574064,84.5688566 36.574049,85 37.1770201,85 L47.8228137,85 C48.4257848,85 48.9422614,84.5688566 49.050172,83.9756816 L50.7455301,74.6510638 C50.9751306,74.5921281 51.2048972,74.5307022 51.4344977,74.4666201 L57.5648146,81.6941244 C57.9546208,82.1536566 58.6175238,82.2692037 59.140143,81.9675527 L68.3596907,76.6445833 C68.8818119,76.3429323 69.1137366,75.7114076 68.9106987,75.1436331 L65.7130593,66.211311 C65.8809017,66.0469552 66.04725,65.8807732 66.2114401,65.7129311 L75.1437797,68.9103983 C75.7115553,69.1137678 76.3432473,68.8818435 76.6445668,68.3597234 L81.9675466,59.1401936 C82.2691981,58.6180735 82.1538168,57.9550058 81.6941178,57.5648683 L74.4665993,51.4345633 C74.5308476,51.2049633 74.5922736,50.9751972 74.6510434,50.7455972 L83.9756794,49.0502423 C84.5688555,48.9424979 84.9999998,48.4258563 84.9999998,47.8228864 L84.9999998,37.1771136 C85.0003318,36.5741437 84.5691876,36.0576681 83.9760114,35.9497577 Z M82.5052733,46.7818004 L73.4075815,48.4358173 C72.9166714,48.5251338 72.5263671,48.8980057 72.4146382,49.3844324 C72.2539344,50.0850197 72.0638458,50.7959 71.8491867,51.4966533 C71.7030924,51.9732851 71.8548313,52.4910888 72.2350086,52.8133258 L79.2865498,58.7942164 L75.0049901,66.2103149 L66.2899658,63.0908752 C65.8214679,62.922867 65.2966905,63.0503673 64.9566891,63.4149383 C64.4632888,63.9443632 63.9446539,64.462997 63.415228,64.9563964 C63.0508223,65.296065 62.9231558,65.8203434 63.0911643,66.2896705 L66.2107761,75.0045117 L58.7946631,79.2862291 L52.8137609,72.2348676 C52.4913573,71.8548571 51.9740506,71.7029525 51.4972518,71.8488806 C50.795501,72.0638712 50.0847854,72.2539595 49.3850268,72.4143309 C48.8987651,72.5257276 48.5255605,72.9163631 48.4364098,73.4072723 L46.7822237,82.5047803 L38.2184402,82.5047803 L36.5644201,73.4069402 C36.4752694,72.9160311 36.1020648,72.5255616 35.6158031,72.4139989 C34.9160445,72.2536274 34.2053288,72.0635392 33.5035781,71.8485485 C33.0266133,71.7024545 32.5093066,71.8545251 32.187069,72.2345356 L26.2061668,79.285897 L18.7900538,75.0041797 L21.9096656,66.2895045 C22.0776741,65.8201774 21.9500076,65.296065 21.5856018,64.9562304 C21.056176,64.462831 20.5375411,63.9441972 20.0441408,63.4147723 C19.7041394,63.0500353 19.179694,62.922701 18.7108641,63.0907092 L9.9958398,66.2101488 L5.71428012,58.7940504 L12.7658213,52.8131598 C13.1458326,52.4907568 13.2975714,51.9729531 13.1516431,51.4964873 C12.9369841,50.795734 12.7467295,50.0850197 12.5861917,49.3842664 C12.4746288,48.8978396 12.0841585,48.5248018 11.5932484,48.4356512 L2.4953906,46.7819664 L2.4953906,38.2185317 L11.5930824,36.5645148 C12.0839925,36.4751982 12.4742967,36.1023264 12.5860257,35.6158996 C12.7465634,34.9154784 12.9368181,34.2047641 13.1514771,33.5038447 C13.2975714,33.0272129 13.1458326,32.5094092 12.7656553,32.1870062 L5.7141141,26.2059496 L9.99567379,18.7898512 L18.710698,21.9092908 C19.179362,22.077133 19.7039734,21.9499647 20.0438087,21.5853937 C20.5380392,21.0551388 21.056674,20.536671 21.5852698,20.0439356 C21.9498416,19.704267 22.0775081,19.1799886 21.9094996,18.7106615 L18.7895558,9.99565429 L26.2056687,5.71393694 L32.186571,12.7652984 C32.5089746,13.1453089 33.0262813,13.2972135 33.50308,13.1512855 C34.2048308,12.9362948 34.9155465,12.7462065 35.6153051,12.5858351 C36.1015667,12.4744384 36.4747713,12.0838029 36.563922,11.5928937 L38.2181082,2.49521972 L46.7817256,2.49521972 L48.4357457,11.5930598 C48.5248965,12.0839689 48.8981011,12.4744384 49.3843627,12.5860011 C50.0841213,12.7463726 50.794837,12.9364608 51.4965878,13.1514515 C51.9735525,13.2975455 52.4908592,13.1454749 52.8130968,12.7654644 L58.7939991,5.71410296 L66.210112,9.9958203 L63.0905002,18.7108276 C62.9224917,19.1801546 63.0501583,19.704267 63.41473,20.0441016 C63.9433258,20.536671 64.4619606,21.0553048 64.9561911,21.5855597 C65.2958604,21.9499647 65.8204718,22.077299 66.2893018,21.9094569 L75.004326,18.7900172 L79.2858857,26.2061156 L72.2343445,32.1871722 C71.8543333,32.5095752 71.7025944,33.027379 71.8485227,33.5038447 C72.0631817,34.2047641 72.2536024,34.9154784 72.4139741,35.6158996 C72.525537,36.1023264 72.9160073,36.4753642 73.4069174,36.5645148 L82.5047752,38.2181996 L82.5047752,46.7818004 L82.5052733,46.7818004 Z" id="Shape" stroke="#2E3091" stroke-width="0.675" fill="#2E3091"></path>
            <path d="M43.1071429,24.2857143 C32.7290586,24.2857143 24.2857143,32.7290586 24.2857143,43.1071429 C24.2857143,53.4852272 32.7290586,61.9285714 43.1071429,61.9285714 C53.4852272,61.9285714 61.9285714,53.4852272 61.9285714,43.1071429 C61.9285714,32.7290586 53.4852272,24.2857143 43.1071429,24.2857143 Z M43.1071429,59.3965958 C34.1251915,59.3965958 26.8176899,52.0890942 26.8176899,43.1071429 C26.8176899,34.1251915 34.1251915,26.8176899 43.1071429,26.8176899 C52.0890942,26.8176899 59.3965958,34.1251915 59.3965958,43.1071429 C59.3965958,52.0890942 52.0890942,59.3965958 43.1071429,59.3965958 Z" id="Shape" stroke="#008ED3" stroke-width="0.675" fill="#008ED3"></path>
            <path d="M59.5247855,23.5299352 C59.0365075,24.0228921 59.0401851,24.8180755 59.5331435,25.3063519 C64.1559871,29.8867223 66.7020197,35.9926011 66.7020197,42.4998328 C66.7020197,55.8449401 55.8450655,66.7018604 42.4999164,66.7018604 C29.1547674,66.7018604 18.2978131,55.8449401 18.2978131,42.4998328 C18.2978131,29.1547256 29.1547674,18.2978053 42.4999164,18.2978053 C47.1490043,18.2978053 51.664029,19.6188763 55.5572138,22.1185974 C56.1407737,22.4935388 56.9180733,22.324205 57.2928488,21.7403127 C57.6674571,21.1564204 57.4982899,20.3794575 56.9143958,20.0046832 C52.6156778,17.2445257 47.6314316,15.7857143 42.5000836,15.7857143 C27.7698367,15.7857143 15.7857143,27.769632 15.7857143,42.5 C15.7857143,57.230368 27.7698367,69.2142857 42.5000836,69.2142857 C57.2303305,69.2142857 69.2142857,57.2302008 69.2142857,42.4998328 C69.2142857,35.3171047 66.4041384,28.5773525 61.3013749,23.5217443 C60.8085836,23.0336351 60.0132305,23.0371454 59.5247855,23.5299352 Z" id="Path" stroke="#008ED3" stroke-width="0.675" fill="#008ED3"></path>
        </g>
    </g>
</svg>