<?xml version="1.0" encoding="UTF-8"?>
<svg width="85px" height="85px" viewBox="0 0 85 85" version="1.1" xmlns="http://www.w3.org/2000/svg" xmlns:xlink="http://www.w3.org/1999/xlink">
    <!-- Generator: Sketch 52.4 (67378) - http://www.bohemiancoding.com/sketch -->
    <title>Process_motion</title>
    <desc>Created with Sketch.</desc>
    <g id="Process_motion" stroke="none" stroke-width="1" fill="none" fill-rule="evenodd">
        <g id="Process_and_motion-Copy" fill-rule="nonzero">
            <path d="M34.9701371,20.1231621 C35.1157744,18.854794 35.1157744,17.5739531 34.9701371,16.3054093 L31.8880358,14.9453393 C31.7125331,14.1570889 31.471151,13.3850006 31.1668761,12.6369796 L32.8651589,9.70726015 C32.2443115,8.59910698 31.5027731,7.56315593 30.6542466,6.61802846 L27.3929534,7.3648197 C26.7965253,6.84043206 26.1570561,6.36716563 25.48087,5.95046631 L25.1690409,2.54221018 C24.0355641,2.01097125 22.8449918,1.61060963 21.6208649,1.34920635 L19.3981822,3.92828002 C19.0069465,3.89490191 18.613954,3.86732105 18.21411,3.86732105 C17.8142661,3.86732105 17.4214492,3.89507758 17.0302135,3.92828002 L14.8077065,1.3495577 C13.5835796,1.61096098 12.3930073,2.0113226 11.2595305,2.54256153 L10.9477014,5.95081766 C10.271691,6.36751698 9.6320461,6.84060774 9.03561804,7.36499537 L5.77432483,6.61820413 C4.92579831,7.5633316 4.18425993,8.59928265 3.56341257,9.70743582 L5.26169535,12.6371553 C4.95724474,13.3851763 4.71603834,14.1572646 4.54053565,14.9455149 L1.45843437,16.3054093 C1.31279701,17.5737774 1.31279701,18.8546184 1.45843437,20.1231621 L4.54053565,21.4832322 C4.71621402,22.2714825 4.95742042,23.0435709 5.26169535,23.7915918 L3.5632369,26.7213113 C4.18408425,27.8294644 4.92562264,28.8654155 5.77414915,29.810543 L9.03544237,29.0637517 C9.63169475,29.588315 10.2713397,30.0614058 10.9475257,30.4781051 L11.2593548,33.8863612 C12.3928316,34.4176002 13.5834039,34.8179618 14.8075308,35.0793651 L17.0300378,32.5006428 C17.4212736,32.5340209 17.8142661,32.5616017 18.21411,32.5616017 C18.613954,32.5616017 19.0067708,32.5338452 19.3980066,32.5006428 L21.6205136,35.0793651 C22.8446404,34.8177861 24.0350371,34.4176002 25.1686896,33.8863612 L25.4805187,30.4782808 C26.156529,30.0615815 26.796174,29.5884907 27.392602,29.0641031 L30.6538952,29.8108943 C31.5024218,28.8657669 32.2439601,27.8298158 32.8648075,26.7216626 L31.1665247,23.7919432 C31.4709753,23.0439222 31.7121817,22.2718339 31.8876844,21.4835835 L34.9701371,20.1231621 Z" id="Path" fill="#FFFFFF"></path>
            <circle id="Oval" fill="#FFFFFF" cx="18.2142857" cy="18.2142857" r="8.76984127"></circle>
            <path d="M83.5590205,17.1193626 C83.6813847,16.0538522 83.6813847,14.9778938 83.5590205,13.9123834 L80.9700703,12.7698418 C80.8225603,12.1077272 80.6199776,11.4590709 80.3642701,10.8307793 L81.7908489,8.36985218 C81.2693402,7.43910218 80.64654,6.5687376 79.9337818,5.77487302 L77.1943112,6.40227927 C76.693344,5.96169593 76.1560749,5.56432093 75.5881704,5.21422718 L75.3260879,2.35132093 C74.3739138,1.90507093 73.3739273,1.56878968 72.3456076,1.34920635 L70.4786239,3.51528968 C70.1499582,3.48731052 69.8198759,3.46393552 69.484127,3.46393552 C69.148378,3.46393552 68.8182957,3.48713343 68.4896301,3.51528968 L66.6228234,1.34920635 C65.5945037,1.56878968 64.5945173,1.90507093 63.6423432,2.35132093 L63.3804377,5.21422718 C62.8125332,5.56432093 62.2752641,5.96169593 61.7742969,6.40210218 L59.0348263,5.77469593 C58.3220681,6.56856052 57.6990909,7.4389251 57.1775821,8.3696751 L58.604161,10.8306022 C58.3484534,11.4588938 58.1458707,12.1075501 57.9983608,12.7696647 L55.4092335,13.9122063 C55.2868693,14.9777168 55.2868693,16.0536751 55.4092335,17.1191855 L57.9981837,18.2617272 C58.1456937,18.9238418 58.3484534,19.572498 58.6039839,20.2007897 L57.177405,22.6617168 C57.6989138,23.5924668 58.321714,24.4628313 59.0344721,25.2566959 L61.7739427,24.6292897 C62.2749099,25.069873 62.8121791,25.467248 63.3800836,25.8173418 L63.6421661,28.680248 C64.5943402,29.126498 65.5941496,29.4627793 66.6224693,29.6825397 L68.489453,27.5164563 C68.8181186,27.5444355 69.148201,27.5678105 69.4839499,27.5678105 C69.8196989,27.5678105 70.1497812,27.5446126 70.4784468,27.5164563 L72.3452535,29.6825397 C73.3735732,29.4627793 74.3735596,29.1266751 75.3257337,28.6804251 L75.5876392,25.8175188 C76.1555436,25.4676022 76.6928128,25.0702272 77.19378,24.6296438 L79.9332506,25.2570501 C80.6460088,24.4631855 81.268986,23.5928209 81.7904948,22.6620709 L80.3639159,20.2011438 C80.6196234,19.5728522 80.8222061,18.9241959 80.9697161,18.2620813 L83.5590205,17.1193626 Z" id="Path" fill="#FFFFFF"></path>
            <circle id="Oval" fill="#FFFFFF" cx="68.8095238" cy="16.1904762" r="5.3968254"></circle>
            <path d="M83.4913596,66.4702868 C83.7039383,64.8886169 83.7039383,63.2858116 83.4913596,61.7041417 L80.5737726,61.0910372 C80.4090546,60.1862277 80.1692267,59.2967895 79.8570835,58.4316309 L82.0925668,56.4289976 C81.4632148,54.9687259 80.657791,53.5909002 79.6941122,52.3260883 L76.8738189,53.2523826 C76.2778298,52.5498452 75.6252461,51.8974392 74.9227056,51.3014527 L75.8491787,48.4809973 C74.5843612,47.5171481 73.2063547,46.7115533 71.7459018,46.0822041 L69.7430848,48.3175028 C68.8779224,48.005361 67.9883055,47.7657087 67.083492,47.6008168 L66.4702101,44.6832429 C64.8885332,44.4706651 63.2857206,44.4706651 61.7040437,44.6832429 L61.0909365,47.6008168 C60.186123,47.7657087 59.2966808,48.005361 58.4315183,48.3175028 L56.428876,46.0820295 C54.9685978,46.7113786 53.590766,47.5167988 52.3259484,48.4804733 L53.2522469,51.300754 C52.5497064,51.8967405 51.8972974,52.5493212 51.3013083,53.2518586 L48.4808403,52.3253896 C47.5169868,53.5902015 46.711563,54.9682019 46.0822111,56.4284736 L48.3175197,58.4312816 C48.0053765,59.2964402 47.7657232,60.186053 47.6008305,61.0908625 L44.6832436,61.7041417 C44.4706648,63.2858116 44.4706648,64.8886169 44.6832436,66.4702868 L47.6008305,67.0833913 C47.7655485,67.9882008 48.0053765,68.8778137 48.3175197,69.7427976 L46.0820364,71.7454309 C46.7113884,73.2057026 47.5168121,74.5835283 48.480491,75.8483402 L51.3007842,74.9220459 C51.8967734,75.6245833 52.549357,76.2769893 53.2518976,76.8729758 L52.3254244,79.6934312 C53.5902419,80.6572804 54.9682485,81.4628752 56.4287014,82.0922244 L58.4315183,79.8569257 C59.2966808,80.1690675 60.1862976,80.4088944 61.0911112,80.5737864 L61.7043931,83.4913603 C63.28607,83.7039381 64.8888825,83.7039381 66.4705595,83.4913603 L67.0836667,80.5737864 C67.9884802,80.4088944 68.8779224,80.1692422 69.7430848,79.8571004 L71.7457271,82.0925737 C73.2060053,81.4632246 74.5838372,80.6578044 75.8486547,79.6941299 L74.9223562,76.8738492 C75.6248968,76.2778627 76.2773058,75.625282 76.8732949,74.9227446 L79.6937629,75.8492136 C80.6576164,74.5844017 81.4632148,73.2064013 82.0925668,71.7459549 L79.8572581,69.7431469 C80.1694013,68.8779883 80.4090546,67.9883755 80.5739473,67.083566 L83.4913596,66.4702868 Z" id="Path" fill="#FFFFFF"></path>
            <polygon id="Path" fill="#FFFFFF" points="28.3333333 58.015873 28.3333333 66.1111111 37.7777778 62.0634921"></polygon>
            <path d="M0.839751522,15.0293751 C0.329134843,15.2537231 -0.000175913692,15.7563608 2.82539301e-07,16.3113638 L2.82539301e-07,20.1177493 C-0.000352109924,20.6727523 0.328958647,21.17539 0.839751522,21.399738 L3.29962711,22.4780446 C3.41115932,22.8885612 3.53220614,23.2770107 3.66717245,23.6519749 L2.30024208,25.9916042 C2.05110061,26.4194592 2.0468719,26.9459152 2.28931792,27.3776231 C2.96273992,28.5725697 3.76689952,29.6899314 4.68717243,30.7093926 C5.02881693,31.0904865 5.55247213,31.255814 6.05269323,31.1404 L8.64048728,30.5519462 C8.94195903,30.7913558 9.2566455,31.0221838 9.58472288,31.2442551 L9.83527393,33.9670799 C9.88178973,34.4646387 10.1911903,34.8998493 10.6473624,35.109486 C11.8809122,35.6837538 13.1763069,36.1161623 14.5085266,36.3983049 C15.0110382,36.5039113 15.5313457,36.3287763 15.8657661,35.9413775 L17.6717775,33.8576205 L18.7564415,33.8576205 L20.5624529,35.9413775 C20.830095,36.2508412 21.2201934,36.4287784 21.6307306,36.4284281 C21.7278148,36.4286033 21.8247227,36.4184454 21.9198687,36.3983049 C23.2520884,36.1159872 24.5474831,35.6835787 25.7810329,35.109486 C26.2377335,34.899499 26.5471341,34.4635878 26.5931213,33.9656789 L26.8436723,31.2442551 C27.1699878,31.0225341 27.4864362,30.7913558 27.787908,30.5519462 L30.3758782,31.1402249 C30.8760993,31.2561643 31.4001069,31.0906616 31.741399,30.7092175 C32.6618481,29.6899314 33.4660077,28.5725697 34.1392535,27.377448 C34.3815233,26.9457401 34.3772946,26.4192841 34.1283293,25.9914291 L32.761399,23.6517998 C32.8963653,23.2768356 33.0174121,22.888386 33.1289443,22.4778694 L35.5888199,21.399738 C36.0994366,21.17539 36.4287473,20.6727523 36.4285711,20.1177493 L36.4285711,16.3115389 C36.4289235,15.7565359 36.0996128,15.2538983 35.5888199,15.0295503 L33.1289443,13.9512437 C33.0174121,13.5407271 32.8963653,13.1522775 32.761399,12.7773133 L34.1283293,10.437684 C34.3774708,10.009829 34.3816995,9.48337304 34.1394297,9.05166511 C33.4660077,7.85671856 32.6618481,6.73918171 31.7415752,5.71989564 C31.4004593,5.33792606 30.8762755,5.17259856 30.3760544,5.28888824 L27.7882603,5.87734206 C27.4867886,5.63793243 27.1721021,5.40710441 26.8440247,5.18503315 L26.5934737,2.4622083 C26.5469579,1.96464958 26.2375573,1.52943895 25.7813853,1.31980227 C24.5478355,0.745534398 23.2524408,0.313125923 21.9202211,0.0309833339 C21.4177094,-0.0753236503 20.8970495,0.0999865494 20.5629815,0.487910717 L18.7569701,2.57184285 L17.6723061,2.57184285 L15.8661185,0.487735582 C15.5324029,0.0994611442 15.0113906,-0.0760241906 14.508879,0.0308081988 C13.1766593,0.313125923 11.8812646,0.745534398 10.6477147,1.31962714 C10.1910141,1.52961408 9.88161353,1.96552526 9.83562632,2.46343425 L9.58507528,5.18485802 C9.25875986,5.40657901 8.94231142,5.63775729 8.64083967,5.87716693 L6.05269323,5.28888824 C5.55247213,5.17224829 5.02811214,5.33775093 4.68717243,5.71989564 C3.76672332,6.73918171 2.96256372,7.85654343 2.28931792,9.05166511 C2.0470481,9.48337304 2.05127681,10.009829 2.30041828,10.437684 L3.66734865,12.7773133 C3.53238233,13.1522775 3.41133552,13.5407271 3.29980331,13.9512437 L0.839751522,15.0293751 Z M5.06987065,16.2376319 C5.47635535,16.0586439 5.77430318,15.699617 5.87385405,15.2689599 C6.03190207,14.5591375 6.2502092,13.8638513 6.5263087,13.1906321 C6.6943999,12.7871209 6.66391795,12.3289676 6.44367266,11.9510261 L5.15391625,9.74134699 C5.49062725,9.20981207 5.85887737,8.69859282 6.25637607,8.21031626 L8.69281756,8.7644436 C9.13577489,8.86689761 9.60110913,8.74973226 9.94134406,8.44972589 C10.4810331,7.9787877 11.0593091,7.55355976 11.6701815,7.17859559 C12.0461842,6.94706704 12.2909208,6.55336341 12.3309173,6.11552575 L12.5677251,3.544543 C13.1303197,3.31756796 13.7057765,3.12334317 14.2911004,2.96309459 L15.958093,4.88677814 C16.2259112,5.19589152 16.6158335,5.37365361 17.0263707,5.37382875 L19.4022007,5.37382875 C19.8125617,5.37365361 20.202484,5.19589152 20.4704785,4.88677814 L22.137471,2.96309459 C22.7233235,3.12334317 23.2991328,3.31756796 23.8622559,3.544543 L24.0990637,6.11815277 C24.1399412,6.5552899 24.3845015,6.94829298 24.7597995,7.17982154 C25.3706719,7.5537349 25.9485955,7.97861257 26.4874036,8.44955075 C26.8274623,8.74955712 27.2929727,8.86689761 27.7359301,8.76426847 L30.1723716,8.21014112 C30.5700464,8.69841768 30.9382966,9.20963694 31.2750076,9.74117186 L29.9852512,11.950851 C29.7651821,12.3287924 29.7345239,12.7869458 29.9026151,13.190457 C30.1787146,13.8636761 30.3970217,14.5589623 30.5550698,15.2687848 C30.6546206,15.6994419 30.9523923,16.0584688 31.3590532,16.2374568 L33.6096076,17.2239926 L33.6096076,19.2052956 L31.3590532,20.1918314 C30.9525685,20.3708195 30.6546206,20.7298464 30.5550698,21.1605035 C30.3970217,21.8703259 30.1787146,22.5656121 29.9026151,23.2388313 C29.7345239,23.6423425 29.7650059,24.1004958 29.9852512,24.4784373 L31.2750076,26.6881164 C30.9382966,27.2196513 30.5700464,27.7308706 30.1723716,28.2191471 L27.7359301,27.6650198 C27.2929727,27.5616901 26.8272861,27.6790306 26.4874036,27.9797375 C25.9477145,28.4506757 25.3694385,28.8759036 24.7585661,29.2508678 C24.3825634,29.4823963 24.1378268,29.8761 24.0978303,30.3139376 L23.8610225,32.8849204 C23.298428,33.1118954 22.7229711,33.3061202 22.1376472,33.4663688 L20.4706547,31.5426852 C20.2028364,31.2335719 19.8129141,31.0558098 19.4023769,31.0556346 L17.0263707,31.0556346 C16.6160097,31.0558098 16.2260874,31.2335719 15.958093,31.5426852 L14.2911004,33.4663688 C13.705248,33.3061202 13.1294387,33.1118954 12.5663155,32.8849204 L12.3295078,30.3113106 C12.2886303,29.8741735 12.0440699,29.4811704 11.6687719,29.2496418 C11.0578996,28.8757285 10.4799759,28.4508508 9.94116786,27.9799126 C9.60128533,27.6793808 9.13559869,27.5620404 8.69264136,27.6651949 L6.25619987,28.2193223 C5.85852498,27.7310457 5.49045105,27.2198264 5.15356386,26.6882915 L6.44332027,24.4786124 C6.66338937,24.1006709 6.69404751,23.6425176 6.5259563,23.2390064 C6.24985681,22.5657872 6.03154968,21.870501 5.87350166,21.1606786 C5.77395079,20.7300215 5.47617916,20.3709946 5.06951826,20.1920066 L2.81896379,19.2054707 L2.81896379,17.2241678 L5.06987065,16.2376319 Z" id="Shape" fill="#2E3091"></path>
            <path d="M18.2142857,28.3333333 C23.8028912,28.3333333 28.3333333,23.8028912 28.3333333,18.2142857 C28.3333333,12.6256803 23.8028912,8.0952381 18.2142857,8.0952381 C12.6256803,8.0952381 8.0952381,12.6256803 8.0952381,18.2142857 C8.10192389,23.8 12.6283907,28.3266475 18.2142857,28.3333333 Z M18.2142857,10.9863946 C22.2060693,10.9863946 25.4421769,14.2225021 25.4421769,18.2142857 C25.4421769,22.2060693 22.2060693,25.4421769 18.2142857,25.4421769 C14.2225021,25.4421769 10.9863946,22.2060693 10.9863946,18.2142857 C10.9910927,14.2243091 14.2243091,10.9910927 18.2142857,10.9863946 Z" id="Shape" fill="#80C242"></path>
            <path d="M54.8147826,12.6291341 C54.3000905,12.8542801 53.9678995,13.3606384 53.9682543,13.919713 L53.9682543,17.1124852 C53.9678995,17.6715598 54.3000905,18.177918 54.8147826,18.4030641 L56.7740531,19.2625685 C56.8503169,19.5353179 56.9333204,19.7969598 57.0219992,20.051902 L55.9301852,21.9225362 C55.6794014,22.353787 55.6751448,22.8841232 55.9190116,23.3192528 C56.4932959,24.3360245 57.1782513,25.287033 57.961463,26.1553528 C58.3050048,26.5393529 58.8324667,26.7059645 59.3359852,26.5892483 L61.3949308,26.1195622 C61.5972959,26.2778873 61.8064006,26.4309231 62.019762,26.5783171 L62.2192894,28.7518494 C62.2650477,29.2534474 62.5768425,29.6924558 63.036731,29.9033208 C64.0884622,30.3916956 65.1923366,30.7600043 66.3276032,31.0011944 C66.8334274,31.1076848 67.3573421,30.9313762 67.6937896,30.5412053 L69.1376587,28.8745602 L69.8304179,28.8745602 L71.274287,30.5412053 C71.5436933,30.8527426 71.9363633,31.0318721 72.3494294,31.0315195 C72.4471535,31.0316958 72.5447002,31.0214699 72.6404734,31.0011944 C73.7755627,30.7600043 74.8796144,30.3918719 75.9313456,29.9033208 C76.3914115,29.6924558 76.7030289,29.2532711 76.7487872,28.7518494 L76.9483147,26.5783171 C77.161676,26.4309231 77.3695392,26.2784162 77.5719043,26.1209726 L79.6336877,26.5892483 C80.1368515,26.7052593 80.6634265,26.538824 81.006791,26.1553528 C81.7898253,25.287033 82.4747807,24.3360245 83.0492423,23.3192528 C83.2931092,22.8841232 83.2888526,22.353787 83.0380688,21.9225362 L81.9462548,20.0520783 C82.0349336,19.7973124 82.1181144,19.5354942 82.1942008,19.2627448 L84.1534714,18.4032404 C84.6681635,18.1780943 85.0003544,17.6717361 84.9999997,17.1126615 L84.9999997,13.919713 C85.0003544,13.3606384 84.6681635,12.8542801 84.1534714,12.6291341 L82.1942008,11.7696297 C82.117937,11.4968803 82.0349336,11.2352384 81.9462548,10.9802961 L83.0380688,9.1098383 C83.2888526,8.67858749 83.2931092,8.14825125 83.0492423,7.71312165 C82.4749581,6.69635001 81.7900026,5.74534148 81.006791,4.87702167 C80.6636038,4.49319787 80.1368515,4.32658625 79.6336877,4.44312623 L77.5719043,4.91140184 C77.3695392,4.75431089 77.161676,4.60198027 76.9483147,4.45405736 L76.7487872,2.28052506 C76.7030289,1.77910343 76.3914115,1.33991873 75.9313456,1.12905366 C74.8796144,0.640678862 73.77574,0.272370217 72.6404734,0.0311800654 C72.1346492,-0.0761918661 71.6102025,0.100293033 71.274287,0.491169177 L69.8304179,2.15781428 L69.1376587,2.15781428 L67.6937896,0.491169177 C67.3580515,0.0999404156 66.8334274,-0.0767207918 66.3276032,0.0311800654 C65.1925139,0.272370217 64.0884622,0.640502553 63.036731,1.12905366 C62.5766652,1.33991873 62.2650477,1.77910343 62.2192894,2.28052506 L62.019762,4.45405736 C61.8064006,4.60145134 61.5985374,4.75395827 61.3961723,4.91140184 L59.3345663,4.44312623 C58.8314025,4.32729148 58.3050048,4.49372679 57.961463,4.87702167 C57.178074,5.74516517 56.4936506,6.69687894 55.9204305,7.71453212 C55.6765637,8.1491328 55.6808202,8.67911642 55.9314267,9.1098383 L57.0218218,10.9788857 C56.933143,11.2336516 56.8504943,11.4972329 56.7738758,11.7694534 L54.8147826,12.6291341 Z M56.8058002,14.838457 L58.5531283,14.0725725 C58.9642434,13.892914 59.2650421,13.530071 59.363653,13.0945888 C59.4934788,12.5127704 59.6724327,11.9427647 59.8985638,11.3907425 C60.0677631,10.9845275 60.0370802,10.5233043 59.8153831,10.1428303 L58.8065724,8.41289045 C59.0337676,8.06168374 59.2804722,7.71735306 59.5450899,7.38395351 L61.4461871,7.81643849 C61.8911776,7.91869747 62.3583378,7.80074702 62.7001061,7.49961195 C63.1420815,7.11420137 63.6156266,6.76634452 64.11613,6.45974388 C64.4956755,6.22666393 64.7430895,5.82979329 64.7840591,5.38814027 L64.9683338,3.37434355 C65.3492981,3.2255391 65.7318587,3.0961286 66.1128231,2.98858036 L67.4125003,4.48861384 C67.682084,4.79979851 68.0745766,4.97875173 68.4876427,4.97892803 L70.4800792,4.97892803 C70.8931453,4.97875173 71.2858152,4.79979851 71.5553989,4.48861384 L72.8550762,2.98858036 C73.2360405,3.09595229 73.6186011,3.2255391 73.9995655,3.37434355 L74.1838401,5.38814027 C74.2248097,5.82979329 74.4722237,6.22666393 74.8517692,6.45974388 C75.3522727,6.76634452 75.8258177,7.11420137 76.2677931,7.49961195 C76.6093841,7.80109964 77.076899,7.91922639 77.5217121,7.81643849 L79.4228093,7.38395351 C79.687427,7.71735306 79.9341316,8.06062588 80.1627457,8.41430092 L79.1526936,10.1444171 C78.9311738,10.52542 78.9003135,10.9871722 79.0695128,11.3937398 C79.2958212,11.9447041 79.4747752,12.5138283 79.6044236,13.0947651 C79.7032119,13.5302473 80.0040105,13.8930904 80.4149483,14.0727488 L82.1622764,14.8386333 L82.1622764,16.1940938 L80.4149483,16.9599783 C80.0038332,17.1396367 79.7030345,17.5024798 79.6044236,17.937962 C79.4747752,18.5190752 79.2958212,19.088023 79.0695128,19.6389873 C78.9003135,20.0455549 78.9309964,20.5073071 79.1526936,20.88831 L80.1627457,22.6184262 C79.9341316,22.9710434 79.687427,23.3144925 79.4228093,23.6487736 L77.5217121,23.2162886 C77.0767216,23.1127955 76.6090294,23.2309222 76.2677931,23.5331151 C75.8258177,23.9185257 75.3522727,24.2663826 74.8517692,24.5729832 C74.4722237,24.8060632 74.2248097,25.2029338 74.1838401,25.6445868 L73.9995655,27.6583835 C73.6186011,27.807188 73.2360405,27.9365985 72.8550762,28.0441467 L71.5553989,26.5441133 C71.2858152,26.2329286 70.8933226,26.0539754 70.4802565,26.0537991 L68.4878201,26.0537991 C68.074754,26.0539754 67.6822614,26.2331049 67.4126777,26.5441133 L66.1130004,28.0441467 C65.7320361,27.9367748 65.3494755,27.807188 64.9685112,27.6583835 L64.7842365,25.6445868 C64.7432669,25.2029338 64.4960302,24.8060632 64.1163074,24.5729832 C63.6159813,24.2667352 63.1427909,23.918702 62.701525,23.5331151 C62.3579831,23.2330379 61.8908229,23.1147349 61.4447683,23.2148781 L59.5450899,23.6473631 C59.2804722,23.315374 59.0337676,22.9710434 58.8051536,22.6184262 L59.8152057,20.88831 C60.0367255,20.5073071 60.0675857,20.0455549 59.8983865,19.6389873 C59.672078,19.088023 59.4931241,18.5188988 59.3634756,17.937962 C59.2646874,17.5024798 58.9638887,17.1396367 58.5529509,16.9599783 L56.8056228,16.1940938 L56.8058002,14.838457 Z" id="Shape" fill="#2E3091"></path>
            <path d="M69.484127,22.9365079 C73.5823581,22.9365079 76.9047619,19.6141042 76.9047619,15.515873 C76.9047619,11.4176419 73.5823581,8.0952381 69.484127,8.0952381 C65.3858958,8.0952381 62.0634921,11.4176419 62.0634921,15.515873 C62.0683155,19.612249 65.387751,22.9316845 69.484127,22.9365079 Z M69.484127,10.7936508 C72.092171,10.7936508 74.2063492,12.907829 74.2063492,15.515873 C74.2063492,18.123917 72.092171,20.2380952 69.484127,20.2380952 C66.876083,20.2380952 64.7619048,18.123917 64.7619048,15.515873 C64.7646594,12.9090096 66.8772636,10.7964054 69.484127,10.7936508 Z" id="Shape" fill="#008ED3"></path>
            <path d="M66.4826602,85 C67.1469791,84.9998244 67.7203338,84.5346412 67.8573068,83.8845437 L68.2854351,81.848555 C68.6380527,81.7647904 68.9906703,81.6701382 69.3404781,81.5645983 L70.7398853,83.125921 C71.1404434,83.5752996 71.7835139,83.7182438 72.3368495,83.4811742 C73.9095801,82.8035064 75.3938051,81.9368853 76.7572129,80.9006278 C77.2378475,80.5387016 77.4347023,79.9109062 77.2469791,79.3393051 L76.6021525,77.3760177 C76.8669669,77.1263044 77.1261619,76.8671083 77.3758741,76.6022928 L79.3377484,77.2471221 C79.9086447,77.4334412 80.534857,77.2372881 80.8976597,76.7587588 C81.935669,75.3955208 82.80334,73.9107628 83.481005,72.336972 C83.7170199,71.7834584 83.5740763,71.1412632 83.1257533,70.740001 L81.5632079,69.340588 C81.6701521,68.9907787 81.764804,68.6381596 81.8485682,68.2855405 L83.8845484,67.8574104 C84.5344675,67.7204369 84.9998244,67.1470797 85,66.482758 L85,61.6920207 C84.9998244,61.0276991 84.5346431,60.4543419 83.8845484,60.3173683 L81.8485682,59.8892382 C81.764804,59.5366192 81.6701521,59.1840001 81.5646127,58.8341908 L83.1259289,57.4347778 C83.5742519,57.0335156 83.7171955,56.3913204 83.4811806,55.8378068 C82.8035156,54.2650696 81.9368982,52.7808384 80.9006451,51.4174249 C80.5378423,50.9380175 79.9111032,50.7413375 79.3393289,50.9276567 L77.3760497,51.5724859 C77.1263375,51.3076704 76.8671425,51.0484744 76.6023281,50.7987611 L77.2471547,48.8368785 C77.4348779,48.2659798 77.2385499,47.6388869 76.7587934,47.2769607 C75.3955612,46.2389471 73.9108094,45.3712724 72.3370251,44.6936046 C71.7833383,44.4600472 71.1425506,44.6026401 70.7400609,45.0488578 L69.3406538,46.6114097 C68.9908459,46.504465 68.6382283,46.4098128 68.2856107,46.3260482 L67.8574824,44.2900595 C67.7205094,43.6401376 67.1471547,43.1747788 66.4828358,43.1746032 L61.691943,43.1746032 C61.0276241,43.1747788 60.4542693,43.639962 60.3172964,44.2900595 L59.8891681,46.3260482 C59.5365505,46.4098128 59.1839329,46.504465 58.834125,46.6100049 L57.4347179,45.0486822 C57.0324037,44.6022889 56.3914405,44.4596959 55.8377536,44.693429 C54.2650231,45.3710968 52.7807981,46.2377178 51.4173903,47.2739753 C50.9367557,47.6359016 50.7399009,48.263697 50.9276241,48.8352981 L51.5724507,50.7985855 C51.3076363,51.0482988 51.0484413,51.3074948 50.798729,51.5723103 L48.8368548,50.9274811 C48.2659585,50.7425668 47.6404486,50.9383687 47.2769434,51.4158444 C46.2389342,52.7790823 45.3712632,54.2638404 44.6935982,55.8376312 C44.4575833,56.3911448 44.6005268,57.03334 45.0488499,57.4346022 L46.6113953,58.8340152 C46.504451,59.1838245 46.4097992,59.5364436 46.326035,59.8890626 L44.2900548,60.3171927 C43.6401356,60.4541663 43.1747788,61.0275235 43.1746032,61.6918451 L43.1746032,66.4825824 C43.1747788,67.1469041 43.63996,67.7202613 44.2900548,67.8572348 L46.326035,68.2853649 C46.4097992,68.637984 46.504451,68.9906031 46.6099905,69.3404124 L45.0486743,70.7398254 C44.6003512,71.1410876 44.4574077,71.7832828 44.6934226,72.3367964 C45.3710876,73.9095336 46.237705,75.3937648 47.2739581,76.7571783 C47.6367609,77.2365857 48.2635,77.4332656 48.8352743,77.2469465 L50.7985534,76.6021172 C51.0482657,76.8669327 51.3074607,77.1261288 51.5722751,77.3758421 L50.9274485,79.3377246 C50.7397253,79.9086233 50.9360532,80.5357163 51.4158098,80.8976425 C52.779042,81.9356561 54.2637938,82.8033308 55.837578,83.4809986 C56.3909137,83.7182438 57.0339842,83.575124 57.4345423,83.1257454 L58.8339494,81.5631934 C59.1837573,81.6701382 59.5363749,81.7647904 59.8889925,81.848555 L60.3171208,83.8845437 C60.4540937,84.5344656 61.0274485,84.9998244 61.6917674,85 L66.4826602,85 Z M58.8753925,78.6191404 C58.3369834,78.4287823 57.7367609,78.580858 57.353939,79.004598 L56.0340816,80.4781172 C55.3021542,80.1116251 54.5953386,79.6968412 53.9185517,79.236575 L54.529135,77.3804079 C54.7075511,76.8365527 54.5387934,76.2387861 54.1024116,75.8686064 C53.4542485,75.320361 52.8526211,74.7192579 52.3038512,74.0714433 C51.9327949,73.6369913 51.3366113,73.4691109 50.7932853,73.6461229 L48.9385308,74.2567088 C48.4779154,73.579919 48.0631331,72.8732761 47.6969939,72.14117 L49.1705068,70.8200778 C49.5970547,70.438308 49.749481,69.8359756 49.5559628,69.2972131 C49.2679684,68.5017129 49.0472312,67.6833838 48.8960341,66.8510061 C48.794358,66.2885366 48.3620152,65.8435482 47.8025333,65.7260671 L45.9846562,65.3432436 L45.9846562,62.8325889 L47.8025333,62.4497654 C48.3620152,62.3321086 48.794358,61.8872958 48.8960341,61.3248263 C49.047758,60.4915706 49.2684952,59.6725391 49.5559628,58.8758097 C49.749481,58.3373983 49.5968791,57.7355928 49.1705068,57.3543497 L47.6969939,56.0346624 C48.0634843,55.302732 48.4782666,54.5959134 48.9385308,53.9191236 L50.7946901,54.5297095 C51.338543,54.7072483 51.9357803,54.5386655 52.3064853,54.1029843 C52.8547284,53.4548185 53.4558289,52.8531885 54.1036408,52.3044163 C54.538969,51.9338854 54.7070243,51.3369968 54.5289594,50.7938441 L53.9183761,48.9390819 C54.595163,48.4784644 55.301803,48.0636805 56.033906,47.6975397 L57.3549926,49.1710588 C57.7372877,49.5967305 58.3390907,49.7489818 58.877851,49.5565164 C59.6733478,49.2685208 60.4916735,49.0477827 61.3240477,48.8965849 C61.8865148,48.7949084 62.3315014,48.3625638 62.448982,47.8030795 L62.8318039,45.9851948 L65.3424481,45.9851948 L65.7252699,47.8030795 C65.8429262,48.3625638 66.2877371,48.7949084 66.8502043,48.8965849 C67.6834565,49.0483095 68.5024846,49.2690476 69.299035,49.5565164 C69.8374442,49.749333 70.4388959,49.5969061 70.8204886,49.1710588 L72.140346,47.6975397 C72.8722733,48.0640317 73.5790889,48.4788157 74.2558759,48.9390819 L73.6452925,50.7952489 C73.4668765,51.3391041 73.6356342,51.9368707 74.072016,52.3070504 C74.7201791,52.8552958 75.3218065,53.4563989 75.8705764,54.1042135 C76.242335,54.5372606 76.8378162,54.7049654 77.3811423,54.5295339 L79.2358967,53.918948 C79.6965122,54.5957378 80.1112944,55.3023808 80.4774337,56.0344868 L79.0039207,57.355579 C78.5773729,57.7373488 78.4249465,58.3396812 78.6184648,58.8784438 C78.9064592,59.6739439 79.1271964,60.492273 79.2783935,61.3246507 C79.3800696,61.8871202 79.8124124,62.3321086 80.3718943,62.4495898 L82.1897714,62.8324132 L82.1897714,65.343068 L80.3720699,65.7257158 C79.812588,65.8433726 79.3802452,66.2881854 79.2785691,66.8506549 C79.1268452,67.6839106 78.906108,68.5029421 78.6186404,69.2996716 C78.4251221,69.8380829 78.5777241,70.4398885 79.0040963,70.8211315 L80.4776093,72.1409944 C80.1111188,72.8729248 79.6963366,73.5797434 79.2360723,74.2565332 L77.3799131,73.6459473 C76.8360602,73.4684085 76.2388229,73.6369913 75.8681179,74.0726725 C75.3198748,74.7208384 74.7187742,75.3224683 74.0709624,75.8712405 C73.6356342,76.2417715 73.4675789,76.83866 73.6456438,77.3818128 L74.2562271,79.236575 C73.5794402,79.6971924 72.8728001,80.1119764 72.1406972,80.4781172 L70.8196105,79.004598 C70.4369643,78.5794532 69.8355125,78.4272018 69.2967522,78.6191404 C68.5012553,78.907136 67.6829297,79.1278742 66.8505555,79.2790719 C66.2880883,79.3807484 65.8431018,79.8130931 65.7256212,80.3725773 L65.3427993,82.190462 L62.8321551,82.190462 L62.4493332,80.3725773 C62.331677,79.8130931 61.8868661,79.3807484 61.3243989,79.2790719 C60.4911467,79.1273473 59.671943,78.9066092 58.8753925,78.6191404 Z" id="Shape" fill="#2E3091"></path>
            <path d="M76.9047619,64.0873016 C76.9047619,57.0085031 71.1661001,51.2698413 64.0873016,51.2698413 C57.0085031,51.2698413 51.2698413,57.0085031 51.2698413,64.0873016 C51.2698413,71.1661001 57.0085031,76.9047619 64.0873016,76.9047619 C71.1628957,76.897107 76.896929,71.1630737 76.9047619,64.0873016 Z M54.1181658,64.0873016 C54.1181658,58.5814903 58.5814903,54.1181658 64.0873016,54.1181658 C69.5931129,54.1181658 74.0564374,58.5814903 74.0564374,64.0873016 C74.0564374,69.5931129 69.5931129,74.0564374 64.0873016,74.0564374 C58.5841606,74.0498506 54.1247525,69.5902646 54.1181658,64.0873016 Z" id="Shape" fill="#008ED3"></path>
            <polygon id="Path" fill="#2E3091" points="40.4761905 16.1904762 51.2698413 16.1904762 51.2698413 18.8888889 40.4761905 18.8888889 40.4761905 16.1904762"></polygon>
            <path d="M38.2727915,60.5077108 L28.4178195,56.2673483 C27.703862,55.9595686 26.8765723,56.2912003 26.5700122,57.0079983 C26.4945161,57.1843267 26.4558002,57.3742596 26.4559761,57.566136 L26.4559761,60.3930443 L9.56173837,60.3930443 L9.56173837,37.7777778 L6.74603175,37.7777778 L6.74603208,61.8064984 C6.74550413,62.5867251 7.37516645,63.2194226 8.15230139,63.2199526 C8.15282934,63.2199526 8.15335728,63.2199526 8.15388522,63.2199526 L26.4559761,63.2199526 L26.4559761,66.0468609 C26.4554482,66.8269109 27.0849345,67.459785 27.8618935,67.4603151 C27.8625974,67.4603151 27.8631254,67.4603151 27.8638293,67.4603151 C28.0544174,67.4606684 28.2430697,67.4217984 28.4178195,67.3458253 L38.2727915,63.1054628 C38.987277,62.7987433 39.3188264,61.9685156 39.0133223,61.251011 C38.8709531,60.9170824 38.6057488,60.650823 38.2727915,60.5077108 Z M29.2716824,63.9033577 L29.2716824,59.7099926 L34.1442622,61.8066751 L29.2716824,63.9033577 Z" id="Shape" fill="#2E3091"></path>
            <path d="M67.9702122,58.015873 L61.8490899,65.3039928 L58.6800462,62.1601049 L56.6666667,64.1576145 L60.9383347,68.3956121 C61.204958,68.6610167 61.5673378,68.8098763 61.9450245,68.8095232 C61.9658489,68.8095232 61.9880971,68.8095232 62.0089215,68.8081105 C62.4088564,68.7902756 62.7826274,68.606629 63.0392834,68.3018464 L70.1587302,59.8258512 L67.9702122,58.015873 Z" id="Path" fill="#80C242"></path>
        </g>
    </g>
</svg>