<?xml version="1.0" encoding="UTF-8"?>
<svg width="85px" height="85px" viewBox="0 0 85 85" version="1.1" xmlns="http://www.w3.org/2000/svg" xmlns:xlink="http://www.w3.org/1999/xlink">
    <!-- Generator: Sketch 52.4 (67378) - http://www.bohemiancoding.com/sketch -->
    <title>scada_hmi</title>
    <desc>Created with Sketch.</desc>
    <g id="scada_hmi" stroke="none" stroke-width="1" fill="none" fill-rule="evenodd">
        <g id="Group-2">
            <g id="home-copy" transform="translate(14.655173, 13.189656)">
                <g id="Group" transform="translate(9.757172, 49.321939)" fill="#FFFFFF">
                    <g>
                        <rect id="Rectangle" x="8.47610012" y="1.43588123" width="3.08501961" height="4.09540936"></rect>
                        <path d="M6.41950071,5.53129059 L3.33448112,5.53129059 C1.63073083,5.53129059 0.249461502,6.90654568 0.249461502,8.6028776 L0.249461502,9.62669994 L3.33448112,9.62669994 L3.33448112,8.6028776 C3.33448112,6.90654568 4.71562994,5.53129059 6.41950071,5.53129059 Z" id="Path"></path>
                    </g>
                </g>
                <g id="Group" transform="translate(0.000000, 0.553025)">
                    <g>
                        <path d="M3.83659436,3.17744448 C3.26863743,3.17744448 2.80829466,3.63590283 2.80829466,4.20126683 L2.80829466,6.51827529 L1.09393962,8.04590989 C0.677100448,8.424459 0.644442624,9.06673265 1.02079091,9.48535635 C1.3971392,9.90386009 2.04186009,9.94237491 2.46568876,9.57150478 L10.0065131,2.8508484 L17.5473374,9.57150478 C17.8204098,9.81951142 18.2062783,9.90254026 18.5578018,9.78891554 C18.9094459,9.67529081 19.1726366,9.38253018 19.2473519,9.02197866 C19.3220672,8.66154712 19.1967383,8.28887723 18.9190866,8.04590989 L10.9905861,0.981259763 C10.4168448,0.493285374 9.56991049,0.499884487 9.0038817,0.996617699 L4.86489406,4.68456184 L4.86489406,4.20126683 C4.86489406,3.63578286 4.40443078,3.17744448 3.83659436,3.17744448 Z" id="Path" fill="#80C242"></path>
                        <path d="M17.2049726,10.4147171 C17.2049726,9.84923314 16.7445092,9.39089477 16.1766728,9.39089477 C15.6087158,9.39089477 15.1483731,9.84935313 15.1483731,10.4147171 L15.1483731,17.5817134 L4.86489406,17.5817134 L4.86489406,10.4147171 C4.86489406,9.84923314 4.40443078,9.39089477 3.83659436,9.39089477 C3.26863743,9.39089477 2.80829466,9.84935313 2.80829466,10.4147171 L2.80829466,18.2319061 C2.81841737,19.013601 3.46289726,19.6391968 4.24801064,19.6294781 L15.765377,19.6294781 C16.5509725,19.6373972 17.1948498,19.0109614 17.2050929,18.2287864 L17.2050929,10.4147171 L17.2049726,10.4147171 Z" id="Path" fill="#80C242"></path>
                        <path d="M10.0066336,26.0737945 C6.03105557,26.0737945 2.80829466,29.2826431 2.80829466,33.240791 C2.80829466,37.1989387 6.03117608,40.4077873 10.0066336,40.4077873 C13.9820911,40.4077873 17.2049726,37.1989387 17.2049726,33.240791 C17.2003932,29.2844428 13.9802834,26.078234 10.0066336,26.0737945 Z M8.97821337,28.2239055 L8.97821337,32.660309 L5.17339602,34.9322035 C4.97419535,34.3901165 4.86983491,33.8180332 4.86489406,33.240791 C4.86802729,30.8089578 6.58587707,28.7136795 8.97821337,28.2239055 Z M6.23254592,36.6881673 L9.84720073,34.5288178 L12.8376211,37.5062174 C10.736554,38.9018698 7.92557094,38.5531967 6.23254592,36.6870875 L6.23254592,36.6881673 Z M14.2916776,36.0584921 L11.0349333,32.8168879 L11.0349333,28.2239055 C12.7090385,28.56166 14.1047688,29.7065461 14.7580458,31.2779748 C15.4112023,32.8494035 15.2364649,34.6414826 14.2916776,36.0584921 Z" id="Shape" fill="#008ED3" fill-rule="nonzero"></path>
                        <path d="M26.8972489,2.08322588 C26.329292,2.08322588 25.8689491,2.54168425 25.8689491,3.10704823 L25.8689491,15.3933963 C25.8689491,17.0897282 27.2502185,18.4649833 28.9539688,18.4649833 L52.605826,18.4649833 C53.1737829,18.4649833 53.6341256,18.0065249 53.6341256,17.441161 C53.6341256,16.8757969 53.1737829,16.4173386 52.605826,16.4173386 L52.605826,12.9126098 C52.6052235,12.0211297 51.8795208,11.2985868 50.9841421,11.2979869 L48.0573502,11.2979869 C47.1619714,11.2985868 46.4362687,12.0211297 46.4356663,12.9126098 L46.4356663,16.4173386 L44.3789463,16.4173386 L44.3789463,9.99772176 C44.3778617,9.01997322 43.5820231,8.22759976 42.5998782,8.22639991 L39.9878547,8.22639991 C39.0059509,8.22759976 38.2101121,9.01997322 38.2089071,9.99772176 L38.2089071,16.4173386 L36.1523077,16.4173386 L36.1523077,5.1548129 C36.1523077,4.02384497 35.2315016,3.10704823 34.0955878,3.10704823 L32.0388679,3.10704823 C30.9029541,3.10704823 29.982148,4.02384497 29.982148,5.1548129 L29.982148,16.4173386 L28.9538483,16.4173386 C28.3858914,16.4173386 27.9255486,15.9588803 27.9255486,15.3935163 L27.9255486,3.10716822 C27.9255486,2.54168425 27.4650853,2.08322588 26.8972489,2.08322588 Z M48.4923861,13.3457516 L50.5491061,13.3457516 L50.5491061,16.4173386 L48.4923861,16.4173386 L48.4923861,13.3457516 Z M40.2656269,10.2741646 L42.3223469,10.2741646 L42.3223469,16.4173386 L40.2656269,16.4173386 L40.2656269,10.2741646 Z M32.0388679,5.1548129 L34.0955878,5.1548129 L34.0955878,16.4173386 L32.0388679,16.4173386 L32.0388679,5.1548129 Z" id="Shape" fill="#008ED3" fill-rule="nonzero"></path>
                        <path d="M25.8688286,37.3362002 C25.8688286,39.0325323 27.2500979,40.4077873 28.9538483,40.4077873 L52.6057055,40.4077873 C53.1736623,40.4077873 53.6340052,39.9494489 53.6340052,39.3839649 C53.6340052,38.8184809 53.1736623,38.3601425 52.6057055,38.3601425 L28.9538483,38.3601425 C28.3858914,38.3601425 27.9255486,37.9018043 27.9255486,37.3363203 L27.9255486,35.7124585 L31.3118396,32.3409119 C31.7180741,31.9526441 32.3596617,31.9526441 32.7658961,32.3409119 L33.9711025,33.5408706 C35.1758266,34.7399893 37.1286683,34.7399893 38.333272,33.5408706 L42.6234979,29.2693248 C43.0297322,28.8810571 43.6713199,28.8810571 44.0775544,29.2693248 L45.2827606,30.4703634 C46.4888105,31.6661227 48.4388803,31.6661227 49.6449302,30.4703634 L53.3326131,26.7987371 C53.722338,26.3970311 53.7167946,25.758357 53.3200803,25.36349 C52.9233661,24.9685032 52.2820195,24.9629839 51.8785568,25.3510117 L48.1908736,29.0215582 C47.789339,29.4212245 47.1383517,29.4212245 46.7368171,29.0215582 L45.5316109,27.8215996 C44.310859,26.6615955 42.3900727,26.6615955 41.1694414,27.8215996 L36.8792155,32.0931452 C36.4776809,32.4928115 35.8266936,32.4928115 35.425159,32.0931452 L34.2209167,30.8931866 C32.9999238,29.7330626 31.0786556,29.7330626 29.8576625,30.8931866 L27.925428,32.8170079 L27.925428,25.0499721 C27.925428,24.4844883 27.4649648,24.0261499 26.8971283,24.0261499 C26.3291714,24.0261499 25.8688286,24.4846082 25.8688286,25.0499721 L25.8688286,37.3362002 Z" id="Path" fill="#80C242"></path>
                    </g>
                </g>
            </g>
            <path d="M83.5833333,0 L1.41666667,0 C0.634317989,0 0,0.634317989 0,1.41666667 L0,69.4166667 C0,70.1990154 0.634317989,70.8333333 1.41666667,70.8333333 L36.8333333,70.8333333 L36.8333333,73.6666667 L21.25,73.6666667 C20.4676513,73.6666667 19.8333333,74.3009846 19.8333333,75.0833333 L19.8333333,83.5833333 C19.8333333,84.3656819 20.4676513,85 21.25,85 L63.75,85 C64.5323487,85 65.1666667,84.3656819 65.1666667,83.5833333 L65.1666667,75.0833333 C65.1666667,74.3009846 64.5323487,73.6666667 63.75,73.6666667 L48.1666667,73.6666667 L48.1666667,70.8333333 L83.5833333,70.8333333 C84.3656819,70.8333333 85,70.1990154 85,69.4166667 L85,1.41666667 C85,0.634317989 84.3656819,0 83.5833333,0 Z M62.3333333,76.5 L62.3333333,82.1666667 L22.6666667,82.1666667 L22.6666667,76.5 L62.3333333,76.5 Z M39.6666667,73.6666667 L39.6666667,70.8333333 L45.3333333,70.8333333 L45.3333333,73.6666667 L39.6666667,73.6666667 Z M82.1666667,68 L2.83333333,68 L2.83333333,2.83333333 L82.1666667,2.83333333 L82.1666667,68 Z" id="Shape" fill="#2E3091" fill-rule="nonzero"></path>
            <path d="M7.27122016,65.9482759 L77.7287798,65.9482759 C78.5069781,65.9482759 79.1379311,65.2920848 79.1379311,64.4827586 L79.1379311,5.86206897 C79.1379311,5.05274275 78.5069781,4.39655173 77.7287798,4.39655173 L7.27122016,4.39655173 C6.49302187,4.39655173 5.86206897,5.05274275 5.86206897,5.86206897 L5.86206897,64.4827586 C5.86206897,65.2920848 6.49302187,65.9482759 7.27122016,65.9482759 Z M8.79310344,7.32758621 L76.2068965,7.32758621 L76.2068965,63.0172414 L8.79310344,63.0172414 L8.79310344,7.32758621 Z" id="Shape" fill="#008ED3" fill-rule="nonzero"></path>
            <polygon id="Path" stroke="#FFFFFF" stroke-width="0.7125" fill="#2E3091" points="13.091954 11.6264368 18.7586206 11.6264368 18.7586206 8.79310344 10.2586207 8.79310344 10.2586207 17.2931035 13.091954 17.2931035"></polygon>
            <polygon id="Path" stroke="#FFFFFF" stroke-width="0.7125" fill="#2E3091" points="71.6149426 58.4252874 65.9482759 58.4252874 65.9482759 61.2586206 74.4482759 61.2586206 74.4482759 52.7586206 71.6149426 52.7586206"></polygon>
            <polygon id="Path" stroke="#FFFFFF" stroke-width="0.7125" fill="#2E3091" points="65.9482759 8.79310344 74.4482759 8.79310344 74.4482759 11.6264368 65.9482759 11.6264368"></polygon>
            <polygon id="Path" stroke="#FFFFFF" stroke-width="0.7125" fill="#2E3091" points="65.9482759 12.9942529 71.6149426 12.9942529 71.6149426 15.8275862 65.9482759 15.8275862"></polygon>
            <g id="Group" transform="translate(9.867815, 58.132185)" stroke="#FFFFFF" stroke-width="0.7125">
                <polygon id="Path" fill="#2E3091" points="0.390804597 -5.68434189e-14 6.05747126 -5.68434189e-14 6.05747126 2.83333333 0.390804597 2.83333333"></polygon>
                <polygon id="Path" fill="#80C242" points="6.64367815 -5.68434189e-14 9.4770115 -5.68434189e-14 9.4770115 2.83333333 6.64367815 2.83333333"></polygon>
                <polygon id="Path" fill="#2E3091" points="10.6494253 -5.68434189e-14 19.1494253 -5.68434189e-14 19.1494253 2.83333333 10.6494253 2.83333333"></polygon>
            </g>
            <polygon id="Path" stroke="#FFFFFF" stroke-width="0.7125" fill="#2E3091" points="71.6149426 46.8965517 74.4482759 46.8965517 74.4482759 49.729885 71.6149426 49.729885"></polygon>
        </g>
    </g>
</svg>