<?xml version="1.0" encoding="utf-8"?>
<!-- Generator: Adobe Illustrator 16.0.0, SVG Export Plug-In . SVG Version: 6.00 Build 0)  -->
<!DOCTYPE svg PUBLIC "-//W3C//DTD SVG 1.1//EN" "http://www.w3.org/Graphics/SVG/1.1/DTD/svg11.dtd">
<svg version="1.1" id="Capa_1" xmlns="http://www.w3.org/2000/svg" xmlns:xlink="http://www.w3.org/1999/xlink" x="0px" y="0px"
	 width="72px" height="72px" viewBox="864 540 72 72" enable-background="new 864 540 72 72" xml:space="preserve">
<g>
	<g>
		<path fill="#36BB52" d="M929.538,555.551c-2.506,0-4.544,2.038-4.544,4.543c0,2.506,2.038,4.544,4.544,4.544
			s4.545-2.038,4.545-4.544C934.083,557.588,932.044,555.551,929.538,555.551z M929.538,562.367c-1.253,0-2.272-1.019-2.272-2.273
			c0-1.253,1.02-2.272,2.272-2.272c1.254,0,2.273,1.02,2.273,2.272C931.812,561.348,930.792,562.367,929.538,562.367z"/>
	</g>
</g>
<g>
	<g>
		<path fill="#36BB52" d="M870.461,593.042c-2.507,0-4.544,2.038-4.544,4.544s2.038,4.545,4.544,4.545
			c2.506,0,4.544-2.039,4.544-4.545S872.967,593.042,870.461,593.042z M870.461,599.857c-1.253,0-2.272-1.02-2.272-2.271
			c0-1.254,1.019-2.273,2.272-2.273c1.253,0,2.272,1.02,2.272,2.273C872.733,598.838,871.714,599.857,870.461,599.857z"/>
	</g>
</g>
<g>
	<g>
		<path fill="#36BB52" d="M927.337,556.986l-9.802-4.731c-0.565-0.274-1.244-0.036-1.517,0.529
			c-0.273,0.565-0.036,1.244,0.529,1.517l9.801,4.731c0.159,0.077,0.327,0.113,0.492,0.113c0.424,0,0.829-0.236,1.022-0.643
			C928.137,557.938,927.901,557.259,927.337,556.986z"/>
	</g>
</g>
<g>
	<g>
		<path fill="#36BB52" d="M917.042,600.994c-2.507,0-4.545,2.038-4.545,4.544s2.038,4.545,4.545,4.545
			c2.505,0,4.544-2.039,4.544-4.545S919.547,600.994,917.042,600.994z M917.042,607.812c-1.254,0-2.271-1.02-2.271-2.273
			c0-1.253,1.018-2.272,2.271-2.272c1.253,0,2.271,1.02,2.271,2.272C919.313,606.792,918.295,607.812,917.042,607.812z"/>
	</g>
</g>
<g>
	<g>
		<path fill="#36BB52" d="M914.84,602.43l-9.803-4.731c-0.565-0.274-1.244-0.036-1.516,0.53c-0.273,0.564-0.036,1.243,0.528,1.515
			l9.802,4.733c0.157,0.078,0.327,0.114,0.492,0.114c0.424,0,0.827-0.236,1.024-0.643
			C915.642,603.382,915.404,602.703,914.84,602.43z"/>
	</g>
</g>
<g>
	<g>
		<path fill="#36BB52" d="M900,572.592c-2.506,0-4.545,2.038-4.545,4.543c0,2.507,2.039,4.546,4.545,4.546s4.545-2.039,4.545-4.546
			C904.545,574.63,902.506,572.592,900,572.592z M900,579.408c-1.253,0-2.272-1.02-2.272-2.273c0-1.252,1.02-2.271,2.272-2.271
			c1.254,0,2.271,1.019,2.271,2.271C902.271,578.389,901.254,579.408,900,579.408z"/>
	</g>
</g>
<g>
	<g>
		<path fill="#36BB52" d="M898.003,574.155l-7.529-5.867c-0.495-0.383-1.209-0.298-1.595,0.197
			c-0.386,0.495-0.298,1.208,0.197,1.595l7.529,5.869c0.208,0.161,0.454,0.239,0.698,0.239c0.339,0,0.672-0.15,0.897-0.437
			C898.585,575.254,898.498,574.541,898.003,574.155z"/>
	</g>
</g>
<g>
	<g>
		<path fill="#36BB52" d="M920.451,571.456c-6.893,0-12.499,5.608-12.499,12.497c0,6.892,5.606,12.499,12.499,12.499
			c6.889,0,12.497-5.607,12.497-12.499C932.948,577.063,927.34,571.456,920.451,571.456z M920.451,594.178
			c-5.641,0-10.226-4.586-10.226-10.226c0-5.637,4.585-10.225,10.226-10.225c5.637,0,10.224,4.588,10.224,10.225
			C930.675,589.592,926.088,594.178,920.451,594.178z"/>
	</g>
</g>
<g>
	<g>
		<path fill="#36BB52" d="M920.451,576c-2.508,0-4.546,2.039-4.546,4.545s2.038,4.544,4.546,4.544c2.506,0,4.543-2.038,4.543-4.544
			S922.957,576,920.451,576z M920.451,582.816c-1.254,0-2.273-1.02-2.273-2.271c0-1.254,1.02-2.273,2.273-2.273
			c1.252,0,2.271,1.02,2.271,2.273C922.723,581.797,921.703,582.816,920.451,582.816z"/>
	</g>
</g>
<g>
	<g>
		<path fill="#36BB52" d="M923.745,587.36h-6.592c-1.941,0-3.521,1.538-3.521,3.427v2.994c0,0.405,0.216,0.78,0.567,0.984
			c1.903,1.101,4.064,1.686,6.251,1.686c2.183,0,4.345-0.585,6.249-1.686c0.35-0.202,0.565-0.579,0.565-0.983v-2.994
			C927.266,588.898,925.687,587.36,923.745,587.36z M924.994,593.104c-2.829,1.41-6.262,1.41-9.089,0v-2.315
			c0-0.636,0.561-1.155,1.248-1.155h6.592c0.688,0,1.249,0.52,1.249,1.155V593.104L924.994,593.104z"/>
	</g>
</g>
<g>
	<g>
		<path fill="#36BB52" d="M893.184,585.089c-6.89,0-12.498,5.606-12.498,12.497s5.607,12.497,12.498,12.497
			c6.89,0,12.496-5.606,12.496-12.497S900.073,585.089,893.184,585.089z M893.184,607.812c-5.639,0-10.225-4.588-10.225-10.226
			c0-5.639,4.586-10.226,10.225-10.226s10.225,4.587,10.225,10.226C903.408,603.224,898.822,607.812,893.184,607.812z"/>
	</g>
</g>
<g>
	<g>
		<path fill="#36BB52" d="M893.184,589.633c-2.507,0-4.545,2.039-4.545,4.545s2.038,4.545,4.545,4.545
			c2.506,0,4.544-2.039,4.544-4.545S895.69,589.633,893.184,589.633z M893.184,596.451c-1.253,0-2.272-1.02-2.272-2.273
			c0-1.253,1.019-2.272,2.272-2.272s2.271,1.02,2.271,2.272C895.455,595.432,894.437,596.451,893.184,596.451z"/>
	</g>
</g>
<g>
	<g>
		<path fill="#36BB52" d="M896.479,600.994h-6.591c-1.941,0-3.521,1.538-3.521,3.425v2.996c0,0.405,0.215,0.779,0.566,0.983
			c1.904,1.102,4.064,1.685,6.25,1.685c2.184,0,4.345-0.583,6.249-1.685c0.352-0.203,0.567-0.578,0.567-0.983v-2.994
			C900,602.532,898.421,600.994,896.479,600.994z M897.728,606.736c-2.828,1.41-6.261,1.41-9.089,0v-2.315
			c0-0.637,0.561-1.155,1.249-1.155h6.592c0.688,0,1.249,0.519,1.249,1.155V606.736L897.728,606.736z"/>
	</g>
</g>
<g>
	<g>
		<path fill="#36BB52" d="M878.414,556.686c-6.891,0-12.497,5.607-12.497,12.498s5.606,12.497,12.497,12.497
			s12.497-5.607,12.497-12.497S885.305,556.686,878.414,556.686z M878.414,579.408c-5.638,0-10.225-4.586-10.225-10.225
			s4.586-10.225,10.225-10.225s10.225,4.586,10.225,10.225S884.052,579.408,878.414,579.408z"/>
	</g>
</g>
<g>
	<g>
		<path fill="#36BB52" d="M878.414,561.231c-2.506,0-4.544,2.038-4.544,4.543c0,2.506,2.039,4.545,4.544,4.545
			s4.544-2.039,4.544-4.545C882.958,563.269,880.92,561.231,878.414,561.231z M878.414,568.047c-1.253,0-2.271-1.019-2.271-2.273
			c0-1.253,1.019-2.271,2.271-2.271c1.254,0,2.272,1.019,2.272,2.271C880.686,567.028,879.668,568.047,878.414,568.047z"/>
	</g>
</g>
<g>
	<g>
		<path fill="#36BB52" d="M881.71,572.592h-6.592c-1.941,0-3.521,1.537-3.521,3.425v2.995c0,0.406,0.216,0.779,0.568,0.983
			c1.904,1.103,4.064,1.686,6.249,1.686s4.346-0.583,6.25-1.686c0.351-0.202,0.567-0.577,0.567-0.981v-2.996
			C885.231,574.129,883.651,572.592,881.71,572.592z M882.958,578.333c-2.828,1.41-6.261,1.41-9.089,0v-2.315
			c0-0.636,0.56-1.154,1.249-1.154h6.592c0.688,0,1.249,0.518,1.249,1.154V578.333L882.958,578.333z"/>
	</g>
</g>
<g>
	<g>
		<path fill="#36BB52" d="M905.68,541.917c-6.89,0-12.496,5.606-12.496,12.497s5.606,12.497,12.496,12.497
			c6.891,0,12.498-5.606,12.498-12.497S912.57,541.917,905.68,541.917z M905.68,564.639c-5.638,0-10.225-4.586-10.225-10.225
			s4.587-10.225,10.225-10.225c5.641,0,10.226,4.586,10.226,10.225S911.32,564.639,905.68,564.639z"/>
	</g>
</g>
<g>
	<g>
		<path fill="#36BB52" d="M905.68,546.462c-2.506,0-4.545,2.038-4.545,4.544c0,2.506,2.039,4.545,4.545,4.545
			c2.507,0,4.546-2.039,4.546-4.545C910.226,548.5,908.187,546.462,905.68,546.462z M905.68,553.278
			c-1.253,0-2.271-1.02-2.271-2.272s1.019-2.272,2.271-2.272c1.254,0,2.272,1.02,2.272,2.272S906.934,553.278,905.68,553.278z"/>
	</g>
</g>
<g>
	<g>
		<path fill="#36BB52" d="M908.977,557.823h-6.591c-1.943,0-3.521,1.537-3.521,3.425v2.995c0,0.406,0.215,0.781,0.566,0.984
			c1.904,1.102,4.064,1.685,6.249,1.685c2.186,0,4.346-0.583,6.25-1.685c0.353-0.202,0.567-0.579,0.567-0.983v-2.995
			C912.497,559.359,910.918,557.823,908.977,557.823z M910.226,563.566c-2.827,1.409-6.262,1.409-9.091,0v-2.317
			c0-0.636,0.562-1.155,1.25-1.155h6.592c0.688,0,1.249,0.519,1.249,1.155V563.566L910.226,563.566z"/>
	</g>
</g>
<g>
	<g>
		<path fill="#36BB52" d="M895.184,553.675c-0.407-0.476-1.125-0.532-1.601-0.124l-7.874,6.737
			c-0.477,0.408-0.532,1.125-0.125,1.602c0.225,0.263,0.543,0.397,0.863,0.397c0.261,0,0.524-0.089,0.738-0.273l7.874-6.736
			C895.537,554.869,895.592,554.151,895.184,553.675z"/>
	</g>
</g>
<g>
	<g>
		<path fill="#36BB52" d="M920.223,571.911l-6.817-9.088c-0.377-0.504-1.087-0.602-1.59-0.229c-0.501,0.377-0.603,1.089-0.227,1.59
			l6.815,9.089c0.224,0.298,0.564,0.454,0.91,0.454c0.236,0,0.476-0.074,0.682-0.228C920.497,573.125,920.6,572.412,920.223,571.911
			z"/>
	</g>
</g>
<g>
	<g>
		<path fill="#36BB52" d="M910.898,587.71c-0.376-0.503-1.088-0.604-1.591-0.227l-6.345,4.759c-0.504,0.375-0.604,1.088-0.229,1.588
			c0.224,0.299,0.564,0.455,0.91,0.455c0.236,0,0.476-0.074,0.682-0.227l6.345-4.76C911.174,588.922,911.275,588.212,910.898,587.71
			z"/>
	</g>
</g>
<g>
	<g>
		<path fill="#36BB52" d="M881.822,596.451h-7.953c-0.627,0-1.136,0.507-1.136,1.135c0,0.629,0.509,1.137,1.136,1.137h7.953
			c0.627,0,1.136-0.508,1.136-1.137C882.958,596.958,882.449,596.451,881.822,596.451z"/>
	</g>
</g>
<g>
	<g>
		<path fill="#36BB52" d="M878.414,541.917c-2.506,0-4.544,2.038-4.544,4.545c0,2.506,2.039,4.544,4.544,4.544
			s4.544-2.038,4.544-4.544C882.958,543.955,880.92,541.917,878.414,541.917z M878.414,548.733c-1.253,0-2.271-1.019-2.271-2.271
			c0-1.253,1.019-2.272,2.271-2.272c1.254,0,2.272,1.019,2.272,2.272C880.686,547.714,879.668,548.733,878.414,548.733z"/>
	</g>
</g>
<g>
	<g>
		<path fill="#36BB52" d="M878.414,548.733c-0.627,0-1.136,0.508-1.136,1.136v7.952c0,0.629,0.509,1.137,1.136,1.137
			c0.628,0,1.136-0.507,1.136-1.137v-7.952C879.55,549.241,879.042,548.733,878.414,548.733z"/>
	</g>
</g>
</svg>
