<?xml version="1.0" encoding="UTF-8"?>
<svg width="85px" height="85px" viewBox="0 0 85 85" version="1.1" xmlns="http://www.w3.org/2000/svg" xmlns:xlink="http://www.w3.org/1999/xlink">
    <!-- Generator: Sketch 52.4 (67378) - http://www.bohemiancoding.com/sketch -->
    <title>ApplicationExpert</title>
    <desc>Created with Sketch.</desc>
    <g id="ApplicationExpert" stroke="none" stroke-width="1" fill="none" fill-rule="evenodd">
        <g id="application_Experts" transform="translate(8.000000, 0.000000)">
            <g id="application" fill-rule="nonzero">
                <path d="M7.79891304,8.84615385 C7.80289658,5.23673074 10.6961141,2.31171962 14.2663043,2.30769231 L8.55978261,2.30769231 C4.98959236,2.31171962 2.09637484,5.23673074 2.0923913,8.84615385 L2.0923913,11.5384615 L7.79891304,11.5384615 L7.79891304,8.84615385 Z" id="Path" fill="#DAF6C0"></path>
                <rect id="Rectangle" fill="#DAF6C0" x="2.0923913" y="13.8461538" width="5.70652174" height="55"></rect>
                <path d="M7.79891304,76.1538462 L7.79891304,71.1538462 L2.0923913,71.1538462 L2.0923913,76.1538462 C2.09637484,79.7632693 4.98959236,82.6882804 8.55978261,82.6923077 L14.2663043,82.6923077 C10.6961141,82.6882804 7.80289658,79.7632693 7.79891304,76.1538462 Z" id="Path" fill="#DAF6C0"></path>
                <path d="M8.859375,85 L39.2941576,85 C44.1190217,85 48.125,81.0315385 48.125,76.1538462 L48.125,64.2307692 L45.8423913,64.2307692 L45.8423913,68.8461538 L2.47282609,68.8461538 L2.47282609,13.8461538 L33.3974185,13.8461538 C34.0277435,13.8461538 34.5387228,13.3295593 34.5387228,12.6923077 C34.5387228,12.0550561 34.0277435,11.5384615 33.3974185,11.5384615 L2.47282609,11.5384615 L2.47282609,8.84615385 C2.45650428,7.12119323 3.12153236,5.46092416 4.32044902,4.23348966 C5.51936568,3.00605516 7.15309363,2.3128892 8.859375,2.30769231 L39.2941576,2.30769231 C42.8603533,2.30769231 45.8423913,5.24076923 45.8423913,8.84615385 L45.8423913,11.5384615 L43.0985054,11.5384615 C42.4681804,11.5384615 41.9572011,12.0550561 41.9572011,12.6923077 C41.9572011,13.3295593 42.4681804,13.8461538 43.0985054,13.8461538 L45.8423913,13.8461538 L45.8423913,20.1923077 L48.125,20.1923077 L48.125,8.84615385 C48.125,3.96846154 44.1190217,0 39.2941576,0 L8.859375,0 C6.54792597,0.005879307 4.33400677,0.94238958 2.70716331,2.60244794 C1.08031985,4.2625063 0.174578113,6.50935037 0.190217391,8.84615385 L0.190217391,76.1538462 C0.174578113,78.4906496 1.08031985,80.7374937 2.70716331,82.3975521 C4.33400677,84.0576104 6.54792597,84.9941207 8.859375,85 Z M2.47253259,71.1538462 L45.8423913,71.1538462 L45.8423913,76.1538462 C45.8423913,79.7592308 42.8603533,82.6923077 39.2941576,82.6923077 L8.859375,82.6923077 C7.15309363,82.6871108 5.51936568,81.9939448 4.32044902,80.7665103 C3.12153236,79.5390758 2.45650428,77.8788068 2.47282609,76.1538462 L2.47253259,71.1538462 Z" id="Shape" fill="#2E3091"></path>
                <path d="M37.14375,11.5384615 C36.513425,11.5384615 36.0024457,12.0550561 36.0024457,12.6923077 C36.0024457,13.3295593 36.513425,13.8461538 37.14375,13.8461538 L39.2580163,13.8461538 C39.8883413,13.8461538 40.3993207,13.3295593 40.3993207,12.6923077 C40.3993207,12.0550561 39.8883413,11.5384615 39.2580163,11.5384615 L37.14375,11.5384615 Z" id="Path" fill="#0635C9"></path>
                <path d="M24.0767663,80.9615385 C26.2829038,80.9615385 28.0713315,79.1534576 28.0713315,76.9230769 C28.0713315,74.6926962 26.2829038,72.8846154 24.0767663,72.8846154 C21.8706289,72.8846154 20.0822011,74.6926962 20.0822011,76.9230769 C20.0846123,79.1524471 21.8716284,80.9591008 24.0767663,80.9615385 Z M24.0767663,75.1923077 C25.0222538,75.1923077 25.7887228,75.9671995 25.7887228,76.9230769 C25.7887228,77.8789544 25.0222538,78.6538462 24.0767663,78.6538462 C23.1312788,78.6538462 22.3648098,77.8789544 22.3648098,76.9230769 C22.3658581,75.9676388 23.1317134,75.1933675 24.0767663,75.1923077 Z" id="Shape" fill="#008ED3"></path>
                <path d="M18.7763587,38.8461538 C18.1460337,38.8461538 17.6350543,39.3627484 17.6350543,40 C17.6350543,40.6372516 18.1460337,41.1538462 18.7763587,41.1538462 L20.3532609,41.1538462 C20.9835859,41.1538462 21.4945652,40.6372516 21.4945652,40 C21.4945652,39.3627484 20.9835859,38.8461538 20.3532609,38.8461538 L18.7763587,38.8461538 Z" id="Path" fill="#2E3091"></path>
                <path d="M6.84782609,41.1538462 L13.7293207,41.1538462 C14.3596456,41.1538462 14.870625,40.6372516 14.870625,40 C14.870625,39.3627484 14.3596456,38.8461538 13.7293207,38.8461538 L6.84782609,38.8461538 C6.2175011,38.8461538 5.70652174,39.3627484 5.70652174,40 C5.70652174,40.6372516 6.2175011,41.1538462 6.84782609,41.1538462 Z" id="Path" fill="#2E3091"></path>
                <path d="M21.4945652,49.6153846 C21.4945652,48.978133 20.9835859,48.4615385 20.3532609,48.4615385 L13.069837,48.4615385 C12.439512,48.4615385 11.9285326,48.978133 11.9285326,49.6153846 C11.9285326,50.2526362 12.439512,50.7692308 13.069837,50.7692308 L20.3532609,50.7692308 C20.9835859,50.7692308 21.4945652,50.2526362 21.4945652,49.6153846 Z" id="Path" fill="#2E3091"></path>
                <path d="M6.84782609,50.7692308 L8.02279891,50.7692308 C8.6531239,50.7692308 9.16410326,50.2526362 9.16410326,49.6153846 C9.16410326,48.978133 8.6531239,48.4615385 8.02279891,48.4615385 L6.84782609,48.4615385 C6.2175011,48.4615385 5.70652174,48.978133 5.70652174,49.6153846 C5.70652174,50.2526362 6.2175011,50.7692308 6.84782609,50.7692308 Z" id="Path" fill="#2E3091"></path>
                <path d="M20.7336957,60.3846154 L26.0597826,60.3846154 C26.6901076,60.3846154 27.201087,59.8680209 27.201087,59.2307692 C27.201087,58.5935176 26.6901076,58.0769231 26.0597826,58.0769231 L20.7336957,58.0769231 C20.1033707,58.0769231 19.5923913,58.5935176 19.5923913,59.2307692 C19.5923913,59.8680209 20.1033707,60.3846154 20.7336957,60.3846154 Z" id="Path" fill="#2E3091"></path>
                <path d="M6.84782609,60.3846154 L15.6314946,60.3846154 C16.2618196,60.3846154 16.7727989,59.8680209 16.7727989,59.2307692 C16.7727989,58.5935176 16.2618196,58.0769231 15.6314946,58.0769231 L6.84782609,58.0769231 C6.2175011,58.0769231 5.70652174,58.5935176 5.70652174,59.2307692 C5.70652174,59.8680209 6.2175011,60.3846154 6.84782609,60.3846154 Z" id="Path" fill="#2E3091"></path>
                <path d="M23.3967391,29.6153846 C23.3967391,28.978133 22.8857598,28.4615385 22.2554348,28.4615385 L15.0271739,28.4615385 C14.3968489,28.4615385 13.8858696,28.978133 13.8858696,29.6153846 C13.8858696,30.2526362 14.3968489,30.7692308 15.0271739,30.7692308 L22.2554348,30.7692308 C22.8857598,30.7692308 23.3967391,30.2526362 23.3967391,29.6153846 Z" id="Path" fill="#2E3091"></path>
                <path d="M6.84782609,30.7692308 L9.92497283,30.7692308 C10.5552978,30.7692308 11.0662772,30.2526362 11.0662772,29.6153846 C11.0662772,28.978133 10.5552978,28.4615385 9.92497283,28.4615385 L6.84782609,28.4615385 C6.2175011,28.4615385 5.70652174,28.978133 5.70652174,29.6153846 C5.70652174,30.2526362 6.2175011,30.7692308 6.84782609,30.7692308 Z" id="Path" fill="#2E3091"></path>
                <path d="M24.9730707,46.8905769 L28.9037228,47.2751923 C29.3392484,48.9411377 30.0017782,50.5377705 30.8722826,52.0192308 L28.361413,55.0801923 C27.9854096,55.5383418 28.0158953,56.2104849 28.4317935,56.6319231 L32.9547826,61.2055769 C33.3711611,61.626448 34.0358861,61.6580171 34.4894565,61.2784615 L37.5239946,58.7376923 C38.9887453,59.6163841 40.5649532,60.289482 42.2092391,60.7384615 L42.5896739,64.7261538 C42.6460737,65.317367 43.137201,65.7687073 43.7247011,65.7692308 L50.1382609,65.7692308 C50.7261982,65.7693013 51.2179874,65.3178067 51.2744293,64.7261538 L51.6548641,60.7390385 C53.3028228,60.2966553 54.8819627,59.6248428 56.3469565,58.7428846 L59.374837,61.2778846 C59.8284387,61.6575579 60.4932974,61.6259864 60.9097011,61.205 L65.4336413,56.6313462 C65.8499948,56.2103156 65.8811407,55.5381533 65.5055435,55.0796154 L62.9922011,52.0115385 C63.8617193,50.5304492 64.5277617,48.9365852 64.9719837,47.2738462 L68.8206522,46.8903846 C69.3968497,46.8282719 69.8281825,46.327459 69.8097826,45.7419231 L69.8097826,39.2578846 C69.8282694,38.6714808 69.3955681,38.1702359 68.8183696,38.1094231 L64.8949457,37.7248077 C64.4608534,36.0590429 63.7997294,34.462404 62.9305707,32.9807692 L65.442962,29.9198077 C65.8174133,29.4640183 65.7895425,28.7955824 65.3784783,28.3732692 L60.913125,23.7996154 C60.49749,23.3742973 59.8293477,23.3404104 59.3736957,23.7215385 L56.3393478,26.2623077 C54.8747031,25.3833993 53.2985544,24.7101052 51.6542935,24.2609615 L51.2738587,20.2732692 C51.217163,19.6820647 50.7257812,19.230967 50.1382609,19.2307692 L43.7247011,19.2307692 C43.1368366,19.2307978 42.6451578,19.6822666 42.5887228,20.2738462 L42.208288,24.2609615 C40.5603294,24.7033447 38.9811895,25.3751572 37.5161957,26.2571154 L34.4885054,23.7221154 C34.0348723,23.3423243 33.3698799,23.3738982 32.9534511,23.795 L28.4295109,28.3686538 C28.0131573,28.7896844 27.9820115,29.4618467 28.3576087,29.9203846 L30.8707609,32.9884615 C30.0014916,34.4692686 29.3354608,36.0627165 28.8909783,37.725 L24.9725,38.1096154 C24.3928281,38.1693838 23.955568,38.6689241 23.9673913,39.2578846 L23.9673913,45.7419231 C23.9554854,46.3311963 24.3930681,46.8309888 24.9730707,46.8905769 Z M26.25,40.3059615 L29.9449728,39.9432692 C30.4361103,39.8944489 30.8386316,39.528113 30.9380978,39.0394231 C31.3684505,37.073035 32.1474687,35.2016881 33.2374457,33.5159615 C33.50633,33.0923761 33.4726136,32.5414592 33.1541304,32.1546154 L30.7802174,29.2584615 L33.8337772,26.1703846 L36.6980707,28.5686538 C37.0863251,28.8936258 37.6394644,28.9226263 38.0588859,28.64 C39.7169782,27.5309741 41.5647694,26.7436555 43.5078533,26.3182692 C43.9929263,26.2118479 44.3543462,25.8006658 44.401875,25.3011538 L44.7613859,21.5384615 L49.1017663,21.5384615 L49.4603261,25.3003846 C49.5079741,25.8001781 49.8698523,26.2114441 50.3552989,26.3175 C52.3006074,26.7551479 54.1515547,27.5449821 55.8187228,28.6488462 C56.2370558,28.9216987 56.7820605,28.8889348 57.165462,28.5678846 L60.0248098,26.1730769 L63.0313859,29.2517308 L60.655,32.1538462 C60.3335012,32.5463236 60.3047385,33.1055432 60.5842391,33.5296154 C61.6812967,35.2058818 62.4600646,37.0739952 62.8807337,39.0384615 C62.9680042,39.5233454 63.3615579,39.8916788 63.8464674,39.9423077 L67.5271739,40.3059615 L67.5271739,44.6953846 L63.9023913,45.0576923 C63.4134596,45.1076385 63.0140218,45.4743285 62.9178261,45.9615385 C62.4887833,47.9276512 61.7110493,49.7989441 60.6222826,51.4848077 C60.3538784,51.9087629 60.3882888,52.4596989 60.7073098,52.8461538 L63.0821739,55.7423077 L60.0288043,58.8303846 L57.1647011,56.4321154 C56.7764831,56.1072378 56.2234557,56.0782391 55.8040761,56.3607692 C54.1460027,57.4698308 52.2982047,58.2571523 50.3551087,58.6825 C49.8700356,58.7889213 49.5086158,59.2001034 49.461087,59.6996154 L49.1017663,63.4615385 L44.7613859,63.4615385 L44.4026359,59.6996154 C44.355107,59.2001034 43.9936872,58.7889213 43.5086141,58.6825 C41.5633056,58.2448521 39.7123583,57.4550179 38.0451902,56.3511538 C37.6268572,56.0783013 37.0818525,56.1110652 36.6984511,56.4321154 L33.8337772,58.8303846 L30.7785054,55.7423077 L33.1508967,52.8461538 C33.4723364,52.4536328 33.5010217,51.8944151 33.2214674,51.4703846 C32.1244373,49.7941033 31.3456717,47.9259953 30.9249728,45.9615385 C30.8313915,45.4746271 30.4331372,45.1073203 29.9449728,45.0576923 L26.25,44.6940385 L26.25,40.3059615 Z" id="Shape" fill="#2E3091"></path>
                <path d="M46.9315761,56.2780769 C54.4582867,56.2780769 60.5598913,50.1094218 60.5598913,42.5 C60.5598913,34.8905782 54.4582867,28.7219231 46.9315761,28.7219231 C39.4048654,28.7219231 33.3032609,34.8905782 33.3032609,42.5 C33.3117519,50.1058632 39.4083853,56.2694926 46.9315761,56.2780769 Z M46.9315761,31.0296154 C53.1976368,31.0296154 58.2772826,36.1650815 58.2772826,42.5 C58.2772826,48.8349185 53.1976368,53.9703846 46.9315761,53.9703846 C40.6655154,53.9703846 35.5858696,48.8349185 35.5858696,42.5 C35.5928931,36.168025 40.6684269,31.0367161 46.9315761,31.0296154 Z" id="Shape" fill="#008ED3"></path>
            </g>
            <text id="10+" font-family="Helvetica" font-size="10" font-weight="normal" fill="#008ED3">
                <tspan x="37.5" y="46.5">10+</tspan>
            </text>
        </g>
    </g>
</svg>