<?xml version="1.0" encoding="utf-8"?>
<!-- Generator: Adobe Illustrator 16.0.0, SVG Export Plug-In . SVG Version: 6.00 Build 0)  -->
<!DOCTYPE svg PUBLIC "-//W3C//DTD SVG 1.1//EN" "http://www.w3.org/Graphics/SVG/1.1/DTD/svg11.dtd">
<svg version="1.1" id="Layer_1" xmlns="http://www.w3.org/2000/svg" xmlns:xlink="http://www.w3.org/1999/xlink" x="0px" y="0px"
	 width="28.8px" height="28.8px" viewBox="28.1 28.1 28.8 28.8" enable-background="new 28.1 28.1 28.8 28.8" xml:space="preserve">
<title>call</title>
<desc>Created with Sketch.</desc>
<g id="call">
	<g id="noun_call_1455961">
		<path id="Path" fill="#2E3091" d="M35.623,31.014h4.525c0.284,0,0.515-0.23,0.515-0.514s-0.23-0.514-0.515-0.514h-4.525
			c-0.284,0-0.515,0.23-0.515,0.514S35.338,31.014,35.623,31.014z"/>
		<path id="Path_1_" fill="#008ED3" d="M33.534,31.014h0.422c0.284,0,0.514-0.23,0.514-0.514s-0.23-0.514-0.514-0.514h-0.422
			c-0.284,0-0.514,0.23-0.514,0.514S33.25,31.014,33.534,31.014z"/>
		<path id="Path_2_" fill="#008ED3" d="M34.813,54.901h4.06c0.284,0,0.515-0.23,0.515-0.515s-0.23-0.515-0.515-0.515h-4.06
			c-0.284,0-0.514,0.23-0.514,0.515S34.529,54.901,34.813,54.901z"/>
		<path id="Path_3_" fill="#008ED3" d="M36.922,49.583c2.444,0.056,4.726-1.217,5.964-3.324s1.238-4.721,0-6.828
			c-1.238-2.108-3.52-3.38-5.964-3.325c-0.284,0-0.515,0.23-0.515,0.514c0,0.284,0.23,0.514,0.515,0.514
			c2.311,0,4.394,1.392,5.277,3.527s0.395,4.592-1.24,6.226c-1.634,1.633-4.092,2.121-6.226,1.235
			c-2.134-0.885-3.525-2.969-3.523-5.279c0-0.284-0.23-0.514-0.514-0.514c-0.284,0-0.515,0.23-0.515,0.514
			C30.185,46.563,33.201,49.579,36.922,49.583z"/>
		<path id="Shape" fill="#80C242" d="M30.953,39.603c1.677,2.646,3.919,4.888,6.566,6.566c0.269,0.169,0.58,0.259,0.898,0.257
			c0.516-0.004,1.009-0.212,1.372-0.579l1.056-1.057c0.432-0.408,0.454-1.09,0.048-1.525l-1.331-1.331
			c-0.19-0.188-0.448-0.293-0.716-0.291c-0.304,0.003-0.595,0.126-0.809,0.343l-0.686,0.686c-1.098-0.819-2.071-1.792-2.891-2.89
			l0.686-0.686c0.433-0.408,0.456-1.09,0.051-1.526l-1.334-1.334c-0.436-0.405-1.117-0.382-1.525,0.052l-1.056,1.056
			c-0.62,0.589-0.753,1.528-0.322,2.267L30.953,39.603z M32.002,38.063l1.056-1.049c0.042-0.041,0.079-0.041,0.072-0.048
			l1.323,1.316c0,0.033-0.016,0.065-0.041,0.086l-0.727,0.727c-0.342,0.338-0.38,0.878-0.089,1.262
			c0.896,1.208,1.966,2.276,3.175,3.171c0.383,0.291,0.923,0.253,1.262-0.089l0.727-0.727c0.042-0.042,0.079-0.042,0.072-0.048
			l1.323,1.317c0,0.033-0.016,0.064-0.041,0.085l-1.056,1.057c-0.247,0.279-0.653,0.354-0.984,0.182
			c-2.521-1.598-4.657-3.733-6.253-6.254c-0.173-0.331-0.098-0.736,0.182-0.984V38.063z"/>
		<path id="Shape_1_" fill="#2E3091" d="M56.386,39.585h-10.8V28.443c0-0.284-0.23-0.514-0.515-0.514H28.614
			c-0.284,0-0.514,0.23-0.514,0.514v28.115c0,0.283,0.23,0.514,0.514,0.514h27.771c0.284,0,0.515-0.23,0.515-0.514V40.1
			C56.9,39.816,56.67,39.585,56.386,39.585z M44.558,56.043H29.128v-3.127h15.429V56.043z M44.558,51.888H29.128V33.113h15.429
			V51.888z M44.558,32.081H29.128v-3.124h15.429V32.081z M51.716,56.043h-6.13V40.614h6.13V56.043z M55.871,56.043h-3.127V40.614
			h3.127V56.043z"/>
		<path id="Path_4_" fill="#008ED3" d="M54.212,50.873c0.284,0,0.515-0.23,0.515-0.515v-4.06c0-0.284-0.23-0.515-0.515-0.515
			s-0.515,0.23-0.515,0.515v4.06C53.697,50.643,53.928,50.873,54.212,50.873z"/>
		<path id="Path_5_" fill="#008ED3" d="M50.475,45.109c0.203,0.188,0.519,0.183,0.715-0.013c0.195-0.196,0.201-0.512,0.013-0.715
			l-2.99-2.989c-0.203-0.189-0.519-0.183-0.714,0.013c-0.196,0.196-0.201,0.512-0.013,0.714L50.475,45.109z"/>
		<path id="Path_6_" fill="#008ED3" d="M47.413,45.109c0.202,0.188,0.519,0.183,0.715-0.013c0.195-0.196,0.201-0.512,0.012-0.715
			l-1.457-1.457c-0.202-0.189-0.519-0.184-0.714,0.012c-0.196,0.196-0.201,0.512-0.013,0.714L47.413,45.109z"/>
	</g>
</g>
</svg>
