<?xml version="1.0" encoding="UTF-8"?>
<svg width="85px" height="85px" viewBox="0 0 85 85" version="1.1" xmlns="http://www.w3.org/2000/svg" xmlns:xlink="http://www.w3.org/1999/xlink">
    <!-- Generator: Sketch 52.4 (67378) - http://www.bohemiancoding.com/sketch -->
    <title>controller</title>
    <desc>Created with Sketch.</desc>
    <g id="controller" stroke="none" stroke-width="1" fill="none" fill-rule="evenodd">
        <g id="algorithm">
            <polygon id="Path" stroke="#008ED3" fill="#FFFFFF" points="85 42.5 65.8064516 42.5 65.8064516 32.9032258 85 32.9032258"></polygon>
            <polygon id="Path" stroke="#008ED3" fill="#FFFFFF" points="19.1935484 42.5 0 42.5 0 32.9032258 19.1935484 32.9032258"></polygon>
            <g id="Group" transform="translate(2.741935, 0.000000)">
                <path d="M38.3870968,35.6451613 L38.3870968,43.8709677 L41.1290323,43.8709677 L41.1290323,35.6451613 L54.8387097,35.6451613 L54.8387097,19.1935484 L71.2903226,19.1935484 L71.2903226,26.8517742 L68.1466935,23.7081452 L66.2081452,25.6466935 L72.6612903,32.0998387 L79.1144355,25.6466935 L77.1758871,23.7081452 L74.0322581,26.8517742 L74.0322581,16.4516129 L54.8387097,16.4516129 L54.8387097,0 L33.7066129,0 L24.6774194,9.02919355 L24.6774194,16.4516129 L5.48387097,16.4516129 L5.48387097,26.8517742 L2.34024194,23.7081452 L0.401693548,25.6466935 L6.85483871,32.0998387 L13.3079839,25.6466935 L11.3694355,23.7081452 L8.22580645,26.8517742 L8.22580645,19.1935484 L24.6774194,19.1935484 L24.6774194,35.6451613 L38.3870968,35.6451613 Z M52.0967742,32.9032258 L27.4193548,32.9032258 L27.4193548,10.9677419 L35.6451613,10.9677419 L35.6451613,2.74193548 L52.0967742,2.74193548 L52.0967742,32.9032258 Z M29.3579032,8.22580645 L32.9032258,4.68048387 L32.9032258,8.22580645 L29.3579032,8.22580645 Z" id="Shape" fill="#2E3091" fill-rule="nonzero"></path>
                <rect id="Rectangle-2" fill="#008ED3" x="38.3870968" y="5.48387097" width="10.9677419" height="2.74193548"></rect>
                <circle id="Oval" fill="#80C242" cx="6.85483871" cy="71.2903226" r="4.11290323"></circle>
                <circle id="Oval-Copy" fill="#80C242" cx="17.8225806" cy="80.8870968" r="2.74193548"></circle>
                <circle id="Oval-Copy-4" fill="#80C242" cx="61.6935484" cy="80.8870968" r="2.74193548"></circle>
                <circle id="Oval-Copy-3" fill="#80C242" cx="72.6612903" cy="71.2903226" r="4.11290323"></circle>
                <rect id="Rectangle" fill="#008ED3" x="38.3870968" y="10.9677419" width="10.9677419" height="2.74193548"></rect>
                <rect id="Rectangle" fill="#008ED3" x="30.1612903" y="16.4516129" width="19.1935484" height="2.74193548"></rect>
                <rect id="Rectangle" fill="#008ED3" x="30.1612903" y="21.9354839" width="19.1935484" height="2.74193548"></rect>
                <rect id="Rectangle" fill="#008ED3" x="30.1612903" y="27.4193548" width="19.1935484" height="2.74193548"></rect>
                <path d="M74.0322581,66.001129 L74.0322581,43.8709677 L71.2903226,43.8709677 L71.2903226,57.5806452 L54.8387097,57.5806452 L54.8387097,60.3225806 L60.3225806,60.3225806 L60.3225806,77.0264516 C58.7308871,77.5940323 57.5806452,79.1020968 57.5806452,80.8870968 C57.5806452,83.1546774 59.4259677,85 61.6935484,85 C63.961129,85 65.8064516,83.1546774 65.8064516,80.8870968 C65.8064516,79.1020968 64.6562097,77.5940323 63.0645161,77.0264516 L63.0645161,60.3225806 L71.2903226,60.3225806 L71.2903226,66.001129 C68.9308871,66.6139516 67.1774194,68.7430645 67.1774194,71.2903226 C67.1774194,74.3146774 69.6369355,76.7741935 72.6612903,76.7741935 C75.6856452,76.7741935 78.1451613,74.3146774 78.1451613,71.2903226 C78.1451613,68.7430645 76.3916935,66.6139516 74.0322581,66.001129 Z M61.6935484,82.2580645 C60.9367742,82.2580645 60.3225806,81.6425 60.3225806,80.8870968 C60.3225806,80.1316935 60.9367742,79.516129 61.6935484,79.516129 C62.4503226,79.516129 63.0645161,80.1316935 63.0645161,80.8870968 C63.0645161,81.6425 62.4503226,82.2580645 61.6935484,82.2580645 Z M72.6612903,74.0322581 C71.1491129,74.0322581 69.9193548,72.8025 69.9193548,71.2903226 C69.9193548,69.7781452 71.1491129,68.5483871 72.6612903,68.5483871 C74.1734677,68.5483871 75.4032258,69.7781452 75.4032258,71.2903226 C75.4032258,72.8025 74.1734677,74.0322581 72.6612903,74.0322581 Z" id="Shape" fill="#2E3091" fill-rule="nonzero"></path>
                <path d="M8.22580645,43.8709677 L5.48387097,43.8709677 L5.48387097,66.001129 C3.12443548,66.6139516 1.37096774,68.7430645 1.37096774,71.2903226 C1.37096774,74.3146774 3.83048387,76.7741935 6.85483871,76.7741935 C9.87919355,76.7741935 12.3387097,74.3146774 12.3387097,71.2903226 C12.3387097,68.7430645 10.5852419,66.6139516 8.22580645,66.001129 L8.22580645,60.3225806 L16.4516129,60.3225806 L16.4516129,77.0264516 C14.8599194,77.5940323 13.7096774,79.1020968 13.7096774,80.8870968 C13.7096774,83.1546774 15.555,85 17.8225806,85 C20.0901613,85 21.9354839,83.1546774 21.9354839,80.8870968 C21.9354839,79.1020968 20.7852419,77.5940323 19.1935484,77.0264516 L19.1935484,60.3225806 L24.6774194,60.3225806 L24.6774194,57.5806452 L8.22580645,57.5806452 L8.22580645,43.8709677 Z M17.8225806,82.2580645 C17.0658065,82.2580645 16.4516129,81.6425 16.4516129,80.8870968 C16.4516129,80.1316935 17.0658065,79.516129 17.8225806,79.516129 C18.5793548,79.516129 19.1935484,80.1316935 19.1935484,80.8870968 C19.1935484,81.6425 18.5793548,82.2580645 17.8225806,82.2580645 Z M9.59677419,71.2903226 C9.59677419,72.8025 8.36701613,74.0322581 6.85483871,74.0322581 C5.34266129,74.0322581 4.11290323,72.8025 4.11290323,71.2903226 C4.11290323,69.7781452 5.34266129,68.5483871 6.85483871,68.5483871 C8.36701613,68.5483871 9.59677419,69.7781452 9.59677419,71.2903226 Z" id="Shape" fill="#2E3091" fill-rule="nonzero"></path>
                <polygon id="Path" stroke="#80C242" stroke-width="1.5" fill="#FFFFFF" points="43.4884677 74.0322581 36.0290323 74.0322581 34.9075806 70.6651613 31.7337903 72.2527419 26.4583065 66.9772581 28.0458871 63.8034677 24.6774194 62.6820161 24.6774194 55.2225806 28.0445161 54.101129 26.4569355 50.9273387 31.7324194 45.6518548 34.9062097 47.2394355 36.0276613 43.8709677 43.4870968 43.8709677 44.6085484 47.2380645 47.7823387 45.6504839 53.0578226 50.9259677 51.4702419 54.0997581 54.8387097 55.2212097 54.8387097 62.6806452 51.4716129 63.8020968 53.0591935 66.9758871 47.7837097 72.251371 44.6099194 70.6637903"></polygon>
                <path d="M39.7580645,52.0967742 C35.9783065,52.0967742 32.9032258,55.1718548 32.9032258,58.9516129 C32.9032258,62.731371 35.9783065,65.8064516 39.7580645,65.8064516 C43.5378226,65.8064516 46.6129032,62.731371 46.6129032,58.9516129 C46.6129032,55.1718548 43.5378226,52.0967742 39.7580645,52.0967742 Z M39.7580645,63.0645161 C37.4904839,63.0645161 35.6451613,61.2191935 35.6451613,58.9516129 C35.6451613,56.6840323 37.4904839,54.8387097 39.7580645,54.8387097 C42.0256452,54.8387097 43.8709677,56.6840323 43.8709677,58.9516129 C43.8709677,61.2191935 42.0256452,63.0645161 39.7580645,63.0645161 Z" id="Shape" fill="#2E3091" fill-rule="nonzero"></path>
            </g>
        </g>
    </g>
</svg>