<?xml version="1.0" encoding="UTF-8"?>
<svg width="85px" height="85px" viewBox="0 0 85 85" version="1.1" xmlns="http://www.w3.org/2000/svg" xmlns:xlink="http://www.w3.org/1999/xlink">
    <!-- Generator: Sketch 52.4 (67378) - http://www.bohemiancoding.com/sketch -->
    <title>customized</title>
    <desc>Created with Sketch.</desc>
    <g id="customized" stroke="none" stroke-width="1" fill="none" fill-rule="evenodd">
        <g id="solution">
            <path d="M69.8214286,34.9107143 C65.6302751,34.9107143 62.2321429,38.3088466 62.2321429,42.5 C62.2321429,46.6911534 65.6302751,50.0892857 69.8214286,50.0892857 C74.012582,50.0892857 77.4107143,46.6911534 77.4107143,42.5 C77.4055262,38.3103289 74.0110997,34.9159023 69.8214286,34.9107143 Z M69.8214286,47.0535714 C67.3067365,47.0535714 65.2678571,45.0146921 65.2678571,42.5 C65.2678571,39.9853081 67.3067365,37.9464286 69.8214286,37.9464286 C72.3361205,37.9464286 74.375,39.9853081 74.375,42.5 C74.375,45.0146921 72.3361205,47.0535714 69.8214286,47.0535714 Z" id="Shape" fill="#80C242" fill-rule="nonzero"></path>
            <path d="M51.6071429,22.7678571 C55.7982963,22.7678571 59.1964286,19.3697249 59.1964286,15.1785714 C59.1964286,10.987418 55.7982963,7.58928571 51.6071429,7.58928571 C47.4159894,7.58928571 44.0178571,10.987418 44.0178571,15.1785714 C44.0230452,19.3682425 47.4174718,22.7626691 51.6071429,22.7678571 Z M51.6071429,10.625 C54.1218349,10.625 56.1607143,12.6638794 56.1607143,15.1785714 C56.1607143,17.6932633 54.1218349,19.7321429 51.6071429,19.7321429 C49.0924509,19.7321429 47.0535714,17.6932633 47.0535714,15.1785714 C47.0535714,12.6638794 49.0924509,10.625 51.6071429,10.625 Z" id="Shape" fill="#008ED3" fill-rule="nonzero"></path>
            <path d="M51.5959462,62.2321515 C48.5645387,62.2358571 45.827306,64.0442041 44.6320822,66.830096 C43.4375996,69.6167291 44.015575,72.8465553 46.1022148,75.0454756 L46.1118479,75.052887 C48.4963672,77.5593744 52.273956,78.1352291 55.2964715,76.4536146 C58.3189871,74.7712592 59.8224645,71.2575816 58.9510553,67.9099162 C58.0796461,64.56151 55.0549074,62.2269636 51.5959462,62.2321515 Z M51.5959462,74.3747568 C50.355522,74.3866148 49.166967,73.8789436 48.3177877,72.9740291 L47.2100012,74.0101229 L48.3059318,72.9599476 C47.4938021,72.1172875 47.0410546,70.9915175 47.0432776,69.8212798 C47.0432776,67.30664 49.0817528,65.2678028 51.5959462,65.2678028 C54.1101397,65.2678028 56.148615,67.30664 56.148615,69.8212798 C56.148615,72.3359197 54.1101397,74.3747568 51.5959462,74.3747568 Z" id="Shape" fill="#008ED3" fill-rule="nonzero"></path>
            <path d="M0.317455464,54.6428571 C8.41269356,53.3093333 12.4603126,49.0087381 12.4603126,41.7410714 C12.4603126,34.4734048 8.41269356,30.1728096 0.317455464,28.8392857 L0.317455464,54.6428571 Z" id="Oval" fill="#80C242"></path>
            <path d="M83.1682939,38.3219385 L80.3536373,37.9663885 L82.0947261,35.7286363 C82.7401118,34.8950996 82.6667884,33.7115466 81.9231767,32.9644763 L78.9480384,29.989338 C78.2016598,29.2450347 77.0181066,29.1717112 76.1852615,29.8177884 L73.9502763,31.5630277 L73.5974932,28.7483714 C73.4653723,27.7010896 72.5744218,26.915974 71.5188391,26.9166657 L67.3144934,26.9166657 C66.647664,26.9249664 66.0257971,27.2549224 65.6439612,27.8020823 L63.7866614,24.7065827 C64.243896,23.9761141 64.2003171,23.0388176 63.6780595,22.3533115 L61.9369708,20.1169427 L64.7516272,19.7641596 C65.7989091,19.6320388 66.5840246,18.7410882 66.5833329,17.6855057 L66.5833329,13.4811602 C66.5826412,12.426961 65.7975257,11.5373941 64.7516272,11.4052733 L61.9369708,11.0497233 L63.6780595,8.81197105 C64.3234452,7.97843437 64.2501218,6.79488132 63.5065101,6.04781105 L60.5313718,3.07267273 C59.7849932,2.32906125 58.6014401,2.25573759 57.7685951,2.90112327 L55.5336096,4.64636247 L55.1808265,1.83170609 C55.0487057,0.784424332 54.1577552,-0.000691275 53.1021726,4.56733692e-07 L48.8978269,4.56733692e-07 C47.8436276,0.000692188467 46.9540607,0.785807707 46.8219399,1.83170609 L46.4663898,4.64636247 L44.2286376,2.90527374 C43.3951007,2.25988808 42.2115476,2.33321155 41.4644773,3.07682322 L38.4893389,6.05196136 C37.7457273,6.79833993 37.6724037,7.98189297 38.3177895,8.81473798 L40.0630288,11.0497233 L37.2483721,11.4025064 C36.2010903,11.5346272 35.4159748,12.4255776 35.4166665,13.4811602 L35.4166665,14.6245929 L22.7088621,19.7143549 L20.3279215,17.3327225 C19.3173014,16.3221024 17.7117918,16.222493 16.5835774,17.1003006 L10.5641276,21.7826326 C10.2286377,21.6332186 9.90283197,21.4976393 9.58671061,21.374511 L8.64180492,13.8284096 C8.4709473,12.4075925 7.26733386,11.3374837 5.83683275,11.3333332 L2.83333332,11.3333332 L2.83333332,4.56733692e-07 L0,0 L0,85 L2.83333332,84.9999959 L2.83333332,73.6666631 L5.83683275,73.6666631 C7.26525879,73.6632045 8.46748852,72.5965541 8.64180492,71.1791958 L9.58394368,63.6254853 C9.90006505,63.5023571 10.2258708,63.3667778 10.5613606,63.2173637 L16.5676675,67.8920867 C17.7034911,68.775428 19.3186848,68.6751269 20.3362222,67.6582812 L23.2587889,64.7419403 L35.4166665,69.9409961 L35.4166665,71.5133023 C35.4166665,72.5737271 36.2066243,73.4681361 37.2580565,73.6002569 L40.0644123,73.9454311 L38.332316,76.1755743 C37.6765542,77.0077276 37.7484942,78.1995812 38.4990233,78.9466514 L41.4741616,81.9217898 C42.2191567,82.6695518 43.4054766,82.7442588 44.2383216,82.096106 L46.4663898,80.3564008 L46.813639,83.1641398 C46.9478351,84.2148803 47.8436276,85.0020711 48.9033607,84.9999959 L53.0966387,84.9999959 C54.1570635,84.9999959 55.0514726,84.2100382 55.1835934,83.158606 L55.5287677,80.3522504 L57.7589108,82.0843465 C58.5917559,82.738725 59.7822263,82.6674764 60.5299883,81.9176392 L63.5051267,78.9425011 C64.2542721,78.1981978 64.3289792,77.0111862 63.6794429,76.1783412 L61.9397377,73.9502731 L64.7474768,73.6030239 C65.7982174,73.4688278 66.5854081,72.5730354 66.5833329,71.5133023 L66.5833329,67.3200244 C66.5826412,66.2602915 65.7933753,65.3658823 64.7419429,65.2344532 L61.9397377,64.8830536 L63.671834,62.6536023 C64.203084,61.9680961 64.2487383,61.0238823 63.785278,60.2906466 L65.6439612,57.1937636 C66.0244138,57.742307 66.6462806,58.0736464 67.3144934,58.0833307 L71.5188391,58.0833307 C72.5730384,58.082639 73.4626053,57.2975234 73.5947261,56.2516251 L73.9502763,53.4369687 L76.1880284,55.1780574 C77.0215653,55.8248266 78.2058101,55.751503 78.9521887,55.0065079 L81.9273271,52.0313698 C82.6709387,51.2849912 82.7442623,50.1014381 82.0988765,49.2685931 L80.3536373,47.0336078 L83.1682939,46.6808247 C84.2155757,46.5487039 85.0006912,45.6577535 84.9999995,44.602171 L84.9999995,40.3978254 C84.9993079,39.3436262 84.2141923,38.4540593 83.1682939,38.3219385 Z M58.6470945,31.2386056 L56.0731606,26.9491771 L57.7727455,28.2683094 C58.6062822,28.9150785 59.790527,28.8417551 60.5369056,28.0967599 L61.7737221,26.8585602 L64.3476559,31.1479886 L62.6480709,29.829548 C61.8145341,29.1841624 60.6316728,29.2574859 59.8839108,30.0004056 L58.6470945,31.2386056 Z M38.2499998,14.1355385 L41.6090493,13.7108151 C42.1465248,13.6430255 42.5982257,13.2750242 42.7732339,12.7624509 C42.8935951,12.4172769 43.0354003,12.0804035 43.1986487,11.7525227 C43.4366045,11.2662352 43.3764239,10.686564 43.0437008,10.2597655 L40.9615883,7.59037273 L43.0070391,5.54492204 L45.6819659,7.62288417 C46.1094561,7.95560709 46.6884357,8.01578779 47.1747231,7.77783208 C47.502604,7.61458338 47.8394773,7.47277842 48.1853432,7.352417 C48.6979165,7.17740892 49.0652261,6.72570815 49.1330157,6.18823246 L49.5522052,2.83333364 L52.4477942,2.83333364 L52.8725177,6.19238293 C52.9403073,6.72985846 53.3083086,7.1815594 53.8208819,7.35656749 C54.166056,7.47692872 54.5036211,7.61873386 54.8308102,7.78198237 C55.3170976,8.01993809 55.8967689,7.95975756 56.3235675,7.62703447 L58.9984942,5.54907252 L61.043945,7.5945232 L58.9604488,10.2652994 C58.6277259,10.6927895 58.5675453,11.2717691 58.805501,11.7580566 C58.9687497,12.0859373 59.1105546,12.4228107 59.2309161,12.7686766 C59.4059241,13.2812497 59.8576249,13.6485593 60.3951007,13.716349 L63.7541501,14.1410723 L63.7541501,17.0366613 L60.3951007,17.4620764 C59.8576249,17.5291743 59.4059241,17.8971756 59.2309161,18.409749 C59.1105546,18.7549229 58.9687497,19.092488 58.805501,19.4196771 C58.5675453,19.9059645 58.6277259,20.4856358 58.9604488,20.9131259 L61.0384112,23.587361 L58.9929603,25.6335033 L56.3180335,23.5548495 C55.8933102,23.2186678 55.313639,23.1543368 54.8252763,23.3888339 C54.4973956,23.5520825 54.1605221,23.6938875 53.8146563,23.8142489 C53.3020831,23.9892571 52.9347735,24.4409578 52.8669839,24.9784335 L52.4477942,28.3333323 L49.5522052,28.3333323 L49.1274817,24.974283 C49.0596921,24.4368074 48.6916908,23.9851065 48.1791174,23.8100985 C47.8339435,23.6897372 47.49707,23.547932 47.1691893,23.3846835 C46.6829018,23.1467278 46.1032304,23.2069084 45.6764321,23.5396315 L43.0015053,25.6175934 L40.9560545,23.5721428 L43.0340167,20.897216 C43.3667397,20.4718012 43.4289955,19.8948968 43.1944984,19.4086093 C43.0312497,19.0807287 42.8894448,18.7438551 42.7690834,18.3979894 C42.5940753,17.8854162 42.1423745,17.5181066 41.6048988,17.4503169 L38.2499998,17.0311275 L38.2499998,14.1355385 Z M2.83333332,30.6637764 C8.16589346,31.6930733 12.0188395,36.3608789 12.0188395,41.7916649 C12.0188395,47.2224508 8.16589346,51.8902565 2.83333332,52.9195533 L2.83333332,30.6637764 Z M18.3115233,65.6557181 L11.6169432,60.4504368 C11.19222,60.1197889 10.6166992,60.0582248 10.1317952,60.29203 C9.38749186,60.6579561 8.61966951,60.976153 7.83386223,61.2438529 C7.31575517,61.416786 6.94360357,61.8719453 6.87650545,62.4142629 L5.83683275,70.83333 L2.83333332,70.83333 L2.83333332,55.8026913 C9.77071117,54.7650937 14.9047444,48.8065164 14.9047444,41.7916649 C14.9047444,34.7768135 9.77071117,28.8182362 2.83333332,27.7806386 L2.83333332,14.1666664 L5.83406563,14.1666664 L6.88203931,22.5815828 C6.94913742,23.1239006 7.3219807,23.5790601 7.84008794,23.7519929 C8.62520336,24.0196931 9.39302571,24.3378897 10.1373291,24.7038158 C10.622233,24.9369293 11.1977538,24.876057 11.6224771,24.5454093 L18.3246663,19.3318273 L24.571004,25.6003002 L19.3671061,32.2997221 C19.0364582,32.7244454 18.9748941,33.2999661 19.2086993,33.78487 C19.5746254,34.5291734 19.8928223,35.2969957 20.1605224,36.082803 C20.3334553,36.60091 20.7886147,36.9730615 21.3309324,37.0401596 L29.7499998,38.0798323 L29.7499998,46.9173969 L21.3350829,47.9653705 C20.7927653,48.0324686 20.3376056,48.405312 20.1646728,48.9234192 C19.8969726,49.7085346 19.578776,50.4763569 19.2128499,51.2206602 C18.9797364,51.7055641 19.0406087,52.2810849 19.3712564,52.7058081 L24.5848387,59.4079971 L18.3115233,65.6557181 Z M26.8115233,57.6682916 L22.1368,51.648842 C22.2862141,51.3133522 22.4217936,50.9875466 22.5449217,50.6714251 L30.0917155,49.73067 C31.5132241,49.5584288 32.5826415,48.3520486 32.5833332,46.9201641 L32.5833332,38.0798323 C32.5798745,36.6514064 31.5132241,35.4491767 30.0958658,35.2748602 L22.5421548,34.3327216 C22.4190266,34.0172919 22.2834473,33.6914861 22.1340332,33.3553046 L26.8087564,27.348998 C27.6914061,26.2131746 27.591105,24.5979809 26.574951,23.5804435 L24.8905842,21.8974602 L35.4166665,17.677205 L35.4166665,17.6855057 C35.4173582,18.7397049 36.2024737,19.6292718 37.2483721,19.7613926 L40.0630288,20.114176 L38.3219399,22.3519279 C37.6765542,23.1854647 37.7498776,24.3690176 38.4934893,25.1160879 L41.4686276,28.0912261 C42.2150062,28.8355296 43.3985594,28.9088531 44.2314045,28.2627755 L46.4663898,26.5203034 L46.819173,29.3349599 C46.9512938,30.3822415 47.8422442,31.1673571 48.8978269,31.1666654 L53.1021726,31.1666654 C53.769002,31.1583647 54.3908689,30.8284087 54.7727048,30.2812488 L56.6300046,33.3767484 C56.17277,34.107217 56.2163489,35.0445137 56.7386065,35.7300197 L58.4796952,37.9663885 L55.6650388,38.3191716 C54.6177569,38.4512924 53.8326414,39.3422429 53.8333331,40.3978254 L53.8333331,44.602171 C53.8340248,45.6563701 54.6191403,46.545937 55.6650388,46.6780578 L58.4796952,47.0308411 L56.7386065,49.2685931 C56.2163489,49.954791 56.17277,50.8920876 56.6300046,51.6232479 L54.7727048,54.7173642 C54.3881018,54.1702043 53.7648516,53.8416317 53.0966387,53.833331 L48.9033607,53.833331 C47.8429359,53.833331 46.9485268,54.6232886 46.8164059,55.6747209 L46.4663898,58.476926 L44.2369383,56.7448297 C43.4047849,56.0890681 42.2136227,56.1610081 41.4658607,56.911537 L38.4907224,59.8866753 C37.7415769,60.6309787 37.6668699,61.8179904 38.3164061,62.6508354 L40.0602618,64.8830536 L37.2525227,65.2303029 C36.3726399,65.3499725 35.6663816,66.0161102 35.4962157,66.8876921 L25.4176837,62.5726696 L26.5839435,61.4071016 C27.5924884,60.3964816 27.6920978,58.7937393 26.8163654,57.6669082 L26.8115233,57.6682916 Z M60.5286049,56.9129206 C59.7836096,56.1644667 58.5972898,56.0897599 57.7644447,56.7386042 L56.0759274,58.0535861 L58.6498614,53.7683081 L59.8866777,55.0065079 C60.6330564,55.751503 61.8166093,55.8248266 62.6494543,55.1780574 L64.3490393,53.8589249 L61.7668046,58.1497369 L60.5286049,56.9129206 Z M63.7499997,67.966102 L63.7499997,70.8672249 L60.3881832,71.2822639 C59.8341062,71.3521289 59.372721,71.7401903 59.2094723,72.2742072 C59.099487,72.6110805 58.9639076,72.9389614 58.8041174,73.2557746 C58.5716956,73.7399867 58.6332599,74.3148157 58.9632159,74.7388475 L61.0397946,77.4096237 L58.9888098,79.4606081 L56.3180335,77.3840296 C55.894002,77.0540734 55.3191728,76.9925094 54.8349606,77.2256228 C54.5181476,77.3847213 54.1902666,77.5203007 53.8533932,77.630286 C53.3193763,77.7935349 52.9306231,78.2549197 52.8614499,78.8089968 L52.4505611,82.1666627 L49.5494383,82.1666627 L49.1343992,78.8048465 C49.0645342,78.2507694 48.6764726,77.7893843 48.1424557,77.6261356 C47.8055825,77.5161503 47.4777015,77.3805709 47.1608883,77.2207807 C46.6766763,76.9883588 46.1018471,77.0499231 45.6778155,77.3798792 L43.0070391,79.4564577 L40.9560545,77.4054731 L43.0326331,74.7346969 C43.3625893,74.3106655 43.4241534,73.7358364 43.1910398,73.2516242 C43.0319414,72.9348112 42.896362,72.6069302 42.7863768,72.2700568 C42.623128,71.7360399 42.161743,71.3472868 41.6076659,71.2781135 L38.2499998,70.8672249 L38.2499998,67.966102 L41.6118162,67.5510629 C42.1658932,67.4811979 42.6272784,67.0931365 42.7905271,66.5591196 C42.9005126,66.2222464 43.036092,65.8943654 43.1958819,65.5775522 C43.4283038,65.0933402 43.3667397,64.5185111 43.0367837,64.0944793 L40.960205,61.4237032 L43.0111895,59.3727186 L45.6819659,61.4492973 C46.1059975,61.7792534 46.6808265,61.8408174 47.1650388,61.6077039 C47.4818518,61.4486056 47.8097328,61.3130262 48.1466062,61.2030409 C48.6806232,61.039792 49.0693763,60.5784071 49.1385495,60.0243301 L49.5494383,56.666664 L52.4519448,56.666664 L52.8656002,60.0243301 C52.9333901,60.5797905 53.3221432,61.0432507 53.8575437,61.2071912 C54.1944169,61.3171766 54.5222978,61.452756 54.8391111,61.6125461 C55.3233231,61.844968 55.8981523,61.7834037 56.3221841,61.4534477 L58.9929603,59.3768692 L61.043945,61.4278537 L58.9673663,64.0986298 C58.6374101,64.5226614 58.575846,65.0974904 58.8089596,65.5817026 C58.968058,65.8985157 59.1036374,66.2263967 59.2136227,66.56327 C59.3768716,67.0972869 59.8382564,67.4860401 60.3923336,67.5552132 L63.7499997,67.966102 Z M82.1666662,43.9477927 L78.8076167,44.372516 C78.2701412,44.4403056 77.8184403,44.8083069 77.6434321,45.3208803 C77.5230709,45.6660543 77.3812657,46.0029277 77.2180173,46.3308084 C76.9800615,46.8170958 77.0402421,47.3967671 77.3729652,47.8235656 L79.4509272,50.4984923 L77.4054765,52.5439429 L74.7305497,50.4659808 C74.3051347,50.1332579 73.7282303,50.0710019 73.2419429,50.305499 C72.914062,50.4687477 72.5771887,50.6105528 72.2313228,50.7309141 C71.7187495,50.9059222 71.35144,51.3576229 71.2836503,51.8950987 L70.8644608,55.2499976 L67.9688718,55.2499976 L67.5441483,51.8909481 C67.4763587,51.3534727 67.1083574,50.9017717 66.5957841,50.7267637 C66.25061,50.6064023 65.9137366,50.4645973 65.5858558,50.3013487 C65.0995684,50.063393 64.5198971,50.1235735 64.0930986,50.4562967 L61.4181718,52.5342587 L59.372721,50.4888079 L61.4506832,47.8138813 C61.7834062,47.3884664 61.8456621,46.811562 61.611165,46.3252746 C61.4479163,45.9973938 61.3061114,45.6605204 61.1857499,45.3146546 C61.0107419,44.8020814 60.5590411,44.4347718 60.0215653,44.3669822 L56.6666663,43.9477927 L56.6666663,41.0522037 L60.0257159,40.6274804 C60.5631914,40.5596907 61.0148923,40.1916895 61.1899005,39.6791161 C61.3102617,39.333942 61.4520667,38.9970686 61.6153153,38.669188 C61.853271,38.1829005 61.7930905,37.6032292 61.4603674,37.1764307 L59.3824054,34.5015041 L61.4278562,32.4560535 L64.1027829,34.5340155 C64.5302731,34.8667385 65.1092526,34.9269192 65.5962317,34.6882717 C65.923421,34.5257147 66.2609861,34.3839098 66.6061601,34.2635484 C67.1187335,34.0885402 67.4867346,33.6361476 67.5538327,33.0986721 L67.9785559,29.7403146 L70.8741452,29.7403146 L71.2995601,33.0986721 C71.3666581,33.6361476 71.7346594,34.0885402 72.2472326,34.2635484 C72.5924069,34.3839098 72.9299719,34.5257147 73.2571611,34.6882717 C73.7434485,34.9269192 74.3231196,34.8667385 74.75061,34.5340155 L77.4248449,32.4560535 L79.4709875,34.5015041 L77.3923335,37.1764307 C77.0526934,37.6018459 76.9862871,38.1842839 77.2221676,38.6747218 C77.3854163,39.0026026 77.5272212,39.339476 77.6475826,39.6853419 C77.8225907,40.1979149 78.2742915,40.5652245 78.8117673,40.6330142 L82.1708167,41.0577376 L82.1666662,43.9477927 Z" id="Shape" fill="#2E3091" fill-rule="nonzero"></path>
        </g>
    </g>
</svg>