<?xml version="1.0" encoding="UTF-8"?>
<svg width="85px" height="85px" viewBox="0 0 85 85" version="1.1" xmlns="http://www.w3.org/2000/svg" xmlns:xlink="http://www.w3.org/1999/xlink">
    <!-- Generator: Sketch 52.4 (67378) - http://www.bohemiancoding.com/sketch -->
    <title>hiring</title>
    <desc>Created with Sketch.</desc>
    <g id="hiring" stroke="none" stroke-width="1" fill="none" fill-rule="evenodd">
        <g fill-rule="nonzero">
            <path d="M81.5204678,53.7890625 L46.3937622,53.7890625 C45.4786452,53.7890625 44.7368421,53.0458105 44.7368421,52.1289063 L44.7368421,3.3203125 C44.7368421,2.4034082 45.4786452,1.66015625 46.3937622,1.66015625 L81.5204678,1.66015625 C82.4355848,1.66015625 83.1773879,2.4034082 83.1773879,3.3203125 L83.1773879,52.1289063 C83.1773879,53.0458105 82.4355848,53.7890625 81.5204678,53.7890625 Z" id="Path" fill="#FFFFFF"></path>
            <path d="M46.3937622,53.7890625 C45.4786452,53.7890625 44.7368421,53.0458105 44.7368421,52.1289063 L44.7368421,4.92634766 L22.4474561,17.8202832 C21.6549513,18.2786523 21.3833821,19.2940039 21.8410234,20.0880566 L46.1977485,62.3574609 C46.6552242,63.1515137 47.6685965,63.4236133 48.4611014,62.9650781 L64.3237914,53.7890625 L46.3937622,53.7890625 Z" id="Path" fill="#DFF3FF"></path>
            <ellipse id="Oval" fill="#FFFFFF" cx="63.957115" cy="18.9257812" rx="10.6042885" ry="10.625"></ellipse>
            <path d="M67.3195029,17.5652832 L67.3195029,18.4074805 C67.3195029,20.2680176 65.814191,21.7764355 63.957115,21.7764355 C62.1002047,21.7764355 60.5947271,20.2681836 60.5947271,18.4074805 L60.5947271,17.5652832 C60.5947271,15.7047461 62.100039,14.1963281 63.957115,14.1963281 C65.8140253,14.1963281 67.3195029,15.7047461 67.3195029,17.5652832 Z" id="Path" fill="#FFFFFF"></path>
            <path d="M63.957115,21.7764355 C60.674922,21.7764355 57.8707505,23.8194238 56.7369201,26.7044434 C58.630117,28.4695215 61.1670273,29.5507812 63.957115,29.5507812 C66.7472027,29.5507812 69.2841131,28.4695215 71.1773099,26.7044434 C70.0434795,23.8192578 67.239308,21.7764355 63.957115,21.7764355 Z" id="Path" fill="#FFFFFF"></path>
            <path d="M63.957115,6.640625 C57.1962183,6.640625 51.6959064,12.1516797 51.6959064,18.9257812 C51.6959064,22.4200781 53.1619493,25.5758691 55.5073197,27.8150879 C55.5673002,27.8818262 55.6317544,27.9450781 55.7028363,28.0018555 C57.8830117,29.994209 60.7807992,31.2109375 63.957115,31.2109375 C67.1334308,31.2109375 70.0312183,29.994209 72.2115595,28.0018555 C72.2826413,27.9449121 72.3470955,27.8818262 72.407076,27.8150879 C74.7522807,25.5758691 76.2183236,22.4200781 76.2183236,18.9257812 C76.2183236,12.1516797 70.7180117,6.640625 63.957115,6.640625 Z M58.8183431,26.2578613 C59.9238402,24.5151953 61.8344347,23.4365918 63.957115,23.4365918 C66.0797953,23.4365918 67.9903899,24.5153613 69.0958869,26.2578613 C67.6404483,27.285 65.868538,27.890625 63.957115,27.890625 C62.045692,27.890625 60.2737817,27.285 58.8183431,26.2578613 Z M62.2518129,18.4074805 L62.2518129,17.5652832 C62.2518129,16.6231445 63.0168129,15.8566504 63.957115,15.8566504 C64.8974172,15.8566504 65.6624172,16.6231445 65.6624172,17.5652832 L65.6624172,18.4074805 C65.6624172,19.3497852 64.8974172,20.1162793 63.957115,20.1162793 C63.0168129,20.1162793 62.2518129,19.3497852 62.2518129,18.4074805 Z M71.4452339,23.8240723 C70.574191,22.67375 69.4582554,21.749707 68.185575,21.111709 C68.6853021,20.3301074 68.9762573,19.4024121 68.9762573,18.4074805 L68.9762573,17.5652832 C68.9762573,14.7923242 66.7246686,12.5363379 63.957115,12.5363379 C61.1895614,12.5363379 58.9379727,14.7923242 58.9379727,17.5652832 L58.9379727,18.4074805 C58.9379727,19.4025781 59.2290936,20.3301074 59.728655,21.111709 C58.4559747,21.749707 57.340039,22.673584 56.4689961,23.8240723 C55.5477485,22.4149316 55.0097466,20.7325293 55.0097466,18.9257812 C55.0097466,13.9825 59.0234698,9.9609375 63.957115,9.9609375 C68.8907602,9.9609375 72.9044834,13.9825 72.9044834,18.9257812 C72.9044834,20.7325293 72.3664815,22.4149316 71.4452339,23.8240723 Z" id="Shape" fill="#008ED3"></path>
            <path d="M81.5204678,55.4492188 C83.3477193,55.4492188 84.834308,53.9597266 84.834308,52.1289062 L84.834308,3.3203125 C84.834308,1.48949219 83.3477193,0 81.5204678,0 L46.3937622,0 C44.5665107,0 43.079922,1.48949219 43.079922,3.3203125 L43.079922,52.1289062 C43.079922,53.9597266 44.5665107,55.4492188 46.3937622,55.4492188 L58.14,55.4492188 L47.6324756,61.5275488 C47.6323099,61.5275488 47.6323099,61.5277148 47.6321442,61.5277148 L39.7316179,53.5745703 C37.8538304,51.6931152 35.3573489,50.6570117 32.7018031,50.6570117 L19.9244639,50.6570117 L19.9244639,47.7294922 C19.9244639,45.8986719 18.4378752,44.4091797 16.6106238,44.4091797 L1.65692008,44.4091797 C0.741803119,44.4091797 0,45.1525977 0,46.0693359 L0,83.3398438 C0,84.256582 0.741803119,85 1.65692008,85 L16.6106238,85 C18.4378752,85 19.9244639,83.5105078 19.9244639,81.6796875 L19.9244639,78.8708691 L24.8803119,81.8782422 C28.245848,83.9205664 32.1043177,85 36.0390058,85 L60.5622515,85 C65.4819786,85 70.2968226,83.2913672 74.1196686,80.1888672 L82.5976316,73.3088477 C83.9246589,72.2317383 84.7370468,70.6340039 84.8261891,68.9252051 C84.9154971,67.2164063 84.2739376,65.5424707 83.06654,64.3327148 C80.8802339,62.1421387 77.4459357,61.8285352 74.900575,63.5874707 C74.8818519,63.6004199 74.86346,63.6137012 74.8453996,63.6273145 L65.5573684,70.6258691 C64.8260039,71.176875 64.6790351,72.217793 65.2289669,72.9505859 C65.7788986,73.6832129 66.8176218,73.8308008 67.5489864,73.2794629 L76.807193,66.3033203 C78.0329825,65.4735742 79.6751559,65.6299609 80.7233236,66.6803418 C81.2759064,67.2340039 81.5577485,67.9696191 81.5169883,68.7515527 C81.4762281,69.5334863 81.1191618,70.2357324 80.5119006,70.7286328 L72.0339376,77.6086523 C68.7991326,80.2338574 64.7250975,81.6796875 60.5622515,81.6796875 L36.0390058,81.6796875 C32.7097563,81.6796875 29.4447953,80.7662695 26.5972125,79.0382129 L19.9246296,74.9889258 L19.9246296,53.9774902 L32.7021345,53.9774902 C34.4723879,53.9774902 36.1367641,54.6682812 37.3859162,55.919873 L46.200731,64.7932422 C47.4525341,66.0474902 49.1169103,66.7382812 50.8871637,66.7382812 L57.3882554,66.7382812 C58.7568713,66.7382812 59.8701559,67.8539063 59.8701559,69.2250293 C59.8701559,70.5961523 58.7567057,71.7117773 57.3882554,71.7117773 L44.9025341,71.7117773 C43.7574366,71.7117773 42.6449805,71.3812402 41.6852924,70.7556934 L36.3680702,67.2906152 L36.3486842,67.277998 C35.5823587,66.7771289 34.555731,66.9929492 34.0555068,67.7607715 C33.5552827,68.5285937 33.7710136,69.5572266 34.5373392,70.0584277 L39.8784211,73.5391113 C41.3771053,74.5159473 43.114386,75.0320898 44.9025341,75.0320898 L57.3880897,75.0320898 C60.5839571,75.0320898 63.1838304,72.4271387 63.1838304,69.2250293 C63.1838304,66.0229199 60.5837914,63.4179688 57.3880897,63.4179688 L50.9923782,63.4179688 L64.7676803,55.4492188 L81.5204678,55.4492188 Z M16.6106238,81.6796875 L3.31384016,81.6796875 L3.31384016,47.7294922 L16.6106238,47.7294922 L16.6109552,52.3116895 C16.6109552,52.3135156 16.6106238,52.3153418 16.6106238,52.317334 C16.6106238,52.3193262 16.6109552,52.3209863 16.6109552,52.3229785 L16.6124464,75.8434082 C16.6104581,75.8854102 16.6112865,75.9272461 16.6124464,75.968916 L16.6127778,81.6796875 C16.6127778,81.6796875 16.612115,81.6796875 16.6106238,81.6796875 Z M46.3937622,3.3203125 L81.5204678,3.3203125 L81.5226218,52.1289062 C81.5226218,52.1289062 81.5219591,52.1289062 81.5204678,52.1289062 L46.3937622,52.1289062 L46.3937622,3.3203125 Z" id="Shape" fill="#2E3091"></path>
            <path d="M34.8823099,46.0409473 C35.1891715,46.5735254 35.7460624,46.8713574 36.318694,46.8713574 C36.5997076,46.8713574 36.8846979,46.7994727 37.1456628,46.6485645 C37.9381676,46.1900293 38.2097368,45.1748438 37.7520955,44.380791 L23.2757505,19.2579785 L38.1920078,10.6293164 C38.9845127,10.1709473 39.2560819,9.1555957 38.7984405,8.36154297 C38.3409649,7.56749023 37.3274269,7.29539062 36.5350877,7.75392578 L21.6188304,16.3825879 C20.0364717,17.2981641 19.4925049,19.3328516 20.4059649,20.9181348 L34.8823099,46.0409473 Z" id="Path" fill="#2E3091"></path>
            <path d="M74.2300195,35.1953125 L55.0097466,35.1953125 C54.0946296,35.1953125 53.3528265,35.9385645 53.3528265,36.8554688 C53.3528265,37.772373 54.0946296,38.515625 55.0097466,38.515625 L74.2300195,38.515625 C75.1451365,38.515625 75.8869396,37.772373 75.8869396,36.8554688 C75.8869396,35.9385645 75.1451365,35.1953125 74.2300195,35.1953125 Z" id="Path" fill="#80C242"></path>
            <path d="M74.2300195,42.5 C73.7942495,42.5 73.3667641,42.6774707 73.058577,42.9864258 C72.7503899,43.2952148 72.5730994,43.7235352 72.5730994,44.1601562 C72.5730994,44.5967773 72.7503899,45.0250977 73.058577,45.3337207 C73.3667641,45.6425098 73.7942495,45.8203125 74.2300195,45.8203125 C74.6657895,45.8203125 75.0932749,45.6426758 75.401462,45.3337207 C75.7096491,45.0250977 75.8869396,44.5967773 75.8869396,44.1601562 C75.8869396,43.7235352 75.7096491,43.2952148 75.401462,42.9864258 C75.0932749,42.6776367 74.6657895,42.5 74.2300195,42.5 Z" id="Path" fill="#80C242"></path>
            <path d="M67.3193372,42.5 L55.0097466,42.5 C54.0946296,42.5 53.3528265,43.243418 53.3528265,44.1601562 C53.3528265,45.0768945 54.0946296,45.8203125 55.0097466,45.8203125 L67.3193372,45.8203125 C68.2344542,45.8203125 68.9762573,45.0768945 68.9762573,44.1601562 C68.9762573,43.243418 68.2344542,42.5 67.3193372,42.5 Z" id="Path" fill="#80C242"></path>
            <path d="M9.96223197,61.1845605 C9.04711501,61.1845605 8.30531189,61.9279785 8.30531189,62.8447168 L8.30531189,69.339248 C8.30531189,70.2559863 9.04711501,70.9994043 9.96223197,70.9994043 C10.8773489,70.9994043 11.619152,70.2559863 11.619152,69.339248 L11.619152,62.8447168 C11.619152,61.9278125 10.8773489,61.1845605 9.96223197,61.1845605 Z" id="Path" fill="#80C242"></path>
            <path d="M9.96140351,73.3938477 C9.52563353,73.3938477 9.09980507,73.5714844 8.78996101,73.8802734 C8.48177388,74.1890625 8.30614035,74.6173828 8.30614035,75.0540039 C8.30614035,75.4922852 8.48177388,75.9189453 8.78996101,76.2277344 C9.09814815,76.5363574 9.52563353,76.7141602 9.96140351,76.7141602 C10.3988304,76.7141602 10.8246589,76.5365234 11.1345029,76.2277344 C11.4426901,75.9189453 11.6183236,75.4921191 11.6183236,75.0540039 C11.6183236,74.6173828 11.4426901,74.1890625 11.1345029,73.8802734 C10.8246589,73.5714844 10.3988304,73.3938477 9.96140351,73.3938477 Z" id="Path" fill="#80C242"></path>
        </g>
    </g>
</svg>