<?xml version="1.0" encoding="UTF-8"?>
<svg width="85px" height="85px" viewBox="0 0 85 85" version="1.1" xmlns="http://www.w3.org/2000/svg" xmlns:xlink="http://www.w3.org/1999/xlink">
    <!-- Generator: Sketch 52.4 (67378) - http://www.bohemiancoding.com/sketch -->
    <title>Industry 4.0</title>
    <desc>Created with Sketch.</desc>
    <g id="Industry-4.0" stroke="none" stroke-width="1" fill="none" fill-rule="evenodd">
        <g id="Industry4.0-Copy" fill-rule="nonzero">
            <polygon id="Path" fill="#DAF6C0" points="51.7916067 72.8571429 49.9206349 64.8244478 67.0613204 56.6666667 74.2063492 61.9801014"></polygon>
            <path d="M26.984127,18.8888889 L0,18.8888889 L0,17.5396825 C0,13.8199206 3.02626984,10.7936508 6.74603175,10.7936508 L26.984127,10.7936508 L26.984127,18.8888889 Z" id="Path" fill="#DAF6C0"></path>
            <path d="M26.984127,29.6825397 L6.74603175,29.6825397 C3.02626984,29.6825397 0,26.6562698 0,22.9365079 L0,21.5873016 L26.984127,21.5873016 L26.984127,29.6825397 Z" id="Path" fill="#DAF6C0"></path>
            <path d="M33.7301587,72.2303241 L33.7301587,64.0395172 L30.1955192,63.7218915 C29.9818948,63.0711806 29.7190807,62.4387401 29.411293,61.827381 L31.6852679,59.1036706 L25.8935185,53.3119213 L23.1698082,55.5858962 C22.5584491,55.2781085 21.9260086,55.0166997 21.2752976,54.80167 L20.9604828,51.2698413 L12.7696759,51.2698413 L12.4520503,54.8044808 C11.8013393,55.0181052 11.1688988,55.2809193 10.5575397,55.588707 L7.83382937,53.3147321 L2.04208003,59.1064815 L4.31605489,61.8301918 C4.0082672,62.4415509 3.74685847,63.0739914 3.5318287,63.7247024 L0,64.0395172 L0,72.2303241 L3.53463955,72.5479497 C3.74826389,73.1986607 4.01107804,73.8311012 4.31886574,74.4424603 L2.04489087,77.1661706 L7.83664021,82.95792 L10.5603505,80.6839451 C11.1717097,80.9917328 11.8041501,81.2531415 12.4548611,81.4681713 L12.7696759,85 L20.9604828,85 L21.2781085,81.4653604 C21.9288194,81.2517361 22.5612599,80.988922 23.172619,80.6811343 L25.8963294,82.9551091 L31.6880787,77.1633598 L29.4141038,74.4396495 C29.7218915,73.8282903 29.9833003,73.1958499 30.19833,72.5451389 L33.7301587,72.2303241 Z M16.8650794,75.162037 C12.9847057,75.162037 9.83796296,72.0152943 9.83796296,68.1349206 C9.83796296,64.254547 12.9847057,61.1078042 16.8650794,61.1078042 C20.745453,61.1078042 23.8921958,64.254547 23.8921958,68.1349206 C23.8921958,72.0152943 20.745453,75.162037 16.8650794,75.162037 Z" id="Shape" stroke="#008ED3" stroke-width="1.75" fill="#FFFFFF" stroke-linecap="round" stroke-linejoin="round"></path>
            <g id="Group" transform="translate(14.841270, 0.000000)">
                <polygon id="Path" fill="#80C242" points="31.7063492 45.2419355 28.9597506 45.2419355 28.9597506 47.983871 26.2131519 47.983871 26.2131519 50.7258065 28.9597506 50.7258065 28.9597506 53.4677419 31.7063492 53.4677419 31.7063492 50.7258065 34.4529478 50.7258065 34.4529478 47.983871 31.7063492 47.983871"></polygon>
                <path d="M70.1587302,26.0483871 L70.1587302,12.3387097 L63.2922336,12.3387097 L63.2922336,7.1783871 L66.8875312,0 L51.45714,0 L55.0524376,7.1783871 L55.0524376,12.3387097 L51.5422846,12.3387097 C50.5892149,10.7072581 48.8368849,9.59677419 46.8126417,9.59677419 L24.8398526,9.59677419 C21.8103543,9.59677419 19.3466553,12.0562903 19.3466553,15.0806452 L0.120464853,15.0806452 L0.120464853,23.3064516 L19.3466553,23.3064516 C19.3466553,26.3308065 21.8103543,28.7903226 24.8398526,28.7903226 L25.7187642,28.7903226 L21.1731434,43.3143548 C20.0209453,45.0472581 19.3466553,47.1229032 19.3466553,49.3548387 C19.3466553,55.4021774 24.2754266,60.3225806 30.3330499,60.3225806 C30.8755031,60.3225806 31.4055967,60.2704839 31.9274504,60.1937097 L34.150822,71.2903226 L32.2309495,71.2903226 L29.4843509,76.7741935 L26.2131519,76.7741935 L26.2131519,85 L70.1587302,85 L70.1587302,76.7741935 L66.8875312,76.7741935 L64.1409325,71.2903226 L61.9189342,71.2903226 L61.9189342,60.9175806 L41.5254393,48.7022581 L46.5105159,28.7903226 L46.8126417,28.7903226 C48.8368849,28.7903226 50.5892149,27.6798387 51.5422846,26.0483871 L55.0524376,26.0483871 L55.0524376,29.8377419 L51.45714,37.016129 L66.8875312,37.016129 L63.2922336,29.8377419 L63.2922336,26.0483871 L70.1587302,26.0483871 Z M2.86706349,20.5645161 L2.86706349,17.8225806 L19.3466553,17.8225806 L19.3466553,20.5645161 L2.86706349,20.5645161 Z M22.093254,49.3548387 C22.093254,44.8183065 25.7888024,41.1290323 30.3330499,41.1290323 C34.8772973,41.1290323 38.5728458,44.8183065 38.5728458,49.3548387 C38.5728458,53.891371 34.8772973,57.5806452 30.3330499,57.5806452 C25.7888024,57.5806452 22.093254,53.891371 22.093254,49.3548387 Z M41.0777438,51.6320161 L57.5738152,61.5125806 L36.8369955,70.7131452 L34.5834113,59.4670968 C37.8573569,58.0906452 40.3251757,55.1745968 41.0777438,51.6320161 Z M67.4121315,82.2580645 L28.9597506,82.2580645 L28.9597506,79.516129 L67.4121315,79.516129 L67.4121315,82.2580645 Z M63.8168339,76.7741935 L32.5550482,76.7741935 L33.9283475,74.0322581 L62.4435346,74.0322581 L63.8168339,76.7741935 Z M42.2972336,71.2903226 L59.1723356,63.8034677 L59.1723356,71.2903226 L42.2972336,71.2903226 Z M39.8829734,43.9545968 C37.9919402,40.6354839 34.4241086,38.3870968 30.3330499,38.3870968 C28.4749759,38.3870968 26.7253926,38.8532258 25.1900439,39.6703226 L28.5958262,28.7903226 L43.6815193,28.7903226 L39.8829734,43.9545968 Z M49.5592404,23.3064516 C49.5592404,24.818629 48.3273909,26.0483871 46.8126417,26.0483871 L24.8398526,26.0483871 C23.3251035,26.0483871 22.093254,24.818629 22.093254,23.3064516 L22.093254,15.0806452 C22.093254,13.5684677 23.3251035,12.3387097 24.8398526,12.3387097 L46.8126417,12.3387097 C48.3273909,12.3387097 49.5592404,13.5684677 49.5592404,15.0806452 L49.5592404,23.3064516 Z M62.4435346,2.74193548 L61.0702353,5.48387097 L57.2744359,5.48387097 L55.9011366,2.74193548 L62.4435346,2.74193548 Z M57.7990363,8.22580645 L60.5456349,8.22580645 L60.5456349,12.3387097 L57.7990363,12.3387097 L57.7990363,8.22580645 Z M67.4121315,15.0806452 L67.4121315,17.8225806 L52.305839,17.8225806 L52.305839,15.0806452 L67.4121315,15.0806452 Z M52.305839,20.5645161 L67.4121315,20.5645161 L67.4121315,23.3064516 L52.305839,23.3064516 L52.305839,20.5645161 Z M55.9011366,34.2741935 L57.2744359,31.5322581 L61.0702353,31.5322581 L62.4435346,34.2741935 L55.9011366,34.2741935 Z M60.5456349,28.7903226 L57.7990363,28.7903226 L57.7990363,26.0483871 L60.5456349,26.0483871 L60.5456349,28.7903226 Z" id="Shape" fill="#2E3091"></path>
                <path d="M30.3330499,15.0806452 C28.0616128,15.0806452 26.2131519,16.9259677 26.2131519,19.1935484 C26.2131519,21.461129 28.0616128,23.3064516 30.3330499,23.3064516 C32.604487,23.3064516 34.4529478,21.461129 34.4529478,19.1935484 C34.4529478,16.9259677 32.604487,15.0806452 30.3330499,15.0806452 Z M30.3330499,20.5645161 C29.5749887,20.5645161 28.9597506,19.9489516 28.9597506,19.1935484 C28.9597506,18.4381452 29.5749887,17.8225806 30.3330499,17.8225806 C31.0911111,17.8225806 31.7063492,18.4381452 31.7063492,19.1935484 C31.7063492,19.9489516 31.0911111,20.5645161 30.3330499,20.5645161 Z" id="Shape" fill="#80C242"></path>
                <path d="M41.3194444,15.0806452 C39.0480074,15.0806452 37.1995465,16.9259677 37.1995465,19.1935484 C37.1995465,21.461129 39.0480074,23.3064516 41.3194444,23.3064516 C43.5908815,23.3064516 45.4393424,21.461129 45.4393424,19.1935484 C45.4393424,16.9259677 43.5908815,15.0806452 41.3194444,15.0806452 Z M41.3194444,20.5645161 C40.5613832,20.5645161 39.9461451,19.9489516 39.9461451,19.1935484 C39.9461451,18.4381452 40.5613832,17.8225806 41.3194444,17.8225806 C42.0775057,17.8225806 42.6927438,18.4381452 42.6927438,19.1935484 C42.6927438,19.9489516 42.0775057,20.5645161 41.3194444,20.5645161 Z" id="Shape" fill="#80C242"></path>
                <rect id="Rectangle" fill="#008ED3" x="0.120464853" y="31.5322581" width="2.74659864" height="2.74193548"></rect>
                <rect id="Rectangle" fill="#008ED3" x="0.120464853" y="37.016129" width="2.74659864" height="2.74193548"></rect>
                <rect id="Rectangle" fill="#008ED3" x="0.120464853" y="42.5" width="2.74659864" height="2.74193548"></rect>
            </g>
        </g>
    </g>
</svg>