<?xml version="1.0" encoding="UTF-8"?>
<svg width="85px" height="85px" viewBox="0 0 85 85" version="1.1" xmlns="http://www.w3.org/2000/svg" xmlns:xlink="http://www.w3.org/1999/xlink">
    <!-- Generator: Sketch 52.4 (67378) - http://www.bohemiancoding.com/sketch -->
    <title>iot</title>
    <desc>Created with Sketch.</desc>
    <g id="iot" stroke="none" stroke-width="1" fill="none" fill-rule="evenodd">
        <g id="server" transform="translate(5.000000, 0.000000)">
            <g id="Group">
                <g id="Rectangle" transform="translate(23.289640, 55.776031)">
                    <rect fill="#008ED3" x="0.092295983" y="15.9507761" width="16.4662935" height="2.5049116"></rect>
                    <rect fill="#FFFFFF" x="24.7917361" y="15.9507761" width="2.74438223" height="2.5049116"></rect>
                    <rect fill="#008ED3" x="0.092295983" y="0.0113555992" width="16.4662935" height="2.5049116"></rect>
                    <rect fill="#FFFFFF" x="24.7917361" y="0.0113555992" width="2.74438223" height="2.5049116"></rect>
                </g>
                <g transform="translate(8.280762, 5.176817)" fill="#008ED3">
                    <rect id="Rectangle" x="0.00707315011" y="0.136267191" width="8.23314672" height="2.5049116"></rect>
                    <polygon id="Path" points="32.8613378 9.3583497 30.2736 9.3583497 30.2736 0.136267191 35.6838698 0.136267191 35.6838698 2.64117879 32.8613378 2.64117879"></polygon>
                    <rect id="Rectangle" x="57.6391003" y="12.0907073" width="2.74438223" height="2.5049116"></rect>
                </g>
                <g>
                    <path d="M41.2202487,52.9793811 L53.6484634,52.9793811 L53.6484634,61.1006386 L20.5590596,61.1006386 L20.5590596,52.9793811 L37.1036753,52.9793811 L37.1036753,50.4744696 L17.9713217,50.4744696 L17.9713217,63.6055501 L22.0878951,63.6055501 L22.0878951,66.413556 L17.9713217,66.413556 L17.9713217,79.5448035 L22.0878951,79.5448035 L22.0878951,84.857721 L32.9871018,84.857721 L32.9871018,82.3528095 L24.6756329,82.3528095 L24.6756329,79.5448035 L49.5317176,79.5448035 L49.5317176,82.3528095 L37.1036753,82.3528095 L37.1036753,84.857721 L52.1194554,84.857721 L52.1194554,79.5448035 L56.2360287,79.5448035 L56.2360287,66.413556 L52.1194554,66.413556 L52.1194554,63.6055501 L56.2360287,63.6055501 L56.2360287,50.4744696 L41.2200762,50.4744696 L41.2200762,52.9793811 L41.2202487,52.9793811 Z M53.6484634,77.0398919 L20.5590596,77.0398919 L20.5590596,68.9184677 L53.6484634,68.9184677 L53.6484634,77.0398919 Z M49.53189,66.413556 L24.6758055,66.413556 L24.6758055,63.6055501 L49.53189,63.6055501 L49.53189,66.413556 Z" id="Shape" fill="#2E3091" fill-rule="nonzero"></path>
                    <rect id="Rectangle" fill="#80C242" x="42.5924398" y="71.7268075" width="2.74438223" height="2.5049116"></rect>
                    <rect id="Rectangle" fill="#80C242" x="42.5924398" y="55.787387" width="2.74438223" height="2.5049116"></rect>
                    <path d="M30.1643974,0 L0.132837209,0 L0.132837209,15.8634381 L2.72057505,15.8634381 L2.72057505,13.1312475 L27.5766596,13.1312475 L27.5766596,29.2219647 L2.72057505,29.2219647 L2.72057505,19.8482514 L0.132837209,19.8482514 L0.132837209,42.3530452 L30.1643974,42.3530452 L30.1643974,0 Z M2.72057505,10.626336 L2.72057505,2.5049116 L27.5766596,2.5049116 L27.5766596,10.626336 L2.72057505,10.626336 Z M2.72057505,39.8481335 L2.72057505,31.7268762 L27.5766596,31.7268762 L27.5766596,39.8481335 L2.72057505,39.8481335 Z" id="Shape" fill="#2E3091" fill-rule="nonzero"></path>
                    <rect id="Rectangle" fill="#80C242" x="19.2651907" y="5.31308448" width="2.74438223" height="2.5049116"></rect>
                    <rect id="Rectangle" fill="#80C242" x="11.0322165" y="34.5352161" width="8.23314672" height="2.5049116"></rect>
                    <path d="M59.0587332,0 L59.0587332,2.5049116 L71.4867754,2.5049116 L71.4867754,22.5807761 L35.6533345,22.5807761 L35.6533345,2.5049116 L54.9425049,2.5049116 L54.9425049,0 L33.0655965,0 L33.0655965,31.7268762 L46.7875079,31.7268762 L46.7875079,34.5350492 L42.6709345,34.5350492 L42.6709345,41.024774 L64.469348,41.024774 L64.469348,34.5350492 L60.3527746,34.5350492 L60.3527746,31.7268762 L74.0746859,31.7268762 L74.0746859,0 L59.0587332,0 Z M61.8816102,37.0401278 L61.8816102,38.5200295 L45.2586724,38.5200295 L45.2586724,37.0401278 L46.7875079,37.0401278 L60.3527746,37.0401278 L61.8816102,37.0401278 Z M57.7648642,34.5352161 L49.3750731,34.5352161 L49.3750731,31.7270433 L57.7648642,31.7270433 L57.7648642,34.5352161 Z M35.6533345,29.2219647 L35.6533345,25.0855207 L71.486948,25.0855207 L71.486948,29.2219647 L35.6533345,29.2219647 Z" id="Shape" fill="#2E3091" fill-rule="nonzero"></path>
                    <rect id="Rectangle" fill="#80C242" x="38.476039" y="17.2675245" width="2.74438223" height="2.5049116"></rect>
                    <rect id="Rectangle-Copy" fill="#80C242" x="66.7636364" y="4.39655173" width="2.74438223" height="2.5049116"></rect>
                    <rect id="Rectangle-Copy-2" fill="#80C242" x="62.3127273" y="4.39655173" width="2.74438223" height="2.5049116"></rect>
                    <rect id="Rectangle" fill="#80C242" x="65.9198613" y="11.9546071" width="2.74438223" height="2.5049116"></rect>
                    <rect id="Rectangle" fill="#80C242" x="60.4309243" y="17.2675245" width="2.74438223" height="2.5049116"></rect>
                    <polygon id="Path" fill="#008ED3" points="9.58170317 68.6272298 9.58170317 57.0398428 6.99396533 57.0398428 6.99396533 68.6272298 3.71374883 65.4521709 1.88387314 67.2236445 8.28783425 73.4221316 14.6914503 67.2236445 12.8614021 65.4521709"></polygon>
                    <polygon id="Path" fill="#008ED3" points="60.8882639 52.1694597 62.7181396 53.9409332 65.9981835 50.7657072 65.9981835 62.3530942 68.5859214 62.3530942 68.5859214 50.7657072 71.8657927 53.9407662 73.6956686 52.1694597 67.2920525 45.9708055"></polygon>
                    <rect id="Rectangle" fill="#008ED3" x="6.99396533" y="51.7269254" width="2.58773784" height="2.65637524"></rect>
                    <rect id="Rectangle" fill="#008ED3" x="6.99396533" y="46.4138409" width="2.58773784" height="2.65654225"></rect>
                    <rect id="Rectangle" fill="#008ED3" x="65.9981835" y="70.3225541" width="2.58773784" height="2.65654225"></rect>
                    <rect id="Rectangle" fill="#008ED3" x="65.9981835" y="65.0096365" width="2.58773784" height="2.65637524"></rect>
                </g>
            </g>
        </g>
    </g>
</svg>