<?xml version="1.0" encoding="UTF-8"?>
<svg width="85px" height="85px" viewBox="0 0 85 85" version="1.1" xmlns="http://www.w3.org/2000/svg" xmlns:xlink="http://www.w3.org/1999/xlink">
    <!-- Generator: Sketch 52.4 (67378) - http://www.bohemiancoding.com/sketch -->
    <title>location</title>
    <desc>Created with Sketch.</desc>
    <g id="location" stroke="none" stroke-width="1" fill="none" fill-rule="evenodd">
        <g id="noun_Location_2509118" fill-rule="nonzero">
            <path d="M48.45,14.62 C48.45,11.39 45.73,8.67 42.5,8.67 C39.27,8.67 36.55,11.39 36.55,14.62 C36.55,17.85 39.27,20.57 42.5,20.57 C45.73,20.57 48.45,17.85 48.45,14.62 Z M39.95,14.62 C39.95,13.26 41.14,12.07 42.5,12.07 C43.86,12.07 45.05,13.26 45.05,14.62 C45.05,15.98 43.86,17 42.5,17 C41.14,17 39.95,15.98 39.95,14.62 Z" id="Shape" fill="#80C242"></path>
            <path d="M84.15,25.84 L63.75,14.96 C63.58,14.96 63.58,14.96 63.41,14.79 C63.41,14.79 63.41,14.79 63.41,14.79 C63.24,14.79 63.07,14.79 62.73,14.79 C62.73,14.79 62.73,14.79 62.73,14.79 C62.56,14.79 62.39,14.79 62.22,14.96 C62.22,14.96 62.22,14.96 62.22,14.96 C62.22,14.96 62.22,14.96 62.22,14.96 C62.22,14.96 62.22,14.96 62.22,14.96 L56.61,18.02 C56.95,16.83 57.29,15.64 57.29,14.45 C57.12,6.46 50.49,0 42.5,0 C34.51,0 27.88,6.46 27.88,14.62 C27.88,15.64 28.22,16.83 28.56,18.19 L22.95,15.13 C22.95,15.13 22.95,15.13 22.95,15.13 C22.95,15.13 22.95,15.13 22.95,15.13 C22.95,15.13 22.95,15.13 22.95,15.13 C22.78,14.96 22.61,14.96 22.44,14.96 C22.44,14.96 22.44,14.96 22.44,14.96 C22.27,14.96 22.1,14.96 21.76,14.96 C21.76,14.96 21.76,14.96 21.76,14.96 C21.59,14.96 21.59,14.96 21.42,15.13 L1.02,26.01 C0.34,26.18 0,26.86 0,27.37 L0,60.52 L0,70.55 L0,83.3 C0,83.98 0.34,84.49 0.85,84.83 C1.02,85 1.36,85 1.7,85 C2.04,85 2.21,85 2.55,84.83 L22.1,74.29 L41.65,84.83 C41.65,84.83 41.82,84.83 41.82,85 C41.82,85 41.82,85 41.99,85 C42.16,85 42.33,85 42.5,85 C42.5,85 42.5,85 42.5,85 C42.5,85 42.5,85 42.5,85 C42.67,85 42.84,85 43.01,85 C43.01,85 43.18,85 43.18,85 C43.18,85 43.35,85 43.35,84.83 L62.9,74.29 L82.45,84.83 C82.79,85 82.96,85 83.3,85 C83.64,85 83.98,85 84.15,84.83 C84.66,84.49 85,83.98 85,83.3 L85,27.37 C85,26.86 84.66,26.18 84.15,25.84 Z M3.4,61.37 L20.4,46.24 L20.4,59.5 L3.4,67.83 L3.4,61.37 Z M23.8,44.54 L40.8,48.11 L40.8,65.28 L23.8,59.33 L23.8,44.54 Z M44.2,68.85 L61.2,59.5 L61.2,71.4 L44.2,80.41 L44.2,68.85 Z M61.2,19.38 L61.2,55.59 L44.2,64.94 L44.2,36.38 C45.9,34.51 50.83,28.9 54.06,23.12 L61.2,19.38 Z M42.5,3.4 C48.62,3.4 53.72,8.33 53.72,14.62 C53.72,19.38 46.58,28.73 42.5,33.32 C38.59,28.73 31.28,19.38 31.28,14.62 C31.28,8.33 36.38,3.4 42.5,3.4 Z M40.8,36.38 L40.8,44.54 L23.8,40.97 L23.8,19.38 L30.94,23.29 C34.17,28.9 39.1,34.68 40.8,36.38 Z M20.4,19.38 L20.4,41.82 L3.4,56.78 L3.4,28.39 L20.4,19.38 Z M3.4,80.41 L3.4,71.57 L20.4,63.24 L20.4,71.4 L3.4,80.41 Z M23.8,71.4 L23.8,62.9 L40.8,68.85 L40.8,80.41 L23.8,71.4 Z M81.6,80.41 L64.6,71.4 L64.6,19.38 L81.6,28.39 L81.6,80.41 Z" id="Shape" fill="#2E3091"></path>
        </g>
        <rect id="Rectangle" fill="#008ED3" fill-rule="nonzero" x="67" y="25" width="2.5" height="46" rx="1.25"></rect>
        <rect id="Rectangle-Copy" fill="#008ED3" fill-rule="nonzero" x="6" y="29" width="2.5" height="21" rx="1.25"></rect>
    </g>
</svg>