<?xml version="1.0" encoding="UTF-8"?>
<svg width="85px" height="85px" viewBox="0 0 85 85" version="1.1" xmlns="http://www.w3.org/2000/svg" xmlns:xlink="http://www.w3.org/1999/xlink">
    <!-- Generator: Sketch 52.4 (67378) - http://www.bohemiancoding.com/sketch -->
    <title>Vision</title>
    <desc>Created with Sketch.</desc>
    <g id="Vision" stroke="none" stroke-width="1" fill="none" fill-rule="evenodd">
        <g id="company-vision-copy" transform="translate(0.000000, 9.000000)" fill-rule="nonzero">
            <path d="M42.6097845,58.9738698 C56.1822313,58.9189569 67.1774194,47.8787677 67.1774194,34.2871336 C67.1774194,20.6546497 56.127339,9.60039742 42.5,9.60039742 L42.8293536,9.60039742 C55.5924743,9.60039742 67.6433342,15.4975166 75.4855642,25.5780678 L82.2580645,34.2871336 L75.4855642,42.9961995 C67.6433342,53.0767506 55.5924743,58.9738698 42.8293536,58.9738698 C42.7604035,58.9738698 42.6780651,58.9738698 42.6097845,58.9738698 Z" id="Path" fill="#FFFFFF"></path>
            <path d="M42.5,9.60039742 C28.872661,9.60039742 17.8225806,20.6546497 17.8225806,34.2871336 C17.8225806,47.4669202 28.1456732,58.2332143 41.1290323,58.93302 C28.6397036,58.4254096 16.9864778,52.267119 9.54188202,42.1457179 L2.74193548,32.9156483 L9.52849349,24.6733428 C17.3841119,15.1271887 29.0922301,9.60039742 41.4583858,9.60039742 L42.5,9.60039742 Z" id="Path" fill="#FFFFFF"></path>
            <path d="M42.5,9.60039742 C56.127339,9.60039742 67.1774194,20.6546497 67.1774194,34.2871336 C67.1774194,47.8787677 56.1822313,58.9189569 42.6097845,58.9738698 C42.5682807,58.9738698 42.5408344,58.9738698 42.5,58.9738698 C42.0474735,58.9738698 41.5815587,58.9604764 41.1290323,58.93302 C28.1456732,58.2332143 17.8225806,47.4669202 17.8225806,34.2871336 C17.8225806,20.6546497 28.872661,9.60039742 42.5,9.60039742 Z" id="Path" fill="#FFFFFF"></path>
            <path d="M42.5,34.2871336 L56.0724468,47.8647047 C52.5901351,51.3349375 47.791748,53.4879285 42.5,53.4879285 C31.9024461,53.4879285 23.3064516,44.8886886 23.3064516,34.2871336 L42.5,34.2871336 Z" id="Path" fill="#FFFFFF"></path>
            <path d="M42.5,15.0863388 L42.5,34.2871336 L23.3064516,34.2871336 C23.3064516,23.6855787 31.9024461,15.0863388 42.5,15.0863388 Z" id="Path" fill="#FFFFFF"></path>
            <path d="M56.0724468,47.8647047 L42.5,34.2871336 L42.5,15.0863388 C53.0975539,15.0863388 61.6935484,23.6855787 61.6935484,34.2871336 C61.6935484,39.5808795 59.54137,44.3810782 56.0724468,47.8647047 Z" id="Path" fill="#FFFFFF"></path>
            <path d="M42.5,13.7148535 C31.1607311,13.7148535 21.9354839,22.9435837 21.9354839,34.2871336 C21.9354839,45.6306836 31.1607311,54.8594138 42.5,54.8594138 C53.8392689,54.8594138 63.0645161,45.6306836 63.0645161,34.2871336 C63.0645161,22.9435837 53.8392689,13.7148535 42.5,13.7148535 Z M60.3225806,34.2871336 C60.3225806,38.7103078 58.6952258,42.753109 56.0188934,45.871765 L43.8709677,33.719253 L43.8709677,16.5274699 C53.0580582,17.2312937 60.3225806,24.9184421 60.3225806,34.2871336 Z M41.1290323,16.5274699 L41.1290323,32.9156483 L24.7470388,32.9156483 C25.4164567,24.1791258 32.395807,17.1971405 41.1290323,16.5274699 Z M24.7470388,35.658619 L41.9323337,35.658619 L54.0802593,47.811131 C50.9627803,50.4884739 46.9215048,52.1164431 42.5,52.1164431 C33.1348443,52.1164431 25.4519358,44.849178 24.7470388,35.658619 Z" id="Shape" fill="#008ED3"></path>
            <path d="M76.5660046,43.8419934 L83.9952039,34.2871336 L76.5660046,24.7322738 C68.4111565,14.2445629 56.1179672,8.22891207 42.8360478,8.22891207 L41.4550388,8.22891207 C28.6397036,8.22891207 16.6162898,13.9057095 8.46813562,23.800762 L1.00479614,32.867432 L8.43399544,42.9533405 C16.2909526,53.621193 28.7970167,60.0614149 42.0160109,60.319238 C42.1780101,60.3232561 42.336662,60.3453552 42.5,60.3453552 C42.5421734,60.3453552 42.5823384,60.3399978 42.6245116,60.3386586 C42.6948006,60.3386586 42.7644201,60.3453552 42.8360478,60.3453552 C56.119306,60.3453552 68.4124952,54.3297043 76.5660046,43.8419934 Z M42.6245116,57.5956879 C42.4216782,57.5943485 42.2188445,57.5816247 42.0160109,57.5776067 C29.3894516,57.3157655 19.1935484,46.9800697 19.1935484,34.2871336 C19.1935484,21.4307978 29.6485162,10.9718828 42.5,10.9718828 C55.3514838,10.9718828 65.8064516,21.4307978 65.8064516,34.2871336 C65.8064516,47.1006106 55.4184254,57.528051 42.6245116,57.5956879 Z M10.6417354,41.3293894 L4.47907483,32.9625253 L10.5855043,25.5452538 C14.8349688,20.3827634 20.2124023,16.4524668 26.2157415,13.9807126 C20.271311,18.7608213 16.4516129,26.0816601 16.4516129,34.2871336 C16.4516129,41.7258344 19.6005544,48.4299066 24.6158329,53.1818891 C19.167441,50.3913717 14.3496409,46.3646426 10.6417354,41.3293894 Z M68.5483871,34.2871336 C68.5483871,26.4285493 65.0372906,19.387633 59.5192792,14.6048456 C65.2662314,17.240669 70.3758977,21.2386024 74.4011073,26.4164954 L80.5209252,34.2871336 L74.4011073,42.1564326 C70.3758977,47.3343256 65.2675703,51.3335983 59.5192792,53.9694217 C65.0372906,49.1866343 68.5483871,42.1457179 68.5483871,34.2871336 Z" id="Shape" fill="#2E3091"></path>
            <path d="M42.5,2.74297069 C67.4719632,2.74297069 82.331031,25.2050613 82.4789723,25.4327492 L84.7804309,23.9420625 C84.1471618,22.9643435 68.9895335,0 42.5,0 C16.0104665,0 0.852838246,22.9643435 0.220907802,23.9420625 L2.52236643,25.4327492 C2.66896898,25.2050613 17.5280368,2.74297069 42.5,2.74297069 Z" id="Path" fill="#2E3091"></path>
            <polygon id="Path" fill="#80C242" points="30.1612903 39.773075 41.1290323 39.773075 41.1290323 42.5160457 30.1612903 42.5160457"></polygon>
            <polygon id="Path" fill="#80C242" points="39.7580645 45.2590164 47.983871 45.2590164 47.983871 48.0019871 39.7580645 48.0019871"></polygon>
            <polygon id="Path" fill="#80C242" points="34.2741935 45.2590164 37.016129 45.2590164 37.016129 48.0019871 34.2741935 48.0019871"></polygon>
            <polygon id="Path" fill="#80C242" points="31.5322581 21.9437655 38.3870968 21.9437655 38.3870968 24.6867362 31.5322581 24.6867362"></polygon>
            <polygon id="Path" fill="#80C242" points="31.5322581 27.4297069 38.3870968 27.4297069 38.3870968 30.1726776 31.5322581 30.1726776"></polygon>
            <polygon id="Path" fill="#80C242" points="47.983871 32.9156483 50.7258065 32.9156483 50.7258065 35.658619 47.983871 35.658619"></polygon>
            <polygon id="Path" fill="#80C242" points="53.4677419 32.9156483 56.2096774 32.9156483 56.2096774 35.658619 53.4677419 35.658619"></polygon>
            <polygon id="Path" fill="#80C242" points="-2.17603713e-14 51.7245902 2.74193548 51.7245902 2.74193548 54.4675609 -2.17603713e-14 54.4675609"></polygon>
            <polygon id="Path" fill="#008ED3" points="-2.17603713e-14 57.2105315 2.74193548 57.2105315 2.74193548 59.9535022 -2.17603713e-14 59.9535022"></polygon>
            <polygon id="Path" fill="#2E3091" points="-2.17603713e-14 62.6964729 2.74193548 62.6964729 2.74193548 65.4394436 -2.17603713e-14 65.4394436"></polygon>
            <polygon id="Path" fill="#008ED3" points="5.48387097 57.2105315 8.22580645 57.2105315 8.22580645 59.9535022 5.48387097 59.9535022"></polygon>
            <polygon id="Path" fill="#2E3091" points="5.48387097 62.6964729 8.22580645 62.6964729 8.22580645 65.4394436 5.48387097 65.4394436"></polygon>
            <polygon id="Path" fill="#2E3091" points="10.9677419 62.6964729 13.7096774 62.6964729 13.7096774 65.4394436 10.9677419 65.4394436"></polygon>
            <polygon id="Path" fill="#008ED3" points="65.8064516 62.5985097 85 62.5985097 85 65.3414804 65.8064516 65.3414804"></polygon>
            <polygon id="Path" fill="#80C242" points="74.0322581 57.1125683 85 57.1125683 85 59.855539 74.0322581 59.855539"></polygon>
        </g>
    </g>
</svg>