<svg xmlns="http://www.w3.org/2000/svg" xmlns:xlink="http://www.w3.org/1999/xlink" viewBox="0 0 550 500"><defs><style>.cls-1{isolation:isolate;}.cls-2{opacity:0.7;}.cls-3{fill:url(#linear-gradient);}.cls-23,.cls-24,.cls-25,.cls-26,.cls-27,.cls-37,.cls-38,.cls-4,.cls-5,.cls-6,.cls-7{fill:none;}.cls-4,.cls-5,.cls-6,.cls-7{stroke:#2e3091;stroke-width:0.52px;}.cls-37,.cls-38,.cls-4,.cls-5,.cls-6,.cls-7{stroke-miterlimit:10;}.cls-5{stroke-dasharray:2.9 2.9;}.cls-6{stroke-dasharray:2.59 2.59;}.cls-7{stroke-dasharray:2.71 2.71;}.cls-8{opacity:0.45;}.cls-9{fill:#9578a6;}.cls-10{fill:#55617f;}.cls-11{fill:#bcc2c6;}.cls-12{fill:#74c086;}.cls-13{fill:url(#linear-gradient-2);}.cls-14{fill:url(#linear-gradient-3);}.cls-15{fill:url(#linear-gradient-4);}.cls-16{fill:#fff;}.cls-17{fill:#2e3091;}.cls-18{fill:#008ed3;}.cls-19{fill:#e0f3fa;}.cls-20{fill:#afe7ff;}.cls-21{fill:#a3defc;}.cls-22{opacity:0.75;}.cls-23,.cls-24,.cls-25{stroke:#008ed3;}.cls-23,.cls-24,.cls-25,.cls-26,.cls-27{stroke-miterlimit:22.93;}.cls-23{stroke-width:1.71px;}.cls-23,.cls-24,.cls-26{fill-rule:evenodd;}.cls-24,.cls-25,.cls-26,.cls-27{stroke-width:1.49px;}.cls-26,.cls-27{stroke:#80c242;}.cls-28{opacity:0.38;}.cls-29{fill:#c0ffff;}.cls-30{fill:#eef1f9;}.cls-31{fill:#aeb8d0;}.cls-32{fill:#8e95aa;}.cls-33{fill:#d6ddeb;}.cls-34{fill:#c6cee0;}.cls-35{fill:#fb6568;}.cls-36{fill:#c3e47e;}.cls-37,.cls-38{stroke:#b5def2;stroke-width:0.53px;}.cls-38{stroke-dasharray:2.14 2.14;}.cls-39{fill:#80c242;}.cls-40{opacity:0.15;}.cls-40,.cls-42{mix-blend-mode:multiply;}.cls-41{opacity:0.26;}.cls-42{opacity:0.62;}.cls-43{fill:#d4dad9;}.cls-44{fill:#dceee1;}.cls-45{fill:#82c8e9;}</style><linearGradient id="linear-gradient" x1="191.89" y1="-58.97" x2="107.25" y2="109" gradientUnits="userSpaceOnUse"><stop offset="0" stop-color="#095589"/><stop offset="0.2" stop-color="#266e9d" stop-opacity="0.83"/><stop offset="1" stop-color="#91cee6" stop-opacity="0.2"/></linearGradient><linearGradient id="linear-gradient-2" x1="362.69" y1="-11.8" x2="318.19" y2="76.51" xlink:href="#linear-gradient"/><linearGradient id="linear-gradient-3" x1="154.31" y1="102.14" x2="109.8" y2="190.45" xlink:href="#linear-gradient"/><linearGradient id="linear-gradient-4" x1="437.19" y1="18.33" x2="372.08" y2="147.53" xlink:href="#linear-gradient"/></defs><title>Artboard 7</title><g class="cls-1"><g id="Layer_1" data-name="Layer 1"><g class="cls-2"><path class="cls-3" d="M182.83,89.38a9.92,9.92,0,1,1,3.62-19.51c.34.06.64.19,1,.28a59.2,59.2,0,0,0-.93-11.57,9,9,0,0,1-1,.47,9.92,9.92,0,1,1-6.62-18.7,7.53,7.53,0,0,1,1-.26,60.64,60.64,0,0,0-6.6-9.61,9.28,9.28,0,0,1-.67,1,9.92,9.92,0,0,1-15.09-12.88,8.53,8.53,0,0,1,.87-.83,59.46,59.46,0,0,0-10.61-5.06,9.61,9.61,0,0,1-.1,1.3,9.92,9.92,0,1,1-19.51-3.62,9.38,9.38,0,0,1,.37-1.28,59.51,59.51,0,0,0-11.82.91,10,10,0,0,1,.63,1.32,9.92,9.92,0,1,1-18.7,6.63,9.6,9.6,0,0,1-.35-1.43,60.24,60.24,0,0,0-9.84,6.76,9.9,9.9,0,1,1-11.59,16,8.94,8.94,0,0,1-1.09-1.13A59.86,59.86,0,0,0,70.69,49a9,9,0,0,1,1.63.14A9.92,9.92,0,1,1,68.7,68.61a10.4,10.4,0,0,1-1.5-.44,59.28,59.28,0,0,0,1,12,10.45,10.45,0,0,1,1.47-.7,9.92,9.92,0,0,1,6.63,18.71,11.24,11.24,0,0,1-1.47.36,60.61,60.61,0,0,0,6.82,9.79,9.17,9.17,0,0,1,.88-1.26,9.92,9.92,0,1,1,15.08,12.89,10.26,10.26,0,0,1-1,1,59.52,59.52,0,0,0,10.74,5,9.58,9.58,0,0,1,.12-1.41,9.92,9.92,0,0,1,19.5,3.62,9.54,9.54,0,0,1-.34,1.19,59.77,59.77,0,0,0,11.7-1,9.15,9.15,0,0,1-.54-1.14,9.92,9.92,0,0,1,18.71-6.62,10.41,10.41,0,0,1,.26,1.07,59.92,59.92,0,0,0,9.56-6.66,9.6,9.6,0,0,1-.93-.64,9.92,9.92,0,0,1,12.88-15.09,8.58,8.58,0,0,1,.73.75,59.69,59.69,0,0,0,4.94-10.5C183.55,89.44,183.19,89.44,182.83,89.38ZM119.93,109a40.43,40.43,0,1,1,47.12-32.38A40.43,40.43,0,0,1,119.93,109Z"/></g><line class="cls-4" x1="295.45" y1="183.06" x2="296.76" y2="183.06"/><line class="cls-5" x1="299.66" y1="183.06" x2="304" y2="183.06"/><polyline class="cls-4" points="305.45 183.06 306.76 183.06 306.76 184.37"/><line class="cls-6" x1="306.77" y1="186.96" x2="306.77" y2="221.94"/><polyline class="cls-4" points="306.76 223.24 306.76 224.55 308.08 224.55"/><line class="cls-7" x1="310.79" y1="224.55" x2="320.26" y2="224.55"/><line class="cls-4" x1="321.62" y1="224.55" x2="322.93" y2="224.55"/><g class="cls-8"><path class="cls-9" d="M237.89,44l-2.2,2.2a.44.44,0,0,0,0,.62.43.43,0,0,0,.62,0l2.2-2.2a.44.44,0,0,0,0-.62A.42.42,0,0,0,237.89,44Z"/><path class="cls-9" d="M242,44a.42.42,0,0,0-.62,0,.44.44,0,0,0,0,.62L244,47.26a.43.43,0,0,0,.31.13.42.42,0,0,0,.31-.13.44.44,0,0,0,0-.62Z"/><path class="cls-9" d="M252.12,42.68a.44.44,0,0,0-.62,0l-4.39,4.4a.44.44,0,0,0,0,.62.48.48,0,0,0,.31.13.46.46,0,0,0,.31-.13l4.39-4.4A.42.42,0,0,0,252.12,42.68Z"/><path class="cls-10" d="M231.17,55.73a.44.44,0,0,1-.44-.44V29.82a.44.44,0,0,1,.88,0V55.29A.44.44,0,0,1,231.17,55.73Z"/><path class="cls-10" d="M255.77,54.85H230.29a.44.44,0,0,1-.44-.44.44.44,0,0,1,.44-.44h25.48a.44.44,0,0,1,.44.44A.44.44,0,0,1,255.77,54.85Z"/><path class="cls-11" d="M233.8,42.12h-.87a.44.44,0,0,1-.44-.44.43.43,0,0,1,.44-.44h.87a.43.43,0,0,1,.44.44A.44.44,0,0,1,233.8,42.12Z"/><path class="cls-11" d="M233.8,40.36h-.87a.44.44,0,0,1,0-.88h.87a.44.44,0,0,1,0,.88Z"/><path class="cls-11" d="M233.8,38.6h-.87a.44.44,0,1,1,0-.88h.87a.44.44,0,1,1,0,.88Z"/><path class="cls-11" d="M233.8,36.84h-.87a.44.44,0,1,1,0-.87h.87a.44.44,0,1,1,0,.87Z"/><path class="cls-11" d="M233.8,35.09h-.87a.44.44,0,1,1,0-.88h.87a.44.44,0,1,1,0,.88Z"/><path class="cls-11" d="M233.8,33.33h-.87a.44.44,0,0,1,0-.88h.87a.44.44,0,0,1,0,.88Z"/><path class="cls-11" d="M233.8,31.57h-.87a.43.43,0,0,1-.44-.44.44.44,0,0,1,.44-.44h.87a.44.44,0,0,1,.44.44A.43.43,0,0,1,233.8,31.57Z"/><circle class="cls-12" cx="234.69" cy="48.26" r="2.2"/><circle class="cls-12" cx="239.95" cy="42.99" r="2.2"/><circle class="cls-12" cx="253.57" cy="41.68" r="2.2"/><circle class="cls-12" cx="245.66" cy="48.7" r="2.2"/></g><g class="cls-2"><path class="cls-13" d="M357.93,66.19a5.22,5.22,0,0,1,1.9-10.26,4.28,4.28,0,0,1,.51.15,31.46,31.46,0,0,0-.48-6.08,5.05,5.05,0,0,1-.53.24,5.21,5.21,0,0,1-3.48-9.83,5.47,5.47,0,0,1,.55-.13,30.76,30.76,0,0,0-3.47-5.05c-.11.17-.22.34-.35.51A5.22,5.22,0,0,1,344.64,29c.14-.16.31-.29.46-.44a31.7,31.7,0,0,0-5.57-2.66c0,.23,0,.46-.06.69a5.22,5.22,0,0,1-10.26-1.9,6.75,6.75,0,0,1,.2-.68,31.18,31.18,0,0,0-6.21.48,5,5,0,0,1,.33.7,5.22,5.22,0,0,1-9.84,3.48,5.11,5.11,0,0,1-.18-.75,31.58,31.58,0,0,0-5.17,3.55,5.91,5.91,0,0,1,.68.47,5.22,5.22,0,0,1-6.78,7.94,6.43,6.43,0,0,1-.57-.6,32,32,0,0,0-2.7,5.7,5.07,5.07,0,0,1,.86.07,5.22,5.22,0,1,1-1.9,10.26,4.83,4.83,0,0,1-.79-.23,32,32,0,0,0,.51,6.28,5.08,5.08,0,0,1,.78-.37,5.22,5.22,0,0,1,3.48,9.84,5.41,5.41,0,0,1-.77.19,31,31,0,0,0,3.59,5.14,7,7,0,0,1,.45-.66,5.22,5.22,0,1,1,7.4,7.29,31.68,31.68,0,0,0,5.65,2.64,6.15,6.15,0,0,1,.06-.74,5.22,5.22,0,1,1,10.26,1.9,6.52,6.52,0,0,1-.18.63,31.41,31.41,0,0,0,6.15-.53,3.67,3.67,0,0,1-.28-.6,5.21,5.21,0,1,1,9.83-3.48c.07.19.09.38.14.57a31.75,31.75,0,0,0,5-3.5c-.16-.12-.33-.21-.49-.34a5.22,5.22,0,0,1,6.78-7.94c.14.12.25.27.38.4a32.05,32.05,0,0,0,2.6-5.52C358.31,66.22,358.12,66.22,357.93,66.19Zm-33.07,10.3a21.26,21.26,0,1,1,24.77-17A21.26,21.26,0,0,1,324.86,76.49Z"/></g><g class="cls-2"><path class="cls-14" d="M149.54,180.13a5.21,5.21,0,1,1,1.91-10.25,4.91,4.91,0,0,1,.51.15,31.56,31.56,0,0,0-.49-6.09,5,5,0,0,1-.52.25,5.22,5.22,0,0,1-3.49-9.83,3.82,3.82,0,0,1,.56-.14,32.36,32.36,0,0,0-3.48-5.05,4.2,4.2,0,0,1-.35.51,5.21,5.21,0,0,1-7.93-6.77,4.65,4.65,0,0,1,.45-.44,30.68,30.68,0,0,0-5.57-2.66,3.91,3.91,0,0,1-.06.68,5.22,5.22,0,1,1-10.26-1.9c.05-.23.13-.45.2-.67a31.18,31.18,0,0,0-6.21.47,5.6,5.6,0,0,1,.33.7,5.22,5.22,0,1,1-9.84,3.48,6.8,6.8,0,0,1-.18-.75,31,31,0,0,0-5.17,3.56,5.91,5.91,0,0,1,.68.47,5.22,5.22,0,1,1-6.78,7.93,6.33,6.33,0,0,1-.57-.59,32,32,0,0,0-2.7,5.69,5,5,0,0,1,.86.08,5.21,5.21,0,1,1-1.9,10.25,5.14,5.14,0,0,1-.79-.23,31.09,31.09,0,0,0,.52,6.28,6,6,0,0,1,.77-.36,5.21,5.21,0,1,1,3.48,9.83,5.09,5.09,0,0,1-.77.19,31.64,31.64,0,0,0,3.59,5.15,4.88,4.88,0,0,1,.46-.66,5.21,5.21,0,1,1,7.93,6.77,4.42,4.42,0,0,1-.54.52,31,31,0,0,0,5.65,2.63,6,6,0,0,1,.06-.73,5.22,5.22,0,1,1,10.26,1.9,5.61,5.61,0,0,1-.18.62,31.34,31.34,0,0,0,6.15-.52,4.66,4.66,0,0,1-.28-.6,5.21,5.21,0,1,1,9.83-3.48,3.53,3.53,0,0,1,.14.56,31.19,31.19,0,0,0,5-3.5,4.26,4.26,0,0,1-.49-.34,5.21,5.21,0,0,1,6.77-7.93,3.48,3.48,0,0,1,.38.39,31,31,0,0,0,2.6-5.52A3.66,3.66,0,0,1,149.54,180.13Zm-33.07,10.31a21.26,21.26,0,1,1,24.78-17A21.26,21.26,0,0,1,116.47,190.44Z"/></g><g class="cls-2"><path class="cls-15" d="M430.22,132.43a7.63,7.63,0,1,1,2.79-15,6.25,6.25,0,0,1,.74.21,45.38,45.38,0,0,0-.71-8.9,6.67,6.67,0,0,1-.76.37,7.63,7.63,0,0,1-5.1-14.39,6,6,0,0,1,.81-.2,46.58,46.58,0,0,0-5.08-7.39c-.17.25-.32.51-.52.75A7.63,7.63,0,0,1,410.78,78a8,8,0,0,1,.67-.64,45.6,45.6,0,0,0-8.15-3.9,6.89,6.89,0,0,1-.09,1,7.63,7.63,0,1,1-15-2.78,6.3,6.3,0,0,1,.29-1,45.67,45.67,0,0,0-9.09.7,8,8,0,0,1,.48,1,7.63,7.63,0,0,1-14.39,5.09,7.06,7.06,0,0,1-.27-1.1,46.61,46.61,0,0,0-7.57,5.2,6.84,6.84,0,0,1,1,.69,7.63,7.63,0,0,1-9.91,11.61,8.59,8.59,0,0,1-.84-.87,46.14,46.14,0,0,0-4,8.33,7.62,7.62,0,1,1-1.52,15.12,8.64,8.64,0,0,1-1.16-.34,45.27,45.27,0,0,0,.76,9.19,8.4,8.4,0,0,1,1.13-.54,7.63,7.63,0,0,1,5.09,14.39,7.46,7.46,0,0,1-1.13.28,46.76,46.76,0,0,0,5.25,7.53,8.93,8.93,0,0,1,.68-1,7.63,7.63,0,0,1,11.6,9.91,6.11,6.11,0,0,1-.78.75,45.48,45.48,0,0,0,8.26,3.86,8,8,0,0,1,.09-1.08,7.63,7.63,0,0,1,15,2.78,7,7,0,0,1-.27.92,45.52,45.52,0,0,0,9-.77,7.89,7.89,0,0,1-.41-.88,7.63,7.63,0,1,1,14.38-5.09,7.75,7.75,0,0,1,.21.83,46.08,46.08,0,0,0,7.35-5.13,8.31,8.31,0,0,1-.72-.49A7.64,7.64,0,0,1,426.7,140a7.44,7.44,0,0,1,.55.58,45.26,45.26,0,0,0,3.8-8.08A8,8,0,0,1,430.22,132.43Zm-48.38,15.08a31.1,31.1,0,1,1,36.25-24.91A31.11,31.11,0,0,1,381.84,147.51Z"/></g><rect class="cls-16" x="121.25" y="92.47" width="263.98" height="182.31"/><path class="cls-17" d="M385.23,91.25h-264A1.22,1.22,0,0,0,120,92.47V274.78a1.22,1.22,0,0,0,1.22,1.22h264a1.22,1.22,0,0,0,1.22-1.22V92.47A1.22,1.22,0,0,0,385.23,91.25ZM384,273.56H122.47V93.69H384Z"/><rect class="cls-18" x="116.19" y="84.19" width="274.1" height="9.04"/><path class="cls-17" d="M390.29,83H116.19A1.22,1.22,0,0,0,115,84.19v9a1.22,1.22,0,0,0,1.22,1.22h274.1a1.22,1.22,0,0,0,1.22-1.22v-9A1.22,1.22,0,0,0,390.29,83Zm-1.22,9H117.41v-6.6H389.07Z"/><rect class="cls-19" x="116.19" y="270.08" width="274.1" height="4.52"/><path class="cls-17" d="M390.29,268.86H116.19a1.22,1.22,0,0,0-1.22,1.22v4.52a1.22,1.22,0,0,0,1.22,1.22h274.1a1.22,1.22,0,0,0,1.22-1.22v-4.52A1.22,1.22,0,0,0,390.29,268.86Zm-1.22,4.52H117.41V271.3H389.07Z"/><rect class="cls-20" x="357.83" y="108.02" width="3.46" height="11.54"/><rect class="cls-21" x="362.91" y="105.71" width="3.46" height="13.85"/><rect class="cls-19" x="367.99" y="107.32" width="3.46" height="12.23"/><rect class="cls-20" x="356.67" y="118.86" width="16.17" height="1.15"/><path class="cls-18" d="M372.84,118.48H356.67a.39.39,0,0,0-.39.38V120a.4.4,0,0,0,.39.39h16.17a.39.39,0,0,0,.39-.39v-1.16A.38.38,0,0,0,372.84,118.48Z"/><path class="cls-21" d="M353.85,217.26H142.27a1.22,1.22,0,0,0,0,2.44H353.85a1.22,1.22,0,0,0,0-2.44Z"/><path class="cls-21" d="M237.59,224H142.27a1.22,1.22,0,0,0,0,2.44h95.32a1.22,1.22,0,0,0,0-2.44Z"/><rect class="cls-21" x="142.27" y="233.79" width="16.06" height="9.71"/><rect class="cls-19" x="166.71" y="233.79" width="16.06" height="9.71"/><rect class="cls-19" x="191.15" y="233.79" width="16.06" height="9.71"/><rect class="cls-19" x="215.59" y="233.79" width="16.06" height="9.71"/><rect class="cls-19" x="240.03" y="233.79" width="16.06" height="9.71"/><rect class="cls-19" x="264.47" y="233.79" width="16.06" height="9.71"/><rect class="cls-19" x="288.91" y="233.79" width="16.06" height="9.71"/><rect class="cls-21" x="313.35" y="233.79" width="16.06" height="9.71"/><rect class="cls-19" x="337.79" y="233.79" width="16.06" height="9.71"/><rect class="cls-19" x="142.27" y="251.68" width="16.06" height="9.71"/><rect class="cls-19" x="166.71" y="251.68" width="16.06" height="9.71"/><rect class="cls-21" x="191.15" y="251.68" width="16.06" height="9.71"/><rect class="cls-19" x="215.59" y="251.68" width="16.06" height="9.71"/><rect class="cls-19" x="240.03" y="251.68" width="16.06" height="9.71"/><rect class="cls-19" x="264.47" y="251.68" width="16.06" height="9.71"/><rect class="cls-19" x="288.91" y="251.68" width="16.06" height="9.71"/><rect class="cls-19" x="313.35" y="251.68" width="16.06" height="9.71"/><rect class="cls-19" x="337.79" y="251.68" width="16.06" height="9.71"/><path class="cls-16" d="M474,162.86V152.15H457.34v10.71c0,4.36-4.2,7.89-9.37,7.89h35.42C478.21,170.75,474,167.22,474,162.86Z"/><path class="cls-17" d="M483.39,169.53c-4.5,0-8.15-3-8.15-6.67V152.15a1.22,1.22,0,0,0-1.22-1.22H457.34a1.21,1.21,0,0,0-1.22,1.22v10.71c0,3.68-3.66,6.67-8.15,6.67a1.22,1.22,0,0,0,0,2.44h35.42a1.22,1.22,0,1,0,0-2.44Zm-28.22,0a8.58,8.58,0,0,0,3.39-6.67v-9.49H472.8v9.49a8.57,8.57,0,0,0,3.38,6.67Z"/><path class="cls-18" d="M478.34,105.75l-21.71-1.21c-6.54-.8-11.73,4.31-11.73,9.37v25.42h41.61V113.91A8.16,8.16,0,0,0,478.34,105.75Z"/><path class="cls-17" d="M478.38,104.53l-21.64-1.21a12,12,0,0,0-9.37,2.91,10.44,10.44,0,0,0-3.69,7.68v25.42a1.22,1.22,0,0,0,1.22,1.22h41.61a1.22,1.22,0,0,0,1.22-1.22V113.91A9.39,9.39,0,0,0,478.38,104.53Zm6.91,33.58H446.12v-24.2a8.06,8.06,0,0,1,2.87-5.85,9.4,9.4,0,0,1,7.49-2.31h.08l21.71,1.2h.07a7,7,0,0,1,7,6.94Z"/><path class="cls-16" d="M452.1,128.85h-5.26a3.66,3.66,0,0,0-3.79,3.91l1,6.14c.33,2.27,1.7,3.91,3.8,3.91h5.25a.42.42,0,0,0,.41-.42l-1-13.12A.42.42,0,0,0,452.1,128.85Z"/><path class="cls-17" d="M453.72,129.21a1.63,1.63,0,0,0-1.62-1.58h-5.26a5.27,5.27,0,0,0-3.91,1.76,4.43,4.43,0,0,0-1.09,3.53v0l1,6.13c.44,3,2.4,4.94,5,4.94h5.25a1.64,1.64,0,0,0,1.63-1.64.34.34,0,0,0,0-.1Zm-5.85,12.38c-2,0-2.49-2.2-2.59-2.87v0l-1-6.12a2,2,0,0,1,.5-1.58,2.86,2.86,0,0,1,2.08-.93h4.5l.9,11.52Z"/><path class="cls-16" d="M484.57,128.85h-5.26a.41.41,0,0,0-.4.42l-1,13.12a.42.42,0,0,0,.41.42h5.25c2.1,0,3.47-1.64,3.8-3.91l1-6.14A3.66,3.66,0,0,0,484.57,128.85Z"/><path class="cls-17" d="M484.57,127.63h-5.26a1.63,1.63,0,0,0-1.62,1.58l-1,13.08s0,.07,0,.1a1.64,1.64,0,0,0,1.63,1.64h5.25c2.6,0,4.56-1.94,5-4.94l1-6.13v0a4.43,4.43,0,0,0-1.09-3.53A5.27,5.27,0,0,0,484.57,127.63Zm2.58,5-1,6.12v0c-.1.67-.57,2.87-2.59,2.87h-4.37l.9-11.52h4.5a2.85,2.85,0,0,1,2.08.93A2,2,0,0,1,487.15,132.58Z"/><path class="cls-16" d="M475.16,114H456.25a8.21,8.21,0,0,0-8.05,8.37v19c0,11.11,7.72,21.17,17.16,21.17h.69c9.44,0,17.16-10.06,17.16-21.17v-19h0A8.21,8.21,0,0,0,475.16,114Z"/><path class="cls-17" d="M475.16,112.77H456.25a9.44,9.44,0,0,0-9.27,9.59v19a25.3,25.3,0,0,0,5.31,15.51,19.27,19.27,0,0,0,5.82,5,15.11,15.11,0,0,0,7.25,1.89h.69a15.11,15.11,0,0,0,7.25-1.89,19.27,19.27,0,0,0,5.82-5,25.3,25.3,0,0,0,5.31-15.51v-19A9.44,9.44,0,0,0,475.16,112.77Zm6.83,28.6a22.78,22.78,0,0,1-4.78,14c-3.06,3.85-7,6-11.16,6h-.69c-4.14,0-8.1-2.11-11.16-6a22.78,22.78,0,0,1-4.78-14v-19a7,7,0,0,1,6.83-7.15h18.91a7,7,0,0,1,6.83,7.15Z"/><path class="cls-17" d="M456.74,135.15h0a1.64,1.64,0,1,0,0,3.28h0a1.64,1.64,0,0,0,0-3.28Z"/><circle class="cls-17" cx="474.67" cy="136.79" r="1.64"/><path class="cls-18" d="M459.3,130.68h-6a.68.68,0,1,0,0,1.35h6a.68.68,0,1,0,0-1.35Z"/><path class="cls-18" d="M478.08,130.68h-6a.68.68,0,1,0,0,1.35h6a.68.68,0,0,0,0-1.35Z"/><path class="cls-18" d="M465,102.15a73.8,73.8,0,0,1-11.33-1.7s-.19,6,1.1,9L461.9,114h10.77c6.2,0,10.54,5,10.54,8.05l.22,6.75,2.87.48.21-7.15v-8.21C486.51,105.33,476.41,102.78,465,102.15Z"/><path class="cls-17" d="M480.54,103.94c-3.64-1.65-8.7-2.63-15.46-3A71.88,71.88,0,0,1,454,99.26a1.26,1.26,0,0,0-1,.22,1.21,1.21,0,0,0-.48.93c0,.26-.18,6.33,1.2,9.49a1.22,1.22,0,0,0,2.24-1c-.75-1.71-1-4.88-1-7a72.25,72.25,0,0,0,10,1.39c6.46.37,11.23,1.28,14.59,2.8,3.87,1.75,5.76,4.29,5.76,7.75v8.19l-.17,5.73-.5-.08-.19-5.73c0-2-1.3-4.27-3.36-6.08a12.79,12.79,0,0,0-8.4-3.17H461.9a1.22,1.22,0,1,0,0,2.44h10.77a10.32,10.32,0,0,1,6.79,2.57A6.56,6.56,0,0,1,482,122v0l.22,6.75a1.23,1.23,0,0,0,1,1.16l2.87.48.2,0a1.22,1.22,0,0,0,.78-.28,1.24,1.24,0,0,0,.44-.91l.21-7.15v-8.24C487.73,109.45,485.31,106.1,480.54,103.94Z"/><path class="cls-17" d="M470.05,151.59a12.53,12.53,0,0,1-3.87.61h-.45a12.29,12.29,0,0,1-4.32-.77,1.22,1.22,0,0,0-.86,2.28,14.58,14.58,0,0,0,5.18.93h.45a14.71,14.71,0,0,0,4.63-.74,1.22,1.22,0,1,0-.76-2.31Z"/><path class="cls-16" d="M465.71,148.11h0a2.46,2.46,0,0,0,2.45-2.46v-12l-4.91,12A2.46,2.46,0,0,0,465.71,148.11Z"/><path class="cls-17" d="M468.16,132.39a1.22,1.22,0,0,0-1.22,1.22v12a1.24,1.24,0,1,1-2.47,0,1.22,1.22,0,0,0-2.44,0,3.68,3.68,0,1,0,7.35,0v-12A1.22,1.22,0,0,0,468.16,132.39Z"/><path class="cls-16" d="M501.77,265.46l-15.78.73,1.49,32.22a7.89,7.89,0,0,0,8.25,7.53h0a7.91,7.91,0,0,0,7.53-8.26Z"/><path class="cls-17" d="M503,265.4a1.23,1.23,0,0,0-1.28-1.16l-15.78.73a1.22,1.22,0,0,0-1.16,1.28l1.49,32.22a9.13,9.13,0,0,0,9.1,8.7h.43a9.13,9.13,0,0,0,8.69-9.54Zm-7.31,39.32a6.68,6.68,0,0,1-7-6.37l-1.44-31,13.35-.62,1.43,31A6.68,6.68,0,0,1,495.68,304.72Z"/><path class="cls-16" d="M489.33,169.71h0l-6.86-.24-3.08,11.19,5.49,114.28,20.9-1-5.5-114.27A10.46,10.46,0,0,0,489.33,169.71Z"/><path class="cls-17" d="M497.69,171.51a11.62,11.62,0,0,0-8.36-3l-6.81-.24a1.22,1.22,0,1,0-.09,2.44l6.86.24h.1a9.23,9.23,0,0,1,9.67,8.79l5.44,113-18.46.89L480.61,180.6a1.22,1.22,0,0,0-2.44.12L483.66,295a1.23,1.23,0,0,0,1.22,1.16h.06l20.9-1a1.18,1.18,0,0,0,.84-.4,1.22,1.22,0,0,0,.32-.87L501.5,179.6A11.61,11.61,0,0,0,497.69,171.51Z"/><path class="cls-16" d="M482.47,169.47h-37.9a12.46,12.46,0,0,0-12.46,12.46l3.94,19.91v68.85h58.88l-2.18-86.57Z"/><path class="cls-17" d="M492.72,182.9a1.22,1.22,0,0,0-1.18,1.25l2.14,85.32H437.27V201.84a.9.9,0,0,0,0-.23l-3.92-19.79a11.27,11.27,0,0,1,11.24-11.13h37.9a1.22,1.22,0,0,0,0-2.44h-37.9a13.7,13.7,0,0,0-13.68,13.68,1,1,0,0,0,0,.24L434.83,202v68.73a1.22,1.22,0,0,0,1.22,1.22h58.88a1.22,1.22,0,0,0,.88-.37,1.19,1.19,0,0,0,.34-.88L494,184.09A1.21,1.21,0,0,0,492.72,182.9Z"/><path class="cls-16" d="M404.48,215.15l9.11,4.52a9.76,9.76,0,0,0,13.08-4.41l13.26-16.57-5.86-23.58Z"/><path class="cls-17" d="M440.69,197.73a1.22,1.22,0,0,0-1.71.19L425.72,214.5a1,1,0,0,0-.14.22,8.55,8.55,0,0,1-11.45,3.86l-7.8-3.87,28.72-38.87a1.22,1.22,0,1,0-2-1.45l-29.59,40a1.2,1.2,0,0,0,.44,1.81l9.11,4.52a11,11,0,0,0,14.65-4.84l13.19-16.47A1.22,1.22,0,0,0,440.69,197.73Z"/><polygon class="cls-16" points="373.37 203.05 373.37 220.69 418.12 220.69 415.21 203.05 373.37 203.05"/><path class="cls-17" d="M418.12,219.47H374.59v-15.2h40.62a1.22,1.22,0,1,0,0-2.44H373.37a1.22,1.22,0,0,0-1.22,1.22v17.64a1.22,1.22,0,0,0,1.22,1.22h44.75a1.22,1.22,0,0,0,0-2.44Z"/><path class="cls-16" d="M366.44,203.05H358.5l-5.29,3.68,5.29,14.16h7.94a6.58,6.58,0,0,0,6.57-6.57v-4.7A6.57,6.57,0,0,0,366.44,203.05Z"/><path class="cls-17" d="M366.44,201.83H358.5a1.2,1.2,0,0,0-.69.22l-5.3,3.68a1.23,1.23,0,0,0-.45,1.43l5.3,14.15a1.22,1.22,0,0,0,1.14.8h7.94a7.81,7.81,0,0,0,7.79-7.79v-4.7A7.81,7.81,0,0,0,366.44,201.83Zm5.35,12.49a5.36,5.36,0,0,1-5.35,5.35h-7.09l-4.67-12.48,4.2-2.92h7.56a5.36,5.36,0,0,1,5.35,5.35Z"/><path class="cls-16" d="M340,205.28h0a2.23,2.23,0,0,0,2.23,2.23H356.7l7.49-4.46H342.26A2.23,2.23,0,0,0,340,205.28Z"/><path class="cls-17" d="M364.19,201.83H342.26a3.45,3.45,0,0,0,0,6.9H356.7a1.22,1.22,0,1,0,0-2.44H342.26a1,1,0,0,1,0-2h21.93a1.22,1.22,0,1,0,0-2.44Z"/><path class="cls-16" d="M359,207.51h-8.64a2.23,2.23,0,0,0-2.23,2.23h0a2.23,2.23,0,0,0,2.23,2.23H359a2.23,2.23,0,0,0,2.23-2.23h0A2.23,2.23,0,0,0,359,207.51Z"/><path class="cls-17" d="M359,206.29h-8.64a3.45,3.45,0,1,0,0,6.9H359a3.45,3.45,0,0,0,0-6.9Zm0,4.46h-8.64a1,1,0,0,1,0-2H359a1,1,0,0,1,0,2Z"/><rect class="cls-16" x="348.13" y="211.97" width="13.09" height="4.46" rx="2.23" ry="2.23"/><path class="cls-17" d="M359,210.75h-8.64a3.45,3.45,0,1,0,0,6.9H359a3.45,3.45,0,0,0,0-6.9Zm0,4.46h-8.64a1,1,0,1,1,0-2H359a1,1,0,1,1,0,2Z"/><rect class="cls-16" x="351.23" y="216.43" width="10" height="4.46" rx="2.23" ry="2.23"/><path class="cls-17" d="M359,215.21h-5.54a3.45,3.45,0,1,0,0,6.9H359a3.45,3.45,0,0,0,0-6.9Zm0,4.46h-5.54a1,1,0,0,1,0-2H359a1,1,0,0,1,0,2Z"/><path class="cls-16" d="M356.93,203.05l-4.47,7.08a2.23,2.23,0,0,0,.69,3.08h0a2.22,2.22,0,0,0,3.07-.69l2.47-3.84,4.19-.42s1.37,5.25,3.88,6.39l-.76-11.6Z"/><path class="cls-17" d="M367.27,213.54c-1.44-.65-2.73-3.78-3.21-5.59a1.23,1.23,0,0,0-1.31-.91l-4.18.43a1.26,1.26,0,0,0-.91.55l-2.46,3.84h0a1,1,0,1,1-1.7-1.07l4.12-6.52H366a1.22,1.22,0,1,0,0-2.44h-9.07a1.23,1.23,0,0,0-1,.57l-4.48,7.08a3.45,3.45,0,0,0,5.83,3.69l2.15-3.33,2.6-.27c.58,1.75,2,5.15,4.26,6.19a1.1,1.1,0,0,0,.5.11,1.2,1.2,0,0,0,1.11-.71A1.22,1.22,0,0,0,367.27,213.54Z"/><path class="cls-21" d="M413.31,425a2.75,2.75,0,0,0,1.36,5.14h37.27a4,4,0,0,0,4.05-4v-10.2h-17.6Z"/><path class="cls-17" d="M456,414.64h-17.6a1.41,1.41,0,0,0-.41.07l-25.09,9.1-.18.09a4,4,0,0,0,2,7.42h37.27a5.27,5.27,0,0,0,5.27-5.26v-10.2A1.22,1.22,0,0,0,456,414.64Zm-1.22,11.42a2.83,2.83,0,0,1-2.83,2.82H414.67a1.53,1.53,0,0,1-.83-2.81l24.77-9h16.16Z"/><polygon class="cls-18" points="476.67 415.86 494.93 415.86 494.93 270.69 467.79 270.69 476.67 415.86"/><path class="cls-17" d="M494.93,269.47H467.79a1.23,1.23,0,0,0-1.22,1.3l8.88,145.17a1.22,1.22,0,0,0,1.22,1.14h18.26a1.22,1.22,0,0,0,1.22-1.22V270.69A1.22,1.22,0,0,0,494.93,269.47Zm-1.22,145.17h-15.9l-8.73-142.73h24.63Z"/><polygon class="cls-18" points="437.72 415.86 455.99 415.86 464.87 270.69 437.72 270.69 437.72 415.86"/><path class="cls-17" d="M464.87,269.47H437.72a1.22,1.22,0,0,0-1.22,1.22V415.86a1.22,1.22,0,0,0,1.22,1.22H456a1.22,1.22,0,0,0,1.22-1.14l8.88-145.17a1.23,1.23,0,0,0-1.22-1.3Zm-10,145.17h-15.9V271.91h24.63Z"/><polygon class="cls-18" points="456.89 286.37 468.88 286.37 476.67 415.86 494.93 415.86 494.93 270.69 437.72 270.69 456.89 286.37"/><path class="cls-17" d="M494.93,269.47H437.72a1.22,1.22,0,1,0,0,2.44h56V414.64H477.82L470.09,286.3a1.22,1.22,0,0,0-1.21-1.15h-12a1.22,1.22,0,0,0,0,2.44h10.84l7.72,128.34a1.22,1.22,0,0,0,1.22,1.15h18.26a1.22,1.22,0,0,0,1.22-1.22V270.69A1.22,1.22,0,0,0,494.93,269.47Z"/><path class="cls-21" d="M452.25,425a2.75,2.75,0,0,0,1.37,5.14h37.27a4,4,0,0,0,4-4v-10.2H477.34Z"/><path class="cls-17" d="M494.93,414.64H477.34a1.42,1.42,0,0,0-.42.07l-25.08,9.1a1.11,1.11,0,0,0-.19.09,4,4,0,0,0,2,7.42h37.27a5.27,5.27,0,0,0,5.26-5.26v-10.2A1.22,1.22,0,0,0,494.93,414.64Zm-1.22,11.42a2.82,2.82,0,0,1-2.82,2.82H453.62a1.49,1.49,0,0,1-1.49-1.14,1.47,1.47,0,0,1,.65-1.67l24.77-9h16.16Z"/><rect class="cls-17" x="461.34" y="171.45" width="8.97" height="8.97" rx="2.56" ry="2.56" transform="translate(12.03 380.92) rotate(-45)"/><path class="cls-17" d="M467.63,181.93a2.56,2.56,0,0,0-3.62,0l-2.72,2.73c-1,1,2.72,38.69,2.72,38.69a2.56,2.56,0,0,0,3.62,0s3.73-37.69,2.73-38.69Z"/><line class="cls-16" x1="476.16" y1="169.47" x2="489.33" y2="169.71"/><path class="cls-17" d="M489.35,168.49l-13.17-.24h0a1.22,1.22,0,0,0-1.22,1.2,1.2,1.2,0,0,0,1.19,1.24l13.18.24h0a1.22,1.22,0,0,0,0-2.44Z"/><path class="cls-17" d="M469.53,112.77H457a1.22,1.22,0,1,0,0,2.44h12.52a1.22,1.22,0,1,0,0-2.44Z"/><path class="cls-20" d="M241.34,371.31,235.45,453h22.38l5.88-80.64,13-15.34-16.67,0C247,357.55,241.64,365.14,241.34,371.31Z"/><path class="cls-17" d="M276.66,355.83h0l-16.66,0h-.05c-6.15.22-11.29,2.05-14.85,5.29a14.8,14.8,0,0,0-5,10.09L234.24,453a1.18,1.18,0,0,0,.32.91,1.2,1.2,0,0,0,.89.39h22.38a1.21,1.21,0,0,0,1.21-1.13l5.89-80.64a1.22,1.22,0,1,0-2.44-.18l-5.8,79.51H236.76l5.79-80.41v0a12.31,12.31,0,0,1,4.17-8.41c3.13-2.84,7.72-4.46,13.28-4.67l16.65,0a1.22,1.22,0,0,0,0-2.44Z"/><path class="cls-16" d="M291.39,301.5h0a18.06,18.06,0,0,0-18.06,18.06v37.51h23.23l1.18-7.12,7-2.71a7.4,7.4,0,0,0,4.73-6.9V319.56A18.06,18.06,0,0,0,291.39,301.5Z"/><path class="cls-17" d="M291.39,300.28a19.3,19.3,0,0,0-19.28,19.28v37.51a1.22,1.22,0,0,0,1.22,1.22h23.23a1.21,1.21,0,0,0,1.2-1l1.07-6.44,6.34-2.45a8.63,8.63,0,0,0,5.51-8V319.56A19.31,19.31,0,0,0,291.39,300.28Zm16.85,40.06a6.22,6.22,0,0,1-3.95,5.76l-7,2.71a1.21,1.21,0,0,0-.76.94l-1,6.1h-21V319.56a16.85,16.85,0,0,1,33.69,0Z"/><path class="cls-20" d="M294.79,357.07H263.26L247.79,394v59h81.3l-15-75.3C314.12,369.19,303.33,357.07,294.79,357.07Z"/><path class="cls-17" d="M315.34,377.6c0-4.34-2.57-9.65-6.78-14.23A28.32,28.32,0,0,0,302,358a14.68,14.68,0,0,0-7.23-2.19H263.26a1.22,1.22,0,1,0,0,2.44h31.53c3.62,0,8.1,2.52,12,6.74s6.14,9,6.14,12.7a1,1,0,0,0,0,.24l14.67,73.84H249V394a1.23,1.23,0,0,0-2.45,0v59a1.22,1.22,0,0,0,1.22,1.22h81.3a1.22,1.22,0,0,0,.94-.44,1.23,1.23,0,0,0,.26-1Z"/><path class="cls-16" d="M306.93,357.07l-16.66,0,12.94,15.34L309.1,453h22.37l-5.88-81.72C325.29,365.14,319.92,357.55,306.93,357.07Z"/><path class="cls-17" d="M326.8,371.24a14.83,14.83,0,0,0-5-10.09c-3.57-3.24-8.71-5.07-14.86-5.29h0l-16.67,0h0a1.22,1.22,0,1,0,0,2.44l16.64,0c5.56.21,10.16,1.83,13.29,4.67a12.39,12.39,0,0,1,4.17,8.41v0l5.79,80.41H310.23l-5.8-79.51a1.22,1.22,0,1,0-2.43.18l5.88,80.64a1.22,1.22,0,0,0,1.22,1.13h22.37a1.2,1.2,0,0,0,.89-.39,1.23,1.23,0,0,0,.33-.91Z"/><polygon class="cls-16" points="270.05 357.07 268.68 453.03 315.47 453.03 315.47 393.98 300 357.07 270.05 357.07"/><path class="cls-17" d="M315.47,392.76a1.22,1.22,0,0,0-1.22,1.22v57.83H269.92l1.33-93.52H300a1.22,1.22,0,1,0,0-2.44h-30a1.22,1.22,0,0,0-1.22,1.21l-1.37,96a1.19,1.19,0,0,0,.35.87,1.23,1.23,0,0,0,.87.36h46.79a1.22,1.22,0,0,0,1.22-1.22V394A1.22,1.22,0,0,0,315.47,392.76Z"/><polygon class="cls-16" points="258.14 357.07 256.77 453.03 303.56 453.03 288.1 357.07 258.14 357.07"/><path class="cls-17" d="M288.1,355.85h-30a1.22,1.22,0,1,0,0,2.44h30a1.22,1.22,0,0,0,0-2.44Z"/><path class="cls-17" d="M303.56,451.81H256.77a1.22,1.22,0,1,0,0,2.44h46.79a1.22,1.22,0,1,0,0-2.44Z"/><path class="cls-18" d="M295.8,367.13H242.5a9.85,9.85,0,0,0-9.86,9.86v76h73V377A9.86,9.86,0,0,0,295.8,367.13Z"/><path class="cls-17" d="M295.8,365.91H242.5A11.09,11.09,0,0,0,231.42,377v76a1.21,1.21,0,0,0,1.22,1.22h73a1.22,1.22,0,0,0,1.22-1.22V377A11.09,11.09,0,0,0,295.8,365.91Zm8.64,85.9H233.86V377a8.64,8.64,0,0,1,8.64-8.64h53.3a8.65,8.65,0,0,1,8.64,8.64Z"/><path class="cls-18" d="M291.39,299.35h0a19.46,19.46,0,0,0-19.46,19.46l.82,23c1.06,2.91,4.77,3.63,6.33,3.82,14.19,1.67,18.06-10.62,20-14,2.63-4.42,2.75-14.08,9.67-17.9C306.49,305.62,300.32,299.35,291.39,299.35Z"/><path class="cls-17" d="M303.38,302.59a17.86,17.86,0,0,0-12-4.46,20.69,20.69,0,0,0-20.68,20.68v0l.82,23a1.23,1.23,0,0,0,.08.38,6.44,6.44,0,0,0,3.61,3.62,12.72,12.72,0,0,0,3.71,1,22.84,22.84,0,0,0,2.7.16,16.8,16.8,0,0,0,11.63-4.33,28.15,28.15,0,0,0,6.07-8.77c.33-.65.61-1.22.84-1.61a26.85,26.85,0,0,0,2.19-5.81c1.3-4.36,2.76-9.3,7-11.64a1.22,1.22,0,0,0,.59-1.4A22.37,22.37,0,0,0,303.38,302.59ZM300,325.82a25.43,25.43,0,0,1-1.95,5.26c-.28.48-.58,1.08-.92,1.78-2.25,4.52-6.42,12.95-17.93,11.6-3.72-.44-4.89-2-5.26-2.87l-.81-22.8a18.27,18.27,0,0,1,18.24-18.22,15.47,15.47,0,0,1,10.38,3.85,19.73,19.73,0,0,1,5.58,8.84C302.88,316.22,301.3,321.52,300,325.82Z"/><path class="cls-16" d="M296.88,334.8h0a3.88,3.88,0,0,0,3.88,3.88H302v-7.77h-1.2A3.89,3.89,0,0,0,296.88,334.8Z"/><path class="cls-17" d="M300.76,332.13H302a1.22,1.22,0,1,0,0-2.44h-1.2a5.11,5.11,0,0,0,0,10.21H302a1.22,1.22,0,0,0,0-2.44h-1.2a2.67,2.67,0,0,1,0-5.33Z"/><path class="cls-16" d="M158.66,371.31,152.78,453h22.37L181,372.39,194,357.05l-16.67,0C164.33,357.55,159,365.14,158.66,371.31Z"/><path class="cls-17" d="M194,355.83h0l-16.67,0h0c-6.15.22-11.29,2.05-14.86,5.29a14.89,14.89,0,0,0-5,10.09L151.56,453a1.22,1.22,0,0,0,.32.91,1.24,1.24,0,0,0,.9.39h22.37a1.22,1.22,0,0,0,1.22-1.13l5.88-80.64a1.22,1.22,0,1,0-2.43-.18L174,451.81H154.09l5.79-80.41v0a12.39,12.39,0,0,1,4.17-8.41c3.13-2.84,7.73-4.46,13.29-4.67l16.64,0a1.22,1.22,0,0,0,0-2.44Z"/><path class="cls-16" d="M208.72,301.5h0a18.06,18.06,0,0,0-18.07,18.06v37.51h23.24l1.18-7.12,7-2.71a7.4,7.4,0,0,0,4.73-6.9V319.56A18.06,18.06,0,0,0,208.72,301.5Z"/><path class="cls-17" d="M208.72,300.28a19.31,19.31,0,0,0-19.29,19.28v37.51a1.22,1.22,0,0,0,1.22,1.22h23.24a1.22,1.22,0,0,0,1.2-1l1.07-6.44,6.33-2.45a8.63,8.63,0,0,0,5.51-8V319.56A19.3,19.3,0,0,0,208.72,300.28Zm16.84,40.06a6.22,6.22,0,0,1-3.95,5.76l-7,2.71a1.2,1.2,0,0,0-.77.94l-1,6.1h-21V319.56a16.85,16.85,0,0,1,33.69,0Z"/><path class="cls-20" d="M212.12,357.07H180.58L165.12,394v59h81.29l-15-75.3C231.45,369.19,220.65,357.07,212.12,357.07Z"/><path class="cls-17" d="M232.67,377.6c0-4.34-2.58-9.65-6.79-14.23a28.07,28.07,0,0,0-6.53-5.33,14.74,14.74,0,0,0-7.23-2.19H180.58a1.22,1.22,0,1,0,0,2.44h31.54c3.62,0,8.09,2.52,12,6.74s6.14,9,6.14,12.7a1,1,0,0,0,0,.24l14.68,73.84H166.34V394a1.22,1.22,0,1,0-2.44,0v59a1.22,1.22,0,0,0,1.22,1.22h81.29a1.21,1.21,0,0,0,1.2-1.45Z"/><path class="cls-16" d="M224.26,357.07l-16.67,0,12.95,15.34L226.42,453H248.8l-5.89-81.72C242.61,365.14,237.24,357.55,224.26,357.07Z"/><path class="cls-17" d="M244.13,371.24a14.8,14.8,0,0,0-5-10.09c-3.56-3.24-8.7-5.07-14.86-5.29h0l-16.66,0h0a1.22,1.22,0,0,0,0,2.44l16.65,0c5.56.21,10.15,1.83,13.28,4.67a12.39,12.39,0,0,1,4.17,8.41v0l5.79,80.41H227.56l-5.81-79.51a1.21,1.21,0,0,0-1.3-1.13,1.23,1.23,0,0,0-1.13,1.31l5.89,80.64a1.21,1.21,0,0,0,1.21,1.13H248.8a1.22,1.22,0,0,0,.89-.39A1.18,1.18,0,0,0,250,453Z"/><polygon class="cls-16" points="187.38 357.07 186 453.03 232.79 453.03 232.79 393.98 217.33 357.07 187.38 357.07"/><path class="cls-17" d="M232.79,392.76a1.22,1.22,0,0,0-1.22,1.22v57.83H187.24l1.34-93.52h28.75a1.22,1.22,0,1,0,0-2.44h-30a1.22,1.22,0,0,0-1.22,1.21l-1.38,96a1.21,1.21,0,0,0,1.22,1.23h46.79A1.22,1.22,0,0,0,234,453V394A1.22,1.22,0,0,0,232.79,392.76Z"/><polygon class="cls-16" points="175.47 357.07 174.1 453.03 220.88 453.03 205.42 357.07 175.47 357.07"/><path class="cls-17" d="M205.42,355.85H175.47a1.22,1.22,0,1,0,0,2.44h29.95a1.22,1.22,0,1,0,0-2.44Z"/><path class="cls-17" d="M220.88,451.81H174.1a1.22,1.22,0,0,0,0,2.44h46.78a1.22,1.22,0,1,0,0-2.44Z"/><path class="cls-18" d="M213.12,367.13h-53.3A9.86,9.86,0,0,0,150,377v76h73V377A9.85,9.85,0,0,0,213.12,367.13Z"/><path class="cls-17" d="M213.12,365.91h-53.3A11.09,11.09,0,0,0,148.74,377v76a1.22,1.22,0,0,0,1.22,1.22h73A1.21,1.21,0,0,0,224.2,453V377A11.09,11.09,0,0,0,213.12,365.91Zm8.64,85.9H151.18V377a8.65,8.65,0,0,1,8.64-8.64h53.3a8.65,8.65,0,0,1,8.64,8.64Z"/><path class="cls-21" d="M215.67,298.18c-11.68-.79-16,4.65-16,4.65a10.43,10.43,0,0,0-13.25,3.11c-8.18,10.4-7.39,39-6.56,45.22h42.24c-2.86-1.2-5.13-13.13-4.65-19.09,1.29-16.17,9.78-19.33,9.78-19.33S228.08,299,215.67,298.18Z"/><path class="cls-17" d="M215.75,297c-9.73-.65-14.66,2.85-16.35,4.41a12.71,12.71,0,0,0-4.13-.93,11.33,11.33,0,0,0-9.79,4.74c-2,2.54-3.62,6.25-4.82,11a84.18,84.18,0,0,0-2.11,13.8,123.82,123.82,0,0,0,.11,21.3,1.23,1.23,0,0,0,1.21,1.06h42.24a1.23,1.23,0,0,0,1.2-1,1.21,1.21,0,0,0-.73-1.36c-.59-.24-1.83-2.28-2.86-6.9a41.45,41.45,0,0,1-1.05-11c.35-4.37,1.5-10.5,5-14.9a11,11,0,0,1,4-3.38,1.19,1.19,0,0,0,.79-1.07,19.81,19.81,0,0,0-1.21-7.47C225.9,301.78,222.8,297.44,215.75,297Zm.49,35a43.94,43.94,0,0,0,1.1,11.7,25.1,25.1,0,0,0,2.1,6.27H181a125.92,125.92,0,0,1,0-19.72c.87-11.18,3.09-19.31,6.4-23.53a9.16,9.16,0,0,1,11.7-2.79,1.19,1.19,0,0,0,1.54-.3,10.61,10.61,0,0,1,3.36-2.37c3.92-1.9,8.47-2,11.59-1.83,4.61.31,7.76,2.58,9.36,6.74A17.62,17.62,0,0,1,226,312C223.76,313.21,217.36,317.94,216.24,332Z"/><path class="cls-16" d="M214.2,334.8h0a3.89,3.89,0,0,0,3.89,3.88h1.19v-7.77h-1.19A3.89,3.89,0,0,0,214.2,334.8Z"/><path class="cls-17" d="M218.09,332.13h1.19a1.22,1.22,0,0,0,0-2.44h-1.19a5.11,5.11,0,1,0,0,10.21h1.19a1.22,1.22,0,0,0,0-2.44h-1.19a2.67,2.67,0,1,1,0-5.33Z"/><path class="cls-16" d="M147.16,330h0A18.06,18.06,0,0,0,129.1,348v37.52h23.23l1.18-7.13,7-2.71a7.39,7.39,0,0,0,4.73-6.9V348A18.07,18.07,0,0,0,147.16,330Z"/><path class="cls-17" d="M147.16,328.76A19.3,19.3,0,0,0,127.88,348v37.52a1.22,1.22,0,0,0,1.22,1.22h23.23a1.23,1.23,0,0,0,1.2-1l1.07-6.45,6.33-2.45a8.63,8.63,0,0,0,5.51-8V348A19.3,19.3,0,0,0,147.16,328.76ZM164,368.82a6.24,6.24,0,0,1-3.95,5.77l-7,2.7a1.22,1.22,0,0,0-.77.94l-1,6.11h-21V348A16.84,16.84,0,1,1,164,348Z"/><path class="cls-18" d="M146,320.2a16.87,16.87,0,0,0-16.87,16.87v30.09h26.35l1.13-30h.53c18.73,0,17-17,17-17Z"/><path class="cls-17" d="M174.11,319H146a18.11,18.11,0,0,0-18.09,18.09v30.09a1.21,1.21,0,0,0,1.22,1.22h26.35a1.22,1.22,0,0,0,1.22-1.17l1.08-28.8c5.87-.12,10.39-1.89,13.45-5.28,4.85-5.36,4.16-12.74,4.13-13.06A1.22,1.22,0,0,0,174.11,319Zm-4.74,12.53c-2.68,3-6.81,4.47-12.26,4.47h-.53a1.22,1.22,0,0,0-1.22,1.17l-1.08,28.79h-24V337.07A15.67,15.67,0,0,1,146,321.42h27C172.91,323.49,172.49,328.08,169.37,331.51Z"/><path class="cls-16" d="M152.65,363.28h0a3.88,3.88,0,0,0,3.88,3.88h1.19v-7.77h-1.19A3.88,3.88,0,0,0,152.65,363.28Z"/><path class="cls-17" d="M156.53,360.61h1.19a1.22,1.22,0,1,0,0-2.44h-1.19a5.11,5.11,0,0,0,0,10.21h1.19a1.22,1.22,0,0,0,0-2.44h-1.19a2.67,2.67,0,0,1,0-5.33Z"/><path class="cls-16" d="M249,330h0A18.07,18.07,0,0,0,231,348v37.52H254.2l1.18-7.13,7-2.71a7.39,7.39,0,0,0,4.73-6.9V348A18.07,18.07,0,0,0,249,330Z"/><path class="cls-17" d="M249,328.76A19.3,19.3,0,0,0,229.75,348v37.52a1.22,1.22,0,0,0,1.22,1.22H254.2a1.22,1.22,0,0,0,1.2-1l1.07-6.45,6.34-2.45a8.63,8.63,0,0,0,5.51-8V348A19.31,19.31,0,0,0,249,328.76Zm16.85,40.06a6.24,6.24,0,0,1-3.95,5.77l-7,2.7a1.22,1.22,0,0,0-.76.94l-1,6.11h-21V348a16.85,16.85,0,0,1,33.69,0Z"/><path class="cls-16" d="M254.52,363.28h0a3.89,3.89,0,0,0,3.89,3.88h1.19v-7.77h-1.19A3.89,3.89,0,0,0,254.52,363.28Z"/><path class="cls-17" d="M258.41,360.61h1.19a1.22,1.22,0,0,0,0-2.44h-1.19a5.11,5.11,0,1,0,0,10.21h1.19a1.22,1.22,0,0,0,0-2.44h-1.19a2.67,2.67,0,1,1,0-5.33Z"/><path class="cls-16" d="M343.53,330h0A18.06,18.06,0,0,0,325.47,348v37.52H348.7l1.18-7.13,7-2.71a7.39,7.39,0,0,0,4.73-6.9V348A18.06,18.06,0,0,0,343.53,330Z"/><path class="cls-17" d="M343.53,328.76A19.3,19.3,0,0,0,324.25,348v37.52a1.22,1.22,0,0,0,1.22,1.22H348.7a1.23,1.23,0,0,0,1.2-1l1.07-6.45,6.34-2.45a8.64,8.64,0,0,0,5.5-8V348A19.3,19.3,0,0,0,343.53,328.76Zm16.84,40.06a6.23,6.23,0,0,1-3.95,5.77l-7,2.7a1.22,1.22,0,0,0-.76.94l-1,6.11h-21V348a16.84,16.84,0,1,1,33.68,0Z"/><path class="cls-21" d="M353.05,323.18c-11.93-3.1-16.71,3.33-16.71,3.33-5.25-1.91-12.47,2.33-15.5,9.91-4.66,11.63,3.8,35.19,3.8,35.19h24.83s-1.23-3.84,2-11.21c4.11-9.48,10.37-15.87,11.63-18.61C366.11,335.17,365,326.28,353.05,323.18Z"/><path class="cls-17" d="M353.36,322c-6.51-1.7-11-.63-13.65.57a13.14,13.14,0,0,0-3.76,2.55,11.51,11.51,0,0,0-8.84,1.75,19,19,0,0,0-7.41,9.1c-2,5-2,12.67.1,22.66a109.64,109.64,0,0,0,3.7,13.4,1.21,1.21,0,0,0,1.14.8h24.83a1.2,1.2,0,0,0,1-.5,1.16,1.16,0,0,0,.16-1.08c0-.17-.95-3.74,1.93-10.36a71,71,0,0,1,8.75-14.33,28.82,28.82,0,0,0,2.87-4.26,14.51,14.51,0,0,0,.35-12.23C362.7,326.21,358.83,323.42,353.36,322Zm8.6,19.28a28.47,28.47,0,0,1-2.61,3.82,74.27,74.27,0,0,0-9,14.82,25.49,25.49,0,0,0-2.28,8.79,13.12,13.12,0,0,0,0,1.68H325.52c-1.41-4.19-7.51-23.62-3.55-33.52a16.53,16.53,0,0,1,6.43-7.93c2.59-1.61,5.33-2.08,7.52-1.28a1.24,1.24,0,0,0,1.4-.42c0-.06,4.41-5.74,15.42-2.88,4.83,1.25,8.05,3.53,9.58,6.76A12.07,12.07,0,0,1,362,341.28Z"/><path class="cls-16" d="M349,363.28h0a3.88,3.88,0,0,0,3.88,3.88h1.19v-7.77H352.9A3.89,3.89,0,0,0,349,363.28Z"/><path class="cls-17" d="M352.9,360.61h1.19a1.22,1.22,0,1,0,0-2.44H352.9a5.11,5.11,0,0,0,0,10.21h1.19a1.22,1.22,0,1,0,0-2.44H352.9a2.67,2.67,0,0,1,0-5.33Z"/><path class="cls-17" d="M153.17,384.34H123.22a1.22,1.22,0,1,0,0,2.44h29.95a1.22,1.22,0,0,0,0-2.44Z"/><rect class="cls-17" x="146.99" y="384.34" width="8.66" height="2.44"/><path class="cls-16" d="M97.1,399.8l-5.8,90.38h22.37l5.81-89.31,12.94-15.34-16.66,0C102.77,386,97.4,393.62,97.1,399.8Z"/><path class="cls-16" d="M172,385.56l-16.67,0,12.95,15.34,5.88,89.31h22.37l-5.88-90.38C190.36,393.62,185,386,172,385.56Z"/><path class="cls-17" d="M132.42,384.31h0l-16.67,0h0c-6.15.22-11.29,2.06-14.86,5.3a14.83,14.83,0,0,0-5,10.09l-5.82,90.45h2.45l5.8-90.31v0a12.39,12.39,0,0,1,4.17-8.41c3.13-2.84,7.73-4.46,13.29-4.66l16.64,0a1.22,1.22,0,1,0,0-2.44Z"/><path class="cls-17" d="M119.56,399.65a1.22,1.22,0,0,0-1.3,1.14l-5.81,89.39h2.44l5.8-89.23A1.22,1.22,0,0,0,119.56,399.65Z"/><path class="cls-16" d="M169.39,385.56H119l-15.46,36.91v67.71h81.3V401A15.47,15.47,0,0,0,169.39,385.56Z"/><polygon class="cls-16" points="123.22 385.56 121.86 490.19 168.46 490.19 153.17 385.56 123.22 385.56"/><path class="cls-17" d="M186.91,389.64c-3.57-3.24-8.7-5.08-14.86-5.3h0l-16.67,0h0a1.22,1.22,0,1,0,0,2.44l16.64,0c5.57.2,10.16,1.82,13.29,4.66a12.39,12.39,0,0,1,4.17,8.41v0l5.8,90.31h2.45l-5.81-90.45A14.8,14.8,0,0,0,186.91,389.64Z"/><path class="cls-17" d="M104.78,422.47a1.22,1.22,0,0,0-2.44,0v67.71h2.44Z"/><path class="cls-17" d="M179.65,422.47a1.22,1.22,0,1,0-2.44,0v67.71h2.44Z"/><path class="cls-17" d="M117.8,385.56a1.22,1.22,0,0,0,1.22,1.22h46.13v-2.44H119A1.22,1.22,0,0,0,117.8,385.56Z"/><path class="cls-18" d="M150.15,405.5H96.86A9.85,9.85,0,0,0,87,415.36v74.82h73V415.36A9.86,9.86,0,0,0,150.15,405.5Z"/><path class="cls-17" d="M150.15,404.28H96.86a11.09,11.09,0,0,0-11.08,11.08v74.82h2.44V415.36a8.64,8.64,0,0,1,8.64-8.64h53.29a8.65,8.65,0,0,1,8.65,8.64v74.82h2.44V415.36A11.1,11.1,0,0,0,150.15,404.28Z"/><path class="cls-17" d="M253.25,384.34h-30a1.22,1.22,0,0,0,0,2.44h30a1.22,1.22,0,0,0,0-2.44Z"/><rect class="cls-17" x="247.06" y="384.34" width="8.66" height="2.44"/><path class="cls-16" d="M197.18,399.8l-5.81,90.38h22.38l5.8-89.31,12.95-15.34-16.67,0C202.85,386,197.48,393.62,197.18,399.8Z"/><path class="cls-16" d="M272.08,385.56l-16.66,0,12.94,15.34,5.89,89.31h22.37l-5.88-90.38C290.44,393.62,285.07,386,272.08,385.56Z"/><path class="cls-17" d="M232.5,384.31h0l-16.67,0h0c-6.16.22-11.3,2.06-14.86,5.3a14.8,14.8,0,0,0-5,10.09l-5.81,90.45h2.45l5.8-90.31v0a12.39,12.39,0,0,1,4.17-8.41c3.13-2.84,7.72-4.46,13.28-4.66l16.65,0a1.22,1.22,0,1,0,0-2.44Z"/><path class="cls-17" d="M219.63,399.65a1.22,1.22,0,0,0-1.29,1.14l-5.82,89.39H215l5.8-89.23A1.23,1.23,0,0,0,219.63,399.65Z"/><path class="cls-16" d="M269.47,385.56H219.1l-15.46,36.91v67.71h81.29V401A15.46,15.46,0,0,0,269.47,385.56Z"/><path class="cls-17" d="M287,389.64c-3.57-3.24-8.71-5.08-14.86-5.3h0l-16.67,0h0a1.22,1.22,0,1,0,0,2.44l16.64,0c5.56.2,10.16,1.82,13.29,4.66a12.39,12.39,0,0,1,4.17,8.41v0l5.8,90.31h2.44L292,399.73A14.83,14.83,0,0,0,287,389.64Z"/><path class="cls-17" d="M204.86,422.47a1.22,1.22,0,1,0-2.44,0v67.71h2.44Z"/><path class="cls-17" d="M279.73,422.47a1.22,1.22,0,1,0-2.44,0v67.71h2.44Z"/><path class="cls-17" d="M217.88,385.56a1.22,1.22,0,0,0,1.22,1.22h46.12v-2.44H219.1A1.21,1.21,0,0,0,217.88,385.56Z"/><path class="cls-18" d="M250.23,405.5h-53.3a9.86,9.86,0,0,0-9.86,9.86v74.82h73V415.36A9.85,9.85,0,0,0,250.23,405.5Z"/><path class="cls-17" d="M250.23,404.28h-53.3a11.09,11.09,0,0,0-11.08,11.08v74.82h2.44V415.36a8.65,8.65,0,0,1,8.64-8.64h53.3a8.64,8.64,0,0,1,8.64,8.64v74.82h2.44V415.36A11.09,11.09,0,0,0,250.23,404.28Z"/><path class="cls-17" d="M353.32,384.34H323.37a1.22,1.22,0,0,0,0,2.44h29.95a1.22,1.22,0,0,0,0-2.44Z"/><rect class="cls-17" x="347.14" y="384.34" width="8.66" height="2.44"/><path class="cls-16" d="M297.26,399.8l-5.81,90.38h22.37l5.81-89.31,12.94-15.34-16.66,0C302.93,386,297.55,393.62,297.26,399.8Z"/><path class="cls-16" d="M372.16,385.56l-16.67,0,12.95,15.34,5.88,89.31H396.7l-5.89-90.38C390.51,393.62,385.14,386,372.16,385.56Z"/><path class="cls-17" d="M332.57,384.31h0l-16.66,0h-.05c-6.15.22-11.29,2.06-14.86,5.3a14.83,14.83,0,0,0-5,10.09l-5.81,90.45h2.44l5.8-90.31v0a12.36,12.36,0,0,1,4.18-8.41c3.13-2.84,7.72-4.46,13.28-4.66l16.65,0a1.22,1.22,0,0,0,0-2.44Z"/><path class="cls-17" d="M319.71,399.65a1.23,1.23,0,0,0-1.3,1.14l-5.81,89.39h2.45l5.8-89.23A1.23,1.23,0,0,0,319.71,399.65Z"/><polygon class="cls-16" points="323.37 385.56 322.01 490.19 368.61 490.19 353.32 385.56 323.37 385.56"/><path class="cls-17" d="M387.06,389.64c-3.56-3.24-8.7-5.08-14.86-5.3h0l-16.66,0h0a1.22,1.22,0,0,0,0,2.44l16.65,0c5.56.2,10.15,1.82,13.28,4.66a12.39,12.39,0,0,1,4.17,8.41v0l5.81,90.31h2.44L392,399.73A14.8,14.8,0,0,0,387.06,389.64Z"/><path class="cls-17" d="M304.93,422.47a1.22,1.22,0,0,0-2.44,0v67.71h2.44Z"/><path class="cls-17" d="M379.8,422.47a1.22,1.22,0,1,0-2.44,0v67.71h2.44Z"/><path class="cls-17" d="M318,385.56a1.22,1.22,0,0,0,1.22,1.22H365.3v-2.44H319.17A1.22,1.22,0,0,0,318,385.56Z"/><path class="cls-18" d="M350.31,405.5H297a9.85,9.85,0,0,0-9.86,9.86v74.82h73V415.36A9.86,9.86,0,0,0,350.31,405.5Z"/><path class="cls-17" d="M350.31,404.28H297a11.09,11.09,0,0,0-11.08,11.08v74.82h2.44V415.36a8.64,8.64,0,0,1,8.64-8.64h53.3a8.65,8.65,0,0,1,8.64,8.64v74.82h2.44V415.36A11.09,11.09,0,0,0,350.31,404.28Z"/><g class="cls-22"><path class="cls-23" d="M187.94,131.19V195.7a6.51,6.51,0,0,0,4.25,1.29,8.47,8.47,0,0,0,6.34-3.33,10.43,10.43,0,0,0,10.19-10.39v-.71a10.42,10.42,0,0,0,9-4.15m-1.49-44c-2-1.57-5-3.09-7.51-2.93v-.72a10.42,10.42,0,0,0-10.19-10.38,8.47,8.47,0,0,0-6.34-3.33,6.51,6.51,0,0,0-4.25,1.28v12.84"/><path class="cls-23" d="M184,131.19V195.7a7.68,7.68,0,0,1-10.59-2,10.42,10.42,0,0,1-10.18-10.39v-.71a10.41,10.41,0,0,1-9.32-16.19,10.4,10.4,0,0,1,0-18.68,10.41,10.41,0,0,1,9.32-16.19v-.72a10.41,10.41,0,0,1,10.18-10.38A7.7,7.7,0,0,1,184,118.35Z"/><path class="cls-24" d="M171.82,167.47a10.41,10.41,0,0,1-10.77,15"/><path class="cls-24" d="M168.88,157a10.4,10.4,0,0,1-15,9.32m15-9.89c0,.19,0,.38,0,.57"/><path class="cls-24" d="M163.26,131.5a10.43,10.43,0,0,1,8.88,6.38"/><path class="cls-24" d="M160.63,152.12a10.39,10.39,0,0,1-8.3-8.18"/><path class="cls-24" d="M168.08,161.06s6-3,9.1,2.89"/><path class="cls-24" d="M169.29,180.09c.39,2.75,7.37,5,8.92-1"/><path class="cls-24" d="M169,133.74c.39-3.74,9.76-4.33,10.19,2.51"/><path class="cls-24" d="M174.87,154.46c.76-4.07-4.35-4.1-3.1-7.72"/><path class="cls-24" d="M173.26,150.6s3.56-2.69,2.9-5.52.11-2.83.94-4"/><rect class="cls-25" x="191.88" y="143.54" width="21.87" height="21.87"/><polyline class="cls-24" points="213.75 146.39 224.41 146.39 227.13 141.53 243.51 141.53"/><path class="cls-26" d="M246.78,138.26a3.27,3.27,0,1,1-3.27,3.27A3.27,3.27,0,0,1,246.78,138.26Z"/><polyline class="cls-24" points="213.75 162.5 224.41 162.5 230.78 167.36 243.51 167.36"/><circle class="cls-27" cx="246.78" cy="167.36" r="3.27"/><line class="cls-25" x1="213.75" y1="154.48" x2="231.84" y2="154.48"/><path class="cls-26" d="M235.11,151.21a3.27,3.27,0,1,1-3.27,3.27A3.27,3.27,0,0,1,235.11,151.21Z"/><polyline class="cls-24" points="200.01 143.54 200.01 137.27 196.13 134.79 196.14 131.99"/><line class="cls-25" x1="205.62" y1="143.54" x2="205.62" y2="139.59"/><polyline class="cls-24" points="210.78 165.41 210.78 170.55 219.77 170.55"/><path class="cls-26" d="M222.35,173.13a2.58,2.58,0,1,0-2.58-2.58A2.58,2.58,0,0,0,222.35,173.13Z"/><rect class="cls-27" x="196.49" y="148.16" width="12.64" height="12.64"/><path class="cls-26" d="M196.14,125.45a3.27,3.27,0,1,1-3.27,3.27A3.26,3.26,0,0,1,196.14,125.45Z"/><path class="cls-26" d="M205.62,135.11a2.24,2.24,0,1,1-2.24,2.24A2.24,2.24,0,0,1,205.62,135.11Z"/><polyline class="cls-24" points="200.01 165.41 200.01 171.68 196.13 174.17 196.14 176.97"/><line class="cls-25" x1="205.62" y1="165.41" x2="205.62" y2="169.37"/><path class="cls-26" d="M196.14,183.51a3.27,3.27,0,1,0-3.27-3.27A3.27,3.27,0,0,0,196.14,183.51Z"/><path class="cls-26" d="M205.62,173.85a2.24,2.24,0,1,0-2.24-2.24A2.24,2.24,0,0,0,205.62,173.85Z"/><line class="cls-27" x1="202.82" y1="156.45" x2="202.82" y2="152.5"/></g><g class="cls-28"><path class="cls-18" d="M142.71,122.87a10.75,10.75,0,0,0,2.06.25,9.43,9.43,0,0,0,6.65-2.68l-6.51-6.53Z"/><path class="cls-16" d="M151.35,120.46l-.32.32c.14-.11.27-.23.4-.35l0,0Z"/><path class="cls-29" d="M141.93,122.73l2.37-9.65v-9.93a10,10,0,0,0-2.37,19.58Z"/><path class="cls-16" d="M150.48,120.5,150,121l-.4.4-.48.47-.4.41h0a9.71,9.71,0,0,0,1.06-.56l.08-.08.4-.4.47-.47.4-.4.09-.1L151,120l-.09.09Z"/><path class="cls-16" d="M149.61,119.63l-.48.47-.4.4-.47.48-.4.4-.47.47-.4.41-.47.47-.26.27.62-.12.37-.37.39-.4.48-.48.4-.4.47-.47.4-.4.47-.48.4-.4.09-.09-.25-.26-.09.1Z"/><path class="cls-16" d="M148.73,118.75l-.47.48-.4.4-.47.47-.4.4-.47.48-.4.4-.47.47-.4.41-.47.47-.38.38h.5L145,123l.47-.48.4-.4.47-.48.4-.4.48-.47.39-.4.48-.48.4-.4L149,119l.4-.41.09-.09-.25-.25-.1.09Z"/><path class="cls-16" d="M147.86,117.87l-.47.48-.4.4-.47.48-.4.4-.47.47-.4.4-.47.48-.4.4-.47.47-.4.41-.48.47-.2.21.43.08,0,0,.47-.48.4-.4.47-.48.4-.4.47-.47.4-.4.47-.48.4-.4.48-.47.39-.41.48-.47.4-.4.09-.1-.26-.25-.09.09Z"/><polygon class="cls-16" points="146.99 117 146.52 117.47 146.12 117.87 145.65 118.35 145.25 118.75 144.78 119.22 144.38 119.63 143.91 120.1 143.51 120.5 143.22 120.79 143.06 121.47 143.29 121.23 143.76 120.76 144.16 120.36 144.63 119.88 145.03 119.48 145.5 119.01 145.9 118.6 146.37 118.13 146.77 117.73 147.25 117.25 147.65 116.85 147.74 116.76 147.48 116.5 147.39 116.6 146.99 117"/><path class="cls-16" d="M147.37,122.76c.25-.07.5-.16.75-.25h0l.4-.4.47-.48.4-.4.47-.47.4-.4.47-.48.06,0-.26-.26-.05.06-.47.47-.4.4-.48.48-.4.4-.47.47-.4.41-.47.47Z"/><polygon class="cls-16" points="146.12 116.12 145.65 116.6 145.25 117 144.78 117.47 144.38 117.87 143.91 118.35 143.79 118.46 143.63 119.14 143.76 119.01 144.16 118.6 144.63 118.13 145.03 117.73 145.5 117.25 145.9 116.85 146.37 116.38 146.77 115.97 146.87 115.88 146.61 115.63 146.52 115.72 146.12 116.12"/><polygon class="cls-16" points="145.25 115.24 144.78 115.72 144.38 116.12 144.36 116.13 144.2 116.81 144.63 116.38 145.03 115.97 145.5 115.5 145.9 115.1 145.99 115 145.74 114.75 145.65 114.84 145.25 115.24"/><path class="cls-16" d="M145.28,123.1a4.89,4.89,0,0,0,.55,0l.07-.06.47-.48.4-.4.48-.48.39-.4.48-.47.4-.4.47-.48.4-.4.47-.47.06-.06-.26-.26,0,.06-.48.48-.4.4-.47.47-.4.4-.47.48-.4.4-.47.47-.4.41-.47.47Z"/><polygon class="cls-16" points="144.77 114.48 145.03 114.22 145.12 114.13 144.91 113.91 144.77 114.48"/><polygon class="cls-16" points="144.48 115.65 144.63 115.5 145.03 115.1 145.5 114.62 145.56 114.57 145.31 114.31 145.25 114.37 144.78 114.84 144.65 114.97 144.48 115.65"/><polygon class="cls-16" points="144.16 117.73 144.63 117.25 145.03 116.85 145.5 116.38 145.9 115.97 146.37 115.5 146.43 115.44 146.18 115.19 146.12 115.24 145.65 115.72 145.25 116.12 144.78 116.6 144.38 117 144.08 117.3 143.91 117.98 144.16 117.73"/><polygon class="cls-16" points="143.51 119.63 143.34 120.3 143.76 119.88 144.16 119.48 144.63 119.01 145.03 118.6 145.5 118.13 145.9 117.73 146.37 117.25 146.77 116.85 147.25 116.38 147.3 116.32 147.05 116.06 146.99 116.12 146.52 116.6 146.12 117 145.65 117.47 145.25 117.87 144.78 118.35 144.38 118.75 143.91 119.22 143.51 119.63"/><path class="cls-16" d="M143.58,123.06l.47,0,.11-.11.47-.48.4-.4.47-.48.4-.4.47-.47.4-.4.48-.48.39-.4.48-.47.4-.41.47-.47,0-.06-.25-.25-.06.05-.47.48-.4.4-.47.48-.4.4-.47.47-.4.4-.47.48-.4.4-.47.47-.4.41-.47.47Z"/><polygon class="cls-16" points="142.77 122.63 142.89 122.51 143.29 122.11 143.76 121.64 144.16 121.23 144.63 120.76 145.03 120.36 145.5 119.88 145.9 119.48 146.37 119.01 146.77 118.6 147.25 118.13 147.65 117.73 148.12 117.25 148.17 117.2 147.92 116.94 147.86 117 147.39 117.47 146.99 117.87 146.52 118.35 146.12 118.75 145.65 119.22 145.25 119.63 144.78 120.1 144.38 120.5 143.91 120.98 143.51 121.38 143.03 121.85 142.94 121.95 142.77 122.63"/><path class="cls-18" d="M145.09,113l6.9,6.94a10,10,0,0,0-6.9-16.76Z"/></g><rect class="cls-30" x="74.3" y="248.49" width="0.85" height="9.77"/><rect class="cls-30" x="71.75" y="253.17" width="0.85" height="5.1"/><rect class="cls-30" x="76.84" y="245.1" width="0.85" height="13.17"/><rect class="cls-30" x="79.39" y="254.44" width="0.85" height="3.82"/><rect class="cls-30" x="81.94" y="252.74" width="0.85" height="5.52"/><rect class="cls-30" x="84.49" y="250.19" width="0.85" height="8.07"/><rect class="cls-30" x="87.04" y="236.6" width="0.85" height="21.66"/><rect class="cls-30" x="89.59" y="255.29" width="0.85" height="2.97"/><path class="cls-31" d="M90,255.71a.3.3,0,0,1-.13,0l-7.65-2.55A.44.44,0,0,1,82,253l-4.76-7.15-2.19,2.92a.42.42,0,0,1-.55.11l-5.1-3a.42.42,0,0,1-.15-.58.41.41,0,0,1,.58-.16l4.77,2.79,2.32-3.1a.4.4,0,0,1,.35-.17.39.39,0,0,1,.34.19l5,7.52,7.51,2.51a.42.42,0,0,1,.27.53A.43.43,0,0,1,90,255.71Z"/><path class="cls-32" d="M69.62,258.69a.45.45,0,0,1-.19-.05.43.43,0,0,1-.19-.57L71.79,253a.43.43,0,0,1,.45-.23L79.71,254l4.82-3.61,2.52-13.86a.42.42,0,0,1,.49-.34.43.43,0,0,1,.34.5l-2.55,14a.42.42,0,0,1-.16.27l-5.1,3.82a.41.41,0,0,1-.32.08l-7.34-1.22L70,258.45A.42.42,0,0,1,69.62,258.69Z"/><path class="cls-33" d="M69.62,256.14h-.85a.42.42,0,0,1-.42-.43h0a.42.42,0,0,1,.42-.42h.85Z"/><path class="cls-33" d="M69.62,253.59h-.85a.42.42,0,0,1-.42-.42h0a.42.42,0,0,1,.42-.43h.85Z"/><path class="cls-33" d="M69.62,251h-.85a.42.42,0,0,1-.42-.42h0a.42.42,0,0,1,.42-.43h.85Z"/><path class="cls-33" d="M69.62,248.49h-.85a.42.42,0,0,1-.42-.42h0a.42.42,0,0,1,.42-.43h.85Z"/><path class="cls-33" d="M69.62,245.94h-.85a.42.42,0,0,1-.42-.42h0a.42.42,0,0,1,.42-.42h.85Z"/><path class="cls-33" d="M69.62,243.4h-.85a.42.42,0,0,1-.42-.43h0a.42.42,0,0,1,.42-.42h.85Z"/><path class="cls-33" d="M69.62,240.85h-.85a.42.42,0,0,1-.42-.43h0a.42.42,0,0,1,.42-.42h.85Z"/><path class="cls-33" d="M69.62,238.3h-.85a.42.42,0,0,1-.42-.43h0a.42.42,0,0,1,.42-.42h.85Z"/><path class="cls-33" d="M90.44,258.26v.85a.43.43,0,0,1-.43.43h0a.42.42,0,0,1-.42-.43v-.85Z"/><path class="cls-33" d="M87.89,258.26v.85a.43.43,0,0,1-.43.43h0a.42.42,0,0,1-.42-.43v-.85Z"/><path class="cls-33" d="M85.34,258.26v.85a.42.42,0,0,1-.42.43h0a.43.43,0,0,1-.43-.43v-.85Z"/><path class="cls-33" d="M82.79,258.26v.85a.42.42,0,0,1-.42.43h0a.43.43,0,0,1-.43-.43v-.85Z"/><path class="cls-33" d="M80.24,258.26v.85a.42.42,0,0,1-.42.43h0a.43.43,0,0,1-.43-.43v-.85Z"/><path class="cls-33" d="M77.69,258.26v.85a.42.42,0,0,1-.42.43h0a.43.43,0,0,1-.43-.43v-.85Z"/><path class="cls-33" d="M75.15,258.26v.85a.43.43,0,0,1-.43.43h0a.42.42,0,0,1-.42-.43v-.85Z"/><path class="cls-33" d="M72.6,258.26v.85a.43.43,0,0,1-.43.43h0a.42.42,0,0,1-.42-.43v-.85Z"/><path class="cls-34" d="M69.62,259.54h0a.42.42,0,0,1-.42-.43V235.33a.42.42,0,0,1,.42-.43h0a.43.43,0,0,1,.43.43v23.78A.43.43,0,0,1,69.62,259.54Z"/><path class="cls-34" d="M68.35,258.26h0a.42.42,0,0,1,.42-.42H92.56a.42.42,0,0,1,.43.42h0a.43.43,0,0,1-.43.43H68.77A.42.42,0,0,1,68.35,258.26Z"/><circle class="cls-35" cx="72.17" cy="253.17" r="0.85"/><circle class="cls-36" cx="74.72" cy="248.49" r="0.85"/><circle class="cls-36" cx="77.27" cy="245.1" r="0.85"/><circle class="cls-36" cx="82.37" cy="252.74" r="0.85"/><circle class="cls-36" cx="90.01" cy="255.29" r="0.85"/><circle class="cls-35" cx="79.82" cy="254.44" r="0.85"/><circle class="cls-35" cx="84.92" cy="250.62" r="0.85"/><circle class="cls-35" cx="87.46" cy="236.6" r="0.85"/><line class="cls-37" x1="270.64" y1="114.28" x2="270.64" y2="115.35"/><line class="cls-38" x1="270.64" y1="117.49" x2="270.64" y2="197.86"/><line class="cls-37" x1="270.64" y1="198.93" x2="270.64" y2="200"/><rect class="cls-18" x="300.4" y="166.35" width="6.29" height="15.8"/><rect class="cls-39" x="314.57" y="152.48" width="6.29" height="29.66"/><rect class="cls-18" x="328.75" y="155.55" width="6.29" height="26.6"/><rect class="cls-39" x="342.93" y="140.53" width="6.29" height="41.61"/><g class="cls-40"><rect class="cls-41" x="314.57" y="152.48" width="2.89" height="29.66"/></g><g class="cls-40"><rect class="cls-41" x="300.4" y="166.35" width="2.89" height="15.8"/></g><g class="cls-42"><rect class="cls-41" x="342.93" y="140.53" width="2.89" height="41.61"/></g><g class="cls-40"><rect class="cls-41" x="328.75" y="155.55" width="2.89" height="26.6"/></g><polygon class="cls-43" points="352.55 186.49 296.24 186.49 296.24 131.88 297.1 131.88 297.1 185.63 352.55 185.63 352.55 186.49"/><polygon class="cls-43" points="302.02 158.95 301.45 158.31 316.18 145.08 329.83 148.05 344.6 131.6 345.24 132.17 330.13 148.99 316.43 146.01 302.02 158.95"/><polygon class="cls-43" points="346.4 134.6 342.23 130.61 347.61 129.17 346.4 134.6"/><polygon class="cls-44" points="481.7 68.4 481.7 61.65 478.11 65.2 477.79 64.87 477.79 68.4 481.7 68.4"/><polygon class="cls-44" points="486.3 68.4 486.3 62.77 483.48 59.66 482.39 60.72 482.39 68.4 486.3 68.4"/><polygon class="cls-44" points="490.91 68.4 490.91 61.06 487.58 64.12 487 63.49 487 68.4 490.91 68.4"/><polygon class="cls-44" points="495.51 68.4 495.51 56.82 491.6 60.42 491.6 68.4 495.51 68.4"/><path class="cls-45" d="M495.43,53l-7.7,7-3.58-3.69a.91.91,0,0,0-.62-.26.87.87,0,0,0-.62.26l-5.11,5.21v1.81l.33.32,5.4-5.5,3.55,3.65a.87.87,0,0,0,1.2,0l7.23-6.57V53Z"/><polygon class="cls-44" points="58.77 146.42 58.77 139.67 55.18 143.22 54.85 142.89 54.85 146.42 58.77 146.42"/><polygon class="cls-44" points="63.37 146.42 63.37 140.78 60.54 137.67 59.46 138.74 59.46 146.42 63.37 146.42"/><polygon class="cls-44" points="67.98 146.42 67.98 139.07 64.65 142.14 64.06 141.5 64.06 146.42 67.98 146.42"/><polygon class="cls-44" points="72.58 146.42 72.58 134.84 68.67 138.44 68.67 146.42 72.58 146.42"/><path class="cls-45" d="M72.49,131l-7.69,7-3.59-3.69a.83.83,0,0,0-.61-.26.85.85,0,0,0-.62.26l-5.11,5.2v1.81l.33.32,5.39-5.49,3.55,3.65a.87.87,0,0,0,1.2,0l7.24-6.57v-2.16Z"/></g></g></svg>