<?xml version="1.0" encoding="utf-8"?>
<!-- Generator: Adobe Illustrator 16.0.0, SVG Export Plug-In . SVG Version: 6.00 Build 0)  -->
<!DOCTYPE svg PUBLIC "-//W3C//DTD SVG 1.1//EN" "http://www.w3.org/Graphics/SVG/1.1/DTD/svg11.dtd">
<svg version="1.1" id="Capa_1" xmlns="http://www.w3.org/2000/svg" xmlns:xlink="http://www.w3.org/1999/xlink" x="0px" y="0px"
	 width="72px" height="72px" viewBox="864 540 72 72" enable-background="new 864 540 72 72" xml:space="preserve">
<g>
	<g>
		<g>
			<path fill="#36BB52" d="M923.134,575.351c-1.278-1.917-2.138-4.483-2.138-6.384c0-2.157-1.48-3.975-3.499-4.488V562
				c0-0.644-0.522-1.167-1.167-1.167h-2.449c-0.542-2.659-2.899-4.666-5.715-4.666c-3.566,0-6.229-1.067-7.122-2.854
				c-0.396-0.791-1.692-0.791-2.087,0c-0.894,1.787-3.555,2.854-7.123,2.854c-2.815,0-5.173,2.007-5.714,4.666h-2.451
				c-0.644,0-1.166,0.522-1.166,1.167v2.473c-2.008,0.507-3.499,2.329-3.499,4.493c0,1.901-0.86,4.467-2.138,6.384
				c-0.26,0.392-0.26,0.902,0,1.293c1.279,1.918,2.138,4.483,2.138,6.386c0,2.156,1.48,3.972,3.499,4.486v2.479
				c0,0.645,0.522,1.166,1.166,1.166h2.451c0.541,2.658,2.898,4.667,5.714,4.667c4.047,0,6.199,0.119,7.06,2.701
				c0.158,0.477,0.604,0.798,1.106,0.798c0.502,0,0.948-0.321,1.107-0.798c0.86-2.582,3.01-2.701,7.059-2.701
				c2.815,0,5.173-2.009,5.715-4.667h2.449c0.645,0,1.167-0.521,1.167-1.166v-2.472c2.009-0.508,3.499-2.33,3.499-4.493
				c0-1.902,0.859-4.468,2.138-6.386C923.396,576.253,923.396,575.743,923.134,575.351z M918.664,583.03
				c0,1.266-1.031,2.3-2.334,2.3c-0.644,0-1.166,0.521-1.166,1.166v2.332h-2.333c-0.645,0-1.167,0.521-1.167,1.167
				c0,1.928-1.568,3.501-3.498,3.501c-3.104,0-6.294,0-8.166,2.243c-1.872-2.243-5.062-2.243-8.165-2.243
				c-1.93,0-3.5-1.573-3.5-3.501c0-0.646-0.522-1.167-1.166-1.167h-2.333v-2.332c0-0.645-0.554-1.166-1.198-1.166
				c-1.269,0-2.301-1.034-2.301-2.3c0-2.146-0.82-4.83-2.123-7.033c1.303-2.201,2.123-4.885,2.123-7.03
				c0-1.269,1.032-2.301,2.333-2.301c0.645,0,1.167-0.522,1.167-1.167v-2.333h2.333c0.644,0,1.166-0.522,1.166-1.167
				c0-1.929,1.57-3.499,3.5-3.499c3.617,0,6.483-0.961,8.165-2.687c1.681,1.725,4.549,2.687,8.166,2.687
				c1.93,0,3.498,1.57,3.498,3.499c0,0.645,0.522,1.167,1.167,1.167h2.333v2.333c0,0.644,0.555,1.167,1.199,1.167
				c1.27,0,2.301,1.032,2.301,2.301c0,2.145,0.818,4.83,2.122,7.03C919.482,578.2,918.664,580.885,918.664,583.03z"/>
		</g>
	</g>
	<g>
		<g>
			<rect x="898.834" y="546.836" fill="#36BB52" width="2.332" height="3.5"/>
		</g>
	</g>
	<g>
		<g>
			
				<rect x="928.193" y="543.334" transform="matrix(-0.7071 0.7071 -0.7071 -0.7071 1975.1776 270.8561)" fill="#36BB52" width="6.599" height="2.333"/>
		</g>
	</g>
	<g>
		<g>
			<rect x="930.327" y="574.831" fill="#36BB52" width="4.667" height="2.333"/>
		</g>
	</g>
	<g>
		<g>
			<rect x="898.834" y="541.004" fill="#36BB52" width="2.332" height="3.499"/>
		</g>
	</g>
	<g>
		<g>
			<rect x="925.662" y="574.831" fill="#36BB52" width="2.333" height="2.333"/>
		</g>
	</g>
	<g>
		<g>
			
				<rect x="923.62" y="564.564" transform="matrix(-0.9237 0.3831 -0.3831 -0.9237 1995.755 733.9814)" fill="#36BB52" width="2.332" height="2.334"/>
		</g>
	</g>
	<g>
		<g>
			
				<rect x="920.762" y="551.736" transform="matrix(-0.7071 0.7072 -0.7072 -0.7071 1966.7635 291.0589)" fill="#36BB52" width="4.666" height="2.333"/>
		</g>
	</g>
	<g>
		<g>
			
				<rect x="917.802" y="555.865" transform="matrix(-0.7071 0.7071 -0.7071 -0.7071 1962.6583 301.1028)" fill="#36BB52" width="2.333" height="2.333"/>
		</g>
	</g>
	<g>
		<g>
			
				<rect x="909.1" y="550.047" transform="matrix(-0.3825 0.924 -0.924 -0.3825 1767.7241 -79.0166)" fill="#36BB52" width="2.334" height="2.333"/>
		</g>
	</g>
	<g>
		<g>
			
				<rect x="927.707" y="561.662" transform="matrix(-0.9238 0.3828 -0.3828 -0.9238 2008.0486 726.1503)" fill="#36BB52" width="8.166" height="2.333"/>
		</g>
	</g>
	<g>
		<g>
			
				<rect x="909.085" y="543.043" transform="matrix(-0.383 0.9238 -0.9238 -0.383 1765.5891 -90.9425)" fill="#36BB52" width="8.165" height="2.332"/>
		</g>
	</g>
	<g>
		<g>
			
				<rect x="867.34" y="541.205" transform="matrix(-0.707 0.7072 -0.7072 -0.707 1867.6216 315.2517)" fill="#36BB52" width="2.333" height="6.598"/>
		</g>
	</g>
	<g>
		<g>
			<rect x="865.006" y="574.831" fill="#36BB52" width="4.666" height="2.333"/>
		</g>
	</g>
	<g>
		<g>
			<rect x="872.005" y="574.831" fill="#36BB52" width="2.333" height="2.333"/>
		</g>
	</g>
	<g>
		<g>
			
				<rect x="874.05" y="564.562" transform="matrix(-0.3826 0.9239 -0.9239 -0.3826 1732.7728 -26.4279)" fill="#36BB52" width="2.333" height="2.333"/>
		</g>
	</g>
	<g>
		<g>
			
				<rect x="875.743" y="550.57" transform="matrix(-0.707 0.7072 -0.7072 -0.707 1887.9066 323.6464)" fill="#36BB52" width="2.333" height="4.667"/>
		</g>
	</g>
	<g>
		<g>
			
				<rect x="879.863" y="555.86" transform="matrix(-0.707 0.7072 -0.7072 -0.707 1897.8555 327.7717)" fill="#36BB52" width="2.333" height="2.333"/>
		</g>
	</g>
	<g>
		<g>
			
				<rect x="888.568" y="550.044" transform="matrix(-0.9239 0.3825 -0.3825 -0.9239 1922.6567 720.1262)" fill="#36BB52" width="2.333" height="2.333"/>
		</g>
	</g>
	<g>
		<g>
			
				<rect x="867.044" y="558.747" transform="matrix(-0.3826 0.9239 -0.9239 -0.3826 1720.4081 -23.9618)" fill="#36BB52" width="2.333" height="8.166"/>
		</g>
	</g>
	<g>
		<g>
			
				<rect x="885.667" y="540.124" transform="matrix(-0.9238 0.3828 -0.3828 -0.9238 1914.4337 707.5143)" fill="#36BB52" width="2.332" height="8.166"/>
		</g>
	</g>
	<g>
		<g>
			<rect x="898.834" y="601.659" fill="#36BB52" width="2.332" height="3.501"/>
		</g>
	</g>
	<g>
		<g>
			
				<rect x="930.326" y="604.192" transform="matrix(-0.7069 0.7073 -0.7073 -0.7069 2019.6504 378.0668)" fill="#36BB52" width="2.333" height="6.6"/>
		</g>
	</g>
	<g>
		<g>
			<rect x="898.834" y="607.492" fill="#36BB52" width="2.332" height="3.499"/>
		</g>
	</g>
	<g>
		<g>
			
				<rect x="923.619" y="585.093" transform="matrix(-0.3823 0.924 -0.924 -0.3823 1820.0771 -44.1257)" fill="#36BB52" width="2.335" height="2.333"/>
		</g>
	</g>
	<g>
		<g>
			
				<rect x="921.928" y="596.759" transform="matrix(-0.7069 0.7073 -0.7073 -0.7069 1999.3757 369.6695)" fill="#36BB52" width="2.333" height="4.667"/>
		</g>
	</g>
	<g>
		<g>
			
				<rect x="917.798" y="593.797" transform="matrix(-0.7071 0.7071 -0.7071 -0.7071 1989.4749 365.8603)" fill="#36BB52" width="2.334" height="2.333"/>
		</g>
	</g>
	<g>
		<g>
			
				<rect x="909.1" y="599.617" transform="matrix(-0.9239 0.3826 -0.3826 -0.9239 1981.1389 807.5627)" fill="#36BB52" width="2.333" height="2.334"/>
		</g>
	</g>
	<g>
		<g>
			
				<rect x="930.623" y="585.091" transform="matrix(-0.3825 0.924 -0.924 -0.3825 1832.553 -46.4241)" fill="#36BB52" width="2.334" height="8.166"/>
		</g>
	</g>
	<g>
		<g>
			
				<rect x="912.005" y="603.711" transform="matrix(-0.924 0.3825 -0.3825 -0.924 1989.3763 820.1087)" fill="#36BB52" width="2.334" height="8.165"/>
		</g>
	</g>
	<g>
		<g>
			
				<rect x="865.212" y="606.325" transform="matrix(-0.707 0.7072 -0.7072 -0.707 1912.1844 422.8134)" fill="#36BB52" width="6.599" height="2.333"/>
		</g>
	</g>
	<g>
		<g>
			
				<rect x="874.048" y="585.097" transform="matrix(-0.9239 0.3826 -0.3826 -0.9239 1908.1469 793.0383)" fill="#36BB52" width="2.333" height="2.334"/>
		</g>
	</g>
	<g>
		<g>
			
				<rect x="874.576" y="597.927" transform="matrix(-0.7073 0.7069 -0.7069 -0.7073 1920.6434 402.8777)" fill="#36BB52" width="4.666" height="2.33"/>
		</g>
	</g>
	<g>
		<g>
			
				<rect x="879.86" y="593.796" transform="matrix(-0.7073 0.7069 -0.7069 -0.7073 1924.7676 392.9929)" fill="#36BB52" width="2.332" height="2.332"/>
		</g>
	</g>
	<g>
		<g>
			
				<rect x="888.568" y="599.621" transform="matrix(-0.3831 0.9237 -0.9237 -0.3831 1785.5599 9.123)" fill="#36BB52" width="2.332" height="2.332"/>
		</g>
	</g>
	<g>
		<g>
			
				<rect x="864.127" y="587.999" transform="matrix(-0.9239 0.3825 -0.3825 -0.9239 1895.7563 801.4143)" fill="#36BB52" width="8.164" height="2.332"/>
		</g>
	</g>
	<g>
		<g>
			
				<rect x="882.743" y="606.62" transform="matrix(-0.3829 0.9238 -0.9238 -0.3829 1787.8834 21.307)" fill="#36BB52" width="8.164" height="2.332"/>
		</g>
	</g>
	<g>
		<g>
			<path fill="#36BB52" d="M907.451,575.997l3.891-5.314c0.273-0.374,0.301-0.873,0.069-1.273c-0.231-0.399-0.676-0.623-1.137-0.576
				l-6.55,0.712l-2.657-6.028c-0.186-0.423-0.605-0.695-1.067-0.695s-0.881,0.272-1.067,0.695l-2.657,6.028l-6.55-0.712
				c-0.454-0.046-0.905,0.177-1.136,0.576c-0.231,0.401-0.204,0.9,0.069,1.273l3.892,5.314l-3.892,5.317
				c-0.273,0.373-0.3,0.871-0.069,1.271c0.231,0.401,0.682,0.628,1.136,0.577l6.55-0.712l2.657,6.026
				c0.187,0.424,0.605,0.697,1.067,0.697s0.882-0.273,1.067-0.697l2.657-6.026l6.55,0.712c0.461,0.051,0.905-0.176,1.137-0.577
				c0.231-0.399,0.204-0.897-0.069-1.271L907.451,575.997z M903.128,580.037c-0.5-0.057-0.987,0.224-1.193,0.69L900,585.115
				l-1.935-4.388c-0.188-0.428-0.609-0.694-1.066-0.694c-0.042,0-0.084,0-0.126,0.004l-4.769,0.52l2.833-3.868
				c0.301-0.412,0.301-0.969,0-1.38l-2.833-3.87l4.769,0.518c0.498,0.052,0.987-0.224,1.192-0.688L900,566.88l1.935,4.388
				c0.206,0.466,0.695,0.742,1.193,0.688l4.769-0.518l-2.833,3.87c-0.3,0.411-0.3,0.968,0,1.38l2.833,3.868L903.128,580.037z"/>
		</g>
	</g>
</g>
</svg>
