<?xml version="1.0" encoding="utf-8"?>
<!-- Generator: Adobe Illustrator 16.0.0, SVG Export Plug-In . SVG Version: 6.00 Build 0)  -->
<!DOCTYPE svg PUBLIC "-//W3C//DTD SVG 1.1//EN" "http://www.w3.org/Graphics/SVG/1.1/DTD/svg11.dtd">
<svg version="1.1" id="Layer_1" xmlns="http://www.w3.org/2000/svg" xmlns:xlink="http://www.w3.org/1999/xlink" x="0px" y="0px"
	 width="155px" height="51.667px" viewBox="-2.75 -4.083 155 51.667" enable-background="new -2.75 -4.083 155 51.667"
	 xml:space="preserve">
<g>
	<g>
		
			<path fill-rule="evenodd" clip-rule="evenodd" fill="#34A836" stroke="#34A836" stroke-width="0.5" stroke-miterlimit="2.6131" d="
			M12.112,29.863c2.186,0,3.969-1.783,3.969-3.966s-1.783-3.968-3.969-3.968c-2.185,0-3.967,1.785-3.967,3.968
			S9.927,29.863,12.112,29.863z"/>
		
			<path fill-rule="evenodd" clip-rule="evenodd" fill="#34A836" stroke="#34A836" stroke-width="0.5" stroke-miterlimit="2.6131" d="
			M23.014,21.261c-0.872,0.373-1.832,0.578-2.841,0.578c-2.431,0-4.582-1.197-5.899-3.032h-1.369v3.202
			c1.812,0.366,3.176,1.967,3.176,3.889c0,1.919-1.364,3.52-3.176,3.888v3.484c1.827,0.094,3.331,1.417,3.688,3.16
			c5.387-1.962,9.233-7.127,9.233-13.193c0-0.473-0.023-0.939-0.068-1.401C24.786,21.824,23.858,21.621,23.014,21.261z"/>
		
			<path fill-rule="evenodd" clip-rule="evenodd" fill="#34A836" stroke="#34A836" stroke-width="0.5" stroke-miterlimit="2.6131" d="
			M16.594,36.43c-1.165,0.424-2.403,0.695-3.688,0.797v3.969c2.099-0.102,3.77-1.836,3.77-3.963
			C16.675,36.956,16.647,36.686,16.594,36.43z"/>
		
			<path fill-rule="evenodd" clip-rule="evenodd" fill="#34A836" stroke="#34A836" stroke-width="0.5" stroke-miterlimit="2.6131" d="
			M12.905,37.227c1.286-0.102,2.524-0.373,3.688-0.797c-0.358-1.743-1.861-3.066-3.688-3.16V37.227z"/>
		
			<path fill-rule="evenodd" clip-rule="evenodd" fill="#34A836" stroke="#34A836" stroke-width="0.5" stroke-miterlimit="2.6131" d="
			M12.905,29.785c1.812-0.368,3.176-1.969,3.176-3.888c0-1.922-1.364-3.522-3.176-3.889V29.785z"/>
		
			<path fill-rule="evenodd" clip-rule="evenodd" fill="#34A836" stroke="#34A836" stroke-width="0.5" stroke-miterlimit="2.6131" d="
			M12.905,29.785v-7.776c-0.154-0.03-0.309-0.052-0.467-0.066c0.01,0.108,0.014,0.222,0.014,0.332c0,2.19-1.776,3.967-3.967,3.967
			c-0.11,0-0.219-0.006-0.326-0.014c0.168,2.038,1.873,3.636,3.953,3.636C12.384,29.863,12.649,29.837,12.905,29.785z"/>
		
			<path fill-rule="evenodd" clip-rule="evenodd" fill="#34A836" stroke="#34A836" stroke-width="0.5" stroke-miterlimit="2.6131" d="
			M8.485,26.241c2.191,0,3.967-1.776,3.967-3.967c0-0.11-0.004-0.224-0.014-0.332c-0.106-0.01-0.215-0.013-0.326-0.013
			c-2.19,0-3.966,1.774-3.966,3.968c0,0.111,0.004,0.223,0.014,0.33C8.266,26.235,8.375,26.241,8.485,26.241z"/>
		
			<path fill-rule="evenodd" clip-rule="evenodd" fill="#34A836" stroke="#34A836" stroke-width="0.5" stroke-miterlimit="2.6131" d="
			M8.146,25.897c0-2.193,1.776-3.968,3.966-3.968c0.111,0,0.22,0.003,0.326,0.013c-0.112-1.348-0.897-2.507-2.023-3.136H8.474
			c-0.186,2.021-1.883,3.606-3.953,3.606c0,0,0,0-0.001,0c0.068,2.017,1.645,3.651,3.639,3.814
			C8.149,26.12,8.146,26.009,8.146,25.897z"/>
		
			<path fill-rule="evenodd" clip-rule="evenodd" fill="#34A836" stroke="#34A836" stroke-width="0.5" stroke-miterlimit="2.6131" d="
			M4.521,22.413c2.07,0,3.767-1.585,3.953-3.606H6.553c-1.213,0.679-2.036,1.977-2.036,3.468
			C4.517,22.319,4.518,22.364,4.521,22.413L4.521,22.413z"/>
		
			<path fill-rule="evenodd" clip-rule="evenodd" fill="#34A836" stroke="#34A836" stroke-width="0.5" stroke-miterlimit="2.6131" d="
			M4.517,22.274c0-1.491,0.822-2.789,2.036-3.468H0.57c0.184,2.021,1.882,3.602,3.95,3.606v-0.005h0L4.517,22.274z"/>
		
			<path fill-rule="evenodd" clip-rule="evenodd" fill="#34A836" stroke="#34A836" stroke-width="0.5" stroke-miterlimit="2.6131" d="
			M10.415,18.807c1.126,0.629,1.912,1.788,2.023,3.136c0.159,0.015,0.313,0.036,0.467,0.066v-3.202H10.415z"/>
		
			<path fill-rule="evenodd" clip-rule="evenodd" fill="#34A836" stroke="#34A836" stroke-width="0.5" stroke-miterlimit="2.6131" d="
			M14.274,18.807c1.318,1.835,3.469,3.032,5.899,3.032c1.009,0,1.969-0.205,2.841-0.578c-1.231-0.524-2.29-1.381-3.061-2.454H14.274
			z"/>
		
			<path fill-rule="evenodd" clip-rule="evenodd" fill="#34A836" stroke="#34A836" stroke-width="0.5" stroke-miterlimit="2.6131" d="
			M14.274,18.807h5.68c-0.854-1.189-1.358-2.65-1.358-4.229c0-0.086,0.002-0.175,0.004-0.263l-5.681,0
			c-0.003,0.087-0.003,0.176-0.003,0.262C12.916,16.157,13.418,17.617,14.274,18.807z"/>
		
			<path fill-rule="evenodd" clip-rule="evenodd" fill="#34A836" stroke="#34A836" stroke-width="0.5" stroke-miterlimit="2.6131" d="
			M12.919,14.316l5.681,0c0.038-1.044,0.296-2.034,0.729-2.92c-1.33-0.848-2.81-1.478-4.394-1.841
			C13.742,10.801,12.986,12.47,12.919,14.316z"/>
		
			<path fill-rule="evenodd" clip-rule="evenodd" fill="#34A836" stroke="#34A836" stroke-width="0.5" stroke-miterlimit="2.6131" d="
			M14.935,9.554c1.584,0.363,3.064,0.993,4.394,1.841c0.766-1.565,2.077-2.813,3.685-3.498c-0.677-0.289-1.407-0.477-2.172-0.547
			h-1.337C17.715,7.515,16.112,8.328,14.935,9.554z"/>
		
			<path fill-rule="evenodd" clip-rule="evenodd" fill="#34A836" stroke="#34A836" stroke-width="0.5" stroke-miterlimit="2.6131" d="
			M20.842,7.35c0.765,0.07,1.495,0.258,2.172,0.547c0.677-0.289,1.408-0.477,2.172-0.547H20.842z"/>
		
			<path fill-rule="evenodd" clip-rule="evenodd" fill="#34A836" stroke="#34A836" stroke-width="0.5" stroke-miterlimit="2.6131" d="
			M25.186,7.35c-0.764,0.07-1.495,0.258-2.172,0.547c0.661,0.281,1.271,0.657,1.813,1.111c0.121-0.009,0.243-0.014,0.365-0.014
			c0.224,0,0.443,0.015,0.658,0.044V7.35H25.186z"/>
		
			<path fill-rule="evenodd" clip-rule="evenodd" fill="#34A836" stroke="#34A836" stroke-width="0.5" stroke-miterlimit="2.6131" d="
			M24.828,9.008c-0.542-0.454-1.153-0.83-1.813-1.111c-1.608,0.685-2.919,1.933-3.685,3.498c0.424,0.271,0.833,0.563,1.224,0.875
			C21.192,10.471,22.846,9.153,24.828,9.008z"/>
		
			<path fill-rule="evenodd" clip-rule="evenodd" fill="#34A836" stroke="#34A836" stroke-width="0.5" stroke-miterlimit="2.6131" d="
			M20.271,13.919c0-0.578,0.099-1.133,0.282-1.649c-0.391-0.312-0.799-0.604-1.224-0.875c-0.433,0.887-0.691,1.876-0.729,2.92h1.686
			C20.276,14.185,20.271,14.052,20.271,13.919z"/>
		
			<path fill-rule="evenodd" clip-rule="evenodd" fill="#1D1D1B" stroke="#1D1D1B" stroke-width="0.5" stroke-miterlimit="2.6131" d="
			M20.553,12.27c0.761,0.609,1.457,1.295,2.075,2.045h3.223v-4.26c-0.306-0.383-0.648-0.733-1.023-1.047
			C22.846,9.153,21.192,10.471,20.553,12.27z"/>
		
			<path fill-rule="evenodd" clip-rule="evenodd" fill="#1D1D1B" stroke="#1D1D1B" stroke-width="0.5" stroke-miterlimit="2.6131" d="
			M27.427,14.315c-0.056-1.608-0.638-3.083-1.576-4.26v4.26H27.427z"/>
		
			<path fill-rule="evenodd" clip-rule="evenodd" fill="#1D1D1B" stroke="#1D1D1B" stroke-width="0.5" stroke-miterlimit="2.6131" d="
			M24.828,9.008c0.375,0.313,0.718,0.664,1.023,1.047V9.039c-0.215-0.029-0.434-0.044-0.658-0.044
			C25.07,8.995,24.948,8.999,24.828,9.008z"/>
		
			<path fill-rule="evenodd" clip-rule="evenodd" fill="#1D1D1B" stroke="#1D1D1B" stroke-width="0.5" stroke-miterlimit="2.6131" d="
			M22.628,14.315h-2.342c0.188,2.339,2.008,4.218,4.321,4.491h0.507C24.564,17.15,23.714,15.633,22.628,14.315z"/>
		
			<path fill-rule="evenodd" clip-rule="evenodd" fill="#34A836" stroke="#34A836" stroke-width="0.5" stroke-miterlimit="2.6131" d="
			M14.274,18.807c-0.856-1.189-1.358-2.65-1.358-4.229c0-0.086,0-0.175,0.003-0.262h-0.014v4.491H14.274z"/>
		
			<path fill-rule="evenodd" clip-rule="evenodd" fill="#1D1D1B" stroke="#1D1D1B" stroke-width="0.5" stroke-miterlimit="2.6131" d="
			M20.271,13.919c0,0.133,0.005,0.266,0.016,0.396h2.342c-0.619-0.75-1.314-1.437-2.075-2.045
			C20.369,12.786,20.271,13.341,20.271,13.919z"/>
		
			<path fill-rule="evenodd" clip-rule="evenodd" fill="#34A836" stroke="#34A836" stroke-width="0.5" stroke-miterlimit="2.6131" d="
			M20.286,14.315H18.6c-0.002,0.088-0.004,0.176-0.004,0.263c0,1.579,0.504,3.039,1.358,4.229h4.653
			C22.294,18.533,20.474,16.654,20.286,14.315z"/>
		
			<path fill-rule="evenodd" clip-rule="evenodd" fill="#1D1D1B" stroke="#1D1D1B" stroke-width="0.5" stroke-miterlimit="2.6131" d="
			M22.628,14.315c1.086,1.317,1.937,2.835,2.486,4.491h0.666c0.024-0.002,0.047-0.005,0.071-0.008v-4.483H22.628z"/>
		
			<path fill-rule="evenodd" clip-rule="evenodd" fill="#34A836" stroke="#34A836" stroke-width="0.5" stroke-miterlimit="2.6131" d="
			M24.607,18.807h-4.653c0.771,1.073,1.829,1.93,3.061,2.454c0.889-0.378,1.686-0.928,2.351-1.608
			c-0.072-0.273-0.152-0.544-0.24-0.812C24.95,18.839,24.777,18.827,24.607,18.807z"/>
		
			<path fill-rule="evenodd" clip-rule="evenodd" fill="#34A836" stroke="#34A836" stroke-width="0.5" stroke-miterlimit="2.6131" d="
			M25.125,18.841c0.087,0.268,0.167,0.538,0.24,0.812c0.171-0.177,0.333-0.358,0.486-0.55v-0.296H25.78
			c-0.192,0.024-0.388,0.034-0.587,0.034C25.171,18.841,25.148,18.841,25.125,18.841z"/>
		
			<path fill-rule="evenodd" clip-rule="evenodd" fill="#34A836" stroke="#34A836" stroke-width="0.5" stroke-miterlimit="2.6131" d="
			M25.759,21.835c-0.075-0.745-0.207-1.477-0.394-2.183c-0.665,0.681-1.462,1.23-2.351,1.608
			C23.858,21.621,24.786,21.824,25.759,21.835z"/>
		
			<rect x="22.321" y="17.44" fill-rule="evenodd" clip-rule="evenodd" fill="#34A836" stroke="#34A836" stroke-width="0.5" stroke-miterlimit="2.6131" width="3.5" height="5.315"/>
		
			<path fill-rule="evenodd" clip-rule="evenodd" fill="#FFFFFF" stroke="#FFFFFF" stroke-width="0.5" stroke-miterlimit="2.6131" d="
			M25.811,17.685V9.572c-0.795-0.613-1.771-0.997-2.836-1.056h-0.577c-2.695,0.149-4.832,2.381-4.832,5.112
			c0,2.726,2.129,4.955,4.816,5.11h0.606C24.047,18.677,25.021,18.293,25.811,17.685z"/>
		
			<path fill-rule="evenodd" clip-rule="evenodd" fill="#FFFFFF" stroke="#FFFFFF" stroke-width="0.5" stroke-miterlimit="2.6131" d="
			M22.975,8.517c1.064,0.059,2.041,0.442,2.836,1.056V8.517H22.975z"/>
		
			<path fill-rule="evenodd" clip-rule="evenodd" fill="#FFFFFF" stroke="#FFFFFF" stroke-width="0.5" stroke-miterlimit="2.6131" d="
			M25.811,17.685c-0.79,0.609-1.763,0.992-2.822,1.055h2.822V17.685z"/>
		
			<path fill-rule="evenodd" clip-rule="evenodd" fill="#12100C" stroke="#12100C" stroke-width="0.5" stroke-miterlimit="2.6131" d="
			M20.929,15.092c0.941,0,1.709-0.768,1.709-1.709c0-0.94-0.768-1.709-1.709-1.709s-1.708,0.769-1.708,1.709
			C19.222,14.324,19.988,15.092,20.929,15.092z"/>
		
			<path fill-rule="evenodd" clip-rule="evenodd" fill="#F49900" stroke="#F49900" stroke-width="0.5" stroke-miterlimit="2.6131" d="
			M25.888,18.857c2.392-0.14,4.356-1.48,4.385-3.896l-4.385-0.623V18.857z"/>
		
			<path fill-rule="evenodd" clip-rule="evenodd" fill="#F8AF00" stroke="#F8AF00" stroke-width="0.5" stroke-miterlimit="2.6131" d="
			M33.286,14.234c-0.333-3.899-3.492-6.744-7.399-6.881v6.986L33.286,14.234z"/>
		<g>
			
				<path fill-rule="evenodd" clip-rule="evenodd" fill="#009EE2" stroke="#009EE2" stroke-width="0.5" stroke-miterlimit="2.6131" d="
				M39.472,6.021c0.496,0,0.899,0.402,0.899,0.9c0,0.496-0.403,0.898-0.899,0.898c-0.497,0-0.899-0.403-0.899-0.898
				C38.572,6.423,38.975,6.021,39.472,6.021L39.472,6.021z M36.434,12.858l3.561,1.983l-0.636,0.503
				c0.039,0.001,0.075,0.001,0.113,0.001c2.727,0,4.957-2.23,4.957-4.957V3.56c0-2.727-2.23-4.957-4.957-4.957
				c-2.728,0-4.957,2.23-4.957,4.957v6.829c0,1.375,0.566,2.623,1.478,3.524L36.434,12.858L36.434,12.858z M41.798,6.021
				c0.497,0,0.899,0.402,0.899,0.9c0,0.496-0.403,0.898-0.899,0.898c-0.497,0-0.899-0.403-0.899-0.898
				C40.898,6.423,41.301,6.021,41.798,6.021L41.798,6.021z M37.039,6.021c0.497,0,0.9,0.402,0.9,0.9c0,0.496-0.403,0.898-0.9,0.898
				S36.14,7.417,36.14,6.921C36.14,6.423,36.542,6.021,37.039,6.021z"/>
			
				<path fill-rule="evenodd" clip-rule="evenodd" fill="#009EE2" stroke="#009EE2" stroke-width="0.5" stroke-miterlimit="2.6131" d="
				M39.359,15.344c-1.307-0.03-2.495-0.572-3.366-1.432l-4.024,2.838L39.359,15.344z"/>
			
				<path fill-rule="evenodd" clip-rule="evenodd" fill="#009EE2" stroke="#009EE2" stroke-width="0.5" stroke-miterlimit="2.6131" d="
				M35.993,13.912c0.872,0.86,2.06,1.402,3.366,1.432l0.636-0.503l-3.561-1.983L35.993,13.912z"/>
		</g>
		
			<path fill-rule="evenodd" clip-rule="evenodd" fill="#008F39" stroke="#008F39" stroke-width="0.5" stroke-linecap="round" stroke-linejoin="round" stroke-miterlimit="2.6131" d="
			M12.909,29.741c4.782-0.005,10.441,1.403,12.635-3.849c-0.641,5.815-8.289,5.081-12.601,4.779L12.909,29.741z"/>
	</g>
	<g>
		<path fill="#0C0C0C" d="M34.838,35.725l2.025-2.793c1.382,1.504,3.621,2.854,6.475,2.854c2.945,0,4.08-1.442,4.08-2.822
			c0-4.295-11.905-1.625-11.905-9.144c0-3.406,2.946-6.015,7.456-6.015c3.161,0,5.769,1.043,7.641,2.885l-2.025,2.668
			c-1.626-1.624-3.805-2.362-5.953-2.362c-2.087,0-3.437,1.045-3.437,2.547c0,3.837,11.905,1.474,11.905,9.085
			c0,3.403-2.423,6.348-7.916,6.348C39.411,38.976,36.681,37.625,34.838,35.725z"/>
		<path fill="#0C0C0C" d="M57.516,36.555v7.701h-3.222V23.789h3.222v2.024c1.105-1.472,2.822-2.394,4.755-2.394
			c3.835,0,6.565,2.886,6.565,7.763c0,4.881-2.73,7.793-6.565,7.793C60.401,38.976,58.743,38.117,57.516,36.555z M65.523,31.183
			c0-2.882-1.655-4.908-4.204-4.908c-1.502,0-3.066,0.859-3.803,1.964v5.862c0.706,1.104,2.301,2.024,3.803,2.024
			C63.868,36.125,65.523,34.069,65.523,31.183z"/>
		<path fill="#0C0C0C" d="M71.17,31.183c0-4.293,3.133-7.763,7.519-7.763c4.449,0,7.274,3.375,7.274,8.039v0.797H74.547
			c0.244,2.211,1.901,4.084,4.695,4.084c1.472,0,3.16-0.583,4.232-1.658l1.473,2.119c-1.502,1.411-3.68,2.175-6.015,2.175
			C74.454,38.976,71.17,35.879,71.17,31.183z M78.659,26.062c-2.731,0-4.021,2.115-4.144,3.896h8.348
			C82.77,28.207,81.573,26.062,78.659,26.062z"/>
		<path fill="#0C0C0C" d="M98.235,38.61v-1.63c-1.104,1.293-2.854,1.995-4.817,1.995c-2.395,0-5.126-1.654-5.126-4.906
			c0-3.438,2.701-4.848,5.126-4.848c2.025,0,3.713,0.644,4.817,1.9v-2.207c0-1.719-1.444-2.764-3.467-2.764
			c-1.658,0-3.131,0.616-4.389,1.903l-1.352-2.241c1.721-1.656,3.869-2.394,6.232-2.394c3.312,0,6.198,1.383,6.198,5.339v9.852
			H98.235z M98.235,35.233v-2.27c-0.768-1.011-2.146-1.535-3.53-1.535c-1.808,0-3.19,1.073-3.19,2.672
			c0,1.624,1.383,2.668,3.19,2.668C96.089,36.769,97.468,36.246,98.235,35.233z"/>
		<path fill="#0C0C0C" d="M115.449,38.61l-4.51-6.138l-2.086,2.151v3.986h-3.223V18.144h3.223v12.793l6.534-7.148h3.989
			l-6.135,6.719l6.259,8.103H115.449z"/>
		<path fill="#0C0C0C" d="M125.085,38.61V21.304h-6.196v-3.16h15.987v3.16h-6.2V38.61H125.085z"/>
		<path fill="#0C0C0C" d="M133.712,31.183c0-4.264,2.883-7.763,7.607-7.763c4.726,0,7.61,3.499,7.61,7.763
			c0,4.237-2.885,7.793-7.61,7.793C136.595,38.976,133.712,35.42,133.712,31.183z M145.585,31.183c0-2.607-1.505-4.908-4.266-4.908
			c-2.731,0-4.263,2.301-4.263,4.908c0,2.642,1.531,4.942,4.263,4.942C144.08,36.125,145.585,33.824,145.585,31.183z"/>
	</g>
</g>
</svg>
