<?xml version="1.0" encoding="utf-8"?>
<!-- Generator: Adobe Illustrator 16.0.0, SVG Export Plug-In . SVG Version: 6.00 Build 0)  -->
<!DOCTYPE svg PUBLIC "-//W3C//DTD SVG 1.1//EN" "http://www.w3.org/Graphics/SVG/1.1/DTD/svg11.dtd">
<svg version="1.1" id="Layer_1" xmlns="http://www.w3.org/2000/svg" xmlns:xlink="http://www.w3.org/1999/xlink" x="0px" y="0px"
	 width="155px" height="51.667px" viewBox="0 0 155 51.667" enable-background="new 0 0 155 51.667" xml:space="preserve">
<g>
	<g>
		<path fill="#34A836" stroke="#34A836" stroke-width="0.5" stroke-miterlimit="2.6131" d="M14.862,34.267
			c2.186,0,3.969-1.783,3.969-3.966s-1.783-3.968-3.969-3.968s-3.967,1.785-3.967,3.968S12.677,34.267,14.862,34.267z"/>
		<path fill="#34A836" stroke="#34A836" stroke-width="0.5" stroke-miterlimit="2.6131" d="M25.765,25.666
			c-0.872,0.373-1.832,0.578-2.842,0.578c-2.431,0-4.582-1.197-5.898-3.032h-1.369v3.202c1.812,0.365,3.176,1.967,3.176,3.889
			c0,1.919-1.364,3.52-3.176,3.889v3.483c1.827,0.095,3.331,1.417,3.688,3.16c5.388-1.962,9.233-7.128,9.233-13.193
			c0-0.473-0.023-0.938-0.068-1.4C27.536,26.229,26.608,26.026,25.765,25.666z"/>
		<path fill="#34A836" stroke="#34A836" stroke-width="0.5" stroke-miterlimit="2.6131" d="M19.344,40.834
			c-1.164,0.424-2.402,0.694-3.688,0.797V45.6c2.099-0.103,3.77-1.836,3.77-3.963C19.425,41.361,19.397,41.09,19.344,40.834z"/>
		<path fill="#34A836" stroke="#34A836" stroke-width="0.5" stroke-miterlimit="2.6131" d="M15.655,41.631
			c1.286-0.103,2.524-0.373,3.688-0.797c-0.357-1.743-1.86-3.065-3.688-3.16V41.631z"/>
		<path fill="#34A836" stroke="#34A836" stroke-width="0.5" stroke-miterlimit="2.6131" d="M15.655,34.189
			c1.812-0.367,3.176-1.969,3.176-3.888c0-1.922-1.364-3.522-3.176-3.89V34.189z"/>
		<path fill="#34A836" stroke="#34A836" stroke-width="0.5" stroke-miterlimit="2.6131" d="M15.655,34.189v-7.775
			c-0.154-0.03-0.309-0.052-0.467-0.066c0.01,0.107,0.014,0.223,0.014,0.332c0,2.189-1.776,3.967-3.967,3.967
			c-0.11,0-0.219-0.006-0.326-0.014c0.168,2.038,1.873,3.637,3.953,3.637C15.134,34.267,15.399,34.242,15.655,34.189z"/>
		<path fill="#34A836" stroke="#34A836" stroke-width="0.5" stroke-miterlimit="2.6131" d="M11.235,30.646
			c2.19,0,3.967-1.777,3.967-3.968c0-0.11-0.004-0.224-0.014-0.332c-0.106-0.01-0.215-0.013-0.326-0.013
			c-2.19,0-3.966,1.773-3.966,3.968c0,0.11,0.004,0.224,0.014,0.33C11.017,30.639,11.125,30.646,11.235,30.646z"/>
		<path fill="#34A836" stroke="#34A836" stroke-width="0.5" stroke-miterlimit="2.6131" d="M10.896,30.301
			c0-2.192,1.775-3.968,3.966-3.968c0.111,0,0.22,0.003,0.326,0.013c-0.112-1.348-0.897-2.507-2.023-3.136h-1.94
			c-0.187,2.021-1.884,3.605-3.953,3.605c0,0,0,0-0.001,0c0.067,2.018,1.645,3.651,3.639,3.814
			C10.899,30.525,10.896,30.414,10.896,30.301z"/>
		<path fill="#34A836" stroke="#34A836" stroke-width="0.5" stroke-miterlimit="2.6131" d="M7.271,26.818
			c2.069,0,3.767-1.585,3.953-3.606H9.304c-1.214,0.679-2.036,1.978-2.036,3.468C7.268,26.723,7.269,26.769,7.271,26.818
			L7.271,26.818z"/>
		<path fill="#34A836" stroke="#34A836" stroke-width="0.5" stroke-miterlimit="2.6131" d="M7.268,26.678
			c0-1.49,0.821-2.789,2.036-3.468H3.32c0.184,2.021,1.882,3.602,3.95,3.605v-0.004l0,0L7.268,26.678z"/>
		<path fill="#34A836" stroke="#34A836" stroke-width="0.5" stroke-miterlimit="2.6131" d="M13.165,23.211
			c1.126,0.629,1.912,1.788,2.023,3.136c0.159,0.016,0.313,0.036,0.467,0.066v-3.202H13.165z"/>
		<path fill="#34A836" stroke="#34A836" stroke-width="0.5" stroke-miterlimit="2.6131" d="M17.024,23.211
			c1.317,1.835,3.469,3.032,5.898,3.032c1.01,0,1.97-0.205,2.842-0.578c-1.231-0.524-2.29-1.381-3.062-2.454H17.024z"/>
		<path fill="#34A836" stroke="#34A836" stroke-width="0.5" stroke-miterlimit="2.6131" d="M17.024,23.211h5.68
			c-0.854-1.188-1.357-2.649-1.357-4.229c0-0.086,0.002-0.176,0.004-0.264h-5.682c-0.003,0.087-0.003,0.177-0.003,0.263
			C15.666,20.562,16.168,22.022,17.024,23.211z"/>
		<path fill="#34A836" stroke="#34A836" stroke-width="0.5" stroke-miterlimit="2.6131" d="M15.669,18.72h5.682
			c0.038-1.044,0.296-2.033,0.729-2.92c-1.33-0.848-2.81-1.478-4.394-1.841C16.492,15.206,15.736,16.875,15.669,18.72z"/>
		<path fill="#34A836" stroke="#34A836" stroke-width="0.5" stroke-miterlimit="2.6131" d="M17.686,13.958
			c1.584,0.363,3.063,0.993,4.394,1.841c0.766-1.564,2.077-2.813,3.686-3.498c-0.678-0.289-1.407-0.477-2.173-0.547h-1.337
			C20.465,11.919,18.862,12.733,17.686,13.958z"/>
		<path fill="#34A836" stroke="#34A836" stroke-width="0.5" stroke-miterlimit="2.6131" d="M23.592,11.754
			c0.766,0.07,1.495,0.258,2.173,0.547c0.677-0.289,1.407-0.477,2.172-0.547H23.592z"/>
		<path fill="#34A836" stroke="#34A836" stroke-width="0.5" stroke-miterlimit="2.6131" d="M27.937,11.754
			c-0.765,0.07-1.495,0.258-2.172,0.547c0.66,0.281,1.271,0.657,1.813,1.111c0.121-0.009,0.243-0.014,0.365-0.014
			c0.224,0,0.442,0.015,0.658,0.044v-1.688H27.937z"/>
		<path fill="#34A836" stroke="#34A836" stroke-width="0.5" stroke-miterlimit="2.6131" d="M27.578,13.413
			c-0.542-0.454-1.153-0.83-1.813-1.111c-1.608,0.686-2.919,1.934-3.686,3.498c0.424,0.271,0.833,0.563,1.225,0.875
			C23.942,14.875,25.597,13.557,27.578,13.413z"/>
		<path fill="#34A836" stroke="#34A836" stroke-width="0.5" stroke-miterlimit="2.6131" d="M23.021,18.324
			c0-0.578,0.099-1.133,0.281-1.649c-0.391-0.312-0.799-0.604-1.224-0.875c-0.433,0.888-0.69,1.876-0.729,2.92h1.686
			C23.026,18.589,23.021,18.457,23.021,18.324z"/>
		<path fill="#1D1D1B" stroke="#1D1D1B" stroke-width="0.5" stroke-miterlimit="2.6131" d="M23.303,16.674
			c0.762,0.609,1.457,1.295,2.075,2.045h3.224v-4.26c-0.307-0.383-0.648-0.732-1.023-1.047
			C25.597,13.557,23.942,14.875,23.303,16.674z"/>
		<path fill="#1D1D1B" stroke="#1D1D1B" stroke-width="0.5" stroke-miterlimit="2.6131" d="M30.177,18.719
			c-0.056-1.607-0.638-3.083-1.575-4.26v4.26H30.177z"/>
		<path fill="#1D1D1B" stroke="#1D1D1B" stroke-width="0.5" stroke-miterlimit="2.6131" d="M27.578,13.413
			c0.375,0.313,0.718,0.664,1.023,1.047v-1.016c-0.216-0.029-0.435-0.044-0.658-0.044C27.82,13.4,27.698,13.404,27.578,13.413z"/>
		<path fill="#1D1D1B" stroke="#1D1D1B" stroke-width="0.5" stroke-miterlimit="2.6131" d="M25.378,18.719h-2.342
			c0.188,2.339,2.008,4.219,4.321,4.491h0.507C27.314,21.554,26.464,20.038,25.378,18.719z"/>
		<path fill="#34A836" stroke="#34A836" stroke-width="0.5" stroke-miterlimit="2.6131" d="M17.024,23.211
			c-0.856-1.188-1.358-2.649-1.358-4.229c0-0.086,0-0.176,0.003-0.263h-0.014v4.491H17.024z"/>
		<path fill="#1D1D1B" stroke="#1D1D1B" stroke-width="0.5" stroke-miterlimit="2.6131" d="M23.021,18.324
			c0,0.133,0.005,0.266,0.016,0.396h2.342c-0.619-0.75-1.313-1.437-2.074-2.045C23.119,17.191,23.021,17.746,23.021,18.324z"/>
		<path fill="#34A836" stroke="#34A836" stroke-width="0.5" stroke-miterlimit="2.6131" d="M23.036,18.719h-1.686
			c-0.002,0.088-0.004,0.177-0.004,0.264c0,1.579,0.504,3.039,1.357,4.229h4.653C25.044,22.938,23.225,21.058,23.036,18.719z"/>
		<path fill="#1D1D1B" stroke="#1D1D1B" stroke-width="0.5" stroke-miterlimit="2.6131" d="M25.378,18.719
			c1.086,1.317,1.938,2.835,2.486,4.491h0.666c0.024-0.002,0.047-0.005,0.071-0.008v-4.483H25.378z"/>
		<path fill="#34A836" stroke="#34A836" stroke-width="0.5" stroke-miterlimit="2.6131" d="M27.357,23.211h-4.653
			c0.771,1.073,1.829,1.93,3.062,2.454c0.889-0.378,1.686-0.928,2.351-1.608c-0.072-0.272-0.152-0.544-0.24-0.812
			C27.7,23.244,27.527,23.232,27.357,23.211z"/>
		<path fill="#34A836" stroke="#34A836" stroke-width="0.5" stroke-miterlimit="2.6131" d="M27.875,23.246
			c0.087,0.268,0.167,0.538,0.24,0.812c0.171-0.177,0.333-0.357,0.486-0.55v-0.296H28.53c-0.192,0.024-0.388,0.034-0.587,0.034
			C27.921,23.246,27.898,23.246,27.875,23.246z"/>
		<path fill="#34A836" stroke="#34A836" stroke-width="0.5" stroke-miterlimit="2.6131" d="M28.509,26.24
			c-0.074-0.745-0.207-1.478-0.394-2.184c-0.665,0.682-1.462,1.23-2.351,1.608C26.608,26.026,27.536,26.229,28.509,26.24z"/>
		
			<rect x="25.071" y="21.844" fill="#34A836" stroke="#34A836" stroke-width="0.5" stroke-miterlimit="2.6131" width="3.5" height="5.315"/>
		<path fill="#FFFFFF" stroke="#FFFFFF" stroke-width="0.5" stroke-miterlimit="2.6131" d="M28.562,22.089v-8.112
			c-0.795-0.613-1.771-0.997-2.836-1.057h-0.577c-2.695,0.149-4.832,2.381-4.832,5.112c0,2.726,2.129,4.955,4.815,5.109h0.606
			C26.797,23.082,27.771,22.698,28.562,22.089z"/>
		<path fill="#FFFFFF" stroke="#FFFFFF" stroke-width="0.5" stroke-miterlimit="2.6131" d="M25.726,12.921
			c1.063,0.06,2.041,0.442,2.836,1.057v-1.057H25.726z"/>
		<path fill="#FFFFFF" stroke="#FFFFFF" stroke-width="0.5" stroke-miterlimit="2.6131" d="M28.562,22.089
			c-0.79,0.609-1.764,0.992-2.822,1.056h2.822V22.089z"/>
		<path fill="#12100C" stroke="#12100C" stroke-width="0.5" stroke-miterlimit="2.6131" d="M23.68,19.497
			c0.94,0,1.709-0.768,1.709-1.709c0-0.94-0.769-1.709-1.709-1.709c-0.941,0-1.708,0.769-1.708,1.709
			C21.973,18.729,22.738,19.497,23.68,19.497z"/>
		<path fill="#F49900" stroke="#F49900" stroke-width="0.5" stroke-miterlimit="2.6131" d="M28.639,23.261
			c2.392-0.14,4.355-1.479,4.385-3.896l-4.385-0.623V23.261z"/>
		<path fill="#F8AF00" stroke="#F8AF00" stroke-width="0.5" stroke-miterlimit="2.6131" d="M36.036,18.638
			c-0.333-3.898-3.492-6.743-7.398-6.881v6.986L36.036,18.638z"/>
		<g>
			<path fill="#009EE2" stroke="#009EE2" stroke-width="0.5" stroke-miterlimit="2.6131" d="M42.223,10.425
				c0.495,0,0.898,0.402,0.898,0.9c0,0.496-0.403,0.897-0.898,0.897c-0.497,0-0.899-0.402-0.899-0.897
				C41.322,10.828,41.726,10.425,42.223,10.425L42.223,10.425z M39.185,17.262l3.561,1.983l-0.636,0.503
				c0.039,0.001,0.075,0.001,0.113,0.001c2.727,0,4.957-2.229,4.957-4.957V7.964c0-2.727-2.23-4.957-4.957-4.957
				c-2.729,0-4.957,2.23-4.957,4.957v6.829c0,1.375,0.565,2.623,1.478,3.524L39.185,17.262L39.185,17.262z M44.548,10.425
				c0.497,0,0.899,0.402,0.899,0.9c0,0.496-0.403,0.897-0.899,0.897c-0.497,0-0.898-0.402-0.898-0.897
				C43.648,10.828,44.051,10.425,44.548,10.425L44.548,10.425z M39.789,10.425c0.497,0,0.9,0.402,0.9,0.9
				c0,0.496-0.403,0.897-0.9,0.897s-0.898-0.401-0.898-0.897C38.891,10.828,39.292,10.425,39.789,10.425z"/>
			<path fill="#009EE2" stroke="#009EE2" stroke-width="0.5" stroke-miterlimit="2.6131" d="M42.109,19.749
				c-1.308-0.03-2.495-0.572-3.366-1.432l-4.024,2.838L42.109,19.749z"/>
			<path fill="#009EE2" stroke="#009EE2" stroke-width="0.5" stroke-miterlimit="2.6131" d="M38.743,18.317
				c0.872,0.859,2.06,1.401,3.366,1.432l0.636-0.503l-3.561-1.983L38.743,18.317z"/>
		</g>
		
			<path fill="#008F39" stroke="#008F39" stroke-width="0.5" stroke-linecap="round" stroke-linejoin="round" stroke-miterlimit="2.6131" d="
			M15.659,34.146c4.782-0.006,10.441,1.402,12.635-3.85c-0.641,5.814-8.289,5.081-12.601,4.779L15.659,34.146z"/>
	</g>
	<g>
		<path fill="#0C0C0C" stroke="#0C0C0C" stroke-miterlimit="10" d="M37.588,40.129l2.025-2.793c1.382,1.504,3.621,2.854,6.475,2.854
			c2.945,0,4.08-1.443,4.08-2.822c0-4.295-11.904-1.625-11.904-9.145c0-3.405,2.945-6.015,7.455-6.015
			c3.161,0,5.77,1.043,7.642,2.885l-2.025,2.668c-1.626-1.624-3.805-2.361-5.953-2.361c-2.087,0-3.437,1.044-3.437,2.546
			c0,3.838,11.905,1.475,11.905,9.086c0,3.402-2.424,6.348-7.916,6.348C42.161,43.38,39.432,42.029,37.588,40.129z"/>
		<path fill="#0C0C0C" stroke="#0C0C0C" stroke-miterlimit="10" d="M60.267,40.959v7.7h-3.223V28.193h3.223v2.024
			c1.104-1.472,2.821-2.394,4.755-2.394c3.835,0,6.564,2.886,6.564,7.763c0,4.881-2.729,7.793-6.564,7.793
			C63.151,43.38,61.493,42.521,60.267,40.959z M68.273,35.587c0-2.883-1.655-4.908-4.204-4.908c-1.502,0-3.066,0.859-3.803,1.965
			v5.861c0.706,1.104,2.301,2.023,3.803,2.023C66.618,40.529,68.273,38.473,68.273,35.587z"/>
		<path fill="#0C0C0C" stroke="#0C0C0C" stroke-miterlimit="10" d="M73.92,35.587c0-4.293,3.133-7.764,7.52-7.764
			c4.449,0,7.273,3.375,7.273,8.039v0.797H77.297c0.244,2.211,1.901,4.084,4.695,4.084c1.472,0,3.16-0.582,4.232-1.657l1.473,2.118
			c-1.502,1.412-3.68,2.176-6.016,2.176C77.204,43.38,73.92,40.283,73.92,35.587z M81.409,30.466c-2.731,0-4.021,2.115-4.144,3.896
			h8.348C85.52,32.611,84.323,30.466,81.409,30.466z"/>
		<path fill="#0C0C0C" stroke="#0C0C0C" stroke-miterlimit="10" d="M100.984,43.014v-1.63c-1.104,1.293-2.854,1.995-4.816,1.995
			c-2.395,0-5.126-1.654-5.126-4.906c0-3.438,2.701-4.848,5.126-4.848c2.025,0,3.713,0.644,4.816,1.899v-2.207
			c0-1.719-1.443-2.764-3.467-2.764c-1.658,0-3.131,0.616-4.389,1.902l-1.352-2.24c1.721-1.656,3.869-2.395,6.231-2.395
			c3.312,0,6.198,1.383,6.198,5.34v9.852L100.984,43.014L100.984,43.014z M100.984,39.637v-2.271
			c-0.768-1.01-2.146-1.535-3.529-1.535c-1.809,0-3.189,1.074-3.189,2.673c0,1.624,1.383,2.668,3.189,2.668
			C98.839,41.173,100.218,40.65,100.984,39.637z"/>
		<path fill="#0C0C0C" stroke="#0C0C0C" stroke-miterlimit="10" d="M118.199,43.014l-4.51-6.138l-2.086,2.15v3.986h-3.224V22.548
			h3.224v12.793l6.533-7.148h3.989l-6.135,6.719l6.259,8.104L118.199,43.014L118.199,43.014z"/>
		<path fill="#0C0C0C" stroke="#0C0C0C" stroke-miterlimit="10" d="M127.835,43.014V25.708h-6.196v-3.16h15.987v3.16h-6.2v17.306
			H127.835z"/>
		<path fill="#0C0C0C" stroke="#0C0C0C" stroke-miterlimit="10" d="M136.462,35.587c0-4.264,2.883-7.764,7.606-7.764
			c4.727,0,7.611,3.5,7.611,7.764c0,4.236-2.886,7.793-7.611,7.793C139.345,43.38,136.462,39.824,136.462,35.587z M148.335,35.587
			c0-2.607-1.505-4.908-4.267-4.908c-2.73,0-4.262,2.301-4.262,4.908c0,2.643,1.53,4.941,4.262,4.941
			C146.83,40.529,148.335,38.228,148.335,35.587z"/>
	</g>
</g>
</svg>
